<?xml version="1.0" encoding="utf-8"?>
<!-- Generator: Adobe Illustrator 16.0.0, SVG Export Plug-In . SVG Version: 6.00 Build 0)  -->
<!DOCTYPE svg PUBLIC "-//W3C//DTD SVG 1.1//EN" "http://www.w3.org/Graphics/SVG/1.1/DTD/svg11.dtd">
<svg version="1.1" id="Layer_1" xmlns="http://www.w3.org/2000/svg" xmlns:xlink="http://www.w3.org/1999/xlink" x="0px" y="0px"
	 width="100px" height="100px" viewBox="0 0 100 100" enable-background="new 0 0 100 100" xml:space="preserve">
<g id="Layer_2">
</g>
<g id="Layer_2_1_">
</g>
<g>
	<path d="M40,11C17.91,11,0,28.91,0,51c0,22.092,17.91,40,40,40s40-17.908,40-40C80,28.91,62.09,11,40,11z M40,87
		C20.149,87,4,70.851,4,51s16.149-36,36-36s36,16.149,36,36S59.851,87,40,87z"/>
	<path d="M52.534,57.283L39.997,69.818L27.465,57.283c-0.781-0.781-2.047-0.78-2.828,0c-0.781,0.781-0.781,2.047,0,2.828
		l13.946,13.95c0.375,0.375,0.885,0.586,1.414,0.586c0.531,0,1.039-0.211,1.414-0.586l13.951-13.95c0.781-0.78,0.781-2.047,0-2.828
		S53.315,56.502,52.534,57.283z"/>
	<path d="M40,61.646c0.632,0,1.247-0.256,1.695-0.704c0.448-0.439,0.704-1.063,0.704-1.695c0-0.633-0.256-1.248-0.704-1.696
		c-0.896-0.896-2.504-0.888-3.392,0c-0.448,0.448-0.703,1.063-0.703,1.696c0,0.632,0.255,1.256,0.703,1.695
		C38.743,61.39,39.368,61.646,40,61.646z"/>
	<path d="M40,43.918c1.327,0,2.399-1.08,2.399-2.4c0-1.328-1.072-2.408-2.399-2.408c-1.328,0-2.399,1.08-2.399,2.408
		C37.601,42.838,38.672,43.918,40,43.918z"/>
	<path d="M40,52.781c1.327,0,2.399-1.071,2.399-2.399s-1.072-2.4-2.399-2.4c-1.328,0-2.399,1.072-2.399,2.4S38.672,52.781,40,52.781
		z"/>
	<path d="M40,35.046c0.632,0,1.247-0.256,1.695-0.704s0.704-1.064,0.704-1.696s-0.256-1.248-0.704-1.696
		c-0.896-0.896-2.504-0.896-3.392,0c-0.448,0.448-0.703,1.064-0.703,1.696s0.255,1.256,0.703,1.696
		C38.751,34.79,39.368,35.046,40,35.046z"/>
</g>
</svg>
