<?xml version="1.0" encoding="utf-8"?>
<!-- Generator: Adobe Illustrator 16.0.0, SVG Export Plug-In . SVG Version: 6.00 Build 0)  -->
<!DOCTYPE svg PUBLIC "-//W3C//DTD SVG 1.1//EN" "http://www.w3.org/Graphics/SVG/1.1/DTD/svg11.dtd">
<svg version="1.1" id="Layer_1" xmlns="http://www.w3.org/2000/svg" xmlns:xlink="http://www.w3.org/1999/xlink" x="0px" y="0px"
	 width="100px" height="100px" viewBox="0 0 100 100" enable-background="new 0 0 100 100" xml:space="preserve">
<g id="Layer_2">
</g>
<g id="Layer_2_1_">
</g>
<g>
	<path d="M40.012,11c-22.09,0-40,17.91-40,40s17.91,40,40,40c22.093,0,40-17.91,40-40S62.104,11,40.012,11z M40.012,15
		c19.851,0,36,16.15,36,36c0,19.852-16.149,36-36,36s-36-16.148-36-36C4.012,31.15,20.161,15,40.012,15z"/>
	<path d="M62.782,49.584c0.375,0.375,0.586,0.884,0.586,1.414c0,0.531-0.211,1.039-0.586,1.414L44.03,71.164
		c-0.781,0.781-2.047,0.781-2.828,0c-0.391-0.391-0.586-0.902-0.586-1.414s0.195-1.023,0.586-1.414L56.538,53H20.616
		c-1.104,0-2-0.895-2-2c0-1.104,0.896-2,2-2h35.926l-15.34-15.336c-0.781-0.781-0.781-2.047,0-2.828c0.78-0.781,2.047-0.781,2.828,0
		L62.782,49.584z"/>
</g>
</svg>
