<?xml version="1.0" encoding="utf-8"?>
<!-- Generator: Adobe Illustrator 16.0.0, SVG Export Plug-In . SVG Version: 6.00 Build 0)  -->
<!DOCTYPE svg PUBLIC "-//W3C//DTD SVG 1.1//EN" "http://www.w3.org/Graphics/SVG/1.1/DTD/svg11.dtd">
<svg version="1.1" id="Layer_1" xmlns="http://www.w3.org/2000/svg" xmlns:xlink="http://www.w3.org/1999/xlink" x="0px" y="0px"
	 width="100px" height="100px" viewBox="0 0 100 100" enable-background="new 0 0 100 100" xml:space="preserve">
<g id="Layer_2">
</g>
<g id="Layer_2_1_">
</g>
<g>
	<g id="XMLID_1_">
		<g>
			<path d="M41.41,28.23c-0.37-0.38-0.88-0.59-1.41-0.59s-1.04,0.21-1.42,0.59L19.84,46.98c-0.79,0.78-0.79,2.05,0,2.83
				c0.78,0.78,2.04,0.78,2.82,0L38,34.47V70.4c0,1.1,0.9,2,2,2s2-0.9,2-2V34.47l15.34,15.34c0.391,0.39,0.9,0.59,1.41,0.59
				s1.02-0.2,1.41-0.59c0.79-0.78,0.79-2.05,0-2.83L41.41,28.23z"/>
			<path d="M40,91c22.09,0,40-17.91,40-40S62.09,11,40,11S0,28.91,0,51S17.91,91,40,91z M40,15c19.85,0,36,16.15,36,36
				c0,19.85-16.15,36-36,36C20.15,87,4,70.85,4,51C4,31.15,20.15,15,40,15z"/>
		</g>
		<g>
		</g>
	</g>
</g>
</svg>
