<?xml version="1.0" encoding="utf-8"?>
<!-- Generator: Adobe Illustrator 16.0.0, SVG Export Plug-In . SVG Version: 6.00 Build 0)  -->
<!DOCTYPE svg PUBLIC "-//W3C//DTD SVG 1.1//EN" "http://www.w3.org/Graphics/SVG/1.1/DTD/svg11.dtd">
<svg version="1.1" id="Layer_1" xmlns="http://www.w3.org/2000/svg" xmlns:xlink="http://www.w3.org/1999/xlink" x="0px" y="0px"
	 width="100px" height="100px" viewBox="0 0 100 100" enable-background="new 0 0 100 100" xml:space="preserve">
<g id="Layer_2">
</g>
<g id="Layer_2_1_">
</g>
<path d="M40,15c19.851,0,36,16.15,36,36c0,19.851-16.149,36-36,36S4,70.851,4,51C4,31.15,20.149,15,40,15 M40,11
	C17.91,11,0,28.91,0,51c0,22.092,17.91,40,40,40s40-17.908,40-40C80,28.91,62.09,11,40,11L40,11z"/>
<path d="M57.188,34.219L33.75,57.656L22.812,46.719L15,54.531l18.75,18.75L65,42.031L57.188,34.219z"/>
</svg>
