<?xml version="1.0" encoding="utf-8"?>
<!-- Generator: Adobe Illustrator 16.0.0, SVG Export Plug-In . SVG Version: 6.00 Build 0)  -->
<!DOCTYPE svg PUBLIC "-//W3C//DTD SVG 1.1//EN" "http://www.w3.org/Graphics/SVG/1.1/DTD/svg11.dtd">
<svg version="1.1" id="Layer_1" xmlns="http://www.w3.org/2000/svg" xmlns:xlink="http://www.w3.org/1999/xlink" x="0px" y="0px"
	 width="100px" height="100px" viewBox="0 0 100 100" enable-background="new 0 0 100 100" xml:space="preserve">
<g id="Layer_2">
</g>
<g id="Layer_2_1_">
</g>
<g>
	<g id="XMLID_1_">
		<g>
			<path d="M62.77,52.41c0.381-0.37,0.591-0.88,0.591-1.41c0-0.53-0.21-1.04-0.591-1.42L44.02,30.84c-0.78-0.79-2.05-0.79-2.83,0
				c-0.78,0.78-0.78,2.04,0,2.82L56.53,49H20.6c-1.1,0-2,0.9-2,2c0,1.1,0.9,2,2,2h35.93L41.19,68.34c-0.39,0.391-0.59,0.9-0.59,1.41
				s0.2,1.02,0.59,1.41c0.78,0.79,2.05,0.79,2.83,0L62.77,52.41z"/>
			<path d="M0,51c0,22.09,17.91,40,40,40s40-17.91,40-40S62.09,11,40,11S0,28.91,0,51z M76,51c0,19.85-16.15,36-36,36
				C20.15,87,4,70.85,4,51c0-19.85,16.15-36,36-36C59.85,15,76,31.15,76,51z"/>
		</g>
		<g>
		</g>
	</g>
</g>
</svg>
