<?xml version="1.0" encoding="utf-8"?>
<!-- Generator: Adobe Illustrator 16.0.0, SVG Export Plug-In . SVG Version: 6.00 Build 0)  -->
<!DOCTYPE svg PUBLIC "-//W3C//DTD SVG 1.1//EN" "http://www.w3.org/Graphics/SVG/1.1/DTD/svg11.dtd">
<svg version="1.1" id="Layer_1" xmlns="http://www.w3.org/2000/svg" xmlns:xlink="http://www.w3.org/1999/xlink" x="0px" y="0px"
	 width="100px" height="100px" viewBox="0 0 100 100" enable-background="new 0 0 100 100" xml:space="preserve">
<g id="Layer_2">
</g>
<g id="Layer_2_1_">
</g>
<path d="M40,11C17.908,11,0,28.909,0,51c0,22.092,17.908,40,40,40s40-17.908,40-40C80,28.909,62.092,11,40,11z M62.018,52.757
	L44.555,70.199c-0.488,0.488-1.128,0.703-1.768,0.703s-1.279-0.309-1.768-0.797c-0.977-0.977-0.977-2.434,0-3.41L54.216,53.5H22.333
	c-1.381,0-2.5-1.119-2.5-2.5s1.119-2.5,2.5-2.5h31.879L41.02,35.308c-0.977-0.977-0.977-2.432,0-3.409s2.559-1.04,3.535-0.063
	l17.463,17.432c0.469,0.469,0.732,1.081,0.732,1.744C62.75,51.676,62.486,52.288,62.018,52.757z"/>
</svg>
