<?xml version="1.0" encoding="utf-8"?>
<!-- Generator: Adobe Illustrator 16.0.0, SVG Export Plug-In . SVG Version: 6.00 Build 0)  -->
<!DOCTYPE svg PUBLIC "-//W3C//DTD SVG 1.1//EN" "http://www.w3.org/Graphics/SVG/1.1/DTD/svg11.dtd">
<svg version="1.1" id="Layer_1" xmlns="http://www.w3.org/2000/svg" xmlns:xlink="http://www.w3.org/1999/xlink" x="0px" y="0px"
	 width="100px" height="100px" viewBox="0 0 100 100" enable-background="new 0 0 100 100" xml:space="preserve">
<g id="Layer_2">
</g>
<g id="Layer_2_1_">
</g>
<path d="M40,15c19.851,0,36,16.149,36,36S59.851,87,40,87S4,70.851,4,51S20.149,15,40,15 M40,11C17.91,11,0,28.91,0,51
	s17.91,40,40,40c22.092,0,40-17.91,40-40S62.092,11,40,11L40,11z"/>
<path d="M32.928,71.75c-0.512,0-1.024-0.195-1.415-0.586c-0.781-0.781-0.781-2.048,0-2.828l17.338-17.334L31.514,33.664
	c-0.781-0.781-0.781-2.047,0-2.828c0.78-0.781,2.047-0.781,2.828,0l18.753,18.752c0.375,0.375,0.586,0.884,0.586,1.414
	s-0.211,1.039-0.586,1.414L34.342,71.164C33.951,71.555,33.439,71.75,32.928,71.75z"/>
</svg>
