<?xml version="1.0" encoding="utf-8"?>
<!-- Generator: Adobe Illustrator 16.0.0, SVG Export Plug-In . SVG Version: 6.00 Build 0)  -->
<!DOCTYPE svg PUBLIC "-//W3C//DTD SVG 1.1//EN" "http://www.w3.org/Graphics/SVG/1.1/DTD/svg11.dtd">
<svg version="1.1" id="Layer_1" xmlns="http://www.w3.org/2000/svg" xmlns:xlink="http://www.w3.org/1999/xlink" x="0px" y="0px"
	 width="100px" height="100px" viewBox="0 0 100 100" enable-background="new 0 0 100 100" xml:space="preserve">
<g id="Layer_2">
</g>
<g id="Layer_2_1_">
</g>
<path d="M30.37,86.75c-0.64,0-1.279-0.244-1.768-0.732c-0.977-0.977-0.977-2.56,0-3.535l21.672-21.667L28.603,39.143
	c-0.977-0.976-0.977-2.559,0-3.535c0.977-0.977,2.559-0.977,3.535,0l23.44,23.44c0.469,0.469,0.732,1.104,0.732,1.768
	s-0.264,1.3-0.732,1.769l-23.44,23.434C31.649,86.506,31.01,86.75,30.37,86.75z"/>
<path d="M52.5,63.312h-50c-1.381,0-2.5-1.119-2.5-2.5s1.119-2.5,2.5-2.5h50c1.381,0,2.5,1.119,2.5,2.5S53.881,63.312,52.5,63.312z"
	/>
</svg>
