<?xml version="1.0" encoding="utf-8"?>
<!-- Generator: Adobe Illustrator 16.0.0, SVG Export Plug-In . SVG Version: 6.00 Build 0)  -->
<!DOCTYPE svg PUBLIC "-//W3C//DTD SVG 1.1//EN" "http://www.w3.org/Graphics/SVG/1.1/DTD/svg11.dtd">
<svg version="1.1" id="Layer_1" xmlns="http://www.w3.org/2000/svg" xmlns:xlink="http://www.w3.org/1999/xlink" x="0px" y="0px"
	 width="100px" height="100px" viewBox="0 0 100 100" enable-background="new 0 0 100 100" xml:space="preserve">
<g id="Layer_2">
</g>
<g id="Layer_2_1_">
</g>
<g>
	<path d="M25.621,63.987c2.325-0.786,4.779-1.466,7.257-2.009c-1.459-1.361-2.782-3.075-3.945-5.115
		c-0.743,1.939-1.662,3.958-2.783,6.117C25.971,63.324,25.794,63.659,25.621,63.987z"/>
	<path d="M42.669,22.75H0v64h64V44.081L42.669,22.75z M53.116,66.373l-0.098,0.21c-0.242,0.918-1.095,2.259-4.005,2.259
		c-2.813,0-6.934-1.199-10.569-3.065c-5.502,0.591-11.295,1.812-15.631,3.294c-4.559,7.798-7.951,11.279-10.979,11.279
		c-0.146,0-0.292-0.01-0.441-0.03l-0.089,0.172l-0.82-0.397c0,0-0.168-0.085-0.17-0.085c-0.021,0-0.094-0.028-0.165-0.066
		l-2.13-1.089l0.209-0.423c-0.205-0.451-0.319-1.074-0.149-1.915c0.459-2.278,2.935-5.771,8.508-8.733l1.022-0.541l0.242,0.379
		c1.189-2.063,2.471-4.478,3.823-7.197c1.816-3.658,3.251-7.262,4.268-10.712c-1.377-4.708-1.742-9.437-0.948-12.396
		c0.411-1.533,1.504-2.485,2.849-2.485l0.941,0.006c0.951,0,1.748,0.354,2.3,1.021c0.716,0.862,0.909,2.102,0.588,3.787L31.6,40.012
		l-0.024,1.396c-0.043,2.502-0.088,5.09-0.577,8.023c1.438,4.124,3.483,7.417,5.771,9.296c0.901,0.719,1.942,1.429,3.09,2.108
		c1.717-0.184,3.302-0.277,4.712-0.277c4.567,0,7.32,0.842,8.418,2.571C53.603,64.094,53.648,65.245,53.116,66.373z"/>
</g>
</svg>
