<?xml version="1.0" encoding="utf-8"?>
<!-- Generator: Adobe Illustrator 16.0.0, SVG Export Plug-In . SVG Version: 6.00 Build 0)  -->
<!DOCTYPE svg PUBLIC "-//W3C//DTD SVG 1.1//EN" "http://www.w3.org/Graphics/SVG/1.1/DTD/svg11.dtd">
<svg version="1.1" id="Layer_1" xmlns="http://www.w3.org/2000/svg" xmlns:xlink="http://www.w3.org/1999/xlink" x="0px" y="0px"
	 width="100px" height="100px" viewBox="0 0 100 100" enable-background="new 0 0 100 100" xml:space="preserve">
<g id="Layer_2">
</g>
<g id="Layer_2_1_">
</g>
<path d="M40,15c19.851,0,36,16.149,36,36S59.851,86.999,40,86.999S4,70.851,4,51S20.149,15,40,15 M40,11C17.91,11,0,28.91,0,51
	c0,22.091,17.91,39.999,40,39.999S80,73.091,80,51C80,28.91,62.09,11,40,11L40,11z"/>
<g>
	<polygon points="23.963,63.52 23.963,69.934 56.037,69.934 56.037,63.52 40,63.52 	"/>
	<polygon points="46.414,47.482 46.414,34.652 33.585,34.652 33.585,47.482 23.963,47.482 40,63.52 56.037,47.482 	"/>
</g>
</svg>
