<?xml version="1.0" encoding="utf-8"?>
<!-- Generator: Adobe Illustrator 16.0.0, SVG Export Plug-In . SVG Version: 6.00 Build 0)  -->
<!DOCTYPE svg PUBLIC "-//W3C//DTD SVG 1.1//EN" "http://www.w3.org/Graphics/SVG/1.1/DTD/svg11.dtd">
<svg version="1.1" id="Layer_1" xmlns="http://www.w3.org/2000/svg" xmlns:xlink="http://www.w3.org/1999/xlink" x="0px" y="0px"
	 width="100px" height="100px" viewBox="0 0 100 100" enable-background="new 0 0 100 100" xml:space="preserve">
<g id="Layer_2">
</g>
<g id="Layer_2_1_">
</g>
<path d="M40,11C17.908,11,0,28.908,0,51s17.908,40,40,40s40-17.908,40-40S62.092,11,40,11z M13.968,63.514
	c-5.167-10.747-3.303-24.027,5.609-32.939c8.865-8.865,22.058-10.754,32.776-5.683l2.768-2.768v13.071H42.049l2.811-2.81
	c-6.393-1.662-13.467-0.009-18.473,4.999c-5.057,5.058-6.698,12.223-4.954,18.664L13.968,63.514z M60.426,71.425
	c-8.908,8.908-22.188,10.772-32.934,5.61l-2.74,2.739V66.701h13.074l-2.869,2.868c6.44,1.743,13.604,0.101,18.659-4.954
	c5.057-5.058,6.698-12.223,4.955-18.662l7.463-7.467C71.199,49.234,69.336,62.516,60.426,71.425z"/>
</svg>
