<?xml version="1.0" encoding="utf-8"?>
<!-- Generator: Adobe Illustrator 16.0.0, SVG Export Plug-In . SVG Version: 6.00 Build 0)  -->
<!DOCTYPE svg PUBLIC "-//W3C//DTD SVG 1.1//EN" "http://www.w3.org/Graphics/SVG/1.1/DTD/svg11.dtd">
<svg version="1.1" id="Layer_1" xmlns="http://www.w3.org/2000/svg" xmlns:xlink="http://www.w3.org/1999/xlink" x="0px" y="0px"
	 width="100px" height="100px" viewBox="0 0 100 100" enable-background="new 0 0 100 100" xml:space="preserve">
<g id="Layer_2">
</g>
<g id="Layer_2_1_">
</g>
<path d="M40,11C17.909,11,0,28.908,0,51s17.909,40,40,40c22.092,0,40-17.908,40-40S62.092,11,40,11z M43.5,70.5h-8v-9h8V70.5z
	 M43.5,56.022V58.5h-8v-2.856c1-9.343,9.136-8.479,8.974-14.311c0-3.295-1.561-4.356-4.424-4.356c-3.888,0-5.395,3.523-5.395,7.523
	h-7.939c0.162-8,5.186-13.842,13.123-13.842c10.152,0,13.469,6.066,13.469,10.171C53.307,51.143,43.5,49.486,43.5,56.022z"/>
</svg>
