<?xml version="1.0" encoding="utf-8"?>
<!-- Generator: Adobe Illustrator 16.0.0, SVG Export Plug-In . SVG Version: 6.00 Build 0)  -->
<!DOCTYPE svg PUBLIC "-//W3C//DTD SVG 1.1//EN" "http://www.w3.org/Graphics/SVG/1.1/DTD/svg11.dtd">
<svg version="1.1" id="Layer_1" xmlns="http://www.w3.org/2000/svg" xmlns:xlink="http://www.w3.org/1999/xlink" x="0px" y="0px"
	 width="100px" height="100px" viewBox="0 0 100 100" enable-background="new 0 0 100 100" xml:space="preserve">
<g id="Layer_2">
</g>
<g id="Layer_2_1_">
</g>
<g>
	<path d="M40.167,11c-22.09,0-40,17.91-40,40s17.91,40,40,40c22.092,0,40-17.91,40-40S62.259,11,40.167,11z M40.167,15
		c19.85,0,36,16.15,36,36c0,19.852-16.149,36-36,36c-19.851,0-36-16.148-36-36C4.167,31.15,20.316,15,40.167,15z"/>
</g>
<path d="M26.881,43.601c0.162-7.723,5.186-13.339,13.123-13.339c10.152,0,13.447,6.318,13.447,10.423
	c0,10.313-8.91,8.909-9.828,15.445v2.052h-7.291v-2.431c0.756-9.343,8.803-8.479,8.641-14.311c0-3.295-1.729-4.86-4.59-4.86
	c-3.889,0-5.562,3.186-5.562,7.021H26.881z M35.576,61.421h8.479v8.317h-8.479V61.421z"/>
</svg>
