<?xml version="1.0" encoding="utf-8"?>
<!-- Generator: Adobe Illustrator 16.0.0, SVG Export Plug-In . SVG Version: 6.00 Build 0)  -->
<!DOCTYPE svg PUBLIC "-//W3C//DTD SVG 1.1//EN" "http://www.w3.org/Graphics/SVG/1.1/DTD/svg11.dtd">
<svg version="1.1" id="Layer_1" xmlns="http://www.w3.org/2000/svg" xmlns:xlink="http://www.w3.org/1999/xlink" x="0px" y="0px"
	 width="100px" height="100px" viewBox="0 0 100 100" enable-background="new 0 0 100 100" xml:space="preserve">
<g id="Layer_2">
</g>
<g id="Layer_2_1_">
</g>
<path d="M69.071,17.679C67.118,15.727,64.56,14.75,62,14.75H10c-2.56,0-5.118,0.976-7.071,2.929C0.977,19.631,0,22.191,0,24.75v52
	c0,2.559,0.977,5.119,2.929,7.071C4.882,85.773,7.44,86.75,10,86.75h52c2.56,0,5.118-0.977,7.071-2.929
	C71.023,81.869,72,79.309,72,76.75v-52C72,22.191,71.023,19.631,69.071,17.679z M28.804,22.313h14.395c0.967,0,1.75,0.784,1.75,1.75
	c0,0.967-0.783,1.751-1.75,1.751H28.804c-0.967,0-1.751-0.784-1.751-1.751C27.053,23.098,27.837,22.313,28.804,22.313z
	 M35.854,40.791c5.303,0,9.6,4.299,9.6,9.6c0,5.303-4.297,9.6-9.6,9.6c-5.304,0-9.601-4.297-9.601-9.6
	C26.254,45.089,30.551,40.791,35.854,40.791z M55.2,79.25H16.801v-7.285c0-2.467,0.834-4.822,2.709-6.703
	c1.874-1.881,4.229-2.711,6.685-2.711h19.2c2.457,0,5.017,0.83,6.891,2.711c1.875,1.881,2.915,4.236,2.915,6.703V79.25z"/>
</svg>
