<?xml version="1.0" encoding="utf-8"?>
<!-- Generator: Adobe Illustrator 16.0.0, SVG Export Plug-In . SVG Version: 6.00 Build 0)  -->
<!DOCTYPE svg PUBLIC "-//W3C//DTD SVG 1.1//EN" "http://www.w3.org/Graphics/SVG/1.1/DTD/svg11.dtd">
<svg version="1.1" id="Layer_1" xmlns="http://www.w3.org/2000/svg" xmlns:xlink="http://www.w3.org/1999/xlink" x="0px" y="0px"
	 width="100px" height="100px" viewBox="0 0 100 100" enable-background="new 0 0 100 100" xml:space="preserve">
<g id="Layer_2">
</g>
<g id="Layer_2_1_">
</g>
<path d="M50.36,12.374C29.03,6.655,7.1,19.319,1.384,40.649c-5.716,21.336,6.943,43.26,28.279,48.979
	c21.333,5.715,43.26-6.951,48.976-28.277C84.354,40.015,71.695,18.093,50.36,12.374z M54.442,73.551
	c-3.297,1.903-6.798,3.128-10.504,3.666c-5.226-3.746-10.39-10.026-15.466-18.824c-1.881-3.257-3.795-7.24-5.734-11.948
	c-2.275-5.539-3.552-9.726-3.823-12.552c2.332-2.945,5.132-5.376,8.416-7.296c1.189-0.246,3.028-0.447,5.514-0.616l4.578,10.131
	l-4.368,6.818c-0.396,2.384-0.271,4.49,0.37,6.307c0.298,0.893,1.246,2.725,2.843,5.495c1.794,3.106,3.721,4.907,5.774,5.402
	c0.918,0.238,3.984,0.213,9.201-0.078l6.504,9.053C57.046,70.14,55.943,71.611,54.442,73.551z"/>
</svg>
