<?xml version="1.0" encoding="utf-8"?>
<!-- Generator: Adobe Illustrator 16.0.0, SVG Export Plug-In . SVG Version: 6.00 Build 0)  -->
<!DOCTYPE svg PUBLIC "-//W3C//DTD SVG 1.1//EN" "http://www.w3.org/Graphics/SVG/1.1/DTD/svg11.dtd">
<svg version="1.1" id="Layer_1" xmlns="http://www.w3.org/2000/svg" xmlns:xlink="http://www.w3.org/1999/xlink" x="0px" y="0px"
	 width="100px" height="100px" viewBox="0 0 100 100" enable-background="new 0 0 100 100" xml:space="preserve">
<g id="Layer_2">
</g>
<g id="Layer_2_1_">
</g>
<path d="M40,11C17.908,11,0,28.909,0,51c0,22.092,17.908,40,40,40s40-17.908,40-40C80,28.909,62.092,11,40,11z M55.259,62.5
	c-0.057,0,0.241,0-0.759,0V43.185c0-7.947-6.935-14.271-14.99-14.271c-8.235,0-15.01,6.606-15.01,14.805v7.757
	c0,0.952,0.112,2.025,0.112,2.025H24.5v7.943c2,5.141,6.122,9.098,11.458,10.23c0.834-1.229,2.345-2.037,3.94-2.037
	c2.554,0,4.679,2.074,4.679,4.629c0,2.554-2.048,4.628-4.602,4.628c-2.155,0-3.957-1.474-4.47-3.469
	c-7.312-1.494-13.083-7.211-14.667-14.487c-3.314-1.489-5.619-4.813-5.619-8.678c0-3.966,2.436-7.366,5.894-8.792
	c0.286-10.183,8.643-18.361,18.896-18.361c10.257,0,18.616,8.184,18.899,18.371c3.445,1.432,5.871,5.195,5.871,9.149
	C64.778,57.875,60.512,62.5,55.259,62.5z"/>
</svg>
