<?xml version="1.0" encoding="utf-8"?>
<!-- Generator: Adobe Illustrator 16.0.0, SVG Export Plug-In . SVG Version: 6.00 Build 0)  -->
<!DOCTYPE svg PUBLIC "-//W3C//DTD SVG 1.1//EN" "http://www.w3.org/Graphics/SVG/1.1/DTD/svg11.dtd">
<svg version="1.1" id="Layer_1" xmlns="http://www.w3.org/2000/svg" xmlns:xlink="http://www.w3.org/1999/xlink" x="0px" y="0px"
	 width="100px" height="100px" viewBox="0 0 100 100" enable-background="new 0 0 100 100" xml:space="preserve">
<g id="Layer_2">
</g>
<g id="Layer_2_1_">
</g>
<path d="M40,11C17.908,11,0,28.909,0,51c0,22.092,17.908,40,40,40s40-17.908,40-40C80,28.909,62.092,11,40,11z M32.802,71.141
	c-0.278,0.28-1.574,0.977-1.931,0.977l-9.681-0.034c-1.152,0-1.515-0.418-1.515-1.567l0.013-9.541
	c0.055-0.759,0.312-1.538,0.822-2.125l20.592-20.579L53.39,50.562L32.802,71.141z M62.193,41.765l-4.98,4.977L44.925,34.448
	l4.978-4.975c1.1-1.101,2.885-1.101,3.985,0l8.306,8.304C63.294,38.878,63.294,40.664,62.193,41.765z"/>
</svg>
