<?xml version="1.0" encoding="utf-8"?>
<!-- Generator: Adobe Illustrator 16.0.0, SVG Export Plug-In . SVG Version: 6.00 Build 0)  -->
<!DOCTYPE svg PUBLIC "-//W3C//DTD SVG 1.1//EN" "http://www.w3.org/Graphics/SVG/1.1/DTD/svg11.dtd">
<svg version="1.1" id="Layer_1" xmlns="http://www.w3.org/2000/svg" xmlns:xlink="http://www.w3.org/1999/xlink" x="0px" y="0px"
	 width="100px" height="100px" viewBox="0 0 100 100" enable-background="new 0 0 100 100" xml:space="preserve">
<g id="Layer_2">
</g>
<g id="Layer_2_1_">
</g>
<g>
	<path d="M30.047,53.668l-0.514,0.514c-0.367,0.422-0.552,0.981-0.592,1.528l-0.009,6.857c0,0.827,0.261,1.128,1.089,1.128
		l6.959,0.023c0.256,0,1.188-0.5,1.388-0.701l0.515-0.514L30.047,53.668z"/>
	<path d="M40.052,11c-22.092,0-40,17.909-40,40c0,22.092,17.908,40,40,40s40-17.908,40-40C80.052,28.909,62.144,11,40.052,11z
		 M61.5,67c0,2.762-1.738,5.5-4.5,5.5H24c-2.762,0-5.5-2.738-5.5-5.5V34c0-2.762,2.738-4.5,5.5-4.5h30.722l-23.31,23.053l8.586,8.71
		L61.5,39.391V67z"/>
</g>
</svg>
