<?xml version="1.0" encoding="utf-8"?>
<!-- Generator: Adobe Illustrator 16.0.0, SVG Export Plug-In . SVG Version: 6.00 Build 0)  -->
<!DOCTYPE svg PUBLIC "-//W3C//DTD SVG 1.1//EN" "http://www.w3.org/Graphics/SVG/1.1/DTD/svg11.dtd">
<svg version="1.1" id="Layer_1" xmlns="http://www.w3.org/2000/svg" xmlns:xlink="http://www.w3.org/1999/xlink" x="0px" y="0px"
	 width="100px" height="100px" viewBox="0 0 100 100" enable-background="new 0 0 100 100" xml:space="preserve">
<g id="Layer_2">
</g>
<g id="Layer_2_1_">
</g>
<g>
	<g id="XMLID_1_">
		<g>
			<path d="M38.58,73.77L19.84,55.02c-0.79-0.779-0.79-2.05,0-2.829c0.78-0.78,2.04-0.78,2.82,0L38,67.53V31.6c0-1.1,0.9-2,2-2
				s2,0.9,2,2v35.93l15.34-15.34c0.391-0.391,0.9-0.591,1.41-0.591s1.02,0.2,1.41,0.591c0.79,0.779,0.79,2.05,0,2.829L41.41,73.77
				C41.04,74.15,40.53,74.36,40,74.36S38.96,74.15,38.58,73.77z"/>
			<path d="M0,51c0-22.09,17.91-40,40-40s40,17.91,40,40S62.09,91,40,91S0,73.09,0,51z M4,51c0,19.85,16.15,36,36,36
				c19.85,0,36-16.15,36-36c0-19.85-16.15-36-36-36C20.15,15,4,31.15,4,51z"/>
		</g>
		<g>
		</g>
	</g>
</g>
</svg>
