<?xml version="1.0" encoding="utf-8"?>
<!-- Generator: Adobe Illustrator 16.0.0, SVG Export Plug-In . SVG Version: 6.00 Build 0)  -->
<!DOCTYPE svg PUBLIC "-//W3C//DTD SVG 1.1//EN" "http://www.w3.org/Graphics/SVG/1.1/DTD/svg11.dtd">
<svg version="1.1" id="Layer_1" xmlns="http://www.w3.org/2000/svg" xmlns:xlink="http://www.w3.org/1999/xlink" x="0px" y="0px"
	 width="100px" height="100px" viewBox="0 0 100 100" enable-background="new 0 0 100 100" xml:space="preserve">
<g id="Layer_2">
</g>
<g id="Layer_2_1_">
</g>
<g>
	<path d="M44.304,22.417C25.833,22.418,10.86,37.39,10.859,55.861c0.001,18.472,14.974,33.444,33.444,33.445
		c18.472-0.001,33.443-14.974,33.445-33.445C77.747,37.39,62.775,22.418,44.304,22.417z M69.669,42.878
		c0.078,0.645,0.332,1.315,0.769,1.926c0.326,0.454,0.718,0.822,1.138,1.098c-0.612-0.196-1.268-0.303-1.95-0.303
		c-2.771,0-5.108,1.754-5.848,4.151c-4.479-0.889-9.03,1.831-10.442,6.409c-1.507,4.882,1.123,10.029,5.876,11.495
		c2.066,0.638,4.193,0.475,6.062-0.315c-0.843,2.488-0.679,5.333,0.687,7.855c0.251,0.464,0.52,0.87,0.805,1.235
		c-5.562,6.102-13.574,9.931-22.48,9.931c-3.443,0-6.753-0.573-9.84-1.628c2.018-0.181,3.89-2.495,4.649-5.679
		c3.938-0.798,6.897-4.207,6.897-8.293c0-3.854-2.633-7.104-6.237-8.13c-0.812-2.997-3.604-5.206-6.925-5.206
		c-3.062,0-5.674,1.879-6.699,4.52c-1.951,1.251-3.24,3.406-3.24,5.857c0,2.934,1.846,5.443,4.463,6.486
		c-0.044,1.164,0.106,2.441,0.475,3.741c0.666,2.341,1.898,4.25,3.289,5.34C20.913,78.46,13.87,68.025,13.87,55.946
		c0-3.977,0.764-7.773,2.152-11.255c-0.26,1.128,0.212,2.605,1.324,3.791c0.514,0.546,1.097,0.958,1.688,1.229
		c-0.062,1.284,0.311,2.935,1.118,4.584c1.491,3.046,3.898,4.929,5.377,4.206c1.479-0.725,1.468-3.781-0.023-6.827
		c-0.466-0.95-1.021-1.788-1.608-2.468c1.375,0.357,2.903,0.312,4.388-0.158c0.314,0.469,0.845,0.777,1.446,0.777
		c0.963,0,1.743-0.789,1.743-1.763c0-0.247-0.051-0.483-0.142-0.696c0.698-0.586,1.282-1.256,1.743-1.977
		c1.768,0.282,3.636-0.047,5.264-1.069c3.592-2.255,4.659-7.022,2.383-10.647c-0.855-1.362-2.061-2.369-3.423-2.976
		c0.026-0.183,0.044-0.367,0.044-0.556c0-1.402-0.752-2.627-1.875-3.311c2.79-0.843,5.748-1.299,8.814-1.299
		c3.309,0,6.492,0.531,9.476,1.508c-1.167,0.604-1.962,1.8-1.962,3.18c0,1.985,1.646,3.595,3.679,3.595
		c0.644,0,1.249-0.162,1.775-0.446c0.134,0.293,0.331,0.553,0.573,0.765c-1.188,0.835-1.978,2.305-1.978,3.983
		c0,1.219,0.419,2.325,1.101,3.162c-0.802,0.475-1.343,1.353-1.343,2.36c0,1.512,1.213,2.737,2.708,2.737
		c1.396,0,2.545-1.068,2.69-2.441c1.042,0.69,2.332,1.1,3.729,1.1C66.741,45.034,68.523,44.188,69.669,42.878z"/>
	<ellipse transform="matrix(-0.5232 -0.8522 0.8522 -0.5232 50.5544 99.3626)" cx="53.072" cy="35.54" rx="1.501" ry="0.829"/>
	<ellipse transform="matrix(0.4924 -0.8703 0.8703 0.4924 -31.3485 52.7188)" cx="29.526" cy="53.237" rx="0.742" ry="1.542"/>
	<path d="M44.591,17.497c1.008,0,1.827-0.818,1.827-1.828V4.39c0-1.009-0.819-1.827-1.827-1.827c-1.01,0-1.828,0.818-1.828,1.827
		v11.279C42.763,16.678,43.581,17.497,44.591,17.497z"/>
	<path d="M62.569,21.76c0.254,0.121,0.523,0.179,0.787,0.179c0.682,0,1.336-0.383,1.65-1.039l4.869-10.173
		c0.121-0.255,0.179-0.524,0.179-0.788c0-0.682-0.384-1.336-1.039-1.649c-0.254-0.122-0.522-0.18-0.788-0.18
		c-0.682,0-1.336,0.383-1.649,1.038L61.71,19.322c-0.122,0.254-0.181,0.522-0.18,0.787C61.529,20.79,61.913,21.445,62.569,21.76z"/>
	<path d="M23.303,20.899c0.314,0.656,0.968,1.039,1.649,1.039c0.264,0,0.533-0.058,0.788-0.179c0.655-0.314,1.039-0.97,1.038-1.65
		c0.001-0.265-0.058-0.533-0.179-0.787L21.73,9.147c-0.313-0.655-0.968-1.038-1.649-1.038c-0.265,0-0.534,0.058-0.788,0.18
		c-0.655,0.313-1.039,0.968-1.039,1.649c0,0.264,0.058,0.533,0.179,0.788L23.303,20.899z"/>
	<path d="M88.621,25.195c-0.347-0.558-0.943-0.864-1.556-0.864c-0.328,0-0.662,0.089-0.961,0.275l-9.582,5.952
		c-0.556,0.346-0.863,0.942-0.863,1.554c0,0.329,0.089,0.663,0.276,0.963c0.346,0.557,0.942,0.863,1.554,0.863
		c0.329,0,0.663-0.089,0.962-0.275l9.582-5.951c0.557-0.346,0.862-0.943,0.862-1.555C88.896,25.828,88.808,25.494,88.621,25.195z"/>
	<path d="M12.961,33.075c0.188-0.3,0.276-0.634,0.276-0.963c0-0.611-0.308-1.208-0.864-1.554l-9.581-5.952
		c-0.299-0.187-0.633-0.275-0.962-0.275c-0.61,0-1.209,0.307-1.556,0.864C0.089,25.494,0,25.828,0,26.157
		c0,0.611,0.306,1.209,0.863,1.555l9.581,5.951c0.3,0.187,0.633,0.275,0.963,0.275C12.018,33.938,12.615,33.632,12.961,33.075z"/>
</g>
</svg>
