<?xml version="1.0" encoding="utf-8"?>
<!-- Generator: Adobe Illustrator 16.0.0, SVG Export Plug-In . SVG Version: 6.00 Build 0)  -->
<!DOCTYPE svg PUBLIC "-//W3C//DTD SVG 1.1//EN" "http://www.w3.org/Graphics/SVG/1.1/DTD/svg11.dtd">
<svg version="1.1" id="Layer_1" xmlns="http://www.w3.org/2000/svg" xmlns:xlink="http://www.w3.org/1999/xlink" x="0px" y="0px"
	 width="100px" height="100px" viewBox="0 0 100 100" enable-background="new 0 0 100 100" xml:space="preserve">
<g id="Layer_2">
</g>
<g id="Layer_2_1_">
</g>
<path d="M40,11C17.908,11,0,28.909,0,51c0,22.092,17.908,40,40,40s40-17.908,40-40C80,28.909,62.092,11,40,11z M52.668,70.93
	c0,0.941-0.559,1.934-1.48,2.316c-0.925,0.383-1.951,0.246-2.617-0.42l-9.124-8.924H22.868v-23.2h16.58l9.123-9.323
	c0.666-0.666,1.691-1.104,2.617-0.721c0.922,0.383,1.48,1.276,1.48,2.217V70.93z"/>
</svg>
