<?xml version="1.0" encoding="utf-8"?>
<!-- Generator: Adobe Illustrator 16.0.0, SVG Export Plug-In . SVG Version: 6.00 Build 0)  -->
<!DOCTYPE svg PUBLIC "-//W3C//DTD SVG 1.1//EN" "http://www.w3.org/Graphics/SVG/1.1/DTD/svg11.dtd">
<svg version="1.1" id="Layer_1" xmlns="http://www.w3.org/2000/svg" xmlns:xlink="http://www.w3.org/1999/xlink" x="0px" y="0px"
	 width="100px" height="100px" viewBox="0 0 100 100" enable-background="new 0 0 100 100" xml:space="preserve">
<g id="Layer_2">
</g>
<g id="Layer_2_1_">
</g>
<path d="M72.469,78.778L59.938,66.25c3.236-5.053,5.123-11.049,5.123-17.48c0-17.92-14.58-32.498-32.5-32.498S0.06,30.85,0.06,48.77
	c0,17.921,14.579,32.501,32.5,32.501c6.432,0,12.427-1.886,17.479-5.122l12.532,12.53c1.367,1.366,3.158,2.05,4.949,2.05
	s3.582-0.684,4.949-2.051C75.203,85.944,75.203,81.512,72.469,78.778z M12.06,48.77c0-11.303,9.196-20.498,20.5-20.498
	s20.5,9.195,20.5,20.498c0,11.305-9.197,20.501-20.5,20.501S12.06,60.074,12.06,48.77z"/>
</svg>
