<?xml version="1.0" encoding="utf-8"?>
<!-- Generator: Adobe Illustrator 16.0.0, SVG Export Plug-In . SVG Version: 6.00 Build 0)  -->
<!DOCTYPE svg PUBLIC "-//W3C//DTD SVG 1.1//EN" "http://www.w3.org/Graphics/SVG/1.1/DTD/svg11.dtd">
<svg version="1.1" id="Layer_1" xmlns="http://www.w3.org/2000/svg" xmlns:xlink="http://www.w3.org/1999/xlink" x="0px" y="0px"
	 width="100px" height="100px" viewBox="0 0 100 100" enable-background="new 0 0 100 100" xml:space="preserve">
<g id="Layer_2">
</g>
<g id="Layer_2_1_">
</g>
<path d="M40,11C17.91,11,0,28.91,0,51s17.91,40,40,40c22.092,0,40-17.91,40-40S62.092,11,40,11z M54.568,52.77L35.815,71.518
	c-0.488,0.488-1.128,0.732-1.768,0.732c-0.64,0-1.28-0.244-1.768-0.732c-0.976-0.977-0.976-2.56,0-3.535l16.985-16.98L32.28,34.018
	c-0.977-0.977-0.977-2.559,0-3.535c0.976-0.977,2.56-0.977,3.535,0l18.753,18.752c0.469,0.469,0.732,1.104,0.732,1.768
	S55.037,52.301,54.568,52.77z"/>
</svg>
