<?xml version="1.0" encoding="utf-8"?>
<!-- Generator: Adobe Illustrator 16.0.0, SVG Export Plug-In . SVG Version: 6.00 Build 0)  -->
<!DOCTYPE svg PUBLIC "-//W3C//DTD SVG 1.1//EN" "http://www.w3.org/Graphics/SVG/1.1/DTD/svg11.dtd">
<svg version="1.1" id="Layer_1" xmlns="http://www.w3.org/2000/svg" xmlns:xlink="http://www.w3.org/1999/xlink" x="0px" y="0px"
	 width="100px" height="100px" viewBox="0 0 100 100" enable-background="new 0 0 100 100" xml:space="preserve">
<g id="Layer_2">
</g>
<g id="Layer_2_1_">
</g>
<path d="M0,51c0,22.09,17.908,40,40,40c22.09,0,40-17.91,40-40S62.089,11,40,11C17.907,11,0,28.91,0,51z M35.432,52.771
	c-0.468-0.47-0.732-1.104-0.732-1.769s0.263-1.299,0.732-1.768l18.751-18.752c0.976-0.977,2.56-0.977,3.535,0
	c0.977,0.976,0.977,2.558,0,3.535L40.736,51.003l16.985,16.979c0.975,0.976,0.975,2.559,0,3.535
	c-0.488,0.488-1.129,0.732-1.769,0.732s-1.28-0.244-1.769-0.732L35.432,52.771z M15.2,51.003c0-0.664,0.263-1.299,0.731-1.768
	l18.752-18.752c0.976-0.977,2.56-0.977,3.535,0c0.977,0.976,0.977,2.558,0,3.535L21.236,51.003L38.22,67.982
	c0.977,0.976,0.977,2.559,0.001,3.535c-0.489,0.488-1.128,0.732-1.769,0.732c-0.639,0-1.28-0.244-1.768-0.732L15.932,52.77
	C15.463,52.301,15.2,51.667,15.2,51.003z"/>
</svg>
