<?xml version="1.0" encoding="utf-8"?>
<!-- Generator: Adobe Illustrator 16.0.0, SVG Export Plug-In . SVG Version: 6.00 Build 0)  -->
<!DOCTYPE svg PUBLIC "-//W3C//DTD SVG 1.1//EN" "http://www.w3.org/Graphics/SVG/1.1/DTD/svg11.dtd">
<svg version="1.1" id="Layer_1" xmlns="http://www.w3.org/2000/svg" xmlns:xlink="http://www.w3.org/1999/xlink" x="0px" y="0px"
	 width="100px" height="100px" viewBox="0 0 100 100" enable-background="new 0 0 100 100" xml:space="preserve">
<g id="Layer_2">
</g>
<g id="Layer_2_1_">
</g>
<path d="M0,51c0,22.09,17.907,40,40,40c22.09,0,40-17.91,40-40S62.09,11,40,11C17.907,11,0,28.91,0,51z M24.699,51.002
	c0-0.663,0.264-1.299,0.732-1.768l18.752-18.752c0.977-0.977,2.561-0.977,3.535,0c0.977,0.977,0.977,2.559,0,3.535L30.734,51.002
	l16.984,16.98c0.977,0.976,0.977,2.559,0.001,3.535c-0.488,0.488-1.128,0.732-1.769,0.732c-0.639,0-1.279-0.244-1.768-0.732
	L25.432,52.77C24.963,52.301,24.699,51.665,24.699,51.002z"/>
</svg>
