<?xml version="1.0" encoding="utf-8"?>
<!-- Generator: Adobe Illustrator 16.0.0, SVG Export Plug-In . SVG Version: 6.00 Build 0)  -->
<!DOCTYPE svg PUBLIC "-//W3C//DTD SVG 1.1//EN" "http://www.w3.org/Graphics/SVG/1.1/DTD/svg11.dtd">
<svg version="1.1" id="Layer_1" xmlns="http://www.w3.org/2000/svg" xmlns:xlink="http://www.w3.org/1999/xlink" x="0px" y="0px"
	 width="100px" height="100px" viewBox="0 0 100 100" enable-background="new 0 0 100 100" xml:space="preserve">
<g id="Layer_2">
</g>
<g id="Layer_2_1_">
</g>
<path d="M40,15c19.851,0,36,16.15,36,36c0,19.851-16.149,36-36,36S4,70.851,4,51C4,31.15,20.149,15,40,15 M40,11
	C17.91,11,0,28.91,0,51c0,22.092,17.91,40,40,40s40-17.908,40-40C80,28.91,62.09,11,40,11L40,11z"/>
<path d="M49.089,31c-6.904,0-12.5,5.596-12.5,12.5c0,0.782,0.073,1.548,0.21,2.29L21.589,61v7.5c0,1.381,1.119,2.5,2.5,2.5h2.5v-2.5
	h5v-5h5v-5h5l3.244-3.244C46.161,55.737,47.595,56,49.089,56c6.904,0,12.5-5.596,12.5-12.5S55.993,31,49.089,31z M52.834,43.505
	c-2.071,0-3.75-1.679-3.75-3.75c0-2.07,1.679-3.75,3.75-3.75c2.07,0,3.75,1.68,3.75,3.75C56.584,41.826,54.904,43.505,52.834,43.505
	z"/>
</svg>
