<?xml version="1.0" encoding="utf-8"?>
<!-- Generator: Adobe Illustrator 16.0.0, SVG Export Plug-In . SVG Version: 6.00 Build 0)  -->
<!DOCTYPE svg PUBLIC "-//W3C//DTD SVG 1.1//EN" "http://www.w3.org/Graphics/SVG/1.1/DTD/svg11.dtd">
<svg version="1.1" id="Layer_1" xmlns="http://www.w3.org/2000/svg" xmlns:xlink="http://www.w3.org/1999/xlink" x="0px" y="0px"
	 width="100px" height="100px" viewBox="0 0 100 100" enable-background="new 0 0 100 100" xml:space="preserve">
<g id="Layer_2">
</g>
<g id="Layer_2_1_">
</g>
<g>
	<path d="M44.5,81.5h-40v-30h7v-5H5c-2.762,0-5.5,1.738-5.5,4.5v30c0,2.762,2.738,5.5,5.5,5.5h40c2.762,0,4.5-2.738,4.5-5.5v-5.5h-5
		V81.5z"/>
	<path d="M66.5,35.5c0-2.762-2.238-5-5-5h-40c-2.761,0-5,2.238-5,5v30c0,2.762,2.239,5,5,5h40c2.762,0,5-2.238,5-5V35.5z"/>
</g>
</svg>
