<?xml version="1.0" encoding="utf-8"?>
<!-- Generator: Adobe Illustrator 16.0.0, SVG Export Plug-In . SVG Version: 6.00 Build 0)  -->
<!DOCTYPE svg PUBLIC "-//W3C//DTD SVG 1.1//EN" "http://www.w3.org/Graphics/SVG/1.1/DTD/svg11.dtd">
<svg version="1.1" id="Layer_1" xmlns="http://www.w3.org/2000/svg" xmlns:xlink="http://www.w3.org/1999/xlink" x="0px" y="0px"
	 width="100px" height="100px" viewBox="0 0 100 100" enable-background="new 0 0 100 100" xml:space="preserve">
<g id="Layer_2">
</g>
<g id="Layer_2_1_">
</g>
<path d="M37.8,16.187c0.144-0.438,0.562-0.753,1.056-0.753s0.912,0.316,1.056,0.753l8.37,25.444
	c0.069,0.212,0.205,0.405,0.402,0.546c0.199,0.141,0.429,0.208,0.654,0.208L76.6,42.326c0.469-0.001,0.906,0.291,1.059,0.751
	s-0.025,0.948-0.406,1.217L55.162,59.96c-0.184,0.132-0.328,0.318-0.404,0.546s-0.07,0.463,0.002,0.674l8.48,25.408
	c0.145,0.436-0.002,0.933-0.402,1.217s-0.926,0.27-1.305-0.001L39.51,72.043c-0.185-0.132-0.41-0.21-0.654-0.21
	s-0.47,0.078-0.654,0.21l-22.02,15.761c-0.379,0.271-0.905,0.285-1.305,0.001s-0.548-0.781-0.403-1.217l8.481-25.408
	c0.069-0.211,0.075-0.446,0-0.674c-0.076-0.228-0.222-0.414-0.405-0.546L0.459,44.294c-0.38-0.269-0.558-0.756-0.405-1.217
	s0.589-0.752,1.058-0.751l28.071,0.061L37.8,16.187z"/>
</svg>
