<?xml version="1.0" encoding="utf-8"?>
<!-- Generator: Adobe Illustrator 15.1.0, SVG Export Plug-In . SVG Version: 6.00 Build 0)  -->
<!DOCTYPE svg PUBLIC "-//W3C//DTD SVG 1.1//EN" "http://www.w3.org/Graphics/SVG/1.1/DTD/svg11.dtd">
<svg version="1.1" id="Layer_1" xmlns="http://www.w3.org/2000/svg" xmlns:xlink="http://www.w3.org/1999/xlink" x="0px" y="0px"
	 width="100px" height="100px" viewBox="0 0 100 100" enable-background="new 0 0 100 100" xml:space="preserve">
<g id="Layer_2">
</g>
<g id="Layer_2_1_">
</g>
<path fill="none" stroke="#000000" stroke-miterlimit="10" d="M37.8,16.187c0.144-0.438,0.562-0.753,1.056-0.753
	s0.912,0.316,1.056,0.753l8.37,25.444c0.069,0.212,0.205,0.405,0.402,0.546c0.199,0.141,0.429,0.208,0.654,0.208L76.6,42.326
	c0.469-0.001,0.906,0.291,1.06,0.751s-0.025,0.948-0.406,1.217L55.162,59.96c-0.184,0.132-0.328,0.317-0.404,0.546
	s-0.07,0.463,0.002,0.674l8.48,25.408c0.145,0.436-0.002,0.934-0.402,1.217c-0.4,0.284-0.926,0.271-1.305,0L39.51,72.043
	c-0.185-0.132-0.41-0.21-0.654-0.21s-0.47,0.078-0.654,0.21l-22.02,15.762c-0.379,0.271-0.905,0.284-1.305,0
	c-0.4-0.283-0.548-0.781-0.403-1.217l8.481-25.408c0.069-0.211,0.075-0.445,0-0.674c-0.076-0.229-0.222-0.414-0.405-0.546
	L0.459,44.294c-0.38-0.269-0.558-0.756-0.405-1.217c0.153-0.461,0.589-0.752,1.058-0.751l28.071,0.061L37.8,16.187z"/>
</svg>
