<?xml version="1.0" encoding="utf-8"?>
<!-- Generator: Adobe Illustrator 16.0.0, SVG Export Plug-In . SVG Version: 6.00 Build 0)  -->
<!DOCTYPE svg PUBLIC "-//W3C//DTD SVG 1.1//EN" "http://www.w3.org/Graphics/SVG/1.1/DTD/svg11.dtd">
<svg version="1.1" id="Layer_1" xmlns="http://www.w3.org/2000/svg" xmlns:xlink="http://www.w3.org/1999/xlink" x="0px" y="0px"
	 width="100px" height="100px" viewBox="0 0 100 100" enable-background="new 0 0 100 100" xml:space="preserve">
<g id="Layer_2">
</g>
<g id="Layer_2_1_">
</g>
<g>
	<path d="M9.789,66.576c-5.273,0-9.558,4.312-9.558,9.584c0,5.287,4.285,9.555,9.558,9.555c5.297,0,9.58-4.268,9.58-9.555
		C19.369,70.889,15.085,66.576,9.789,66.576z"/>
	<path d="M0,38.812V51.36c9.187,0.167,17.731,3.751,24.07,10.109c6.334,6.343,10.315,14.565,10.479,23.751H47.14
		C46.799,59.701,25.517,39.156,0,38.812z"/>
	<path d="M0,14.286v12.545c31.642,0.348,58.732,26.747,59.078,58.389h12.566C71.301,46.433,39.808,14.634,0,14.286z"/>
</g>
</svg>
