<?xml version="1.0" encoding="utf-8"?>
<!-- Generator: Adobe Illustrator 16.0.0, SVG Export Plug-In . SVG Version: 6.00 Build 0)  -->
<!DOCTYPE svg PUBLIC "-//W3C//DTD SVG 1.1//EN" "http://www.w3.org/Graphics/SVG/1.1/DTD/svg11.dtd">
<svg version="1.1" id="Layer_1" xmlns="http://www.w3.org/2000/svg" xmlns:xlink="http://www.w3.org/1999/xlink" x="0px" y="0px"
	 width="100px" height="100px" viewBox="0 0 100 100" enable-background="new 0 0 100 100" xml:space="preserve">
<g id="Layer_2">
</g>
<g id="Layer_2_1_">
</g>
<g>
	<path d="M40,11C17.908,11,0,28.908,0,51s17.908,40,40,40s40-17.908,40-40S62.092,11,40,11z M58.062,71.819h-36.1V51.266h-0.006
		V40.231h-0.021c0-9.969,8.082-18.05,18.051-18.05s18.05,8.081,18.05,18.05v4.513h0.025V71.819z"/>
	<path d="M40.021,29.402c-5.981,0-10.831,4.847-10.831,10.829h-0.033v4.513h21.682v-4.513h0.012
		C50.85,34.249,46,29.402,40.021,29.402z"/>
</g>
</svg>
