<?xml version="1.0" encoding="utf-8"?>
<!-- Generator: Adobe Illustrator 16.0.0, SVG Export Plug-In . SVG Version: 6.00 Build 0)  -->
<!DOCTYPE svg PUBLIC "-//W3C//DTD SVG 1.1//EN" "http://www.w3.org/Graphics/SVG/1.1/DTD/svg11.dtd">
<svg version="1.1" id="Layer_1" xmlns="http://www.w3.org/2000/svg" xmlns:xlink="http://www.w3.org/1999/xlink" x="0px" y="0px"
	 width="100px" height="100px" viewBox="0 0 100 100" enable-background="new 0 0 100 100" xml:space="preserve">
<g id="Layer_2">
</g>
<g id="Layer_2_1_">
</g>
<path d="M73.259,58.86c-4.298-7.444-1.714-16.983,5.772-21.319l-8.05-13.942c-2.3,1.349-4.974,2.121-7.828,2.121
	c-8.603,0-15.577-7.02-15.577-15.68h-16.1c0.021,2.673-0.646,5.383-2.077,7.86c-4.298,7.445-13.853,9.977-21.349,5.66L0,37.505
	c2.318,1.317,4.324,3.247,5.752,5.718c4.291,7.432,1.721,16.954-5.738,21.298l8.051,13.943c2.292-1.336,4.953-2.101,7.792-2.101
	c8.575,0,15.532,6.976,15.577,15.597h16.1c-0.008-2.646,0.662-5.325,2.077-7.777c4.29-7.433,13.821-9.968,21.313-5.681l8.05-13.943
	C76.672,63.241,74.678,61.318,73.259,58.86z M39.516,67.588c-9.16,0-16.588-7.427-16.588-16.588s7.428-16.587,16.588-16.587
	c9.161,0,16.587,7.426,16.587,16.587C56.102,60.161,48.677,67.588,39.516,67.588z"/>
</svg>
