<?xml version="1.0" encoding="utf-8"?>
<!-- Generator: Adobe Illustrator 16.0.0, SVG Export Plug-In . SVG Version: 6.00 Build 0)  -->
<!DOCTYPE svg PUBLIC "-//W3C//DTD SVG 1.1//EN" "http://www.w3.org/Graphics/SVG/1.1/DTD/svg11.dtd">
<svg version="1.1" id="Layer_1" xmlns="http://www.w3.org/2000/svg" xmlns:xlink="http://www.w3.org/1999/xlink" x="0px" y="0px"
	 width="100px" height="100px" viewBox="0 0 100 100" enable-background="new 0 0 100 100" xml:space="preserve">
<g id="Layer_2">
</g>
<g id="Layer_2_1_">
</g>
<path d="M40,11C17.908,11,0,28.909,0,51c0,22.092,17.908,40,40,40s40-17.908,40-40C80,28.909,62.092,11,40,11z M60.943,43.815
	c0.018,0.396,0.027,0.795,0.027,1.197c0,12.234-9.312,26.342-26.342,26.342c-5.228,0-10.094-1.533-14.191-4.16
	c0.724,0.084,1.462,0.129,2.208,0.129c4.338,0,8.33-1.479,11.499-3.963c-4.051-0.074-7.471-2.752-8.648-6.428
	c0.565,0.107,1.146,0.165,1.742,0.165c0.844,0,1.661-0.112,2.438-0.324c-4.235-0.851-7.426-4.593-7.426-9.078v-0.118
	c1.248,0.694,2.676,1.11,4.194,1.157c-2.485-1.658-4.119-4.493-4.119-7.705c0-1.697,0.457-3.288,1.254-4.654
	c4.565,5.601,11.387,9.287,19.082,9.672c-0.158-0.677-0.241-1.383-0.241-2.109c0-5.113,4.146-9.257,9.259-9.257
	c2.663,0,5.068,1.125,6.758,2.923c2.108-0.415,4.09-1.185,5.878-2.246c-0.69,2.162-2.158,3.977-4.069,5.123
	c1.872-0.224,3.657-0.723,5.316-1.458C64.321,40.879,62.753,42.509,60.943,43.815z"/>
</svg>
