<?xml version="1.0" encoding="utf-8"?>
<!-- Generator: Adobe Illustrator 16.0.0, SVG Export Plug-In . SVG Version: 6.00 Build 0)  -->
<!DOCTYPE svg PUBLIC "-//W3C//DTD SVG 1.1//EN" "http://www.w3.org/Graphics/SVG/1.1/DTD/svg11.dtd">
<svg version="1.1" id="Layer_1" xmlns="http://www.w3.org/2000/svg" xmlns:xlink="http://www.w3.org/1999/xlink" x="0px" y="0px"
	 width="100px" height="100px" viewBox="0 0 100 100" enable-background="new 0 0 100 100" xml:space="preserve">
<g id="Layer_2">
</g>
<g id="Layer_2_1_">
</g>
<path d="M40,11C17.911,11,0,28.91,0,51c0,22.088,17.911,40,40,40c22.09,0,40-17.912,40-40C80,28.91,62.09,11,40,11z M22.498,73.5
	c-2.76,0-4.998-2.23-4.998-4.996c0-2.748,2.238-5.004,4.998-5.004c2.767,0,5.002,2.256,5.002,5.004
	C27.5,71.27,25.265,73.5,22.498,73.5z M35.834,73.5c0-10.123-8.211-18.332-18.334-18.332V46C32.687,46,45,58.312,45,73.5H35.834z
	 M53.125,73.5c0-19.676-15.95-35.625-35.625-35.625V28.5c24.854,0,45,20.146,45,45H53.125z"/>
</svg>
