<?xml version="1.0" encoding="utf-8"?>
<!-- Generator: Adobe Illustrator 16.0.0, SVG Export Plug-In . SVG Version: 6.00 Build 0)  -->
<!DOCTYPE svg PUBLIC "-//W3C//DTD SVG 1.1//EN" "http://www.w3.org/Graphics/SVG/1.1/DTD/svg11.dtd">
<svg version="1.1" id="Layer_1" xmlns="http://www.w3.org/2000/svg" xmlns:xlink="http://www.w3.org/1999/xlink" x="0px" y="0px"
	 width="100px" height="100px" viewBox="0 0 100 100" enable-background="new 0 0 100 100" xml:space="preserve">
<g id="Layer_2">
</g>
<g id="Layer_2_1_">
</g>
<path d="M40,11C17.911,11,0,28.91,0,51c0,22.089,17.911,40,40,40c22.09,0,40-17.911,40-40C80,28.91,62.09,11,40,11z M55,71.045
	c-2.041,0.908-3.891,1.543-5.542,1.908c-1.658,0.365-3.447,0.547-5.37,0.547c-2.186,0-3.476-0.26-5.151-0.776
	c-1.679-0.521-3.181-1.185-4.289-2.223C32.5,68.5,32.5,66,32.5,62.719V46H25v-5.431c1.88-0.575,4.055-1.399,5.389-2.468
	c1.346-1.076,2.416-2.361,3.226-3.863c0.809-1.502,1.366-3.417,1.671-5.738H42.5v10h10V46h-10v12.478
	c0,2.61-0.244,4.118,0.048,4.856s0.915,1.502,1.714,1.942c1.059,0.598,2.213,0.896,3.576,0.896c2.417,0,4.773-0.739,7.162-2.224
	V71.045z"/>
</svg>
