<?xml version="1.0" encoding="utf-8"?>
<!-- Generator: Adobe Illustrator 16.0.0, SVG Export Plug-In . SVG Version: 6.00 Build 0)  -->
<!DOCTYPE svg PUBLIC "-//W3C//DTD SVG 1.1//EN" "http://www.w3.org/Graphics/SVG/1.1/DTD/svg11.dtd">
<svg version="1.1" id="Layer_1" xmlns="http://www.w3.org/2000/svg" xmlns:xlink="http://www.w3.org/1999/xlink" x="0px" y="0px"
	 width="100px" height="100px" viewBox="0 0 100 100" enable-background="new 0 0 100 100" xml:space="preserve">
<g id="Layer_2">
</g>
<g id="Layer_2_1_">
</g>
<g>
	<path d="M50.587,49.523l-16.592-9.637c-1.408-0.812-2.363-0.148-2.363,1.477v19.275c0,1.623,0.955,2.289,2.363,1.477l16.495-9.639
		C51.896,51.666,51.993,50.336,50.587,49.523z"/>
	<path d="M40,11C17.908,11,0,28.908,0,51s17.908,40,40,40s40-17.908,40-40S62.092,11,40,11z M66.29,63.881
		c-0.666,2.898-3.037,5.035-5.889,5.354c-6.758,0.756-13.596,0.758-20.405,0.756c-6.809,0.002-13.647,0-20.405-0.756
		c-2.852-0.318-5.222-2.455-5.889-5.354C12.755,59.754,12.755,55.25,12.755,51s0.01-8.754,0.96-12.881
		c0.666-2.898,3.034-5.035,5.889-5.354c6.755-0.754,13.596-0.758,20.405-0.754c6.809-0.004,13.647,0,20.402,0.754
		c2.854,0.318,5.225,2.455,5.892,5.354C67.25,42.246,67.245,46.75,67.245,51S67.24,59.754,66.29,63.881z"/>
</g>
</svg>
