<?xml version="1.0" encoding="utf-8"?>
<!-- Generator: Adobe Illustrator 16.0.0, SVG Export Plug-In . SVG Version: 6.00 Build 0)  -->
<!DOCTYPE svg PUBLIC "-//W3C//DTD SVG 1.1//EN" "http://www.w3.org/Graphics/SVG/1.1/DTD/svg11.dtd">
<svg version="1.1" id="Layer_1" xmlns="http://www.w3.org/2000/svg" xmlns:xlink="http://www.w3.org/1999/xlink" x="0px" y="0px"
	 width="100px" height="100px" viewBox="0 0 100 100" enable-background="new 0 0 100 100" xml:space="preserve">
<g id="Layer_2">
</g>
<g id="Layer_2_1_">
</g>
<path d="M40,11C17.911,11,0,28.911,0,51c0,22.09,17.911,40,40,40c22.09,0,40-17.91,40-40C80,28.911,62.09,11,40,11z M52.689,59.596
	c-3.136,2.609-10.394,4.371-14.36,1.449c-0.547-0.396-0.799-1.697-1.484-1.207c-1.104,4.643-2.591,10.064-4.769,13.662h-3.102
	c0.025-0.021,0.048-0.039,0.073-0.061c-0.434-1.871-0.172-5.529,0.123-7.316c0.759-4.584,3.729-10.861,3.712-15.471
	c-0.007-1.94-1.091-4.07-0.74-6.288c0.643-4.077,6.59-7.843,8.664-3.143c2.389,5.424-5.07,11.981-0.99,15.715
	c0.85,0.779,2.991,1.303,4.702,0.969c8.589-1.682,9.788-19.141,2.722-23.211c-10.141-5.842-21.567,3.19-20.547,12.573
	c0.389,3.537,4.227,5.568,0.993,8.703c-4.735-1.82-6.477-5.135-6.437-10.399c0.081-11.174,10.769-18.206,22.525-16.92
	c7.644,0.834,14.107,6.789,14.854,13.538C59.295,48.223,57.208,55.84,52.689,59.596z"/>
</svg>
