<?xml version="1.0" encoding="utf-8"?>
<!-- Generator: Adobe Illustrator 16.0.0, SVG Export Plug-In . SVG Version: 6.00 Build 0)  -->
<!DOCTYPE svg PUBLIC "-//W3C//DTD SVG 1.1//EN" "http://www.w3.org/Graphics/SVG/1.1/DTD/svg11.dtd">
<svg version="1.1" id="Layer_1" xmlns="http://www.w3.org/2000/svg" xmlns:xlink="http://www.w3.org/1999/xlink" x="0px" y="0px"
	 width="100px" height="100px" viewBox="0 0 100 100" enable-background="new 0 0 100 100" xml:space="preserve">
<g id="Layer_2">
</g>
<g id="Layer_2_1_">
</g>
<path d="M40,11C17.908,11,0,28.909,0,51s17.908,40,40,40s40-17.909,40-40S62.092,11,40,11z M39.753,30.261
	c6.474,0,11.719,5.248,11.719,11.719c0,6.473-5.245,11.719-11.719,11.719s-11.719-5.246-11.719-11.719
	C28.034,35.509,33.279,30.261,39.753,30.261z M63.5,69.636C58.004,76.556,49.522,81,40,81s-18.004-4.444-23.5-11.364v-1.32
	c0-3.01,1.019-5.667,3.307-7.963c2.288-2.297,5.161-3.092,8.16-3.092h23.438c2.999,0,6.187,0.795,8.475,3.092
	c2.288,2.296,3.621,4.953,3.621,7.963V69.636z"/>
</svg>
