<?xml version="1.0" encoding="utf-8"?>
<!-- Generator: Adobe Illustrator 16.0.0, SVG Export Plug-In . SVG Version: 6.00 Build 0)  -->
<!DOCTYPE svg PUBLIC "-//W3C//DTD SVG 1.1//EN" "http://www.w3.org/Graphics/SVG/1.1/DTD/svg11.dtd">
<svg version="1.1" id="Layer_1" xmlns="http://www.w3.org/2000/svg" xmlns:xlink="http://www.w3.org/1999/xlink" x="0px" y="0px"
	 width="100px" height="100px" viewBox="0 0 100 100" enable-background="new 0 0 100 100" xml:space="preserve">
<g id="Layer_2">
</g>
<g id="Layer_2_1_">
</g>
<path d="M40,11C17.908,11,0,28.909,0,51c0,22.092,17.908,40,40,40s40-17.908,40-40C80,28.909,62.092,11,40,11z M28.696,71.965
	h-9.432V41.957h9.432V71.965z M23.97,37.873c-2.982,0-5.387-2.412-5.387-5.384c0-2.968,2.404-5.38,5.387-5.38
	c2.974,0,5.386,2.412,5.386,5.38C29.355,35.461,26.943,37.873,23.97,37.873z M63.418,71.965h-9.43V57.301
	c0-3.464-0.013-7.919-4.771-7.919c-4.836,0-5.517,3.771-5.517,7.667v14.916h-9.432V41.957h9.003v4.287h0.205
	c1.238-2.571,4.278-4.928,8.799-4.928c9.397,0,11.143,6.083,11.143,14.125V71.965z"/>
</svg>
