<?xml version="1.0" encoding="utf-8"?>
<!-- Generator: Adobe Illustrator 16.0.0, SVG Export Plug-In . SVG Version: 6.00 Build 0)  -->
<!DOCTYPE svg PUBLIC "-//W3C//DTD SVG 1.1//EN" "http://www.w3.org/Graphics/SVG/1.1/DTD/svg11.dtd">
<svg version="1.1" id="Layer_1" xmlns="http://www.w3.org/2000/svg" xmlns:xlink="http://www.w3.org/1999/xlink" x="0px" y="0px"
	 width="100px" height="100px" viewBox="0 0 100 100" enable-background="new 0 0 100 100" xml:space="preserve">
<g id="Layer_2">
</g>
<g id="Layer_2_1_">
</g>
<path d="M40,11C17.911,11,0,28.91,0,51c0,22.088,17.911,40,40,40c22.09,0,40-17.912,40-40C80,28.91,62.09,11,40,11z M27.495,61
	c-5.52,0-9.995-4.475-9.995-9.998C17.5,45.473,21.976,41,27.495,41C33.017,41,37.5,45.473,37.5,51.002
	C37.5,56.525,33.017,61,27.495,61z M52.5,61c-5.517,0-10-4.475-10-9.998C42.5,45.473,46.983,41,52.5,41s10,4.474,10,10.002
	C62.5,56.525,58.017,61,52.5,61z"/>
</svg>
