<?xml version="1.0" encoding="utf-8"?>
<!-- Generator: Adobe Illustrator 16.0.0, SVG Export Plug-In . SVG Version: 6.00 Build 0)  -->
<!DOCTYPE svg PUBLIC "-//W3C//DTD SVG 1.1//EN" "http://www.w3.org/Graphics/SVG/1.1/DTD/svg11.dtd">
<svg version="1.1" id="Layer_1" xmlns="http://www.w3.org/2000/svg" xmlns:xlink="http://www.w3.org/1999/xlink" x="0px" y="0px"
	 width="100px" height="100px" viewBox="0 0 100 100" enable-background="new 0 0 100 100" xml:space="preserve">
<g id="Layer_2">
</g>
<g id="Layer_2_1_">
</g>
<path d="M40,11C17.908,11,0,28.908,0,51c0,22.093,17.908,40,40,40s40-17.907,40-40C80,28.908,62.092,11,40,11z M66,57H50.393
	l7.804,13.519l-10.393,6L40,63.001l-7.804,13.518l-10.393-6L29.607,57H14V45h15.607l-7.804-13.517l10.393-6L40,39l7.804-13.517
	l10.393,6L50.393,45H66V57z"/>
</svg>
