<?xml version="1.0" encoding="utf-8"?>
<!-- Generator: Adobe Illustrator 16.0.0, SVG Export Plug-In . SVG Version: 6.00 Build 0)  -->
<!DOCTYPE svg PUBLIC "-//W3C//DTD SVG 1.1//EN" "http://www.w3.org/Graphics/SVG/1.1/DTD/svg11.dtd">
<svg version="1.1" id="Layer_1" xmlns="http://www.w3.org/2000/svg" xmlns:xlink="http://www.w3.org/1999/xlink" x="0px" y="0px"
	 width="100px" height="100px" viewBox="0 0 100 100" enable-background="new 0 0 100 100" xml:space="preserve">
<g id="Layer_2">
</g>
<g id="Layer_2_1_">
</g>
<path d="M40,11C17.908,11,0,28.908,0,51s17.908,40,40,40s40-17.908,40-40S62.092,11,40,11z M32.5,74.75h-10v-10h10V74.75z
	 M32.5,62.25h-10v-10h10V62.25z M32.5,49.75h-10v-10h10V49.75z M45,74.75H35v-10h10V74.75z M45,62.25H35v-10h10V62.25z M45,49.75H35
	v-10h10V49.75z M57.5,74.668h-10V52.252h10V74.668z M57.5,49.75h-10v-10h10V49.75z M57.5,37.25h-35v-10h35V37.25z"/>
</svg>
