<?xml version="1.0" encoding="utf-8"?>
<!-- Generator: Adobe Illustrator 16.0.0, SVG Export Plug-In . SVG Version: 6.00 Build 0)  -->
<!DOCTYPE svg PUBLIC "-//W3C//DTD SVG 1.1//EN" "http://www.w3.org/Graphics/SVG/1.1/DTD/svg11.dtd">
<svg version="1.1" id="Layer_1" xmlns="http://www.w3.org/2000/svg" xmlns:xlink="http://www.w3.org/1999/xlink" x="0px" y="0px"
	 width="100px" height="100px" viewBox="0 0 100 100" enable-background="new 0 0 100 100" xml:space="preserve">
<g id="Layer_2">
</g>
<g id="Layer_2_1_">
</g>
<path d="M61.864,63.381v14.703H8.416V34.636h15.348c1.084-0.99,1.775-1.407,2.865-2.156c4.802-3.297,8.801-5.085,12.675-6.12H9.219
	c-4.719,0-9.079,3.478-9.079,8.197v42.725c0,4.72,4.36,9.079,9.079,9.079h52.725c4.719,0,8.197-4.359,8.197-9.079V56.601
	L61.864,63.381z"/>
<path fill-rule="evenodd" clip-rule="evenodd" d="M15,57.536c0.835-3.438,5.299-13.943,14.141-20.096
	c8.133-5.661,12.254-6.235,20.113-7.185V14.79l32.562,25.206L49.3,65.81V51.244c-5.951,0-11.987-0.322-20.465,2.02
	c-6.556,1.812-12.145,5.997-14.676,8.81C14.159,62.073,14.208,60.799,15,57.536z"/>
</svg>
