<?xml version="1.0" encoding="utf-8"?>
<!-- Generator: Adobe Illustrator 16.0.0, SVG Export Plug-In . SVG Version: 6.00 Build 0)  -->
<!DOCTYPE svg PUBLIC "-//W3C//DTD SVG 1.1//EN" "http://www.w3.org/Graphics/SVG/1.1/DTD/svg11.dtd">
<svg version="1.1" id="Layer_1" xmlns="http://www.w3.org/2000/svg" xmlns:xlink="http://www.w3.org/1999/xlink" x="0px" y="0px"
	 width="100px" height="100px" viewBox="0 0 100 100" enable-background="new 0 0 100 100" xml:space="preserve">
<g id="Layer_2">
</g>
<g id="Layer_2_1_">
</g>
<path d="M40,11C17.907,11,0,28.908,0,51s17.907,40,40,40c22.091,0,40-17.908,40-40S62.091,11,40,11z M44.25,29.529
	c5.302,0,9.599,4.299,9.599,9.6c0,5.303-4.297,9.6-9.599,9.6c-5.304,0-9.601-4.297-9.601-9.6
	C34.649,33.828,38.946,29.529,44.25,29.529z M29.73,28.055c2.079,0,3.961,0.828,5.343,2.168c-2.238,2.307-3.624,5.445-3.624,8.906
	c0,1.367,0.223,2.683,0.622,3.92c-0.739,0.235-1.523,0.365-2.341,0.365c-4.241,0-7.679-3.438-7.679-7.68
	C22.052,31.494,25.489,28.055,29.73,28.055z M21.995,60.822h-7.506v-7.828c0-1.973,0.667-3.858,2.166-5.362
	c1.5-1.505,3.383-2.169,5.349-2.169h11.142c0.55,0.957,1.21,1.844,1.978,2.626h-0.534c-3.475,0-6.571,1.263-8.951,3.653
	c-2.383,2.391-3.643,5.488-3.643,8.961V60.822z M63.595,70.488H25.195v-9.785c0-2.466,0.834-4.822,2.708-6.703
	c1.875-1.881,4.229-2.711,6.686-2.711h19.2c2.457,0,5.017,0.83,6.892,2.711c1.874,1.881,2.914,4.237,2.914,6.703V70.488z"/>
</svg>
