<?xml version="1.0" encoding="utf-8"?>
<!-- Generator: Adobe Illustrator 16.0.0, SVG Export Plug-In . SVG Version: 6.00 Build 0)  -->
<!DOCTYPE svg PUBLIC "-//W3C//DTD SVG 1.1//EN" "http://www.w3.org/Graphics/SVG/1.1/DTD/svg11.dtd">
<svg version="1.1" id="Layer_1" xmlns="http://www.w3.org/2000/svg" xmlns:xlink="http://www.w3.org/1999/xlink" x="0px" y="0px"
	 width="100px" height="100px" viewBox="0 0 100 100" enable-background="new 0 0 100 100" xml:space="preserve">
<g id="Layer_2">
</g>
<g id="Layer_2_1_">
</g>
<g>
	<circle cx="40" cy="73.251" r="3.183"/>
	<rect x="27.75" y="36" width="24.5" height="32.5"/>
	<path d="M40,11C17.908,11,0,28.908,0,51s17.908,40,40,40s40-17.908,40-40S62.092,11,40,11z M56.25,73.5
		c0,1.279-0.488,2.559-1.465,3.535C53.81,78.012,52.529,78.5,51.25,78.5h-22.5c-1.279,0-2.56-0.488-3.535-1.465
		c-0.977-0.977-1.465-2.256-1.465-3.535V31c0-1.279,0.488-2.561,1.465-3.535C26.19,26.488,27.471,26,28.75,26h22.5
		c1.279,0,2.56,0.488,3.535,1.465c0.977,0.975,1.465,2.256,1.465,3.535V73.5z"/>
</g>
</svg>
