<?xml version="1.0" encoding="utf-8"?>
<!-- Generator: Adobe Illustrator 16.0.0, SVG Export Plug-In . SVG Version: 6.00 Build 0)  -->
<!DOCTYPE svg PUBLIC "-//W3C//DTD SVG 1.1//EN" "http://www.w3.org/Graphics/SVG/1.1/DTD/svg11.dtd">
<svg version="1.1" id="Layer_1" xmlns="http://www.w3.org/2000/svg" xmlns:xlink="http://www.w3.org/1999/xlink" x="0px" y="0px"
	 width="100px" height="100px" viewBox="0 0 100 100" enable-background="new 0 0 100 100" xml:space="preserve">
<g id="Layer_2">
</g>
<g id="Layer_2_1_">
</g>
<g>
	<rect x="22.811" y="38.189" width="34.455" height="24.165"/>
	<path d="M40,11C17.908,11,0,28.908,0,51s17.908,40,40,40s40-17.908,40-40S62.092,11,40,11z M68.938,68.44
		c-1.221,1.221-2.82,1.831-4.42,1.831H15.482c-1.602,0-3.199-0.61-4.42-1.831c-1.221-1.219-1.83-2.819-1.83-4.419v-1.667h8.271
		V37.978c0-1.599,0.611-3.199,1.832-4.418c1.219-1.221,2.82-1.832,4.418-1.832h32.49c1.6,0,3.201,0.611,4.42,1.832
		c1.221,1.219,1.83,2.819,1.83,4.418v24.377h8.273v1.667C70.768,65.621,70.158,67.222,68.938,68.44z"/>
</g>
</svg>
