<?xml version="1.0" encoding="utf-8"?>
<!-- Generator: Adobe Illustrator 16.0.0, SVG Export Plug-In . SVG Version: 6.00 Build 0)  -->
<!DOCTYPE svg PUBLIC "-//W3C//DTD SVG 1.1//EN" "http://www.w3.org/Graphics/SVG/1.1/DTD/svg11.dtd">
<svg version="1.1" id="Layer_1" xmlns="http://www.w3.org/2000/svg" xmlns:xlink="http://www.w3.org/1999/xlink" x="0px" y="0px"
	 width="100px" height="100px" viewBox="0 0 100 100" enable-background="new 0 0 100 100" xml:space="preserve">
<g id="Layer_2">
</g>
<g id="Layer_2_1_">
</g>
<g id="Calendar2_3_">
	<g>
		<path fill-rule="evenodd" clip-rule="evenodd" d="M59.347,45.345h-6.981v6.981h6.981V45.345z M45.381,45.345H38.4v6.981h6.981
			V45.345z M45.381,59.311H38.4v6.981h6.981V59.311z M31.416,45.345h-6.981v6.981h6.981V45.345z M69.815,20.911V6.945H55.854v13.966
			H27.928V6.945H13.965v13.966H0v69.815h83.781V20.911H69.815z M69.815,76.764h-55.85v-41.89h55.85V76.764z M31.416,59.311h-6.981
			v6.981h6.981V59.311z M59.347,59.311h-6.981v6.981h6.981V59.311z"/>
	</g>
</g>
</svg>
