<?xml version="1.0" encoding="utf-8"?>
<!-- Generator: Adobe Illustrator 16.0.0, SVG Export Plug-In . SVG Version: 6.00 Build 0)  -->
<!DOCTYPE svg PUBLIC "-//W3C//DTD SVG 1.1//EN" "http://www.w3.org/Graphics/SVG/1.1/DTD/svg11.dtd">
<svg version="1.1" id="Layer_1" xmlns="http://www.w3.org/2000/svg" xmlns:xlink="http://www.w3.org/1999/xlink" x="0px" y="0px"
	 width="100px" height="100px" viewBox="0 0 100 100" enable-background="new 0 0 100 100" xml:space="preserve">
<g id="Layer_2">
</g>
<g id="Layer_2_1_">
</g>
<path d="M98.425,1.325c-1.764-1.761-4.613-1.761-6.372,0L49.871,43.505L7.689,1.325c-1.759-1.761-4.61-1.761-6.37,0
	c-1.76,1.758-1.76,4.609,0,6.369l42.182,42.182L1.32,92.057c-1.76,1.76-1.76,4.61,0,6.37c0.879,0.88,2.034,1.317,3.187,1.317
	c1.151,0,2.303-0.438,3.184-1.317l42.181-42.183l42.182,42.183c0.881,0.88,2.033,1.317,3.187,1.317c1.154,0,2.304-0.438,3.186-1.317
	c1.759-1.761,1.759-4.611,0-6.37L56.24,49.875L98.425,7.693C100.184,5.934,100.184,3.083,98.425,1.325z"/>
</svg>
