<?xml version="1.0" standalone="no"?><!-- Generator: Adobe Fireworks CS6, Export SVG Extension by Aaron Beall (http://fireworks.abeall.com) . Version: 0.6.1  --><!DOCTYPE svg PUBLIC "-//W3C//DTD SVG 1.1//EN" "http://www.w3.org/Graphics/SVG/1.1/DTD/svg11.dtd"><svg id="v17e-Primer-b.fw-940" viewBox="0 0 940 300" style="background-color:#ffffff00" version="1.1"	xmlns="http://www.w3.org/2000/svg" xmlns:xlink="http://www.w3.org/1999/xlink" xml:space="preserve"	x="0px" y="0px" width="940px" height="300px">	<g id="bg4">		<rect x="0" y="0" width="940" height="300" fill="#ffffff"/>	</g>	<g id="Layer%2022">		<path d="M 56.9639 155.5 C 56.9639 170.9639 44.4277 184.5 28.9639 184.5 C 13.5 184.5 0.9639 170.9639 0.9639 155.5 C 0.9639 137 13.5 111.75 28.9639 111.75 C 44.4277 111.75 56.9639 137 56.9639 155.5 Z" fill="#000000"/>		<g>			<path d="M 169.1528 151.0249 C 169.1528 151.7783 169.2095 152.5166 169.2959 153.2471 L 169.6025 153.5537 L 178.7949 144.3608 L 187.9888 153.5537 L 197.1816 144.3608 L 206.375 153.5537 L 206.5635 153.3652 C 206.6592 152.5972 206.7246 151.8193 206.7246 151.0249 C 206.7246 145.1348 204.0103 139.8828 199.7686 136.4385 C 201.1797 134.2466 202.0078 131.6431 202.0078 128.8413 C 202.0078 127.1855 201.7065 125.6035 201.1816 124.1279 L 203.7363 119.6118 L 198.5396 119.6118 C 195.9609 116.6519 192.1729 114.7725 187.9385 114.7725 C 180.1685 114.7725 173.8696 121.0723 173.8696 128.8413 C 173.8696 131.6431 174.6978 134.2466 176.1089 136.4385 C 171.8672 139.8828 169.1528 145.1348 169.1528 151.0249 Z" fill="#000000"/>			<path d="M 214.3418 149.9497 L 206.3247 157.9658 L 197.1318 148.7729 L 187.9385 157.9658 L 178.7456 148.7729 L 169.5522 157.9658 L 161.5352 149.9497 C 161.2407 152.0791 161.0791 154.1729 161.0791 156.1812 C 161.0791 171.0151 173.1045 184 187.9385 184 C 202.7725 184 214.7983 171.0151 214.7983 156.1812 C 214.7983 154.1729 214.6367 152.0791 214.3418 149.9497 Z" fill="#000000"/>		</g>		<path d="M 682.4014 164.6963 C 682.4014 170.9902 677.2988 176.5 671.0039 176.5 C 664.71 176.5 659.6074 170.9902 659.6074 164.6963 C 659.6074 157.166 664.71 146.8887 671.0039 146.8887 C 677.2988 146.8887 682.4014 157.166 682.4014 164.6963 Z" fill="#000000"/>		<path d="M 701.7529 163.4629 C 702.4248 169.7207 697.9395 175.7432 691.6807 176.415 C 685.4229 177.0869 679.7617 172.1533 679.0898 165.8955 C 678.2861 158.4082 682.2627 147.645 688.5205 146.9731 C 694.7793 146.3013 700.9502 155.9756 701.7529 163.4629 Z" fill="#000000"/>		<path d="M 640.6211 163.4629 C 639.9492 169.7207 644.4346 175.7432 650.6934 176.415 C 656.9512 177.0869 662.6123 172.1533 663.2842 165.8955 C 664.0879 158.4082 660.1113 147.645 653.8535 146.9731 C 647.5947 146.3013 641.4238 155.9756 640.6211 163.4629 Z" fill="#000000"/>		<path d="M 368.9854 175.2617 L 363.1953 176.498 L 366.1592 174.5586 C 366.667 174.2266 366.8096 173.5449 366.4766 173.0361 C 366.1436 172.5283 365.4629 172.3848 364.9541 172.7188 L 359.3896 176.3613 L 357.252 168.7305 C 362.332 165.5342 365.7188 159.8926 365.7188 153.4473 C 365.7188 150.7168 365.0947 148.1377 364.0107 145.8164 C 368.3682 143.8027 371.6396 139.8555 372.7217 135.0664 L 377.6689 132.1533 L 372.9502 129.4277 C 371.8896 121.8096 365.3662 115.9395 357.4551 115.9395 C 348.8037 115.9395 341.791 122.9531 341.791 131.6025 C 341.791 133.1846 342.0303 134.71 342.4668 136.1504 C 336.6006 137.9082 332 142.5645 330.3076 148.459 L 325.2993 143.4502 C 321.772 146.9775 321.772 152.6953 325.2993 156.2227 C 325.332 156.2549 325.3677 156.2822 325.4009 156.3145 L 322.3311 156.3145 C 322.3311 161.3027 326.374 165.3457 331.3623 165.3457 C 332.2021 165.3457 333.0117 165.2227 333.7832 165.0078 C 335.2095 166.7178 336.9473 168.1572 338.9077 169.2451 L 336.2856 178.1406 L 332.6846 177.7676 C 332.0806 177.7041 331.5396 178.1436 331.4771 178.7471 C 331.4141 179.3516 331.8535 179.8916 332.4575 179.9551 L 336.6797 180.3926 L 344.9268 184.3896 C 345.0449 184.4473 345.1689 184.4814 345.2925 184.4941 C 345.7402 184.541 346.189 184.3076 346.3965 183.8799 C 346.6611 183.333 346.4326 182.6748 345.8857 182.4102 L 343.0977 181.0586 L 348.6206 181.6309 C 349.2246 181.6934 349.7656 181.2549 349.8281 180.6504 C 349.8906 180.0469 349.4517 179.5059 348.8477 179.4434 L 342.6899 178.8047 L 346.4121 177.7227 C 346.9956 177.5527 347.3306 176.9424 347.1611 176.3584 C 346.9907 175.7754 346.3809 175.4404 345.7974 175.6104 L 339.8037 177.3545 L 342.1636 170.6533 C 343.8965 171.2061 345.7407 171.5098 347.6567 171.5098 C 349.8354 171.5098 351.9141 171.1045 353.8481 170.3975 L 356.6226 177.9023 L 353.0942 178.6553 C 352.5 178.7822 352.1211 179.3672 352.248 179.9609 C 352.3584 180.4775 352.8149 180.832 353.3228 180.832 C 353.3989 180.832 353.4761 180.8232 353.5532 180.8076 L 357.6982 179.9229 L 366.7998 181.3486 C 366.8574 181.3574 366.915 181.3623 366.9717 181.3623 C 367.5039 181.3623 367.9717 180.9746 368.0576 180.4316 C 368.1514 179.832 367.7412 179.2686 367.1406 179.1748 L 363.7139 178.6377 L 369.4443 177.4141 C 370.0381 177.2871 370.417 176.7021 370.29 176.1084 C 370.1631 175.5146 369.5771 175.1436 368.9854 175.2617 Z" fill="#000000"/>		<path d="M 549.7295 144.873 L 556.3086 141.5977 L 549.9893 138.498 C 548.7734 130.5898 541.958 124.5254 533.709 124.5254 C 526.0879 124.5254 519.6914 129.7012 517.7998 136.7227 L 509.6875 120.3379 C 505.6475 122.3369 502.502 125.4238 500.4307 129.0684 L 494 122.6377 C 487.0605 129.5781 485.793 140.0352 490.1875 148.2666 L 476.7617 148.2666 C 476.7617 163.1143 494.0605 175.1475 508.9063 175.1475 C 520.5117 175.1475 530.4004 167.7939 534.1631 157.4902 C 541.7393 157.2822 548.0254 151.9766 549.7295 144.873 Z" fill="#000000"/>		<path d="M 713.459 128.207 L 716.748 126.5693 L 713.5879 125.0195 C 712.9805 121.0654 709.5723 118.0332 705.4482 118.0332 C 701.6377 118.0332 698.4395 120.6211 697.4941 124.1318 L 693.4375 115.9395 C 691.418 116.9395 689.8447 118.4824 688.8086 120.3047 L 685.5938 117.0898 C 682.124 120.5596 681.4902 125.7881 683.6875 129.9043 L 676.9746 129.9043 C 676.9746 137.3281 685.624 143.3447 693.0469 143.3447 C 698.8496 143.3447 703.7939 139.668 705.6758 134.5156 C 709.4629 134.4121 712.6064 131.7588 713.459 128.207 Z" fill="#000000"/>		<path d="M 876.2363 160.0303 C 878.1094 158.5332 879.3125 156.2324 879.3125 153.6475 C 879.3125 149.1328 875.6523 145.4736 871.1387 145.4736 C 866.624 145.4736 862.9648 149.1328 862.9648 153.6475 C 862.9648 154.083 863.0098 154.5078 863.0762 154.9258 L 851.9219 154.9258 C 849.8213 150.498 845.0918 146.6328 839.4414 143.8447 C 839.3018 143.8672 839.166 143.8936 839.0244 143.9092 C 837.873 146.5215 835.2686 148.3535 832.2285 148.3535 C 831.4512 148.3535 830.7148 148.1992 830.0098 147.9775 C 828.6865 149.1953 826.9355 149.9561 824.9961 149.9561 C 823.0557 149.9561 821.3037 149.1934 819.9805 147.9746 C 819.2754 148.1973 818.5391 148.3496 817.7598 148.3496 C 814.7178 148.3496 812.1113 146.5186 810.9619 143.9023 C 810.0879 143.8018 809.2646 143.542 808.5088 143.167 C 803.1309 146.918 799.4912 152.9863 799.4912 159.8574 C 799.4912 171.252 809.4658 180.4883 820.8604 180.4883 C 832.3086 180.4883 847.2617 173.9717 851.7578 165.1348 L 863.0762 165.1348 C 863.0107 165.5518 862.9648 165.9766 862.9648 166.4141 C 862.9648 170.9287 866.624 174.5889 871.1387 174.5889 C 875.6523 174.5889 879.3125 170.9287 879.3125 166.4141 C 879.3125 163.8281 878.1094 161.5283 876.2363 160.0303 Z" fill="#000000"/>	</g>	<g id="Grid8">		<g id="4%20Column10" opacity="0.4" visibility="hidden">			<path d="M -20 -233 L 0 -233 L 0 853 L -20 853 L -20 -233 Z" fill="#d9182d"/>			<path d="M 220 -233 L 240 -233 L 240 853 L 220 853 L 220 -233 Z" fill="#d9182d"/>			<path d="M 460 -233 L 480 -233 L 480 853 L 460 853 L 460 -233 Z" fill="#d9182d"/>			<path d="M 700 -233 L 720 -233 L 720 853 L 700 853 L 700 -233 Z" fill="#d9182d"/>			<path d="M 940 -233 L 960 -233 L 960 853 L 940 853 L 940 -233 Z" fill="#d9182d"/>		</g>		<g id="5%20Colum8" visibility="hidden">			<g opacity="0.6">				<path d="M 172 -306 L 192 -306 L 192 1053 L 172 1053 L 172 -306 Z" fill="#82d1f5"/>			</g>			<g opacity="0.6">				<path d="M 556 -306 L 576 -306 L 576 1053 L 556 1053 L 556 -306 Z" fill="#82d1f5"/>			</g>			<g opacity="0.6">				<path d="M -20 -306 L 0 -306 L 0 1053 L -20 1053 L -20 -306 Z" fill="#82d1f5"/>			</g>			<g opacity="0.6">				<path d="M 364 -306 L 384 -306 L 384 1053 L 364 1053 L 364 -306 Z" fill="#82d1f5"/>			</g>			<g opacity="0.6">				<path d="M 748 -306 L 768 -306 L 768 1053 L 748 1053 L 748 -306 Z" fill="#82d1f5"/>			</g>			<g opacity="0.6">				<path d="M 940 -306 L 960 -306 L 960 1053 L 940 1053 L 940 -306 Z" fill="#82d1f5"/>			</g>		</g>		<g>			<g id="6%20Col10" opacity="0.6">				<g>					<g opacity="0.498">						<path d="M 140 -276 L 160 -276 L 160 324 L 140 324 L 140 -276 Z" fill="#f6921f"/>					</g>					<g opacity="0.498">						<path d="M 460 -276 L 480 -276 L 480 324 L 460 324 L 460 -276 Z" fill="#f6921f"/>					</g>					<g opacity="0.498">						<path d="M 780 -276 L 800 -276 L 800 324 L 780 324 L 780 -276 Z" fill="#f6921f"/>					</g>				</g>				<g id="6%20Column10">					<g>						<path d="M -20 -276 L 0 -276 L 0 324 L -20 324 L -20 -276 Z" fill="#f6921f"/>					</g>					<g>						<path d="M 300 -276 L 320 -276 L 320 324 L 300 324 L 300 -276 Z" fill="#f6921f"/>					</g>					<g>						<path d="M 620 -276 L 640 -276 L 640 324 L 620 324 L 620 -276 Z" fill="#f6921f"/>					</g>					<g>						<path d="M 940 -276 L 960 -276 L 960 324 L 940 324 L 940 -276 Z" fill="#f6921f"/>					</g>				</g>			</g>			<g id="Margins8" opacity="0.8">				<g>					<path d="M -20 324 L 0 324 L 0 384 L -20 384 L -20 324 Z" fill="#ee3f35"/>				</g>				<g>					<path d="M -130 324 L -20 324 L -20 384 L -130 384 L -130 324 Z" fill="#cccccc"/>				</g>				<g>					<path d="M 960 324 L 1070 324 L 1070 384 L 960 384 L 960 324 Z" fill="#cccccc"/>				</g>				<g>					<path d="M 940 324 L 960 324 L 960 384 L 940 384 L 940 324 Z" fill="#ee3f35"/>				</g>			</g>		</g>	</g></svg>