<?xml version="1.0" standalone="no"?><!-- Generator: Adobe Fireworks CS6, Export SVG Extension by Aaron Beall (http://fireworks.abeall.com) . Version: 0.6.1  --><!DOCTYPE svg PUBLIC "-//W3C//DTD SVG 1.1//EN" "http://www.w3.org/Graphics/SVG/1.1/DTD/svg11.dtd"><svg id="v17e-Primer-assets.fw-everyone" viewBox="0 0 940 160" style="background-color:#ffffff00" version="1.1"	xmlns="http://www.w3.org/2000/svg" xmlns:xlink="http://www.w3.org/1999/xlink" xml:space="preserve"	x="0px" y="0px" width="940px" height="160px">	<g id="Layer%202">		<g>			<path d="M 860.5049 15.4258 C 863.8145 16.0625 865.6992 18.2041 867.0605 20.3887 L 869.8984 18.5752 C 867.3779 14.3271 863.6875 12.1172 858.916 12.001 L 860.5049 15.4258 ZM 848.6465 16.3555 L 850.3809 20.6377 C 851.2158 18.1455 853.3027 16.2314 856.1123 15.5195 L 857.7344 12.0186 C 854.0596 12.2148 850.7305 13.7979 848.6465 16.3555 L 848.6465 16.3555 ZM 851.5068 23.4189 L 851.9463 24.5039 L 855.2246 17.4346 C 852.9424 18.4814 851.498 20.6123 851.498 23.126 C 851.498 23.2266 851.502 23.3242 851.5068 23.4189 L 851.5068 23.4189 ZM 861.3359 17.2129 L 864.7363 24.5469 L 865.9639 21.5049 C 864.5625 19.1787 863.1465 17.8516 861.3359 17.2129 L 861.3359 17.2129 ZM 857.0771 29.082 C 857.4805 29.2715 857.877 29.4492 858.2559 29.6191 L 860.2344 30.4863 L 858.3398 26.2373 L 857.0771 29.082 ZM 865.6113 26.4346 L 867.8926 31.3506 L 875.9336 11.9072 L 871.4707 11.9072 L 869.873 15.8662 C 870.4961 16.6504 871.0654 17.5176 871.5801 18.4648 L 871.918 19.0859 L 867.4141 21.9639 L 865.6113 26.4346 ZM 862.3047 31.3984 C 864.1846 32.25 866.0176 33.1895 867.6143 34.3574 L 858.3291 14.3438 L 852.7891 26.2939 C 853.5625 27.1318 854.6152 27.8203 855.7168 28.4072 L 858.3359 22.502 L 862.3047 31.3984 ZM 852.2139 39.5527 L 856.4023 39.5527 L 845.207 11.9072 L 840.7422 11.9072 L 852.2139 39.5527 ZM 858.041 39.5527 L 858.6875 39.5527 L 859.6006 37.2891 C 859.1953 37.1006 858.7813 36.9111 858.3633 36.7207 L 858.1396 36.6191 L 856.5791 35.9434 L 858.041 39.5527 ZM 860.3223 39.5527 L 863.54 39.5527 C 862.79 38.9561 861.918 38.4414 860.9688 37.9541 L 860.3223 39.5527 ZM 863.4053 46.166 L 860.7031 52.6963 C 863.5791 51.6172 865.7051 49.1416 866.1289 46.166 L 863.4053 46.166 ZM 849.2344 46.624 C 850.1953 50.1787 852.9023 52.6787 856.2266 53.1836 L 853.3145 46.166 L 849.4414 46.166 L 849.2344 46.624 ZM 854.957 46.166 L 857.9043 53.2676 C 858.2285 53.2529 858.5488 53.2207 858.8643 53.1729 L 861.7637 46.166 L 854.957 46.166 ZM 838.0977 57.9814 L 842.4307 57.9814 L 848.4629 44.6494 L 866.1963 44.6494 C 866.1279 43.1865 865.6992 42.0303 865.0127 41.0713 L 850.1084 41.0713 L 850.6719 39.7969 L 848.7139 35.0781 L 838.0977 57.9814 ZM 874.2422 57.9814 L 878.5762 57.9814 L 872.8359 45.6045 C 872.6992 47.6738 872.1523 49.6152 871.2725 51.3555 L 874.2422 57.9814 ZM 846.5117 52.6445 C 849.0625 56.123 852.9785 58.0322 857.5967 58.0322 C 865.3086 58.0322 871.3496 52.126 871.3496 44.5869 C 871.3496 37.5791 866.3232 34.8018 860.7236 32.3564 L 857.6611 31.0156 C 856.4316 30.4639 855.04 29.8398 853.7822 29.0381 L 855.7656 33.9346 C 855.8252 33.9609 855.8848 33.9883 855.9443 34.0137 L 858.9912 35.3398 C 863.2832 37.292 867.7236 39.3125 867.7236 45.0742 C 867.7236 50.4346 863.1279 54.7939 857.4766 54.7939 C 853.4414 54.7939 849.9639 52.3828 848.3291 48.624 L 846.5117 52.6445 ZM 857.5967 59.5488 C 852.8545 59.5488 848.6328 57.6182 845.8057 54.2041 L 843.4092 59.499 L 835.7207 59.499 L 847.9238 33.1738 L 838.4688 10.3887 L 846.2305 10.3887 L 848.0088 14.7813 C 850.5508 12.0664 854.3838 10.4795 858.5166 10.4795 C 862.5957 10.4795 866.0654 11.8877 868.75 14.5967 L 870.4453 10.3887 L 878.2031 10.3887 L 868.7607 33.2207 L 870.6777 37.3545 L 870.6758 37.3564 C 871.4814 38.4648 872.1035 39.7383 872.4756 41.2246 L 880.9531 59.499 L 873.2588 59.499 L 870.3271 52.959 C 867.6143 56.9609 862.9707 59.5488 857.5967 59.5488 L 857.5967 59.5488 Z" fill="#221e1f"/>		</g>		<g>			<path d="M 554.1416 47.6641 C 554.0723 47.9023 553.5527 55.251 552.5732 55.251 L 552.5732 55.6758 C 550.1455 55.6758 553.6152 46.2178 553.6172 45.0205 C 554.6289 45.0244 554.3809 46.8105 554.1416 47.6641 L 554.1416 47.6641 ZM 553.0957 35.1338 C 553.7041 35.7295 553.4727 36.1934 552.9229 36.5342 C 552.1211 37.0313 550.6445 37.2646 550.1328 37.2646 C 550.1348 36.207 550.9248 35.9736 551.5654 35.7695 C 551.7637 35.7051 553.0918 34.5742 553.0957 35.1338 L 553.0957 35.1338 ZM 611.8633 30.2754 C 611.4043 29.9785 609.4775 31.0605 608.7285 31.2988 C 607.2627 31.7598 607.8027 33.1533 608.2061 33.3447 C 609.0352 33.7383 612.9932 37.8438 612.9951 38.2871 L 615.3457 38.2871 C 615.3408 37.459 616.4961 39.1064 615.6045 39.3965 C 615.6045 40.542 615.3457 40.8086 615.3457 41.9521 C 614.9639 41.9531 613.749 52.668 613.2559 53.375 C 612.915 53.8594 611.7412 60.457 611.6016 60.96 C 611.0859 62.8096 608.4502 75.7979 607.0752 75.7939 C 607.0684 76.7764 605.1504 75.0508 605.5068 74.0039 C 605.1348 74.0039 603.3574 67.9561 604.1143 67.9492 C 604.4854 66.1406 600.1904 67.3096 600.1982 69.3154 C 600.5215 69.3154 600.8184 75.7939 601.502 75.7939 C 601.502 76.7129 603.168 80.4844 604.1143 80.4844 C 604.6436 82.0654 609.7744 80.4727 609.7744 78.8613 C 611.0303 79.5986 614.873 64.3242 615.3457 61.9834 C 615.4385 61.5225 617.2979 53.5244 617.4336 53.1182 C 617.8457 51.8965 620.3984 38.7988 620.6563 38.7988 C 620.6563 37.3164 622.5078 32.7705 621.6992 31.9795 C 621.6982 30.3857 616.6465 31.4902 616.6504 33.8555 C 616.5615 33.8848 615.6035 35.3848 615.6045 34.3652 C 615.2207 34.46 612.7891 30.7422 612.3848 30.4453 C 612.165 30.2813 612.165 30.4697 611.8633 30.2754 L 611.8633 30.2754 ZM 535.5068 23.4551 C 536.0732 23.457 537.8203 27.6387 537.9463 28.1436 C 538.0723 28.6475 541.3984 32.8311 541.4287 32.8311 C 541.2061 34.1377 539.0449 38.29 537.6855 38.2871 C 537.6855 39.0078 533.6816 39.0156 533.6787 38.2871 C 532.3057 38.2871 529.6855 33.2891 529.9961 31.4619 C 530.4502 28.79 532.3672 24.5313 534.7236 23.2002 C 534.7275 22.7666 535.5098 22.6504 535.5068 23.4551 L 535.5068 23.4551 ZM 580.4336 14.5908 C 579.0059 14.3906 578.2734 15.1016 577.3848 15.1016 C 575.7852 15.1016 575.9932 18.0059 575.9932 19.0225 C 576.5947 19.0244 577.2939 26.2725 575.9932 26.2686 C 575.9912 28.0996 571.2061 34.0264 570.4209 35.6455 C 569.8916 36.7305 566.0576 39.5127 565.8076 36.752 C 565.7832 36.4873 564.1299 33.6953 563.7168 33.0869 C 563.1855 33.0293 558.6641 33.7012 558.668 34.6211 C 557.665 34.6211 557.6191 35.7207 557.6221 33.5986 C 556.8262 31.6904 555.3008 32.8789 554.9238 31.8096 C 554.79 31.4365 554.3398 31.6904 553.8779 30.9561 C 553.1299 29.7627 549.2559 32.4512 549.4385 33.3447 C 547.4824 33.8223 546.4336 31.6172 545.084 30.9561 C 545.084 30.0762 544.834 25.583 544.3457 24.3887 C 543.9893 23.5049 541.8115 19.0547 541.127 18.3916 C 540.3281 17.6201 536.9668 15.6699 536.3789 16.125 C 533.043 16.125 535.1318 21.0723 533.9414 21.0693 C 528.8828 23.252 524.0859 30.1377 526.4531 36.2412 C 527.5166 38.9795 529.0859 41.2646 532.374 41.4424 C 532.377 42.1504 539.457 40.8418 539.252 39.8213 C 540.46 39.8242 544.041 35.877 544.04 34.8779 C 544.5439 34.8779 545.8965 35.6367 546.7129 36.2959 C 548.0938 37.4131 545.9531 39.0371 546.4785 40.332 C 546.9863 41.5918 552.5703 38.7441 552.5732 39.3105 C 553.4766 39.3135 550.5283 47.4795 549.874 47.918 C 548.915 48.5635 548.3779 60.1152 549.874 60.1084 C 549.874 62.623 553.8379 61.0859 554.749 59.084 C 555.1523 58.1953 557.29 52.5713 557.3613 52.3496 C 557.5859 51.666 557.8584 48.2109 557.8848 47.918 C 558.1807 44.5283 557.6221 41.8359 557.6221 38.543 C 557.3721 37.04 558.3359 36.5352 559.4844 36.4688 C 560.502 36.4082 560.9287 37.5605 561.3652 38.2871 C 561.8613 39.1143 562.5557 39.707 562.9336 40.332 C 563.1563 40.7012 566.8076 40.9824 567.7217 40.332 C 568.9814 39.4395 573.2578 36.6709 573.9023 35.3896 C 574.1904 34.8184 577.3359 29.6807 577.8213 29.6787 C 577.3496 28.752 579.123 29.5605 579.127 30.9561 C 579.5488 30.957 582.2334 34.7666 582.3486 35.3896 C 582.5215 36.3184 586.2793 38.543 586.3516 38.543 L 588.9639 38.543 C 588.9639 38.5234 592.0547 36.4951 591.9248 35.9854 C 592.8965 35.6064 594.7783 39.3008 595.4072 39.0557 C 594.8643 39.9424 599.3984 40.1182 599.6738 39.3105 C 601.3604 40.1348 602.9414 32.5762 603.0703 32.5762 C 603.0703 29.7969 605.7646 30.6875 605.7695 28.3984 C 605.1875 28.3984 599.9355 28.2158 599.9355 29.166 C 598.6611 29.1689 598.2813 34.4014 598.2813 35.4746 C 596.8174 35.4746 595.0547 31.2988 594.1016 31.2988 C 594.1006 29.9043 590.6191 30.1836 590.6191 30.7002 C 589.3809 30.7002 588.7832 32.5791 589.5752 32.5762 C 589.5635 38.2646 585.5332 33.293 584.5254 31.2988 C 584.0254 30.3096 581.5654 23.8223 581.5654 22.4326 C 580.7539 22.4355 581.5166 14.8486 580.4336 14.8457 L 580.4336 14.5908 ZM 563.7168 11.9482 C 565.9199 12.4385 563.6602 14.8477 563.543 15.1016 C 563.1152 16.0352 560.9043 17.2803 560.0605 15.1016 C 559.7393 14.2734 559.9326 13.2295 560.582 12.7168 C 561.002 12.3848 562.793 11.7422 563.7168 11.9482 L 563.7168 11.9482 Z" fill="#221e1f"/>		</g>		<g>			<path d="M 736.2168 30.6807 C 734.6592 30.6807 733.9092 31.3096 732.5596 33.5303 L 732.5 33.5303 L 732.5 30.5596 L 731.752 30.5596 L 727.7588 32.1797 L 727.7588 32.8711 L 729.9785 33.9824 L 729.9785 41.002 C 729.9785 42.7129 728.959 43.3125 727.7588 43.3125 L 727.7588 44.3926 L 735.5605 44.3926 L 735.5605 43.3125 C 732.9209 43.3125 732.5 42.6826 732.5 40.4326 L 732.5 35.1514 C 733.6992 33.4424 734.2402 32.9307 734.959 32.9307 C 735.9473 32.9307 736.1885 34.3408 737.2119 34.3408 C 738.1387 34.3408 738.4395 32.541 738.4395 32.3896 C 738.4395 31.791 737.543 30.6807 736.2168 30.6807 L 736.2168 30.6807 ZM 743.8691 41.0928 L 743.8691 32.3896 L 747.9473 32.3896 L 747.9473 30.8906 L 743.8691 30.8906 L 743.8691 28.4912 L 742.8467 28.4912 C 741.918 29.6611 740.8076 30.9805 739.0957 31.5801 L 739.0957 32.3896 L 741.3477 32.3896 L 741.3477 42.084 C 741.3477 43.9131 742.1885 44.7217 744.1699 44.7217 C 745.4277 44.7217 746.7793 44.4219 748.1006 44.2129 L 748.1006 42.7432 C 747.5596 42.832 746.5684 42.8926 745.9688 42.8926 C 744.1973 42.8926 743.8691 42.4717 743.8691 41.0928 L 743.8691 41.0928 ZM 762.9551 40.9121 L 762.9551 35.2119 C 762.9551 31.9697 761.3359 30.5596 758.5439 30.5596 C 756.8926 30.5596 754.9727 31.4912 753.7412 33.1123 L 753.6836 33.1123 L 753.6836 30.5596 L 752.9326 30.5596 L 749.1504 31.9697 L 749.1504 32.6611 L 751.1611 33.8008 L 751.1611 41.0322 C 751.1611 42.5322 750.4434 43.2529 748.9414 43.3125 L 748.9414 44.3926 L 756.1143 44.3926 L 756.1143 43.3125 C 754.3418 43.3125 753.6836 42.5029 753.6836 40.8506 L 753.6836 34.3408 C 754.9727 33.2607 756.2334 32.5703 757.6133 32.5703 C 759.5635 32.5703 760.4326 33.9824 760.4326 35.8711 L 760.4326 40.8506 C 760.4326 42.4717 759.7461 43.3125 758.0039 43.3125 L 758.0039 44.3926 L 765.084 44.3926 L 765.084 43.3125 C 763.375 43.1318 762.9551 42.4131 762.9551 40.9121 L 762.9551 40.9121 ZM 767.3955 35.001 C 767.668 32.9609 768.9268 31.6699 770.666 31.6699 C 772.3174 31.6699 773.3975 32.8711 773.6348 35.001 L 767.3955 35.001 ZM 771.2344 30.5596 C 767.6963 30.5596 764.9639 33.6807 764.9639 37.792 C 764.9639 41.8135 767.5752 44.7217 771.209 44.7217 C 773.4863 44.7217 775.4961 43.5518 776.7881 41.4512 L 776.1543 40.8818 C 775.0156 41.8711 773.8164 42.3232 772.4063 42.3232 C 769.6172 42.3232 767.0645 40.1006 767.2139 36.0811 L 776.7881 36.0811 C 776.7881 33.9521 775.1064 30.5596 771.2344 30.5596 L 771.2344 30.5596 ZM 722.2227 41.1514 C 721.2012 42.2324 720.2695 42.7129 719.1904 42.7129 C 717.6914 42.7129 717.0898 41.6914 717.0898 40.7627 C 717.0898 39.501 718.2012 38.9014 720.6309 38.002 L 722.2227 37.4023 L 722.2227 41.1514 ZM 724.7412 41.4512 L 724.7412 33.7715 C 724.7412 31.4912 723.2139 30.5596 720.3604 30.5596 C 716.4326 30.5596 714.8408 32.6611 714.8408 34.0713 C 714.8408 34.7314 715.6484 36.2324 715.8311 36.1416 L 717.6016 35.3018 C 718.3809 34.9414 717.1504 33.9219 717.1504 33.2607 C 717.1504 32.5703 718.293 31.8496 719.4619 31.8496 C 720.4512 31.8496 722.2227 32.4502 722.2227 34.2207 L 722.2227 36.2617 L 719.0098 37.3721 C 715.6797 38.5117 714.418 39.6523 714.418 41.5127 C 714.418 43.373 715.8311 44.7217 717.7803 44.7217 C 719.252 44.7217 720.4805 44.1221 722.2227 42.5625 C 722.3691 43.9424 723.123 44.7217 724.2617 44.7217 C 725.0723 44.7217 725.8223 44.3027 726.6914 43.3125 L 726.4229 42.2324 C 725.4023 42.8926 724.7412 42.5625 724.7412 41.4512 L 724.7412 41.4512 ZM 786.0332 30.6807 C 784.4688 30.6807 783.7188 31.3096 782.3721 33.5303 L 782.3105 33.5303 L 782.3105 30.5596 L 781.5615 30.5596 L 777.5703 32.1797 L 777.5703 32.8711 L 779.7891 33.9824 L 779.7891 41.002 C 779.7891 42.7129 778.7695 43.3125 777.5703 43.3125 L 777.5703 44.3926 L 785.3721 44.3926 L 785.3721 43.3125 C 782.7324 43.3125 782.3105 42.6826 782.3105 40.4326 L 782.3105 35.1514 C 783.5107 33.4424 784.0518 32.9307 784.7695 32.9307 C 785.7617 32.9307 786.002 34.3408 787.0225 34.3408 C 787.9512 34.3408 788.252 32.541 788.252 32.3896 C 788.252 31.791 787.3535 30.6807 786.0332 30.6807 L 786.0332 30.6807 ZM 797.5742 38.1816 C 795.8604 36.4707 791.3008 35.9316 791.3008 33.6807 C 791.3008 32.3896 792.1406 31.6699 793.5527 31.6699 C 795.2012 31.6699 796.1611 32.7217 796.6113 35.0898 L 797.543 35.0898 L 797.543 31.8496 C 796.4316 30.9805 795.082 30.5596 793.4902 30.5596 C 790.9111 30.5596 789.1104 32.0898 789.1104 34.2813 C 789.1104 35.1514 789.4414 36.1709 790.04 36.7715 C 792.502 39.2324 796.4609 39.1729 796.4609 41.4824 C 796.4609 42.7129 795.3213 43.6113 793.7305 43.6113 C 791.9307 43.6113 790.8213 42.3232 790.5215 39.9824 L 789.5293 39.9824 L 789.5293 43.7627 C 790.6699 44.333 792.4404 44.7217 793.9404 44.7217 C 796.7627 44.7217 798.5313 43.2227 798.5313 40.7627 C 798.5313 39.7725 798.2031 38.8135 797.5742 38.1816 L 797.5742 38.1816 ZM 667.4902 43.3125 C 664.1611 43.3125 662.5391 41.2422 661.9404 38.1523 L 660.6504 38.1523 L 660.6504 43.3125 C 662.1494 44.0928 665.3916 44.752 667.582 44.752 C 671.9639 44.752 675.084 42.4131 675.084 39.0811 C 675.084 37.6123 674.5127 36.4414 673.4336 35.3613 C 671.1816 33.1123 666.7129 31.3398 665.1221 29.75 C 664.4609 29.0898 664.1611 28.46 664.1611 27.709 C 664.1611 26.0889 665.7832 24.8594 667.8516 24.8594 C 670.6416 24.8594 672.8027 26.6289 673.0117 29.6904 L 674.3027 29.6904 L 674.3027 25.2783 C 672.3213 24.1699 670.043 23.5684 668.0313 23.5684 C 663.8916 23.5684 661.0703 25.6396 661.0703 28.7305 C 661.0703 30.0801 661.5811 31.0693 662.4219 31.9092 C 664.9395 34.4297 668.9609 35.8125 670.9111 37.7617 C 671.7813 38.6318 671.9922 39.4111 671.9922 39.9531 C 671.9922 41.7832 669.9824 43.3125 667.4902 43.3125 L 667.4902 43.3125 ZM 706.7393 33.7109 C 706.3496 33.7109 705.1777 33.4707 705.1777 34.3096 C 705.1777 34.8809 705.9287 35.1816 707.2793 35.1816 C 711.7803 35.1816 714.75 32.8711 714.75 29.3604 C 714.75 26.0889 711.9619 23.9297 707.9688 23.9297 L 697.4668 23.9297 L 697.4668 25.0693 C 699.5352 25.0693 700.5273 26 700.5273 27.7998 L 700.5273 40.1328 C 700.5273 42.084 699.9863 43.2529 697.4668 43.2529 L 697.4668 44.3926 L 707.1299 44.3926 L 707.1299 43.2529 C 704.459 43.2529 703.6787 42.3516 703.6787 40.1328 L 703.6787 25.2188 L 706.1973 25.2188 C 710.3096 25.2188 711.1191 27.5293 711.1191 29.7197 C 711.1191 32.0898 709.3789 33.7109 706.7393 33.7109 L 706.7393 33.7109 ZM 693.0859 27.9814 C 694.5576 25.8799 695.3076 25.2188 696.5352 25.0693 L 696.5352 23.9297 L 689.1563 23.9297 L 689.1563 25.0693 C 691.5557 25.1895 692.0352 27.0205 690.5967 29.1191 L 687.1143 34.2207 L 682.6455 27.709 C 681.5645 26.1504 682.0742 25.0693 684.4443 25.0693 L 684.4443 23.9297 L 675.4443 23.9297 L 675.4443 25.0693 C 676.7031 25.1895 677.4824 25.6113 678.1738 26.6289 L 684.4443 35.8125 L 684.4443 40.4014 C 684.4443 42.4131 683.3662 43.2529 681.3848 43.2529 L 681.3848 44.3926 L 690.5967 44.3926 L 690.5967 43.2529 C 688.6445 43.2529 687.5967 42.3516 687.5967 40.4326 L 687.5967 35.8125 L 693.0859 27.9814 Z" fill="#221e1f"/>		</g>		<g>			<path d="M 427.8662 32.1689 L 423.0234 21.6855 L 416.7686 21.6855 L 421.7744 32.1689 L 427.8662 32.1689 Z" fill="#221e1f"/>			<path d="M 405.1377 32.1689 L 406.9912 27.2949 L 409.0264 32.1689 L 414.8779 32.1689 L 410.2236 21.6855 L 403.5752 21.6855 L 399.3467 32.1689 L 405.1377 32.1689 Z" fill="#221e1f"/>			<path d="M 385.7334 21.6855 L 391.4746 21.6855 L 391.4746 32.1699 L 385.7334 32.1699 L 385.7334 21.6855 Z" fill="#221e1f"/>			<path d="M 368.9023 21.6855 L 374.6416 21.6855 L 374.6416 32.1699 L 368.9023 32.1699 L 368.9023 21.6855 Z" fill="#221e1f"/>			<path d="M 480.082 32.1689 C 476.6318 30.123 471.9404 29.7041 471.9404 27.5029 C 471.9404 26.3516 473.252 25.6064 475.3145 25.6064 C 477.2744 25.6064 479.2695 26.1836 482.6045 27.6689 L 482.6045 23.1748 C 479.7012 21.9268 477.3779 21.3906 474.8115 21.3906 C 469.4688 21.3906 466.0264 24.0195 466.0264 28.0068 C 466.0264 29.7988 466.5732 31.1289 467.4326 32.1689 L 480.082 32.1689 Z" fill="#221e1f"/>			<path d="M 436.2793 32.1689 L 441.0576 21.6855 L 434.8789 21.6855 L 430.2695 32.1689 L 436.2793 32.1689 Z" fill="#221e1f"/>			<path d="M 449.1377 32.1689 L 450.9922 27.2949 L 453.0254 32.1689 L 458.874 32.1689 L 454.2188 21.6855 L 447.5664 21.6855 L 443.334 32.1689 L 449.1377 32.1689 Z" fill="#221e1f"/>			<path d="M 442.2207 34.9473 L 438.2764 44.7305 L 444.3584 44.7305 L 448.0859 34.9473 L 442.2207 34.9473 Z" fill="#221e1f"/>			<path d="M 454.1807 34.9473 L 458.2656 44.7305 L 464.4512 44.7305 L 460.1084 34.9473 L 454.1807 34.9473 Z" fill="#221e1f"/>			<path d="M 423.0996 34.9473 L 427.9209 45.0254 L 430.415 45.0254 L 435.0195 34.9473 L 423.0996 34.9473 Z" fill="#221e1f"/>			<path d="M 471.6816 34.9473 C 474.6777 36.1631 477.7451 36.7461 477.7451 38.6768 C 477.7451 40.0332 476.5596 40.8105 474.3672 40.8105 C 471.8301 40.8105 469.8076 40.0342 466.4951 37.8369 L 466.4951 42.8057 C 468.7959 43.9805 470.791 45.0254 474.8115 45.0254 C 479.9385 45.0254 483.6523 42.46 483.6523 38.042 C 483.6523 36.8145 483.3838 35.7988 482.918 34.9473 L 471.6816 34.9473 Z" fill="#221e1f"/>			<path d="M 385.7334 34.9463 L 391.4746 34.9463 L 391.4746 44.7295 L 385.7334 44.7295 L 385.7334 34.9463 Z" fill="#221e1f"/>			<path d="M 368.9053 34.9463 L 374.6455 34.9463 L 374.6455 44.7295 L 368.9053 44.7295 L 368.9053 34.9463 Z" fill="#221e1f"/>			<path d="M 398.2236 34.9473 L 394.2783 44.7305 L 400.3604 44.7305 L 404.084 34.9473 L 398.2236 34.9473 Z" fill="#221e1f"/>			<path d="M 410.1885 34.9473 L 414.2764 44.7305 L 420.457 44.7305 L 416.1143 34.9473 L 410.1885 34.9473 Z" fill="#221e1f"/>		</g>		<g>			<path d="M 306.6904 33.6934 C 306.6904 29.9434 308.2803 26.3438 312.5107 26.3438 C 316.7412 26.3438 318.3311 29.9434 318.3311 33.6934 C 318.3311 37.2637 316.7412 40.8633 312.5107 40.8633 C 308.2803 40.8633 306.6904 37.2637 306.6904 33.6934 L 306.6904 33.6934 ZM 301.9814 33.6934 C 301.9814 39.874 305.8809 44.8242 312.5107 44.8242 C 319.1406 44.8242 323.041 39.874 323.041 33.6934 C 323.041 27.334 319.1406 22.3838 312.5107 22.3838 C 305.8809 22.3838 301.9814 27.334 301.9814 33.6934 L 301.9814 33.6934 ZM 294.0615 44.3135 L 298.7705 44.3135 L 298.7705 22.8936 L 294.0615 22.8936 L 294.0615 44.3135 ZM 290.0713 30.0938 C 289.502 25.1436 285.541 22.3838 280.8311 22.3838 C 274.1992 22.3838 270.3008 27.334 270.3008 33.6934 C 270.3008 39.874 274.1992 44.8242 280.8311 44.8242 C 286.0811 44.8242 289.7705 41.4033 290.252 36.0635 L 285.6904 36.0635 C 285.3311 38.8838 283.7109 40.8633 280.8311 40.8633 C 276.6006 40.8633 275.0107 37.2637 275.0107 33.6934 C 275.0107 29.9434 276.6006 26.3438 280.8311 26.3438 C 283.1709 26.3438 285.2109 27.9639 285.5107 30.0938 L 290.0713 30.0938 ZM 251.043 35.9736 L 244.293 35.9736 L 244.293 37.5635 L 251.043 37.5635 L 251.043 44.3135 L 252.6318 44.3135 L 252.6318 37.5635 L 259.3809 37.5635 L 259.3809 35.9736 L 252.6318 35.9736 L 252.6318 29.2236 L 251.043 29.2236 L 251.043 35.9736 ZM 219.2412 39.2734 C 219.4219 43.3838 222.9316 44.7334 226.5313 44.7334 C 230.0713 44.7334 233.6123 43.4141 233.6123 39.334 C 233.6123 36.4541 231.1816 35.5537 228.6924 34.9834 C 226.2617 34.4141 223.8623 34.2041 223.8623 32.6738 C 223.8623 31.4141 225.2725 31.2334 226.2305 31.2334 C 227.7617 31.2334 229.0225 31.6836 229.1416 33.334 L 233.1924 33.334 C 232.8623 29.5234 229.7412 28.3838 226.3516 28.3838 C 223.0225 28.3838 219.6016 29.4033 219.6016 33.3633 C 219.6016 36.0938 222.0615 36.9639 224.5225 37.5039 C 227.582 38.1641 229.3516 38.6133 229.3516 39.9033 C 229.3516 41.4033 227.793 41.8838 226.5615 41.8838 C 224.8809 41.8838 223.3213 41.1338 223.293 39.2734 L 219.2412 39.2734 ZM 213.0313 36.5742 C 213.0313 39.1533 211.9219 41.5234 209.4014 41.5234 C 206.8809 41.5234 205.7725 39.1533 205.7725 36.5742 C 205.7725 33.9639 206.8809 31.5938 209.4014 31.5938 C 211.9219 31.5938 213.0313 33.9639 213.0313 36.5742 L 213.0313 36.5742 ZM 201.6621 44.3135 L 205.7119 44.3135 L 205.7119 42.334 L 205.7725 42.334 C 206.7012 44.0439 208.5918 44.7334 210.8721 44.7334 C 213.9619 44.7334 217.293 42.2441 217.293 36.5439 C 217.293 30.874 213.9619 28.3838 210.8721 28.3838 C 208.9512 28.3838 207.0313 29.1035 205.9814 30.6934 L 205.9219 30.6934 L 205.9219 22.8936 L 201.6621 22.8936 L 201.6621 44.3135 ZM 188.5225 33.5742 C 188.6719 31.8936 189.7217 31.2334 191.3418 31.2334 C 192.8418 31.2334 194.1016 31.5039 194.1016 33.334 C 194.1016 35.0742 191.6719 34.9834 189.0615 35.374 C 186.4219 35.7334 183.7822 36.5742 183.7822 40.084 C 183.7822 43.2637 186.1221 44.7334 189.0615 44.7334 C 190.9512 44.7334 192.9316 44.2236 194.2822 42.8135 C 194.3115 43.3242 194.4316 43.834 194.582 44.3135 L 198.9014 44.3135 C 198.5117 43.6836 198.3623 42.2734 198.3623 40.8633 L 198.3623 32.7939 C 198.3623 29.0742 194.6416 28.3838 191.5518 28.3838 C 188.0713 28.3838 184.502 29.584 184.2617 33.5742 L 188.5225 33.5742 ZM 194.1016 38.3135 C 194.1016 39.2441 193.9814 41.8838 190.6504 41.8838 C 189.2725 41.8838 188.043 41.4941 188.043 39.9033 C 188.043 38.3438 189.2412 37.8936 190.5615 37.624 C 191.8809 37.3838 193.3809 37.3535 194.1016 36.7236 L 194.1016 38.3135 ZM 167.1016 44.3135 L 182.252 44.3135 L 182.252 40.3535 L 171.8135 40.3535 L 171.8135 22.8936 L 167.1016 22.8936 L 167.1016 44.3135 ZM 157.7725 30.0938 C 157.2012 25.1436 153.2432 22.3838 148.5313 22.3838 C 141.9023 22.3838 138.002 27.334 138.002 33.6934 C 138.002 39.874 141.9023 44.8242 148.5313 44.8242 C 153.7822 44.8242 157.4727 41.4033 157.9512 36.0635 L 153.3936 36.0635 C 153.0313 38.8838 151.4131 40.8633 148.5313 40.8633 C 144.3027 40.8633 142.7129 37.2637 142.7129 33.6934 C 142.7129 29.9434 144.3027 26.3438 148.5313 26.3438 C 150.873 26.3438 152.9131 27.9639 153.2129 30.0938 L 157.7725 30.0938 ZM 133.7725 44.3135 L 138.9932 44.3135 L 134.6436 39.2441 C 135.8428 37.7441 136.502 35.8838 136.7129 33.9639 L 133.0225 33.9639 C 132.9023 34.834 132.6631 35.7334 132.2432 36.5137 L 129.4824 33.124 C 131.6436 31.9834 133.293 30.2734 133.293 27.7842 C 133.293 24.3936 130.6523 22.6533 127.4131 22.6533 C 124.5635 22.6533 121.833 24.5742 121.833 27.5439 C 121.833 29.4033 122.7334 30.6934 123.873 32.1035 C 121.3516 33.2734 119.0732 35.3135 119.0732 38.3135 C 119.0732 42.3633 122.1328 44.7334 126.002 44.7334 C 128.4326 44.7334 130.3232 43.8633 132.0313 42.1836 L 133.7725 44.3135 ZM 129.7822 39.334 C 128.793 40.4434 127.7129 41.2236 126.1816 41.2236 C 124.5635 41.2236 123.123 39.9639 123.123 38.4033 C 123.123 36.6641 124.623 35.5234 126.123 34.8633 L 129.7822 39.334 ZM 129.5732 27.5439 C 129.5732 29.1035 128.583 29.8242 127.3828 30.6035 C 126.5732 29.6133 125.7012 28.7441 125.7012 27.3936 C 125.7012 26.2842 126.6016 25.5039 127.623 25.5039 C 128.6729 25.5039 129.5732 26.4336 129.5732 27.5439 L 129.5732 27.5439 ZM 92.9727 44.3135 L 97.3828 44.3135 L 97.3828 29.2842 L 97.4424 29.2842 L 102.6924 44.3135 L 106.3232 44.3135 L 111.5732 29.1338 L 111.6328 29.1338 L 111.6328 44.3135 L 116.043 44.3135 L 116.043 22.8936 L 109.4131 22.8936 L 104.6729 37.624 L 104.6123 37.624 L 99.6016 22.8936 L 92.9727 22.8936 L 92.9727 44.3135 ZM 62.6729 44.3135 L 64.7129 44.3135 L 64.7129 25.8037 L 64.7725 25.8037 L 72.123 44.3135 L 74.043 44.3135 L 81.3623 25.8037 L 81.4229 25.8037 L 81.4229 44.3135 L 83.4629 44.3135 L 83.4629 22.8936 L 80.4629 22.8936 L 73.083 41.6738 L 65.6729 22.8936 L 62.6729 22.8936 L 62.6729 44.3135 ZM 44.7637 24.6338 L 51.7832 24.6338 C 54.9639 24.6338 56.6143 25.9834 56.6143 28.6533 C 56.6143 30.6641 55.0537 32.2842 51.7832 32.2842 L 44.7637 32.2842 L 44.7637 24.6338 ZM 42.7236 44.3135 L 51.7832 44.3135 C 58.7432 44.3135 59.4639 40.2637 59.4639 38.2236 C 59.4639 35.4336 57.6943 33.3633 54.9336 33.0039 L 54.9336 32.9434 C 57.1523 32.4639 58.6523 30.3936 58.6523 28.1436 C 58.6523 24.1533 55.3838 22.8936 51.7832 22.8936 L 42.7236 22.8936 L 42.7236 44.3135 ZM 44.7637 34.0234 L 51.7832 34.0234 C 55.3545 34.0234 57.4238 35.4336 57.4238 38.1641 C 57.4238 41.584 54.8135 42.6035 51.7832 42.5742 L 44.7637 42.5742 L 44.7637 34.0234 ZM 36.2139 44.3135 L 38.2539 44.3135 L 38.2539 22.8936 L 36.2139 22.8936 L 36.2139 44.3135 Z" fill="#221e1f"/>		</g>		<g opacity="0.102">			<path d="M 306.6904 134.8314 C 306.6904 131.2611 308.2803 127.6615 312.5107 127.6615 C 316.7412 127.6615 318.3311 131.2611 318.3311 134.8314 C 318.3311 138.5814 316.7412 142.181 312.5107 142.181 C 308.2803 142.181 306.6904 138.5814 306.6904 134.8314 ZM 301.9814 134.8314 C 301.9814 141.1908 305.8809 146.141 312.5107 146.141 C 319.1406 146.141 323.041 141.1908 323.041 134.8314 C 323.041 128.6508 319.1406 123.7006 312.5107 123.7006 C 305.8809 123.7006 301.9814 128.6508 301.9814 134.8314 ZM 294.0615 124.2113 L 294.0615 145.6312 L 298.7705 145.6312 L 298.7705 124.2113 L 294.0615 124.2113 ZM 290.0713 138.431 L 285.5107 138.431 C 285.2109 140.5609 283.1709 142.181 280.8311 142.181 C 276.6006 142.181 275.0107 138.5814 275.0107 134.8314 C 275.0107 131.2611 276.6006 127.6615 280.8311 127.6615 C 283.7109 127.6615 285.3311 129.641 285.6904 132.4613 L 290.252 132.4613 C 289.7705 127.1215 286.0811 123.7006 280.8311 123.7006 C 274.1992 123.7006 270.3008 128.6508 270.3008 134.8314 C 270.3008 141.1908 274.1992 146.141 280.8311 146.141 C 285.541 146.141 289.502 143.3812 290.0713 138.431 ZM 251.043 132.5511 L 251.043 139.3011 L 252.6318 139.3011 L 252.6318 132.5511 L 259.3809 132.5511 L 259.3809 130.9613 L 252.6318 130.9613 L 252.6318 124.2113 L 251.043 124.2113 L 251.043 130.9613 L 244.293 130.9613 L 244.293 132.5511 L 251.043 132.5511 ZM 219.2412 129.2513 L 223.293 129.2513 C 223.3213 127.391 224.8809 126.641 226.5615 126.641 C 227.793 126.641 229.3516 127.1215 229.3516 128.6215 C 229.3516 129.9115 227.582 130.3607 224.5225 131.0209 C 222.0615 131.5609 219.6016 132.431 219.6016 135.1615 C 219.6016 139.1215 223.0225 140.141 226.3516 140.141 C 229.7412 140.141 232.8623 139.0013 233.1924 135.1908 L 229.1416 135.1908 C 229.0225 136.8412 227.7617 137.2914 226.2305 137.2914 C 225.2725 137.2914 223.8623 137.1107 223.8623 135.851 C 223.8623 134.3207 226.2617 134.1107 228.6924 133.5414 C 231.1816 132.9711 233.6123 132.0707 233.6123 129.1908 C 233.6123 125.1107 230.0713 123.7914 226.5313 123.7914 C 222.9316 123.7914 219.4219 125.141 219.2412 129.2513 ZM 213.0313 131.9506 C 213.0313 134.5609 211.9219 136.931 209.4014 136.931 C 206.8809 136.931 205.7725 134.5609 205.7725 131.9506 C 205.7725 129.3715 206.8809 127.0013 209.4014 127.0013 C 211.9219 127.0013 213.0313 129.3715 213.0313 131.9506 ZM 201.6621 124.2113 L 201.6621 145.6312 L 205.9219 145.6312 L 205.9219 137.8314 L 205.9814 137.8314 C 207.0313 139.4213 208.9512 140.141 210.8721 140.141 C 213.9619 140.141 217.293 137.6508 217.293 131.9808 C 217.293 126.2806 213.9619 123.7914 210.8721 123.7914 C 208.5918 123.7914 206.7012 124.4808 205.7725 126.1908 L 205.7119 126.1908 L 205.7119 124.2113 L 201.6621 124.2113 ZM 188.5225 134.9506 L 184.2617 134.9506 C 184.502 138.9408 188.0713 140.141 191.5518 140.141 C 194.6416 140.141 198.3623 139.4506 198.3623 135.7308 L 198.3623 127.6615 C 198.3623 126.2513 198.5117 124.8412 198.9014 124.2113 L 194.582 124.2113 C 194.4316 124.6908 194.3115 125.2006 194.2822 125.7113 C 192.9316 124.3011 190.9512 123.7914 189.0615 123.7914 C 186.1221 123.7914 183.7822 125.2611 183.7822 128.4408 C 183.7822 131.9506 186.4219 132.7914 189.0615 133.1508 C 191.6719 133.5414 194.1016 133.4506 194.1016 135.1908 C 194.1016 137.0209 192.8418 137.2914 191.3418 137.2914 C 189.7217 137.2914 188.6719 136.6312 188.5225 134.9506 ZM 194.1016 130.2113 L 194.1016 131.8011 C 193.3809 131.1713 191.8809 131.141 190.5615 130.9008 C 189.2412 130.6312 188.043 130.181 188.043 128.6215 C 188.043 127.0306 189.2725 126.641 190.6504 126.641 C 193.9814 126.641 194.1016 129.2806 194.1016 130.2113 ZM 167.1016 124.2113 L 167.1016 145.6312 L 171.8135 145.6312 L 171.8135 128.1713 L 182.252 128.1713 L 182.252 124.2113 L 167.1016 124.2113 ZM 157.7725 138.431 L 153.2129 138.431 C 152.9131 140.5609 150.873 142.181 148.5313 142.181 C 144.3027 142.181 142.7129 138.5814 142.7129 134.8314 C 142.7129 131.2611 144.3027 127.6615 148.5313 127.6615 C 151.4131 127.6615 153.0313 129.641 153.3936 132.4613 L 157.9512 132.4613 C 157.4727 127.1215 153.7822 123.7006 148.5313 123.7006 C 141.9023 123.7006 138.002 128.6508 138.002 134.8314 C 138.002 141.1908 141.9023 146.141 148.5313 146.141 C 153.2432 146.141 157.2012 143.3812 157.7725 138.431 ZM 133.7725 124.2113 L 132.0313 126.3412 C 130.3232 124.6615 128.4326 123.7914 126.002 123.7914 C 122.1328 123.7914 119.0732 126.1615 119.0732 130.2113 C 119.0732 133.2113 121.3516 135.2513 123.873 136.4213 C 122.7334 137.8314 121.833 139.1215 121.833 140.9808 C 121.833 143.9506 124.5635 145.8715 127.4131 145.8715 C 130.6523 145.8715 133.293 144.1312 133.293 140.7406 C 133.293 138.2513 131.6436 136.5414 129.4824 135.4008 L 132.2432 132.0111 C 132.6631 132.7914 132.9023 133.6908 133.0225 134.5609 L 136.7129 134.5609 C 136.502 132.641 135.8428 130.7806 134.6436 129.2806 L 138.9932 124.2113 L 133.7725 124.2113 ZM 129.7822 129.1908 L 126.123 133.6615 C 124.623 133.0013 123.123 131.8607 123.123 130.1215 C 123.123 128.5609 124.5635 127.3011 126.1816 127.3011 C 127.7129 127.3011 128.793 128.0814 129.7822 129.1908 ZM 129.5732 140.9808 C 129.5732 142.0912 128.6729 143.0209 127.623 143.0209 C 126.6016 143.0209 125.7012 142.2406 125.7012 141.1312 C 125.7012 139.7806 126.5732 138.9115 127.3828 137.9213 C 128.583 138.7006 129.5732 139.4213 129.5732 140.9808 ZM 92.9727 124.2113 L 92.9727 145.6312 L 99.6016 145.6312 L 104.6123 130.9008 L 104.6729 130.9008 L 109.4131 145.6312 L 116.043 145.6312 L 116.043 124.2113 L 111.6328 124.2113 L 111.6328 139.391 L 111.5732 139.391 L 106.3232 124.2113 L 102.6924 124.2113 L 97.4424 139.2406 L 97.3828 139.2406 L 97.3828 124.2113 L 92.9727 124.2113 ZM 62.6729 124.2113 L 62.6729 145.6312 L 65.6729 145.6312 L 73.083 126.851 L 80.4629 145.6312 L 83.4629 145.6312 L 83.4629 124.2113 L 81.4229 124.2113 L 81.4229 142.7211 L 81.3623 142.7211 L 74.043 124.2113 L 72.123 124.2113 L 64.7725 142.7211 L 64.7129 142.7211 L 64.7129 124.2113 L 62.6729 124.2113 ZM 44.7637 143.891 L 44.7637 136.2406 L 51.7832 136.2406 C 55.0537 136.2406 56.6143 137.8607 56.6143 139.8715 C 56.6143 142.5414 54.9639 143.891 51.7832 143.891 L 44.7637 143.891 ZM 42.7236 124.2113 L 42.7236 145.6312 L 51.7832 145.6312 C 55.3838 145.6312 58.6523 144.3715 58.6523 140.3812 C 58.6523 138.1312 57.1523 136.0609 54.9336 135.5814 L 54.9336 135.5209 C 57.6943 135.1615 59.4639 133.0912 59.4639 130.3011 C 59.4639 128.2611 58.7432 124.2113 51.7832 124.2113 L 42.7236 124.2113 ZM 44.7637 134.5013 L 44.7637 125.9506 L 51.7832 125.9506 C 54.8135 125.9213 57.4238 126.9408 57.4238 130.3607 C 57.4238 133.0912 55.3545 134.5013 51.7832 134.5013 L 44.7637 134.5013 ZM 36.2139 124.2113 L 36.2139 145.6312 L 38.2539 145.6312 L 38.2539 124.2113 L 36.2139 124.2113 ZM 410.1885 133.5775 L 416.1143 133.5775 L 420.457 123.7943 L 414.2764 123.7943 L 410.1885 133.5775 ZM 398.2236 133.5775 L 404.084 133.5775 L 400.3604 123.7943 L 394.2783 123.7943 L 398.2236 133.5775 ZM 368.9053 133.5785 L 374.6455 133.5785 L 374.6455 123.7953 L 368.9053 123.7953 L 368.9053 133.5785 ZM 385.7334 133.5785 L 391.4746 133.5785 L 391.4746 123.7953 L 385.7334 123.7953 L 385.7334 133.5785 ZM 471.6816 133.5775 L 482.918 133.5775 C 483.3838 132.726 483.6523 131.7103 483.6523 130.4828 C 483.6523 126.0648 479.9385 123.4994 474.8115 123.4994 C 470.791 123.4994 468.7959 124.5443 466.4951 125.7191 L 466.4951 130.6879 C 469.8076 128.4906 471.8301 127.7142 474.3672 127.7142 C 476.5596 127.7142 477.7451 128.4916 477.7451 129.848 C 477.7451 131.7787 474.6777 132.3617 471.6816 133.5775 ZM 423.0996 133.5775 L 435.0195 133.5775 L 430.415 123.4994 L 427.9209 123.4994 L 423.0996 133.5775 ZM 454.1807 133.5775 L 460.1084 133.5775 L 464.4512 123.7943 L 458.2656 123.7943 L 454.1807 133.5775 ZM 442.2207 133.5775 L 448.0859 133.5775 L 444.3584 123.7943 L 438.2764 123.7943 L 442.2207 133.5775 ZM 449.1377 136.3558 L 443.334 136.3558 L 447.5664 146.8392 L 454.2188 146.8392 L 458.874 136.3558 L 453.0254 136.3558 L 450.9922 141.2299 L 449.1377 136.3558 ZM 436.2793 136.3558 L 430.2695 136.3558 L 434.8789 146.8392 L 441.0576 146.8392 L 436.2793 136.3558 ZM 480.082 136.3558 L 467.4326 136.3558 C 466.5732 137.3959 466.0264 138.726 466.0264 140.5179 C 466.0264 144.5052 469.4688 147.1342 474.8115 147.1342 C 477.3779 147.1342 479.7012 146.598 482.6045 145.35 L 482.6045 140.8558 C 479.2695 142.3412 477.2744 142.9183 475.3145 142.9183 C 473.252 142.9183 471.9404 142.1732 471.9404 141.0219 C 471.9404 138.8207 476.6318 138.4017 480.082 136.3558 ZM 368.9023 146.8392 L 374.6416 146.8392 L 374.6416 136.3549 L 368.9023 136.3549 L 368.9023 146.8392 ZM 385.7334 146.8392 L 391.4746 146.8392 L 391.4746 136.3549 L 385.7334 136.3549 L 385.7334 146.8392 ZM 405.1377 136.3558 L 399.3467 136.3558 L 403.5752 146.8392 L 410.2236 146.8392 L 414.8779 136.3558 L 409.0264 136.3558 L 406.9912 141.2299 L 405.1377 136.3558 ZM 427.8662 136.3558 L 421.7744 136.3558 L 416.7686 146.8392 L 423.0234 146.8392 L 427.8662 136.3558 ZM 736.2168 137.8441 C 737.543 137.8441 738.4395 136.7338 738.4395 136.1351 C 738.4395 135.9838 738.1387 134.184 737.2119 134.184 C 736.1885 134.184 735.9473 135.5941 734.959 135.5941 C 734.2402 135.5941 733.6992 135.0824 732.5 133.3734 L 732.5 128.0922 C 732.5 125.8422 732.9209 125.2123 735.5605 125.2123 L 735.5605 124.1322 L 727.7588 124.1322 L 727.7588 125.2123 C 728.959 125.2123 729.9785 125.8119 729.9785 127.5228 L 729.9785 134.5424 L 727.7588 135.6537 L 727.7588 136.3451 L 731.752 137.9652 L 732.5 137.9652 L 732.5 134.9945 L 732.5596 134.9945 C 733.9092 137.2152 734.6592 137.8441 736.2168 137.8441 ZM 743.8691 127.432 C 743.8691 126.0531 744.1973 125.6322 745.9688 125.6322 C 746.5684 125.6322 747.5596 125.6927 748.1006 125.7816 L 748.1006 124.3119 C 746.7793 124.1029 745.4277 123.8031 744.1699 123.8031 C 742.1885 123.8031 741.3477 124.6117 741.3477 126.4408 L 741.3477 136.1351 L 739.0957 136.1351 L 739.0957 136.9447 C 740.8076 137.5443 741.918 138.8636 742.8467 140.0336 L 743.8691 140.0336 L 743.8691 137.6342 L 747.9473 137.6342 L 747.9473 136.1351 L 743.8691 136.1351 L 743.8691 127.432 ZM 762.9551 127.6127 C 762.9551 126.1117 763.375 125.3929 765.084 125.2123 L 765.084 124.1322 L 758.0039 124.1322 L 758.0039 125.2123 C 759.7461 125.2123 760.4326 126.0531 760.4326 127.6742 L 760.4326 132.6537 C 760.4326 134.5424 759.5635 135.9545 757.6133 135.9545 C 756.2334 135.9545 754.9727 135.264 753.6836 134.184 L 753.6836 127.6742 C 753.6836 126.0219 754.3418 125.2123 756.1143 125.2123 L 756.1143 124.1322 L 748.9414 124.1322 L 748.9414 125.2123 C 750.4434 125.2719 751.1611 125.9926 751.1611 127.4926 L 751.1611 134.724 L 749.1504 135.8636 L 749.1504 136.5551 L 752.9326 137.9652 L 753.6836 137.9652 L 753.6836 135.4125 L 753.7412 135.4125 C 754.9727 137.0336 756.8926 137.9652 758.5439 137.9652 C 761.3359 137.9652 762.9551 136.5551 762.9551 133.3129 L 762.9551 127.6127 ZM 767.3955 133.5238 L 773.6348 133.5238 C 773.3975 135.6537 772.3174 136.8549 770.666 136.8549 C 768.9268 136.8549 767.668 135.5638 767.3955 133.5238 ZM 771.2344 137.9652 C 775.1064 137.9652 776.7881 134.5726 776.7881 132.4437 L 767.2139 132.4437 C 767.0645 128.4242 769.6172 126.2015 772.4063 126.2015 C 773.8164 126.2015 775.0156 126.6537 776.1543 127.6429 L 776.7881 127.0736 C 775.4961 124.973 773.4863 123.8031 771.209 123.8031 C 767.5752 123.8031 764.9639 126.7113 764.9639 130.7328 C 764.9639 134.8441 767.6963 137.9652 771.2344 137.9652 ZM 722.2227 127.3734 L 722.2227 131.1224 L 720.6309 130.5228 C 718.2012 129.6234 717.0898 129.0238 717.0898 127.7621 C 717.0898 126.8334 717.6914 125.8119 719.1904 125.8119 C 720.2695 125.8119 721.2012 126.2924 722.2227 127.3734 ZM 724.7412 127.0736 C 724.7412 125.9623 725.4023 125.6322 726.4229 126.2924 L 726.6914 125.2123 C 725.8223 124.222 725.0723 123.8031 724.2617 123.8031 C 723.123 123.8031 722.3691 124.5824 722.2227 125.9623 C 720.4805 124.4027 719.252 123.8031 717.7803 123.8031 C 715.8311 123.8031 714.418 125.1517 714.418 127.0121 C 714.418 128.8724 715.6797 130.0131 719.0098 131.1527 L 722.2227 132.2631 L 722.2227 134.3041 C 722.2227 136.0746 720.4512 136.6752 719.4619 136.6752 C 718.293 136.6752 717.1504 135.9545 717.1504 135.264 C 717.1504 134.6029 718.3809 133.5834 717.6016 133.223 L 715.8311 132.3832 C 715.6484 132.2924 714.8408 133.7933 714.8408 134.4535 C 714.8408 135.8636 716.4326 137.9652 720.3604 137.9652 C 723.2139 137.9652 724.7412 137.0336 724.7412 134.7533 L 724.7412 127.0736 ZM 786.0332 137.8441 C 787.3535 137.8441 788.252 136.7338 788.252 136.1351 C 788.252 135.9838 787.9512 134.184 787.0225 134.184 C 786.002 134.184 785.7617 135.5941 784.7695 135.5941 C 784.0518 135.5941 783.5107 135.0824 782.3105 133.3734 L 782.3105 128.0922 C 782.3105 125.8422 782.7324 125.2123 785.3721 125.2123 L 785.3721 124.1322 L 777.5703 124.1322 L 777.5703 125.2123 C 778.7695 125.2123 779.7891 125.8119 779.7891 127.5228 L 779.7891 134.5424 L 777.5703 135.6537 L 777.5703 136.3451 L 781.5615 137.9652 L 782.3105 137.9652 L 782.3105 134.9945 L 782.3721 134.9945 C 783.7188 137.2152 784.4688 137.8441 786.0332 137.8441 ZM 797.5742 130.3431 C 798.2031 129.7113 798.5313 128.7523 798.5313 127.7621 C 798.5313 125.3021 796.7627 123.8031 793.9404 123.8031 C 792.4404 123.8031 790.6699 124.1918 789.5293 124.7621 L 789.5293 128.5424 L 790.5215 128.5424 C 790.8213 126.2015 791.9307 124.9135 793.7305 124.9135 C 795.3213 124.9135 796.4609 125.8119 796.4609 127.0424 C 796.4609 129.3519 792.502 129.2924 790.04 131.7533 C 789.4414 132.3539 789.1104 133.3734 789.1104 134.2435 C 789.1104 136.4349 790.9111 137.9652 793.4902 137.9652 C 795.082 137.9652 796.4316 137.5443 797.543 136.6752 L 797.543 133.4349 L 796.6113 133.4349 C 796.1611 135.8031 795.2012 136.8549 793.5527 136.8549 C 792.1406 136.8549 791.3008 136.1351 791.3008 134.8441 C 791.3008 132.5931 795.8604 132.0541 797.5742 130.3431 ZM 667.4902 125.2123 C 669.9824 125.2123 671.9922 126.7416 671.9922 128.5717 C 671.9922 129.1136 671.7813 129.8929 670.9111 130.7631 C 668.9609 132.7123 664.9395 134.0951 662.4219 136.6156 C 661.5811 137.4554 661.0703 138.4447 661.0703 139.7943 C 661.0703 142.8851 663.8916 144.9564 668.0313 144.9564 C 670.043 144.9564 672.3213 144.3549 674.3027 143.2465 L 674.3027 138.8344 L 673.0117 138.8344 C 672.8027 141.8959 670.6416 143.6654 667.8516 143.6654 C 665.7832 143.6654 664.1611 142.4359 664.1611 140.8158 C 664.1611 140.0648 664.4609 139.4349 665.1221 138.7748 C 666.7129 137.1849 671.1816 135.4125 673.4336 133.1635 C 674.5127 132.0834 675.084 130.9125 675.084 129.4437 C 675.084 126.1117 671.9639 123.7728 667.582 123.7728 C 665.3916 123.7728 662.1494 124.432 660.6504 125.2123 L 660.6504 130.3724 L 661.9404 130.3724 C 662.5391 127.2826 664.1611 125.2123 667.4902 125.2123 ZM 706.7393 134.8138 C 709.3789 134.8138 711.1191 136.4349 711.1191 138.8051 C 711.1191 140.9955 710.3096 143.306 706.1973 143.306 L 703.6787 143.306 L 703.6787 128.392 C 703.6787 126.1732 704.459 125.2719 707.1299 125.2719 L 707.1299 124.1322 L 697.4668 124.1322 L 697.4668 125.2719 C 699.9863 125.2719 700.5273 126.4408 700.5273 128.392 L 700.5273 140.725 C 700.5273 142.5248 699.5352 143.4554 697.4668 143.4554 L 697.4668 144.5951 L 707.9688 144.5951 C 711.9619 144.5951 714.75 142.4359 714.75 139.1644 C 714.75 135.6537 711.7803 133.3431 707.2793 133.3431 C 705.9287 133.3431 705.1777 133.6439 705.1777 134.2152 C 705.1777 135.0541 706.3496 134.8138 706.7393 134.8138 ZM 693.0859 140.5433 L 687.5967 132.7123 L 687.5967 128.0922 C 687.5967 126.1732 688.6445 125.2719 690.5967 125.2719 L 690.5967 124.1322 L 681.3848 124.1322 L 681.3848 125.2719 C 683.3662 125.2719 684.4443 126.1117 684.4443 128.1234 L 684.4443 132.7123 L 678.1738 141.8959 C 677.4824 142.9135 676.7031 143.3353 675.4443 143.4554 L 675.4443 144.5951 L 684.4443 144.5951 L 684.4443 143.4554 C 682.0742 143.4554 681.5645 142.3744 682.6455 140.8158 L 687.1143 134.3041 L 690.5967 139.4056 C 692.0352 141.5043 691.5557 143.3353 689.1563 143.4554 L 689.1563 144.5951 L 696.5352 144.5951 L 696.5352 143.4554 C 695.3076 143.306 694.5576 142.6449 693.0859 140.5433 ZM 554.1416 120.8607 C 554.3809 121.7142 554.6289 123.5004 553.6172 123.5043 C 553.6152 122.307 550.1455 112.849 552.5732 112.849 L 552.5732 113.2738 C 553.5527 113.2738 554.0723 120.6224 554.1416 120.8607 ZM 553.0957 133.391 C 553.0918 133.9506 551.7637 132.8197 551.5654 132.7552 C 550.9248 132.5511 550.1348 132.3177 550.1328 131.2601 C 550.6445 131.2601 552.1211 131.4935 552.9229 131.9906 C 553.4727 132.3314 553.7041 132.7953 553.0957 133.391 ZM 535.5068 145.0697 C 535.5098 145.8744 534.7275 145.7582 534.7236 145.3246 C 532.3672 143.9935 530.4502 139.7347 529.9961 137.0629 C 529.6855 135.2357 532.3057 130.2377 533.6787 130.2377 C 533.6816 129.5092 537.6855 129.517 537.6855 130.2377 C 539.0449 130.2347 541.2061 134.3871 541.4287 135.6937 C 541.3984 135.6937 538.0723 139.8773 537.9463 140.3812 C 537.8203 140.8861 536.0732 145.0677 535.5068 145.0697 ZM 580.4336 153.934 L 580.4336 153.6791 C 581.5166 153.6761 580.7539 146.0892 581.5654 146.0922 C 581.5654 144.7025 584.0254 138.2152 584.5254 137.226 C 585.5332 135.2318 589.5635 130.2601 589.5752 135.9486 C 588.7832 135.9457 589.3809 137.8246 590.6191 137.8246 C 590.6191 138.3412 594.1006 138.6205 594.1016 137.226 C 595.0547 137.226 596.8174 133.0502 598.2813 133.0502 C 598.2813 134.1234 598.6611 139.3558 599.9355 139.3588 C 599.9355 140.309 605.1875 140.1263 605.7695 140.1263 C 605.7646 137.8373 603.0703 138.7279 603.0703 135.9486 C 602.9414 135.9486 601.3604 128.39 599.6738 129.2142 C 599.3984 128.4066 594.8643 128.5824 595.4072 129.4691 C 594.7783 129.224 592.8965 132.9183 591.9248 132.5394 C 592.0547 132.0297 588.9639 130.0013 588.9639 129.9818 L 586.3516 129.9818 C 586.2793 129.9818 582.5215 132.2064 582.3486 133.1351 C 582.2334 133.7582 579.5488 137.5677 579.127 137.5687 C 579.123 138.9642 577.3496 139.7728 577.8213 138.8461 C 577.3359 138.8441 574.1904 133.7064 573.9023 133.1351 C 573.2578 131.8539 568.9814 129.0853 567.7217 128.1927 C 566.8076 127.5424 563.1563 127.8236 562.9336 128.1927 C 562.5557 128.8177 561.8613 129.4105 561.3652 130.2377 C 560.9287 130.9642 560.502 132.1166 559.4844 132.056 C 558.3359 131.9896 557.3721 131.4847 557.6221 129.9818 C 557.6221 126.6888 558.1807 123.9965 557.8848 120.6068 C 557.8584 120.3138 557.5859 116.8588 557.3613 116.1752 C 557.29 115.9535 555.1523 110.3295 554.749 109.4408 C 553.8379 107.4388 549.874 105.9017 549.874 108.4164 C 548.3779 108.4095 548.915 119.9613 549.874 120.6068 C 550.5283 121.0453 553.4766 129.2113 552.5732 129.2142 C 552.5703 129.7806 546.9863 126.933 546.4785 128.1927 C 545.9531 129.4877 548.0938 131.1117 546.7129 132.2289 C 545.8965 132.8881 544.5439 133.6469 544.04 133.6469 C 544.041 132.6478 540.46 128.7006 539.252 128.7035 C 539.457 127.683 532.377 126.3744 532.374 127.0824 C 529.0859 127.2601 527.5166 129.5453 526.4531 132.2836 C 524.0859 138.3871 528.8828 145.2728 533.9414 147.4554 C 535.1318 147.4525 533.043 152.3998 536.3789 152.3998 C 536.9668 152.8549 540.3281 150.9047 541.127 150.1332 C 541.8115 149.4701 543.9893 145.0199 544.3457 144.1361 C 544.834 142.9418 545.084 138.4486 545.084 137.5687 C 546.4336 136.9076 547.4824 134.7025 549.4385 135.1801 C 549.2559 136.0736 553.1299 138.7621 553.8779 137.5687 C 554.3398 136.8344 554.79 137.0883 554.9238 136.7152 C 555.3008 135.6459 556.8262 136.8344 557.6221 134.9261 C 557.6191 132.8041 557.665 133.9037 558.668 133.9037 C 558.6641 134.8236 563.1855 135.4955 563.7168 135.4379 C 564.1299 134.8295 565.7832 132.0375 565.8076 131.7728 C 566.0576 129.0121 569.8916 131.7943 570.4209 132.8793 C 571.2061 134.4984 575.9912 140.4252 575.9932 142.2562 C 577.2939 142.2523 576.5947 149.5004 575.9932 149.5023 C 575.9932 150.5189 575.7852 153.4232 577.3848 153.4232 C 578.2734 153.4232 579.0059 154.1342 580.4336 153.934 ZM 611.8633 138.2494 C 612.165 138.0551 612.165 138.2435 612.3848 138.0795 C 612.7891 137.7826 615.2207 134.0648 615.6045 134.1595 C 615.6035 133.14 616.5615 134.64 616.6504 134.6693 C 616.6465 137.0345 621.6982 138.139 621.6992 136.5453 C 622.5078 135.7543 620.6563 131.2084 620.6563 129.726 C 620.3984 129.726 617.8457 116.6283 617.4336 115.4066 C 617.2979 115.0004 615.4385 107.0023 615.3457 106.5414 C 614.873 104.2006 611.0303 88.9261 609.7744 89.6635 C 609.7744 88.0521 604.6436 86.4594 604.1143 88.0404 C 603.168 88.0404 601.502 91.8119 601.502 92.7308 C 600.8184 92.7308 600.5215 99.2094 600.1982 99.2094 C 600.1904 101.2152 604.4854 102.3842 604.1143 100.5756 C 603.3574 100.5687 605.1348 94.5209 605.5068 94.5209 C 605.1504 93.474 607.0684 91.7484 607.0752 92.7308 C 608.4502 92.7269 611.0859 105.7152 611.6016 107.5648 C 611.7412 108.0677 612.915 114.6654 613.2559 115.1498 C 613.749 115.8568 614.9639 126.5717 615.3457 126.5726 C 615.3457 127.7162 615.6045 127.9828 615.6045 129.1283 C 616.4961 129.4183 615.3408 131.0658 615.3457 130.2377 L 612.9951 130.2377 C 612.9932 130.681 609.0352 134.7865 608.2061 135.1801 C 607.8027 135.3715 607.2627 136.765 608.7285 137.226 C 609.4775 137.4642 611.4043 138.5463 611.8633 138.2494 ZM 563.7168 156.5765 C 565.9199 156.0863 563.6602 153.6771 563.543 153.4232 C 563.1152 152.4896 560.9043 151.2445 560.0605 153.4232 C 559.7393 154.2513 559.9326 155.2953 560.582 155.808 C 561.002 156.14 562.793 156.7826 563.7168 156.5765 ZM 860.5049 153.099 C 863.8145 152.4623 865.6992 150.3207 867.0605 148.1361 L 869.8984 149.9496 C 867.3779 154.1976 863.6875 156.4076 858.916 156.5238 L 860.5049 153.099 ZM 848.6465 152.1693 L 850.3809 147.8871 C 851.2158 150.3793 853.3027 152.2933 856.1123 153.0052 L 857.7344 156.5062 C 854.0596 156.3099 850.7305 154.7269 848.6465 152.1693 ZM 851.5068 145.1058 L 851.9463 144.0209 L 855.2246 151.0902 C 852.9424 150.0433 851.498 147.9125 851.498 145.3988 L 851.5068 145.1058 ZM 861.3359 151.3119 L 864.7363 143.9779 L 865.9639 147.0199 C 864.5625 149.3461 863.1465 150.6732 861.3359 151.3119 ZM 857.0771 139.4427 C 857.4805 139.2533 857.877 139.0756 858.2559 138.9056 L 860.2344 138.0385 L 858.3398 142.2875 L 857.0771 139.4427 ZM 865.6113 142.0902 L 867.8926 137.1742 L 875.9336 156.6176 L 871.4707 156.6176 L 869.873 152.6586 C 870.4961 151.8744 871.0654 151.0072 871.5801 150.0599 L 871.918 149.4388 L 867.4141 146.5609 L 865.6113 142.0902 ZM 862.3047 137.1263 C 864.1846 136.2748 866.0176 135.3353 867.6143 134.1674 L 858.3291 154.181 L 852.7891 142.2308 C 853.5625 141.3929 854.6152 140.7045 855.7168 140.1176 L 858.3359 146.0228 L 862.3047 137.1263 ZM 852.2139 128.972 L 856.4023 128.972 L 845.207 156.6176 L 840.7422 156.6176 L 852.2139 128.972 ZM 858.041 128.972 L 858.6875 128.972 L 859.6006 131.2357 L 858.3633 131.8041 L 858.1396 131.9056 L 856.5791 132.5814 L 858.041 128.972 ZM 860.3223 128.972 L 863.54 128.972 C 862.79 129.5687 861.918 130.0834 860.9688 130.5707 L 860.3223 128.972 ZM 863.4053 122.3588 L 860.7031 115.8285 C 863.5791 116.9076 865.7051 119.3832 866.1289 122.3588 L 863.4053 122.3588 ZM 849.2344 121.9008 C 850.1953 118.3461 852.9023 115.8461 856.2266 115.3412 L 853.3145 122.3588 L 849.4414 122.3588 L 849.2344 121.9008 ZM 854.957 122.3588 L 857.9043 115.2572 C 858.2285 115.2719 858.5488 115.3041 858.8643 115.3519 L 861.7637 122.3588 L 854.957 122.3588 ZM 838.0977 110.5433 L 842.4307 110.5433 L 848.4629 123.8754 L 866.1963 123.8754 C 866.1279 125.3383 865.6992 126.4945 865.0127 127.4535 L 850.1084 127.4535 L 850.6719 128.7279 L 848.7139 133.4467 L 838.0977 110.5433 ZM 874.2422 110.5433 L 878.5762 110.5433 L 872.8359 122.9203 C 872.6992 120.851 872.1523 118.9095 871.2725 117.1693 L 874.2422 110.5433 ZM 846.5117 115.8802 C 849.0625 112.4017 852.9785 110.4926 857.5967 110.4926 C 865.3086 110.4926 871.3496 116.3988 871.3496 123.9379 C 871.3496 130.9457 866.3232 133.723 860.7236 136.1683 L 857.6611 137.5092 C 856.4316 138.0609 855.04 138.6849 853.7822 139.4867 L 855.7656 134.5902 L 855.9443 134.5111 L 858.9912 133.1849 C 863.2832 131.2328 867.7236 129.2123 867.7236 123.4506 C 867.7236 118.0902 863.1279 113.7308 857.4766 113.7308 C 853.4414 113.7308 849.9639 116.142 848.3291 119.9008 L 846.5117 115.8802 ZM 857.5967 108.976 C 852.8545 108.976 848.6328 110.9066 845.8057 114.3207 L 843.4092 109.0258 L 835.7207 109.0258 L 847.9238 135.351 L 838.4688 158.1361 L 846.2305 158.1361 L 848.0088 153.7435 C 850.5508 156.4584 854.3838 158.0453 858.5166 158.0453 C 862.5957 158.0453 866.0654 156.6371 868.75 153.9281 L 870.4453 158.1361 L 878.2031 158.1361 L 868.7607 135.3041 L 870.6777 131.1703 C 871.4814 130.0599 872.1035 128.7865 872.4756 127.3002 L 880.9531 109.0258 L 873.2588 109.0258 L 870.3271 115.5658 C 867.6143 111.5638 862.9707 108.976 857.5967 108.976 Z" fill="#221e1f"/>		</g>	</g></svg>