<?xml version="1.0" standalone="no"?><!-- Generator: Adobe Fireworks CS6, Export SVG Extension by Aaron Beall (http://fireworks.abeall.com) . Version: 0.6.1  --><!DOCTYPE svg PUBLIC "-//W3C//DTD SVG 1.1//EN" "http://www.w3.org/Graphics/SVG/1.1/DTD/svg11.dtd"><svg id="Untitled-Page%201" viewBox="0 0 400 450" style="background-color:#ffffff00" version="1.1"	xmlns="http://www.w3.org/2000/svg" xmlns:xlink="http://www.w3.org/1999/xlink" xml:space="preserve"	x="0px" y="0px" width="400px" height="450px">	<g id="Layer%201">		<g id="eye">			<path d="M 206.1083 0.2428 C 312.7124 0.2428 364.1563 103.72 364.1563 103.72 L 364.282 103.2165 L 364.282 137.7241 C 364.282 137.7241 313.3348 59.7542 200.6315 59.7542 L 200.5599 59.9338 C 87.8571 59.9338 37.1709 138.0112 37.1709 138.0112 L 37.1709 103.4858 C 37.1709 103.4858 88.6237 0 195.2367 0 L 206.1083 0.2428 L 206.1083 0.2428 Z" fill="#ffffff"/>			<path d="M 368 224.5496 C 368 224.5496 325.3531 337 199.9561 337 L 199.0447 336.9281 C 73.6469 336.9281 31 224.5048 31 224.5048 L 31 224.1181 C 31 224.1181 73.6469 111.6769 199.0439 111.6769 L 199.9553 111.731 C 325.3524 111.731 367.9994 224.1814 367.9994 224.1814 L 367.9994 224.5496 L 368 224.5496 Z" fill="#ffffff"/>			<path d="M 202.1477 320.3035 C 254.0966 320.3035 296.202 278.3517 296.202 226.5729 C 296.202 174.8296 254.0962 132.8508 202.1477 132.8508 C 150.1992 132.8508 108.0842 174.8302 108.0842 226.5729 C 108.0842 278.3517 150.1986 320.3035 202.1477 320.3035 " fill="#4c83c3"/>			<path d="M 202.1477 266.7443 C 224.4045 266.7443 242.4315 248.7623 242.4315 226.5723 C 242.4315 204.4185 224.4052 186.4365 202.1477 186.4365 C 179.8904 186.4365 161.8549 204.4185 161.8549 226.5723 C 161.8555 248.7623 179.8904 266.7443 202.1477 266.7443 " fill="#231f20"/>			<path d="M 206.1083 0.2428 C 312.7124 0.2428 364.1563 103.72 364.1563 103.72 L 364.282 103.2165 L 364.282 137.7241 C 364.282 137.7241 313.3348 59.7542 200.6315 59.7542 L 200.5599 59.9338 C 87.8571 59.9338 37.1709 138.0112 37.1709 138.0112 L 37.1709 103.4858 C 37.1709 103.4858 88.6237 0 195.2367 0 L 206.1083 0.2428 L 206.1083 0.2428 Z" fill="#ffffff"/>			<path d="M 368 224.5496 C 368 224.5496 325.3531 337 199.9561 337 L 199.0447 336.9281 C 73.6469 336.9281 31 224.5048 31 224.5048 L 31 224.1181 C 31 224.1181 73.6469 111.6769 199.0439 111.6769 L 199.9553 111.731 C 325.3524 111.731 367.9994 224.1814 367.9994 224.1814 L 367.9994 224.5496 L 368 224.5496 Z" fill="#ffffff"/>			<path d="M 202.1477 320.3035 C 254.0966 320.3035 296.202 278.3517 296.202 226.5729 C 296.202 174.8296 254.0962 132.8508 202.1477 132.8508 C 150.1992 132.8508 108.0842 174.8302 108.0842 226.5729 C 108.0842 278.3517 150.1986 320.3035 202.1477 320.3035 " fill="#4c83c3"/>			<path d="M 202.1477 266.7443 C 224.4045 266.7443 242.4315 248.7623 242.4315 226.5723 C 242.4315 204.4185 224.4052 186.4365 202.1477 186.4365 C 179.8904 186.4365 161.8549 204.4185 161.8549 226.5723 C 161.8555 248.7623 179.8904 266.7443 202.1477 266.7443 " fill="#231f20"/>			<path d="M 206.1083 0.2428 C 312.7124 0.2428 364.1563 103.72 364.1563 103.72 L 364.282 103.2165 L 364.282 137.7241 C 364.282 137.7241 313.3348 59.7542 200.6315 59.7542 L 200.5599 59.9338 C 87.8571 59.9338 37.1709 138.0112 37.1709 138.0112 L 37.1709 103.4858 C 37.1709 103.4858 88.6237 0 195.2367 0 L 206.1083 0.2428 L 206.1083 0.2428 Z" fill="#ffffff"/>			<path d="M 368 224.5496 C 368 224.5496 325.3531 337 199.9561 337 L 199.0447 336.9281 C 73.6469 336.9281 31 224.5048 31 224.5048 L 31 224.1181 C 31 224.1181 73.6469 111.6769 199.0439 111.6769 L 199.9553 111.731 C 325.3524 111.731 367.9994 224.1814 367.9994 224.1814 L 367.9994 224.5496 L 368 224.5496 Z" fill="#ffffff"/>			<path d="M 202.1477 320.3035 C 254.0966 320.3035 296.202 278.3517 296.202 226.5729 C 296.202 174.8296 254.0962 132.8508 202.1477 132.8508 C 150.1992 132.8508 108.0842 174.8302 108.0842 226.5729 C 108.0842 278.3517 150.1986 320.3035 202.1477 320.3035 " fill="#4c83c3"/>			<path d="M 202.1477 266.7443 C 224.4045 266.7443 242.4315 248.7623 242.4315 226.5723 C 242.4315 204.4185 224.4052 186.4365 202.1477 186.4365 C 179.8904 186.4365 161.8549 204.4185 161.8549 226.5723 C 161.8555 248.7623 179.8904 266.7443 202.1477 266.7443 " fill="#231f20"/>		</g>	</g></svg>