<?xml version="1.0" standalone="no"?><!-- Generator: Adobe Fireworks CS6, Export SVG Extension by Aaron Beall (http://fireworks.abeall.com) . Version: 0.6.1  --><!DOCTYPE svg PUBLIC "-//W3C//DTD SVG 1.1//EN" "http://www.w3.org/Graphics/SVG/1.1/DTD/svg11.dtd"><svg id="v17e-Primer-assets.fw-Page%203" viewBox="0 0 450 260" style="background-color:#ffffff00" version="1.1"	xmlns="http://www.w3.org/2000/svg" xmlns:xlink="http://www.w3.org/1999/xlink" xml:space="preserve"	x="0px" y="0px" width="450px" height="260px">	<g id="Layer%201">		<g>			<g>				<path d="M 235.5176 253.082 C 235.1934 252.7041 234.6758 252.4775 234.2188 252.4082 L 222.8906 250.6729 C 221.0098 250.3848 219.1895 249.5625 217.6777 248.1865 C 216.1641 246.8105 215.1738 245.0781 214.709 243.2334 L 206.582 211 L 132.75 211 L 124.625 243.2334 C 124.1602 245.0781 123.168 246.8105 121.6563 248.1865 C 120.1426 249.5625 118.3223 250.3848 116.4414 250.6729 L 105.1133 252.4082 C 104.6563 252.4775 103.8066 252.7041 103.4824 253.082 C 103.1582 253.46 103 253.9238 103 254.3848 L 103 258 L 236 258 L 236 254.7178 C 236 254.2568 235.8418 253.46 235.5176 253.082 Z" fill="#191919"/>				<path d="M 19.666 217 C 17.1074 217 14.8809 216.0234 12.9297 214.0713 C 10.9766 212.1182 10 209.5596 10 207 L 10 17 C 10 14.4404 10.9766 11.8818 12.9297 9.9287 C 14.8809 7.9766 17.1074 7 19.666 7 L 319.666 7 C 322.2246 7 325.1191 7.9766 327.0723 9.9287 C 329.0234 11.8818 330 14.4404 330 17 L 330 207 C 330 209.5596 329.0234 212.1182 327.0723 214.0713 C 325.1191 216.0234 322.2246 217 319.666 217 L 19.666 217 Z" fill="#333333"/>			</g>			<path d="M 312 199 L 28 199 L 28 25 L 312 25 L 312 199 Z" stroke="#ffffff" stroke-width="1" fill="#82d1f5"/>		</g>		<g>			<path d="M 399 257.75 C 397.7207 257.75 396.4404 257.2617 395.4648 256.2852 C 394.4883 255.3096 394 254.0293 394 252.75 L 394 172.75 C 394 171.4707 394.4883 170.1904 395.4648 169.2148 C 396.4404 168.2383 397.7207 167.75 399 167.75 L 435 167.75 C 436.2793 167.75 437.5596 168.2383 438.5352 169.2148 C 439.5117 170.1904 440 171.4707 440 172.75 L 440 252.75 C 440 254.0293 439.5117 255.3096 438.5352 256.2852 C 437.5596 257.2617 436.2793 257.75 435 257.75 L 399 257.75 Z" stroke="#ffffff33" stroke-width="2" fill="#333333"/>			<path d="M 435 245 L 399 245 L 399 181 L 435 181 L 435 245 Z" stroke="#ffffff" stroke-width="1" fill="#82d1f5"/>			<path opacity="0.2" d="M 419.7773 250.667 C 419.7773 252.3223 418.4326 253.667 416.7773 253.667 C 415.1221 253.667 413.7773 252.3223 413.7773 250.667 C 413.7773 249.0117 415.1221 247.667 416.7773 247.667 C 418.4326 247.667 419.7773 249.0117 419.7773 250.667 Z" fill="#ffffff"/>		</g>		<g>			<path d="M 381 249.5 C 381 251.5469 380.2188 253.8447 378.6563 255.4063 C 377.0947 256.9688 375.0469 258 373 258 L 283 258 C 280.9531 258 278.9053 256.9688 277.3438 255.4063 C 275.7813 253.8447 275 251.5469 275 249.5 L 275 109.5 C 275 107.4531 275.7813 105.6553 277.3438 104.0938 C 278.9053 102.5313 280.9531 102 283 102 L 373 102 C 375.0469 102 377.0947 102.5313 378.6563 104.0938 C 380.2188 105.6553 381 107.4531 381 109.5 L 381 249.5 Z" stroke="#ffffff33" stroke-width="2" fill="#333333"/>			<path opacity="0.2" d="M 331.7773 248.667 C 331.7773 250.875 329.9854 252.667 327.7773 252.667 C 325.5684 252.667 323.7773 250.875 323.7773 248.667 C 323.7773 246.459 325.5684 244.667 327.7773 244.667 C 329.9854 244.667 331.7773 246.459 331.7773 248.667 Z" fill="#ffffff"/>			<path d="M 373 240 L 283 240 L 283 120 L 373 120 L 373 240 Z" stroke="#ffffff" stroke-width="1" fill="#82d1f5"/>		</g>	</g></svg>