<?xml version="1.0" standalone="no"?><!-- Generator: Adobe Fireworks CS6, Export SVG Extension by Aaron Beall (http://fireworks.abeall.com) . Version: 0.6.1  --><!DOCTYPE svg PUBLIC "-//W3C//DTD SVG 1.1//EN" "http://www.w3.org/Graphics/SVG/1.1/DTD/svg11.dtd"><svg id="v17e-Primer-assets.fw-fpo%20left" viewBox="0 0 450 380" style="background-color:#ffffff00" version="1.1"	xmlns="http://www.w3.org/2000/svg" xmlns:xlink="http://www.w3.org/1999/xlink" xml:space="preserve"	x="0px" y="0px" width="450px" height="380px">	<g id="Layer%201">		<path d="M 450 335 L 0 335 L 0 35 L 450 35 L 450 335 Z" fill="none"/>		<path d="M 450 305 L 0 305 L 0 35 L 450 35 L 450 305 Z" fill="#cfd1d2"/>		<g>			<path d="M 311 326 C 308.4414 326 305.8809 325.0234 303.9297 323.0703 C 301.9766 321.1191 301 318.0586 301 315.5 L 301 155.5 C 301 152.9414 301.9766 150.8809 303.9297 148.9297 C 305.8809 146.9766 308.4414 146 311 146 L 383 146 C 385.5586 146 388.1191 146.9766 390.0703 148.9297 C 392.0234 150.8809 393 152.9414 393 155.5 L 393 315.5 C 393 318.0586 392.0234 321.1191 390.0703 323.0703 C 388.1191 325.0234 385.5586 326 383 326 L 311 326 Z" fill="#221e1f"/>			<path d="M 383 300 L 311 300 L 311 172 L 383 172 L 383 300 Z" fill="#ffffff"/>			<path opacity="0.2" d="M 354 312 C 354 315.8623 350.8623 319 347 319 C 343.1377 319 340 315.8623 340 312 C 340 308.1377 343.1377 305 347 305 C 350.8623 305 354 308.1377 354 312 Z" fill="#ffffff"/>		</g>		<g>			<path d="M 269 319 C 269 323.0938 267.4375 327.6895 264.3125 330.8125 C 261.1895 333.9375 257.0938 336 253 336 L 73 336 C 68.9063 336 64.8105 333.9375 61.6875 330.8125 C 58.5625 327.6895 57 323.0938 57 319 L 57 39 C 57 34.9063 58.5625 31.3105 61.6875 28.1875 C 64.8105 25.0625 68.9063 24 73 24 L 253 24 C 257.0938 24 261.1895 25.0625 264.3125 28.1875 C 267.4375 31.3105 269 34.9063 269 39 L 269 319 Z" fill="#221e1f"/>			<path opacity="0.2" d="M 170.5547 317.334 C 170.5547 321.75 166.9707 325.334 162.5547 325.334 C 158.1367 325.334 154.5547 321.75 154.5547 317.334 C 154.5547 312.918 158.1367 309.334 162.5547 309.334 C 166.9707 309.334 170.5547 312.918 170.5547 317.334 Z" fill="#ffffff"/>			<path d="M 253 300 L 73 300 L 73 60 L 253 60 L 253 300 Z" fill="#ffffff"/>		</g>	</g></svg>