<?xml version="1.0" standalone="no"?><!-- Generator: Adobe Fireworks CS6, Export SVG Extension by Aaron Beall (http://fireworks.abeall.com) . Version: 0.6.1  --><!DOCTYPE svg PUBLIC "-//W3C//DTD SVG 1.1//EN" "http://www.w3.org/Graphics/SVG/1.1/DTD/svg11.dtd"><svg id="v17e-Primer-assets.fw-200" viewBox="0 0 300 200" style="background-color:#ffffff00" version="1.1"	xmlns="http://www.w3.org/2000/svg" xmlns:xlink="http://www.w3.org/1999/xlink" xml:space="preserve"	x="0px" y="0px" width="300px" height="200px">	<g id="bg">		<rect x="0" y="0" width="300" height="200" fill="#ffffff"/>	</g>	<g id="Layer%202">		<g>			<path d="M 31.1562 69.2136 L 31.1562 75.9327 L 14.6869 75.9327 L 29.8963 62.2292 C 37.135 56.3942 42.8947 51.1781 42.8947 41.8951 C 42.8947 30.3582 33.6251 21.0023 21.7187 21.0023 C 8.6616 21.0023 -0.0275 30.8081 0.0625 43.4865 L 10.9375 43.4865 C 10.6849 37.7398 14.841 32.8773 21.0681 32.8773 C 26.4587 32.8773 31.1052 36.6789 31.1052 41.9835 C 31.1052 47.0228 26.6446 50.6476 23.1128 53.9188 L 0.3154 75.9327 L 0.3154 85.8077 L 41.8437 85.8077 L 41.8437 69.2136 L 31.1562 69.2136 L 31.1562 69.2136 Z" fill="#000000"/>			<path d="M 92.7347 49.0673 L 98.1345 49.0673 L 98.1345 39.2923 L 76.2654 39.2923 L 76.2654 47.1674 L 80.3152 47.1674 L 72.7502 55.3462 L 65.1371 47.1674 L 69.1375 47.1674 L 69.1375 39.2923 L 47.2625 39.2923 L 47.2625 49.0673 L 52.5982 49.0673 L 64.8703 62.1913 L 52.0279 75.9327 L 46.3562 75.9327 L 46.3562 85.9377 L 69.0437 85.9377 L 69.0437 77.0627 L 65.2619 77.0627 L 72.7502 68.7102 L 80.1373 77.0627 L 76.3562 77.0627 L 76.3562 85.9377 L 99.0437 85.9377 L 99.0437 75.9327 L 93.4613 75.9327 L 80.5875 62.167 L 92.7347 49.0673 L 92.7347 49.0673 Z" fill="#000000"/>		</g>		<g>			<path d="M 0.2143 99 L 0.2143 101.7362 L 2.0625 101.7362 L 2.0625 114.2638 L 0.2143 114.2638 L 0.2143 117 L 6.8228 117 L 6.8228 114.2638 L 4.9375 114.2638 L 4.9375 110.8681 L 7.3062 110.8681 C 9.0464 110.8681 10.3982 110.5789 11.4892 109.3998 C 12.4333 108.4209 12.9375 106.7974 12.9375 105.0459 C 12.9375 102.7543 12.3494 101.0081 11.0906 100.0373 C 9.9649 99.1768 8.2005 99 6.6536 99 L 0.2143 99 L 0.2143 99 ZM 4.9375 108.1319 L 4.9375 101.7362 L 6.7503 101.7362 C 7.5479 101.7362 8.273 101.766 8.9739 102.3764 C 9.6507 102.9287 10.0625 103.888 10.0625 104.9053 C 10.0625 105.8646 9.7473 106.7948 9.1189 107.4342 C 8.4663 108.1028 7.7171 108.1319 6.8953 108.1319 L 4.9375 108.1319 L 4.9375 108.1319 Z" fill="#999999"/>			<path d="M 22.7562 113.1007 C 22.0576 113.9003 20.9865 114.2638 19.7524 114.2638 C 17.9828 114.2638 16.3994 113.2824 16.0268 111.9375 L 26.0859 111.9375 L 26.1775 111.0799 C 26.1775 109.4025 25.6668 107.6075 24.4327 106.1589 C 23.2219 104.8286 21.4988 104 19.7757 104 C 16.0734 104 13.3025 107.2115 13.3025 111.06 C 13.3025 113.9912 16.2131 117 19.8456 117 C 22.4302 117 24.7354 115.2354 25.7134 113.1007 L 22.7562 113.1007 L 22.7562 113.1007 ZM 16.0036 110.0625 C 16.3528 108.2146 17.9595 106.7362 19.636 106.7362 C 21.4755 106.7362 23.0589 108.0299 23.5479 110.0625 L 16.0036 110.0625 L 16.0036 110.0625 Z" fill="#999999"/>			<path d="M 32.2047 104 L 27.8864 104 L 27.8864 106.7362 L 29.5425 106.7362 L 29.5425 114.2638 L 27.8864 114.2638 L 27.8864 117 L 34.0737 117 L 34.0737 114.2638 L 32.4175 114.2638 L 32.4175 110.9431 C 32.4175 109.6371 32.5615 108.5617 33.5216 107.7114 C 34.2417 107.0361 35.1057 106.786 36.0418 106.7362 L 36.0418 104 C 34.3857 104.0649 32.9456 104.7437 32.2047 106.1231 L 32.2047 104 L 32.2047 104 Z" fill="#999999"/>			<path d="M 42.6575 106.7362 L 44.3377 106.7362 L 44.3377 104 L 42.6575 104 C 42.5861 102.5858 43.2096 101.7422 44.6977 101.767 L 44.6977 99.0625 C 41.5023 99.0625 39.7585 100.6754 39.7825 104 L 38.1264 104 L 38.1264 106.7362 L 39.7825 106.7362 L 39.7825 114.2638 L 38.1264 114.2638 L 38.1264 117 L 44.3377 117 L 44.3377 114.2638 L 42.6575 114.2638 L 42.6575 106.7362 L 42.6575 106.7362 Z" fill="#999999"/>			<path d="M 52.9346 117 C 56.921 117 59.8975 114.0779 59.8975 110.4525 C 59.8975 106.9202 56.921 104 53.0108 104 C 49.0753 104 46.0225 106.8505 46.0225 110.4758 C 46.0225 114.0546 48.9737 117 52.9346 117 L 52.9346 117 ZM 52.9346 114.2638 C 50.6241 114.2638 48.8975 112.4976 48.8975 110.4525 C 48.8975 108.3843 50.7764 106.7362 53.0108 106.7362 C 55.2706 106.7362 57.0225 108.5005 57.0225 110.5223 C 57.0225 112.5905 55.1944 114.2638 52.9346 114.2638 L 52.9346 114.2638 Z" fill="#999999"/>			<path d="M 64.9247 104 L 60.6064 104 L 60.6064 106.7362 L 62.2625 106.7362 L 62.2625 114.2638 L 60.6064 114.2638 L 60.6064 117 L 66.7937 117 L 66.7937 114.2638 L 65.1375 114.2638 L 65.1375 110.9431 C 65.1375 109.6371 65.2815 108.5617 66.2416 107.7114 C 66.9617 107.0361 67.8257 106.786 68.7618 106.7362 L 68.7618 104 C 67.1057 104.0649 65.6656 104.7437 64.9247 106.1231 L 64.9247 104 L 64.9247 104 Z" fill="#999999"/>			<path d="M 72.5025 114.2638 L 70.8464 114.2638 L 70.8464 117 L 77 117 L 77 114.2638 L 75.3775 114.2638 L 75.3775 110.2052 C 75.3775 109.3099 75.4245 108.4682 76.0594 107.6747 C 76.5767 107.0254 77.2586 106.7362 78.0581 106.7362 C 78.9046 106.7362 79.7276 107.1456 80.1273 107.9151 C 80.5025 108.5885 80.5025 109.5504 80.5025 110.3199 L 80.5025 114.2638 L 78.8811 114.2638 L 78.8811 117 L 85 117 L 85 114.2638 L 83.3775 114.2638 L 83.3775 110.1275 C 83.3775 109.1897 83.3775 108.4682 83.9654 107.6987 C 84.4592 107.0735 85.3056 106.7362 86.0816 106.7362 C 86.8811 106.7362 87.657 107.0975 88.1273 107.7949 C 88.5025 108.5404 88.5025 109.2859 88.5025 110.1275 L 88.5025 114.2638 L 86.8811 114.2638 L 86.8811 117 L 93.0337 117 L 93.0337 114.2638 L 91.3775 114.2638 L 91.3775 109.4061 C 91.3775 107.9392 91.3775 106.6678 90.3873 105.5508 C 89.4684 104.5478 88.1273 104 86.7635 104 C 85.0235 104 83.3297 105.0037 82.6464 106.5539 C 81.9396 105.0265 80.48 104 78.74 104 C 77.1411 104 75.9183 104.8441 75.1176 106.1207 L 75.1176 104 L 70.8464 104 L 70.8464 106.7362 L 72.5025 106.7362 L 72.5025 114.2638 L 72.5025 114.2638 Z" fill="#999999"/>			<path d="M 104.6937 117 L 109.2257 117 L 109.2257 114.2638 L 107.6175 114.2638 L 107.6175 106.7362 L 109.2257 106.7362 L 109.2257 104 L 104.6937 104 L 104.6937 106.1002 C 103.7599 104.7081 102.2456 103.94 100.5042 103.94 C 96.5712 103.94 93.7425 107.0264 93.7425 110.5694 C 93.7425 114.0209 96.5027 117.06 100.3528 117.06 C 102.1194 117.06 103.7094 116.4119 104.6937 114.9958 L 104.6937 117 L 104.6937 117 ZM 100.6304 114.2038 C 98.4599 114.2038 96.6175 112.558 96.6175 110.5694 C 96.6175 108.5122 98.3842 106.7962 100.6808 106.7962 C 102.9018 106.7962 104.7425 108.4208 104.7425 110.4322 C 104.7425 112.5123 102.9523 114.2038 100.6304 114.2038 L 100.6304 114.2038 Z" fill="#999999"/>			<path d="M 111.9825 114.2638 L 110.3264 114.2638 L 110.3264 117 L 116.6558 117 L 116.6558 114.2638 L 114.8575 114.2638 L 114.8575 110.4512 C 114.8575 109.6561 114.8575 108.5463 115.4569 107.8226 C 116.0303 107.0989 117.0207 106.7362 117.985 106.7362 C 118.9232 106.7362 119.8614 107.0748 120.4348 107.7744 C 120.9825 108.474 120.9825 109.2942 120.9825 110.0903 L 120.9825 114.2638 L 119.1838 114.2638 L 119.1838 117 L 125.5137 117 L 125.5137 114.2638 L 123.8575 114.2638 L 123.8575 109.2218 C 123.8575 107.7502 123.8332 106.6223 122.7966 105.5052 C 121.8778 104.5478 120.4869 104 118.9753 104 C 117.2552 104 115.6915 104.6617 114.8575 106.0067 L 114.8575 104 L 110.3264 104 L 110.3264 106.7362 L 111.9825 106.7362 L 111.9825 114.2638 L 111.9825 114.2638 Z" fill="#999999"/>			<path d="M 135.0518 112.4312 C 134.4983 113.5951 133.223 114.2638 131.9717 114.2638 C 129.8301 114.2638 128.0975 112.5302 128.0975 110.2766 C 128.0975 108.4387 129.7097 106.7362 131.8995 106.7362 C 132.5492 106.7362 133.1748 106.9009 133.7283 107.2038 C 134.2577 107.2027 134.7389 107.5947 135.0999 108.0737 L 138.0038 108.0737 L 138.0038 104.1987 L 135.3163 104.1987 L 135.3163 105.5151 C 134.3539 104.5427 133.0786 104 131.6348 104 C 127.979 104 125.2225 107.064 125.2225 110.5124 C 125.2225 114.1473 128.2178 117 131.9476 117 C 134.763 117 137.6704 115.1535 138.4838 112.5396 L 135.0518 112.4312 L 135.0518 112.4312 Z" fill="#999999"/>			<path d="M 148.9162 113.1007 C 148.2176 113.9003 147.1465 114.2638 145.9124 114.2638 C 144.1428 114.2638 142.5594 113.2824 142.1868 111.9375 L 152.2459 111.9375 L 152.3375 111.0799 C 152.3375 109.4025 151.8268 107.6075 150.5927 106.1589 C 149.3819 104.8286 147.6588 104 145.9357 104 C 142.2334 104 139.4625 107.2115 139.4625 111.06 C 139.4625 113.9912 142.3731 117 146.0056 117 C 148.5902 117 150.8954 115.2354 151.8734 113.1007 L 148.9162 113.1007 L 148.9162 113.1007 ZM 142.1635 110.0625 C 142.5128 108.2146 144.1195 106.7362 145.796 106.7362 C 147.6355 106.7362 149.2189 108.0299 149.7079 110.0625 L 142.1635 110.0625 L 142.1635 110.0625 Z" fill="#999999"/>		</g>		<rect x="0" y="165" width="280" height="20" fill="#f04e37"/>		<rect x="0" y="135" width="140" height="20" fill="#cccccc"/>		<rect opacity="0.102" x="0" y="126" width="1" height="69" fill="#000000"/>	</g></svg>