<?xml version="1.0" standalone="no"?><!-- Generator: Adobe Fireworks CS6, Export SVG Extension by Aaron Beall (http://fireworks.abeall.com) . Version: 0.6.1  --><!DOCTYPE svg PUBLIC "-//W3C//DTD SVG 1.1//EN" "http://www.w3.org/Graphics/SVG/1.1/DTD/svg11.dtd"><svg id="v17e-Primer-assets.fw-90%25" viewBox="0 0 300 200" style="background-color:#ffffff00" version="1.1"	xmlns="http://www.w3.org/2000/svg" xmlns:xlink="http://www.w3.org/1999/xlink" xml:space="preserve"	x="0px" y="0px" width="300px" height="200px">	<g id="bg">		<rect x="0" y="0" width="300" height="200" fill="#ffffff"/>	</g>	<g id="Layer%202">		<text visibility="hidden" x="-5" y="104" width="191" fill="#202020" style="font-size: 90px; color: #202020; font-family: ITC Lubalin Graph Std; text-align: left; "><tspan><![CDATA[50%]]></tspan></text>		<text visibility="hidden" x="-7" y="104" width="245" fill="#202020" style="font-size: 90px; color: #202020; font-family: ITC Lubalin Graph Std; text-align: left; "><tspan><![CDATA[200%]]></tspan></text>		<g>			<path d="M 26.0408 85.9375 L 43.63 60.0979 C 47.1386 55.0166 48.9375 51.0945 48.9375 44.8191 C 48.9375 38.3694 46.5089 32.2496 41.5608 27.5698 C 37.1524 23.5199 30.8041 21 24.5464 21 C 11.3082 21 0.0625 31.7996 0.0625 44.209 C 0.0625 55.5396 8.6992 65.9375 21.3708 65.9375 C 23.519 65.9375 25.387 65.3364 27.2549 64.4776 L 10.6785 85.9375 L 26.0408 85.9375 L 26.0408 85.9375 ZM 24.5464 56.0625 C 17.448 56.0625 11.9375 50.7459 11.9375 44.209 C 11.9375 37.9336 17.7282 32.7896 24.5464 32.7896 C 31.2711 32.7896 37.0625 37.9336 37.0625 44.209 C 37.0625 50.7459 31.6447 56.0625 24.5464 56.0625 L 24.5464 56.0625 Z" fill="#333333"/>			<path d="M 100.7375 45.1782 C 100.7375 37.8934 99.4086 32.7151 93.914 27.5594 C 89.5715 23.4588 83.7782 21.0523 77.7113 21.0523 C 71.2876 21.0523 65.1428 23.8154 60.7116 28.4508 C 55.8373 33.505 54.8625 38.42 54.8625 45.1782 L 54.8625 62.7319 C 54.8625 70.0167 56.1032 75.195 61.5978 80.3512 C 65.9404 84.4518 71.7337 86.9477 77.7113 86.9477 C 84.2243 86.9477 90.2804 84.0952 94.8002 79.4598 C 99.6745 74.4051 100.7375 69.4901 100.7375 62.7319 L 100.7375 45.1782 L 100.7375 45.1782 ZM 66.7375 45.1782 C 66.7375 42.1941 66.7375 39.4732 68.4326 36.8402 C 70.3954 33.5927 74.0534 31.9273 77.8006 31.9273 C 81.2801 31.9273 84.7596 33.3294 86.7224 36.2258 C 88.7744 39.0344 88.8625 41.9308 88.8625 45.1782 L 88.8625 62.9074 C 88.8625 65.8916 88.7744 68.6124 87.1685 71.2455 C 85.2057 74.4929 81.5477 76.0727 77.8006 76.0727 C 74.2318 76.0727 70.8415 74.7562 68.7895 71.8598 C 66.8267 69.0512 66.7375 66.1549 66.7375 62.9074 L 66.7375 45.1782 L 66.7375 45.1782 Z" fill="#333333"/>			<path d="M 164.1441 86.7577 C 172.796 86.7577 179.5375 79.845 179.5375 70.816 C 179.5375 61.7834 172.6253 55.0625 163.9656 55.0625 C 155.4899 55.0625 148.6625 61.7834 148.6625 70.7217 C 148.6625 79.845 155.3192 86.7577 164.1441 86.7577 L 164.1441 86.7577 ZM 164.2334 77.8827 C 160.4837 77.8827 157.5375 74.6791 157.5375 70.816 C 157.5375 66.9528 160.573 63.9375 164.1441 63.9375 C 167.7153 63.9375 170.6625 67.1413 170.6625 70.9102 C 170.6625 74.6791 167.8046 77.8827 164.2334 77.8827 L 164.2334 77.8827 ZM 124.6478 51.9375 C 133.8814 51.9375 140.5375 45.1101 140.5375 36.5462 C 140.5375 27.9838 133.6254 21.2423 124.4556 21.2423 C 115.5752 21.2423 108.6625 27.9838 108.6625 36.3701 C 108.6625 45.0248 115.3192 51.9375 124.6478 51.9375 L 124.6478 51.9375 ZM 124.6478 43.0625 C 120.6122 43.0625 117.5375 40.1566 117.5375 36.4581 C 117.5375 32.9358 120.7083 30.1174 124.5517 30.1174 C 128.4911 30.1174 131.6625 33.0238 131.6625 36.6342 C 131.6625 40.1566 128.4911 43.0625 124.6478 43.0625 L 124.6478 43.0625 ZM 134.6495 85.9375 L 163.0728 22.0625 L 154.4658 22.0625 L 125.5125 85.9375 L 134.6495 85.9375 L 134.6495 85.9375 Z" fill="#333333"/>		</g>		<g>			<path d="M 0.0625 112.0183 L 0.0625 116.8933 L 2.9375 116.8933 L 2.9375 115.5719 C 3.8548 116.58 5.1497 117.036 6.6334 117.036 C 9.9078 117.036 11.9375 114.7558 11.9375 111.5257 C 11.9375 110.0105 11.4083 108.672 10.4362 107.7377 C 9.464 106.8538 8.1712 106.475 6.6874 106.0962 C 5.2837 105.981 3.9375 105.615 3.9375 103.9071 C 3.9375 102.5407 4.8929 101.7362 6.0437 101.7362 C 7.0947 101.3774 8.0374 102.354 8.0625 103.6479 L 10.9375 103.6479 L 10.9375 98.9604 L 8.4866 98.9604 L 8.4866 100.3201 C 7.8025 99.384 6.7602 99 5.6963 99 C 3.2139 99 1.0625 101.1122 1.0625 103.9803 C 1.0625 105.5418 1.6376 106.8593 2.724 107.7865 C 3.6613 108.5916 4.6106 108.9088 5.7397 109.2748 C 7.2539 109.5054 9.0625 109.9599 9.0625 111.7529 C 9.0625 113.2934 7.8204 114.2278 6.2288 114.2278 C 4.291 114.5248 3.3242 113.375 3.3242 112.0183 L 0.0625 112.0183 L 0.0625 112.0183 Z" fill="#999999"/>			<path d="M 14.3025 114.2638 L 12.6464 114.2638 L 12.6464 117 L 18.8 117 L 18.8 114.2638 L 17.1775 114.2638 L 17.1775 110.2052 C 17.1775 109.3099 17.2245 108.4682 17.8594 107.6747 C 18.3767 107.0254 19.0586 106.7362 19.8581 106.7362 C 20.7046 106.7362 21.5276 107.1456 21.9273 107.9151 C 22.3025 108.5885 22.3025 109.5504 22.3025 110.3199 L 22.3025 114.2638 L 20.6811 114.2638 L 20.6811 117 L 26.8 117 L 26.8 114.2638 L 25.1775 114.2638 L 25.1775 110.1275 C 25.1775 109.1897 25.1775 108.4682 25.7654 107.6987 C 26.2592 107.0735 27.1057 106.7362 27.8816 106.7362 C 28.6811 106.7362 29.457 107.0975 29.9273 107.7949 C 30.3025 108.5404 30.3025 109.2859 30.3025 110.1275 L 30.3025 114.2638 L 28.6811 114.2638 L 28.6811 117 L 34.8337 117 L 34.8337 114.2638 L 33.1775 114.2638 L 33.1775 109.4061 C 33.1775 107.9392 33.1775 106.6678 32.1873 105.5508 C 31.2684 104.5478 29.9273 104 28.5635 104 C 26.8235 104 25.1297 105.0037 24.4464 106.5539 C 23.7396 105.0265 22.28 104 20.54 104 C 18.9411 104 17.7183 104.8441 16.9176 106.1207 L 16.9176 104 L 12.6464 104 L 12.6464 106.7362 L 14.3025 106.7362 L 14.3025 114.2638 L 14.3025 114.2638 Z" fill="#999999"/>			<path d="M 47.4937 117 L 52.0257 117 L 52.0257 114.2638 L 50.4175 114.2638 L 50.4175 106.7362 L 52.0257 106.7362 L 52.0257 104 L 47.4937 104 L 47.4937 106.1002 C 46.5599 104.7081 45.0456 103.94 43.3042 103.94 C 39.3712 103.94 36.5425 107.0264 36.5425 110.5694 C 36.5425 114.0209 39.3027 117.06 43.1527 117.06 C 44.9194 117.06 46.5094 116.4119 47.4937 114.9958 L 47.4937 117 L 47.4937 117 ZM 43.4304 114.2038 C 41.2599 114.2038 39.4175 112.558 39.4175 110.5694 C 39.4175 108.5122 41.1842 106.7962 43.4808 106.7962 C 45.7018 106.7962 47.5425 108.4208 47.5425 110.4322 C 47.5425 112.5123 45.7523 114.2038 43.4304 114.2038 L 43.4304 114.2038 Z" fill="#999999"/>			<path d="M 57.6575 99 L 53.1264 99 L 53.1264 101.7362 L 54.7825 101.7362 L 54.7825 114.2638 L 53.0063 114.2638 L 53.0063 117 L 59.3137 117 L 59.3137 114.2638 L 57.6575 114.2638 L 57.6575 99 L 57.6575 99 Z" fill="#999999"/>			<path d="M 64.8975 99 L 60.3664 99 L 60.3664 101.7362 L 62.0225 101.7362 L 62.0225 114.2638 L 60.2464 114.2638 L 60.2464 117 L 66.5537 117 L 66.5537 114.2638 L 64.8975 114.2638 L 64.8975 99 L 64.8975 99 Z" fill="#999999"/>			<path d="M 76.7162 113.1007 C 76.0176 113.9003 74.9465 114.2638 73.7124 114.2638 C 71.9428 114.2638 70.3594 113.2824 69.9868 111.9375 L 80.0459 111.9375 L 80.1375 111.0799 C 80.1375 109.4025 79.6268 107.6075 78.3927 106.1589 C 77.1819 104.8286 75.4588 104 73.7357 104 C 70.0334 104 67.2625 107.2115 67.2625 111.06 C 67.2625 113.9912 70.1731 117 73.8056 117 C 76.3902 117 78.6954 115.2354 79.6734 113.1007 L 76.7162 113.1007 L 76.7162 113.1007 ZM 69.9635 110.0625 C 70.3128 108.2146 71.9195 106.7362 73.596 106.7362 C 75.4355 106.7362 77.0189 108.0299 77.5079 110.0625 L 69.9635 110.0625 L 69.9635 110.0625 Z" fill="#999999"/>			<path d="M 86.1647 104 L 81.8464 104 L 81.8464 106.7362 L 83.5025 106.7362 L 83.5025 114.2638 L 81.8464 114.2638 L 81.8464 117 L 88.0337 117 L 88.0337 114.2638 L 86.3775 114.2638 L 86.3775 110.9431 C 86.3775 109.6371 86.5215 108.5617 87.4816 107.7114 C 88.2017 107.0361 89.0658 106.786 90.0018 106.7362 L 90.0018 104 C 88.3457 104.0649 86.9056 104.7437 86.1647 106.1231 L 86.1647 104 L 86.1647 104 Z" fill="#999999"/>			<path d="M 102.8575 104 L 98.3264 104 L 98.3264 106.7362 L 99.9825 106.7362 L 99.9825 114.2638 L 98.3024 114.2638 L 98.3024 117 L 104.5137 117 L 104.5137 114.2638 L 102.8575 114.2638 L 102.8575 104 L 102.8575 104 ZM 102.8575 99 L 99.9825 99 L 99.9825 101.7362 L 102.8575 101.7362 L 102.8575 99 L 102.8575 99 Z" fill="#999999"/>			<path d="M 107.2225 114.2638 L 105.5664 114.2638 L 105.5664 117 L 111.72 117 L 111.72 114.2638 L 110.0975 114.2638 L 110.0975 110.2052 C 110.0975 109.3099 110.1445 108.4682 110.7794 107.6747 C 111.2967 107.0254 111.9786 106.7362 112.7781 106.7362 C 113.6246 106.7362 114.4476 107.1456 114.8473 107.9151 C 115.2225 108.5885 115.2225 109.5504 115.2225 110.3199 L 115.2225 114.2638 L 113.6011 114.2638 L 113.6011 117 L 119.72 117 L 119.72 114.2638 L 118.0975 114.2638 L 118.0975 110.1275 C 118.0975 109.1897 118.0975 108.4682 118.6854 107.6987 C 119.1792 107.0735 120.0257 106.7362 120.8016 106.7362 C 121.6011 106.7362 122.377 107.0975 122.8473 107.7949 C 123.2225 108.5404 123.2225 109.2859 123.2225 110.1275 L 123.2225 114.2638 L 121.6011 114.2638 L 121.6011 117 L 127.7537 117 L 127.7537 114.2638 L 126.0975 114.2638 L 126.0975 109.4061 C 126.0975 107.9392 126.0975 106.6678 125.1073 105.5508 C 124.1884 104.5478 122.8473 104 121.4835 104 C 119.7435 104 118.0497 105.0037 117.3664 106.5539 C 116.6596 105.0265 115.2 104 113.46 104 C 111.8611 104 110.6383 104.8441 109.8376 106.1207 L 109.8376 104 L 105.5664 104 L 105.5664 106.7362 L 107.2225 106.7362 L 107.2225 114.2638 L 107.2225 114.2638 Z" fill="#999999"/>			<path d="M 140.4137 117 L 144.9456 117 L 144.9456 114.2638 L 143.3375 114.2638 L 143.3375 106.7362 L 144.9456 106.7362 L 144.9456 104 L 140.4137 104 L 140.4137 106.1002 C 139.4799 104.7081 137.9656 103.94 136.2242 103.94 C 132.2912 103.94 129.4625 107.0264 129.4625 110.5694 C 129.4625 114.0209 132.2227 117.06 136.0727 117.06 C 137.8394 117.06 139.4294 116.4119 140.4137 114.9958 L 140.4137 117 L 140.4137 117 ZM 136.3504 114.2038 C 134.1799 114.2038 132.3375 112.558 132.3375 110.5694 C 132.3375 108.5122 134.1042 106.7962 136.4008 106.7962 C 138.6218 106.7962 140.4625 108.4208 140.4625 110.4322 C 140.4625 112.5123 138.6723 114.2038 136.3504 114.2038 L 136.3504 114.2038 Z" fill="#999999"/>			<path d="M 146.3923 117.8196 C 147.0362 120.5666 149.8022 122 152.5765 122 C 154.5511 122 156.3756 121.3484 157.8418 119.889 C 159.4214 118.4542 159.5775 117.0538 159.5775 115.0918 L 159.5775 106.7362 L 161.2337 106.7362 L 161.2337 104 L 156.6755 104 L 156.6755 106.1122 C 155.6758 104.6241 154.0262 104.024 152.2266 104.024 C 148.5309 104.024 145.7025 107.0811 145.7025 110.4928 C 145.7025 113.9508 148.4159 116.988 152.2016 116.988 C 154.0012 116.988 155.5258 116.3399 156.4756 114.8518 L 156.4756 115.3318 C 156.4756 116.532 156.4006 117.3163 155.5508 118.1916 C 154.876 118.8699 153.7762 119.2638 152.7265 119.2638 C 151.5518 119.2638 150.2521 118.8043 149.7272 117.8196 L 146.3923 117.8196 L 146.3923 117.8196 ZM 148.5775 110.4695 C 148.5775 108.404 150.4021 106.7122 152.6265 106.7122 C 154.851 106.7122 156.7025 108.3808 156.7025 110.4463 C 156.7025 112.5351 154.951 114.2758 152.6515 114.2758 C 150.3771 114.2758 148.5775 112.5815 148.5775 110.4695 L 148.5775 110.4695 Z" fill="#999999"/>			<path d="M 171.3962 113.1007 C 170.6976 113.9003 169.6265 114.2638 168.3924 114.2638 C 166.6228 114.2638 165.0394 113.2824 164.6668 111.9375 L 174.7259 111.9375 L 174.8175 111.0799 C 174.8175 109.4025 174.3068 107.6075 173.0727 106.1589 C 171.8619 104.8286 170.1388 104 168.4157 104 C 164.7134 104 161.9425 107.2115 161.9425 111.06 C 161.9425 113.9912 164.8531 117 168.4856 117 C 171.0702 117 173.3754 115.2354 174.3534 113.1007 L 171.3962 113.1007 L 171.3962 113.1007 ZM 164.6436 110.0625 C 164.9928 108.2146 166.5995 106.7362 168.276 106.7362 C 170.1155 106.7362 171.6989 108.0299 172.1879 110.0625 L 164.6436 110.0625 L 164.6436 110.0625 Z" fill="#999999"/>			<path d="M 177.1825 113.2797 L 177.1825 117 L 179.0575 117 L 179.0575 115.6472 C 179.9964 116.5112 181.3108 116.8694 182.7594 116.8694 C 185.1614 116.8694 187.0575 115.6051 187.0575 113.0283 C 187.0575 110.0419 184.9115 109.2953 182.5448 108.7477 C 181.2822 108.8989 180.0575 108.6312 180.0575 107.4143 C 180.0575 106.5138 180.9323 106.0536 181.7571 106.0536 C 182.7227 105.9289 183.4409 106.4244 183.4904 107.1776 L 186.0575 107.1776 L 186.0575 104.3026 L 184.1825 104.3026 L 184.1825 105.1465 C 183.4317 104.3806 182.3569 104.1786 181.1572 104.1786 C 178.9868 104.1786 177.1825 105.3683 177.1825 107.7063 C 177.1825 110.5538 179.3225 111.2596 181.5072 111.8438 C 182.8398 111.8089 184.1825 112.0328 184.1825 113.3519 C 184.1825 114.3473 183.2154 114.9944 182.2229 114.9944 C 180.7415 115.1998 179.9491 114.4318 179.85 113.2797 L 177.1825 113.2797 L 177.1825 113.2797 Z" fill="#999999"/>		</g>		<rect x="0" y="135" width="280" height="20" fill="#cccccc"/>		<rect x="0" y="165" width="28" height="20" fill="#00b2ef"/>		<rect opacity="0.102" x="0" y="126" width="1" height="69" fill="#000000"/>	</g></svg>