<?xml version="1.0" standalone="no"?><!-- Generator: Adobe Fireworks CS6, Export SVG Extension by Aaron Beall (http://fireworks.abeall.com) . Version: 0.6.1  --><!DOCTYPE svg PUBLIC "-//W3C//DTD SVG 1.1//EN" "http://www.w3.org/Graphics/SVG/1.1/DTD/svg11.dtd"><svg id="v17e-Primer-assets.fw-50%25" viewBox="0 0 300 200" style="background-color:#ffffff00" version="1.1"	xmlns="http://www.w3.org/2000/svg" xmlns:xlink="http://www.w3.org/1999/xlink" xml:space="preserve"	x="0px" y="0px" width="300px" height="200px">	<g id="bg">		<rect x="0" y="0" width="300" height="200" fill="#ffffff"/>	</g>	<g id="Layer%202">		<g>			<path d="M -0.3961 68.5454 C 2.0338 79.9184 11.3034 86.9027 22.913 86.9027 C 36.095 86.9027 46.9375 77.7081 46.9375 63.8918 C 46.9375 51.8509 38.4182 42.0625 26.4228 42.0625 C 22.283 42.0625 18.5031 43.1019 15.1733 45.3541 L 17.6932 32.0673 L 42.1181 32.0673 L 42.1181 22.1923 L 8.2436 22.1923 L 2.4838 55.6795 L 12.5634 58.3257 C 14.5433 54.3108 18.4131 51.9375 22.913 51.9375 C 29.4827 51.9375 35.0625 56.957 35.0625 63.8918 C 35.0625 70.7354 29.7527 76.0277 23.003 76.0277 C 17.9632 76.0277 14.0033 73.1991 12.2034 68.5454 L -0.3961 68.5454 L -0.3961 68.5454 Z" fill="#333333"/>			<path d="M 99.7375 45.1782 C 99.7375 37.8934 98.4086 32.7151 92.914 27.5594 C 88.5715 23.4588 82.7782 21.0523 76.7113 21.0523 C 70.2876 21.0523 64.1428 23.8154 59.7116 28.4508 C 54.8373 33.505 53.8625 38.42 53.8625 45.1782 L 53.8625 62.7319 C 53.8625 70.0167 55.1032 75.195 60.5978 80.3512 C 64.9404 84.4518 70.7337 86.9477 76.7113 86.9477 C 83.2243 86.9477 89.2804 84.0952 93.8002 79.4598 C 98.6745 74.4051 99.7375 69.4901 99.7375 62.7319 L 99.7375 45.1782 L 99.7375 45.1782 ZM 65.7375 45.1782 C 65.7375 42.1941 65.7375 39.4732 67.4326 36.8402 C 69.3954 33.5927 73.0534 31.9273 76.8006 31.9273 C 80.2801 31.9273 83.7596 33.3294 85.7224 36.2258 C 87.7744 39.0344 87.8625 41.9308 87.8625 45.1782 L 87.8625 62.9074 C 87.8625 65.8916 87.7744 68.6124 86.1685 71.2455 C 84.2057 74.4929 80.5477 76.0727 76.8006 76.0727 C 73.2318 76.0727 69.8415 74.7562 67.7895 71.8598 C 65.8267 69.0512 65.7375 66.1549 65.7375 62.9074 L 65.7375 45.1782 L 65.7375 45.1782 Z" fill="#333333"/>			<path d="M 163.1441 86.7577 C 171.796 86.7577 178.5375 79.845 178.5375 70.816 C 178.5375 61.7834 171.6253 55.0625 162.9656 55.0625 C 154.4899 55.0625 147.6625 61.7834 147.6625 70.7217 C 147.6625 79.845 154.3192 86.7577 163.1441 86.7577 L 163.1441 86.7577 ZM 163.2334 77.8827 C 159.4837 77.8827 156.5375 74.6791 156.5375 70.816 C 156.5375 66.9528 159.573 63.9375 163.1441 63.9375 C 166.7153 63.9375 169.6625 67.1413 169.6625 70.9102 C 169.6625 74.6791 166.8046 77.8827 163.2334 77.8827 L 163.2334 77.8827 ZM 123.6478 51.9375 C 132.8814 51.9375 139.5375 45.1101 139.5375 36.5462 C 139.5375 27.9838 132.6254 21.2423 123.4556 21.2423 C 114.5752 21.2423 107.6625 27.9838 107.6625 36.3701 C 107.6625 45.0248 114.3192 51.9375 123.6478 51.9375 L 123.6478 51.9375 ZM 123.6478 43.0625 C 119.6122 43.0625 116.5375 40.1566 116.5375 36.4581 C 116.5375 32.9358 119.7083 30.1174 123.5517 30.1174 C 127.4911 30.1174 130.6625 33.0238 130.6625 36.6342 C 130.6625 40.1566 127.4911 43.0625 123.6478 43.0625 L 123.6478 43.0625 ZM 133.6495 85.9375 L 162.0728 22.0625 L 153.4658 22.0625 L 124.5125 85.9375 L 133.6495 85.9375 L 133.6495 85.9375 Z" fill="#333333"/>		</g>		<text visibility="hidden" x="-7" y="104" width="245" fill="#202020" style="font-size: 90px; color: #202020; font-family: ITC Lubalin Graph Std; text-align: left; "><tspan><![CDATA[200%]]></tspan></text>		<g>			<path d="M 3.0625 114.2638 L 1.2143 114.2638 L 1.2143 117 L 7.4817 117 L 7.4817 114.2638 L 5.9375 114.2638 L 5.9375 109.9375 L 11.6586 117 L 15.2975 117 L 15.2975 114.2638 L 13.5418 114.2638 L 11.0257 111.2953 C 13.4784 111.1072 14.9375 108.097 14.9375 105.1721 C 14.9375 103.0992 14.3238 101.3101 13.1403 100.2334 C 11.937 99.1567 10.3928 99 8.6208 99 L 1.2143 99 L 1.2143 101.7362 L 3.0625 101.7362 L 3.0625 114.2638 L 3.0625 114.2638 ZM 5.9375 109.0625 L 5.9375 101.7362 L 8.3171 101.7362 C 9.279 101.7362 10.1144 101.7362 10.8738 102.4461 C 11.6586 103.1276 12.0625 104.2351 12.0625 105.3141 C 12.0625 106.45 11.6332 107.5291 10.8232 108.239 C 9.9119 109.0057 8.874 109.0625 7.8108 109.0625 L 5.9375 109.0625 L 5.9375 109.0625 Z" fill="#999999"/>			<path d="M 25.7562 113.1007 C 25.0576 113.9003 23.9865 114.2638 22.7524 114.2638 C 20.9828 114.2638 19.3994 113.2824 19.0268 111.9375 L 29.0859 111.9375 L 29.1775 111.0799 C 29.1775 109.4025 28.6668 107.6075 27.4327 106.1589 C 26.2219 104.8286 24.4988 104 22.7757 104 C 19.0734 104 16.3025 107.2115 16.3025 111.06 C 16.3025 113.9912 19.2131 117 22.8456 117 C 25.4302 117 27.7354 115.2354 28.7134 113.1007 L 25.7562 113.1007 L 25.7562 113.1007 ZM 19.0036 110.0625 C 19.3528 108.2146 20.9595 106.7362 22.636 106.7362 C 24.4755 106.7362 26.0589 108.0299 26.5479 110.0625 L 19.0036 110.0625 L 19.0036 110.0625 Z" fill="#999999"/>			<path d="M 41.5425 117 L 46.0737 117 L 46.0737 114.2638 L 44.4175 114.2638 L 44.4175 99 L 39.7652 99 L 39.7652 101.7362 L 41.5425 101.7362 L 41.5425 106.0882 C 40.4761 104.7681 38.8003 104 37.0738 104 C 33.2598 104 30.5425 107.0474 30.5425 110.6078 C 30.5425 113.9392 33.3277 116.976 37.0992 116.976 C 38.9019 116.976 40.5269 116.3039 41.5425 114.8638 L 41.5425 117 L 41.5425 117 ZM 37.5054 114.2878 C 35.2456 114.2878 33.4175 112.5913 33.4175 110.5463 C 33.4175 108.4315 35.2456 106.7362 37.5562 106.7362 C 39.7652 106.7362 41.6132 108.4083 41.6132 110.4533 C 41.6132 112.5448 39.8159 114.2878 37.5054 114.2878 L 37.5054 114.2878 Z" fill="#999999"/>			<path d="M 58.6575 104 L 54.2028 104 L 54.2028 106.7362 L 55.7825 106.7362 L 55.7825 110.9677 C 55.7825 111.6456 55.7825 112.491 55.255 113.2425 C 54.7746 113.8765 53.9741 114.2758 53.1964 114.2758 C 52.373 114.2758 51.5953 113.9235 51.1378 113.1955 C 50.6804 112.5145 50.6575 111.6456 50.6575 110.8472 L 50.6575 104 L 46.1264 104 L 46.1264 106.7362 L 47.7825 106.7362 L 47.7825 111.6926 C 47.7825 113.0546 47.971 114.2523 48.8898 115.3559 C 49.7615 116.4119 51.0235 116.988 52.3272 116.988 C 53.7454 116.988 55.2092 116.3159 56.0181 115.0678 L 56.0181 117 L 60.3137 117 L 60.3137 114.2638 L 58.6575 114.2638 L 58.6575 104 L 58.6575 104 Z" fill="#999999"/>			<path d="M 70.8518 112.4312 C 70.2983 113.5951 69.023 114.2638 67.7717 114.2638 C 65.6301 114.2638 63.8975 112.5302 63.8975 110.2766 C 63.8975 108.4387 65.5098 106.7362 67.6995 106.7362 C 68.3492 106.7362 68.9748 106.9009 69.5283 107.2038 C 70.0577 107.2027 70.5389 107.5947 70.8999 108.0737 L 73.8038 108.0737 L 73.8038 104.1987 L 71.1163 104.1987 L 71.1163 105.5151 C 70.1539 104.5427 68.8786 104 67.4348 104 C 63.779 104 61.0225 107.064 61.0225 110.5124 C 61.0225 114.1473 64.0178 117 67.7476 117 C 70.563 117 73.4704 115.1535 74.2838 112.5396 L 70.8518 112.4312 L 70.8518 112.4312 Z" fill="#999999"/>			<path d="M 80.1375 106.7362 L 82.3217 106.7362 L 82.3217 104 L 80.1375 104 L 80.1375 99.0625 L 77.2625 99.0625 L 77.2625 104 L 75.2463 104 L 75.2463 106.7362 L 77.2625 106.7362 L 77.2625 117 L 82.4657 117 L 82.4657 114.2638 L 80.1375 114.2638 L 80.1375 106.7362 L 80.1375 106.7362 Z" fill="#999999"/>			<path d="M 88.3775 104 L 83.8464 104 L 83.8464 106.7362 L 85.5025 106.7362 L 85.5025 114.2638 L 83.8224 114.2638 L 83.8224 117 L 90.0337 117 L 90.0337 114.2638 L 88.3775 114.2638 L 88.3775 104 L 88.3775 104 ZM 88.3775 99 L 85.5025 99 L 85.5025 101.7362 L 88.3775 101.7362 L 88.3775 99 L 88.3775 99 Z" fill="#999999"/>			<path d="M 97.6546 117 C 101.641 117 104.6175 114.0779 104.6175 110.4525 C 104.6175 106.9202 101.641 104 97.7308 104 C 93.7953 104 90.7425 106.8505 90.7425 110.4758 C 90.7425 114.0546 93.6937 117 97.6546 117 L 97.6546 117 ZM 97.6546 114.2638 C 95.3441 114.2638 93.6175 112.4976 93.6175 110.4525 C 93.6175 108.3843 95.4964 106.7362 97.7308 106.7362 C 99.9906 106.7362 101.7425 108.5005 101.7425 110.5223 C 101.7425 112.5905 99.9144 114.2638 97.6546 114.2638 L 97.6546 114.2638 Z" fill="#999999"/>			<path d="M 106.9825 114.2638 L 105.3264 114.2638 L 105.3264 117 L 111.6558 117 L 111.6558 114.2638 L 109.8575 114.2638 L 109.8575 110.4512 C 109.8575 109.6561 109.8575 108.5463 110.4569 107.8226 C 111.0303 107.0989 112.0207 106.7362 112.985 106.7362 C 113.9232 106.7362 114.8614 107.0748 115.4348 107.7744 C 115.9825 108.474 115.9825 109.2942 115.9825 110.0903 L 115.9825 114.2638 L 114.1838 114.2638 L 114.1838 117 L 120.5137 117 L 120.5137 114.2638 L 118.8575 114.2638 L 118.8575 109.2218 C 118.8575 107.7502 118.8332 106.6223 117.7966 105.5052 C 116.8778 104.5478 115.4869 104 113.9753 104 C 112.2552 104 110.6915 104.6617 109.8575 106.0067 L 109.8575 104 L 105.3264 104 L 105.3264 106.7362 L 106.9825 106.7362 L 106.9825 114.2638 L 106.9825 114.2638 Z" fill="#999999"/>			<path d="M 132.3375 104 L 127.8064 104 L 127.8064 106.7362 L 129.4625 106.7362 L 129.4625 114.2638 L 127.7823 114.2638 L 127.7823 117 L 133.9937 117 L 133.9937 114.2638 L 132.3375 114.2638 L 132.3375 104 L 132.3375 104 ZM 132.3375 99 L 129.4625 99 L 129.4625 101.7362 L 132.3375 101.7362 L 132.3375 99 L 132.3375 99 Z" fill="#999999"/>			<path d="M 136.7025 114.2638 L 135.0464 114.2638 L 135.0464 117 L 141.3758 117 L 141.3758 114.2638 L 139.5775 114.2638 L 139.5775 110.4512 C 139.5775 109.6561 139.5775 108.5463 140.1769 107.8226 C 140.7503 107.0989 141.7407 106.7362 142.705 106.7362 C 143.6432 106.7362 144.5814 107.0748 145.1548 107.7744 C 145.7025 108.474 145.7025 109.2942 145.7025 110.0903 L 145.7025 114.2638 L 143.9038 114.2638 L 143.9038 117 L 150.2337 117 L 150.2337 114.2638 L 148.5775 114.2638 L 148.5775 109.2218 C 148.5775 107.7502 148.5532 106.6223 147.5166 105.5052 C 146.5978 104.5478 145.2069 104 143.6953 104 C 141.9752 104 140.4115 104.6617 139.5775 106.0067 L 139.5775 104 L 135.0464 104 L 135.0464 106.7362 L 136.7025 106.7362 L 136.7025 114.2638 L 136.7025 114.2638 Z" fill="#999999"/>			<path d="M 172.9641 104.1737 L 172.9641 99.2987 L 170.2759 99.2987 L 170.2759 100.7838 C 168.9531 99.568 167.133 99 165.2447 99 C 160.6263 99 157.1825 102.6679 157.1825 107.9871 C 157.1825 110.6467 157.9798 113.1999 159.4484 114.865 C 160.9448 116.1848 163.1744 117 165.3585 117 C 168.8393 117 172.2921 115.0009 173.4202 111.3914 L 169.9086 111.3914 C 168.9076 113.2265 167.2013 114.2638 165.3357 114.2638 C 162.4008 114.2638 160.0575 111.418 160.0575 108.0137 C 160.0575 104.4498 162.3098 101.7362 165.3812 101.7362 C 167.133 101.7362 168.9531 102.8275 169.8631 104.636 L 172.9641 104.1737 L 172.9641 104.1737 Z" fill="#999999"/>			<path d="M 174.4225 112.0183 L 174.4225 116.8933 L 177.2975 116.8933 L 177.2975 115.5719 C 178.2148 116.58 179.5097 117.036 180.9934 117.036 C 184.2678 117.036 186.2975 114.7558 186.2975 111.5257 C 186.2975 110.0105 185.7683 108.672 184.7962 107.7377 C 183.824 106.8538 182.5312 106.475 181.0474 106.0962 C 179.6437 105.981 178.2975 105.615 178.2975 103.9071 C 178.2975 102.5407 179.2529 101.7362 180.4037 101.7362 C 181.4547 101.3774 182.3974 102.354 182.4225 103.6479 L 185.2975 103.6479 L 186.2975 98.9604 L 183.8466 98.9604 L 182.8466 100.3201 C 182.1625 99.384 181.1202 99 180.0563 99 C 177.5739 99 175.4225 101.1122 175.4225 103.9803 C 175.4225 105.5418 175.9976 106.8593 177.084 107.7865 C 178.0213 108.5916 178.9706 108.9088 180.0997 109.2748 C 181.6139 109.5054 183.4225 109.9599 183.4225 111.7529 C 183.4225 113.2934 182.1805 114.2278 180.5888 114.2278 C 178.651 114.5248 177.6842 113.375 177.6842 112.0183 L 174.4225 112.0183 L 174.4225 112.0183 Z" fill="#999999"/>			<path d="M 186.6625 112.0183 L 186.6625 116.8933 L 189.5375 116.8933 L 189.5375 115.5719 C 190.4547 116.58 191.7497 117.036 193.2334 117.036 C 196.5078 117.036 198.5375 114.7558 198.5375 111.5257 C 198.5375 110.0105 198.0083 108.672 197.0362 107.7377 C 196.064 106.8538 194.7711 106.475 193.2874 106.0962 C 191.8837 105.981 190.5375 105.615 190.5375 103.9071 C 190.5375 102.5407 191.4929 101.7362 192.6437 101.7362 C 193.6947 101.3774 194.6374 102.354 194.6625 103.6479 L 197.5375 103.6479 L 198.5375 98.9604 L 196.0866 98.9604 L 195.0866 100.3201 C 194.4025 99.384 193.3602 99 192.2963 99 C 189.8139 99 187.6625 101.1122 187.6625 103.9803 C 187.6625 105.5418 188.2376 106.8593 189.324 107.7865 C 190.2612 108.5916 191.2106 108.9088 192.3397 109.2748 C 193.8539 109.5054 195.6625 109.9599 195.6625 111.7529 C 195.6625 113.2934 194.4204 114.2278 192.8288 114.2278 C 190.891 114.5248 189.9242 113.375 189.9242 112.0183 L 186.6625 112.0183 L 186.6625 112.0183 Z" fill="#999999"/>		</g>		<rect x="0" y="135" width="280" height="20" fill="#cccccc"/>		<rect x="0" y="165" width="140" height="20" fill="#17af4b"/>		<rect opacity="0.102" x="0" y="126" width="1" height="69" fill="#000000"/>	</g></svg>