<?xml version="1.0" standalone="no"?><!-- Generator: Adobe Fireworks CS6, Export SVG Extension by Aaron Beall (http://fireworks.abeall.com) . Version: 0.6.1  --><!DOCTYPE svg PUBLIC "-//W3C//DTD SVG 1.1//EN" "http://www.w3.org/Graphics/SVG/1.1/DTD/svg11.dtd"><svg id="v17e-Primer-assets.fw-lifecycle-5" viewBox="0 0 140 100" style="background-color:#ffffff00" version="1.1"	xmlns="http://www.w3.org/2000/svg" xmlns:xlink="http://www.w3.org/1999/xlink" xml:space="preserve"	x="0px" y="0px" width="140px" height="100px">	<g id="bg">	</g>	<g id="Layer%202">		<path d="M 41.43 59.695 C 39.3787 54.8718 35.9224 50.8887 32.0039 50.8887 C 28.2101 50.8887 24.8515 54.6244 22.78 59.24 C 21.1447 54.8866 18.3552 51.3491 14.8535 50.9731 C 8.5947 50.3013 2.4238 59.9756 1.6211 67.4629 C 0.9492 73.7207 5.4346 79.7432 11.6934 80.415 C 16.0776 80.8858 20.167 78.6048 22.455 75.045 C 24.4894 78.2782 28.0074 80.5 32.0039 80.5 C 36.1221 80.5 39.7322 78.1431 41.735 74.75 C 43.9828 78.4788 48.176 80.8987 52.6807 80.415 C 58.9395 79.7432 63.4248 73.7207 62.7529 67.4629 C 61.9502 59.9756 55.7793 50.3013 49.5205 50.9731 C 45.8973 51.3622 43.0387 55.1347 41.43 59.695 Z" fill="#333333"/>		<path d="M 74.459 32.207 L 77.748 30.5693 L 74.5879 29.0195 C 73.9805 25.0654 70.5723 22.0332 66.4482 22.0332 C 62.6377 22.0332 59.4395 24.6211 58.4941 28.1318 L 54.4375 19.9395 C 52.418 20.9395 50.8447 22.4824 49.8086 24.3047 L 46.5938 21.0898 C 43.124 24.5596 42.4902 29.7881 44.6875 33.9043 L 37.9746 33.9043 C 37.9746 41.3281 46.624 47.3447 54.0469 47.3447 C 59.8496 47.3447 64.7939 43.668 66.6758 38.5156 C 70.4629 38.4121 73.6064 35.7588 74.459 32.207 Z" fill="#333333"/>	</g></svg>