<?xml version="1.0" standalone="no"?><!-- Generator: Adobe Fireworks CS6, Export SVG Extension by Aaron Beall (http://fireworks.abeall.com) . Version: 0.6.1  --><!DOCTYPE svg PUBLIC "-//W3C//DTD SVG 1.1//EN" "http://www.w3.org/Graphics/SVG/1.1/DTD/svg11.dtd"><svg id="v17e-Primer-assets.fw-lifecycle-2" viewBox="0 0 140 100" style="background-color:#ffffff00" version="1.1"	xmlns="http://www.w3.org/2000/svg" xmlns:xlink="http://www.w3.org/1999/xlink" xml:space="preserve"	x="0px" y="0px" width="140px" height="100px">	<g id="bg">	</g>	<g id="Layer%202">		<g>			<path d="M 53.3418 50.9497 L 45.3247 58.9658 L 36.1318 49.7729 L 26.9385 58.9658 L 17.7456 49.7729 L 8.5522 58.9658 L 0.5352 50.9497 C 0.2407 53.0791 0.0791 55.1729 0.0791 57.1812 C 0.0791 72.0151 12.1045 85 26.9385 85 C 41.7725 85 53.7983 72.0151 53.7983 57.1812 C 53.7983 55.1729 53.6367 53.0791 53.3418 50.9497 ZM 8.1528 52.0249 C 8.1528 52.7783 8.2095 53.5166 8.2959 54.2471 L 8.6025 54.5537 L 17.7949 45.3608 L 26.9888 54.5537 L 36.1816 45.3608 L 45.375 54.5537 L 45.5635 54.3652 C 45.6592 53.5972 45.7246 52.8193 45.7246 52.0249 C 45.7246 46.1348 43.0103 40.8828 38.7686 37.4385 C 40.1797 35.2466 41.0078 32.6431 41.0078 29.8413 C 41.0078 28.1855 40.7065 26.6035 40.1816 25.1279 L 42.7363 20.6118 L 37.5396 20.6118 C 34.9609 17.6519 31.1729 15.7725 26.9385 15.7725 C 19.1685 15.7725 12.8696 22.0723 12.8696 29.8413 C 12.8696 32.6431 13.6978 35.2466 15.1089 37.4385 C 10.8672 40.8828 8.1528 46.1348 8.1528 52.0249 Z" fill="#333333"/>		</g>	</g></svg>