<?xml version="1.0" standalone="no"?><!-- Generator: Adobe Fireworks CS6, Export SVG Extension by Aaron Beall (http://fireworks.abeall.com) . Version: 0.6.1  --><!DOCTYPE svg PUBLIC "-//W3C//DTD SVG 1.1//EN" "http://www.w3.org/Graphics/SVG/1.1/DTD/svg11.dtd"><svg id="v17e-Primer-assets.fw-lifecycle-6" viewBox="0 0 140 100" style="background-color:#ffffff00" version="1.1"	xmlns="http://www.w3.org/2000/svg" xmlns:xlink="http://www.w3.org/1999/xlink" xml:space="preserve"	x="0px" y="0px" width="140px" height="100px">	<g id="bg">	</g>	<g id="Layer%202">		<path d="M 77.2363 53.0303 C 79.1094 51.5332 80.3125 49.2324 80.3125 46.6475 C 80.3125 42.1328 76.6523 38.4736 72.1387 38.4736 C 67.624 38.4736 63.9648 42.1328 63.9648 46.6475 C 63.9648 47.083 64.0098 47.5078 64.0762 47.9258 L 52.9219 47.9258 C 50.8213 43.498 46.0918 39.6328 40.4414 36.8447 C 40.3018 36.8672 40.166 36.8936 40.0244 36.9092 C 38.873 39.5215 36.2686 41.3535 33.2285 41.3535 C 32.4512 41.3535 31.7148 41.1992 31.0098 40.9775 C 29.6865 42.1953 27.9355 42.9561 25.9961 42.9561 C 24.0557 42.9561 22.3037 42.1934 20.9805 40.9746 C 20.2754 41.1973 19.5391 41.3496 18.7598 41.3496 C 15.7178 41.3496 13.1113 39.5186 11.9619 36.9023 C 11.0879 36.8018 10.2646 36.542 9.5088 36.167 C 4.1309 39.918 0.4912 45.9863 0.4912 52.8574 C 0.4912 64.252 10.4658 73.4883 21.8604 73.4883 C 33.3086 73.4883 48.2617 66.9717 52.7578 58.1348 L 64.0762 58.1348 C 64.0107 58.5518 63.9648 58.9766 63.9648 59.4141 C 63.9648 63.9287 67.624 67.5889 72.1387 67.5889 C 76.6523 67.5889 80.3125 63.9287 80.3125 59.4141 C 80.3125 56.8281 79.1094 54.5283 77.2363 53.0303 Z" fill="#333333"/>	</g></svg>