<?xml version="1.0" standalone="no"?><!-- Generator: Adobe Fireworks CS6, Export SVG Extension by Aaron Beall (http://fireworks.abeall.com) . Version: 0.6.1  --><!DOCTYPE svg PUBLIC "-//W3C//DTD SVG 1.1//EN" "http://www.w3.org/Graphics/SVG/1.1/DTD/svg11.dtd"><svg id="v17e-Primer-assets.fw-lifecycle-3" viewBox="0 0 140 100" style="background-color:#ffffff00" version="1.1"	xmlns="http://www.w3.org/2000/svg" xmlns:xlink="http://www.w3.org/1999/xlink" xml:space="preserve"	x="0px" y="0px" width="140px" height="100px">	<g id="bg">	</g>	<g id="Layer%202">		<path d="M 46.9854 75.2617 L 41.1953 76.498 L 44.1592 74.5586 C 44.667 74.2266 44.8096 73.5449 44.4766 73.0361 C 44.1436 72.5283 43.4629 72.3848 42.9541 72.7188 L 37.3896 76.3613 L 35.252 68.7305 C 40.332 65.5342 43.7188 59.8926 43.7188 53.4473 C 43.7188 50.7168 43.0947 48.1377 42.0107 45.8164 C 46.3682 43.8027 49.6396 39.8555 50.7217 35.0664 L 55.6689 32.1533 L 50.9502 29.4277 C 49.8896 21.8096 43.3662 15.9395 35.4551 15.9395 C 26.8037 15.9395 19.791 22.9531 19.791 31.6025 C 19.791 33.1846 20.0303 34.71 20.4668 36.1504 C 14.6006 37.9082 10 42.5645 8.3076 48.459 L 3.2993 43.4502 C -0.228 46.9775 -0.228 52.6953 3.2993 56.2227 C 3.332 56.2549 3.3677 56.2822 3.4009 56.3145 L 0.3311 56.3145 C 0.3311 61.3027 4.374 65.3457 9.3623 65.3457 C 10.2021 65.3457 11.0117 65.2227 11.7832 65.0078 C 13.2095 66.7178 14.9473 68.1572 16.9077 69.2451 L 14.6516 78.1077 L 10.6846 77.7676 C 10.0806 77.7041 9.5396 78.1436 9.4771 78.7471 C 9.4141 79.3516 9.8535 79.8916 10.4575 79.9551 L 14.6797 80.3926 L 22.9268 84.3896 C 23.0449 84.4473 23.1689 84.4814 23.2925 84.4941 C 23.7402 84.541 24.189 84.3076 24.3965 83.8799 C 24.6611 83.333 24.4326 82.6748 23.8857 82.4102 L 21.0977 81.0586 L 26.6206 81.6309 C 27.2246 81.6934 27.7656 81.2549 27.8281 80.6504 C 27.8906 80.0469 27.4517 79.5059 26.8477 79.4434 L 20.6899 78.8047 L 24.4121 77.7227 C 24.9956 77.5527 25.3306 76.9424 25.1611 76.3584 C 24.9907 75.7754 24.3809 75.4404 23.7974 75.6104 L 17.8037 77.3545 L 20.1636 70.6533 C 21.8965 71.2061 23.7407 71.5098 25.6567 71.5098 C 27.8354 71.5098 29.9141 71.1045 31.8481 70.3975 L 34.6226 77.9023 L 31.0942 78.6553 C 30.5 78.7822 30.1211 79.3672 30.248 79.9609 C 30.3584 80.4775 30.8149 80.832 31.3228 80.832 C 31.3989 80.832 31.4761 80.8232 31.5532 80.8076 L 35.6982 79.9229 L 44.7998 81.3486 C 44.8574 81.3574 44.915 81.3623 44.9717 81.3623 C 45.5039 81.3623 45.9717 80.9746 46.0576 80.4316 C 46.1514 79.832 45.7412 79.2686 45.1406 79.1748 L 41.7139 78.6377 L 47.4443 77.4141 C 48.0381 77.2871 48.417 76.7021 48.29 76.1084 C 48.1631 75.5146 47.5771 75.1436 46.9854 75.2617 Z" fill="#333333"/>	</g></svg>