<?xml version="1.0" standalone="no"?><!-- Generator: Adobe Fireworks CS6, Export SVG Extension by Aaron Beall (http://fireworks.abeall.com) . Version: 0.6.1  --><!DOCTYPE svg PUBLIC "-//W3C//DTD SVG 1.1//EN" "http://www.w3.org/Graphics/SVG/1.1/DTD/svg11.dtd"><svg id="v17e-Primer-b.fw-lifecycle" viewBox="0 0 940 160" style="background-color:#ffffff00" version="1.1"	xmlns="http://www.w3.org/2000/svg" xmlns:xlink="http://www.w3.org/1999/xlink" xml:space="preserve"	x="0px" y="0px" width="940px" height="160px">	<defs>		<radialGradient id="gradient1" cx="1.1627%" cy="0%" r="103.3805%">			<stop stop-color="#666666" stop-opacity="1" offset="0%"/>			<stop stop-color="#000000" stop-opacity="1" offset="100%"/>		</radialGradient>		<radialGradient id="gradient2" cx="1.1627%" cy="0%" r="104.2161%">			<stop stop-color="#666666" stop-opacity="1" offset="0%"/>			<stop stop-color="#000000" stop-opacity="1" offset="100%"/>		</radialGradient>		<linearGradient id="gradient3" x1="50%" y1="0%" x2="50%" y2="100%">			<stop stop-color="#666666" stop-opacity="1" offset="0%"/>			<stop stop-color="#111111" stop-opacity="1" offset="100%"/>		</linearGradient>		<linearGradient id="gradient4" x1="49.9999%" y1="0%" x2="49.9999%" y2="100%">			<stop stop-color="#666666" stop-opacity="1" offset="0%"/>			<stop stop-color="#111111" stop-opacity="1" offset="100%"/>		</linearGradient>		<linearGradient id="gradient5" x1="50.0001%" y1="0%" x2="50.0001%" y2="100%">			<stop stop-color="#666666" stop-opacity="1" offset="0%"/>			<stop stop-color="#111111" stop-opacity="1" offset="100%"/>		</linearGradient>		<radialGradient id="gradient6" cx="1.1627%" cy="0%" r="108.4006%">			<stop stop-color="#666666" stop-opacity="1" offset="0%"/>			<stop stop-color="#000000" stop-opacity="1" offset="100%"/>		</radialGradient>		<radialGradient id="gradient7" cx="-18.5573%" cy="-2.441%" r="134.3024%">			<stop stop-color="#666666" stop-opacity="1" offset="0%"/>			<stop stop-color="#000000" stop-opacity="1" offset="100%"/>		</radialGradient>		<linearGradient id="gradient8" x1="50%" y1="0%" x2="50%" y2="100%">			<stop stop-color="#666666" stop-opacity="1" offset="0%"/>			<stop stop-color="#111111" stop-opacity="1" offset="100%"/>		</linearGradient>		<radialGradient id="gradient9" cx="-29.4298%" cy="-32.6007%" r="134.3024%">			<stop stop-color="#666666" stop-opacity="1" offset="0%"/>			<stop stop-color="#000000" stop-opacity="1" offset="100%"/>		</radialGradient>	</defs>	<g id="bg">		<rect x="0" y="-49" width="940" height="300" fill="#ffffff"/>	</g>	<g id="Layer%202">		<path d="M 56.9639 106.5 C 56.9639 121.9639 44.4277 135.5 28.9639 135.5 C 13.5 135.5 0.9639 121.9639 0.9639 106.5 C 0.9639 88 13.5 62.75 28.9639 62.75 C 44.4277 62.75 56.9639 88 56.9639 106.5 Z" fill="url(#gradient1)"/>		<g>			<path d="M 213.3418 100.9497 L 205.3247 108.9658 L 196.1318 99.7729 L 186.9385 108.9658 L 177.7456 99.7729 L 168.5522 108.9658 L 160.5352 100.9497 C 160.2407 103.0791 160.0791 105.1729 160.0791 107.1812 C 160.0791 122.0151 172.1045 135 186.9385 135 C 201.7725 135 213.7983 122.0151 213.7983 107.1812 C 213.7983 105.1729 213.6367 103.0791 213.3418 100.9497 ZM 168.1528 102.0249 C 168.1528 102.7783 168.2095 103.5166 168.2959 104.2471 L 168.6025 104.5537 L 177.7949 95.3608 L 186.9888 104.5537 L 196.1816 95.3608 L 205.375 104.5537 L 205.5635 104.3652 C 205.6592 103.5972 205.7246 102.8193 205.7246 102.0249 C 205.7246 96.1348 203.0103 90.8828 198.7686 87.4385 C 200.1797 85.2466 201.0078 82.6431 201.0078 79.8413 C 201.0078 78.1855 200.7065 76.6035 200.1816 75.1279 L 202.7363 70.6118 L 197.5396 70.6118 C 194.9609 67.6519 191.1729 65.7725 186.9385 65.7725 C 179.1685 65.7725 172.8696 72.0723 172.8696 79.8413 C 172.8696 82.6431 173.6978 85.2466 175.1089 87.4385 C 170.8672 90.8828 168.1528 96.1348 168.1528 102.0249 Z" fill="url(#gradient2)"/>		</g>		<path d="M 681.4014 117.6963 C 681.4014 123.9902 676.2988 129.5 670.0039 129.5 C 663.71 129.5 658.6074 123.9902 658.6074 117.6963 C 658.6074 110.166 663.71 99.8887 670.0039 99.8887 C 676.2988 99.8887 681.4014 110.166 681.4014 117.6963 Z" fill="url(#gradient3)"/>		<path d="M 700.7529 116.4629 C 701.4248 122.7207 696.9395 128.7432 690.6807 129.415 C 684.4229 130.0869 678.7617 125.1533 678.0898 118.8955 C 677.2861 111.4082 681.2627 100.645 687.5205 99.9731 C 693.7793 99.3013 699.9502 108.9756 700.7529 116.4629 Z" fill="url(#gradient4)"/>		<path d="M 639.6211 116.4629 C 638.9492 122.7207 643.4346 128.7432 649.6934 129.415 C 655.9512 130.0869 661.6123 125.1533 662.2842 118.8955 C 663.0879 111.4082 659.1113 100.645 652.8535 99.9731 C 646.5947 99.3013 640.4238 108.9756 639.6211 116.4629 Z" fill="url(#gradient5)"/>		<path d="M 364.9854 125.2617 L 359.1953 126.498 L 362.1592 124.5586 C 362.667 124.2266 362.8096 123.5449 362.4766 123.0361 C 362.1436 122.5283 361.4629 122.3848 360.9541 122.7188 L 355.3896 126.3613 L 353.252 118.7305 C 358.332 115.5342 361.7188 109.8926 361.7188 103.4473 C 361.7188 100.7168 361.0947 98.1377 360.0107 95.8164 C 364.3682 93.8027 367.6396 89.8555 368.7217 85.0664 L 373.6689 82.1533 L 368.9502 79.4277 C 367.8896 71.8096 361.3662 65.9395 353.4551 65.9395 C 344.8037 65.9395 337.791 72.9531 337.791 81.6025 C 337.791 83.1846 338.0303 84.71 338.4668 86.1504 C 332.6006 87.9082 328 92.5645 326.3076 98.459 L 321.2993 93.4502 C 317.772 96.9775 317.772 102.6953 321.2993 106.2227 C 321.332 106.2549 321.3677 106.2822 321.4009 106.3145 L 318.3311 106.3145 C 318.3311 111.3027 322.374 115.3457 327.3623 115.3457 C 328.2021 115.3457 329.0117 115.2227 329.7832 115.0078 C 331.2095 116.7178 332.9473 118.1572 334.9077 119.2451 L 332.2856 128.1406 L 328.6846 127.7676 C 328.0806 127.7041 327.5396 128.1436 327.4771 128.7471 C 327.4141 129.3516 327.8535 129.8916 328.4575 129.9551 L 332.6797 130.3926 L 340.9268 134.3896 C 341.0449 134.4473 341.1689 134.4814 341.2925 134.4941 C 341.7402 134.541 342.189 134.3076 342.3965 133.8799 C 342.6611 133.333 342.4326 132.6748 341.8857 132.4102 L 339.0977 131.0586 L 344.6206 131.6309 C 345.2246 131.6934 345.7656 131.2549 345.8281 130.6504 C 345.8906 130.0469 345.4517 129.5059 344.8477 129.4434 L 338.6899 128.8047 L 342.4121 127.7227 C 342.9956 127.5527 343.3306 126.9424 343.1611 126.3584 C 342.9907 125.7754 342.3809 125.4404 341.7974 125.6104 L 335.8037 127.3545 L 338.1636 120.6533 C 339.8965 121.2061 341.7407 121.5098 343.6567 121.5098 C 345.8354 121.5098 347.9141 121.1045 349.8481 120.3975 L 352.6226 127.9023 L 349.0942 128.6553 C 348.5 128.7822 348.1211 129.3672 348.248 129.9609 C 348.3584 130.4775 348.8149 130.832 349.3228 130.832 C 349.3989 130.832 349.4761 130.8232 349.5532 130.8076 L 353.6982 129.9229 L 362.7998 131.3486 C 362.8574 131.3574 362.915 131.3623 362.9717 131.3623 C 363.5039 131.3623 363.9717 130.9746 364.0576 130.4316 C 364.1514 129.832 363.7412 129.2686 363.1406 129.1748 L 359.7139 128.6377 L 365.4443 127.4141 C 366.0381 127.2871 366.417 126.7021 366.29 126.1084 C 366.1631 125.5146 365.5771 125.1436 364.9854 125.2617 Z" fill="url(#gradient6)"/>		<path d="M 547.7295 95.873 L 554.3086 92.5977 L 547.9893 89.498 C 546.7734 81.5898 539.958 75.5254 531.709 75.5254 C 524.0879 75.5254 517.6914 80.7012 515.7998 87.7227 L 507.6875 71.3379 C 503.6475 73.3369 500.502 76.4238 498.4307 80.0684 L 492 73.6377 C 485.0605 80.5781 483.793 91.0352 488.1875 99.2666 L 474.7617 99.2666 C 474.7617 114.1143 492.0605 126.1475 506.9063 126.1475 C 518.5117 126.1475 528.4004 118.7939 532.1631 108.4902 C 539.7393 108.2822 546.0254 102.9766 547.7295 95.873 Z" fill="url(#gradient7)"/>		<path d="M 712.459 81.207 L 715.748 79.5693 L 712.5879 78.0195 C 711.9805 74.0654 708.5723 71.0332 704.4482 71.0332 C 700.6377 71.0332 697.4395 73.6211 696.4941 77.1318 L 692.4375 68.9395 C 690.418 69.9395 688.8447 71.4824 687.8086 73.3047 L 684.5938 70.0898 C 681.124 73.5596 680.4902 78.7881 682.6875 82.9043 L 675.9746 82.9043 C 675.9746 90.3281 684.624 96.3447 692.0469 96.3447 C 697.8496 96.3447 702.7939 92.668 704.6758 87.5156 C 708.4629 87.4121 711.6064 84.7588 712.459 81.207 Z" fill="url(#gradient8)"/>		<path d="M 876.2363 107.0303 C 878.1094 105.5332 879.3125 103.2324 879.3125 100.6475 C 879.3125 96.1328 875.6523 92.4736 871.1387 92.4736 C 866.624 92.4736 862.9648 96.1328 862.9648 100.6475 C 862.9648 101.083 863.0098 101.5078 863.0762 101.9258 L 851.9219 101.9258 C 849.8213 97.498 845.0918 93.6328 839.4414 90.8447 C 839.3018 90.8672 839.166 90.8936 839.0244 90.9092 C 837.873 93.5215 835.2686 95.3535 832.2285 95.3535 C 831.4512 95.3535 830.7148 95.1992 830.0098 94.9775 C 828.6865 96.1953 826.9355 96.9561 824.9961 96.9561 C 823.0557 96.9561 821.3037 96.1934 819.9805 94.9746 C 819.2754 95.1973 818.5391 95.3496 817.7598 95.3496 C 814.7178 95.3496 812.1113 93.5186 810.9619 90.9023 C 810.0879 90.8018 809.2646 90.542 808.5088 90.167 C 803.1309 93.918 799.4912 99.9863 799.4912 106.8574 C 799.4912 118.252 809.4658 127.4883 820.8604 127.4883 C 832.3086 127.4883 847.2617 120.9717 851.7578 112.1348 L 863.0762 112.1348 C 863.0107 112.5518 862.9648 112.9766 862.9648 113.4141 C 862.9648 117.9287 866.624 121.5889 871.1387 121.5889 C 875.6523 121.5889 879.3125 117.9287 879.3125 113.4141 C 879.3125 110.8281 878.1094 108.5283 876.2363 107.0303 Z" fill="url(#gradient9)"/>	</g></svg>