<?xml version="1.0" standalone="no"?><!-- Generator: Adobe Fireworks CS6, Export SVG Extension by Aaron Beall (http://fireworks.abeall.com) . Version: 0.6.1  --><!DOCTYPE svg PUBLIC "-//W3C//DTD SVG 1.1//EN" "http://www.w3.org/Graphics/SVG/1.1/DTD/svg11.dtd"><svg id="v17e-Primer-assets.fw-exp" viewBox="0 0 300 200" style="background-color:#ffffff00" version="1.1"	xmlns="http://www.w3.org/2000/svg" xmlns:xlink="http://www.w3.org/1999/xlink" xml:space="preserve"	x="0px" y="0px" width="300px" height="200px">	<g id="section-1-everyone">		<path d="M 75 184 C 116.4218 184 150 150.4218 150 109 C 150 67.5782 116.4218 34 75 34 C 33.5782 34 0 67.5782 0 109 C 0 150.4218 33.5782 184 75 184 " fill="#00b0da"/>		<path d="M 75 52.957 C 43.5293 52.957 17.928 78.1998 17.928 109.2168 C 17.928 140.239 43.5293 165.475 75 165.475 C 106.4707 165.475 132.072 140.2397 132.072 109.2168 C 132.072 78.2005 106.4707 52.957 75 52.957 M 123.6735 109.2168 C 123.6735 120.1915 119.8972 130.3135 113.592 138.4082 C 111.8085 137.0283 109.914 133.3225 111.6975 129.4758 C 113.4945 125.6072 113.964 116.6568 113.5567 113.1738 C 113.1607 109.693 111.3255 101.299 106.335 101.2202 C 101.3573 101.146 97.9395 99.523 94.977 93.7007 C 88.8345 81.583 106.5082 79.2572 100.3657 72.5433 C 98.6445 70.6615 89.7645 80.3013 88.4648 67.4523 C 88.3777 66.541 89.268 65.1677 90.4575 63.739 C 109.74 70.1245 123.6735 88.0892 123.6735 109.2168 M 68.3123 61.711 C 67.1467 63.9453 64.077 64.8528 62.2057 66.535 C 58.1437 70.1605 56.3977 69.6595 54.2048 73.1387 C 52.0005 76.618 44.8897 81.6362 44.8897 84.1525 C 44.8897 86.6665 48.483 89.6395 50.2785 89.0605 C 52.0755 88.4792 56.8065 88.5115 59.5927 89.4753 C 62.3798 90.4458 82.8645 91.4163 76.3372 108.4855 C 74.2687 113.9102 65.2027 112.996 62.7885 121.987 C 62.4292 123.2995 61.1783 128.935 61.0912 130.7778 C 60.942 133.6232 63.135 144.361 60.348 144.361 C 57.5497 144.361 50.019 134.7572 50.019 133.0172 C 50.019 131.2787 48.063 125.173 48.063 119.9492 C 48.063 114.7225 39.0465 114.8088 39.0465 107.8623 C 39.0465 101.593 43.938 98.479 42.8363 95.4753 C 41.7585 92.4895 33.1642 92.3792 29.5838 92.02 C 35.8372 76.0143 50.5643 64.129 68.3123 61.711 M 59.6917 154.7485 C 62.6145 153.2282 62.9115 151.264 65.5627 151.1545 C 68.5965 151.0187 71.0617 149.986 74.4803 149.2495 C 77.5132 148.5948 82.9388 145.5617 87.72 145.1703 C 91.7445 144.8477 99.696 145.3788 101.8395 149.2142 C 94.1355 154.255 84.9075 157.1987 75 157.1987 C 69.6495 157.198 64.509 156.3288 59.6917 154.7485 " fill="#82d1f5"/>	</g></svg>