<?xml version="1.0" standalone="no"?><!-- Generator: Adobe Fireworks CS6, Export SVG Extension by Aaron Beall (http://fireworks.abeall.com) . Version: 0.6.1  --><!DOCTYPE svg PUBLIC "-//W3C//DTD SVG 1.1//EN" "http://www.w3.org/Graphics/SVG/1.1/DTD/svg11.dtd"><svg id="v17e-Primer-assets.fw-exp" viewBox="0 0 300 200" style="background-color:#ffffff00" version="1.1"	xmlns="http://www.w3.org/2000/svg" xmlns:xlink="http://www.w3.org/1999/xlink" xml:space="preserve"	x="0px" y="0px" width="300px" height="200px">	<defs>				<mask id="mask1">					<rect id="SVGID_2_" x="-0.0675" y="34.4838" width="150" height="150" fill="#ffffff"/>				</mask>				<mask id="mask2">					<rect id="SVGID_4_" x="-0.0675" y="34.4838" width="150" height="150" fill="#ffffff"/>				</mask>				<mask id="mask3">					<rect id="SVGID_6_" x="-0.0675" y="34.4838" width="150" height="150" fill="#ffffff"/>				</mask>				<mask id="mask4">					<rect id="SVGID_8_" x="-0.0675" y="34.4838" width="150" height="150" fill="#ffffff"/>				</mask>				<mask id="mask5">					<rect id="SVGID_10_" x="-0.0675" y="34.4838" width="150" height="150" fill="#ffffff"/>				</mask>				<mask id="mask6">					<rect id="SVGID_12_" x="-0.0675" y="34.4838" width="150" height="150" fill="#ffffff"/>				</mask>				<mask id="mask7">					<rect id="SVGID_14_" x="-0.0675" y="34.4838" width="150" height="150" fill="#ffffff"/>				</mask>				<mask id="mask8">					<rect id="SVGID_16_" x="-0.0675" y="34.4838" width="150" height="150" fill="#ffffff"/>				</mask>				<mask id="mask9">					<rect id="SVGID_18_" x="-0.0675" y="34.4838" width="150" height="150" fill="#ffffff"/>				</mask>				<mask id="mask10">					<rect id="SVGID_20_" x="-0.0675" y="34.4838" width="150" height="150" fill="#ffffff"/>				</mask>				<mask id="mask11">					<rect id="SVGID_22_" x="-0.0675" y="34.4838" width="150" height="150" fill="#ffffff"/>				</mask>	</defs>	<g id="bg">	</g>	<g id="Layer%202">		<g id="section-1-experience" visibility="hidden">			<g>				<path mask="url(#mask1)" d="M 75 184 C 116.4218 184 150 150.4218 150 109 C 150 67.5782 116.4218 34 75 34 C 33.5783 34 0 67.5782 0 109 C 0 150.4218 33.5783 184 75 184 " fill="#ffce01"/>				<path mask="url(#mask2)" d="M 29.4285 131.6088 C 29.298 131.6088 29.1825 131.302 29.1825 131.1715 L 29.1825 73.7508 C 29.1825 71.8083 30.7755 70.1088 32.7188 70.1088 L 117.6346 70.1088 C 119.5785 70.1088 121.4325 71.8083 121.4325 73.7508 L 121.4325 131.1715 C 121.4325 131.302 121.0545 131.6088 120.924 131.6088 L 29.4285 131.6088 L 29.4285 131.6088 Z" fill="#58595b"/>				<path mask="url(#mask3)" d="M 120.6825 130.8588 L 120.6825 73.7515 C 120.6825 71.9335 119.4503 70.1088 117.6346 70.1088 L 32.7188 70.1088 C 30.9015 70.1088 29.1825 71.9343 29.1825 73.7515 L 29.1825 130.8588 L 120.6825 130.8588 L 120.6825 130.8588 Z" fill="#312f30"/>			</g>			<rect x="32.9325" y="74.9838" width="84.75" height="52.5" fill="#ffffff"/>			<g>				<path mask="url(#mask4)" d="M 23.2253 136.8588 C 19.8195 136.8588 15.3225 135.577 13.3905 134.6995 C 13.3065 134.6613 13.4333 134.5645 13.4333 134.4723 L 13.4333 130.8775 C 13.4333 130.7485 13.176 130.8588 13.3058 130.8588 L 135.1965 130.8588 C 135.327 130.8588 135.6833 130.7493 135.6833 130.8775 L 135.6833 134.4723 C 135.6833 134.5645 135.5033 134.6613 135.4185 134.6995 C 133.485 135.577 128.6813 136.8588 125.2763 136.8588 L 23.2253 136.8588 L 23.2253 136.8588 Z" fill="#312f30"/>				<path mask="url(#mask5)" d="M 83.9325 130.8588 L 83.9325 131.53 C 83.9325 132.1788 83.0258 132.3588 82.377 132.3588 L 67.704 132.3588 C 67.0553 132.3588 66.6833 132.1788 66.6833 131.53 L 66.6833 130.8588 L 14.1825 130.8588 L 14.1825 134.6088 L 135.6825 134.6088 L 135.6825 130.8588 L 83.9325 130.8588 L 83.9325 130.8588 Z" fill="#58595b"/>				<path mask="url(#mask6)" d="M 96.6825 84.1435 C 96.6825 82.6315 95.6363 81.3588 94.1243 81.3588 L 55.8758 81.3588 C 54.363 81.3588 53.1825 82.6315 53.1825 84.1435 L 53.1825 143.842 C 53.1825 145.3555 54.363 146.6088 55.8758 146.6088 L 94.1243 146.6088 C 95.637 146.6088 96.6825 145.354 96.6825 143.842 L 96.6825 84.1435 L 96.6825 84.1435 Z" fill="#000000"/>			</g>			<rect x="55.4325" y="87.7338" width="39.75" height="53.25" fill="#ffffff"/>			<g>				<path mask="url(#mask7)" d="M 75.3533 142.777 C 75.4995 142.777 75.6188 142.8955 75.6188 143.0418 L 75.6188 143.7483 C 75.6188 143.8945 75.5003 144.0137 75.3533 144.0137 L 74.6468 144.0137 C 74.5005 144.0137 74.382 143.8945 74.382 143.7483 L 74.382 143.0418 C 74.382 142.897 74.4998 142.777 74.6468 142.777 L 75.3533 142.777 L 75.3533 142.777 ZM 75.606 142.8588 L 74.6453 142.8588 C 74.3858 142.8588 74.106 142.7808 74.106 143.0403 L 74.106 143.7475 C 74.106 144.0085 74.3858 144.3573 74.6453 144.3573 L 75.3525 144.3573 C 75.6128 144.3573 75.606 144.007 75.606 143.7475 L 75.606 143.0403 C 75.606 142.7793 75.6128 142.8588 75.3525 142.8588 " fill="#979898"/>				<path mask="url(#mask8)" d="M 76.7535 143.395 C 76.7535 144.3633 75.9683 145.1485 75 145.1485 C 74.0318 145.1485 73.2465 144.3633 73.2465 143.395 C 73.2465 142.4268 74.0318 141.6415 75 141.6415 C 75.9683 141.6415 76.7535 142.4268 76.7535 143.395 " fill="#979898"/>				<path mask="url(#mask9)" d="M 84.6825 116.5788 C 84.6825 115.0675 83.673 113.6088 82.1618 113.6088 L 67.8383 113.6088 C 66.3263 113.6088 65.1825 115.0675 65.1825 116.5788 L 65.1825 152.092 C 65.1825 153.6055 66.3263 154.8588 67.8383 154.8588 L 82.1618 154.8588 C 83.6745 154.8588 84.6825 153.604 84.6825 152.092 L 84.6825 116.5788 L 84.6825 116.5788 Z" fill="#000000"/>				<path mask="url(#mask10)" d="M 75.3533 150.94 C 75.4995 150.94 75.6188 151.0585 75.6188 151.2048 L 75.6188 151.9128 C 75.6188 152.0575 75.5003 152.1783 75.3533 152.1783 L 74.6468 152.1783 C 74.5005 152.1783 74.382 152.0598 74.382 151.9128 L 74.382 151.2048 C 74.382 151.0608 74.4998 150.94 74.6468 150.94 L 75.3533 150.94 L 75.3533 150.94 ZM 75.606 151.1088 L 74.6453 151.1088 C 74.3858 151.1088 74.106 150.9453 74.106 151.2048 L 74.106 151.9128 C 74.106 152.1722 74.3858 152.6088 74.6453 152.6088 L 75.3525 152.6088 C 75.6128 152.6088 75.606 152.1722 75.606 151.9128 L 75.606 151.2048 C 75.606 150.9453 75.6128 151.1088 75.3525 151.1088 " fill="#979898"/>				<path mask="url(#mask11)" d="M 76.7535 151.5603 C 76.7535 152.5285 75.9683 153.3138 75 153.3138 C 74.0318 153.3138 73.2465 152.5285 73.2465 151.5603 C 73.2465 150.592 74.0318 149.8068 75 149.8068 C 75.9683 149.8068 76.7535 150.592 76.7535 151.5603 " fill="#979898"/>			</g>			<rect x="66.6825" y="120.7338" width="16.5" height="27.75" fill="#ffffff"/>		</g>		<g id="section-1-efficiency">			<path d="M 75 184 C 116.4218 184 150 150.4218 150 109 C 150 67.5782 116.4218 34 75 34 C 33.5782 34 0 67.5782 0 109 C 0 150.4218 33.5782 184 75 184 " fill="#8cc63f"/>			<path d="M 65.169 105.925 C 61.545 112.2025 63.9885 117.3685 69.012 120.268 C 74.0332 123.1682 79.731 122.7025 83.3542 116.4258 C 86.9783 110.149 109.8517 54.1292 107.8628 52.9772 C 105.87 51.8298 68.793 99.6482 65.169 105.925 " fill="#00512b"/>			<path opacity="0.502" d="M 75 66.025 C 77.2957 66.025 79.5382 66.223 81.7245 66.5928 C 84.0255 63.7157 86.598 60.541 89.1053 57.5252 C 84.6308 56.2292 79.9065 55.525 75 55.525 C 45.561 55.525 22.5 80.3485 22.5 112.0383 C 22.5 113.9883 22.5862 115.9382 22.7558 117.8372 C 23.0145 120.727 25.5923 122.851 28.452 122.5998 C 31.3403 122.3418 33.4717 119.7917 33.2145 116.9035 C 33.0728 115.3135 33.0008 113.677 33.0008 112.0383 C 33 86.2368 51.4485 66.025 75 66.025 " fill="#00512b"/>			<path opacity="0.502" d="M 115.8952 72.583 C 114.432 76.5182 112.8795 80.5322 111.5182 84.0033 C 116.8582 91.7148 120 101.3988 120 112.0383 C 120 113.7025 119.925 115.3705 119.7757 116.9987 C 119.5133 119.887 121.6403 122.44 124.5293 122.7032 C 124.6905 122.7175 124.8502 122.7235 125.0115 122.7235 C 127.6957 122.7235 129.9863 120.676 130.2338 117.9512 C 130.4092 116.0065 130.5 114.0182 130.5 112.0368 C 130.5 96.541 124.9747 82.696 115.8952 72.583 " fill="#00512b"/>			<g>				<g>					<path d="M 63 151 L 63 156.25 L 51 156.25 L 51 153.1645 L 57.7515 146.4423 C 58.7775 145.4433 59.9805 144.3363 59.9805 142.7988 C 59.9805 141.1787 58.5855 140.14 57.0195 140.14 C 55.2105 140.14 53.949 141.25 54.03 143.5 L 50.547 143.5 C 50.52 139.75 53.3002 136.576 57.1613 136.576 C 60.6435 136.576 63.4245 139.3225 63.4245 142.8325 C 63.4245 145.6667 61.6965 147.2725 59.7525 149.0545 L 55.1902 153.25 L 60 153.25 L 60 151 L 63 151 L 63 151 Z" fill="#ffffff"/>					<path d="M 69 149.2765 C 69 150.2755 69.129 151.1673 69.7222 152.0305 C 70.3432 152.9215 71.4202 153.3265 72.5002 153.3265 C 73.6342 153.3265 74.691 152.842 75.2858 151.8423 C 75.7717 151.0323 75.75 150.1953 75.75 149.2773 L 75.75 143.824 C 75.75 142.825 75.7965 141.934 75.1763 141.07 C 74.5815 140.179 73.566 139.747 72.5137 139.747 C 71.3798 139.747 70.1888 140.26 69.5948 141.259 C 69.0818 142.069 68.9992 142.9052 68.9992 143.824 L 69 149.2765 L 69 149.2765 L 69 149.2765 ZM 79.5 149.2233 C 79.5 151.3015 79.1835 152.8135 77.7 154.3525 C 76.323 155.7565 74.4922 156.6198 72.5197 156.6198 C 70.7115 156.6198 68.7908 155.863 67.4685 154.6217 C 65.7945 153.0565 65.2508 151.4635 65.2508 149.2233 L 65.2508 143.824 C 65.2508 141.7457 65.715 140.2337 67.2 138.694 C 68.5508 137.2907 70.497 136.4545 72.4402 136.4545 C 74.2755 136.4545 76.065 137.1835 77.388 138.4247 C 79.0612 139.9908 79.5008 141.583 79.5008 143.824 L 79.5 149.2233 L 79.5 149.2233 L 79.5 149.2233 Z" fill="#ffffff"/>					<path d="M 85.5 149.2765 C 85.5 150.2755 85.5735 151.1673 86.1667 152.0305 C 86.7878 152.9215 87.8378 153.3265 88.9178 153.3265 C 90.0518 153.3265 91.1512 152.842 91.746 151.8423 C 92.2305 151.0323 92.2515 150.1953 92.2515 149.2773 L 92.2515 143.824 C 92.2515 142.825 92.2425 141.934 91.6223 141.07 C 91.0275 140.179 89.9827 139.747 88.932 139.747 C 87.7973 139.747 86.649 140.26 86.055 141.259 C 85.5412 142.069 85.5015 142.9052 85.5015 143.824 L 85.5 149.2765 L 85.5 149.2765 L 85.5 149.2765 ZM 96 149.2233 C 96 151.3015 95.628 152.8135 94.1437 154.3525 C 92.7668 155.7565 90.9075 156.6198 88.9357 156.6198 C 87.1275 156.6198 85.248 155.863 83.925 154.6217 C 82.2525 153.0565 81.75 151.4635 81.75 149.2233 L 81.75 143.824 C 81.75 141.7457 82.1588 140.2337 83.6423 138.694 C 84.9937 137.2907 86.9108 136.4545 88.8555 136.4545 C 90.69 136.4545 92.5222 137.1835 93.8438 138.4247 C 95.517 139.9908 95.9985 141.583 95.9985 143.824 L 96 149.2233 L 96 149.2233 L 96 149.2233 Z" fill="#ffffff"/>				</g>				<path d="M 108.699 144.6235 C 108.699 143.9942 108.18 143.4588 107.5492 143.4588 C 106.9207 143.4588 106.386 143.9628 106.386 144.607 C 106.386 145.2513 106.9043 145.7867 107.565 145.7867 C 108.195 145.7882 108.699 145.2527 108.699 144.6235 L 108.699 144.6235 ZM 104.748 144.592 C 104.748 143.0658 106.0073 141.838 107.5177 141.838 C 109.0598 141.838 110.3347 143.0658 110.3347 144.607 C 110.3347 146.1497 109.0913 147.424 107.5485 147.424 C 105.9757 147.424 104.748 146.1497 104.748 144.592 L 104.748 144.592 ZM 100.752 147.25 L 105.819 136 L 107.3617 136 L 102.3105 147.25 L 100.752 147.25 L 100.752 147.25 ZM 101.7585 138.5807 C 101.7585 137.9357 101.2402 137.416 100.5938 137.416 C 99.9645 137.416 99.4455 137.92 99.4455 138.5485 C 99.4455 139.21 99.9495 139.729 100.6103 139.729 C 101.2395 139.7298 101.7585 139.21 101.7585 138.5807 L 101.7585 138.5807 ZM 97.809 138.5342 C 97.809 137.023 99.0833 135.7802 100.5772 135.7802 C 102.12 135.7802 103.3943 137.023 103.3943 138.5658 C 103.3943 140.1078 102.1665 141.3662 100.6095 141.3662 C 99.0368 141.3662 97.809 140.092 97.809 138.5342 L 97.809 138.5342 Z" fill="#ffffff"/>			</g>		</g>		<g id="section-1-everyone" visibility="hidden">			<path d="M 75 184 C 116.4218 184 150 150.4218 150 109 C 150 67.5782 116.4218 34 75 34 C 33.5782 34 0 67.5782 0 109 C 0 150.4218 33.5782 184 75 184 " fill="#00b0da"/>			<path d="M 75 52.957 C 43.5293 52.957 17.928 78.1998 17.928 109.2168 C 17.928 140.239 43.5293 165.475 75 165.475 C 106.4707 165.475 132.072 140.2397 132.072 109.2168 C 132.072 78.2005 106.4707 52.957 75 52.957 M 123.6735 109.2168 C 123.6735 120.1915 119.8972 130.3135 113.592 138.4082 C 111.8085 137.0283 109.914 133.3225 111.6975 129.4758 C 113.4945 125.6072 113.964 116.6568 113.5567 113.1738 C 113.1607 109.693 111.3255 101.299 106.335 101.2202 C 101.3573 101.146 97.9395 99.523 94.977 93.7007 C 88.8345 81.583 106.5082 79.2572 100.3657 72.5433 C 98.6445 70.6615 89.7645 80.3013 88.4648 67.4523 C 88.3777 66.541 89.268 65.1677 90.4575 63.739 C 109.74 70.1245 123.6735 88.0892 123.6735 109.2168 M 68.3123 61.711 C 67.1467 63.9453 64.077 64.8528 62.2057 66.535 C 58.1437 70.1605 56.3977 69.6595 54.2048 73.1387 C 52.0005 76.618 44.8897 81.6362 44.8897 84.1525 C 44.8897 86.6665 48.483 89.6395 50.2785 89.0605 C 52.0755 88.4792 56.8065 88.5115 59.5927 89.4753 C 62.3798 90.4458 82.8645 91.4163 76.3372 108.4855 C 74.2687 113.9102 65.2027 112.996 62.7885 121.987 C 62.4292 123.2995 61.1783 128.935 61.0912 130.7778 C 60.942 133.6232 63.135 144.361 60.348 144.361 C 57.5497 144.361 50.019 134.7572 50.019 133.0172 C 50.019 131.2787 48.063 125.173 48.063 119.9492 C 48.063 114.7225 39.0465 114.8088 39.0465 107.8623 C 39.0465 101.593 43.938 98.479 42.8363 95.4753 C 41.7585 92.4895 33.1642 92.3792 29.5838 92.02 C 35.8372 76.0143 50.5643 64.129 68.3123 61.711 M 59.6917 154.7485 C 62.6145 153.2282 62.9115 151.264 65.5627 151.1545 C 68.5965 151.0187 71.0617 149.986 74.4803 149.2495 C 77.5132 148.5948 82.9388 145.5617 87.72 145.1703 C 91.7445 144.8477 99.696 145.3788 101.8395 149.2142 C 94.1355 154.255 84.9075 157.1987 75 157.1987 C 69.6495 157.198 64.509 156.3288 59.6917 154.7485 " fill="#82d1f5"/>		</g>	</g></svg>