<?xml version="1.0" standalone="no"?><!-- Generator: Adobe Fireworks CS6, Export SVG Extension by Aaron Beall (http://fireworks.abeall.com) . Version: 0.6.1  --><!DOCTYPE svg PUBLIC "-//W3C//DTD SVG 1.1//EN" "http://www.w3.org/Graphics/SVG/1.1/DTD/svg11.dtd"><svg id="v17e-Primer-b.fw-Styles" viewBox="0 0 1200 1600" style="background-color:#f5f5f5" version="1.1"	xmlns="http://www.w3.org/2000/svg" xmlns:xlink="http://www.w3.org/1999/xlink" xml:space="preserve"	x="0px" y="0px" width="1200px" height="1600px">	<defs>		<linearGradient id="gradient3" x1="50%" y1="0%" x2="50%" y2="100%">			<stop stop-color="#82d1f5" stop-opacity="1" offset="0%"/>			<stop stop-color="#008abf" stop-opacity="1" offset="100%"/>		</linearGradient>		<linearGradient id="gradient4" x1="50%" y1="0%" x2="50%" y2="100%">			<stop stop-color="#f04e37" stop-opacity="1" offset="0%"/>			<stop stop-color="#a91024" stop-opacity="1" offset="100%"/>		</linearGradient>		<linearGradient id="gradient5" x1="50%" y1="0%" x2="50%" y2="100%">			<stop stop-color="#f19027" stop-opacity="1" offset="0%"/>			<stop stop-color="#b8471b" stop-opacity="1" offset="100%"/>		</linearGradient>		<linearGradient id="gradient6" x1="50%" y1="0%" x2="50%" y2="100%">			<stop stop-color="#00b2ef" stop-opacity="1" offset="0%"/>			<stop stop-color="#003f69" stop-opacity="1" offset="100%"/>		</linearGradient>		<linearGradient id="gradient7" x1="50%" y1="0%" x2="50%" y2="100%">			<stop stop-color="#d9182d" stop-opacity="1" offset="0%"/>			<stop stop-color="#7e2322" stop-opacity="1" offset="100%"/>		</linearGradient>		<linearGradient id="gradient8" x1="50%" y1="0%" x2="50%" y2="100%">			<stop stop-color="#dd731c" stop-opacity="1" offset="0%"/>			<stop stop-color="#813117" stop-opacity="1" offset="100%"/>		</linearGradient>		<linearGradient id="gradient9" x1="50%" y1="0%" x2="50%" y2="100%">			<stop stop-color="#008abf" stop-opacity="1" offset="0%"/>			<stop stop-color="#003f69" stop-opacity="1" offset="100%"/>		</linearGradient>		<linearGradient id="gradient10" x1="50%" y1="0%" x2="50%" y2="100%">			<stop stop-color="#f389af" stop-opacity="1" offset="0%"/>			<stop stop-color="#ba006e" stop-opacity="1" offset="100%"/>		</linearGradient>		<linearGradient id="gradient11" x1="50%" y1="0%" x2="50%" y2="100%">			<stop stop-color="#ffe14f" stop-opacity="1" offset="0%"/>			<stop stop-color="#f19027" stop-opacity="1" offset="100%"/>		</linearGradient>		<linearGradient id="gradient12" x1="50%" y1="0%" x2="50%" y2="100%">			<stop stop-color="#003f69" stop-opacity="1" offset="0%"/>			<stop stop-color="#001934" stop-opacity="1" offset="100%"/>		</linearGradient>		<linearGradient id="gradient13" x1="50%" y1="0%" x2="50%" y2="100%">			<stop stop-color="#ee3d96" stop-opacity="1" offset="0%"/>			<stop stop-color="#8c0052" stop-opacity="1" offset="100%"/>		</linearGradient>		<linearGradient id="gradient14" x1="50%" y1="0%" x2="50%" y2="100%">			<stop stop-color="#ffcf01" stop-opacity="1" offset="0%"/>			<stop stop-color="#dd731c" stop-opacity="1" offset="100%"/>		</linearGradient>		<linearGradient id="gradient15" x1="50%" y1="0%" x2="50%" y2="100%">			<stop stop-color="#4982c3" stop-opacity="1" offset="0%"/>			<stop stop-color="#335c8a" stop-opacity="1" offset="100%"/>		</linearGradient>		<linearGradient id="gradient16" x1="50%" y1="0%" x2="50%" y2="100%">			<stop stop-color="#ab1a86" stop-opacity="1" offset="0%"/>			<stop stop-color="#3b0256" stop-opacity="1" offset="99.495%"/>			<stop stop-color="#3b0256" stop-opacity="1" offset="100%"/>		</linearGradient>		<linearGradient id="gradient17" x1="50%" y1="0%" x2="50%" y2="100%">			<stop stop-color="#fdb813" stop-opacity="1" offset="0%"/>			<stop stop-color="#b8471b" stop-opacity="1" offset="100%"/>		</linearGradient>		<linearGradient id="gradient18" x1="50%" y1="0%" x2="50%" y2="100%">			<stop stop-color="#00649d" stop-opacity="1" offset="0%"/>			<stop stop-color="#003f69" stop-opacity="1" offset="100%"/>		</linearGradient>		<linearGradient id="gradient19" x1="50%" y1="0%" x2="50%" y2="100%">			<stop stop-color="#838329" stop-opacity="1" offset="0%"/>			<stop stop-color="#3c3900" stop-opacity="1" offset="100%"/>		</linearGradient>		<linearGradient id="gradient20" x1="50%" y1="0%" x2="50%" y2="100%">			<stop stop-color="#c5932d" stop-opacity="1" offset="0%"/>			<stop stop-color="#813117" stop-opacity="1" offset="100%"/>		</linearGradient>		<linearGradient id="gradient21" x1="50%" y1="0%" x2="50%" y2="100%">			<stop stop-color="#333333" stop-opacity="1" offset="0%"/>			<stop stop-color="#000000" stop-opacity="1" offset="100%"/>		</linearGradient>		<linearGradient id="gradient22" x1="47.5%" y1="-15%" x2="47.5%" y2="82.5%">			<stop stop-color="#000000" stop-opacity="0.098" offset="0%"/>			<stop stop-color="#000000" stop-opacity="0" offset="100%"/>		</linearGradient>		<linearGradient id="gradient23" x1="50%" y1="0%" x2="50%" y2="100%">			<stop stop-color="#000000" stop-opacity="1" offset="0%"/>			<stop stop-color="#333333" stop-opacity="1" offset="100%"/>		</linearGradient>		<linearGradient id="gradient24" x1="52.5%" y1="112.5%" x2="52.5%" y2="37.5%">			<stop stop-color="#000000" stop-opacity="0.098" offset="0%"/>			<stop stop-color="#000000" stop-opacity="0" offset="100%"/>		</linearGradient>		<linearGradient id="gradient25" x1="50%" y1="0%" x2="50%" y2="100%">			<stop stop-color="#7f7f7f" stop-opacity="1" offset="0%"/>			<stop stop-color="#111111" stop-opacity="1" offset="100%"/>		</linearGradient>		<linearGradient id="gradient26" x1="50%" y1="0%" x2="50%" y2="100%">			<stop stop-color="#bbbbbb" stop-opacity="1" offset="0%"/>			<stop stop-color="#f7f7f7" stop-opacity="1" offset="100%"/>		</linearGradient>		<linearGradient id="gradient27" x1="50%" y1="0%" x2="50%" y2="100%">			<stop stop-color="#666666" stop-opacity="1" offset="0%"/>			<stop stop-color="#111111" stop-opacity="1" offset="100%"/>		</linearGradient>		<linearGradient id="gradient28" x1="50%" y1="0%" x2="50%" y2="100%">			<stop stop-color="#eeeeee" stop-opacity="1" offset="0%"/>			<stop stop-color="#cccccc" stop-opacity="1" offset="100%"/>		</linearGradient>		<linearGradient id="gradient29" x1="50%" y1="0%" x2="50%" y2="100%">			<stop stop-color="#595c64" stop-opacity="1" offset="0%"/>			<stop stop-color="#1b1b1c" stop-opacity="1" offset="100%"/>		</linearGradient>		<linearGradient id="gradient30" x1="50%" y1="0%" x2="50%" y2="100%">			<stop stop-color="#999999" stop-opacity="1" offset="0%"/>			<stop stop-color="#eeeeee" stop-opacity="1" offset="100%"/>		</linearGradient>		<radialGradient id="gradient31" cx="1.1627%" cy="0%" r="134.3024%">			<stop stop-color="#666666" stop-opacity="1" offset="0%"/>			<stop stop-color="#000000" stop-opacity="1" offset="100%"/>		</radialGradient>		<linearGradient id="gradient32" x1="50%" y1="0%" x2="50%" y2="100%">			<stop stop-color="#e5e5e5" stop-opacity="1" offset="0%"/>			<stop stop-color="#b2b2b2" stop-opacity="1" offset="100%"/>		</linearGradient>		<linearGradient id="gradient33" x1="47.5%" y1="-15%" x2="47.5%" y2="82.5%">			<stop stop-color="#000000" stop-opacity="0.098" offset="0%"/>			<stop stop-color="#000000" stop-opacity="0" offset="100%"/>		</linearGradient>	</defs>	<g id="Styles">		<g id="Solids">			<rect x="130" y="913" width="60" height="60" fill="#ffe14f"/>			<rect x="130" y="1233" width="60" height="60" fill="#00b0da"/>			<rect x="130" y="993" width="60" height="60" fill="#b8471b"/>			<rect x="130" y="1313" width="60" height="60" fill="#006058"/>			<rect x="130" y="1073" width="60" height="60" fill="#f389af"/>			<rect x="130" y="1393" width="60" height="60" fill="#006058"/>			<rect x="130" y="1153" width="60" height="60" fill="#3b0256"/>			<rect x="130" y="1473" width="60" height="60" fill="#a5a215"/>			<rect x="210" y="913" width="60" height="60" fill="#ffcf01"/>			<rect x="210" y="1233" width="60" height="60" fill="#008abf"/>			<rect x="210" y="993" width="60" height="60" fill="#813117"/>			<rect x="210" y="1313" width="60" height="60" fill="#00443d"/>			<rect x="210" y="1073" width="60" height="60" fill="#ee3d96"/>			<rect x="210" y="1393" width="60" height="60" fill="#00443d"/>			<rect x="210" y="1153" width="60" height="60" fill="#28003e"/>			<rect x="210" y="1473" width="60" height="60" fill="#838329"/>			<rect x="290" y="913" width="60" height="60" fill="#fdb813"/>			<rect x="290" y="1233" width="60" height="60" fill="#003f69"/>			<rect x="290" y="993" width="60" height="60" fill="#f04e37"/>			<rect x="290" y="1313" width="60" height="60" fill="#8cc63f"/>			<rect x="290" y="1073" width="60" height="60" fill="#ba006e"/>			<rect x="290" y="1393" width="60" height="60" fill="#8cc63f"/>			<rect x="290" y="1153" width="60" height="60" fill="#82d1f5"/>			<rect x="290" y="1473" width="60" height="60" fill="#594f13"/>			<rect x="370" y="913" width="60" height="60" fill="#c5932d"/>			<rect x="370" y="1233" width="60" height="60" fill="#001934"/>			<rect x="370" y="993" width="60" height="60" fill="#d9182d"/>			<rect x="370" y="1313" width="60" height="60" fill="#17af4b"/>			<rect x="370" y="1073" width="60" height="60" fill="#8c0052"/>			<rect x="370" y="1393" width="60" height="60" fill="#17af4b"/>			<rect x="370" y="1153" width="60" height="60" fill="#00b2ef"/>			<rect x="370" y="1473" width="60" height="60" fill="#3c3900"/>			<rect x="450" y="913" width="60" height="60" fill="#f19027"/>			<rect x="450" y="1233" width="60" height="60" fill="#00a6a0"/>			<rect x="450" y="993" width="60" height="60" fill="#a91024"/>			<rect x="450" y="1313" width="60" height="60" fill="#008a52"/>			<rect x="450" y="1073" width="60" height="60" fill="#ab1a86"/>			<rect x="450" y="1393" width="60" height="60" fill="#008a52"/>			<rect x="450" y="1153" width="60" height="60" fill="#00649d"/>			<rect x="450" y="1473" width="60" height="60" fill="#4982c3"/>			<rect x="530" y="913" width="60" height="60" fill="#dd731c"/>			<rect x="530" y="1233" width="60" height="60" fill="#007670"/>			<rect x="530" y="993" width="60" height="60" fill="#7e2322"/>			<rect x="530" y="1313" width="60" height="60" fill="#00512b"/>			<rect x="530" y="1073" width="60" height="60" fill="#7f1c7d"/>			<rect x="530" y="1393" width="60" height="60" fill="#00512b"/>			<rect x="530" y="1153" width="60" height="60" fill="#004266"/>			<rect x="530" y="1473" width="60" height="60" fill="#58595b"/>		</g>		<g id="Gray%20solid">			<rect x="130" y="473" width="60" height="60" fill="#ffffff"/>			<rect x="130" y="553" width="60" height="60" fill="#000000"/>			<rect x="210" y="473" width="60" height="60" fill="#efefef"/>			<rect x="210" y="553" width="60" height="60" fill="#191919"/>			<rect x="290" y="473" width="60" height="60" fill="#dddddd"/>			<rect x="290" y="553" width="60" height="60" fill="#333333"/>			<rect x="370" y="473" width="60" height="60" fill="#cccccc"/>			<rect x="370" y="553" width="60" height="60" fill="#4c4c4c"/>			<rect x="450" y="473" width="60" height="60" fill="#b2b2b2"/>			<rect x="450" y="553" width="60" height="60" fill="#666666"/>			<rect x="530" y="473" width="60" height="60" fill="#999999"/>			<rect x="530" y="553" width="60" height="60" fill="#7f7f7f"/>		</g>		<g id="Color%20Gradients">			<rect x="130" y="653" width="60" height="60" fill="url(#gradient3)"/>			<rect x="130" y="813" width="60" height="60" fill="url(#gradient4)"/>			<rect x="130" y="733" width="60" height="60" fill="url(#gradient5)"/>			<rect x="210" y="653" width="60" height="60" fill="url(#gradient6)"/>			<rect x="210" y="813" width="60" height="60" fill="url(#gradient7)"/>			<rect x="210" y="733" width="60" height="60" fill="url(#gradient8)"/>			<rect x="290" y="653" width="60" height="60" fill="url(#gradient9)"/>			<rect x="290" y="813" width="60" height="60" fill="url(#gradient10)"/>			<rect x="290" y="733" width="60" height="60" fill="url(#gradient11)"/>			<rect x="370" y="653" width="60" height="60" fill="url(#gradient12)"/>			<rect x="370" y="813" width="60" height="60" fill="url(#gradient13)"/>			<rect x="370" y="733" width="60" height="60" fill="url(#gradient14)"/>			<rect x="450" y="653" width="60" height="60" fill="url(#gradient15)"/>			<rect x="450" y="813" width="60" height="60" fill="url(#gradient16)"/>			<rect x="450" y="733" width="60" height="60" fill="url(#gradient17)"/>			<rect x="530" y="653" width="60" height="60" fill="url(#gradient18)"/>			<rect x="530" y="813" width="60" height="60" fill="url(#gradient19)"/>			<rect x="530" y="733" width="60" height="60" fill="url(#gradient20)"/>		</g>		<g id="Gray%20Gradients">			<rect x="130" y="213" width="60" height="60" fill="url(#gradient21)"/>			<rect x="130" y="293" width="60" height="60" fill="url(#gradient22)"/>			<rect x="210" y="213" width="60" height="60" fill="url(#gradient23)"/>			<rect x="210" y="293" width="60" height="60" fill="url(#gradient24)"/>			<rect x="290" y="213" width="60" height="60" fill="url(#gradient25)"/>			<rect x="290" y="293" width="60" height="60" fill="url(#gradient26)"/>			<rect x="370" y="213" width="60" height="60" fill="url(#gradient27)"/>			<rect x="370" y="293" width="60" height="60" fill="url(#gradient28)"/>			<rect x="450" y="213" width="60" height="60" fill="url(#gradient29)"/>			<rect x="450" y="293" width="60" height="60" fill="url(#gradient30)"/>			<rect x="530" y="213" width="60" height="60" fill="url(#gradient31)"/>			<rect x="530" y="293" width="60" height="60" fill="url(#gradient32)"/>		</g>		<g id="Shadow%20+%20Effects">			<rect x="130" y="373" width="60" height="60" fill="#999999"/>			<rect x="210" y="373" width="60" height="60" fill="#999999"/>			<rect x="290" y="373" width="60" height="60" fill="#ffffff"/>			<rect x="370" y="373" width="60" height="60" fill="#ffffff"/>			<rect x="450" y="373" width="60" height="60" fill="#ffffff"/>			<rect x="530" y="373" width="60" height="60" fill="url(#gradient33)"/>		</g>		<g id="Type%20and%20Size">		</g>	</g>	<g id="Grid2">		<g id="6%20Col4" opacity="0.6">			<g>				<g opacity="0.498">					<path d="M 270 -306 L 290 -306 L 290 294 L 270 294 L 270 -306 Z" fill="#f6921f"/>				</g>				<g opacity="0.498">					<path d="M 590 -306 L 610 -306 L 610 294 L 590 294 L 590 -306 Z" fill="#f6921f"/>				</g>				<g opacity="0.498">					<path d="M 910 -306 L 930 -306 L 930 294 L 910 294 L 910 -306 Z" fill="#f6921f"/>				</g>			</g>			<g id="6%20Column4">				<g>					<path d="M 110 -306 L 130 -306 L 130 294 L 110 294 L 110 -306 Z" fill="#f6921f"/>				</g>				<g>					<path d="M 430 -306 L 450 -306 L 450 294 L 430 294 L 430 -306 Z" fill="#f6921f"/>				</g>				<g>					<path d="M 750 -306 L 770 -306 L 770 294 L 750 294 L 750 -306 Z" fill="#f6921f"/>				</g>				<g>					<path d="M 1070 -306 L 1090 -306 L 1090 294 L 1070 294 L 1070 -306 Z" fill="#f6921f"/>				</g>			</g>		</g>		<g id="4%20Column4" opacity="0.4" visibility="hidden">			<path d="M -20 -233 L 0 -233 L 0 853 L -20 853 L -20 -233 Z" fill="#d9182d"/>			<path d="M 220 -233 L 240 -233 L 240 853 L 220 853 L 220 -233 Z" fill="#d9182d"/>			<path d="M 460 -233 L 480 -233 L 480 853 L 460 853 L 460 -233 Z" fill="#d9182d"/>			<path d="M 700 -233 L 720 -233 L 720 853 L 700 853 L 700 -233 Z" fill="#d9182d"/>			<path d="M 940 -233 L 960 -233 L 960 853 L 940 853 L 940 -233 Z" fill="#d9182d"/>		</g>		<g id="5%20Colum2" visibility="hidden">			<g opacity="0.6">				<path d="M 172 -306 L 192 -306 L 192 1053 L 172 1053 L 172 -306 Z" fill="#82d1f5"/>			</g>			<g opacity="0.6">				<path d="M 556 -306 L 576 -306 L 576 1053 L 556 1053 L 556 -306 Z" fill="#82d1f5"/>			</g>			<g opacity="0.6">				<path d="M -20 -306 L 0 -306 L 0 1053 L -20 1053 L -20 -306 Z" fill="#82d1f5"/>			</g>			<g opacity="0.6">				<path d="M 364 -306 L 384 -306 L 384 1053 L 364 1053 L 364 -306 Z" fill="#82d1f5"/>			</g>			<g opacity="0.6">				<path d="M 748 -306 L 768 -306 L 768 1053 L 748 1053 L 748 -306 Z" fill="#82d1f5"/>			</g>			<g opacity="0.6">				<path d="M 940 -306 L 960 -306 L 960 1053 L 940 1053 L 940 -306 Z" fill="#82d1f5"/>			</g>		</g>		<g id="Margins2" opacity="0.8">			<g>				<path d="M 110 294 L 130 294 L 130 354 L 110 354 L 110 294 Z" fill="#ee3f35"/>			</g>			<g>				<path d="M 0 294 L 110 294 L 110 354 L 0 354 L 0 294 Z" fill="#cccccc"/>			</g>			<g>				<path d="M 1090 294 L 1200 294 L 1200 354 L 1090 354 L 1090 294 Z" fill="#cccccc"/>			</g>			<g>				<path d="M 1070 294 L 1090 294 L 1090 354 L 1070 354 L 1070 294 Z" fill="#ee3f35"/>			</g>		</g>	</g></svg>