<?xml version="1.0" standalone="no"?>
<!DOCTYPE svg PUBLIC "-//W3C//DTD SVG 1.1//EN" "http://www.w3.org/Graphics/SVG/1.1/DTD/svg11.dtd" >
<svg xmlns="http://www.w3.org/2000/svg">
<metadata></metadata>
<defs>
<font id="berthold_bodoni_probold" horiz-adv-x="1323" >
<font-face units-per-em="2048" ascent="1485" descent="-563" />
<missing-glyph horiz-adv-x="598" />
<glyph unicode="&#xfb01;" horiz-adv-x="1445" d="M18 0v63h138v775h-138v67h138q5 147 34 223q60 163 228 256t401 93q204 0 322.5 -74.5t118.5 -202.5q0 -88 -56.5 -141t-148.5 -53q-96 0 -150.5 50.5t-54.5 139.5q0 40 10 69.5t22.5 42.5t22.5 27t10 27q0 23 -25.5 37t-68.5 14q-117 0 -179 -92t-62 -264v-152h161 q297 0 555 35v-877h129v-63h-675v63h127v775h-299v-775h122v-63h-682z" />
<glyph unicode="&#xfb02;" horiz-adv-x="1452" d="M18 0v63h138v775h-138v65h140v64q0 152 79.5 269t213.5 179t299 62q62 0 106 -7.5t105 -29.5q111 7 342 39v-1416h135v-63h-684v63h123v1014q-93 32 -93 119q0 41 30 92.5t30 79.5q0 25 -17 37t-59 12q-88 0 -139 -96t-51 -299v-119h194v-65h-194v-775h129v-63h-689z" />
<glyph unicode="&#xfb03;" horiz-adv-x="2168" d="M18 0v63h138v775h-138v65h138q0 138 30 227q53 151 199 243.5t334 92.5q117 0 189.5 -44t107.5 -138q92 102 233 147.5t291 45.5q204 0 323 -74.5t119 -202.5q0 -88 -57 -141t-149 -53q-96 0 -150.5 50.5t-54.5 139.5q0 39 10.5 69t23 43.5t23 27.5t10.5 26q0 23 -26 37 t-68 14q-118 0 -181 -92t-63 -264v-152h162q297 0 557 35v-877h129v-63h-675v63h126v775h-301v-775h123v-63h-671v63h127v775h-299v-775h122v-63h-682zM578 903h303v84q0 10 4 96q-14 -4 -33 -4q-60 0 -96.5 38t-36.5 100q0 42 14.5 70t29.5 45.5t15 33.5q0 18 -13.5 30.5 t-33.5 12.5q-43 0 -74.5 -35t-47.5 -91.5t-23.5 -113.5t-7.5 -116v-150z" />
<glyph unicode="&#xfb04;" horiz-adv-x="2172" d="M18 0v63h138v775h-138v65h138q0 138 30 227q53 151 199 243.5t334 92.5q221 0 291 -168q176 179 460 179q62 0 106 -7.5t105 -29.5q114 10 342 39v-1416h136v-63h-689v63h127v1014q-92 29 -92 127q0 41 30 89t30 75q0 49 -76 49q-189 0 -189 -399v-115h195v-65h-197v-775 h125v-63h-673v63h127v775h-299v-775h122v-63h-682zM578 903h301v35q0 66 6 145q-14 -4 -33 -4q-60 0 -96.5 38t-36.5 100q0 34 9 59t20.5 36.5t20.5 25.5t9 28q0 18 -13.5 30.5t-33.5 12.5q-65 0 -109 -92t-44 -275v-139z" />
<glyph horiz-adv-x="2048" />
<glyph horiz-adv-x="2048" />
<glyph unicode="&#xd;" horiz-adv-x="2048" />
<glyph unicode=" "  horiz-adv-x="598" />
<glyph unicode="&#x09;" horiz-adv-x="598" />
<glyph unicode="&#xa0;" horiz-adv-x="598" />
<glyph unicode="!" horiz-adv-x="641" d="M158 190q0 85 58.5 144t143.5 59t144 -59t59 -144t-59 -143.5t-144 -58.5t-143.5 58.5t-58.5 143.5zM158 1243q0 22 4 45.5t17.5 55t35 56t61 41.5t91.5 17q55 0 95.5 -18.5t60 -42t31 -57t13.5 -52.5t2 -39q0 -72 -47 -211q-29 -87 -44.5 -140t-35 -169.5t-32.5 -271.5 h-93q-18 323 -102 555q-36 100 -46.5 141t-10.5 90z" />
<glyph unicode="&#x22;" horiz-adv-x="776" d="M104 1432q0 47 30 73.5t85 26.5t86 -26.5t31 -73.5q0 -24 -6 -48l-86 -458h-51l-84 458q-5 35 -5 48zM442 1432q0 47 30.5 73.5t84.5 26.5q55 0 86 -26.5t31 -73.5q0 -24 -6 -48l-86 -458h-52l-84 458q-4 28 -4 48z" />
<glyph unicode="#" horiz-adv-x="1099" d="M41 467v211h274l15 121h-244v211h274l58 436h112l-57 -436h232l57 436h112l-57 -436h240v-211h-271l-14 -121h246v-211h-275l-63 -467h-115l66 467h-232l-63 -467h-113l62 467h-244zM426 678h233l17 121h-234z" />
<glyph unicode="$" horiz-adv-x="1153" d="M59 299q0 70 41.5 115t106.5 45q67 0 108 -40t41 -106q0 -38 -15 -76.5t-15 -60.5q0 -47 58.5 -78t162.5 -37v437q-186 70 -288.5 136.5t-147.5 147.5t-45 197q0 195 130 321.5t351 145.5v203h71v-205q199 -9 322 -87.5t123 -197.5q0 -66 -40.5 -108.5t-104.5 -42.5 q-63 0 -104.5 37.5t-41.5 95.5q0 38 15.5 82.5t15.5 54.5q0 43 -49.5 71.5t-135.5 34.5v-405q109 -36 184.5 -68.5t137 -72t96.5 -85.5t53.5 -105t18.5 -134q0 -134 -58 -247.5t-171 -186.5t-261 -80v-207h-71v207q-224 7 -356 88.5t-132 210.5zM326 1217q0 -69 43 -111.5 t178 -99.5v378q-113 -7 -167 -48.5t-54 -118.5zM618 61q115 9 177.5 61.5t62.5 139.5q0 89 -57 131q-29 23 -60 37.5t-123 46.5v-416z" />
<glyph unicode="%" horiz-adv-x="1908" d="M43 973q0 110 33 200.5t87.5 147t122.5 87t142 30.5q160 0 266.5 -131.5t106.5 -325.5q0 -207 -110 -340t-271 -133q-111 0 -198 63.5t-133 169t-46 232.5zM332 754q0 -66 6 -107.5t20.5 -61.5t30 -26t41.5 -6q20 0 34 6t23 21.5t14 31t7.5 45t3 51.5t0.5 62v438 q0 105 -22 145t-66 40q-24 0 -41 -10.5t-27 -28t-15.5 -49.5t-7 -66.5t-1.5 -87.5v-397zM485 0l818 1419h118l-819 -1419h-117zM1108 446q0 110 33 200.5t87.5 147t122.5 87t142 30.5q161 0 267 -131t106 -325q0 -207 -110 -340t-271 -133q-111 0 -198 63t-133 168.5 t-46 232.5zM1397 227q0 -66 6 -107.5t20.5 -61t30 -25.5t41.5 -6q20 0 34 6t23 21.5t14 31t7.5 45t3 51.5t0.5 62v438q0 104 -22 144t-66 40q-24 0 -41 -10.5t-27 -28t-15.5 -49.5t-7 -66t-1.5 -87v-398z" />
<glyph unicode="&#x26;" horiz-adv-x="1712" d="M39 420q0 153 109.5 259.5t330.5 178.5l-47 78q-74 124 -74 229q0 146 126 225.5t356 79.5q426 0 426 -245q0 -106 -78 -172.5t-260 -130.5l319 -498q62 65 109 163.5t47 178.5q0 34 -18.5 45.5t-69.5 11.5h-82v66h414v-66h-60q-56 0 -76 -15t-34 -67 q-37 -140 -75.5 -213t-121.5 -159l188 -303h211v-66h-665l-78 129q-208 -149 -449 -149q-187 0 -317.5 128.5t-130.5 311.5zM385 664q0 -111 170 -359q65 -94 112 -130t105 -36q34 0 56.5 7t76.5 34l-391 619q-69 -23 -99 -54.5t-30 -80.5zM739 1290q0 -65 80 -194l76 -121 q71 50 101 106.5t30 143.5q0 91 -38 138.5t-111 47.5q-62 0 -100 -33.5t-38 -87.5z" />
<glyph unicode="'" horiz-adv-x="438" d="M104 1432q0 47 30 73.5t85 26.5t86 -26.5t31 -73.5q0 -24 -6 -48l-86 -458h-51l-84 458q-5 35 -5 48z" />
<glyph unicode="(" horiz-adv-x="729" d="M109 563q0 321 153.5 596t433.5 453l35 -41q-56 -56 -108 -146q-78 -139 -113 -333.5t-35 -503.5q0 -389 56.5 -610.5t197.5 -385.5l-35 -41q-74 45 -162 119q-218 186 -320.5 402t-102.5 491z" />
<glyph unicode=")" horiz-adv-x="729" d="M-2 -410q58 58 108 144q78 139 113 334.5t35 502.5q0 389 -56.5 610.5t-197.5 385.5l33 41q85 -51 164 -119q219 -186 321.5 -402t102.5 -491q0 -321 -154.5 -595t-435.5 -454z" />
<glyph unicode="*" horiz-adv-x="854" d="M68 924q0 55 67 79t256 39q-11 -13 -46 -59.5t-60 -77t-60.5 -58.5t-62.5 -28q-36 0 -65 33t-29 72zM72 1212q0 14 7 36.5t29 45.5t54 23q21 0 42 -11.5t45 -37.5t41.5 -48.5t49.5 -66t51 -68.5q-101 12 -144.5 18.5t-93 20.5t-65.5 34.5t-16 53.5zM330 756q0 62 96 266 q92 -206 92 -264q0 -33 -22.5 -60.5t-75.5 -27.5q-50 0 -70 27.5t-20 58.5zM336 1370q0 35 21.5 61.5t76.5 26.5q49 0 68.5 -26.5t19.5 -57.5q0 -56 -96 -268q-90 211 -90 264zM463 1047q26 -4 72 -11q52 -8 76 -12t59 -11.5t50.5 -15t32.5 -19t23 -27t6 -36.5 q0 -35 -27.5 -68.5t-66.5 -33.5q-19 0 -42.5 15.5t-44.5 37t-45.5 52t-40 52.5t-33 48t-19.5 29zM463 1085q14 17 51.5 68t60 78t56 52.5t61.5 25.5q37 0 65.5 -31t28.5 -72q0 -30 -18 -50.5t-62 -33.5t-97.5 -21t-145.5 -16z" />
<glyph unicode="+" horiz-adv-x="1482" d="M188 530v283h369v404h367v-404h370v-283h-370v-411h-367v411h-369z" />
<glyph unicode="," horiz-adv-x="598" d="M66 174q0 77 51.5 138t154.5 61q70 0 122 -26t79.5 -70t40 -91.5t12.5 -99.5q0 -125 -60 -239t-161 -199q-30 -25 -115 -78l-36 61q131 85 202.5 192t71.5 177q0 35 -25 35q-11 0 -22 -9.5t-21.5 -20.5t-36.5 -20.5t-63 -9.5q-83 0 -138.5 59t-55.5 140z" />
<glyph unicode="-" horiz-adv-x="708" d="M43 414v274h623v-274h-623z" />
<glyph unicode="." horiz-adv-x="555" d="M74 193q0 85 60 144.5t145 59.5t144.5 -59.5t59.5 -144.5t-59.5 -145t-144.5 -60t-145 60t-60 145z" />
<glyph unicode="/" horiz-adv-x="854" d="M41 0l461 1446h313l-459 -1446h-315z" />
<glyph unicode="0" horiz-adv-x="1273" d="M55 711q0 331 183 540q34 39 68.5 69.5t84.5 61t115.5 47.5t140.5 17q129 0 238 -60q57 -32 111.5 -86t106.5 -134.5t84 -197.5t32 -251q0 -189 -66.5 -358.5t-204.5 -278.5q-138 -111 -315 -111q-170 0 -303 101t-204 269.5t-71 371.5zM500 381q0 -74 2.5 -123t11 -95 t24 -72.5t41 -42t62.5 -15.5q73 0 107 61q11 19 16.5 44t8 80.5t3 93t0.5 141.5v596q0 70 -2.5 117.5t-10.5 92t-23 70t-39.5 40.5t-59.5 15q-32 0 -56 -11t-39 -36t-24.5 -53.5t-14 -76.5t-6 -92t-1.5 -111v-623z" />
<glyph unicode="1" horiz-adv-x="1273" d="M174 0v63h234v1258h-234v68q397 18 696 69v-1395h240v-63h-936z" />
<glyph unicode="2" horiz-adv-x="1273" d="M72 0v254q47 37 134.5 98t153.5 106.5t145 114t130 131.5t86 147t35 171q0 85 -29.5 157.5t-93 120.5t-150.5 48q-91 0 -166 -48.5t-75 -99.5q0 -20 12 -30.5t31 -10.5q14 0 52 2t42 2q47 0 82 -17t53 -40t29 -52.5t13.5 -47.5t2.5 -33q0 -102 -63 -162.5t-164 -60.5 q-31 0 -62 7t-64.5 25t-59 45.5t-42 72.5t-16.5 101q0 86 41 173t107 145q149 127 436 127q242 0 372 -114t130 -298q0 -43 -8 -82.5t-20 -71.5t-33.5 -62.5t-42 -54t-51.5 -48t-57 -41.5t-63.5 -38.5t-64.5 -35.5t-68 -35t-66 -35t-176.5 -84t-165.5 -77h543q40 0 60.5 0.5 t47 4t38.5 9t27.5 17t21.5 27.5t13.5 41.5t10.5 56.5t6 75h62l-43 -600h-1073z" />
<glyph unicode="3" horiz-adv-x="1273" d="M72 334q0 12 2 27t8.5 41t21.5 49.5t37.5 45.5t60.5 35t87 13q36 0 71 -9t71 -29t58.5 -60.5t22.5 -96.5q0 -48 -16.5 -82t-40.5 -51.5t-48 -30.5t-40.5 -28t-16.5 -35q0 -42 45.5 -64t89.5 -22q32 0 64.5 7.5t71 31.5t67.5 62t48.5 105.5t19.5 155.5q0 40 -8 80.5 t-29.5 85.5t-55 79t-90.5 56.5t-129 22.5q-26 0 -80.5 -9t-66.5 -9q-29 0 -44 15t-15 32q0 41 57 41q23 0 71.5 -4.5t67.5 -4.5q115 0 166 37q54 38 83.5 114.5t29.5 147.5q0 156 -60 230q-50 59 -145 59q-48 0 -82.5 -18t-34.5 -54q0 -19 14 -33.5t33.5 -27.5t39.5 -29.5 t34 -48t14 -74.5q0 -88 -58 -135t-134 -47q-88 0 -143.5 56.5t-55.5 144.5q0 24 4.5 50.5t19.5 60.5t38 65t64.5 61.5t95 52.5t133 36t174.5 14q62 0 122.5 -9t126 -33t114.5 -61.5t80.5 -100.5t31.5 -144q0 -39 -11.5 -77.5t-38.5 -80.5t-81 -79t-131 -62 q-30 -10 -67.5 -18t-61.5 -11t-53.5 -6.5t-32.5 -3.5q218 -14 332.5 -67t164.5 -140q43 -78 43 -168q0 -64 -20 -121.5t-68.5 -112.5t-121 -94.5t-184.5 -63.5t-253 -24q-117 0 -211.5 31.5t-152.5 84.5t-88.5 117t-30.5 132z" />
<glyph unicode="4" horiz-adv-x="1273" d="M41 379v78l657 979h291l2 -992h94q27 0 42 5t21.5 20.5t7.5 29t1 46.5v59h64v-383h-64v88q0 47 -17 59.5t-83 12.5h-66v-318h195v-63h-846v63h195v316h-494zM111 444h424v625z" />
<glyph unicode="5" horiz-adv-x="1273" d="M74 303q0 94 61.5 163t183.5 69q88 0 144.5 -55t56.5 -140q0 -53 -22.5 -93t-49 -59t-49 -40.5t-22.5 -41.5q0 -31 34.5 -52t92.5 -21q99 0 171.5 84t72.5 252q0 175 -84 288t-240 113q-110 0 -229 -72l-45 15l32 600q2 34 3 49.5t5.5 33.5t10.5 24.5t19 13t29.5 7.5 t43.5 1h690q43 0 56.5 11t23.5 46h57l-37 -254q-6 -41 -14 -70t-20.5 -47.5t-23.5 -29t-32.5 -15t-37.5 -5.5t-48 -1h-671l-13 -291q181 93 400 93q230 0 378 -95q28 -18 56 -43t61.5 -67.5t54.5 -104.5t21 -133q0 -128 -70 -229q-38 -56 -92.5 -99.5t-115 -68t-113.5 -40.5 t-111 -21.5t-83 -7t-52 -1.5q-130 0 -227.5 30t-151 80t-79 106.5t-25.5 117.5z" />
<glyph unicode="6" horiz-adv-x="1273" d="M72 623q0 255 137 458q99 149 254.5 237.5t343.5 123.5q102 20 309 20v-59q-162 -10 -274.5 -58t-186.5 -163q-81 -127 -104 -312q139 50 250 50q105 0 189 -36.5t135 -97t77.5 -134t26.5 -152.5q0 -152 -77 -275t-203.5 -189.5t-272.5 -66.5q-90 0 -176.5 26t-164 80 t-136 130.5t-93 184t-34.5 233.5zM520 299q0 -71 8.5 -122t21.5 -79t33 -43.5t37.5 -19.5t41.5 -4t42 5t31.5 18.5t23 27t15.5 41t9.5 49t5 62.5t2 69.5t0.5 81.5v174q0 63 -3.5 103.5t-14.5 85t-37 66.5t-66 22q-31 0 -54.5 -10t-39.5 -24t-27 -41.5t-16.5 -50.5t-8.5 -63 t-3.5 -67.5t-0.5 -75.5v-205z" />
<glyph unicode="7" horiz-adv-x="1273" d="M98 858l152 561h983v-98q-83 -118 -148 -227q-46 -76 -75 -127t-74.5 -139.5t-69.5 -164t-24 -133.5q0 -76 27.5 -183t27.5 -157q0 -40 -12.5 -78.5t-38.5 -73t-73.5 -56t-108.5 -21.5q-124 0 -192.5 73t-68.5 189q0 169 156 389q29 41 76 92.5t83 87t126 121t137 131.5 h-649h-37.5t-28.5 -4t-22.5 -5.5t-17 -15t-15 -21t-14 -34.5t-15.5 -44.5t-18 -61.5h-66z" />
<glyph unicode="8" horiz-adv-x="1273" d="M61 383q0 145 111.5 240.5t304.5 128.5q-102 20 -176 60t-111 88.5t-53 93.5t-16 89q0 47 16 94t56 96.5t99.5 87t156 61.5t215.5 24q87 0 160 -14.5t123 -37.5t89.5 -54.5t62 -63.5t37.5 -66t20 -60t5 -48q0 -128 -100.5 -219.5t-255.5 -130.5q26 -4 38.5 -6t49.5 -10.5 t61 -17t62 -24.5t63.5 -34t55.5 -45t48 -58.5t30 -73.5t12 -90q0 -63 -31.5 -142t-112.5 -145q-166 -137 -446 -137q-60 0 -122.5 9t-128 28.5t-122.5 52.5t-102.5 77t-72 108t-26.5 139zM504 274q0 -51 6 -90t20.5 -74.5t43.5 -55t71 -19.5q24 0 45.5 8t43 27.5t34 60 t12.5 98.5v168q0 66 -2.5 110t-10.5 86.5t-22.5 66.5t-38.5 38.5t-59 14.5q-143 0 -143 -252v-187zM528 973q0 -41 3.5 -70.5t14.5 -60.5t35 -47.5t60 -16.5q31 0 52.5 10.5t33 25.5t18 42t8 50.5t1.5 60.5v225q0 108 -27.5 145t-83.5 37q-24 0 -42.5 -7t-30.5 -16.5 t-20.5 -30t-12.5 -36.5t-6 -47.5t-2.5 -50.5t-0.5 -58v-155z" />
<glyph unicode="9" horiz-adv-x="1273" d="M47 928q0 145 76 268q42 66 103.5 115t118.5 74t121.5 40t101 18t67.5 3q133 0 246 -51q43 -20 84 -48.5t86.5 -78.5t79 -111t55.5 -149t22 -189q0 -192 -72.5 -354t-199.5 -273.5t-305.5 -174t-386.5 -62.5h-60v63q80 4 133 13q202 34 324 207q87 124 113 317 q-32 -22 -57.5 -34.5t-75.5 -24t-113 -11.5q-60 0 -120.5 14t-122.5 47.5t-110 82.5t-78 126.5t-30 172.5zM489 934q0 -180 30.5 -270.5t103.5 -90.5q68 0 104.5 56t36.5 157v226q0 71 -1 113t-5 90.5t-12.5 74t-22.5 49.5t-36 33.5t-52 9.5q-29 0 -51.5 -10t-38 -25 t-26 -44t-16.5 -56.5t-9 -73.5t-4 -84t-1 -98v-57z" />
<glyph unicode=":" horiz-adv-x="641" d="M158 193q0 85 59.5 144.5t144.5 59.5t145 -59.5t60 -144.5t-60 -145t-145 -60t-144.5 60t-59.5 145zM158 715q0 85 59.5 145t144.5 60t145 -60t60 -145t-60 -145t-145 -60t-144.5 60t-59.5 145z" />
<glyph unicode=";" horiz-adv-x="681" d="M150 172q0 82 55.5 141.5t154.5 59.5q117 0 183.5 -79.5t66.5 -207.5q0 -58 -15.5 -119t-50.5 -132t-104.5 -140.5t-165.5 -124.5l-36 61q65 41 116.5 89.5t80 90t47 82t24.5 66t6 41.5q0 35 -25 35q-5 0 -21.5 -15t-48.5 -30t-73 -15q-81 0 -137.5 56t-56.5 141z M176 715q0 85 60 145t145 60t145 -60t60 -145t-60 -145t-145 -60t-145 60t-60 145z" />
<glyph unicode="&#x3c;" horiz-adv-x="1482" d="M229 528v332l953 451v-322l-621 -264l621 -281v-374z" />
<glyph unicode="=" horiz-adv-x="1482" d="M205 246v309h1075v-309h-1075zM205 723v307h1075v-307h-1075z" />
<glyph unicode="&#x3e;" horiz-adv-x="1482" d="M289 68v321l622 264l-622 279v377l952 -461v-330z" />
<glyph unicode="?" horiz-adv-x="1110" d="M131 1147q0 88 62 162q124 149 399 149q214 0 340.5 -95t126.5 -255q0 -52 -19 -103t-45.5 -88.5t-68.5 -79t-75 -67.5t-79 -61t-67 -52q-4 -4 -22.5 -19.5t-31.5 -27t-30 -27t-28.5 -29.5t-17.5 -24q-18 -33 -18 -86h-84l-8 30q-8 30 -14.5 58t-12.5 70t-6 74 q0 80 38 146.5t146 189.5q8 9 35 38.5t39.5 45.5t30.5 43t25.5 53t7.5 55q0 57 -45.5 102.5t-141.5 45.5q-65 0 -115.5 -23t-50.5 -53q0 -14 17.5 -30t39 -31.5t39 -49.5t17.5 -80q0 -77 -56 -126.5t-134 -49.5q-30 0 -61.5 10.5t-62 31.5t-50 61t-19.5 92zM344 193 q0 83 60 143.5t145 60.5q84 0 144.5 -61t60.5 -143q0 -86 -60.5 -145.5t-144.5 -59.5q-85 0 -145 59.5t-60 145.5z" />
<glyph unicode="@" horiz-adv-x="1572" d="M70 670q0 292 190 522q238 293 619 293q139 0 257 -47t198 -127.5t124.5 -189.5t44.5 -232q0 -148 -58.5 -279t-156.5 -209.5t-207 -78.5q-83 0 -129.5 47.5t-46.5 130.5v8q-52 -95 -107.5 -136.5t-125.5 -41.5q-109 0 -180.5 86t-71.5 215q0 127 59.5 241.5t158.5 184 t208 69.5q145 0 160 -165l30 120h178l-104 -475q-23 -104 -23 -151q0 -41 12.5 -58.5t43.5 -17.5q65 0 126.5 84.5t96.5 201t35 218.5q0 243 -149 396t-384 153q-144 0 -266.5 -61t-204.5 -165.5t-128 -243.5t-46 -294q0 -158 46.5 -283.5t129.5 -207t196 -124.5t249 -43 q357 0 626 287l41 -39q-129 -149 -306 -228t-382 -79q-340 0 -546.5 197.5t-206.5 521.5zM633 580q0 -183 96 -183q60 0 114.5 84t84.5 204.5t30 234.5q0 163 -96 163q-63 0 -117.5 -84t-83 -199t-28.5 -220z" />
<glyph unicode="A" horiz-adv-x="1579" d="M0 0v66h35q82 0 120.5 28.5t73.5 116.5l492 1235h168l563 -1380h127v-66h-795v66h160l-135 325h-432l-72 -180q-31 -85 -31 -105q0 -40 64 -40h90v-66h-428zM406 457h378l-194 475z" />
<glyph unicode="B" horiz-adv-x="1492" d="M20 0v66h148v1314h-148v66h865q69 0 121.5 -5t113 -19t109 -46t82.5 -80q57 -75 57 -194q0 -117 -80 -199q-112 -114 -342 -125q180 -19 273.5 -57t154.5 -115q66 -87 66 -200q0 -64 -19 -119.5t-44.5 -90.5t-62 -64.5t-61 -43.5t-51.5 -25q-95 -39 -220 -51t-286 -12 h-676zM639 68h47q81 0 130.5 17t78.5 61.5t39 108t10 169.5q0 54 -3.5 92t-17.5 84t-39.5 74.5t-73 48.5t-114.5 20h-57v-675zM639 807h59q129 0 174.5 64t45.5 229q0 95 -7.5 147t-33 83t-62 39.5t-104.5 8.5h-72v-571z" />
<glyph unicode="C" horiz-adv-x="1492" d="M80 715q0 286 172 493q114 137 277 206t348 69q123 0 212.5 -29.5t186.5 -101.5l65 94h64l8 -420h-72q-22 108 -55 168q-54 100 -148 160.5t-206 60.5q-125 0 -203 -78q-79 -79 -111 -223t-32 -387q0 -186 16 -334q9 -74 29.5 -133t44.5 -96t56.5 -64t58.5 -40t58.5 -20 t48 -8t34.5 -1q166 0 287 121q42 41 76.5 96t52.5 97t45 114h71l-37 -459h-67l-51 111q-101 -81 -202.5 -114.5t-236.5 -33.5q-174 0 -322.5 58t-250.5 158t-159.5 239t-57.5 297z" />
<glyph unicode="D" horiz-adv-x="1662" d="M23 0v66h145v1314h-145v66h743q111 0 183.5 -4.5t170 -29t168.5 -71.5q53 -34 100 -82t93.5 -121.5t74 -180t27.5 -232.5q0 -267 -124.5 -438.5t-346.5 -239.5q-148 -47 -465 -47h-624zM637 66h86q244 0 313 198q39 116 39 412q0 198 -10 342q-4 61 -10 103.5t-27 97 t-55 88.5q-45 46 -101.5 59.5t-140.5 13.5h-94v-1314z" />
<glyph unicode="E" horiz-adv-x="1409" d="M23 0v66h145v1314h-145v66h1288v-369h-62q-15 88 -73 162q-37 47 -84 77t-104 43t-104.5 17t-115.5 4h-131v-610h104q101 0 159 70.5t58 167.5v20h66v-594h-66v12q0 17 -3 40.5t-17.5 64t-38 72t-70.5 55.5t-110 24h-82v-634h192q56 0 89.5 2t75.5 8.5t76 22.5t65 42 q67 58 102 139.5t63 198.5h62v-481h-1339z" />
<glyph unicode="F" d="M25 0v66h143v1314h-143v66h1282v-391h-64q-22 162 -143 248q-66 47 -145.5 62t-184.5 15h-129v-614h88q115 0 174.5 66t59.5 192h65v-592h-65q0 144 -61.5 206t-199.5 62h-61v-634h221v-66h-837z" />
<glyph unicode="G" horiz-adv-x="1622" d="M80 715q0 290 172 497q112 132 264.5 201.5t325.5 69.5q75 0 140 -12t115.5 -34t81 -40t64.5 -43l88 92h68v-457h-68q-19 105 -61 185q-11 22 -26.5 45.5t-48 60t-69.5 64t-92.5 47.5t-115.5 20q-191 0 -267 -178q-57 -139 -57 -506v-145q0 -345 61 -455q12 -20 29 -39 t55 -40t82 -21q38 0 66 12.5t46.5 37.5t30 54.5t17.5 72.5t8 82t2 93v158h-213v61h817v-61h-135v-314q-2 -2 -25.5 -23.5t-47.5 -41.5t-52 -39q-72 -50 -154.5 -84t-156 -48t-121.5 -19t-90 -5q-245 0 -424 123q-152 104 -230.5 271t-78.5 358z" />
<glyph unicode="H" horiz-adv-x="1662" d="M23 0v66h145v1314h-145v66h761v-66h-145v-594h383v594h-145v66h765v-66h-147v-1314h147v-66h-765v66h145v655h-383v-655h145v-66h-761z" />
<glyph unicode="I" horiz-adv-x="811" d="M23 0v66h145v1314h-145v66h763v-66h-145v-1314h145v-66h-763z" />
<glyph unicode="J" horiz-adv-x="1150" d="M10 68q0 91 61 148.5t150 57.5q86 0 140.5 -55.5t54.5 -142.5q0 -44 -16 -80.5t-34.5 -55.5t-34.5 -36.5t-16 -28.5q0 -20 20 -29.5t46 -9.5q28 0 49.5 11.5t35.5 29t24 46t15 53t7.5 61.5t3 59.5t0.5 57.5v1226h-147v66h761v-66h-145v-1024q0 -145 -10 -204 q-35 -215 -207 -314q-142 -82 -334 -82q-246 0 -362 144q-62 77 -62 168z" />
<glyph unicode="K" horiz-adv-x="1662" d="M23 0v66h145v1314h-145v66h761v-66h-143v-602l463 471q5 5 18 17.5t18.5 18t14 15.5t12.5 16.5t7.5 14.5t3.5 15q0 22 -20 28t-77 6h-127v66h600v-66h-73q-46 0 -80.5 -6t-56.5 -13t-52 -30t-45 -37.5t-57 -56.5l-176 -174l510 -997h139v-66h-803v66h137l-356 704v-704 h143v-66h-761z" />
<glyph unicode="L" horiz-adv-x="1366" d="M25 0v66h145v1314h-145v66h827v-66h-213v-1314h76q121 0 206 19t155 66.5t117 129t81 206.5h63l-28 -487h-1284z" />
<glyph unicode="M" horiz-adv-x="1878" d="M18 0v66h45q79 0 109.5 40t30.5 121v1153h-148v66h670l236 -733l245 733h654v-66h-152v-1314h152v-66h-803v66h178v1267l-447 -1333h-94l-426 1333v-1130q0 -75 33 -106t125 -31h33v-66h-441z" />
<glyph unicode="N" horiz-adv-x="1492" d="M10 0v66q38 0 65.5 5t47.5 12t33 24.5t20.5 33.5t11 47.5t4.5 58.5t1 75v970q0 47 -14.5 67.5t-67.5 20.5h-88v66h706l514 -815v579q0 104 -21.5 137t-103.5 33h-65v66h440v-66h-45q-83 0 -109 -34.5t-26 -149.5v-1196h-234l-821 1305v-1022q0 -95 12 -140t39 -61t84 -16 h53v-66h-436z" />
<glyph unicode="O" horiz-adv-x="1705" d="M80 725q0 158 60 298.5t163.5 241.5t250.5 159.5t314 58.5q209 0 383 -97.5t274.5 -270t100.5 -382.5q0 -157 -58.5 -298t-161 -245.5t-250.5 -165.5t-318 -61q-102 0 -206.5 29t-204 91t-176.5 149.5t-124 215t-47 277.5zM596 594q0 -308 60.5 -437.5t201.5 -129.5 q72 0 123 31t79.5 90.5t41 134.5t12.5 174v448q0 70 -3.5 127t-12.5 118.5t-27 107.5t-45 83.5t-68.5 57.5t-95.5 20q-53 0 -95.5 -19t-70 -47.5t-47.5 -75.5t-30 -88.5t-15.5 -101.5t-6.5 -99.5t-1 -96.5v-297z" />
<glyph unicode="P" horiz-adv-x="1449" d="M23 0v66h147v1314h-147v66h938q237 0 355 -104.5t118 -294.5q0 -56 -13.5 -104.5t-33.5 -81.5t-47.5 -60.5t-49.5 -42.5t-45 -27q-59 -28 -143.5 -43t-143.5 -17.5t-149 -2.5h-172v-602h211v-66h-825zM637 731h68q60 0 101 13t66.5 36t39 67t18 94t4.5 128q0 42 -0.5 66 t-4 61.5t-10.5 59.5t-20.5 48.5t-32.5 41t-48.5 24.5t-67.5 10h-113v-649z" />
<glyph unicode="Q" horiz-adv-x="1705" d="M80 725q0 165 65 308t173.5 240.5t251.5 153.5t298 56q158 0 298.5 -58.5t241.5 -159t159.5 -241t58.5 -299.5q0 -85 -19.5 -172t-65 -176.5t-111.5 -165t-167 -135.5t-223 -88v-58q0 -99 14 -160t48 -98q53 -57 147 -57q78 0 162 14l-2 -69q-139 -19 -219 -19 q-63 0 -112 2.5t-107 11.5t-101 24t-85.5 42.5t-69.5 64.5t-43.5 92t-16.5 124v84q-59 12 -128.5 42.5t-150.5 92t-145.5 141.5t-107.5 201.5t-43 261.5zM596 594q0 -308 60.5 -437.5t201.5 -129.5q72 0 123 31t79.5 90.5t41 134.5t12.5 174v448q0 70 -3.5 127t-12.5 118.5 t-27 107.5t-45 83.5t-68.5 57.5t-95.5 20q-53 0 -95.5 -19t-70 -47.5t-47.5 -75.5t-30 -88.5t-15.5 -101.5t-6.5 -99.5t-1 -96.5v-297z" />
<glyph unicode="R" horiz-adv-x="1579" d="M20 0v66h150v1314h-150v66h916q52 0 93.5 -2t95.5 -10t94.5 -22t83 -39.5t69.5 -61t44.5 -88.5t17.5 -119q0 -109 -64 -189q-58 -70 -156 -102.5t-278 -44.5q55 -8 133 -25q21 -4 45.5 -11.5t67.5 -25t84 -49.5t67 -73q23 -36 35 -87t14 -88.5t2 -95.5v-69 q0 -36 2.5 -59.5t11 -47.5t26.5 -35.5t46 -11.5q37 0 80 27l29 -51q-158 -91 -305 -91q-82 0 -170 31.5t-135 102.5q-28 43 -42 97t-16 91.5t-2 103.5v82q0 57 -3 94t-13 68t-25.5 48t-43 28.5t-62 15.5t-86.5 4h-35v-675h143v-66h-764zM641 807h65.5t59.5 1t43 3.5 t42.5 8.5t31.5 16q51 33 67.5 102t16.5 172q0 72 -7 116.5t-28.5 82.5t-63.5 54.5t-110 16.5h-117v-573z" />
<glyph unicode="S" horiz-adv-x="1236" d="M80 0v459h67q18 -59 31.5 -96t49 -98t81.5 -105q66 -63 154.5 -97t181.5 -34q74 0 136 22t105.5 76t43.5 133q0 30 -8.5 56.5t-19.5 46t-34.5 38t-41 30t-52 26.5t-55 23t-60.5 22l-131 47q-45 16 -70.5 25.5t-68 27.5t-68 32t-61 36.5t-57 44.5t-45.5 52t-37 62.5 t-22 74t-9 87.5q0 67 18.5 135t59 132.5t98 114.5t142 80t184.5 30q119 0 204 -35t175 -102l55 102h84v-399h-63q-50 171 -150 260q-58 51 -138 80.5t-167 29.5q-113 0 -170 -48.5t-57 -123.5q0 -36 13.5 -65t32.5 -48t57 -38.5t68.5 -31t86.5 -30.5l182 -61q34 -11 56 -19 t57.5 -23t59.5 -28.5t55.5 -35t52.5 -44.5t43.5 -55t36 -67.5t22 -81t8.5 -97.5q0 -76 -19.5 -152t-63 -150t-105.5 -130.5t-155 -91.5t-204 -35q-64 0 -118.5 9t-107.5 31t-88.5 40.5t-96.5 54.5l-78 -98h-80z" />
<glyph unicode="T" d="M6 985l21 461h1273l17 -461h-57q-73 395 -330 395h-33v-1314h209v-66h-891v66h213v1314h-29q-264 0 -331 -395h-62z" />
<glyph unicode="U" horiz-adv-x="1492" d="M10 1380v66h801v-66h-182v-977q0 -45 7 -88t28 -92t54 -85.5t91.5 -60.5t134.5 -24q170 0 262 129q37 53 48.5 110.5t11.5 182.5v688q0 60 -0.5 87.5t-7 58t-14.5 40t-29.5 19.5t-45.5 11t-69 1h-21v66h410v-66h-35q-43 0 -69 -9t-37.5 -31t-14 -42.5t-2.5 -58.5v-831 q0 -73 -10.5 -130t-46 -118.5t-95 -102.5t-165 -67.5t-248.5 -26.5t-248 20t-171.5 58t-104.5 85.5t-58 111.5q-14 44 -20 99.5t-7 100t-1 162.5v780h-146z" />
<glyph unicode="V" horiz-adv-x="1579" d="M0 1380v66h803v-66h-156l361 -858l247 643q1 3 17.5 44.5t24.5 68.5t8 45q0 57 -64 57h-86v66h420v-66h-64q-62 0 -97 -34t-77 -146l-460 -1200h-160l-584 1380h-133z" />
<glyph unicode="W" horiz-adv-x="2260" d="M0 1380v66h756v-66h-127l321 -852l154 418l-166 434h-125v66h789v-66h-156l313 -819l205 625q33 101 33 133q0 61 -92 61h-56v66h412v-66h-29q-34 0 -56 -2t-41.5 -12.5t-30 -20.5t-24 -37.5t-21.5 -50.5t-25 -73l-394 -1184h-178l-325 854l-312 -854h-178l-526 1380 h-121z" />
<glyph unicode="X" horiz-adv-x="1579" d="M18 0v66h23q29 0 40.5 0.5t32.5 3t29 6t24 12t25 19t24.5 28.5t30 39.5t34.5 52.5l278 432l-405 721h-119v66h813v-66h-158l244 -426l162 256q63 99 63 129q0 25 -23.5 33t-72.5 8h-41v66h424v-66q-66 0 -98.5 -3.5t-63.5 -23.5t-49 -44.5t-57 -85.5l-211 -330l465 -827 h133v-66h-826v66h158l-301 530l-256 -399q-4 -6 -12.5 -20t-12 -19t-9 -15t-7.5 -15.5t-4 -12.5t-2 -13q0 -22 22 -29t88 -7h31v-66h-416z" />
<glyph unicode="Y" horiz-adv-x="1579" d="M0 1380v66h825v-66h-157l338 -653l262 526q32 66 32 86q0 22 -19.5 31.5t-80.5 9.5h-49v66h428v-66h-53q-79 0 -112.5 -27t-82.5 -124l-291 -578v-585h205v-66h-885v66h213v481l-440 833h-133z" />
<glyph unicode="Z" horiz-adv-x="1280" d="M27 0v66l678 1314h-148q-84 0 -142.5 -12t-111.5 -51q-118 -85 -147 -264h-60q8 332 10 393h1117v-66l-682 -1314h164q132 0 220 30.5t154 114.5q94 117 103 268h65l-14 -479h-1206z" />
<glyph unicode="[" horiz-adv-x="665" d="M145 -410v1977h527v-72h-203v-1835h203v-70h-527z" />
<glyph unicode="\" horiz-adv-x="854" d="M41 1446h313l461 -1446h-313z" />
<glyph unicode="]" horiz-adv-x="665" d="M-6 -340h203v1837h-203v70h526v-1979h-526v72z" />
<glyph unicode="^" horiz-adv-x="1482" d="M137 573l441 873h342l428 -873h-385l-228 555l-237 -555h-361z" />
<glyph unicode="_" horiz-adv-x="1024" d="M-20 -154h1064v-102h-1064v102z" />
<glyph unicode="`" horiz-adv-x="598" d="M23 1376v49h376l176 -372l-51 -27z" />
<glyph unicode="a" horiz-adv-x="1236" d="M59 201q0 107 97 186q45 37 107.5 62.5t140.5 40t129.5 20.5t130.5 12v187q0 27 -1.5 45t-7.5 41t-17 36.5t-31.5 23t-49.5 9.5q-28 0 -62 -14t-34 -41q0 -9 9.5 -19.5t21 -20.5t21 -32.5t9.5 -52.5q0 -55 -36.5 -92.5t-84 -51.5t-100.5 -14q-78 0 -131 38.5t-53 115.5 q0 110 121 182t362 72h64q92 0 158.5 -7.5t113.5 -25t76 -41.5t45.5 -63t22 -82.5t5.5 -106.5v-411q0 -19 0.5 -29t3 -24t9.5 -20.5t18 -6.5q7 0 12.5 2.5t12.5 8.5t11.5 11t14 16.5t15.5 18.5l53 -33q-102 -157 -299 -157q-59 0 -104 12.5t-76 37.5t-47 44t-35 49 q-156 -145 -355 -145q-109 0 -184.5 56t-75.5 163zM485 272q0 -56 24 -91.5t66 -35.5q48 0 70 43q12 21 14.5 43.5t2.5 90.5v131q-20 4 -25 4q-59 0 -105.5 -52.5t-46.5 -132.5z" />
<glyph unicode="b" d="M23 0v63h133v1321h-133v62q343 0 555 33v-680q18 19 30.5 31t42 34.5t58 36t71.5 24.5t88 11q180 0 291 -143q101 -128 101 -328q0 -113 -27 -195q-42 -136 -147 -218.5t-244 -82.5q-147 0 -264 117v-86h-555zM578 369q0 -138 27.5 -208.5t90.5 -70.5q36 0 58 21.5 t36.5 91t14.5 192.5v164q0 49 -3.5 85.5t-12.5 76t-30.5 61t-53.5 21.5q-35 0 -61 -24t-39.5 -63t-20 -81t-6.5 -86v-180z" />
<glyph unicode="c" horiz-adv-x="1150" d="M63 453q0 138 78.5 249t210 171.5t289.5 60.5q95 0 194 -20.5t162 -65.5q103 -72 103 -191q0 -24 -9 -50.5t-29 -55.5t-60.5 -47.5t-96.5 -18.5q-96 0 -154.5 47t-58.5 121q0 35 13 61.5t29 38.5t29 28t13 32q0 32 -34 46.5t-70 14.5q-73 0 -111 -57q-43 -62 -43 -287 v-184q0 -121 27 -188q51 -121 188 -121q116 0 210.5 68t156.5 171l51 -34q-44 -75 -102.5 -129t-110 -81t-114 -42t-99.5 -18t-82 -3q-345 0 -498 211q-82 108 -82 273z" />
<glyph unicode="d" d="M63 438q0 138 51 250.5t147.5 179t221.5 66.5q43 0 81.5 -9.5t63 -21t50.5 -31.5t37 -31t28 -30v571h-133l2 62q134 3 555 35v-1416h133v-63h-557v92q-25 -24 -42 -38t-54 -37.5t-84 -35.5t-102 -12q-174 0 -286 126t-112 343zM518 332q0 -250 94 -250q63 0 98 71.5 t35 178.5v106q0 148 -14 229.5t-38.5 109.5t-67.5 28q-39 0 -60 -20.5t-34 -95.5t-13 -220v-137z" />
<glyph unicode="e" horiz-adv-x="1193" d="M63 455q0 126 56 223q29 48 72 90.5t107 82t158 62.5t206 23q110 0 198 -28.5t141.5 -72.5t89.5 -101t50 -109.5t14 -102.5v-20h-635v-86q0 -71 4.5 -122.5t18 -101.5t36.5 -81.5t62.5 -50.5t93.5 -19q44 0 105.5 18t120.5 64q51 39 83 86t66 119l57 -23 q-36 -92 -88 -153q-35 -41 -71 -70t-90.5 -56.5t-132.5 -42t-177 -14.5q-34 0 -66 2t-91.5 14t-109.5 32.5t-105.5 63t-94.5 99.5q-78 121 -78 275zM520 569h172q23 0 30 14.5t7 47.5v59q0 182 -96 182q-27 0 -47 -10.5t-32 -32t-19 -43t-10 -56.5t-4 -58.5t-1 -61.5v-41z " />
<glyph unicode="f" horiz-adv-x="811" d="M18 0v63h138v775h-138v67h138q0 128 32 223q39 113 125.5 193.5t194.5 118t227 37.5q166 0 259 -76t93 -195q0 -91 -52.5 -146.5t-143.5 -55.5q-87 0 -143 47t-56 133q0 45 16 79t35.5 49.5t35.5 31.5t16 30q0 15 -12.5 29t-37.5 14q-167 0 -167 -401v-111h186v-67h-186 v-775h135v-63h-695z" />
<glyph unicode="g" d="M43 20q0 98 55.5 181t145.5 121q-81 44 -117.5 118t-36.5 131q0 81 46 153.5t118 119.5q62 40 150.5 62t132.5 25t84 3q94 0 176 -22t122 -44t87 -55q9 13 22 27.5t38.5 37.5t60 37.5t71.5 14.5q59 0 104.5 -37t45.5 -96q0 -47 -33 -81t-80 -34q-37 0 -59 17.5t-28 39 t-19.5 39t-36.5 17.5q-26 0 -39 -27q88 -93 88 -199q0 -140 -133 -237q-158 -109 -381 -109q-87 0 -152.5 12.5t-104.5 24.5t-61 12q-39 0 -73.5 -24t-34.5 -62q0 -29 19 -48t59 -27t78.5 -10.5t99.5 -2.5q140 0 251.5 1t170 2t69.5 1q127 0 210 -68t83 -198 q0 -60 -18.5 -114t-48.5 -90.5t-53.5 -58.5t-45.5 -36q-153 -98 -469 -98q-40 0 -84 2t-112 8t-126.5 19t-113 32.5t-86 52.5t-31.5 74q0 30 13.5 53t38.5 38.5t44.5 24t47.5 17.5q-35 23 -58.5 43.5t-47.5 51t-36 72t-12 93.5zM193 -350q0 -73 122.5 -109.5t305.5 -36.5 q107 0 201 15t160.5 51t66.5 86q0 9 -4 18.5t-16 22t-40 20t-69 7.5q-65 0 -166.5 -1.5t-128.5 -1.5q-61 0 -192 4.5t-142 4.5q-22 0 -41 -4.5t-38 -24t-19 -51.5zM520 498q0 -118 18 -168.5t78 -50.5q59 0 77 63t18 229v156q0 152 -84 152q-62 0 -84.5 -65.5t-22.5 -209.5 v-106z" />
<glyph unicode="h" horiz-adv-x="1366" d="M25 0v63h131v1317h-131v64q256 3 553 35v-746q39 63 92 106t108 62t96 26t80 7q171 0 228 -119q32 -65 32 -217v-535h134v-63h-639v63h82v566q0 75 -11 106t-53 31q-66 0 -107.5 -82t-41.5 -180v-441h81v-63h-634z" />
<glyph unicode="i" horiz-adv-x="724" d="M23 0v63h135v779h-135v65q252 0 552 33v-877h130v-63h-682zM125 1247q0 98 69 167t166 69q98 0 167 -69t69 -167q0 -97 -69 -166t-167 -69q-97 0 -166 69t-69 166z" />
<glyph unicode="j" horiz-adv-x="681" d="M-303 -301q0 89 58.5 150t148.5 61q74 0 126 -47.5t52 -122.5q0 -34 -13.5 -63.5t-29.5 -46.5t-29.5 -37t-13.5 -39q0 -25 18 -40.5t43 -15.5q38 0 66.5 39.5t28.5 145.5v1159h-136v65q354 0 557 33v-836q0 -89 -3.5 -142.5t-21 -125.5t-52.5 -133q-17 -30 -38 -58 t-61 -67t-86.5 -67.5t-115 -49t-144.5 -20.5q-83 0 -148 18.5t-102.5 45.5t-62 63.5t-33 68t-8.5 62.5zM125 1247q0 98 70 167t167 69q96 0 165 -69t69 -167q0 -97 -69.5 -166t-166.5 -69t-166 69t-69 166z" />
<glyph unicode="k" horiz-adv-x="1366" d="M23 0v63h133v1319h-133v62q373 12 557 35v-996l278 250q40 36 53 51t13 29q0 25 -58 25h-112v67h475v-65h-31q-66 0 -111 -17.5t-110 -72.5l-68 -58l363 -629h94v-63h-631v63h82l-237 420v-420h88v-63h-645z" />
<glyph unicode="l" horiz-adv-x="724" d="M20 0v63h130v1317h-130v64q203 4 555 35v-1416h136v-63h-691z" />
<glyph unicode="m" horiz-adv-x="2004" d="M27 0v63h129v781h-129v63h34q326 0 519 33v-184l45 45q133 133 305 133q54 0 99.5 -13t73.5 -29.5t54.5 -45t37 -45t26.5 -43.5q29 36 50 57.5t64 53.5t102 48.5t132 16.5q25 0 48.5 -3t66.5 -14t80.5 -41.5t60.5 -76.5q20 -41 25 -84t5 -133v-519h134v-63h-639v63h84 v586q0 117 -72 117q-58 0 -99.5 -75t-41.5 -181v-447h79v-63h-583v63h80v594q0 113 -72 113q-59 0 -102 -67t-43 -160v-480h84v-63h-637z" />
<glyph unicode="n" horiz-adv-x="1366" d="M25 0v63h133v779h-133v65q337 0 557 33v-211q40 66 92 110.5t104 63t87.5 25t68.5 6.5q70 0 134.5 -26t98.5 -79q31 -47 39 -114.5t8 -210.5v-441h127v-63h-630v63h84v533q0 97 -12.5 132.5t-57.5 35.5q-60 0 -101.5 -84.5t-41.5 -216.5v-400h80v-63h-637z" />
<glyph unicode="o" d="M63 451q0 68 20 134t66.5 130t115 112t175 77.5t236.5 29.5q138 0 250.5 -38t184.5 -101.5t110.5 -144.5t38.5 -169q0 -41 -3.5 -73.5t-15.5 -79.5t-41 -94.5t-74 -92.5q-43 -41 -97 -76t-153.5 -65.5t-211.5 -30.5q-30 0 -63 2t-98 14.5t-122 33.5t-121.5 64.5 t-109.5 102.5q-87 113 -87 265zM520 401q0 -66 1.5 -111t7 -90t15.5 -72.5t26 -50t40 -32.5t56 -10q33 0 56.5 9.5t39 33t25 50t14 72.5t5.5 87t1 108v121q0 60 -1 94.5t-5 80.5t-13 72t-24 51.5t-39 36.5t-57 11q-78 0 -113 -73.5t-35 -239.5v-148z" />
<glyph unicode="p" d="M18 -492h129v1330h-129v63q331 7 549 31v-150q113 152 305 152q78 0 143.5 -28.5t110 -76t75.5 -109.5t45 -127.5t14 -131.5q0 -70 -16.5 -140t-50.5 -133t-81 -112t-113.5 -78t-142.5 -29q-96 0 -171.5 41t-117.5 96v-598h131v-63h-680v63zM565 440q0 -24 1.5 -54 t9.5 -86.5t21.5 -99.5t42 -76.5t67.5 -33.5q59 0 75.5 69t16.5 242v109q0 161 -16.5 227t-71.5 66q-69 0 -107.5 -91.5t-38.5 -271.5z" />
<glyph unicode="q" d="M63 434q0 94 28.5 183t80.5 160t132 114t175 43q70 0 144.5 -31.5t126.5 -109.5l2 135q44 -2 137 -9t166.5 -10.5t142.5 -3.5h105v-67h-129v-1332h129v-61h-674v61h121v594q-25 -26 -42 -41t-54 -40t-86 -37.5t-107 -12.5q-158 0 -271 117q-127 133 -127 348zM526 436 q0 -207 14.5 -277.5t69.5 -70.5q71 0 105.5 75t34.5 183v223q0 108 -33.5 170t-89.5 62q-27 0 -46.5 -17.5t-30 -43t-16 -68t-7 -79t-1.5 -89.5v-68z" />
<glyph unicode="r" horiz-adv-x="1067" d="M23 0v63h133v779h-133v65q353 8 555 33v-174q3 4 18.5 26t24 32t27.5 30.5t38 31.5t45.5 24t60 18.5t72.5 5.5q43 0 85 -15t78.5 -44.5t58.5 -79.5t22 -113q0 -91 -54 -154t-163 -63q-50 0 -88.5 15.5t-59.5 37t-34 48.5t-17 47t-4 36q0 39 14 64t27.5 40.5t13.5 30.5 q0 11 -7 19t-19 8q-17 0 -45.5 -27t-50.5 -65q-29 -49 -36 -106t-7 -187v-363h135v-63h-690z" />
<glyph unicode="s" horiz-adv-x="980" d="M92 -29v346h64q21 -87 45 -127q51 -86 142.5 -123.5t191.5 -37.5q92 0 140 34.5t48 79.5q0 42 -37 62.5t-135 42.5l-84 18q-69 15 -117.5 30t-99 40t-81 57t-50 80.5t-19.5 110.5q0 21 2.5 44.5t12.5 59t25 67.5t44 65.5t66.5 58t94.5 40t126 15.5q161 0 268 -74l56 66 h55v-269h-55q-13 49 -40 87.5t-61.5 61t-68.5 37.5t-70 21t-55.5 8t-34.5 2q-72 0 -117 -25t-45 -65q0 -39 38.5 -55.5t180.5 -48.5l109 -25q46 -11 78 -21t72.5 -33.5t64.5 -55t41.5 -84t17.5 -121.5q0 -179 -106 -275t-273 -96q-29 0 -65 2.5t-109 21t-123 50.5l-73 -72 h-64z" />
<glyph unicode="t" horiz-adv-x="724" d="M-33 838v43q154 81 271.5 189.5t222.5 289.5h61q-4 -402 -4 -455h211v-67h-211v-586q0 -34 2 -57t9 -46.5t22 -35t39 -11.5q42 0 67 34.5t52 113.5l57 -25q-4 -18 -8 -32.5t-16.5 -42.5t-29 -49.5t-46 -47t-66 -42.5t-91.5 -28.5t-120 -11.5q-84 0 -140.5 19.5t-87 60 t-43 92t-12.5 125.5v570h-139z" />
<glyph unicode="u" d="M8 842v65q299 7 522 33v-680q0 -39 7 -65.5t20 -38t24.5 -15.5t26.5 -4q48 0 92 51q27 32 36 70.5t9 116.5v467h-129v65q385 12 555 33v-877h129v-63h-555v141q-22 -25 -34 -38t-47.5 -42.5t-68 -46t-83.5 -31t-106 -14.5q-96 0 -175 43t-106 129q-16 54 -16 160v541 h-101z" />
<glyph unicode="v" horiz-adv-x="1110" d="M0 842v63h645v-63h-102l207 -414l135 264q4 7 11 20.5t10 19t8 15.5t7 15.5t4.5 13t3.5 13.5t1 12q0 41 -72 41h-33v63h285v-63q-54 -4 -78.5 -27t-58.5 -88l-373 -727h-111l-421 842h-68z" />
<glyph unicode="w" horiz-adv-x="1492" d="M0 842v63h639v-63h-111l146 -363l198 426h109l209 -426l100 250q19 51 19 68q0 21 -12.5 31.5t-24 12t-33.5 1.5h-37v63h291v-63q-58 -3 -85 -25.5t-50 -79.5l-291 -737h-109l-225 461l-217 -461h-113l-327 842h-76z" />
<glyph unicode="x" horiz-adv-x="1280" d="M0 0v63q71 0 100 5.5t54.5 23.5t72.5 70l224 244l-281 436h-100v63h706v-63h-104l143 -221l127 139q6 7 18 18.5t16.5 18.5t4.5 14q0 20 -19 25.5t-77 5.5v63h327v-63h-20q-59 0 -91.5 -20t-94.5 -87l-158 -170l326 -502h106v-63h-713v63h105l-187 287l-186 -205 q-33 -37 -33 -53q0 -29 76 -29h33v-63h-375z" />
<glyph unicode="y" horiz-adv-x="1150" d="M0 842v63h672v-63h-105l205 -393l131 262q1 3 11.5 24.5t16 36.5t5.5 27q0 43 -72 43h-37v63h324v-63h-21q-41 0 -72 -19t-45 -40t-34 -60l-514 -1040q-31 -63 -54 -101t-54 -75t-67 -53.5t-81 -16.5q-74 0 -122 51.5t-48 124.5q0 83 56 144t138 61q37 0 68 -12t46.5 -27 t30.5 -27t25 -12q19 0 39 41l97 196l-447 865h-92z" />
<glyph unicode="z" horiz-adv-x="1110" d="M53 0v86l500 754h-115q-105 0 -170 -58q-33 -28 -56.5 -70.5t-34 -76t-23.5 -86.5h-62l19 356h929v-86l-497 -756h112q38 0 64.5 1.5t60.5 8.5t58.5 19t50 34t45.5 54q18 29 31 66t18.5 63.5t13.5 73.5h62l-19 -383h-987z" />
<glyph unicode="{" horiz-adv-x="749" d="M0 567v29q47 8 78 18t53.5 28.5t34.5 38t19 57t8.5 74.5t1.5 101v295q0 90 21 154.5t57 103.5t94 62t120 31t148 8h121v-62h-41q-53 0 -90.5 -15.5t-57 -37.5t-30 -61.5t-13 -72t-2.5 -85.5v-326q0 -75 -6.5 -123t-19.5 -82.5t-41.5 -56t-63.5 -35t-96 -28.5 q58 -9 100 -30t66.5 -48t39 -64t19 -71t4.5 -76v-395q0 -141 46.5 -193.5t170.5 -52.5h15v-62h-131q-84 0 -144 7.5t-116.5 30t-90.5 61.5t-54.5 104t-20.5 156v313q0 59 -3 96t-14 75.5t-32.5 62t-58.5 42.5t-91 29z" />
<glyph unicode="|" horiz-adv-x="600" d="M150 -410v1979h301v-1979h-301z" />
<glyph unicode="}" horiz-adv-x="749" d="M-8 -348h49q51 0 86.5 15.5t54.5 37.5t29 62t12 72t2 85v326q0 63 3.5 105.5t14.5 76.5t26 54.5t43 38t59.5 28t81.5 22.5q-71 11 -119 39t-71 70.5t-31.5 84t-8.5 95.5v398q0 140 -46.5 190.5t-170.5 50.5h-14v64h141q81 0 139.5 -7.5t114 -30t89.5 -61.5t54.5 -104 t20.5 -156v-313q0 -42 1 -70t5.5 -60t13 -52.5t23 -42t35 -35.5t50.5 -26t69 -19v-29q-47 -8 -78 -18t-53.5 -28.5t-34.5 -38t-19 -57t-8.5 -74.5t-1.5 -101v-295q0 -90 -21 -154.5t-57 -103.5t-94 -62t-120 -31t-148 -8h-121v62z" />
<glyph unicode="~" horiz-adv-x="1482" d="M115 700q80 106 128.5 155.5t98 72t119.5 22.5q47 0 98.5 -17t142.5 -65l134 -69q64 -33 96 -44.5t61 -11.5q65 0 121 41.5t129 145.5l125 -273q-110 -146 -188.5 -202t-171.5 -56q-81 0 -205 68l-158 86q-94 51 -153 51q-76 0 -127.5 -35.5t-124.5 -144.5z" />
<glyph unicode="&#xa1;" horiz-adv-x="641" d="M72 197q0 72 47 211q29 87 44.5 140t35 169.5t32.5 271.5h93q18 -323 102 -555q36 -100 46.5 -141t10.5 -90q0 -22 -4 -45.5t-17.5 -55t-35 -56t-61 -41.5t-91.5 -17q-55 0 -95.5 18.5t-60 42t-31 57t-13.5 52.5t-2 39zM78 1257q0 85 59 144t144 59t143.5 -59t58.5 -144 t-58.5 -143.5t-143.5 -58.5t-144 58.5t-59 143.5z" />
<glyph unicode="&#xa2;" horiz-adv-x="1204" d="M84 477q0 222 156.5 354.5t429.5 141.5v201h71v-199q192 -13 299 -87.5t107 -193.5q0 -82 -48.5 -133t-125.5 -51q-72 0 -119 47.5t-47 120.5q0 35 10 63t21.5 42t21.5 31.5t10 33.5q0 26 -35 44t-94 21v-858q136 10 217 76.5t113 192.5l70 -11q-38 -146 -140 -227 t-260 -96v-207h-71v205q-271 1 -428.5 133.5t-157.5 355.5zM526 475q0 -228 29 -314t115 -106v854q-30 -10 -52.5 -27t-38 -35t-25.5 -50t-15.5 -58t-8.5 -75.5t-3.5 -85.5t-0.5 -103z" />
<glyph unicode="&#xa3;" horiz-adv-x="1236" d="M55 170q0 85 76.5 138.5t196.5 53.5q122 0 243 -36q-3 52 -24 90.5t-78 99.5t-78 88h-276v66h209q-113 126 -159 214.5t-46 186.5q0 186 147 291.5t404 105.5q114 0 190.5 -22.5t136.5 -69.5q107 -85 107 -207q0 -83 -45.5 -132.5t-120.5 -49.5q-72 0 -120 46t-48 116 q0 34 11 60.5t27 42.5t31.5 28t26.5 23t11 22q0 32 -39.5 55t-94.5 23q-91 0 -143.5 -59t-52.5 -160q0 -53 14.5 -103.5t59.5 -165.5q87 -212 98 -245h270v-66h-252q25 -74 25 -141q0 -79 -49 -174q126 -42 170.5 -52t105.5 -10q77 0 115 38.5t41 117.5h61 q-5 -204 -82.5 -311t-222.5 -107q-63 0 -124.5 16.5t-149.5 59.5l-64 31q-117 -84 -262 -84q-111 0 -178.5 49.5t-67.5 132.5zM143 123q0 -35 43.5 -56.5t114.5 -21.5q98 0 184 59q-178 74 -260 74q-38 0 -60 -14.5t-22 -40.5z" />
<glyph unicode="&#xa4;" horiz-adv-x="1433" d="M45 219l168 168q-90 133 -90 303q0 164 88 314l-164 163l195 195l164 -164q137 88 313 88q86 0 155.5 -20t149.5 -68l166 166l196 -197l-165 -163q86 -147 86 -308q0 -163 -88 -313l165 -168l-196 -195l-166 168q-82 -47 -150.5 -66.5t-154.5 -19.5q-90 0 -161.5 21 t-149.5 70l-166 -168zM399 692q0 -135 92.5 -228t227.5 -93q130 0 221.5 93.5t91.5 227.5q0 137 -91 231.5t-224 94.5q-134 0 -226 -94t-92 -232z" />
<glyph unicode="&#xa5;" horiz-adv-x="1564" d="M41 1380v66h778v-66h-155l323 -653l227 496q39 85 39 114q0 25 -18 34t-64 9h-55v66h404v-66h-54q-33 0 -54.5 -5t-36 -11.5t-29.5 -28.5t-24.5 -40t-29.5 -62l-202 -432h264v-66h-293l-41 -90v-74h334v-63h-334v-442h201v-66h-848v66h211v442h-361v63h361v54l-60 110 h-301v66h264l-315 579h-131z" />
<glyph unicode="&#xa6;" horiz-adv-x="600" d="M150 -410v834h301v-834h-301zM150 737v832h301v-832h-301z" />
<glyph unicode="&#xa7;" horiz-adv-x="1409" d="M63 549q0 191 211 348q-3 5 -24.5 35t-28.5 43.5t-21 43t-19 62t-5 72.5q0 85 47 162q37 62 95.5 107t128 69t138 34.5t142.5 10.5q136 0 239 -24.5t159 -58.5t90.5 -80t44.5 -80.5t10 -67.5q0 -32 -11 -65.5t-33.5 -64.5t-62 -51t-90.5 -20q-43 0 -86.5 16.5t-79 60.5 t-35.5 109q0 43 17 77.5t37.5 50.5t37.5 31.5t17 25.5q0 37 -65.5 57.5t-151.5 20.5q-108 0 -182 -47.5t-74 -139.5q0 -34 10.5 -63t34 -53.5t45 -42t62 -38t65 -31t72.5 -30.5l252 -102q64 -26 114.5 -55.5t98 -72t74 -101.5t26.5 -130q0 -102 -59 -202.5t-142 -133.5 q12 -6 27.5 -20t37.5 -42.5t37 -77.5t15 -109q0 -187 -129 -312q-152 -149 -430 -149q-108 0 -207 20t-184 60t-136 111.5t-51 164.5q0 86 54 138.5t141 52.5t146 -52.5t59 -130.5q0 -37 -12.5 -66.5t-30 -47.5t-35.5 -32t-30.5 -28t-12.5 -28q0 -36 74 -69.5t188 -33.5 q29 0 63 4.5t78 19.5t78 38t58 65t24 96q0 32 -12 61t-27 50.5t-45.5 44.5t-51 36.5t-61 32.5t-58 26.5t-58.5 23.5l-203 82q-161 65 -227 107q-177 111 -177 282zM256 741q0 -19 9 -36.5t21.5 -32t38.5 -32t48 -30t63 -31t69.5 -30.5t80.5 -33l286 -119 q113 -47 154.5 -67.5t89.5 -55.5q18 7 35.5 17.5t36 34t18.5 51.5q0 24 -13 46t-27 35t-43 29t-40.5 20.5t-40.5 16.5l-432 178q-7 3 -39 16t-40 16.5t-35 15t-38 17.5t-33 17t-36 20t-32 21t-35 25q-66 -47 -66 -109z" />
<glyph unicode="&#xa8;" horiz-adv-x="598" d="M-125 1243q0 76 54.5 130t131.5 54q76 0 130.5 -54.5t54.5 -129.5t-54.5 -130.5t-130.5 -55.5q-77 0 -131.5 54.5t-54.5 131.5zM354 1241q0 77 54.5 131.5t130.5 54.5q77 0 131.5 -54.5t54.5 -131.5q0 -76 -54.5 -130t-131.5 -54q-75 0 -130 54t-55 130z" />
<glyph unicode="&#xa9;" horiz-adv-x="1703" d="M111 723q0 153 58 291t157 237t236 157t290 58t290 -57.5t236 -156.5t157 -236.5t58 -290.5q0 -154 -58 -292.5t-156.5 -238.5t-236.5 -158.5t-292 -58.5q-152 0 -289 59t-235.5 158.5t-156.5 237.5t-58 291zM180 723q0 -143 52.5 -271t142.5 -220.5t214.5 -146.5 t262.5 -54q137 0 261.5 54.5t214.5 146.5t143 220t53 269q0 143 -52.5 272t-142 221.5t-214 146.5t-263.5 54q-183 0 -337.5 -92.5t-244.5 -252t-90 -347.5zM449 723q0 129 58 237.5t159 171t221 62.5q64 0 107 -17t108 -69l35 74h41v-328h-39q-24 158 -84.5 227.5 t-155.5 69.5q-59 0 -107 -33.5t-65 -89.5q-25 -95 -25 -344q0 -195 23 -274q17 -52 60 -81.5t98 -29.5q85 0 154 57t96 160l18 70h37v-318h-39l-45 74q-68 -48 -124 -68t-122 -20q-170 0 -289.5 137t-119.5 332z" />
<glyph unicode="&#xaa;" horiz-adv-x="811" d="M55 999q0 179 379 201v107q0 26 -1 38.5t-6.5 31.5t-20 27.5t-37.5 8.5q-24 0 -43 -10t-19 -23q0 -8 6 -14.5t12.5 -12t12.5 -19t6 -34.5q0 -37 -26 -60t-54 -29.5t-57 -6.5q-46 0 -80.5 22.5t-34.5 71.5q0 47 29.5 80t80.5 49.5t104 23.5t114 7q173 0 225 -41 q23 -17 35 -48t14 -55t2 -59v-251q0 -56 21 -56q18 0 39 35l35 -20q-33 -46 -76 -72.5t-111 -26.5q-66 0 -100.5 22.5t-63.5 67.5q-102 -92 -221 -92q-68 0 -116 35.5t-48 101.5zM322 1044q0 -36 15.5 -56.5t39.5 -20.5q57 0 57 86v104q-6 2 -16 2q-34 0 -65 -30.5 t-31 -84.5z" />
<glyph unicode="&#xab;" horiz-adv-x="937" d="M55 541l228 266h252l-228 -266l228 -262h-252zM424 541l227 268h252l-229 -268l229 -262h-252z" />
<glyph unicode="&#xac;" horiz-adv-x="1482" d="M139 524v267h1159v-744h-329v477h-830z" />
<glyph unicode="&#xad;" horiz-adv-x="708" d="M43 414v274h623v-274h-623z" />
<glyph unicode="&#xae;" horiz-adv-x="1703" d="M111 723q0 153 58 291t157 237t236 157t290 58t290 -57.5t236 -156.5t157 -236.5t58 -290.5q0 -154 -58 -292.5t-156.5 -238.5t-236.5 -158.5t-292 -58.5q-152 0 -289 59t-235.5 158.5t-156.5 237.5t-58 291zM180 723q0 -143 52.5 -271t142.5 -220.5t214.5 -146.5 t262.5 -54q137 0 261.5 54.5t214.5 146.5t143 220t53 269q0 143 -52.5 272t-142 221.5t-214 146.5t-263.5 54q-183 0 -337.5 -92.5t-244.5 -252t-90 -347.5zM442 291v43h121v776h-121v45h373q185 0 264 -18q70 -15 109 -60.5t39 -111.5q0 -205 -326 -220q98 -10 139.5 -19 t77.5 -34q28 -19 45 -40.5t31 -77t14 -142.5q0 -53 15.5 -76.5t48.5 -23.5q25 0 55 18l16 -33q-51 -32 -120 -32q-46 0 -86 8t-82.5 28t-68.5 62t-30 102l-4 66q-6 100 -32.5 135t-98.5 35h-20v-387h133v-43h-492zM801 764h20q168 0 168 180q0 93 -37 130.5t-123 37.5h-28 v-348z" />
<glyph unicode="&#xaf;" horiz-adv-x="598" d="M-18 1122v246h634v-246h-634z" />
<glyph unicode="&#xb0;" horiz-adv-x="724" d="M10 1194q0 146 103 249t249 103t249.5 -103t103.5 -249t-103.5 -249t-249.5 -103t-249 103t-103 249zM217 1194q0 -60 42.5 -102.5t102.5 -42.5t103 42.5t43 102.5t-43 102.5t-103 42.5t-102.5 -42.5t-42.5 -102.5z" />
<glyph unicode="&#xb1;" horiz-adv-x="1482" d="M188 0v287h1106v-287h-1106zM188 774v283h371v368h365v-368h370v-283h-370v-381h-367v381h-369z" />
<glyph unicode="&#xb2;" horiz-adv-x="843" d="M59 901v158q228 161 291 215q112 96 140 184q12 41 12 88q0 85 -46 142t-128 57q-64 0 -107 -28.5t-43 -59.5q0 -27 29 -27q9 0 27.5 2t27.5 2q40 0 76.5 -29t36.5 -92q0 -60 -40 -98.5t-106 -38.5t-112.5 40.5t-46.5 117.5q0 20 4 44.5t25.5 69t57.5 78.5t109 60t172 26 q79 0 140 -16.5t97.5 -42.5t60 -61.5t32 -68.5t8.5 -69q0 -51 -21 -97t-47.5 -76t-67.5 -58.5t-65.5 -41t-56.5 -26.5l-272 -122h325q45 0 65.5 0.5t43.5 5t31 10.5t16.5 21.5t10.5 32.5t5 50l2 23h41l-30 -375h-697z" />
<glyph unicode="&#xb3;" horiz-adv-x="843" d="M72 1110q0 56 35 97.5t106 41.5q62 0 103.5 -34.5t41.5 -92.5q0 -35 -14.5 -59t-31.5 -33t-31.5 -21.5t-14.5 -27.5q0 -24 20 -37.5t52 -13.5q68 0 107.5 54.5t39.5 164.5q0 59 -15.5 101.5t-34.5 62.5t-48 31t-43 12.5t-33 1.5t-48 -5t-46 -5q-21 0 -30 9t-9 19 q0 27 37 27q11 0 42 -3t54 -3q146 0 146 188q0 28 -4 54.5t-15 55.5t-35 46.5t-59 17.5q-24 0 -42.5 -11.5t-18.5 -31.5q0 -14 13 -25.5t29 -19.5t29 -29t13 -53q0 -54 -37 -84t-90 -30q-57 0 -93 36.5t-36 90.5q0 84 79.5 147t249.5 63q141 0 217 -60.5t76 -156.5 q0 -184 -293 -213q29 -4 38 -5t43 -6.5t50.5 -10.5t48.5 -15.5t49 -21.5t40.5 -29t36 -38.5t21.5 -48.5t9 -60q0 -113 -102.5 -188.5t-284.5 -75.5q-152 0 -234.5 66.5t-82.5 160.5z" />
<glyph unicode="&#xb4;" horiz-adv-x="598" d="M14 1053l191 372h377v-49l-516 -350z" />
<glyph unicode="&#xb5;" d="M-23 -492h132v1334h-101v65q79 0 265 11.5t257 21.5v-661q0 -156 84 -156q32 0 65.5 25.5t53.5 82.5q12 35 12 144v467h-129v65q85 0 256 8t299 25v-877h129v-63h-555v141q-34 -84 -67 -121.5t-82 -37.5q-38 0 -68 18v-492h129v-63h-680v63z" />
<glyph unicode="&#xb6;" horiz-adv-x="1374" d="M145 1026q0 195 133 307.5t363 112.5h528v-80h-96v-1710h-100v1710h-359v-1710h-100v983q-173 19 -271 121.5t-98 265.5z" />
<glyph unicode="&#xb7;" horiz-adv-x="555" d="M76 563q0 86 58.5 145.5t141.5 59.5q85 0 144 -60.5t59 -146.5q0 -88 -56 -145.5t-142 -57.5q-88 0 -146.5 58.5t-58.5 146.5z" />
<glyph unicode="&#xb8;" horiz-adv-x="598" d="M92 -303q0 27 16 48.5t50 21.5q55 0 55 -58q0 -11 -6 -31t-6 -26q0 -43 49 -43q29 0 46 30t17 89q0 64 -21.5 87t-62.5 25l47 168h54l-37 -131q84 0 148.5 -38.5t64.5 -110.5q0 -49 -23 -84.5t-61 -53.5t-77.5 -26t-82.5 -8q-67 0 -118.5 36.5t-51.5 104.5z" />
<glyph unicode="&#xb9;" horiz-adv-x="843" d="M127 901v39h154v793h-154v43q273 0 455 41v-877h155v-39h-610z" />
<glyph unicode="&#xba;" horiz-adv-x="854" d="M53 1159q0 53 21 104.5t62.5 98t116.5 75.5t171 29q103 0 186 -30.5t137 -99.5t54 -167q0 -73 -34.5 -133.5t-88.5 -97.5t-116 -56.5t-122 -19.5q-51 0 -102 9t-103 31t-92 55t-65 85t-25 117zM340 1118q0 -43 1 -67t5.5 -56.5t13.5 -49.5t26.5 -29.5t43.5 -12.5 q21 0 36 6t25 22.5t15.5 33t8 50t3 59.5t0.5 75q0 57 -0.5 86.5t-3 66t-8 54t-15 34.5t-24 23t-35.5 6q-30 0 -49 -14.5t-28 -48.5t-12 -73.5t-3 -106.5v-58z" />
<glyph unicode="&#xbb;" horiz-adv-x="937" d="M35 279l229 266l-229 262h252l227 -262l-227 -266h-252zM403 279l228 266l-228 262h252l228 -262l-228 -266h-252z" />
<glyph unicode="&#xbc;" horiz-adv-x="1908" d="M143 543v39h148v786h-148v43q58 0 226 15.5t211 27.5v-872h149v-39h-586zM492 0l817 1419h118l-819 -1419h-116zM1020 238v47l399 620h183v-626h36q45 0 53.5 11.5t8.5 71.5v17h41v-242h-41v51q0 36 -11.5 43t-72.5 7h-14v-199h122v-39h-528v39h121v199h-297zM1065 279 h252v393z" />
<glyph unicode="&#xbd;" horiz-adv-x="1908" d="M109 543v39h147v786h-147v43q58 0 225.5 15.5t210.5 27.5v-872h149v-39h-585zM463 0l817 1419h119l-819 -1419h-117zM1106 0v158q30 23 90.5 67t98.5 72t88 73.5t78.5 84.5t49.5 90.5t21 105.5q0 51 -16 95.5t-55.5 77t-96.5 32.5q-58 0 -105 -31t-47 -63q0 -25 37 -25 q2 0 20.5 1t26.5 1q52 0 82.5 -33.5t30.5 -84.5q0 -61 -36.5 -100.5t-98.5 -39.5q-74 0 -117 43.5t-43 114.5q0 67 41 135q90 146 315 146q86 0 150.5 -21.5t101.5 -58.5t54.5 -82t17.5 -96q0 -38 -9.5 -72.5t-22.5 -60t-39 -51t-46.5 -42t-57.5 -37t-60 -32t-66 -31.5 q-21 -10 -93 -42.5t-116 -55.5h352q42 0 61 2.5t35 17t21 39t10 74.5v10h39l-26 -381h-670z" />
<glyph unicode="&#xbe;" horiz-adv-x="1908" d="M133 756q0 59 36 99t97 40q59 0 99.5 -32.5t40.5 -94.5q0 -31 -10 -53t-25 -33t-29.5 -19t-24.5 -17.5t-10 -22.5q0 -22 23.5 -38t58.5 -16q65 0 103 58.5t38 156.5q0 222 -165 222q-18 0 -48 -5.5t-45 -5.5q-36 0 -36 27t36 27q16 0 49.5 -2.5t45.5 -2.5q46 0 76 22 t42 58t15.5 61.5t3.5 53.5q0 25 -4 50.5t-14 55.5t-33.5 49t-57.5 19q-22 0 -42.5 -10t-20.5 -33q0 -13 13 -24.5t29 -21t29 -32t13 -55.5q0 -51 -34 -83t-85 -32q-56 0 -91.5 36t-35.5 91q0 57 41 109q78 102 278 102q141 0 210 -63.5t69 -157.5q0 -90 -71 -143.5 t-210 -65.5q156 -11 241 -70.5t85 -166.5q0 -114 -101.5 -189.5t-275.5 -75.5q-141 0 -222 67t-81 161zM524 0l817 1419h119l-819 -1419h-117zM1040 238v47l400 620h182v-626h37q45 0 53 11t8 72v17h41v-242h-41v51q0 36 -11.5 43t-72.5 7h-14v-199h123v-39h-528v39h120v199 h-297zM1085 279h252v393z" />
<glyph unicode="&#xbf;" horiz-adv-x="1110" d="M51 338q0 52 19 103t46 88.5t69 78.5t75 67t79 60.5t67 52.5q3 3 22.5 19.5t31.5 27t29 26.5t28.5 30t17.5 24q18 33 18 86h84l8 -29q8 -30 14.5 -58.5t12.5 -70t6 -73.5q0 -80 -38 -146.5t-146 -189.5q-8 -9 -35 -38.5t-39.5 -45.5t-30.5 -43t-25.5 -53t-7.5 -55 q0 -57 45.5 -102.5t141.5 -45.5q65 0 115.5 23t50.5 53q0 14 -17.5 30t-39 31t-39 49t-17.5 80q0 77 56.5 127t133.5 50q30 0 61.5 -10.5t62 -31.5t50 -61t19.5 -92q0 -87 -61 -162q-124 -149 -400 -149q-214 0 -340.5 95t-126.5 255zM356 1253q0 86 60.5 145.5t144.5 59.5 q85 0 145 -59.5t60 -145.5q0 -83 -60 -143.5t-145 -60.5q-84 0 -144.5 61t-60.5 143z" />
<glyph unicode="&#xc0;" horiz-adv-x="1579" d="M0 0v66h35q82 0 120.5 28.5t73.5 116.5l492 1235h168l563 -1380h127v-66h-795v66h160l-135 325h-432l-72 -180q-31 -85 -31 -105q0 -40 64 -40h90v-66h-428zM338 1772v61h467l203 -274l-31 -33zM406 457h378l-194 475z" />
<glyph unicode="&#xc1;" horiz-adv-x="1579" d="M0 0v66h35q82 0 120.5 28.5t73.5 116.5l492 1235h168l563 -1380h127v-66h-795v66h160l-135 325h-432l-72 -180q-31 -85 -31 -105q0 -40 64 -40h90v-66h-428zM406 457h378l-194 475zM600 1559l227 274h467v-61l-663 -246z" />
<glyph unicode="&#xc2;" horiz-adv-x="1579" d="M0 0v66h35q82 0 120.5 28.5t73.5 116.5l492 1235h168l563 -1380h127v-66h-795v66h160l-135 325h-432l-72 -180q-31 -85 -31 -105q0 -40 64 -40h90v-66h-428zM406 457h378l-194 475zM408 1556l292 306h220l270 -308l-33 -34l-369 137l-346 -135z" />
<glyph unicode="&#xc3;" horiz-adv-x="1579" d="M0 0v66h35q82 0 120.5 28.5t73.5 116.5l492 1235h168l563 -1380h127v-66h-795v66h160l-135 325h-432l-72 -180q-31 -85 -31 -105q0 -40 64 -40h90v-66h-428zM406 457h378l-194 475zM432 1569q41 141 103 217t137 76q35 0 83 -16.5t85 -39.5l67 -41q74 -47 131 -47 q34 0 58.5 27.5t54.5 103.5l61 -22q-52 -159 -106.5 -227t-126.5 -68q-62 0 -164 51l-96 49q-48 25 -69 33t-46 8q-35 0 -57 -24.5t-53 -98.5z" />
<glyph unicode="&#xc4;" horiz-adv-x="1579" d="M0 0v66h35q82 0 120.5 28.5t73.5 116.5l492 1235h168l563 -1380h127v-66h-795v66h160l-135 325h-432l-72 -180q-31 -85 -31 -105q0 -40 64 -40h90v-66h-428zM406 457h378l-194 475zM408 1700q0 60 42.5 101.5t102.5 41.5t102.5 -41.5t42.5 -101.5q0 -61 -42.5 -103.5 t-102.5 -42.5t-102.5 42.5t-42.5 103.5zM924 1700q0 60 42.5 102.5t102.5 42.5t102.5 -42.5t42.5 -102.5t-42.5 -103t-102.5 -43t-102.5 43t-42.5 103z" />
<glyph unicode="&#xc5;" horiz-adv-x="1579" d="M0 0v66h35q82 0 120.5 28.5t73.5 116.5l492 1235h168l563 -1380h127v-66h-795v66h160l-135 325h-432l-72 -180q-31 -85 -31 -105q0 -40 64 -40h90v-66h-428zM406 457h378l-194 475zM600 1700q0 81 57.5 138.5t137.5 57.5t138 -57t58 -135q0 -83 -57 -140t-139 -57 q-80 0 -137.5 57t-57.5 136zM682 1702q0 -49 33.5 -85t79.5 -36t79 35t33 84q0 51 -32.5 86t-79.5 35q-46 0 -79.5 -35t-33.5 -84z" />
<glyph unicode="&#xc6;" horiz-adv-x="2174" d="M0 0v66h29q35 0 53 1.5t42.5 9.5t42.5 25t41 47.5t50 77.5l653 1153h-161v66h1333v-371h-64q-19 58 -33 92t-43 75.5t-69 70.5q-56 40 -122.5 53.5t-154.5 13.5h-170v-614h74q45 0 81 9t60 22.5t42 36t27.5 42.5t15.5 49.5t8 49.5t4 49h65v-596h-65q0 148 -51 209 q-19 24 -42 38t-54.5 19.5t-51 6.5t-59.5 1h-54v-636h168q130 0 196 21.5t116 66.5q71 63 104 138t55 189h64v-481h-1354v66h180v325h-532l-102 -180q-4 -8 -16 -28.5t-18 -32.5t-12 -26.5t-6 -23.5q0 -34 62 -34h82v-66h-414zM459 453h497v878z" />
<glyph unicode="&#xc7;" horiz-adv-x="1492" d="M80 715q0 286 172 493q114 137 277 206t348 69q123 0 212.5 -29.5t186.5 -101.5l65 94h64l8 -420h-72q-22 108 -55 168q-54 100 -148 160.5t-206 60.5q-125 0 -203 -78q-79 -79 -111 -223t-32 -387q0 -186 16 -334q9 -74 29.5 -133t44.5 -96t56.5 -64t58.5 -40t58.5 -20 t48 -8t34.5 -1q166 0 287 121q42 41 76.5 96t52.5 97t45 114h71l-37 -459h-67l-51 111q-99 -79 -197 -112.5t-225 -35.5l-25 -86q87 0 154 -41t67 -115q0 -50 -23.5 -86.5t-63 -55t-81 -26.5t-86.5 -8q-69 0 -122.5 37t-53.5 107q0 28 17 49.5t51 21.5q57 0 57 -59 q0 -11 -6 -31t-6 -26q0 -45 51 -45q30 0 48 30.5t18 91.5q0 65 -22.5 90t-63.5 27l37 127q-223 8 -395.5 108t-265.5 267.5t-93 374.5z" />
<glyph unicode="&#xc8;" horiz-adv-x="1409" d="M23 0v66h145v1314h-145v66h1288v-369h-62q-15 88 -73 162q-37 47 -84 77t-104 43t-104.5 17t-115.5 4h-131v-610h104q101 0 159 70.5t58 167.5v20h66v-594h-66v12q0 17 -3 40.5t-17.5 64t-38 72t-70.5 55.5t-110 24h-82v-634h192q56 0 89.5 2t75.5 8.5t76 22.5t65 42 q67 58 102 139.5t63 198.5h62v-481h-1339zM227 1772v61h467l203 -274l-31 -33z" />
<glyph unicode="&#xc9;" horiz-adv-x="1409" d="M23 0v66h145v1314h-145v66h1288v-369h-62q-15 88 -73 162q-37 47 -84 77t-104 43t-104.5 17t-115.5 4h-131v-610h104q101 0 159 70.5t58 167.5v20h66v-594h-66v12q0 17 -3 40.5t-17.5 64t-38 72t-70.5 55.5t-110 24h-82v-634h192q56 0 89.5 2t75.5 8.5t76 22.5t65 42 q67 58 102 139.5t63 198.5h62v-481h-1339zM512 1559l227 274h467v-61l-663 -246z" />
<glyph unicode="&#xca;" horiz-adv-x="1409" d="M23 0v66h145v1314h-145v66h1288v-369h-62q-15 88 -73 162q-37 47 -84 77t-104 43t-104.5 17t-115.5 4h-131v-610h104q101 0 159 70.5t58 167.5v20h66v-594h-66v12q0 17 -3 40.5t-17.5 64t-38 72t-70.5 55.5t-110 24h-82v-634h192q56 0 89.5 2t75.5 8.5t76 22.5t65 42 q67 58 102 139.5t63 198.5h62v-481h-1339zM330 1556l293 306h219l270 -308l-33 -34l-368 137l-346 -135z" />
<glyph unicode="&#xcb;" horiz-adv-x="1409" d="M23 0v66h145v1314h-145v66h1288v-369h-62q-15 88 -73 162q-37 47 -84 77t-104 43t-104.5 17t-115.5 4h-131v-610h104q101 0 159 70.5t58 167.5v20h66v-594h-66v12q0 17 -3 40.5t-17.5 64t-38 72t-70.5 55.5t-110 24h-82v-634h192q56 0 89.5 2t75.5 8.5t76 22.5t65 42 q67 58 102 139.5t63 198.5h62v-481h-1339zM309 1700q0 60 43 101.5t103 41.5t102.5 -41.5t42.5 -101.5q0 -61 -42.5 -103.5t-102.5 -42.5t-103 42.5t-43 103.5zM825 1700q0 60 43 102.5t103 42.5t102.5 -42.5t42.5 -102.5t-42.5 -103t-102.5 -43t-103 43t-43 103z" />
<glyph unicode="&#xcc;" horiz-adv-x="811" d="M-59 1772v61h467l202 -274l-30 -33zM23 0v66h145v1314h-145v66h763v-66h-145v-1314h145v-66h-763z" />
<glyph unicode="&#xcd;" horiz-adv-x="811" d="M23 0v66h145v1314h-145v66h763v-66h-145v-1314h145v-66h-763zM236 1559l227 274h467v-61l-664 -246z" />
<glyph unicode="&#xce;" horiz-adv-x="811" d="M16 1556l293 306h219l271 -308l-33 -34l-369 137l-346 -135zM23 0v66h145v1314h-145v66h763v-66h-145v-1314h145v-66h-763z" />
<glyph unicode="&#xcf;" horiz-adv-x="811" d="M10 1700q0 60 43 101.5t103 41.5t102.5 -41.5t42.5 -101.5q0 -61 -42.5 -103.5t-102.5 -42.5t-103 42.5t-43 103.5zM23 0v66h145v1314h-145v66h763v-66h-145v-1314h145v-66h-763zM526 1700q0 60 43 102.5t103 42.5t102.5 -42.5t42.5 -102.5t-42.5 -103t-102.5 -43 t-103 43t-43 103z" />
<glyph unicode="&#xd0;" horiz-adv-x="1662" d="M8 719v84h160v577h-145v66h700q63 0 97 -0.5t91 -2.5t91 -7t84 -13.5t83.5 -21.5t76 -33t75 -45.5t67 -60t64.5 -76.5q131 -183 131 -471q0 -162 -43 -272.5t-121 -198.5q-44 -50 -97.5 -89.5t-103.5 -65t-113 -43t-109.5 -26.5t-111.5 -14t-100.5 -5.5t-93.5 -0.5h-667 v66h145v653h-160zM637 66h82q64 0 114.5 10.5t87 36t63 52.5t43.5 75.5t27 89.5t14.5 110t5.5 120t1 136q0 215 -11.5 347.5t-45.5 197.5q-43 83 -112 111t-173 28h-96v-577h244v-84h-244v-653z" />
<glyph unicode="&#xd1;" horiz-adv-x="1492" d="M10 0v66q38 0 65.5 5t47.5 12t33 24.5t20.5 33.5t11 47.5t4.5 58.5t1 75v970q0 47 -14.5 67.5t-67.5 20.5h-88v66h706l514 -815v579q0 104 -21.5 137t-103.5 33h-65v66h440v-66h-45q-83 0 -109 -34.5t-26 -149.5v-1196h-234l-821 1305v-1022q0 -95 12 -140t39 -61t84 -16 h53v-66h-436zM393 1569q41 141 103 217t137 76q35 0 83 -16.5t85 -39.5l67 -41q74 -47 131 -47q34 0 58.5 27.5t54.5 103.5l62 -22q-52 -159 -106.5 -227t-127.5 -68q-62 0 -164 51l-96 49q-48 25 -69 33t-46 8q-35 0 -57 -24.5t-53 -98.5z" />
<glyph unicode="&#xd2;" horiz-adv-x="1705" d="M80 725q0 158 60 298.5t163.5 241.5t250.5 159.5t314 58.5q209 0 383 -97.5t274.5 -270t100.5 -382.5q0 -157 -58.5 -298t-161 -245.5t-250.5 -165.5t-318 -61q-102 0 -206.5 29t-204 91t-176.5 149.5t-124 215t-47 277.5zM383 1772v61h467l203 -274l-31 -33zM596 594 q0 -308 60.5 -437.5t201.5 -129.5q72 0 123 31t79.5 90.5t41 134.5t12.5 174v448q0 70 -3.5 127t-12.5 118.5t-27 107.5t-45 83.5t-68.5 57.5t-95.5 20q-53 0 -95.5 -19t-70 -47.5t-47.5 -75.5t-30 -88.5t-15.5 -101.5t-6.5 -99.5t-1 -96.5v-297z" />
<glyph unicode="&#xd3;" horiz-adv-x="1705" d="M80 725q0 158 60 298.5t163.5 241.5t250.5 159.5t314 58.5q209 0 383 -97.5t274.5 -270t100.5 -382.5q0 -157 -58.5 -298t-161 -245.5t-250.5 -165.5t-318 -61q-102 0 -206.5 29t-204 91t-176.5 149.5t-124 215t-47 277.5zM596 594q0 -308 60.5 -437.5t201.5 -129.5 q72 0 123 31t79.5 90.5t41 134.5t12.5 174v448q0 70 -3.5 127t-12.5 118.5t-27 107.5t-45 83.5t-68.5 57.5t-95.5 20q-53 0 -95.5 -19t-70 -47.5t-47.5 -75.5t-30 -88.5t-15.5 -101.5t-6.5 -99.5t-1 -96.5v-297zM682 1559l227 274h467v-61l-663 -246z" />
<glyph unicode="&#xd4;" horiz-adv-x="1705" d="M80 725q0 158 60 298.5t163.5 241.5t250.5 159.5t314 58.5q209 0 383 -97.5t274.5 -270t100.5 -382.5q0 -157 -58.5 -298t-161 -245.5t-250.5 -165.5t-318 -61q-102 0 -206.5 29t-204 91t-176.5 149.5t-124 215t-47 277.5zM479 1556l293 306h219l271 -308l-33 -34 l-369 137l-346 -135zM596 594q0 -308 60.5 -437.5t201.5 -129.5q72 0 123 31t79.5 90.5t41 134.5t12.5 174v448q0 70 -3.5 127t-12.5 118.5t-27 107.5t-45 83.5t-68.5 57.5t-95.5 20q-53 0 -95.5 -19t-70 -47.5t-47.5 -75.5t-30 -88.5t-15.5 -101.5t-6.5 -99.5t-1 -96.5 v-297z" />
<glyph unicode="&#xd5;" horiz-adv-x="1705" d="M80 725q0 158 60 298.5t163.5 241.5t250.5 159.5t314 58.5q209 0 383 -97.5t274.5 -270t100.5 -382.5q0 -157 -58.5 -298t-161 -245.5t-250.5 -165.5t-318 -61q-102 0 -206.5 29t-204 91t-176.5 149.5t-124 215t-47 277.5zM467 1569q41 141 103 217t137 76 q35 0 82.5 -16.5t84.5 -39.5l68 -41q74 -47 131 -47q34 0 58.5 27.5t54.5 103.5l61 -22q-52 -159 -106.5 -227t-126.5 -68q-62 0 -164 51l-96 49q-48 25 -69 33t-46 8q-35 0 -57.5 -25t-53.5 -98zM596 594q0 -308 60.5 -437.5t201.5 -129.5q72 0 123 31t79.5 90.5t41 134.5 t12.5 174v448q0 70 -3.5 127t-12.5 118.5t-27 107.5t-45 83.5t-68.5 57.5t-95.5 20q-53 0 -95.5 -19t-70 -47.5t-47.5 -75.5t-30 -88.5t-15.5 -101.5t-6.5 -99.5t-1 -96.5v-297z" />
<glyph unicode="&#xd6;" horiz-adv-x="1705" d="M80 725q0 158 60 298.5t163.5 241.5t250.5 159.5t314 58.5q209 0 383 -97.5t274.5 -270t100.5 -382.5q0 -157 -58.5 -298t-161 -245.5t-250.5 -165.5t-318 -61q-102 0 -206.5 29t-204 91t-176.5 149.5t-124 215t-47 277.5zM457 1700q0 60 42.5 101.5t102.5 41.5 t103 -41.5t43 -101.5q0 -61 -43 -103.5t-103 -42.5t-102.5 42.5t-42.5 103.5zM596 594q0 -308 60.5 -437.5t201.5 -129.5q72 0 123 31t79.5 90.5t41 134.5t12.5 174v448q0 70 -3.5 127t-12.5 118.5t-27 107.5t-45 83.5t-68.5 57.5t-95.5 20q-53 0 -95.5 -19t-70 -47.5 t-47.5 -75.5t-30 -88.5t-15.5 -101.5t-6.5 -99.5t-1 -96.5v-297zM973 1700q0 60 42.5 102.5t102.5 42.5t103 -42.5t43 -102.5t-43 -103t-103 -43t-102.5 43t-42.5 103z" />
<glyph unicode="&#xd7;" horiz-adv-x="1482" d="M201 899l276 301l285 -262l237 260l230 -211l-238 -260l293 -268l-274 -301l-293 268l-238 -258l-229 211l235 258z" />
<glyph unicode="&#xd8;" horiz-adv-x="1705" d="M80 723q0 282 176 489q108 129 271.5 200t338.5 71q231 0 408 -113l86 121h123l-129 -178q22 -14 51.5 -42.5t69.5 -83t72.5 -118.5t55.5 -155.5t23 -188.5q0 -174 -67 -322q-95 -207 -292.5 -323.5t-430.5 -116.5q-199 0 -381 103l-84 -117h-125l125 174 q-13 10 -22 16.5t-42 38.5t-58 63t-59 84.5t-56 109t-38 132t-16 156.5zM596 821q0 -129 8 -375l496 684q-5 30 -8 46t-12.5 51t-19.5 56.5t-28.5 50t-40.5 45t-54.5 28.5t-70.5 12q-53 0 -96 -19t-68.5 -49t-38.5 -52.5t-22 -45.5q-26 -70 -35.5 -168t-9.5 -264zM616 289 q5 -38 15 -72.5t29.5 -70t45 -61t65 -42t87.5 -16.5q99 0 162 65q58 60 76 156.5t18 273.5v289q0 109 -4 164z" />
<glyph unicode="&#xd9;" horiz-adv-x="1492" d="M10 1380v66h801v-66h-182v-977q0 -45 7 -88t28 -92t54 -85.5t91.5 -60.5t134.5 -24q170 0 262 129q37 53 48.5 110.5t11.5 182.5v688q0 60 -0.5 87.5t-7 58t-14.5 40t-29.5 19.5t-45.5 11t-69 1h-21v66h410v-66h-35q-43 0 -69 -9t-37.5 -31t-14 -42.5t-2.5 -58.5v-831 q0 -73 -10.5 -130t-46 -118.5t-95 -102.5t-165 -67.5t-248.5 -26.5t-248 20t-171.5 58t-104.5 85.5t-58 111.5q-14 44 -20 99.5t-7 100t-1 162.5v780h-146zM334 1772v61h467l203 -274l-31 -33z" />
<glyph unicode="&#xda;" horiz-adv-x="1492" d="M10 1380v66h801v-66h-182v-977q0 -45 7 -88t28 -92t54 -85.5t91.5 -60.5t134.5 -24q170 0 262 129q37 53 48.5 110.5t11.5 182.5v688q0 60 -0.5 87.5t-7 58t-14.5 40t-29.5 19.5t-45.5 11t-69 1h-21v66h410v-66h-35q-43 0 -69 -9t-37.5 -31t-14 -42.5t-2.5 -58.5v-831 q0 -73 -10.5 -130t-46 -118.5t-95 -102.5t-165 -67.5t-248.5 -26.5t-248 20t-171.5 58t-104.5 85.5t-58 111.5q-14 44 -20 99.5t-7 100t-1 162.5v780h-146zM600 1559l227 274h467v-61l-663 -246z" />
<glyph unicode="&#xdb;" horiz-adv-x="1492" d="M10 1380v66h801v-66h-182v-977q0 -45 7 -88t28 -92t54 -85.5t91.5 -60.5t134.5 -24q170 0 262 129q37 53 48.5 110.5t11.5 182.5v688q0 60 -0.5 87.5t-7 58t-14.5 40t-29.5 19.5t-45.5 11t-69 1h-21v66h410v-66h-35q-43 0 -69 -9t-37.5 -31t-14 -42.5t-2.5 -58.5v-831 q0 -73 -10.5 -130t-46 -118.5t-95 -102.5t-165 -67.5t-248.5 -26.5t-248 20t-171.5 58t-104.5 85.5t-58 111.5q-14 44 -20 99.5t-7 100t-1 162.5v780h-146zM408 1556l292 306h220l270 -308l-33 -34l-369 137l-346 -135z" />
<glyph unicode="&#xdc;" horiz-adv-x="1492" d="M10 1380v66h801v-66h-182v-977q0 -45 7 -88t28 -92t54 -85.5t91.5 -60.5t134.5 -24q170 0 262 129q37 53 48.5 110.5t11.5 182.5v688q0 60 -0.5 87.5t-7 58t-14.5 40t-29.5 19.5t-45.5 11t-69 1h-21v66h410v-66h-35q-43 0 -69 -9t-37.5 -31t-14 -42.5t-2.5 -58.5v-831 q0 -73 -10.5 -130t-46 -118.5t-95 -102.5t-165 -67.5t-248.5 -26.5t-248 20t-171.5 58t-104.5 85.5t-58 111.5q-14 44 -20 99.5t-7 100t-1 162.5v780h-146zM428 1700q0 60 42.5 101.5t102.5 41.5t103 -41.5t43 -101.5q0 -61 -43 -103.5t-103 -42.5t-102.5 42.5t-42.5 103.5z M944 1700q0 60 43 102.5t103 42.5t102.5 -42.5t42.5 -102.5t-42.5 -103t-102.5 -43t-103 43t-43 103z" />
<glyph unicode="&#xdd;" horiz-adv-x="1579" d="M0 1380v66h825v-66h-157l338 -653l262 526q32 66 32 86q0 22 -19.5 31.5t-80.5 9.5h-49v66h428v-66h-53q-79 0 -112.5 -27t-82.5 -124l-291 -578v-585h205v-66h-885v66h213v481l-440 833h-133zM707 1559l227 274h467v-61l-664 -246z" />
<glyph unicode="&#xde;" horiz-adv-x="1449" d="M23 0v66h147v1314h-147v66h761v-66h-147v-217h299q72 0 124.5 -5.5t117.5 -23.5t116.5 -59.5t87.5 -105.5q52 -90 52 -207q0 -131 -76 -223q-79 -95 -203.5 -125.5t-345.5 -30.5h-172v-317h211v-66h-825zM637 449h63q70 0 113 13.5t71 51.5t39 100t11 164q0 65 -5 114 t-12.5 83t-23.5 57t-31 36t-41.5 20t-49.5 8.5t-60 1.5h-74v-649z" />
<glyph unicode="&#xdf;" horiz-adv-x="1449" d="M10 0v63h131v738q0 83 3.5 135t15.5 119.5t40 125t74 109.5q47 53 110.5 92t118 57.5t118.5 29.5t96.5 12.5t68.5 1.5q204 0 299 -64q101 -67 101 -182q0 -15 -3.5 -35.5t-17 -51t-34.5 -55t-62 -42t-94 -17.5q-85 0 -142 55t-57 134q0 39 15.5 69.5t33.5 44.5t33.5 29 t15.5 27q0 24 -40 24q-64 0 -113.5 -25.5t-78.5 -64.5t-47.5 -94t-25 -106.5t-6.5 -108.5v-201q135 127 414 127q371 0 371 -205q0 -47 -23 -83.5t-62 -57.5t-78.5 -32.5t-84.5 -16.5q28 -3 60.5 -11.5t72.5 -28t71 -46.5t52.5 -71.5t21.5 -98.5q0 -57 -26 -110t-77 -98 t-137 -72t-196 -27q-146 0 -225.5 59.5t-79.5 153.5q0 56 35.5 92.5t89.5 36.5q39 0 64.5 -20t33.5 -41.5t8 -41.5q0 -25 -10.5 -45t-23 -30t-23 -22.5t-10.5 -25.5q0 -20 18.5 -32.5t38.5 -12.5q37 0 63.5 53.5t26.5 163.5q0 150 -55 205q-26 26 -58.5 32.5t-119.5 6.5h-66 v64h68q49 0 81 4.5t62.5 18.5t45 43.5t14.5 76.5q0 59 -31.5 95t-89.5 36q-62 0 -131 -45t-87 -99.5t-18 -158.5v-492h86v-63h-639z" />
<glyph unicode="&#xe0;" horiz-adv-x="1236" d="M59 201q0 107 97 186q45 37 107.5 62.5t140.5 40t129.5 20.5t130.5 12v187q0 27 -1.5 45t-7.5 41t-17 36.5t-31.5 23t-49.5 9.5q-28 0 -62 -14t-34 -41q0 -9 9.5 -19.5t21 -20.5t21 -32.5t9.5 -52.5q0 -55 -36.5 -92.5t-84 -51.5t-100.5 -14q-78 0 -131 38.5t-53 115.5 q0 110 121 182t362 72h64q92 0 158.5 -7.5t113.5 -25t76 -41.5t45.5 -63t22 -82.5t5.5 -106.5v-411q0 -19 0.5 -29t3 -24t9.5 -20.5t18 -6.5q7 0 12.5 2.5t12.5 8.5t11.5 11t14 16.5t15.5 18.5l53 -33q-102 -157 -299 -157q-59 0 -104 12.5t-76 37.5t-47 44t-35 49 q-156 -145 -355 -145q-109 0 -184.5 56t-75.5 163zM207 1376v49h377l176 -372l-51 -27zM485 272q0 -56 24 -91.5t66 -35.5q48 0 70 43q12 21 14.5 43.5t2.5 90.5v131q-20 4 -25 4q-59 0 -105.5 -52.5t-46.5 -132.5z" />
<glyph unicode="&#xe1;" horiz-adv-x="1236" d="M59 201q0 107 97 186q45 37 107.5 62.5t140.5 40t129.5 20.5t130.5 12v187q0 27 -1.5 45t-7.5 41t-17 36.5t-31.5 23t-49.5 9.5q-28 0 -62 -14t-34 -41q0 -9 9.5 -19.5t21 -20.5t21 -32.5t9.5 -52.5q0 -55 -36.5 -92.5t-84 -51.5t-100.5 -14q-78 0 -131 38.5t-53 115.5 q0 110 121 182t362 72h64q92 0 158.5 -7.5t113.5 -25t76 -41.5t45.5 -63t22 -82.5t5.5 -106.5v-411q0 -19 0.5 -29t3 -24t9.5 -20.5t18 -6.5q7 0 12.5 2.5t12.5 8.5t11.5 11t14 16.5t15.5 18.5l53 -33q-102 -157 -299 -157q-59 0 -104 12.5t-76 37.5t-47 44t-35 49 q-156 -145 -355 -145q-109 0 -184.5 56t-75.5 163zM463 1053l190 372h377v-49l-516 -350zM485 272q0 -56 24 -91.5t66 -35.5q48 0 70 43q12 21 14.5 43.5t2.5 90.5v131q-20 4 -25 4q-59 0 -105.5 -52.5t-46.5 -132.5z" />
<glyph unicode="&#xe2;" horiz-adv-x="1236" d="M59 201q0 107 97 186q45 37 107.5 62.5t140.5 40t129.5 20.5t130.5 12v187q0 27 -1.5 45t-7.5 41t-17 36.5t-31.5 23t-49.5 9.5q-28 0 -62 -14t-34 -41q0 -9 9.5 -19.5t21 -20.5t21 -32.5t9.5 -52.5q0 -55 -36.5 -92.5t-84 -51.5t-100.5 -14q-78 0 -131 38.5t-53 115.5 q0 110 121 182t362 72h64q92 0 158.5 -7.5t113.5 -25t76 -41.5t45.5 -63t22 -82.5t5.5 -106.5v-411q0 -19 0.5 -29t3 -24t9.5 -20.5t18 -6.5q7 0 12.5 2.5t12.5 8.5t11.5 11t14 16.5t15.5 18.5l53 -33q-102 -157 -299 -157q-59 0 -104 12.5t-76 37.5t-47 44t-35 49 q-156 -145 -355 -145q-109 0 -184.5 56t-75.5 163zM209 1085l285 349h219l272 -344l-39 -37l-344 145l-352 -145zM485 272q0 -56 24 -91.5t66 -35.5q48 0 70 43q12 21 14.5 43.5t2.5 90.5v131q-20 4 -25 4q-59 0 -105.5 -52.5t-46.5 -132.5z" />
<glyph unicode="&#xe3;" horiz-adv-x="1236" d="M59 201q0 107 97 186q45 37 107.5 62.5t140.5 40t129.5 20.5t130.5 12v187q0 27 -1.5 45t-7.5 41t-17 36.5t-31.5 23t-49.5 9.5q-28 0 -62 -14t-34 -41q0 -9 9.5 -19.5t21 -20.5t21 -32.5t9.5 -52.5q0 -55 -36.5 -92.5t-84 -51.5t-100.5 -14q-78 0 -131 38.5t-53 115.5 q0 110 121 182t362 72h64q92 0 158.5 -7.5t113.5 -25t76 -41.5t45.5 -63t22 -82.5t5.5 -106.5v-411q0 -19 0.5 -29t3 -24t9.5 -20.5t18 -6.5q7 0 12.5 2.5t12.5 8.5t11.5 11t14 16.5t15.5 18.5l53 -33q-102 -157 -299 -157q-59 0 -104 12.5t-76 37.5t-47 44t-35 49 q-156 -145 -355 -145q-109 0 -184.5 56t-75.5 163zM246 1100q46 167 101.5 237t141.5 70q45 0 97.5 -21t138.5 -69q48 -27 68 -35t45 -8q32 0 52 17t42 57l22 41l62 -29q-46 -161 -101 -233t-133 -72q-33 0 -61 10t-88 41q-123 64 -157 79t-58 15q-31 0 -52 -21.5t-44 -76.5 l-11 -25zM485 272q0 -56 24 -91.5t66 -35.5q48 0 70 43q12 21 14.5 43.5t2.5 90.5v131q-20 4 -25 4q-59 0 -105.5 -52.5t-46.5 -132.5z" />
<glyph unicode="&#xe4;" horiz-adv-x="1236" d="M59 201q0 107 97 186q45 37 107.5 62.5t140.5 40t129.5 20.5t130.5 12v187q0 27 -1.5 45t-7.5 41t-17 36.5t-31.5 23t-49.5 9.5q-28 0 -62 -14t-34 -41q0 -9 9.5 -19.5t21 -20.5t21 -32.5t9.5 -52.5q0 -55 -36.5 -92.5t-84 -51.5t-100.5 -14q-78 0 -131 38.5t-53 115.5 q0 110 121 182t362 72h64q92 0 158.5 -7.5t113.5 -25t76 -41.5t45.5 -63t22 -82.5t5.5 -106.5v-411q0 -19 0.5 -29t3 -24t9.5 -20.5t18 -6.5q7 0 12.5 2.5t12.5 8.5t11.5 11t14 16.5t15.5 18.5l53 -33q-102 -157 -299 -157q-59 0 -104 12.5t-76 37.5t-47 44t-35 49 q-156 -145 -355 -145q-109 0 -184.5 56t-75.5 163zM199 1243q0 76 54.5 130t131.5 54q76 0 130 -54.5t54 -129.5q0 -76 -54 -131t-130 -55q-77 0 -131.5 54.5t-54.5 131.5zM485 272q0 -56 24 -91.5t66 -35.5q48 0 70 43q12 21 14.5 43.5t2.5 90.5v131q-20 4 -25 4 q-59 0 -105.5 -52.5t-46.5 -132.5zM678 1241q0 77 54 131.5t130 54.5q77 0 132 -55t55 -131t-55 -130t-132 -54q-75 0 -129.5 54t-54.5 130z" />
<glyph unicode="&#xe5;" horiz-adv-x="1236" d="M59 201q0 107 97 186q45 37 107.5 62.5t140.5 40t129.5 20.5t130.5 12v187q0 27 -1.5 45t-7.5 41t-17 36.5t-31.5 23t-49.5 9.5q-28 0 -62 -14t-34 -41q0 -9 9.5 -19.5t21 -20.5t21 -32.5t9.5 -52.5q0 -55 -36.5 -92.5t-84 -51.5t-100.5 -14q-78 0 -131 38.5t-53 115.5 q0 110 121 182t362 72h64q92 0 158.5 -7.5t113.5 -25t76 -41.5t45.5 -63t22 -82.5t5.5 -106.5v-411q0 -19 0.5 -29t3 -24t9.5 -20.5t18 -6.5q7 0 12.5 2.5t12.5 8.5t11.5 11t14 16.5t15.5 18.5l53 -33q-102 -157 -299 -157q-59 0 -104 12.5t-76 37.5t-47 44t-35 49 q-156 -145 -355 -145q-109 0 -184.5 56t-75.5 163zM393 1249q0 83 58 141t141 58q82 0 140.5 -57.5t58.5 -139.5q0 -83 -58 -141.5t-141 -58.5q-82 0 -140.5 58t-58.5 140zM477 1249q0 -51 33.5 -86t81.5 -35q47 0 81 35t34 84q0 52 -34 88.5t-81 36.5t-81 -36t-34 -87z M485 272q0 -56 24 -91.5t66 -35.5q48 0 70 43q12 21 14.5 43.5t2.5 90.5v131q-20 4 -25 4q-59 0 -105.5 -52.5t-46.5 -132.5z" />
<glyph unicode="&#xe6;" horiz-adv-x="1792" d="M59 184q0 30 8 61t27 65.5t57.5 67.5t92.5 56q134 57 426 74v160q0 46 -1.5 71t-7 53t-17.5 41t-33.5 22t-53.5 9q-34 0 -61 -14t-27 -41q0 -11 12.5 -28t24.5 -43t12 -58q0 -12 -3 -27.5t-15 -39.5t-31.5 -42.5t-58 -32.5t-88.5 -14q-15 0 -31 1t-49 9.5t-57.5 23.5 t-44 46t-19.5 74q0 19 4.5 39.5t17.5 46t33.5 49t56 46t81.5 39t113 26.5t148 10q223 0 310 -70q127 70 342 70q87 0 157 -10.5t138 -39.5t114.5 -75.5t77 -123t35.5 -177.5h-657v-107q0 -172 51.5 -262t179.5 -90q29 0 60 6t73 24.5t82 48t84 81.5t80 119l63 -27 q-83 -178 -219.5 -255t-328.5 -77q-87 0 -163.5 16t-122 34.5t-91 51t-61 47.5t-40.5 42q-5 -4 -38 -33.5t-50.5 -43.5t-58 -39.5t-74.5 -39t-85 -24.5t-105 -11q-48 0 -93.5 11.5t-86 35.5t-65 67.5t-24.5 100.5zM479 254q0 -61 29.5 -92t64.5 -31q51 0 74 43t23 98v160 q-17 10 -43 10q-65 0 -106.5 -60t-41.5 -128zM1094 571h116q29 0 43.5 0.5t31 4t23 10.5t13.5 20t8.5 32t1.5 48v19q0 24 -4.5 50t-15 55.5t-33.5 48t-55 18.5q-68 0 -98.5 -66t-30.5 -240z" />
<glyph unicode="&#xe7;" horiz-adv-x="1150" d="M63 453q0 138 78.5 249t210 171.5t289.5 60.5q95 0 194 -20.5t162 -65.5q103 -72 103 -191q0 -24 -9 -50.5t-29 -55.5t-60.5 -47.5t-96.5 -18.5q-96 0 -154.5 47t-58.5 121q0 35 13 61.5t29 38.5t29 28t13 32q0 32 -34 46.5t-70 14.5q-73 0 -111 -57q-43 -62 -43 -287 v-184q0 -121 27 -188q51 -121 188 -121q116 0 210.5 68t156.5 171l51 -34q-43 -72 -99.5 -125t-106.5 -80.5t-110.5 -43.5t-98 -19.5t-83.5 -4.5l-24 -92q84 0 148.5 -38.5t64.5 -110.5q0 -49 -23 -84.5t-61 -53.5t-77.5 -26t-82.5 -8q-67 0 -118.5 36.5t-51.5 104.5 q0 27 16 48.5t50 21.5q55 0 55 -58q0 -11 -6 -31t-6 -26q0 -43 49 -43q29 0 46 30t17 89q0 64 -21.5 87t-62.5 25l37 131q-317 12 -457 209q-82 108 -82 273z" />
<glyph unicode="&#xe8;" horiz-adv-x="1193" d="M63 455q0 126 56 223q29 48 72 90.5t107 82t158 62.5t206 23q110 0 198 -28.5t141.5 -72.5t89.5 -101t50 -109.5t14 -102.5v-20h-635v-86q0 -71 4.5 -122.5t18 -101.5t36.5 -81.5t62.5 -50.5t93.5 -19q44 0 105.5 18t120.5 64q51 39 83 86t66 119l57 -23 q-36 -92 -88 -153q-35 -41 -71 -70t-90.5 -56.5t-132.5 -42t-177 -14.5q-34 0 -66 2t-91.5 14t-109.5 32.5t-105.5 63t-94.5 99.5q-78 121 -78 275zM217 1376v49h377l176 -372l-51 -27zM520 569h172q23 0 30 14.5t7 47.5v59q0 182 -96 182q-27 0 -47 -10.5t-32 -32t-19 -43 t-10 -56.5t-4 -58.5t-1 -61.5v-41z" />
<glyph unicode="&#xe9;" horiz-adv-x="1193" d="M63 455q0 126 56 223q29 48 72 90.5t107 82t158 62.5t206 23q110 0 198 -28.5t141.5 -72.5t89.5 -101t50 -109.5t14 -102.5v-20h-635v-86q0 -71 4.5 -122.5t18 -101.5t36.5 -81.5t62.5 -50.5t93.5 -19q44 0 105.5 18t120.5 64q51 39 83 86t66 119l57 -23 q-36 -92 -88 -153q-35 -41 -71 -70t-90.5 -56.5t-132.5 -42t-177 -14.5q-34 0 -66 2t-91.5 14t-109.5 32.5t-105.5 63t-94.5 99.5q-78 121 -78 275zM467 1053l190 372h377v-49l-516 -350zM520 569h172q23 0 30 14.5t7 47.5v59q0 182 -96 182q-27 0 -47 -10.5t-32 -32 t-19 -43t-10 -56.5t-4 -58.5t-1 -61.5v-41z" />
<glyph unicode="&#xea;" horiz-adv-x="1193" d="M63 455q0 126 56 223q29 48 72 90.5t107 82t158 62.5t206 23q110 0 198 -28.5t141.5 -72.5t89.5 -101t50 -109.5t14 -102.5v-20h-635v-86q0 -71 4.5 -122.5t18 -101.5t36.5 -81.5t62.5 -50.5t93.5 -19q44 0 105.5 18t120.5 64q51 39 83 86t66 119l57 -23 q-36 -92 -88 -153q-35 -41 -71 -70t-90.5 -56.5t-132.5 -42t-177 -14.5q-34 0 -66 2t-91.5 14t-109.5 32.5t-105.5 63t-94.5 99.5q-78 121 -78 275zM219 1085l285 349h219l272 -344l-39 -37l-344 145l-352 -145zM520 569h172q23 0 30 14.5t7 47.5v59q0 182 -96 182 q-27 0 -47 -10.5t-32 -32t-19 -43t-10 -56.5t-4 -58.5t-1 -61.5v-41z" />
<glyph unicode="&#xeb;" horiz-adv-x="1193" d="M63 455q0 126 56 223q29 48 72 90.5t107 82t158 62.5t206 23q110 0 198 -28.5t141.5 -72.5t89.5 -101t50 -109.5t14 -102.5v-20h-635v-86q0 -71 4.5 -122.5t18 -101.5t36.5 -81.5t62.5 -50.5t93.5 -19q44 0 105.5 18t120.5 64q51 39 83 86t66 119l57 -23 q-36 -92 -88 -153q-35 -41 -71 -70t-90.5 -56.5t-132.5 -42t-177 -14.5q-34 0 -66 2t-91.5 14t-109.5 32.5t-105.5 63t-94.5 99.5q-78 121 -78 275zM188 1243q0 76 55 130t132 54q76 0 130 -54.5t54 -129.5q0 -76 -54 -131t-130 -55q-77 0 -132 55t-55 131zM520 569h172 q23 0 30 14.5t7 47.5v59q0 182 -96 182q-27 0 -47 -10.5t-32 -32t-19 -43t-10 -56.5t-4 -58.5t-1 -61.5v-41zM668 1241q0 77 54 131.5t130 54.5t131 -54.5t55 -131.5q0 -76 -54.5 -130t-131.5 -54q-75 0 -129.5 54t-54.5 130z" />
<glyph unicode="&#xec;" horiz-adv-x="724" d="M-55 1376v49h377l176 -372l-52 -27zM23 0v63h135v779h-135v65q252 0 552 33v-877h130v-63h-682z" />
<glyph unicode="&#xed;" horiz-adv-x="724" d="M23 0v63h135v779h-135v65q252 0 552 33v-877h130v-63h-682zM193 1053l190 372h377v-49l-516 -350z" />
<glyph unicode="&#xee;" horiz-adv-x="724" d="M-47 1085l285 349h219l272 -344l-39 -37l-344 145l-352 -145zM23 0v63h135v779h-135v65q252 0 552 33v-877h130v-63h-682z" />
<glyph unicode="&#xef;" horiz-adv-x="724" d="M-61 1243q0 76 54.5 130t131.5 54q76 0 130 -54.5t54 -129.5q0 -76 -54 -131t-130 -55q-77 0 -131.5 54.5t-54.5 131.5zM23 0v63h135v779h-135v65q252 0 552 33v-877h130v-63h-682zM418 1241q0 77 54 131.5t130 54.5t131 -54.5t55 -131.5q0 -76 -54.5 -130t-131.5 -54 q-75 0 -129.5 54t-54.5 130z" />
<glyph unicode="&#xf0;" d="M68 453q0 94 31.5 174t85 136t123.5 96t147.5 58.5t156.5 18.5q121 0 189 -45q-4 21 -9.5 53.5t-9 46t-13 47t-26.5 84.5l-333 -90l-17 70l320 86q-14 42 -78.5 124t-147.5 128l19 51q270 -66 450 -223l13 -11l219 58l16 -68l-176 -47q64 -64 111.5 -148t69.5 -152 t35 -144t14.5 -108.5t1.5 -61.5q0 -126 -33 -231.5t-90 -176.5t-125.5 -117t-147.5 -67q-98 -25 -213 -25q-137 0 -249 39t-184 106t-111 154t-39 185zM520 391q0 -49 0.5 -81.5t4 -73.5t9 -67.5t16 -54.5t26 -44t37.5 -26.5t51 -10.5q34 0 58.5 10t40 37t24 53t12.5 81.5 t5 96.5t1 123v92q0 57 -1.5 97t-6.5 81.5t-14.5 68t-24.5 48t-37.5 31.5t-52.5 10q-32 0 -56 -10.5t-40.5 -34t-26.5 -53.5t-15.5 -77.5t-7.5 -96.5t-2 -119v-80z" />
<glyph unicode="&#xf1;" horiz-adv-x="1366" d="M25 0v63h133v779h-133v65q337 0 557 33v-211q40 66 92 110.5t104 63t87.5 25t68.5 6.5q70 0 134.5 -26t98.5 -79q31 -47 39 -114.5t8 -210.5v-441h127v-63h-630v63h84v533q0 97 -12.5 132.5t-57.5 35.5q-60 0 -101.5 -84.5t-41.5 -216.5v-400h80v-63h-637zM295 1100 q46 167 102 237t142 70q44 0 96 -21t139 -69q48 -27 68 -35t45 -8q32 0 52 17t42 57l23 41l61 -29q-46 -161 -101 -233t-133 -72q-33 0 -61 10t-88 41q-123 64 -157 79t-58 15q-31 0 -52 -21.5t-44 -76.5l-11 -25z" />
<glyph unicode="&#xf2;" d="M63 451q0 68 20 134t66.5 130t115 112t175 77.5t236.5 29.5q138 0 250.5 -38t184.5 -101.5t110.5 -144.5t38.5 -169q0 -41 -3.5 -73.5t-15.5 -79.5t-41 -94.5t-74 -92.5q-43 -41 -97 -76t-153.5 -65.5t-211.5 -30.5q-30 0 -63 2t-98 14.5t-122 33.5t-121.5 64.5 t-109.5 102.5q-87 113 -87 265zM276 1376v49h377l176 -372l-51 -27zM520 401q0 -66 1.5 -111t7 -90t15.5 -72.5t26 -50t40 -32.5t56 -10q33 0 56.5 9.5t39 33t25 50t14 72.5t5.5 87t1 108v121q0 60 -1 94.5t-5 80.5t-13 72t-24 51.5t-39 36.5t-57 11q-78 0 -113 -73.5 t-35 -239.5v-148z" />
<glyph unicode="&#xf3;" d="M63 451q0 68 20 134t66.5 130t115 112t175 77.5t236.5 29.5q138 0 250.5 -38t184.5 -101.5t110.5 -144.5t38.5 -169q0 -41 -3.5 -73.5t-15.5 -79.5t-41 -94.5t-74 -92.5q-43 -41 -97 -76t-153.5 -65.5t-211.5 -30.5q-30 0 -63 2t-98 14.5t-122 33.5t-121.5 64.5 t-109.5 102.5q-87 113 -87 265zM492 1053l190 372h377v-49l-516 -350zM520 401q0 -66 1.5 -111t7 -90t15.5 -72.5t26 -50t40 -32.5t56 -10q33 0 56.5 9.5t39 33t25 50t14 72.5t5.5 87t1 108v121q0 60 -1 94.5t-5 80.5t-13 72t-24 51.5t-39 36.5t-57 11q-78 0 -113 -73.5 t-35 -239.5v-148z" />
<glyph unicode="&#xf4;" d="M63 451q0 68 20 134t66.5 130t115 112t175 77.5t236.5 29.5q138 0 250.5 -38t184.5 -101.5t110.5 -144.5t38.5 -169q0 -41 -3.5 -73.5t-15.5 -79.5t-41 -94.5t-74 -92.5q-43 -41 -97 -76t-153.5 -65.5t-211.5 -30.5q-30 0 -63 2t-98 14.5t-122 33.5t-121.5 64.5 t-109.5 102.5q-87 113 -87 265zM276 1085l285 349h219l273 -344l-39 -37l-344 145l-353 -145zM520 401q0 -66 1.5 -111t7 -90t15.5 -72.5t26 -50t40 -32.5t56 -10q33 0 56.5 9.5t39 33t25 50t14 72.5t5.5 87t1 108v121q0 60 -1 94.5t-5 80.5t-13 72t-24 51.5t-39 36.5 t-57 11q-78 0 -113 -73.5t-35 -239.5v-148z" />
<glyph unicode="&#xf5;" d="M63 451q0 68 20 134t66.5 130t115 112t175 77.5t236.5 29.5q138 0 250.5 -38t184.5 -101.5t110.5 -144.5t38.5 -169q0 -41 -3.5 -73.5t-15.5 -79.5t-41 -94.5t-74 -92.5q-43 -41 -97 -76t-153.5 -65.5t-211.5 -30.5q-30 0 -63 2t-98 14.5t-122 33.5t-121.5 64.5 t-109.5 102.5q-87 113 -87 265zM287 1100q46 167 101.5 237t141.5 70q45 0 97.5 -21t138.5 -69q48 -27 68 -35t45 -8q32 0 52 17t42 57l22 41l62 -29q-46 -161 -101 -233t-133 -72q-33 0 -61 10t-88 41q-123 64 -157 79t-58 15q-31 0 -52.5 -21.5t-44.5 -76.5l-10 -25z M520 401q0 -66 1.5 -111t7 -90t15.5 -72.5t26 -50t40 -32.5t56 -10q33 0 56.5 9.5t39 33t25 50t14 72.5t5.5 87t1 108v121q0 60 -1 94.5t-5 80.5t-13 72t-24 51.5t-39 36.5t-57 11q-78 0 -113 -73.5t-35 -239.5v-148z" />
<glyph unicode="&#xf6;" d="M63 451q0 68 20 134t66.5 130t115 112t175 77.5t236.5 29.5q138 0 250.5 -38t184.5 -101.5t110.5 -144.5t38.5 -169q0 -41 -3.5 -73.5t-15.5 -79.5t-41 -94.5t-74 -92.5q-43 -41 -97 -76t-153.5 -65.5t-211.5 -30.5q-30 0 -63 2t-98 14.5t-122 33.5t-121.5 64.5 t-109.5 102.5q-87 113 -87 265zM238 1243q0 76 54.5 130t131.5 54q76 0 130 -54.5t54 -129.5q0 -76 -54 -131t-130 -55t-131 54.5t-55 131.5zM520 401q0 -66 1.5 -111t7 -90t15.5 -72.5t26 -50t40 -32.5t56 -10q33 0 56.5 9.5t39 33t25 50t14 72.5t5.5 87t1 108v121 q0 60 -1 94.5t-5 80.5t-13 72t-24 51.5t-39 36.5t-57 11q-78 0 -113 -73.5t-35 -239.5v-148zM717 1241q0 77 54 131.5t130 54.5q77 0 131.5 -54.5t54.5 -131.5q0 -76 -54.5 -130t-131.5 -54q-75 0 -129.5 54t-54.5 130z" />
<glyph unicode="&#xf7;" horiz-adv-x="1482" d="M162 518v303h1157v-303h-1157zM547 246q0 80 55.5 136t134.5 56q80 0 136.5 -54.5t56.5 -141.5q0 -80 -55 -134.5t-134 -54.5q-82 0 -138 55.5t-56 137.5zM547 1096q0 81 55 136.5t135 55.5t136.5 -54t56.5 -140q0 -80 -55 -134.5t-134 -54.5q-82 0 -138 55.5t-56 135.5z " />
<glyph unicode="&#xf8;" d="M63 457q0 96 37.5 180.5t110 151.5t190.5 106t267 39q126 0 237 -33l68 98h117l-93 -135q124 -57 193.5 -164.5t69.5 -240.5q0 -106 -40.5 -192.5t-103.5 -140.5t-144 -90.5t-156.5 -51.5t-147.5 -15q-126 0 -254 43l-70 -100h-117l95 137q-34 17 -65 38t-68 57.5 t-63.5 79t-44.5 103.5t-18 130zM520 330l277 413q-5 52 -37.5 85.5t-85.5 33.5q-38 0 -76 -27.5t-55 -93.5q-23 -104 -23 -350v-61zM524 174q24 -141 133 -141q60 0 94 41.5t42 111.5q14 102 14 324v74z" />
<glyph unicode="&#xf9;" d="M8 842v65q299 7 522 33v-680q0 -39 7 -65.5t20 -38t24.5 -15.5t26.5 -4q48 0 92 51q27 32 36 70.5t9 116.5v467h-129v65q385 12 555 33v-877h129v-63h-555v141q-22 -25 -34 -38t-47.5 -42.5t-68 -46t-83.5 -31t-106 -14.5q-96 0 -175 43t-106 129q-16 54 -16 160v541 h-101zM203 1376v49h377l176 -372l-51 -27z" />
<glyph unicode="&#xfa;" d="M8 842v65q299 7 522 33v-680q0 -39 7 -65.5t20 -38t24.5 -15.5t26.5 -4q48 0 92 51q27 32 36 70.5t9 116.5v467h-129v65q385 12 555 33v-877h129v-63h-555v141q-22 -25 -34 -38t-47.5 -42.5t-68 -46t-83.5 -31t-106 -14.5q-96 0 -175 43t-106 129q-16 54 -16 160v541 h-101zM463 1053l190 372h377v-49l-516 -350z" />
<glyph unicode="&#xfb;" d="M8 842v65q299 7 522 33v-680q0 -39 7 -65.5t20 -38t24.5 -15.5t26.5 -4q48 0 92 51q27 32 36 70.5t9 116.5v467h-129v65q385 12 555 33v-877h129v-63h-555v141q-22 -25 -34 -38t-47.5 -42.5t-68 -46t-83.5 -31t-106 -14.5q-96 0 -175 43t-106 129q-16 54 -16 160v541 h-101zM238 1085l284 349h219l273 -344l-39 -37l-344 145l-352 -145z" />
<glyph unicode="&#xfc;" d="M8 842v65q299 7 522 33v-680q0 -39 7 -65.5t20 -38t24.5 -15.5t26.5 -4q48 0 92 51q27 32 36 70.5t9 116.5v467h-129v65q385 12 555 33v-877h129v-63h-555v141q-22 -25 -34 -38t-47.5 -42.5t-68 -46t-83.5 -31t-106 -14.5q-96 0 -175 43t-106 129q-16 54 -16 160v541 h-101zM207 1243q0 76 54.5 130t131.5 54q76 0 130.5 -54.5t54.5 -129.5t-54.5 -130.5t-130.5 -55.5q-77 0 -131.5 54.5t-54.5 131.5zM686 1241q0 77 54 131.5t130 54.5q77 0 132 -55t55 -131t-55 -130t-132 -54q-75 0 -129.5 54t-54.5 130z" />
<glyph unicode="&#xfd;" horiz-adv-x="1150" d="M0 842v63h672v-63h-105l205 -393l131 262q1 3 11.5 24.5t16 36.5t5.5 27q0 43 -72 43h-37v63h324v-63h-21q-41 0 -72 -19t-45 -40t-34 -60l-514 -1040q-31 -63 -54 -101t-54 -75t-67 -53.5t-81 -16.5q-74 0 -122 51.5t-48 124.5q0 83 56 144t138 61q37 0 68 -12t46.5 -27 t30.5 -27t25 -12q19 0 39 41l97 196l-447 865h-92zM494 1053l190 372h377v-49l-516 -350z" />
<glyph unicode="&#xfe;" d="M18 -492h129v1874h-129v64q27 0 103.5 2t217 9.5t228.5 19.5v-697q118 154 303 154q81 0 147.5 -29t110.5 -76.5t74.5 -109.5t44 -126.5t13.5 -129.5q0 -66 -14 -132.5t-46 -132t-77.5 -116.5t-114 -82t-150.5 -31q-176 0 -291 137v-598h131v-63h-680v63zM565 449 q0 -69 7 -128.5t22.5 -113.5t45 -85.5t69.5 -31.5q55 0 72.5 72.5t17.5 243.5v124q0 55 -1 90t-6 73.5t-14 60t-25.5 35.5t-39.5 14q-148 0 -148 -354z" />
<glyph unicode="&#xff;" horiz-adv-x="1150" d="M0 842v63h672v-63h-105l205 -393l131 262q1 3 11.5 24.5t16 36.5t5.5 27q0 43 -72 43h-37v63h324v-63h-21q-41 0 -72 -19t-45 -40t-34 -60l-514 -1040q-31 -63 -54 -101t-54 -75t-67 -53.5t-81 -16.5q-74 0 -122 51.5t-48 124.5q0 83 56 144t138 61q37 0 68 -12t46.5 -27 t30.5 -27t25 -12q19 0 39 41l97 196l-447 865h-92zM184 1243q0 76 55 130t132 54q76 0 130 -54.5t54 -129.5q0 -76 -54 -131t-130 -55q-77 0 -132 55t-55 131zM664 1241q0 77 54 131.5t130 54.5t131 -54.5t55 -131.5q0 -76 -54.5 -130t-131.5 -54q-75 0 -129.5 54t-54.5 130 z" />
<glyph unicode="&#x152;" horiz-adv-x="2304" d="M82 721q0 107 26 204.5t63 165t88 126.5t92 92t83 59q181 115 438 115q117 0 232 -37h1104v-383l-62 2q-26 161 -127 240q-61 47 -134.5 61t-178.5 14h-145v-612h53q49 0 87 8t64 20.5t45 34t29 40.5t16.5 49.5t8.5 52t4 55.5h63v-604h-63q-8 153 -64 215 q-37 41 -90 53.5t-127 12.5h-26v-639h168q50 0 82.5 2t76 10t76 23.5t68 44t65.5 69.5q83 105 101 264h59v-479h-1159q-135 -37 -256 -37q-222 0 -396.5 100.5t-269 273t-94.5 384.5zM582 674q0 -230 11.5 -354.5t51.5 -188.5q67 -102 203 -102q94 0 156 51q63 50 79.5 117 t16.5 206v670q0 137 -43 223q-57 117 -201 117q-19 0 -41 -4t-53 -14.5t-61.5 -35t-51.5 -59.5q-44 -71 -55.5 -205t-11.5 -421z" />
<glyph unicode="&#x153;" horiz-adv-x="1921" d="M63 449q0 212 169.5 348.5t457.5 136.5q204 0 328 -76q156 76 362 76q290 0 410 -164q78 -103 78 -266h-645v-64q0 -54 2 -93t9 -89t22 -84t38 -65t60.5 -46.5t87.5 -15.5q64 0 122.5 21t99 51.5t75.5 71t54.5 73.5t33.5 64l67 -27q-33 -67 -75 -120.5t-81.5 -88 t-87.5 -59t-84.5 -36.5t-82.5 -19t-71 -8t-60 -1q-218 0 -336 84q-71 -41 -170.5 -62.5t-186.5 -21.5q-117 0 -222 30t-189.5 87t-134.5 151t-50 212zM518 342q0 -35 0.5 -58.5t4 -59t9.5 -59t17.5 -51t28 -43.5t41.5 -27t57 -11q38 0 65 17.5t41.5 43.5t22.5 68t10 77.5 t2 86.5v131q0 78 -1.5 125t-6 100t-14 82t-25 55t-40 36.5t-58.5 10.5q-87 0 -120.5 -81t-33.5 -240v-203zM1225 573h157q37 0 52.5 21t15.5 92q0 50 -8 86.5t-19 54.5t-27.5 28.5t-28 12.5t-26.5 2q-61 0 -88.5 -61.5t-27.5 -202.5v-33z" />
<glyph unicode="&#x178;" horiz-adv-x="1579" d="M0 1380v66h825v-66h-157l338 -653l262 526q32 66 32 86q0 22 -19.5 31.5t-80.5 9.5h-49v66h428v-66h-53q-79 0 -112.5 -27t-82.5 -124l-291 -578v-585h205v-66h-885v66h213v481l-440 833h-133zM459 1700q0 60 42.5 101.5t102.5 41.5t103 -41.5t43 -101.5 q0 -61 -43 -103.5t-103 -42.5t-102.5 42.5t-42.5 103.5zM975 1700q0 60 42.5 102.5t102.5 42.5t103 -42.5t43 -102.5t-43 -103t-103 -43t-102.5 43t-42.5 103z" />
<glyph unicode="&#x2c6;" horiz-adv-x="598" d="M-88 1085l285 349h219l272 -344l-39 -37l-344 145l-352 -145z" />
<glyph unicode="&#x2dc;" horiz-adv-x="598" d="M-86 1100q46 167 102 237t142 70q44 0 96 -21t139 -69q48 -27 68 -35t45 -8q32 0 52 17t42 57l23 41l61 -29q-46 -162 -100.5 -233.5t-132.5 -71.5q-33 0 -62 10t-88 41q-123 64 -157 79t-58 15q-31 0 -52 -21.5t-44 -76.5l-10 -25z" />
<glyph unicode="&#x2000;" horiz-adv-x="948" />
<glyph unicode="&#x2001;" horiz-adv-x="1896" />
<glyph unicode="&#x2002;" horiz-adv-x="948" />
<glyph unicode="&#x2003;" horiz-adv-x="1896" />
<glyph unicode="&#x2004;" horiz-adv-x="632" />
<glyph unicode="&#x2005;" horiz-adv-x="474" />
<glyph unicode="&#x2006;" horiz-adv-x="316" />
<glyph unicode="&#x2007;" horiz-adv-x="316" />
<glyph unicode="&#x2008;" horiz-adv-x="237" />
<glyph unicode="&#x2009;" horiz-adv-x="379" />
<glyph unicode="&#x200a;" horiz-adv-x="105" />
<glyph unicode="&#x2010;" horiz-adv-x="708" d="M43 414v274h623v-274h-623z" />
<glyph unicode="&#x2011;" horiz-adv-x="708" d="M43 414v274h623v-274h-623z" />
<glyph unicode="&#x2012;" horiz-adv-x="708" d="M43 414v274h623v-274h-623z" />
<glyph unicode="&#x2013;" horiz-adv-x="1183" d="M43 414v274h1098v-274h-1098z" />
<glyph unicode="&#x2014;" horiz-adv-x="1777" d="M43 414v274h1692v-274h-1692z" />
<glyph unicode="&#x2018;" horiz-adv-x="598" d="M72 942q0 162 91 295.5t245 220.5l36 -61q-95 -50 -184.5 -163t-89.5 -206q0 -33 25 -33q8 0 19.5 9t23.5 20t38.5 20t61.5 9q83 0 137.5 -59t54.5 -140q0 -30 -10.5 -62t-32.5 -64t-65 -52.5t-100 -20.5q-46 0 -88.5 15.5t-80 47.5t-59.5 90t-22 134z" />
<glyph unicode="&#x2019;" horiz-adv-x="598" d="M66 1262q0 30 10.5 61.5t33 63t66 51.5t100.5 20q46 0 88.5 -15.5t80 -47.5t59.5 -89t22 -132q0 -162 -91.5 -297.5t-244.5 -221.5l-36 62q109 66 191.5 173t82.5 197q0 33 -27 33q-8 0 -19.5 -9t-23 -20.5t-38.5 -20.5t-62 -9q-83 0 -137.5 59.5t-54.5 141.5z" />
<glyph unicode="&#x201a;" horiz-adv-x="598" d="M66 174q0 30 10.5 62t32.5 65t65 53.5t100 20.5q111 0 181.5 -74.5t70.5 -214.5q0 -159 -91.5 -293.5t-244.5 -220.5l-36 59q98 54 186 167t88 202q0 35 -27 35q-9 0 -20.5 -9.5t-23 -20.5t-38 -20.5t-61.5 -9.5q-83 0 -137.5 59t-54.5 140z" />
<glyph unicode="&#x201c;" horiz-adv-x="1110" d="M66 944q0 162 90.5 294.5t244.5 219.5l35 -61q-94 -49 -183 -163.5t-89 -203.5q0 -35 24 -35q9 0 20.5 9.5t23 20.5t38.5 20.5t62 9.5q83 0 137.5 -59t54.5 -140q0 -30 -10.5 -62t-32.5 -64t-65.5 -52.5t-100.5 -20.5q-46 0 -88.5 15.5t-79.5 47.5t-59 90t-22 134z M592 944q0 157 92 296t242 218l37 -61q-94 -46 -184.5 -162.5t-90.5 -204.5q0 -17 7.5 -26t17.5 -9q9 0 20.5 9.5t23 20.5t38 20.5t61.5 9.5q83 0 138 -59t55 -140q0 -30 -10.5 -62t-32.5 -64t-65.5 -52.5t-100.5 -20.5q-46 0 -88.5 15.5t-79 47.5t-58.5 90t-22 134z" />
<glyph unicode="&#x201d;" horiz-adv-x="1110" d="M59 1262q0 30 11 61.5t33.5 63t66 51.5t100.5 20q47 0 89 -15t78.5 -46.5t58.5 -89t22 -133.5q0 -162 -90.5 -296.5t-243.5 -220.5l-37 62q99 56 186 167.5t87 200.5q0 33 -25 33q-8 0 -20 -9t-24 -20.5t-38.5 -20.5t-60.5 -9q-83 0 -138 59.5t-55 141.5zM586 1262 q0 30 10.5 61.5t32.5 63t65.5 51.5t100.5 20q46 0 88.5 -15.5t79.5 -47.5t59 -90t22 -134q0 -158 -91.5 -293t-245.5 -221l-35 64q94 49 184 162t90 202q0 35 -24 35q-9 0 -21.5 -9t-25 -20.5t-39 -20.5t-60.5 -9q-83 0 -136.5 59.5t-53.5 141.5z" />
<glyph unicode="&#x201e;" horiz-adv-x="1110" d="M59 174q0 30 10.5 62t32.5 64.5t65.5 53.5t100.5 21q110 0 180 -76t70 -213q0 -158 -90.5 -293t-243.5 -221l-37 61q102 57 187.5 169.5t85.5 197.5q0 35 -25 35q-8 0 -20 -9t-24.5 -20t-39 -20t-59.5 -9q-83 0 -138 58t-55 139zM586 174q0 30 10.5 62t32.5 64.5 t65.5 53.5t100.5 21q110 0 179.5 -76t69.5 -213q0 -157 -92 -292t-243 -222l-37 63q102 58 188 169t86 196q0 35 -24 35q-8 0 -20 -9t-25 -20t-39.5 -20t-59.5 -9q-83 0 -137.5 58t-54.5 139z" />
<glyph unicode="&#x2022;" horiz-adv-x="681" d="M53 719q0 122 83.5 206.5t203.5 84.5t204.5 -86t84.5 -209q0 -125 -80 -206t-203 -81q-125 0 -209 83.5t-84 207.5z" />
<glyph unicode="&#x2026;" horiz-adv-x="2054" d="M213 117q0 55 38.5 94t92.5 39q56 0 94.5 -39t38.5 -94q0 -56 -36 -92.5t-93 -36.5q-58 0 -96.5 36.5t-38.5 92.5zM895 117q0 55 38.5 94t94.5 39t94.5 -39t38.5 -94t-36.5 -92t-92.5 -37q-59 0 -98 37t-39 92zM1577 117q0 55 38.5 94t92.5 39q56 0 94.5 -39t38.5 -94 q0 -56 -36 -92.5t-93 -36.5q-58 0 -96.5 36.5t-38.5 92.5z" />
<glyph unicode="&#x202f;" horiz-adv-x="379" />
<glyph unicode="&#x2039;" horiz-adv-x="598" d="M70 541l227 268h252l-230 -268l230 -262h-252z" />
<glyph unicode="&#x203a;" horiz-adv-x="598" d="M49 279l227 266l-227 262h252l227 -262l-227 -266h-252z" />
<glyph unicode="&#x205f;" horiz-adv-x="474" />
<glyph unicode="&#x20ac;" horiz-adv-x="1456" d="M123 584v67h149v17q0 69 7 151h-156v68h166q16 115 59.5 210.5t107.5 164t146.5 115.5t177 70t197.5 23q186 0 305 -75t119 -193q0 -81 -47.5 -130.5t-124.5 -49.5q-75 0 -125.5 49.5t-50.5 124.5q0 34 12 74t12 57q0 34 -28.5 56t-71.5 22q-123 0 -185 -125.5 t-65 -392.5h444v-68h-448v-168h448v-67h-448q2 -210 33 -326t89 -159.5t159 -43.5q129 0 220.5 76.5t123.5 210.5l67 -14q-99 -351 -487 -351q-283 0 -453 152t-199 455h-153z" />
<glyph unicode="&#x2122;" horiz-adv-x="1585" d="M33 1231q6 145 10 215h555l8 -215h-31q-4 15 -11.5 41.5t-11 37t-10 29.5t-12 26t-15 18.5t-20 15t-25.5 7t-34 3.5h-18v-606h108v-37h-403v37h106v606h-16q-67 0 -94.5 -34t-52.5 -144h-33zM666 766v37h98v606h-98v37h319l119 -365l123 365h301v-37h-98v-606h98v-37 h-387v37h104v577l-203 -614h-32l-203 614v-577h104v-37h-245z" />
<glyph unicode="&#xe000;" horiz-adv-x="901" d="M0 0v901h901v-901h-901z" />
</font>
</defs>
</svg>
