<?xml version="1.0" standalone="no"?>
<!DOCTYPE svg PUBLIC "-//W3C//DTD SVG 1.1//EN" "http://www.w3.org/Graphics/SVG/1.1/DTD/svg11.dtd" >
<svg xmlns="http://www.w3.org/2000/svg">
<metadata></metadata>
<defs>
<font id="berthold_bodoni_proBdIt" horiz-adv-x="1323" >
<font-face units-per-em="2048" ascent="1485" descent="-563" />
<missing-glyph horiz-adv-x="555" />
<glyph unicode="&#xfb01;" horiz-adv-x="1486" d="M-371 -299q0 88 55 144.5t140 56.5q79 0 128.5 -49t49.5 -127q0 -37 -10 -65.5t-25.5 -44t-33 -28.5t-33 -20t-25.5 -17t-10 -22q0 -14 17 -24.5t42 -10.5q42 0 69.5 20.5t45.5 66.5t29.5 105t23 153.5t23 192t33.5 239.5t51 280l61 293h-194l12 59h196l27 80 q83 245 261.5 369.5t438.5 124.5q187 0 284 -68t97 -197q0 -95 -55 -151.5t-149 -56.5q-88 0 -139.5 43t-51.5 116q0 42 12.5 75t30.5 52t36.5 33.5t31 27t12.5 23.5q0 39 -90 39q-147 0 -213 -119q-38 -67 -58.5 -142.5t-46.5 -246.5h84q294 0 633 27l-92 -430 q-80 -370 -82 -402q0 -28 23 -28q40 0 95.5 93.5t86.5 176.5l61 -25q-42 -102 -71 -152.5t-68 -92.5q-100 -109 -254 -109q-123 0 -195.5 58.5t-72.5 156.5q0 51 22 164l97 502h-277l-45 -215q-17 -80 -36 -175t-27 -133t-18.5 -86t-18.5 -78t-19 -65q-105 -333 -250 -497 t-350 -164q-128 0 -213.5 77.5t-85.5 192.5z" />
<glyph unicode="&#xfb02;" horiz-adv-x="1529" d="M-371 -301q0 88 55 144.5t140 56.5q79 0 128.5 -49t49.5 -127q0 -44 -14 -76t-34 -48t-40.5 -27.5t-34.5 -22t-14 -23.5q0 -15 16.5 -25t42.5 -10q32 0 54 12t43 45.5t37 98t28 164.5q41 318 104 682q34 198 72 350h-196l12 59h196q82 292 240 434t401 142q127 0 234 -41 q170 13 375 39l-236 -1221q-1 -7 -7.5 -40t-11.5 -62t-5 -39q0 -29 26 -29q60 0 170 262l64 -29q-77 -200 -169 -278t-229 -78q-129 0 -198.5 60t-69.5 172q0 55 29 200l139 713q-37 42 -37 90q0 33 11.5 59.5t24.5 40t24.5 31.5t11.5 37q0 18 -25.5 30.5t-64.5 12.5 q-44 0 -91.5 -27.5t-70.5 -68.5q-28 -51 -46 -117.5t-50 -237.5l-11 -55h201l-12 -59h-201l-47 -244q-106 -554 -211 -772q-91 -186 -223 -292.5t-283 -106.5q-126 0 -211.5 77.5t-85.5 192.5z" />
<glyph unicode="&#xfb03;" horiz-adv-x="2197" d="M-371 -301q0 88 55 144.5t140 56.5q79 0 128.5 -49t49.5 -127q0 -45 -14 -77t-34 -48.5t-40.5 -27.5t-34.5 -21.5t-14 -22.5q0 -15 16.5 -25t42.5 -10q39 0 70 27t47 69q8 21 13.5 41.5t12.5 61.5t11.5 70.5t16 112.5t20.5 144q41 292 69 456t78 370h-196l12 59h196 l27 78q78 230 234 357.5t344 127.5q130 0 198 -59.5t68 -173.5q122 139 241.5 191.5t315.5 52.5q393 0 393 -265q0 -95 -55.5 -151.5t-149.5 -56.5q-88 0 -139 43t-51 116q0 42 12.5 75t31 52t36.5 33.5t30.5 27t12.5 23.5q0 39 -90 39q-149 0 -215 -119q-37 -67 -57 -143 t-46 -246h84q294 0 633 27l-92 -430q-15 -69 -40 -182t-34.5 -160.5t-9.5 -59.5q0 -28 22 -28t49.5 29t47.5 61q41 64 88 180l59 -25q-41 -101 -69.5 -152t-67.5 -93q-100 -109 -256 -109q-122 0 -194 58.5t-72 156.5q0 51 22 164l96 502h-276q-16 -73 -64.5 -307.5 t-68.5 -323.5q-85 -375 -246 -579.5t-385 -204.5q-98 0 -163.5 67t-65.5 170q0 80 43 130t112 50q59 0 99.5 -37.5t40.5 -91.5q0 -38 -13 -67t-31.5 -45.5t-37.5 -29t-32 -24t-13 -22.5q0 -17 15 -27t40 -10q42 0 72 25t48 75t27.5 98.5t18.5 121.5l22 184q4 35 41 256 l39 242q19 111 74 350h-289q-17 -82 -52 -267t-54.5 -276.5t-59.5 -225t-88 -237.5q-190 -409 -506 -409q-128 0 -213.5 77.5t-85.5 192.5zM700 903h289q9 29 15.5 53t12.5 45.5t19 61.5q-14 -4 -30 -4q-54 0 -89.5 39t-35.5 98q0 42 15.5 71t30.5 47t15 34q0 38 -43 38 q-25 0 -46 -13t-37 -33t-30.5 -56t-24.5 -69.5t-21 -86.5t-18 -94t-17 -104z" />
<glyph unicode="&#xfb04;" horiz-adv-x="2244" d="M-371 -301q0 88 55 144.5t140 56.5q79 0 128.5 -49t49.5 -127q0 -45 -14 -77t-34 -48.5t-40.5 -27.5t-34.5 -21.5t-14 -22.5q0 -15 16.5 -25t42.5 -10q39 0 70 27t47 69q8 21 13.5 41.5t12.5 61.5t11.5 70.5t16 112.5t20.5 144q41 292 69 456t78 370h-196l12 59h196 q77 271 236.5 417t368.5 146q130 0 198 -59.5t68 -173.5q117 130 234 188t261 58q112 0 224 -41q251 24 374 39l-235 -1221q-1 -8 -8 -39t-12 -59.5t-5 -42.5q0 -29 27 -29q52 0 145 205l25 57l63 -29q-86 -206 -170 -281t-227 -75q-129 0 -198.5 60t-69.5 172q0 55 29 200 l139 713q-37 34 -37 96q0 34 18 65t36 54t18 39q0 20 -24.5 33.5t-68.5 13.5q-46 0 -89.5 -27.5t-69.5 -68.5q-24 -40 -40.5 -98.5t-43.5 -194.5l-23 -117h201l-12 -59h-201l-47 -244q-56 -289 -104 -463t-109 -309q-88 -192 -218.5 -295.5t-285.5 -103.5q-98 0 -163.5 67 t-65.5 170q0 80 43 130t112 50q59 0 99.5 -37.5t40.5 -91.5q0 -49 -20 -83.5t-43.5 -48t-43.5 -28t-20 -28.5q0 -17 15 -27t40 -10q63 0 102 64q41 63 64 256q19 141 63 440l39 242q28 163 74 350h-289q-17 -82 -52 -267t-54.5 -276.5t-59.5 -225t-88 -237.5 q-190 -409 -506 -409q-128 0 -213.5 77.5t-85.5 192.5zM700 903h289q36 124 47 160q-14 -4 -30 -4q-54 0 -89.5 39t-35.5 98q0 40 15.5 70t30.5 49t15 33q0 38 -43 38q-25 0 -46 -13t-37 -33t-30.5 -56t-24.5 -69.5t-21 -86.5t-18 -94t-17 -104z" />
<glyph horiz-adv-x="2048" />
<glyph horiz-adv-x="2048" />
<glyph unicode="&#xd;" horiz-adv-x="2048" />
<glyph unicode=" "  horiz-adv-x="555" />
<glyph unicode="&#x09;" horiz-adv-x="555" />
<glyph unicode="&#xa0;" horiz-adv-x="555" />
<glyph unicode="!" horiz-adv-x="681" d="M102 203q0 92 65 156.5t157 64.5t156.5 -64.5t64.5 -156.5t-64.5 -156.5t-156.5 -64.5t-157 64.5t-65 156.5zM311 1225q0 38 3.5 67t17.5 66t38.5 61t71 41t111.5 17q35 0 66 -8t61 -25.5t47.5 -53t17.5 -85.5q0 -15 -1.5 -29.5t-3.5 -27t-8 -29.5t-10 -29.5t-15.5 -35.5 t-19 -38.5t-25 -48t-29 -54t-36.5 -67t-42 -76.5q-37 -68 -63 -139.5t-78 -255.5h-76q16 192 16 291q0 115 -24 274q-19 135 -19 185z" />
<glyph unicode="&#x22;" horiz-adv-x="776" d="M250 926q6 406 6 463q0 145 121 145q52 0 80 -24.5t28 -67.5q0 -37 -16 -78l-168 -438h-51zM588 926q6 406 6 463q0 145 121 145q52 0 80 -24.5t28 -67.5q0 -37 -16 -78l-168 -438h-51z" />
<glyph unicode="#" horiz-adv-x="1099" d="M55 467v211h281l26 121h-233v211h283l96 436h113l-97 -436h232l96 436h113l-97 -436h234v-211h-283l-26 -121h239v-211h-287l-104 -467h-113l105 467h-232l-104 -467h-113l105 467h-234zM449 678h231l27 121h-232z" />
<glyph unicode="$" horiz-adv-x="1140" d="M4 340q0 79 43.5 128.5t114.5 49.5q65 0 106 -43t41 -110q0 -40 -17.5 -74.5t-35.5 -61t-18 -47.5q0 -44 44.5 -77t127.5 -50l92 445q-213 134 -287 230t-74 247q0 217 145.5 346t389.5 129h33l39 184h71l-41 -192q166 -29 258 -107t92 -188q0 -73 -41 -119.5t-106 -46.5 q-63 0 -103 38t-40 97q0 32 11 59.5t23.5 42t23.5 33.5t11 37q0 71 -141 101l-96 -424q125 -75 171 -108t97 -81q57 -54 90 -131.5t33 -159.5q0 -139 -71.5 -252.5t-197 -178t-278.5 -64.5q-29 0 -49 2l-45 -199h-72l47 203q-183 35 -287 126t-104 216zM428 1221 q0 -56 38 -106t142 -116l86 400q-14 2 -37 2q-105 0 -167 -48.5t-62 -131.5zM479 49q126 0 196 51.5t70 143.5q0 30 -10.5 57.5t-21.5 44.5t-42 43t-45.5 36t-58.5 40z" />
<glyph unicode="%" horiz-adv-x="1908" d="M100 891q0 91 30.5 185.5t86.5 175.5t145 132.5t195 51.5q68 0 122 -21t89.5 -56.5t59.5 -83t34 -98t10 -104.5q0 -161 -63 -291.5t-168 -202t-229 -71.5q-144 0 -228 109t-84 274zM356 618q0 -32 18.5 -49.5t47.5 -17.5q37 0 52.5 26t31.5 93q30 123 71 362t41 295 q0 66 -59 66q-57 0 -84 -99q-31 -112 -75 -373t-44 -303zM516 0l803 1417h125l-805 -1417h-123zM1087 365q0 72 19 147.5t57.5 146.5t91.5 127t128.5 89.5t160.5 33.5q84 0 147 -31.5t99 -85t53 -115t17 -130.5q0 -243 -135 -404t-326 -161q-144 0 -228 109t-84 274z M1343 92q0 -32 18.5 -49.5t47.5 -17.5q38 0 53 26t31 92q30 123 71.5 362.5t41.5 295.5q0 65 -60 65q-58 0 -84 -98q-31 -112 -75 -373t-44 -303z" />
<glyph unicode="&#x26;" horiz-adv-x="1878" d="M31 344q0 74 30 143.5t84 120.5q60 57 145 101.5t232 97.5l51 18q-32 106 -32 203q0 203 147.5 326t390.5 123q179 0 279 -63t100 -175q0 -61 -35.5 -115t-101.5 -92q-51 -29 -97.5 -45.5t-176.5 -48.5l-25 -6q56 -144 94.5 -231.5t114.5 -241.5q33 49 84 153l41 88 q79 170 141 229.5t164 59.5q101 0 166 -58.5t65 -150.5q0 -83 -48 -133.5t-126 -50.5q-72 0 -115.5 38.5t-43.5 102.5v29q0 47 -35 47q-12 0 -22.5 -7t-24 -27t-19 -29.5t-22.5 -40.5l-52 -95q-4 -7 -23.5 -45.5t-43 -81.5t-51.5 -88q53 -94 78.5 -132.5t56.5 -67.5 q52 -49 125 -49q107 0 200 151l46 -31q-86 -147 -220.5 -224t-304.5 -77q-98 0 -172.5 29.5t-148.5 97.5q-91 -67 -188 -97t-238 -30q-212 0 -340.5 103t-128.5 272zM483 575q0 -95 38 -204t108.5 -189t148.5 -80q53 0 113 35l-17 25q-64 95 -99 161t-89 191 q-57 133 -96 256q-59 -41 -83 -85t-24 -110zM950 1243q0 -110 54 -264q88 62 135 142.5t47 166.5q0 60 -30 94.5t-83 34.5q-59 0 -91 -45.5t-32 -128.5z" />
<glyph unicode="'" horiz-adv-x="438" d="M250 926q6 406 6 463q0 145 121 145q52 0 80 -24.5t28 -67.5q0 -37 -16 -78l-168 -438h-51z" />
<glyph unicode="(" horiz-adv-x="724" d="M84 453q0 331 204 627t582 513l29 -39q-97 -101 -163 -192t-128 -217q-100 -208 -155 -483q-41 -202 -41 -441q0 -169 21 -312t69 -317l-41 -24q-85 94 -174 242q-203 330 -203 643z" />
<glyph unicode=")" horiz-adv-x="724" d="M-176 -397q97 97 163.5 188.5t127.5 218.5q105 219 155 484q39 195 39 440q0 217 -37 414q-18 90 -53 215l43 24q88 -97 172 -239q203 -333 203 -646q0 -330 -203.5 -626t-580.5 -512z" />
<glyph unicode="*" horiz-adv-x="980" d="M178 989q0 28 11.5 47.5t25.5 29t38 15t38 6t37 0.5q25 0 91 -2t77 -2q-130 32 -183 62q-75 37 -75 108q0 52 42.5 99t86.5 47q50 0 88 -51q25 -38 98 -193q-4 30 -21.5 100t-17.5 99q0 123 133 123q49 0 88 -27t39 -78q0 -38 -23.5 -79.5t-105.5 -157.5q98 103 133 130 t82 27q52 0 86.5 -46.5t34.5 -94.5q0 -104 -176 -104l-139 6l96 -31q49 -15 72 -24.5t50 -26t37.5 -38.5t10.5 -54q0 -52 -42 -93t-87 -41q-23 0 -43 9.5t-34.5 27t-22 29.5t-17.5 31q-52 100 -80 162q37 -170 37 -228q0 -66 -36 -93.5t-87 -27.5q-48 0 -88.5 25.5 t-40.5 75.5q0 16 7 37t15 38t26 44.5t28 42t33 45.5t30 41q-43 -46 -61.5 -65t-45 -44t-41.5 -32.5t-35 -14t-42 -6.5q-60 0 -93.5 48.5t-33.5 98.5z" />
<glyph unicode="+" horiz-adv-x="1482" d="M170 530l55 283h371l78 404h366l-77 -404h370l-55 -283h-371l-82 -411h-364l80 411h-371z" />
<glyph unicode="," horiz-adv-x="598" d="M45 -401l10 82q59 12 122 51.5t109 88t75.5 97.5t29.5 80q0 13 -7 20t-15 7q-9 0 -24 -10.5t-41.5 -21.5t-63.5 -11q-78 0 -128.5 51.5t-50.5 140.5q0 111 69.5 178.5t150.5 67.5q112 0 176.5 -78t64.5 -203q0 -103 -42.5 -199t-111 -165t-153 -115.5t-170.5 -60.5z" />
<glyph unicode="-" horiz-adv-x="796" d="M51 432l53 275h619l-49 -275h-623z" />
<glyph unicode="." horiz-adv-x="598" d="M68 205q0 92 64.5 156.5t156.5 64.5t156.5 -64.5t64.5 -156.5t-64.5 -156.5t-156.5 -64.5t-156.5 64.5t-64.5 156.5z" />
<glyph unicode="/" horiz-adv-x="937" d="M59 0l471 1446h355l-469 -1446h-357z" />
<glyph unicode="0" horiz-adv-x="1273" d="M59 580q0 316 195 577q30 41 75 84t112.5 92.5t158 81t184.5 31.5q183 0 310 -113q174 -156 174 -465q0 -158 -48 -322t-141 -284q-70 -91 -143.5 -152.5t-144.5 -90t-129 -39.5t-123 -11q-98 0 -179.5 35t-136 94t-92.5 138.5t-55 166t-17 177.5zM457 141 q0 -47 25 -75.5t73 -28.5q24 0 43.5 10.5t31 23.5t23 43t17 49t16.5 62q35 139 111.5 551.5t76.5 497.5q0 106 -88 106q-29 0 -51.5 -14.5t-37.5 -41.5t-23 -49t-17 -54q-42 -151 -121 -568.5t-79 -511.5z" />
<glyph unicode="1" horiz-adv-x="1273" d="M31 0l12 59h289l198 1055q15 86 15 107q0 34 -25.5 43.5t-83.5 9.5h-209l11 67h202q122 0 230.5 13.5t161.5 26t137 36.5h88l-258 -1358h291l-13 -59h-1046z" />
<glyph unicode="2" horiz-adv-x="1273" d="M-37 0l45 242q32 23 140 100t167 121q255 191 354 326t99 264q0 48 -13.5 98.5t-39.5 97t-72.5 76t-105.5 29.5q-69 0 -127 -42.5t-58 -84.5q0 -47 41 -47q10 0 25 1t18 1q81 0 129.5 -55t48.5 -134q0 -102 -58 -165.5t-157 -63.5q-101 0 -167 70.5t-66 187.5 q0 153 113 268q53 55 116.5 89.5t131 47.5t106 16t92.5 3q81 0 153 -11.5t140.5 -40t117.5 -72.5t79 -113.5t30 -157.5q0 -133 -74 -230q-67 -88 -172 -153.5t-323 -157.5l-262 -111q15 0 255.5 3.5t299.5 3.5q34 0 49.5 2t35.5 12t31.5 33t20.5 63l22 96h70l-121 -612 h-1114z" />
<glyph unicode="3" horiz-adv-x="1273" d="M35 322q0 105 61.5 183.5t163.5 78.5q51 0 90 -19t59 -44t32 -57t15 -52t3 -35q0 -80 -45.5 -136.5t-120.5 -56.5q-8 0 -21.5 1t-15.5 1q-21 0 -30 -10t-9 -22q0 -39 51 -65t115 -26q67 0 119 29t83 73.5t51 104t27 113.5t7 109q0 65 -13.5 114t-32 74.5t-44 40.5 t-42.5 18.5t-34 3.5q-36 0 -75 -15t-58 -15q-58 0 -58 55q0 10 4 22.5t19 25.5t39 13q13 0 45.5 -9t71.5 -9q21 0 42 4t58.5 17t74 49t62.5 90q41 84 41 180q0 42 -9 79.5t-28.5 71.5t-55.5 54t-85 20q-52 0 -89.5 -20.5t-37.5 -46.5q0 -14 11 -24t28 -15.5t36.5 -16.5 t36.5 -25t28 -43.5t11 -70.5q0 -104 -55.5 -150t-142.5 -46q-50 0 -87.5 17.5t-56 40.5t-30 54t-13.5 49t-2 33q0 30 7.5 63t26.5 74.5t60 80.5t99 65q110 51 297 51q79 0 148.5 -8t140 -30t120.5 -56t81.5 -91t31.5 -131q0 -79 -35 -141.5t-87 -100t-123 -63t-133.5 -36 t-127.5 -13.5q48 -5 68.5 -7.5t64.5 -9.5t69.5 -16t60 -23t61.5 -34.5t49 -46.5q70 -81 70 -201q0 -32 -6 -67.5t-24 -82.5t-46.5 -90t-79.5 -85.5t-117 -73.5t-164.5 -50.5t-216.5 -19.5q-115 0 -205 24t-142 61t-85.5 86t-45 93t-11.5 89z" />
<glyph unicode="4" horiz-adv-x="1273" d="M16 379l13 67l774 971h366l-184 -971h105q41 0 55 12.5t22 51.5l25 104h63l-75 -405h-74l18 84q6 24 6 41q0 19 -11 29t-22 12t-30 2h-96l-62 -318h209l-14 -59h-877l11 59h213l59 320h-494zM111 446h411l127 687z" />
<glyph unicode="5" horiz-adv-x="1273" d="M63 319q0 22 4.5 50t20 65t39 66.5t67 50t99.5 20.5q54 0 93.5 -17.5t61 -47.5t31.5 -63t10 -70q0 -57 -18 -96.5t-45 -56.5t-58.5 -28.5t-58.5 -15.5t-45 -15t-18 -30q0 -36 42 -59t111 -23q72 0 128.5 37t90 100t51 139.5t17.5 161.5q0 41 -5.5 77.5t-20.5 75.5 t-39.5 66.5t-66 45.5t-95.5 18q-93 0 -201 -72l-57 41l125 525q13 55 27 87t35 46t38.5 17t52.5 3h637q33 0 48.5 11.5t31.5 56.5h66l-50 -232q-11 -51 -25 -90t-28 -64.5t-34 -43.5t-35 -27t-40 -13.5t-40.5 -5.5t-42.5 -1h-631l-51 -213q215 73 379 73q76 0 146 -11 t140.5 -39.5t122 -72.5t83.5 -116t32 -164q0 -71 -18.5 -137t-66 -133t-121 -115.5t-193.5 -79.5t-273 -31q-204 0 -328.5 91.5t-124.5 258.5z" />
<glyph unicode="6" horiz-adv-x="1273" d="M74 498q0 221 121.5 410.5t322.5 326.5q136 93 327 152t335 59q73 0 112 -8l-10 -64q-40 -4 -63.5 -7t-78 -15t-97 -29.5t-98 -51.5t-103.5 -79q-153 -144 -236 -408q125 109 303 109q150 0 235 -92t85 -254q0 -39 -8 -85.5t-28 -103t-50.5 -110.5t-80.5 -105t-111.5 -89 t-149 -61.5t-189.5 -23.5q-112 0 -203.5 29t-152.5 78.5t-103 117.5t-60.5 144t-18.5 160zM473 141q0 -48 22.5 -77t67.5 -29q70 0 109 86q29 66 67.5 272.5t38.5 272.5q0 51 -19.5 76.5t-51.5 25.5q-70 0 -117 -86q-38 -67 -77.5 -258t-39.5 -283z" />
<glyph unicode="7" horiz-adv-x="1273" d="M147 842l250 598q215 -25 559 -25q49 0 94 1t76 2t73.5 4t64.5 5t73 6.5t76 6.5l-47 -172q-74 -75 -126 -132t-113.5 -133t-109 -156t-81.5 -163q-33 -84 -43 -173t-10 -216q0 -68 -16.5 -126.5t-50 -105t-90 -73.5t-130.5 -27q-60 0 -106 16t-72.5 39.5t-43.5 56 t-22.5 60.5t-5.5 58q0 74 25.5 139.5t100 159.5t216.5 220t369 304q-164 -21 -273 -21q-308 0 -475 21l-78 -174h-84z" />
<glyph unicode="8" horiz-adv-x="1273" d="M29 346q0 80 31 146t79.5 108.5t114 73t128 45.5t128.5 22q-47 11 -90.5 30.5t-92.5 55t-78.5 94.5t-29.5 134q0 82 43.5 156.5t114.5 123.5q157 111 414 111q72 0 138 -8t136.5 -31.5t121 -60t83.5 -98.5t33 -142q0 -73 -30 -134t-73.5 -99t-102.5 -67t-107 -43t-97 -22 q56 -15 98.5 -30.5t90 -43t78 -61t51 -84.5t20.5 -114q0 -191 -163.5 -315t-461.5 -124q-94 0 -177 12.5t-157.5 41.5t-127.5 72t-84 107t-31 144zM485 131q0 -42 24 -68t71 -26q68 0 96 63q31 68 62.5 260t31.5 236q0 52 -21.5 83.5t-64.5 31.5q-26 0 -47 -11.5t-33.5 -30 t-19 -31.5t-9.5 -24q-24 -62 -57 -243t-33 -240zM635 874q0 -98 84 -98q21 0 37.5 7t26.5 17t18.5 27t12.5 29.5t9 32.5q24 92 46 223.5t22 181.5q0 44 -23.5 66t-58.5 22q-62 0 -96 -84q-30 -77 -54 -214t-24 -210z" />
<glyph unicode="9" horiz-adv-x="1273" d="M18 -23l11 66q61 3 159 27q235 53 369 233q21 29 39.5 58.5t33.5 59t26 53.5t21.5 51.5t16 42.5t13 38t8.5 27q-55 -55 -115 -83t-162 -28q-166 0 -254 94t-88 232q0 227 135 385q186 213 480 213q110 0 194.5 -24t165.5 -85q172 -130 172 -419q0 -223 -135 -431.5 t-344 -332.5q-141 -84 -310.5 -134.5t-320.5 -50.5q-61 0 -115 8zM530 748q0 -99 80 -99q43 0 75.5 27.5t53 75.5t32 88.5t22.5 90.5q1 7 2 11q51 235 51 338q0 100 -82 100q-77 0 -121 -96q-21 -45 -67 -264t-46 -272z" />
<glyph unicode=":" horiz-adv-x="681" d="M158 201q0 92 64.5 156.5t156.5 64.5t156.5 -64.5t64.5 -156.5t-64.5 -156.5t-156.5 -64.5t-156.5 64.5t-64.5 156.5zM260 731q0 92 64.5 156.5t156.5 64.5t156.5 -64.5t64.5 -156.5t-64.5 -156.5t-156.5 -64.5t-156.5 64.5t-64.5 156.5z" />
<glyph unicode=";" horiz-adv-x="681" d="M129 -401l12 82q80 17 160 78.5t127 128.5t47 110q0 12 -6.5 18.5t-15.5 6.5t-24 -10.5t-41.5 -20.5t-63.5 -10q-61 0 -103 31.5t-59 73t-17 87.5q0 111 70 178.5t156 67.5q106 0 171.5 -80.5t65.5 -204.5q0 -101 -42.5 -196t-111 -164t-154 -116t-171.5 -60zM252 731 q0 93 64 157t157 64q92 0 156.5 -64.5t64.5 -156.5t-64.5 -156.5t-156.5 -64.5t-156.5 64.5t-64.5 156.5z" />
<glyph unicode="&#x3c;" horiz-adv-x="1482" d="M225 530l66 332l1038 451l-67 -342l-672 -264l567 -279l-70 -356z" />
<glyph unicode="=" horiz-adv-x="1482" d="M125 246l61 309h1076l-60 -309h-1077zM219 723l60 307h1075l-60 -307h-1075z" />
<glyph unicode="&#x3e;" horiz-adv-x="1482" d="M180 72l68 342l674 264l-568 280l68 355l864 -459l-65 -332z" />
<glyph unicode="?" horiz-adv-x="1150" d="M137 203q0 92 65 156.5t156 64.5t156.5 -65t65.5 -156t-66 -156t-156 -65q-92 0 -156.5 64.5t-64.5 156.5zM229 1157q0 120 103 211q123 109 338 109q222 0 348.5 -96.5t126.5 -280.5q0 -61 -16.5 -118.5t-56.5 -116t-100 -107t-153 -89t-209 -63.5q-125 -26 -167 -50 t-52 -83h-80v51q0 161 60 252q33 49 96 94.5t126 80.5t122 73.5t96 89.5t37 113q0 50 -18 87t-42.5 55.5t-57 29.5t-52.5 13.5t-39 2.5q-51 0 -87 -17t-36 -44q0 -14 11 -24.5t27 -21t31.5 -25.5t26.5 -43.5t11 -68.5q0 -87 -53.5 -142.5t-139.5 -55.5q-49 0 -86.5 13 t-58.5 32.5t-34.5 45.5t-17.5 48t-4 45z" />
<glyph unicode="@" horiz-adv-x="1572" d="M90 590q0 176 66.5 339.5t180 286.5t276 197t343.5 74q267 0 427.5 -150.5t160.5 -402.5q0 -110 -39.5 -221.5t-104 -197t-152 -139.5t-177.5 -54q-75 0 -117.5 41t-42.5 116q0 15 2 29q-109 -178 -249 -178q-100 0 -164 74.5t-64 191.5q0 93 41 189t105.5 171 t151.5 122.5t173 47.5q146 0 146 -165l43 120h176l-146 -475q-36 -123 -36 -174q0 -55 49 -55q47 0 98 51q91 88 149 230t58 278q0 221 -137.5 358.5t-360.5 137.5q-148 0 -278 -62.5t-224 -173t-148 -272t-54 -351.5q0 -122 34.5 -220t90.5 -160.5t131.5 -104t153.5 -59 t161 -17.5q355 0 647 285l37 -39q-142 -149 -325.5 -228t-387.5 -79q-310 0 -502 176.5t-192 462.5zM643 528q0 -63 22 -97t62 -34q53 0 103.5 56t93.5 161q35 84 57.5 183t22.5 166q0 120 -82 120q-68 0 -135 -98t-105.5 -226.5t-38.5 -230.5z" />
<glyph unicode="A" horiz-adv-x="1579" d="M-82 0l14 59h13q39 0 62 3.5t53.5 19t62.5 48.5t76 89l952 1227h240l-91 -1387h146l-10 -59h-764l12 59h145l21 349h-426l-176 -226q-22 -29 -29.5 -43t-7.5 -33q0 -47 84 -47h49l-10 -59h-416zM471 469h387l35 543z" />
<glyph unicode="B" horiz-adv-x="1536" d="M-53 0l12 59h143l260 1327h-151l12 60h809q47 0 87 -2t91 -10.5t91.5 -22t81.5 -39t68.5 -60t44.5 -85.5t17 -115q0 -324 -407 -367q342 -41 342 -333q0 -100 -34 -176t-86.5 -119.5t-125 -71t-138 -36.5t-138.5 -9h-979zM584 59h123q83 0 127.5 24.5t68.5 104.5 q19 60 39.5 195t20.5 199q0 66 -46.5 98.5t-156.5 32.5h-58zM717 776h114q105 0 146 72q21 35 51.5 206.5t30.5 213.5q0 18 -1 29.5t-9 30t-22 30t-43.5 20t-70.5 8.5h-84z" />
<glyph unicode="C" horiz-adv-x="1409" d="M90 569q0 131 38.5 262t113.5 246.5t176.5 205t236.5 142t283 52.5q242 0 379 -129l86 96h61l-82 -440h-53q-8 72 -16 115.5t-35 102t-72 101.5q-83 80 -188 80q-169 0 -260 -248q-63 -173 -117.5 -469.5t-54.5 -413.5q0 -16 0.5 -27.5t4.5 -37t11.5 -45t23.5 -43 t37.5 -39t56.5 -26.5t79 -11q81 0 159.5 37.5t138.5 97t104 124.5t69 128h59l-74 -430h-73l-52 74q-53 -31 -96.5 -50.5t-125.5 -37t-177 -17.5q-132 0 -239.5 32t-181.5 87.5t-124 132.5t-73 164t-23 184z" />
<glyph unicode="D" horiz-adv-x="1662" d="M-57 0l14 59h145l250 1327h-143l10 60h635q166 0 267 -15t179 -49q159 -68 231.5 -208t72.5 -324q0 -34 -3 -74.5t-13 -107t-34.5 -140.5t-60.5 -137q-23 -40 -53 -79t-81.5 -93t-127 -101t-162.5 -75q-61 -20 -132 -30t-118 -11.5t-135 -1.5h-741zM582 59h18 q53 1 81.5 3.5t67.5 11.5t69.5 29.5t60.5 54.5q29 33 52 78t38 84t33 119t27 128t30 166q53 279 53 424q0 128 -65 182q-32 28 -78 36.5t-140 10.5z" />
<glyph unicode="E" horiz-adv-x="1366" d="M-63 0l12 59h147l254 1327h-147l12 60h1198l-51 -426h-66q-3 55 -12 102.5t-31 97.5t-56 85.5t-89.5 58t-126.5 22.5h-150l-112 -600q42 0 78.5 9t62 20t50 33.5t38 38t31 45.5t23.5 42.5t20 43.5l10 22h62l-121 -626h-62v53q0 45 -2.5 75t-14 68.5t-32.5 61.5t-61 39 t-96 16l-125 -668h104q124 0 183 15t118 57q82 58 136.5 136.5t115.5 199.5h59l-86 -467h-1273z" />
<glyph unicode="F" horiz-adv-x="1236" d="M-57 0l10 59h147l254 1327h-147l12 60h1215l-80 -422h-64q-2 56 -7 95t-18 84.5t-38 75.5t-64.5 56t-100.5 38.5t-142 12.5h-86l-109 -595q33 0 58.5 2.5t66 17t71 39.5t61.5 74.5t50 117.5h62l-119 -624h-62v57q0 45 -3 76.5t-14.5 68t-32 58t-58 36.5t-90.5 15 l-133 -670h143l-12 -59h-770z" />
<glyph unicode="G" horiz-adv-x="1579" d="M96 563q0 49 5 101t25.5 134.5t53.5 158t96.5 163t147.5 158.5q237 199 541 199q129 0 208.5 -30.5t137.5 -84.5l92 80h67l-86 -438h-59q-1 9 -5.5 38.5t-6 40t-6.5 36t-8.5 38t-10 34.5t-14 36.5t-17.5 32.5t-22 34q-44 60 -96 85.5t-127 25.5q-52 0 -93 -20.5t-72 -57 t-59 -100.5t-49.5 -137.5t-46.5 -180.5q-40 -173 -76 -383.5t-36 -328.5q0 -23 1.5 -39.5t10 -42t24 -42t46 -28.5t73.5 -12q23 0 37.5 2t40 16t43.5 40.5t38.5 80t33.5 129.5l33 182h-144l14 66h766l-10 -66h-147l-54 -299q-90 -63 -163 -104q-208 -111 -480 -111 q-315 0 -487 172q-160 160 -160 422z" />
<glyph unicode="H" horiz-adv-x="1705" d="M-57 0l12 59h149l250 1327h-141l10 60h756l-10 -60h-138l-112 -612h325l117 612h-125l11 60h753l-12 -60h-143l-256 -1327h145l-12 -59h-752l12 59h131l123 650h-327l-123 -650h123l-13 -59h-753z" />
<glyph unicode="I" horiz-adv-x="894" d="M-55 0l12 59h145l256 1327h-147l12 60h770l-10 -60h-145l-254 -1327h143l-12 -59h-770z" />
<glyph unicode="J" horiz-adv-x="1193" d="M-57 18q0 101 63 171.5t162 70.5q87 0 143 -56t56 -141q0 -50 -16 -86.5t-38.5 -55t-45 -31.5t-38.5 -25.5t-16 -28.5q0 -19 17 -34t46 -15q35 0 62 23.5t44 68t26 79.5t18 85l256 1343h-147l12 60h774l-10 -60h-146l-213 -1112q-14 -75 -24.5 -119t-27.5 -97 t-37.5 -87.5t-52 -70.5t-73.5 -66q-158 -110 -395 -110q-242 0 -344 133q-55 71 -55 161z" />
<glyph unicode="K" horiz-adv-x="1579" d="M-53 0l10 59h141l252 1327h-141l12 60h783l-13 -60h-151l-117 -638l567 505q27 25 37.5 35t19.5 24.5t9 28.5q0 45 -74 45h-74l13 60h493l-10 -60h-33q-77 0 -123 -17t-125 -87l-293 -260l314 -963h149l-8 -59h-778l10 59h125l-219 682l-137 -682h149l-12 -59h-776z" />
<glyph unicode="L" d="M-57 0l12 59h147l250 1327h-139l12 60h766l-10 -60h-147l-248 -1327h73q67 0 108.5 4t93 19.5t97.5 49.5t95 89q44 49 76.5 98.5t44.5 75t30 68.5h64l-86 -463h-1239z" />
<glyph unicode="M" horiz-adv-x="1961" d="M-76 0l13 59h36q75 0 109.5 34t48.5 110l201 1050q10 55 10 70q0 22 -7 36t-20.5 19.5t-22 6.5t-22.5 1h-77l10 60h631l141 -846l465 846h622l-8 -60h-153l-252 -1327h147l-10 -59h-776l10 59h154l219 1174l-676 -1233h-121l-201 1233l-194 -1022q-13 -63 -13 -82 q0 -70 84 -70h80l-10 -59h-418z" />
<glyph unicode="N" horiz-adv-x="1492" d="M-82 0l10 59q2 0 20.5 0.5t23.5 1t20.5 2t23 3.5t19.5 6t21 9.5t18 12.5q28 23 41 58.5t28 113.5l191 996q10 58 10 73q0 51 -88 51h-59l12 60h604l410 -897l123 645q14 72 14 111q0 28 -7.5 45.5t-23 24.5t-27.5 9t-32 2h-84l16 60h436l-10 -60h-49q-75 0 -110.5 -35.5 t-57.5 -148.5l-225 -1202h-225l-566 1235l-186 -973q-16 -100 -16 -117q0 -58 32.5 -72t132.5 -14l-10 -59h-430z" />
<glyph unicode="O" horiz-adv-x="1705" d="M96 598q0 63 11 134.5t39.5 158.5t72 167.5t115 158t161.5 134.5t218 91.5t278 34.5q141 0 255.5 -35t189.5 -94t125 -139.5t72 -168t22 -184.5q0 -72 -15 -151.5t-48.5 -166t-82.5 -167.5t-121 -154.5t-159 -128.5t-203 -87t-246 -32q-103 0 -196.5 18t-184.5 63.5 t-156.5 115t-106 180.5t-40.5 252zM582 238q0 -102 47 -153.5t127 -51.5q145 0 217 188q56 140 125 511.5t69 484.5q0 192 -170 192q-123 0 -191 -119q-56 -98 -108 -355q-11 -52 -32 -167l-1 -1v-1v-1v-1v-1l-1 -1v-1v-1q-34 -180 -46.5 -250t-24 -149.5t-11.5 -122.5z" />
<glyph unicode="P" horiz-adv-x="1536" d="M-57 0l12 59h147l254 1327h-147l14 60h885q133 0 210 -18.5t138 -61.5q58 -41 90.5 -110.5t32.5 -145.5q0 -109 -41.5 -190.5t-108.5 -130.5t-165 -79t-196.5 -40.5t-217.5 -10.5h-154l-112 -600h141l-10 -59h-772zM707 721h79q41 0 66 3t53.5 13t47.5 33t32 61 q15 46 47.5 213t32.5 220q0 35 -11 59t-25 36t-38.5 18.5t-39 7.5t-38.5 1h-82z" />
<glyph unicode="Q" horiz-adv-x="1705" d="M96 596q0 181 66.5 343.5t180.5 280.5t275 187.5t343 69.5q129 0 235.5 -25t180 -69.5t127.5 -101.5t85 -126.5t45.5 -139t14.5 -143.5q0 -198 -80.5 -382.5t-227.5 -317.5q-32 -30 -78 -62t-131.5 -72.5t-170.5 -55.5q-17 -119 -17 -152q0 -40 10 -73.5t35 -67t77 -53 t126 -19.5q58 0 137 12l-12 -69q-166 -25 -359 -25q-47 0 -95 6.5t-102 21t-100.5 41.5t-84.5 64.5t-60 94.5t-22 126q0 24 2 44.5t4.5 38l3.5 24.5q-108 31 -197 106q-211 178 -211 494zM580 231q0 -24 3 -47t14 -53t29 -51.5t51.5 -37t78.5 -15.5q41 0 75.5 15.5t60 39 t48 62.5t37 75t28.5 87.5t21.5 89.5t17.5 91l66 353q5 27 14 74t12.5 66t9 52.5t8 50t5 40t3.5 41t1 36.5q0 18 -1 31.5t-5 41.5t-15.5 49t-29.5 43t-50 34t-73 12q-93 0 -153 -77.5t-105 -252.5q-7 -24 -41 -177.5t-72 -367.5t-38 -305z" />
<glyph unicode="R" horiz-adv-x="1622" d="M-57 0l14 59h143l258 1327h-147l12 60h844q148 0 219 -14q111 -22 176.5 -96t65.5 -189q0 -71 -21 -129t-59.5 -97.5t-84.5 -69t-106 -48.5t-112.5 -29.5t-114.5 -17.5q69 -17 120.5 -41.5t85.5 -60.5t55.5 -71t34.5 -89t19 -97.5t11 -111.5q3 -30 5 -46.5t6.5 -44 t12 -43.5t18.5 -33t27.5 -24.5t38.5 -7.5q41 0 82 25l31 -50q-137 -90 -315 -90q-319 0 -369 244q-8 40 -29 317q-3 43 -7 68.5t-14 52.5t-26 41t-42.5 23.5t-65.5 11.5l-125 -670h143l-10 -59h-774zM719 791h82q40 0 64 2.5t50 12t44 29.5t32 54q21 48 47.5 179t26.5 183 q0 38 -10 65t-23.5 40t-36.5 20.5t-37.5 8.5t-39.5 1h-87z" />
<glyph unicode="S" horiz-adv-x="1280" d="M-27 2l95 494h61q18 -221 129 -336q58 -58 141.5 -88.5t165.5 -30.5q66 0 116 16.5t77.5 40t45 54.5t22.5 55t5 47q0 38 -12.5 70.5t-31.5 56.5t-56.5 51.5t-72 47t-93.5 50.5l-102 54q-40 21 -69.5 39.5t-71.5 54t-68.5 73.5t-46 95.5t-19.5 122.5q0 101 36 191 t104.5 161.5t178 113.5t245.5 42q213 0 403 -117l90 92h64l-80 -434h-64q-8 131 -63 215q-44 66 -133.5 120t-200.5 54q-54 0 -93.5 -16.5t-58 -36.5t-29 -48t-11.5 -40t-1 -23q0 -35 10.5 -61.5t37 -51.5t60 -46.5t91.5 -51.5l90 -47q86 -45 143.5 -87t102.5 -96t65.5 -122 t20.5 -156q0 -221 -135 -374q-90 -103 -206.5 -142t-256.5 -39q-282 0 -451 144l-110 -111h-64z" />
<glyph unicode="T" d="M37 958l131 488h1311l-62 -488h-63q-4 52 -8 86.5t-13.5 84t-22.5 81.5t-35.5 68.5t-52 58t-72.5 35.5t-97 14l-256 -1327h149l-12 -59h-782l16 59h145l254 1327q-109 -6 -190 -67q-62 -47 -124.5 -130t-148.5 -231h-67z" />
<glyph unicode="U" horiz-adv-x="1536" d="M147 379q0 72 21 180l160 827h-150l10 60h775l-11 -60h-147l-174 -925q-23 -121 -23 -170q0 -64 21 -111.5t49.5 -72t68.5 -38.5t67.5 -17t57.5 -3q157 0 251 103.5t134 318.5l140 743q14 88 14 103q0 42 -23 55.5t-69 13.5h-64l13 60h420l-13 -60h-47q-37 0 -64.5 -12 t-44 -28t-29 -45t-18 -51t-12.5 -58l-135 -715q-13 -70 -27 -122.5t-37 -108t-52.5 -95t-73.5 -76t-99.5 -58.5t-131.5 -35t-169 -13q-58 0 -105 2.5t-111 12t-112.5 26t-99.5 47.5t-84 73t-54.5 106t-21.5 143z" />
<glyph unicode="V" horiz-adv-x="1492" d="M158 1386l10 60h764l-10 -60h-148l-61 -980l600 796q69 93 69 133q0 51 -75 51h-80v60h463l-11 -60h-28q-45 0 -79 -15t-90 -70.5t-139 -165.5l-890 -1178h-238l88 1429h-145z" />
<glyph unicode="W" horiz-adv-x="2048" d="M152 1386l10 60h1487l-13 -60h-149l-60 -940l484 771q3 5 15 24.5t18 30t12 27.5t6 30q0 20 -9.5 32.5t-28.5 17.5t-31.5 6t-34.5 1h-62l14 60h431l-13 -60h-28q-38 0 -57 -3t-44 -20.5t-47.5 -48.5t-60.5 -93l-787 -1264h-274l47 780l-488 -780h-272l92 1429h-157z M715 440l270 426l35 520h-246z" />
<glyph unicode="X" horiz-adv-x="1449" d="M-59 0l12 59h24q49 0 87.5 13.5t77 47.5t66.5 67.5t75 97.5l258 348l-279 753h-147l10 60h805l-17 -60h-151l168 -456l186 244q92 117 92 163q0 31 -20 40t-66 9h-69l12 60h459l-15 -60q-96 -6 -157 -43.5t-150 -158.5l-244 -330l289 -795h152l-10 -59h-809l12 59h153 l-180 496l-246 -338q-1 -2 -8 -11.5t-9.5 -13t-8.5 -12t-8.5 -13t-7 -12.5t-6.5 -13.5t-4.5 -12.5t-3.5 -13t-1 -12q0 -45 68 -45h86l-10 -59h-465z" />
<glyph unicode="Y" horiz-adv-x="1409" d="M109 1386l12 60h794l-14 -60h-147l209 -608l307 469q35 55 35 88q0 51 -70 51h-92l12 60h436l-10 -60h-37q-37 0 -72 -17.5t-66 -52t-46 -55.5t-39 -57l-344 -522l-119 -623h150l-11 -59h-784l12 59h152l119 623l-238 704h-149z" />
<glyph unicode="Z" d="M-82 0l16 84l928 1305h-49q-121 0 -194 -16t-124 -49.5t-116 -104.5q-107 -117 -139 -203h-68l84 430h1182l-17 -88l-923 -1301h51q125 0 184.5 6t122.5 31q64 25 122 68.5t94.5 86t68.5 92.5t44.5 76.5t22.5 49.5h64l-90 -467h-1264z" />
<glyph unicode="[" horiz-adv-x="665" d="M-59 -410l383 1977h528l-14 -72h-203l-359 -1835h205l-14 -70h-526z" />
<glyph unicode="\" horiz-adv-x="937" d="M203 1446h344l221 -1446h-346z" />
<glyph unicode="]" horiz-adv-x="665" d="M-201 -408l15 72h202l357 1835h-203l14 70h527l-383 -1977h-529z" />
<glyph unicode="^" horiz-adv-x="1482" d="M119 573l610 873h342l258 -873h-360l-121 555l-346 -555h-383z" />
<glyph unicode="_" horiz-adv-x="1024" d="M-139 -154h1065v-102h-1065v102z" />
<glyph unicode="`" horiz-adv-x="555" d="M0 1374v49h367l188 -364l-47 -35z" />
<glyph unicode="a" d="M45 348q0 122 55 244.5t146 210.5q18 17 42.5 35.5t66.5 44t96 41.5t108 16q159 0 232 -147l24 112h430l-135 -706q-14 -82 -14 -95q0 -30 26 -30q38 0 81 65.5t71 204.5l65 -12q-32 -188 -125 -281q-38 -38 -94.5 -59.5t-87.5 -25t-59 -3.5q-86 0 -145 22.5t-88 54 t-56 83.5q-2 -3 -18 -26t-35 -41.5t-50 -40.5t-79.5 -35t-108.5 -13q-68 0 -124 18.5t-91.5 47t-61.5 68t-39 74.5t-21 74t-9.5 60t-1.5 39zM467 162q0 -20 1 -31t5 -27t15.5 -24t29.5 -8q51 0 104.5 76.5t89 202t36.5 255.5q0 219 -82 219q-48 0 -78 -73 q-44 -104 -82.5 -281.5t-38.5 -308.5z" />
<glyph unicode="b" horiz-adv-x="1236" d="M76 305q0 68 22 197l172 884h-145l10 68q15 0 73 -1t99 -1q213 0 406 25l-123 -670q133 133 305 133q98 0 168 -54.5t102.5 -140t32.5 -190.5q0 -123 -39 -217q-21 -51 -52 -99t-84.5 -100t-120.5 -89.5t-164 -62t-210 -24.5q-66 0 -127 9.5t-121.5 34.5t-104.5 62.5 t-71.5 98t-27.5 137.5zM471 131q0 -102 96 -102q46 0 75 28t52 99q30 95 71.5 315.5t41.5 306.5q0 56 -53 56q-49 0 -97 -52q-18 -19 -33 -40t-26 -37.5t-22 -48t-17 -47t-16 -60.5l-14 -63t-16 -80t-17 -87q-25 -118 -25 -188z" />
<glyph unicode="c" horiz-adv-x="1024" d="M47 362q0 156 94.5 299t241.5 216q45 24 122.5 43.5t172.5 19.5q200 0 293 -96q65 -67 65 -162q0 -93 -56 -152t-149 -59q-79 0 -137.5 48t-58.5 126q0 53 18 91.5t36 61.5t18 40q0 36 -37 36q-33 0 -58 -32q-38 -49 -91.5 -294.5t-53.5 -354.5q0 -150 129 -150 q51 0 99.5 17t85.5 41t75 62.5t62.5 70.5t54.5 75l53 -30q-41 -75 -106 -144q-159 -172 -412 -172q-66 0 -127 10.5t-123.5 38.5t-108 71.5t-74 115t-28.5 163.5z" />
<glyph unicode="d" d="M39 340q0 240 174 430q156 170 350 170q148 0 230 -129l112 575h-149l10 62q418 17 586 29l-246 -1280q-14 -74 -14 -93q0 -30 28 -30q35 0 82.5 75t87.5 191l62 -18q-54 -179 -144.5 -269t-242.5 -90q-108 0 -183 45.5t-108 104.5q-106 -148 -297 -148q-142 0 -240 99 t-98 276zM457 141q0 -23 2 -36.5t13 -26t32 -12.5q31 0 80.5 44.5t87.5 131.5q31 68 54.5 187t23.5 198q0 83 -23.5 139.5t-69.5 56.5q-52 0 -101 -146.5t-74 -303t-25 -232.5z" />
<glyph unicode="e" horiz-adv-x="1067" d="M51 358q0 36 6.5 77.5t23.5 98t55 119t93 115.5q177 172 447 172q190 0 280.5 -72t90.5 -200q0 -62 -22 -109t-73.5 -86.5t-147.5 -60.5t-233 -21q-28 0 -86 4q-18 -158 -18 -209q0 -24 1 -38.5t8 -37.5t19.5 -36t38.5 -23t62 -10q63 0 123 24.5t109 66.5t87 86t70 95 l47 -37q-22 -39 -67.5 -97.5t-106.5 -106.5q-139 -109 -340 -109q-87 0 -159 16.5t-119.5 43t-83.5 63t-55 72t-31 76t-15.5 69t-3.5 55.5zM498 457q67 8 98 24q68 38 95.5 127t27.5 187q0 84 -53 84q-20 0 -37 -11.5t-32 -39.5t-26.5 -59t-24.5 -85.5t-23 -102t-25 -124.5z " />
<glyph unicode="f" horiz-adv-x="894" d="M-371 -297q0 85 54.5 141t140.5 56q77 0 127.5 -49.5t50.5 -126.5q0 -44 -14.5 -76t-35 -48t-40.5 -27t-34.5 -21.5t-14.5 -22.5q0 -18 19.5 -27.5t39.5 -9.5q35 0 61.5 19.5t45.5 61.5t32 91t24.5 124.5t20 143.5t22 167.5t26.5 179.5q51 313 106 565h-194l12 61h196 q38 122 81.5 209t115.5 166q86 90 194 143.5t224 53.5q140 0 228.5 -73.5t88.5 -191.5q0 -33 -9.5 -66.5t-30 -67t-60.5 -54t-94 -20.5q-72 0 -127.5 40.5t-55.5 118.5q0 46 19.5 84t43 58t43 40t19.5 33t-11 20.5t-19 9t-13 1.5q-37 0 -70 -37t-50 -75t-29 -78 q-14 -54 -34 -158.5t-26 -155.5h248l-12 -61h-250q-91 -526 -178 -815q-18 -57 -65.5 -166.5t-106.5 -196.5q-159 -237 -428 -237q-117 0 -199 82t-82 192z" />
<glyph unicode="g" horiz-adv-x="1409" d="M-41 -395q0 31 15.5 57.5t36.5 42.5t47 28.5t42.5 17.5t26.5 7l-15 9q-16 9 -33.5 23.5t-36 37t-30.5 59t-12 80.5q0 111 72 211.5t178 151.5q-52 35 -79.5 100t-27.5 123q0 70 23 128t59.5 97.5t87.5 69.5t102 47t109 27.5t102 14t87 3.5q45 0 92.5 -5t118.5 -20 t134 -52t101 -91q30 104 64 154q42 61 106 61q15 0 29.5 -2.5t40 -12.5t41.5 -36.5t16 -67.5q0 -64 -36.5 -99.5t-82.5 -35.5q-23 0 -39.5 7.5t-23.5 16t-15 16t-16 7.5q-45 0 -45 -135q0 -98 -33 -176.5t-129 -142.5q-62 -40 -163.5 -68.5t-235.5 -28.5q-93 0 -162 13 t-108.5 26t-59.5 13q-31 0 -54.5 -22t-23.5 -52q0 -32 26.5 -48.5t94 -24t197.5 -7.5h186q202 0 279 -29q25 -9 49 -24.5t49.5 -42t41 -70.5t15.5 -98q0 -143 -92 -244q-52 -58 -121 -97t-149.5 -57.5t-151.5 -25t-157 -6.5q-102 0 -189 7.5t-170 25t-130.5 53.5t-47.5 86z M125 -371q0 -133 373 -133q62 0 135.5 7.5t150 23.5t127 46t50.5 69q0 19 -11.5 31.5t-36 18t-51 7.5t-67.5 2q-24 0 -115.5 -1t-140.5 -1q-254 0 -334 27q-38 -19 -59 -40t-21 -57zM563 367q0 -80 64 -80q33 0 54.5 25.5t29.5 49.5q21 61 47 207q7 36 20 124t13 114 q0 67 -66 67q-26 0 -43.5 -13.5t-24 -26.5t-14.5 -37q-19 -52 -49.5 -203.5t-30.5 -226.5z" />
<glyph unicode="h" d="M45 0l270 1391h-149l12 61h45q6 0 531 25l-140 -748q105 119 189.5 165t175.5 46q71 0 120 -19.5t71.5 -52t31 -62t8.5 -61.5q0 -64 -94 -469q-5 -25 -15.5 -66.5t-16 -66t-5.5 -37.5q0 -28 27 -28q40 0 92.5 84t93.5 180l60 -23q-53 -153 -135 -243q-104 -113 -273 -113 q-60 0 -106.5 15t-74 38.5t-45 54.5t-24 59.5t-6.5 57.5q0 23 3 49.5t6 43.5t13 66.5t15 76.5q7 41 23 119t26 130t10 66q0 27 -24 27q-29 0 -78 -65.5t-107 -186.5l-96 -514h-434z" />
<glyph unicode="i" horiz-adv-x="724" d="M57 844l13 61q239 0 587 25l-149 -703q-3 -16 -10.5 -47t-11 -50.5t-3.5 -29.5q0 -28 27 -28q14 0 39.5 23.5t65.5 89t75 157.5l60 -25l-7 -16q-11 -30 -18.5 -49t-27.5 -58.5t-39 -66t-50.5 -60.5t-66 -54.5t-83 -35t-102.5 -14.5q-38 0 -73.5 6.5t-71 22.5t-62 40.5 t-43 63.5t-16.5 88q0 18 4.5 49.5t11.5 69.5t7 39l94 502h-150zM274 1257q0 94 66 160t160 66t159.5 -66t65.5 -160t-65.5 -159.5t-159.5 -65.5t-160 65.5t-66 159.5z" />
<glyph unicode="j" horiz-adv-x="768" d="M-375 -295q0 91 51.5 153t141.5 62q85 0 131.5 -54.5t46.5 -125.5q0 -55 -23 -92t-50 -51t-50 -29.5t-23 -32.5q0 -18 15.5 -28.5t34.5 -10.5q25 0 45.5 8.5t35 19t27 34.5t20 41t16 52.5t12.5 56t12 63.5l198 1073h-145l8 61q370 7 586 25l-176 -948 q-46 -254 -204 -404.5t-392 -150.5q-40 0 -80.5 7.5t-84.5 27.5t-77 50t-54.5 80t-21.5 113zM330 1253q0 94 65.5 160t159.5 66t159.5 -66t65.5 -160t-65.5 -159.5t-159.5 -65.5t-159.5 65.5t-65.5 159.5z" />
<glyph unicode="k" d="M51 0l260 1386h-151l14 64q88 0 182.5 4t223.5 12t180 11l-180 -959q36 23 86 23l65 125q17 33 26 49.5t25.5 45t27.5 44t28.5 38t32.5 34.5t36.5 26.5t42.5 21.5t47.5 12t55.5 5q98 0 159.5 -54.5t61.5 -150.5q0 -34 -11 -67.5t-32.5 -64.5t-60.5 -50.5t-89 -19.5 q-44 0 -77 13.5t-51 32t-29 42.5t-14 40.5t-3 30.5q0 41 20.5 77.5t20.5 45.5q0 6 -4.5 11.5t-11.5 5.5q-10 0 -23.5 -12t-28.5 -35t-24.5 -39t-23.5 -42l-13 -26l-74 -139h21q18 0 37 -1t53 -6t64 -14t63.5 -26.5t57.5 -41t39.5 -60.5t15.5 -83q0 -48 -15.5 -113.5 t-15.5 -84.5q0 -29 31 -29q24 0 54.5 29t56 71t41 71t22.5 44l55 -23q-8 -20 -16 -37t-27.5 -51t-40.5 -60.5t-54.5 -58.5t-70.5 -53.5t-88.5 -36t-107.5 -14.5q-29 0 -54.5 2t-65 13t-67 30.5t-48.5 58t-21 91.5q0 11 1 22t2 20t4 24.5t4.5 23t6.5 28t7.5 28.5t9.5 35.5 t10 37.5q4 16 10 36.5t9 33t3 20.5q0 12 -14 12q-9 0 -24 -14.5t-36.5 -29.5t-46.5 -15q-26 0 -45 14l-80 -434h-434z" />
<glyph unicode="l" horiz-adv-x="768" d="M96 195q0 58 15 118l206 1067h-149l12 66q275 8 582 31l-236 -1223q-26 -127 -26 -135q0 -33 28 -33q29 0 73.5 69.5t96.5 192.5l64 -29l-8 -19q-8 -18 -19.5 -42.5t-26 -53.5t-32.5 -59t-35 -51q-102 -131 -279 -131q-28 0 -54.5 3t-67.5 16.5t-70.5 36.5t-51.5 69 t-22 107z" />
<glyph unicode="m" horiz-adv-x="1921" d="M49 0l160 844h-146l15 61h135q67 0 137 4.5t168 14t137 12.5l-34 -213q20 25 48 53t78.5 69.5t115.5 68t130 26.5q58 0 103 -22.5t71 -58.5t40.5 -69t21.5 -67q22 29 35.5 45.5t52 54t74.5 59t92 40t116 18.5q92 0 152.5 -48t60.5 -140q0 -42 -13 -119t-27.5 -142.5 t-45.5 -203.5q-34 -155 -34 -176q0 -35 30 -35q26 0 57 36.5t58.5 94t39.5 86t21 51.5l62 -18q-25 -79 -60.5 -143t-64.5 -99q-96 -121 -262 -121q-78 0 -134.5 18t-87 49.5t-44 67t-13.5 78.5q0 39 10 97.5t32 166t34 176.5q21 111 21 125q0 33 -29 33q-27 0 -87.5 -86 t-92.5 -172l-99 -516h-428l129 709q1 4 3 13t3 16.5t1 11.5q0 7 -6 15.5t-19 8.5q-28 0 -88 -77.5t-90 -143.5l-107 -553h-432z" />
<glyph unicode="n" d="M47 0l166 844h-150l13 61h76q248 0 510 25l-39 -203q109 122 195.5 167.5t180.5 45.5q54 0 96 -14.5t65.5 -35.5t38 -50t19.5 -54t5 -51q0 -23 -5 -55.5t-10 -54.5t-14.5 -61.5t-11.5 -49.5q-92 -381 -92 -405q0 -14 8.5 -23.5t21.5 -9.5q29 0 68.5 51.5t67.5 107.5 t47 105l59 -23q-34 -84 -65.5 -141t-78 -109t-109.5 -78t-144 -26q-143 0 -208 59.5t-65 147.5q0 32 12.5 103t42 213.5t41.5 203.5q1 4 4 17.5t5 25.5t2 17q0 30 -27 30t-84.5 -79.5t-107.5 -204.5l-97 -496h-436z" />
<glyph unicode="o" horiz-adv-x="1236" d="M53 387q0 75 23 151t73 149t121.5 129t178.5 90t233 34q78 0 149 -13.5t137.5 -45.5t115 -79t77.5 -119t29 -161q0 -104 -47 -215q-49 -116 -143 -195t-206.5 -114t-240.5 -35q-104 0 -193.5 26.5t-158.5 78t-108.5 133.5t-39.5 186zM461 141q0 -112 96 -112 q81 0 111 110q43 141 75.5 351.5t32.5 271.5q0 117 -88 117q-28 0 -49.5 -14t-36 -41.5t-23.5 -52t-18 -60.5q-36 -130 -68 -318.5t-32 -251.5z" />
<glyph unicode="p" horiz-adv-x="1280" d="M-227 -561l12 63h152l260 1342h-152l14 61h64q246 0 518 29l-31 -154q27 33 44 50.5t54.5 48t86 46t106.5 15.5q63 0 121 -22.5t107 -66.5t78.5 -120.5t29.5 -175.5q0 -226 -152 -401q-90 -104 -188 -147.5t-176 -43.5q-88 0 -140.5 32.5t-99.5 98.5l-112 -592h147 l-10 -63h-733zM516 240q0 -40 7.5 -75t30 -63t56.5 -28q43 0 87.5 99.5t73 228t47 238t18.5 142.5q0 60 -43 60q-38 0 -82.5 -49t-65.5 -86q-65 -106 -97 -249.5t-32 -217.5z" />
<glyph unicode="q" horiz-adv-x="1236" d="M49 340q0 199 103 352q16 24 35 48t59.5 62.5t84.5 67t107.5 49.5t130.5 21q151 0 217 -127l19 92h430l-266 -1403h149l-14 -63h-721l12 63h150l104 588q-29 -26 -51.5 -43.5t-59.5 -39t-80 -33t-91 -11.5q-32 0 -68.5 8.5t-82.5 34t-82 65t-60.5 109.5t-24.5 160z M451 147q0 -41 18 -57t41 -16q33 0 65.5 29.5t51.5 58.5q64 95 95.5 259.5t31.5 246.5q0 49 -10.5 83t-26.5 48.5t-29 20t-24 5.5q-28 0 -51.5 -28.5t-47.5 -96.5q-34 -96 -74 -292t-40 -261z" />
<glyph unicode="r" horiz-adv-x="1067" d="M45 0l160 844h-148l13 61q261 0 583 33l-43 -229q27 34 36 45t37.5 43.5t44 45.5t45 36.5t53.5 33.5t56 18.5t64 8.5q88 0 139.5 -61t51.5 -150q0 -96 -59 -176t-156 -80q-50 0 -86 16.5t-53.5 41.5t-29.5 54.5t-17 54.5t-13.5 41.5t-20.5 16.5q-7 0 -18.5 -6.5 t-30 -28.5t-37 -56t-38.5 -97.5t-35 -144.5l-68 -365h-430z" />
<glyph unicode="s" horiz-adv-x="937" d="M0 186q0 62 43 104t107 42q53 0 98 -30.5t45 -88.5q0 -33 -17.5 -70t-17.5 -47q0 -31 33.5 -52t97.5 -21q72 0 107.5 27.5t35.5 64.5q0 36 -35.5 70t-142.5 110l-71 51q-47 34 -73.5 56.5t-54 54t-39.5 67t-12 78.5q0 63 27 121.5t81 108t146 79t211 29.5 q164 0 251 -53.5t87 -134.5q0 -56 -36 -87.5t-93 -31.5q-48 0 -86.5 26.5t-38.5 71.5q0 22 11.5 48.5t11.5 39.5q0 18 -12.5 31t-32 18t-32.5 7t-24 2q-48 0 -84 -19.5t-36 -54.5q0 -23 14.5 -38.5t58.5 -47.5l148 -107q51 -37 73.5 -53.5t55.5 -43.5t45.5 -43.5t28 -41 t20 -49t4.5 -55.5q0 -53 -14 -101t-51 -96.5t-94 -84t-150 -57.5t-211 -22q-177 0 -280 64.5t-103 158.5z" />
<glyph unicode="t" horiz-adv-x="768" d="M68 844l12 59q55 25 107.5 58t91 62t153.5 118q147 113 252 205h64l-86 -441h178l-13 -61h-178l-125 -623q-16 -80 -16 -96q0 -37 29 -37q70 0 174 256l59 -29q-52 -123 -98.5 -191.5t-100.5 -103.5q-82 -57 -204 -57q-51 0 -97.5 11t-88 33.5t-66.5 64t-25 96.5 q0 17 3.5 39.5t10 53t7.5 36.5l102 547h-145z" />
<glyph unicode="u" d="M57 844l15 61q179 0 583 29l-133 -698q-14 -70 -14 -86q0 -25 29 -25q20 0 46 20t55.5 60t57.5 114.5t45 169.5l76 416h434l-127 -661q-16 -88 -16 -101q0 -11 7.5 -18.5t17.5 -7.5q31 0 62.5 34.5t53 81.5t34 80.5t15.5 46.5l66 -14q-121 -383 -412 -383 q-220 0 -262 203q-112 -122 -204.5 -162.5t-182.5 -40.5q-34 0 -68.5 8.5t-70.5 28.5t-59 61t-23 97q0 29 14 112l109 574h-148z" />
<glyph unicode="v" horiz-adv-x="1067" d="M-16 588q54 136 135 229q35 41 71 67t73.5 37t65 14t66.5 3q162 0 226 -82q36 -46 36 -121q0 -59 -47 -298t-47 -294q0 -12 2.5 -24t16.5 -26.5t39 -14.5q38 0 95.5 41.5t119.5 136.5q42 65 78 150t36 145q0 76 -71 76t-117.5 37t-46.5 106q0 77 49 123.5t125 46.5 q30 0 57 -9t52.5 -30t41 -62.5t15.5 -99.5q0 -22 -4 -57.5t-14.5 -87.5t-26.5 -108t-43 -118.5t-61 -119.5t-83 -109.5t-106 -91t-134 -61.5t-163 -23q-57 0 -104.5 11t-88 35t-63.5 68t-23 105q0 27 7.5 79.5t17 101.5t27 140t28.5 148q4 20 10.5 54.5t10.5 55.5t4 27 q0 15 -8.5 22t-18.5 7q-28 0 -78 -71t-100 -187z" />
<glyph unicode="w" horiz-adv-x="1705" d="M-31 584q57 129 113.5 204.5t133.5 114.5t183 39q47 0 88 -10t79.5 -33t60.5 -67.5t22 -106.5q0 -25 -5 -61t-8 -54t-15 -72t-13 -61l-61 -287q-12 -58 -12 -71q0 -12 8.5 -20.5t21.5 -8.5q29 0 66.5 49t64 103t49.5 112q101 251 162 551h428q-15 -84 -45.5 -241 t-36.5 -189q-1 -6 -14.5 -79.5t-20 -121.5t-6.5 -81q0 -115 82 -115q65 0 139.5 86.5t122.5 204.5t48 209q0 10 -2.5 22t-13.5 24.5t-29 12.5q-11 0 -30 -6t-44 -6q-41 0 -69 18t-38.5 46t-14 46.5t-3.5 34.5q0 72 45.5 122t116.5 50q70 0 121 -50.5t51 -166.5 q0 -44 -7 -101t-25.5 -131t-45.5 -145.5t-72 -141.5t-101 -123t-136.5 -85.5t-173.5 -32.5q-46 0 -86.5 7.5t-83 28t-72.5 53.5t-49 88.5t-19 127.5q0 48 8 138q-66 -182 -129 -271q-119 -166 -323 -166q-248 0 -248 201q0 35 14.5 118t39.5 211.5t38 203.5q8 36 8 61 q0 16 -7.5 28.5t-20.5 12.5q-65 0 -174 -256z" />
<glyph unicode="x" horiz-adv-x="1236" d="M0 117q0 68 47 110.5t111 42.5q32 0 54.5 -10t34.5 -24.5t20 -29t17.5 -24.5t22.5 -10q28 0 135 164l-82 344q-4 20 -6.5 29t-8 23t-13.5 20t-19 6q-58 0 -147 -242l-62 16q28 83 63.5 148.5t69 107.5t74 72t70.5 44.5t68 23t57.5 9.5t46.5 1q65 0 108 -14t71.5 -49.5 t44.5 -78t34 -116.5q12 17 47 67.5t55 77.5q80 115 183 115q66 0 106.5 -41t40.5 -106q0 -76 -46.5 -117t-100.5 -41q-32 0 -56.5 9.5t-38 23.5t-23.5 28t-19 23.5t-19 9.5q-7 0 -14 -4.5t-17 -16.5t-19 -24t-27 -37.5t-34 -46.5l97 -397q7 -30 11 -43.5t11.5 -32.5 t17.5 -27t23 -8q26 0 53 26.5t50 70.5t39 83.5t30 81.5l58 -18q-47 -169 -144 -270q-95 -103 -284 -103q-84 0 -143.5 20t-95 61t-55 90t-32.5 120l-80 -113q-29 -41 -47 -63t-49.5 -53t-65.5 -45.5t-73 -14.5q-66 0 -108 42.5t-42 109.5z" />
<glyph unicode="y" horiz-adv-x="1150" d="M-39 -418q0 14 5 34t18.5 50.5t47 51t81.5 20.5q43 0 69 -15.5t35 -37.5t13.5 -44t13 -37.5t26.5 -15.5q37 0 110.5 100t129.5 203l-246 775q-7 25 -12 39t-17 29.5t-26 15.5q-26 0 -58 -66t-61 -182l-61 18q21 75 40.5 128t53.5 112t74.5 95.5t102 60.5t138.5 24 q113 0 167.5 -49.5t86.5 -153.5l82 -258l115 285q14 36 26 59.5t34 54t51.5 46.5t66.5 16q66 0 105.5 -38.5t39.5 -104.5q0 -17 -4 -38.5t-16.5 -53.5t-43 -53t-75.5 -21q-31 0 -54 11t-33.5 24.5t-21 24.5t-20.5 11q-16 0 -49 -79l-92 -230q-242 -594 -418 -801 q-138 -161 -266 -161q-38 0 -67.5 11t-46 27.5t-27 38t-14 39.5t-3.5 35z" />
<glyph unicode="z" horiz-adv-x="1150" d="M-8 31q0 12 3 24t7 22t14 21.5t17.5 20.5t24 22t27 21.5t33 23.5t36.5 24t42.5 28t45.5 30l397 264q-124 -22 -313 -22h-121q-40 0 -56 -18t-51 -103l-59 25l211 522q97 -36 320 -63t397 -27q34 0 41 6t12 35q5 30 23 41.5t36 11.5q11 0 21.5 -3.5t21.5 -17.5t11 -36 q0 -30 -30 -70t-67.5 -75t-98.5 -80t-97 -68.5t-88 -57.5q-123 -77 -230 -151h43q135 0 244 -33q16 -4 57 -18t71 -21.5t54 -7.5q25 0 39 12.5t14 24.5q0 22 -24 22q-4 0 -24.5 -5t-43.5 -5q-35 0 -56.5 23.5t-21.5 60.5q0 49 31 83t82 34q17 0 34 -6t35.5 -21t30 -48 t11.5 -79q0 -67 -28.5 -152.5t-106.5 -166.5q-112 -115 -271 -115q-129 0 -348 82q-160 61 -188 61q-10 0 -17.5 -7.5t-7.5 -18.5q0 -8 4 -18.5t4 -22.5q0 -26 -21.5 -49t-56.5 -23q-31 0 -50 16.5t-19 47.5z" />
<glyph unicode="{" horiz-adv-x="749" d="M-6 567l6 29q33 5 59.5 12t47.5 14.5t38 21t29.5 25t23 33t17.5 38.5t15 49t13 56.5t13 67.5l47 248q11 58 24.5 105t31.5 85t36.5 67.5t45 51.5t51 38t60.5 27t67.5 17t78 9.5t86 4.5t97.5 1h63l-12 -62q-51 0 -79 -2t-60.5 -10t-50.5 -24.5t-37.5 -46t-32.5 -73.5 t-25 -108l-65 -334q-13 -66 -24.5 -109.5t-30 -78t-36 -54.5t-50 -36t-64 -25.5t-86.5 -21.5q98 -28 138 -73.5t40 -131.5q0 -67 -25 -195l-43 -219q-26 -135 -26 -176q0 -74 45 -103.5t151 -31.5l-12 -62h-88q-87 0 -148.5 6t-113.5 22t-83 43.5t-48 71t-17 103.5 q0 52 17 146l55 280q17 94 17 135q0 74 -34 111t-122 59z" />
<glyph unicode="|" horiz-adv-x="598" d="M-53 -410l385 1979h301l-385 -1979h-301z" />
<glyph unicode="}" horiz-adv-x="749" d="M-195 -410l13 62q41 0 65 1.5t53.5 6.5t47 16t37.5 29.5t32.5 47t25 69t23.5 94.5l66 334q13 66 24.5 109.5t30 78t36 54.5t50 36t64 25.5t86.5 21.5q-98 28 -138 73.5t-40 131.5q0 72 24 195l43 219q27 140 27 176q0 75 -43.5 105t-153.5 30l12 62h154 q169 0 256.5 -54.5t87.5 -191.5q0 -57 -16 -145l-56 -281q-16 -88 -16 -135q0 -74 34 -111t122 -59l-6 -29q-33 -5 -59.5 -12t-47.5 -14.5t-38 -21t-29.5 -25t-23 -33t-17.5 -38.5t-15 -49t-13 -56.5t-13 -67.5l-48 -248q-18 -96 -43.5 -164t-65 -112.5t-79 -70.5 t-106.5 -39t-126 -16.5t-157 -3.5h-64z" />
<glyph unicode="~" horiz-adv-x="1482" d="M111 702q128 134 216 189t179 55q50 0 95 -17.5t130 -66.5l111 -63q55 -31 85.5 -43.5t57.5 -12.5q68 0 132.5 40t152.5 143l92 -285q-133 -134 -228 -190t-184 -56q-80 0 -196 66l-90 51q-76 43 -119.5 60.5t-87.5 17.5q-63 0 -126 -40.5t-136 -129.5z" />
<glyph unicode="&#xa1;" horiz-adv-x="681" d="M18 154q0 19 2.5 37t5.5 33t13 39t17 40t26.5 52.5t32 60t43 79t51.5 93.5q37 68 63 139.5t78 255.5h76q-16 -192 -16 -291q0 -115 24 -274q19 -135 19 -185q0 -38 -3.5 -67t-17.5 -65.5t-38.5 -60.5t-71 -41t-111.5 -17q-35 0 -66 8t-61 25.5t-48 53.5t-18 85zM217 1255 q0 92 64.5 157t156.5 65t156.5 -65t64.5 -157t-64.5 -156.5t-156.5 -64.5t-156.5 64.5t-64.5 156.5z" />
<glyph unicode="&#xa2;" horiz-adv-x="1206" d="M59 395q0 258 188 418t494 160h17l43 201h73l-45 -207q149 -23 238.5 -101.5t89.5 -187.5q0 -83 -46.5 -133.5t-123.5 -50.5q-66 0 -107.5 40.5t-41.5 104.5q0 49 21.5 87.5t43 65t21.5 46.5q0 61 -105 73l-182 -862q129 2 222 67t157 201l67 -10q-72 -159 -179 -234 t-281 -89l-43 -201h-74l43 205q-219 9 -354.5 121t-135.5 286zM463 215q0 -71 22.5 -107t79.5 -53l183 860q-97 -11 -138 -92q-43 -85 -95 -296t-52 -312z" />
<glyph unicode="&#xa3;" horiz-adv-x="1384" d="M-96 147q0 78 61 125t162 47q77 0 223 -32q15 27 30.5 139.5t18.5 241.5h-258l17 65h245q11 204 40 319t94 205q73 101 200 157t281 56q186 0 304 -84.5t118 -218.5q0 -78 -48.5 -128t-123.5 -50q-72 0 -114 38t-42 101q0 36 10.5 63.5t25 44t29 29.5t25 27t10.5 29 q0 38 -38.5 67t-90.5 29q-103 0 -155 -133q-17 -46 -29.5 -103.5t-42.5 -224.5l-41 -223h301l-12 -65h-303q-33 -138 -93.5 -238.5t-177.5 -189.5q238 -50 388 -50q148 0 226 67.5t99 195.5h51q-23 -258 -127.5 -385t-294.5 -127q-111 0 -222.5 32t-299.5 121 q-137 -94 -258 -94q-85 0 -136.5 40.5t-51.5 106.5zM-29 135q0 -34 31 -56t78 -22q46 0 84.5 19t93.5 71q-37 19 -58.5 29.5t-57.5 20.5t-70 10q-44 0 -72.5 -20t-28.5 -52z" />
<glyph unicode="&#xa4;" horiz-adv-x="1433" d="M31 266l178 158q-70 117 -70 264q0 192 111 350l-154 174l207 181l154 -174q118 69 272 69q99 0 179 -25.5t165 -84.5l176 153l183 -209l-177 -151q68 -149 68 -273q0 -184 -111 -346l154 -180l-209 -180l-153 178q-76 -37 -136.5 -51.5t-132.5 -14.5q-100 0 -182.5 26.5 t-163.5 86.5l-178 -158zM416 690q0 -132 91.5 -224.5t223.5 -92.5q133 0 225.5 94.5t92.5 228.5q0 135 -91.5 229.5t-222.5 94.5q-136 0 -227.5 -94.5t-91.5 -235.5z" />
<glyph unicode="&#xa5;" horiz-adv-x="1566" d="M172 1386l10 60h779l-11 -60h-174l211 -665l342 532q51 80 51 99q0 23 -20 28.5t-92 5.5h-29l10 60h416l-10 -60h-49q-67 0 -100 -23t-89 -108l-295 -454h262l-12 -66h-291l-57 -88l-14 -74h333l-12 -65h-334l-84 -449h201l-10 -59h-848l10 59h211l84 449h-360l12 65h362 l9 52l-41 110h-299l12 66h264l-207 585h-141z" />
<glyph unicode="&#xa6;" horiz-adv-x="600" d="M-53 -410l162 834h301l-162 -834h-301zM170 737l162 832h301l-162 -832h-301z" />
<glyph unicode="&#xa7;" horiz-adv-x="1492" d="M55 -123q0 101 61 158t150 57q85 0 149 -53.5t64 -147.5q0 -49 -12.5 -84t-31.5 -52.5t-41 -30t-41 -19t-31.5 -17.5t-12.5 -26q0 -42 75.5 -71t166.5 -29q112 0 194 62t82 165q0 67 -37.5 119.5t-158.5 138.5l-244 172q-54 39 -92.5 69.5t-78 70t-63 77t-38.5 84.5 t-15 98q0 67 20 126.5t48.5 99.5t66.5 73t68 50.5t59 29.5q-53 76 -53 168q0 185 154 293.5t432 108.5q105 0 189.5 -18t137 -45t91 -65t57 -70t28.5 -69t11.5 -53t1.5 -30q0 -95 -56 -153t-141 -58q-81 0 -143.5 49t-62.5 145q0 42 13.5 76t33 54t39.5 35.5t33.5 28.5 t13.5 25q0 33 -67.5 57.5t-155.5 24.5q-62 0 -117 -17t-93 -55t-38 -90q0 -33 14.5 -63.5t43.5 -58.5t53 -47t61 -44l164 -110q78 -52 121 -82.5t94 -71.5t77 -72t50.5 -71.5t33.5 -84t9 -95.5q0 -70 -19.5 -130t-47.5 -99t-66.5 -71t-68.5 -48t-63 -29q58 -100 58 -197 q0 -73 -29 -154.5t-86 -140.5q-19 -19 -43.5 -38.5t-70.5 -45t-100 -44.5t-133 -32.5t-167 -13.5q-183 0 -303 66q-56 31 -97 74t-61.5 87t-29.5 82t-9 72zM307 850q0 -43 34 -78t126 -100l418 -291q136 -94 207 -162q96 36 96 107q0 37 -33.5 70.5t-105.5 82.5l-500 348 q-88 62 -135 115q-107 -21 -107 -92z" />
<glyph unicode="&#xa8;" horiz-adv-x="555" d="M-139 1219q0 74 54 127t128 53q73 0 126.5 -53.5t53.5 -126.5q0 -74 -53 -128.5t-127 -54.5q-75 0 -128.5 54t-53.5 129zM332 1219q0 74 52.5 127t127.5 53t128.5 -52.5t53.5 -127.5t-53.5 -129t-128.5 -54q-74 0 -127 54.5t-53 128.5z" />
<glyph unicode="&#xa9;" horiz-adv-x="1703" d="M143 723q0 205 98.5 375.5t269 269t374.5 98.5q153 0 290 -57.5t235.5 -156.5t156 -236.5t57.5 -290.5q0 -154 -57.5 -292.5t-156 -238.5t-236 -158.5t-291.5 -58.5q-203 0 -373 99.5t-268.5 271t-98.5 375.5zM213 723q0 -143 52.5 -271t142 -220.5t213.5 -146.5t262 -54 q184 0 339 92t244.5 250.5t89.5 347.5q0 192 -88.5 351t-243 251t-341.5 92q-182 0 -336.5 -92.5t-244 -252t-89.5 -347.5zM449 670q0 223 147 374.5t362 151.5q161 0 267 -117l53 80h33l-66 -309h-39q-5 81 -11 119t-21 71q-23 51 -74.5 80t-116.5 29q-124 0 -170 -121 q-28 -76 -59 -244.5t-31 -279.5q0 -107 38.5 -156t121.5 -49q79 0 156 65t130 193h37l-65 -309h-35l-25 71q-59 -37 -107 -52t-108 -15q-183 0 -300 118t-117 300z" />
<glyph unicode="&#xaa;" horiz-adv-x="854" d="M156 1094q0 93 53.5 192.5t150.5 149.5q61 34 121 34q59 0 92.5 -26.5t57.5 -69.5l16 72h273l-86 -449q-7 -49 -7 -57q0 -25 17 -25q27 0 55.5 56t40.5 119l41 -9q-4 -21 -6 -32.5t-10.5 -39.5t-18 -46t-28.5 -42.5t-41.5 -39t-57.5 -25t-76 -10.5q-98 0 -149 53 q-8 8 -15 19.5t-11 20.5l-5 9q-33 -46 -76 -73t-108 -27q-109 0 -166 70t-57 176zM424 973q0 -18 1 -27.5t9 -20t23 -10.5q34 0 68.5 50.5t56.5 130.5t22 161q0 140 -51 140q-47 0 -88 -151.5t-41 -272.5z" />
<glyph unicode="&#xab;" horiz-adv-x="1110" d="M45 569l293 262h311l-303 -270l217 -264h-303zM467 561l287 270h305l-305 -270l213 -264h-297z" />
<glyph unicode="&#xac;" horiz-adv-x="1482" d="M104 524l52 267h1157l-144 -744h-329l92 477h-828z" />
<glyph unicode="&#xad;" horiz-adv-x="796" d="M51 432l53 275h619l-49 -275h-623z" />
<glyph unicode="&#xae;" horiz-adv-x="1703" d="M143 723q0 205 98.5 375.5t269 269t374.5 98.5q153 0 290 -57.5t235.5 -156.5t156 -236.5t57.5 -290.5q0 -154 -57.5 -292.5t-156 -238.5t-236 -158.5t-291.5 -58.5q-203 0 -373 99.5t-268.5 271t-98.5 375.5zM213 723q0 -143 52.5 -271t142 -220.5t213.5 -146.5t262 -54 q184 0 339 92t244.5 250.5t89.5 347.5q0 192 -88.5 351t-243 251t-341.5 92q-182 0 -336.5 -92.5t-244 -252t-89.5 -347.5zM422 299l8 43h90l152 776h-133l8 45h381q109 0 182.5 -13t113.5 -39.5t56 -61t16 -84.5q0 -109 -83.5 -167t-243.5 -59q116 -23 162 -67.5t61 -151.5 l10 -74q8 -53 20 -73.5t35 -20.5q22 0 58 21l16 -31q-41 -30 -80 -42.5t-94 -12.5q-104 0 -154.5 52t-54.5 167l-2 57q-3 103 -22 134.5t-82 31.5h-8l-76 -387h133l-10 -43h-459zM842 772h37q96 0 133 37q25 25 38 82.5t13 107.5q0 69 -30 95t-113 26h-11z" />
<glyph unicode="&#xaf;" horiz-adv-x="555" d="M-57 1122l45 246h626l-47 -246h-624z" />
<glyph unicode="&#xb0;" horiz-adv-x="724" d="M86 1194q0 147 103.5 249.5t250.5 102.5q146 0 248.5 -103.5t102.5 -250.5q0 -146 -103.5 -249t-249.5 -103q-147 0 -249.5 104t-102.5 250zM291 1192q0 -61 44 -104.5t103 -43.5q61 0 104.5 44t43.5 104t-44 102.5t-104 42.5q-61 0 -104 -42.5t-43 -102.5z" />
<glyph unicode="&#xb1;" horiz-adv-x="1482" d="M76 0l55 287h1106l-55 -287h-1106zM227 774l54 283h370l74 368h365l-72 -368h371l-56 -283h-370l-74 -381h-367l74 381h-369z" />
<glyph unicode="&#xb2;" horiz-adv-x="843" d="M113 901l30 152l158 114q186 136 253 225t67 167q0 41 -14 82.5t-49.5 75.5t-86.5 34q-45 0 -82 -26.5t-37 -53.5q0 -10 4 -15.5t13 -7.5t14 -2.5t16 -0.5q60 0 91.5 -34t31.5 -85q0 -61 -33.5 -102.5t-101.5 -41.5t-109.5 47.5t-41.5 114.5q0 46 18 90t55.5 85t106 66 t159.5 25q173 0 270 -66t99 -181q0 -109 -86 -186.5t-305 -159.5q-104 -40 -152 -64q322 4 369 4q42 0 59 9t27 46l18 74h44l-70 -385h-735z" />
<glyph unicode="&#xb3;" horiz-adv-x="843" d="M176 1104q0 73 42 118.5t104 45.5q53 0 92 -35.5t39 -93.5q0 -48 -27 -85.5t-78 -37.5q-5 0 -14.5 1t-14.5 1q-22 0 -22 -21q0 -20 30.5 -37.5t80.5 -17.5q90 0 135 72t45 180q0 91 -29.5 133.5t-79.5 42.5q-17 0 -49 -10t-39 -10q-39 0 -39 34q0 17 11 28t30 11 q4 0 36 -6t42 -6q59 0 100.5 34.5t58.5 79.5t17 93q0 147 -119 147q-32 0 -55.5 -12t-23.5 -29q0 -12 15.5 -20.5t33.5 -14.5t33.5 -27.5t15.5 -57.5q0 -54 -29.5 -89.5t-97.5 -35.5q-62 0 -94.5 38t-32.5 85q0 38 14 71.5t47.5 66t100 51.5t159.5 19q156 0 249 -50t93 -146 q0 -170 -245 -215q-53 -8 -82 -10q41 -2 74 -6.5t76.5 -18.5t72.5 -35.5t49.5 -60.5t20.5 -92q0 -98 -59.5 -165.5t-152.5 -97.5t-212 -30q-91 0 -157.5 21.5t-100.5 56t-49 70.5t-15 73z" />
<glyph unicode="&#xb4;" horiz-adv-x="555" d="M-57 1059l295 364h376v-49l-624 -350z" />
<glyph unicode="&#xb5;" d="M-63 -561l268 1405h-148l13 61q239 0 585 29l-135 -715q-8 -39 -8 -55q0 -23 12.5 -32t26.5 -9q51 0 104 102t86 277l76 403h432l-125 -661q-18 -92 -18 -97q0 -15 8.5 -22.5t18.5 -7.5q23 0 46.5 19.5t39.5 44t34 64.5t26 62t19 55l66 -14q-16 -55 -38 -105 t-57.5 -102.5t-79 -90.5t-105 -62.5t-132.5 -24.5q-66 0 -114.5 17.5t-77.5 49.5t-44.5 64.5t-25.5 73.5q-26 -48 -37 -68t-30 -48.5t-32.5 -39.5t-33 -19.5t-41.5 -8.5q-21 0 -45 8l-102 -553h-432z" />
<glyph unicode="&#xb6;" horiz-adv-x="1374" d="M229 995q0 118 60 219.5t160 157.5q131 74 358 74h528l-16 -80h-96l-332 -1710h-100l331 1710h-356l-334 -1710h-100l190 983q-139 34 -216 128t-77 228z" />
<glyph unicode="&#xb7;" horiz-adv-x="555" d="M72 580q0 86 57.5 145t140.5 59q86 0 144.5 -59.5t58.5 -146.5q0 -88 -55.5 -145.5t-141.5 -57.5q-88 0 -146 58.5t-58 146.5z" />
<glyph unicode="&#xb8;" horiz-adv-x="555" d="M61 -309q0 29 19 55.5t51 26.5q25 0 39 -12.5t14 -34.5q0 -21 -10 -50.5t-10 -40.5q0 -30 29 -30q30 0 52 30.5t30 66t8 67.5q0 39 -13 53.5t-49 15.5l80 168h59l-63 -131q99 -3 148 -38t49 -97q0 -85 -71 -135.5t-198 -50.5q-69 0 -116.5 36.5t-47.5 100.5z" />
<glyph unicode="&#xb9;" horiz-adv-x="843" d="M174 901l8 39h191l110 643q15 83 15 100q0 22 -13.5 31.5t-64.5 9.5h-127l6 43q184 0 290.5 11.5t186.5 38.5h58l-154 -877h192l-8 -39h-690z" />
<glyph unicode="&#xba;" horiz-adv-x="811" d="M150 1114q0 66 26 128t74 113t126.5 82t174.5 31q140 0 231.5 -67t91.5 -193q0 -64 -23.5 -125.5t-70.5 -115.5t-127.5 -87.5t-183.5 -33.5q-149 0 -234 74t-85 194zM410 958q0 -71 61 -71q17 0 30.5 7t21.5 20t12 21.5t8 22.5q26 84 46.5 220.5t20.5 177.5q0 74 -55 74 q-33 0 -51 -28.5t-31 -78.5q-23 -88 -43 -207.5t-20 -157.5z" />
<glyph unicode="&#xbb;" horiz-adv-x="1110" d="M23 297l307 272l-213 262h297l202 -262l-286 -272h-307zM434 297l303 272l-219 262h305l215 -270l-293 -264h-311z" />
<glyph unicode="&#xbc;" horiz-adv-x="1908" d="M102 526l9 39h190l111 643q14 77 14 101q0 22 -13.5 31.5t-64.5 9.5h-127l6 43q185 0 292 11t186 38h57l-154 -877h193l-8 -39h-691zM569 0l805 1417h125l-807 -1417h-123zM1022 242l8 43l510 606h236l-109 -606h92q18 0 27 6.5t12 27.5l17 72h43l-48 -258h-45l11 51 q0 6 1 17t1 14q0 18 -11 22.5t-43 4.5h-65l-35 -203h143l-10 -39h-577l6 39h139l35 203h-338zM1085 285h283l74 424z" />
<glyph unicode="&#xbd;" horiz-adv-x="1908" d="M61 526l9 39h190l111 643q14 77 14 101q0 22 -13.5 31.5t-64.5 9.5h-127l6 43q185 0 292 11t186 38h57l-154 -877h193l-8 -39h-691zM526 0l805 1417h125l-807 -1417h-123zM1038 0l31 152l158 114q128 94 200.5 168t95.5 123t23 100q0 41 -13.5 82.5t-49 76t-86.5 34.5 q-45 0 -82 -26t-37 -54q0 -12 8.5 -18.5t16.5 -7.5t22 -1q60 0 91.5 -33.5t31.5 -84.5q0 -61 -33.5 -102.5t-101.5 -41.5t-110 47.5t-42 114.5q0 45 18 89.5t56 85.5t106.5 66t159.5 25q173 0 270 -66t99 -181q0 -109 -86.5 -187t-304.5 -160q-114 -44 -152 -63q322 4 369 4 q42 0 59 9t27 46l18 74h43l-69 -385h-736z" />
<glyph unicode="&#xbe;" horiz-adv-x="1908" d="M106 729q0 73 42 118.5t104 45.5q53 0 92 -35.5t39 -93.5q0 -49 -26.5 -86t-77.5 -37q-5 0 -14.5 1t-14.5 1q-23 0 -23 -20t30.5 -38t80.5 -18q90 0 135 72t45 180q0 176 -108 176q-17 0 -49 -10t-39 -10q-39 0 -39 35q0 17 11 28t30 11q4 0 35.5 -6.5t41.5 -6.5 q59 0 101 34.5t59 79.5t17 93q0 148 -119 148q-33 0 -56.5 -12t-23.5 -29q0 -12 15.5 -20.5t33.5 -14.5t33.5 -28t15.5 -58q0 -54 -29.5 -89.5t-97.5 -35.5q-62 0 -94.5 38t-32.5 85q0 29 8 56.5t30 56t57 49t93.5 34t133.5 13.5q155 0 248.5 -50t93.5 -147 q0 -170 -246 -215q-53 -8 -82 -10q41 -2 74 -6.5t76.5 -18.5t72.5 -35.5t49.5 -60.5t20.5 -92q0 -98 -59.5 -165.5t-152.5 -97.5t-212 -30q-91 0 -157.5 21.5t-100.5 56t-49 70.5t-15 73zM580 0l804 1417h125l-807 -1417h-122zM1016 242l8 43l510 606h235l-108 -606h92 q18 0 27 6.5t12 27.5l16 72h43l-47 -258h-45l10 51q0 6 1.5 17t1.5 14q0 18 -11 22.5t-43 4.5h-65l-35 -203h143l-10 -39h-577l6 39h139l35 203h-338zM1079 285h283l74 424z" />
<glyph unicode="&#xbf;" horiz-adv-x="1150" d="M57 346q0 61 16.5 118.5t56.5 116t100 107t153 89t209 63.5q125 26 167 50t52 83h80v-51q0 -161 -60 -252q-33 -49 -96 -94.5t-126 -80.5t-122 -73.5t-96 -89.5t-37 -113q0 -50 18 -87t42.5 -55.5t57 -29.5t52.5 -13.5t39 -2.5q51 0 87 17t36 44q0 14 -11 24.5t-26.5 21 t-31 25t-26.5 43t-11 68.5q0 87 53 143t139 56q49 0 86.5 -13t58.5 -32.5t34.5 -45.5t17.5 -48t4 -45q0 -120 -103 -211q-123 -109 -338 -109q-222 0 -348.5 96.5t-126.5 280.5zM623 1243q0 92 65.5 156.5t155.5 64.5q92 0 156.5 -64.5t64.5 -156.5t-65 -156.5t-156 -64.5 t-156 65t-65 156z" />
<glyph unicode="&#xc0;" horiz-adv-x="1579" d="M-82 0l14 59h13q39 0 62 3.5t53.5 19t62.5 48.5t76 89l952 1227h240l-91 -1387h146l-10 -59h-764l12 59h145l21 349h-426l-176 -226q-22 -29 -29.5 -43t-7.5 -33q0 -47 84 -47h49l-10 -59h-416zM471 469h387l35 543zM795 1769v62h477l196 -275l-30 -32z" />
<glyph unicode="&#xc1;" horiz-adv-x="1579" d="M-82 0l14 59h13q39 0 62 3.5t53.5 19t62.5 48.5t76 89l952 1227h240l-91 -1387h146l-10 -59h-764l12 59h145l21 349h-426l-176 -226q-22 -29 -29.5 -43t-7.5 -33q0 -47 84 -47h49l-10 -59h-416zM471 469h387l35 543zM1049 1559l284 274h477v-61l-731 -246z" />
<glyph unicode="&#xc2;" horiz-adv-x="1579" d="M-82 0l14 59h13q39 0 62 3.5t53.5 19t62.5 48.5t76 89l952 1227h240l-91 -1387h146l-10 -59h-764l12 59h145l21 349h-426l-176 -226q-22 -29 -29.5 -43t-7.5 -33q0 -47 84 -47h49l-10 -59h-416zM471 469h387l35 543zM866 1563l381 299h219l187 -306l-39 -34l-307 137 l-396 -139z" />
<glyph unicode="&#xc3;" horiz-adv-x="1579" d="M-82 0l14 59h13q39 0 62 3.5t53.5 19t62.5 48.5t76 89l952 1227h240l-91 -1387h146l-10 -59h-764l12 59h145l21 349h-426l-176 -226q-22 -29 -29.5 -43t-7.5 -33q0 -47 84 -47h49l-10 -59h-416zM471 469h387l35 543zM913 1573q118 287 273 287q62 0 160 -52l116 -59 q41 -20 72 -20q34 0 60 25.5t69 100.5l61 -26q-75 -164 -133 -229.5t-127 -65.5q-61 0 -164 49l-94 45q-79 39 -104 39q-35 0 -64 -28t-63 -93z" />
<glyph unicode="&#xc4;" horiz-adv-x="1579" d="M-82 0l14 59h13q39 0 62 3.5t53.5 19t62.5 48.5t76 89l952 1227h240l-91 -1387h146l-10 -59h-764l12 59h145l21 349h-426l-176 -226q-22 -29 -29.5 -43t-7.5 -33q0 -47 84 -47h49l-10 -59h-416zM471 469h387l35 543zM893 1708q0 62 43 104.5t104 42.5t104.5 -42.5 t43.5 -104.5q0 -60 -43.5 -103.5t-104.5 -43.5t-104 43.5t-43 103.5zM1372 1708q0 60 43.5 102.5t104.5 42.5q60 0 102.5 -42.5t42.5 -102.5q0 -62 -43 -104.5t-102 -42.5q-60 0 -104 43t-44 104z" />
<glyph unicode="&#xc5;" horiz-adv-x="1579" d="M-82 0l14 59h13q39 0 62 3.5t53.5 19t62.5 48.5t76 89l952 1227h240l-91 -1387h146l-10 -59h-764l12 59h145l21 349h-426l-176 -226q-22 -29 -29.5 -43t-7.5 -33q0 -47 84 -47h49l-10 -59h-416zM471 469h387l35 543zM1108 1700q0 82 56.5 139t138.5 57q79 0 136.5 -57 t57.5 -135q0 -83 -56 -140t-138 -57q-81 0 -138 56.5t-57 136.5zM1190 1702q0 -49 33.5 -85t79.5 -36t79 35t33 84q0 51 -33 86t-79 35q-47 0 -80 -34.5t-33 -84.5z" />
<glyph unicode="&#xc6;" horiz-adv-x="2217" d="M-78 0l12 59q59 0 91 7.5t72.5 38t95.5 96.5l985 1185h-152l12 60h1211l-49 -420h-64q-7 85 -22 143t-54 111q-44 60 -106 83t-146 23h-141l-113 -595h23q110 0 186.5 71t100.5 180h67l-123 -624h-59q2 31 2 43q0 56 -3 91t-14.5 72.5t-33.5 57.5t-61.5 33.5t-96.5 13.5 l-125 -670q107 0 168.5 4.5t126.5 20.5t113 49.5t96 89.5q94 111 154 250h61l-84 -473h-1282l10 59h154l67 359h-550l-179 -223q-19 -24 -27.5 -35.5t-15 -26t-6.5 -27.5q0 -47 82 -47h53l-10 -59h-426zM502 473h510l151 805z" />
<glyph unicode="&#xc7;" horiz-adv-x="1409" d="M90 569q0 131 38.5 262t113.5 246.5t176.5 205t236.5 142t283 52.5q242 0 379 -129l86 96h61l-82 -440h-53q-8 72 -16 115.5t-35 102t-72 101.5q-83 80 -188 80q-169 0 -260 -248q-63 -173 -117.5 -469.5t-54.5 -413.5q0 -16 0.5 -27.5t4.5 -37t11.5 -45t23.5 -43 t37.5 -39t56.5 -26.5t79 -11q81 0 159.5 37.5t138.5 97t104 124.5t69 128h59l-74 -430h-73l-52 74q-53 -30 -93.5 -48.5t-117.5 -36.5t-165 -20l-45 -98q100 -3 150 -39.5t50 -101.5q0 -88 -72 -140.5t-202 -52.5q-72 0 -121 38t-49 103q0 30 20 58t52 28q55 0 55 -49 q0 -22 -10.5 -52t-10.5 -42q0 -31 29 -31q45 0 68.5 57t23.5 113q0 40 -12.5 55.5t-48.5 16.5l65 139q-155 5 -273.5 55.5t-190 133.5t-107 186.5t-35.5 222.5z" />
<glyph unicode="&#xc8;" horiz-adv-x="1366" d="M-63 0l12 59h147l254 1327h-147l12 60h1198l-51 -426h-66q-3 55 -12 102.5t-31 97.5t-56 85.5t-89.5 58t-126.5 22.5h-150l-112 -600q42 0 78.5 9t62 20t50 33.5t38 38t31 45.5t23.5 42.5t20 43.5l10 22h62l-121 -626h-62v53q0 45 -2.5 75t-14 68.5t-32.5 61.5t-61 39 t-96 16l-125 -668h104q124 0 183 15t118 57q82 58 136.5 136.5t115.5 199.5h59l-86 -467h-1273zM362 1769v62h478l196 -275l-30 -32z" />
<glyph unicode="&#xc9;" horiz-adv-x="1366" d="M-63 0l12 59h147l254 1327h-147l12 60h1198l-51 -426h-66q-3 55 -12 102.5t-31 97.5t-56 85.5t-89.5 58t-126.5 22.5h-150l-112 -600q42 0 78.5 9t62 20t50 33.5t38 38t31 45.5t23.5 42.5t20 43.5l10 22h62l-121 -626h-62v53q0 45 -2.5 75t-14 68.5t-32.5 61.5t-61 39 t-96 16l-125 -668h104q124 0 183 15t118 57q82 58 136.5 136.5t115.5 199.5h59l-86 -467h-1273zM684 1559l285 274h477v-61l-731 -246z" />
<glyph unicode="&#xca;" horiz-adv-x="1366" d="M-63 0l12 59h147l254 1327h-147l12 60h1198l-51 -426h-66q-3 55 -12 102.5t-31 97.5t-56 85.5t-89.5 58t-126.5 22.5h-150l-112 -600q42 0 78.5 9t62 20t50 33.5t38 38t31 45.5t23.5 42.5t20 43.5l10 22h62l-121 -626h-62v53q0 45 -2.5 75t-14 68.5t-32.5 61.5t-61 39 t-96 16l-125 -668h104q124 0 183 15t118 57q82 58 136.5 136.5t115.5 199.5h59l-86 -467h-1273zM475 1563l381 299h219l187 -306l-39 -34l-308 137l-395 -139z" />
<glyph unicode="&#xcb;" horiz-adv-x="1366" d="M-63 0l12 59h147l254 1327h-147l12 60h1198l-51 -426h-66q-3 55 -12 102.5t-31 97.5t-56 85.5t-89.5 58t-126.5 22.5h-150l-112 -600q42 0 78.5 9t62 20t50 33.5t38 38t31 45.5t23.5 42.5t20 43.5l10 22h62l-121 -626h-62v53q0 45 -2.5 75t-14 68.5t-32.5 61.5t-61 39 t-96 16l-125 -668h104q124 0 183 15t118 57q82 58 136.5 136.5t115.5 199.5h59l-86 -467h-1273zM494 1708q0 62 43 104.5t104 42.5t104 -42.5t43 -104.5q0 -60 -43 -103.5t-104 -43.5t-104 43.5t-43 103.5zM973 1708q0 60 43 102.5t104 42.5q60 0 103 -42.5t43 -102.5 q0 -62 -43.5 -104.5t-102.5 -42.5q-60 0 -103.5 43t-43.5 104z" />
<glyph unicode="&#xcc;" horiz-adv-x="894" d="M-55 0l12 59h145l256 1327h-147l12 60h770l-10 -60h-145l-254 -1327h143l-12 -59h-770zM125 1769v62h477l197 -275l-31 -32z" />
<glyph unicode="&#xcd;" horiz-adv-x="894" d="M-55 0l12 59h145l256 1327h-147l12 60h770l-10 -60h-145l-254 -1327h143l-12 -59h-770zM446 1559l285 274h477v-61l-731 -246z" />
<glyph unicode="&#xce;" horiz-adv-x="894" d="M-55 0l12 59h145l256 1327h-147l12 60h770l-10 -60h-145l-254 -1327h143l-12 -59h-770zM231 1563l381 299h219l187 -306l-39 -34l-307 137l-396 -139z" />
<glyph unicode="&#xcf;" horiz-adv-x="894" d="M-55 0l12 59h145l256 1327h-147l12 60h770l-10 -60h-145l-254 -1327h143l-12 -59h-770zM260 1708q0 62 43.5 104.5t104.5 42.5t104 -42.5t43 -104.5q0 -60 -43 -103.5t-104 -43.5t-104.5 43.5t-43.5 103.5zM739 1708q0 60 43.5 102.5t104.5 42.5q60 0 102.5 -42.5 t42.5 -102.5q0 -62 -43 -104.5t-102 -42.5q-60 0 -104 43t-44 104z" />
<glyph unicode="&#xd0;" horiz-adv-x="1662" d="M-57 0l14 59h145l127 678h-149l18 84h146l108 565h-143l10 60h635q59 0 93 -0.5t101.5 -6t112 -15.5t108 -30.5t106 -49.5t89.5 -75t75 -104t46.5 -139t18.5 -178q0 -136 -31.5 -256t-83 -207t-121.5 -157t-142.5 -113.5t-150.5 -69.5q-133 -45 -356 -45h-776zM582 59 q143 0 202 25q120 54 185 240q37 106 90 409t53 408q0 66 -14 112t-36 71.5t-61.5 39.5t-76.5 18t-95 4l-108 -565h227l-16 -84h-223z" />
<glyph unicode="&#xd1;" horiz-adv-x="1492" d="M-82 0l10 59q2 0 20.5 0.5t23.5 1t20.5 2t23 3.5t19.5 6t21 9.5t18 12.5q28 23 41 58.5t28 113.5l191 996q10 58 10 73q0 51 -88 51h-59l12 60h604l410 -897l123 645q14 72 14 111q0 28 -7.5 45.5t-23 24.5t-27.5 9t-32 2h-84l16 60h436l-10 -60h-49q-75 0 -110.5 -35.5 t-57.5 -148.5l-225 -1202h-225l-566 1235l-186 -973q-16 -100 -16 -117q0 -58 32.5 -72t132.5 -14l-10 -59h-430zM578 1573q118 287 272 287q62 0 160 -52l116 -59q41 -20 72 -20q34 0 60 25.5t69 100.5l62 -26q-75 -163 -133.5 -229t-127.5 -66q-60 0 -163 49l-95 45 q-79 39 -104 39q-35 0 -64 -28t-63 -93z" />
<glyph unicode="&#xd2;" horiz-adv-x="1705" d="M96 598q0 63 11 134.5t39.5 158.5t72 167.5t115 158t161.5 134.5t218 91.5t278 34.5q141 0 255.5 -35t189.5 -94t125 -139.5t72 -168t22 -184.5q0 -72 -15 -151.5t-48.5 -166t-82.5 -167.5t-121 -154.5t-159 -128.5t-203 -87t-246 -32q-103 0 -196.5 18t-184.5 63.5 t-156.5 115t-106 180.5t-40.5 252zM522 1769v62h477l197 -275l-31 -32zM582 238q0 -102 47 -153.5t127 -51.5q145 0 217 188q56 140 125 511.5t69 484.5q0 192 -170 192q-123 0 -191 -119q-56 -98 -108 -355q-11 -52 -32 -167l-1 -1v-1v-1v-1v-1l-1 -1v-1v-1 q-34 -180 -46.5 -250t-24 -149.5t-11.5 -122.5z" />
<glyph unicode="&#xd3;" horiz-adv-x="1705" d="M96 598q0 63 11 134.5t39.5 158.5t72 167.5t115 158t161.5 134.5t218 91.5t278 34.5q141 0 255.5 -35t189.5 -94t125 -139.5t72 -168t22 -184.5q0 -72 -15 -151.5t-48.5 -166t-82.5 -167.5t-121 -154.5t-159 -128.5t-203 -87t-246 -32q-103 0 -196.5 18t-184.5 63.5 t-156.5 115t-106 180.5t-40.5 252zM582 238q0 -102 47 -153.5t127 -51.5q145 0 217 188q56 140 125 511.5t69 484.5q0 192 -170 192q-123 0 -191 -119q-56 -98 -108 -355q-11 -52 -32 -167l-1 -1v-1v-1v-1v-1l-1 -1v-1v-1q-34 -180 -46.5 -250t-24 -149.5t-11.5 -122.5z M823 1559l285 274h477v-61l-731 -246z" />
<glyph unicode="&#xd4;" horiz-adv-x="1705" d="M96 598q0 63 11 134.5t39.5 158.5t72 167.5t115 158t161.5 134.5t218 91.5t278 34.5q141 0 255.5 -35t189.5 -94t125 -139.5t72 -168t22 -184.5q0 -72 -15 -151.5t-48.5 -166t-82.5 -167.5t-121 -154.5t-159 -128.5t-203 -87t-246 -32q-103 0 -196.5 18t-184.5 63.5 t-156.5 115t-106 180.5t-40.5 252zM582 238q0 -102 47 -153.5t127 -51.5q145 0 217 188q56 140 125 511.5t69 484.5q0 192 -170 192q-123 0 -191 -119q-56 -98 -108 -355q-11 -52 -32 -167l-1 -1v-1v-1v-1v-1l-1 -1v-1v-1q-34 -180 -46.5 -250t-24 -149.5t-11.5 -122.5z M612 1563l381 299h219l187 -306l-39 -34l-307 137l-396 -139z" />
<glyph unicode="&#xd5;" horiz-adv-x="1705" d="M96 598q0 63 11 134.5t39.5 158.5t72 167.5t115 158t161.5 134.5t218 91.5t278 34.5q141 0 255.5 -35t189.5 -94t125 -139.5t72 -168t22 -184.5q0 -72 -15 -151.5t-48.5 -166t-82.5 -167.5t-121 -154.5t-159 -128.5t-203 -87t-246 -32q-103 0 -196.5 18t-184.5 63.5 t-156.5 115t-106 180.5t-40.5 252zM582 238q0 -102 47 -153.5t127 -51.5q145 0 217 188q56 140 125 511.5t69 484.5q0 192 -170 192q-123 0 -191 -119q-56 -98 -108 -355q-11 -52 -32 -167l-1 -1v-1v-1v-1v-1l-1 -1v-1v-1q-34 -180 -46.5 -250t-24 -149.5t-11.5 -122.5z M659 1573q118 287 273 287q62 0 160 -52l116 -59q41 -20 72 -20q34 0 60 25.5t69 100.5l61 -26q-75 -164 -133 -229.5t-127 -65.5q-60 0 -163 49l-95 45q-79 39 -104 39q-35 0 -64 -28t-63 -93z" />
<glyph unicode="&#xd6;" horiz-adv-x="1705" d="M96 598q0 63 11 134.5t39.5 158.5t72 167.5t115 158t161.5 134.5t218 91.5t278 34.5q141 0 255.5 -35t189.5 -94t125 -139.5t72 -168t22 -184.5q0 -72 -15 -151.5t-48.5 -166t-82.5 -167.5t-121 -154.5t-159 -128.5t-203 -87t-246 -32q-103 0 -196.5 18t-184.5 63.5 t-156.5 115t-106 180.5t-40.5 252zM582 238q0 -102 47 -153.5t127 -51.5q145 0 217 188q56 140 125 511.5t69 484.5q0 192 -170 192q-123 0 -191 -119q-56 -98 -108 -355q-11 -52 -32 -167l-1 -1v-1v-1v-1v-1l-1 -1v-1v-1q-34 -180 -46.5 -250t-24 -149.5t-11.5 -122.5z M651 1708q0 62 43.5 104.5t104.5 42.5t104 -42.5t43 -104.5q0 -60 -43 -103.5t-104 -43.5t-104.5 43.5t-43.5 103.5zM1130 1708q0 60 43.5 102.5t104.5 42.5q60 0 102.5 -42.5t42.5 -102.5q0 -62 -43 -104.5t-102 -42.5q-60 0 -104 43t-44 104z" />
<glyph unicode="&#xd7;" horiz-adv-x="1482" d="M188 362l312 265l-234 282l273 230l233 -281l299 252l180 -215l-299 -252l254 -305l-274 -229l-250 301l-313 -265z" />
<glyph unicode="&#xd8;" horiz-adv-x="1705" d="M100 594q0 182 62 343.5t172 281t271.5 189t350.5 69.5q274 0 435 -95l137 154l84 -76l-129 -149q29 -32 46.5 -53t45.5 -64t43.5 -84.5t28 -105t12.5 -134.5q0 -142 -50.5 -292t-146 -281t-217.5 -207q-193 -121 -473 -121q-154 0 -233.5 20t-159.5 64l-137 -151l-86 78 l131 147q-58 44 -98 108t-57.5 133t-24.5 122t-7 104zM586 246q0 -115 49.5 -168t130.5 -53q134 0 205 174q22 53 36 97t51.5 209.5t84.5 424.5l-557 -647v-37zM614 504l551 631q2 25 2 59q0 15 -0.5 26t-3.5 35.5t-9 43t-18.5 41.5t-30 37.5t-45.5 25t-63 10.5 q-117 0 -174 -102q-53 -88 -94 -253t-104 -499z" />
<glyph unicode="&#xd9;" horiz-adv-x="1536" d="M147 379q0 72 21 180l160 827h-150l10 60h775l-11 -60h-147l-174 -925q-23 -121 -23 -170q0 -64 21 -111.5t49.5 -72t68.5 -38.5t67.5 -17t57.5 -3q157 0 251 103.5t134 318.5l140 743q14 88 14 103q0 42 -23 55.5t-69 13.5h-64l13 60h420l-13 -60h-47q-37 0 -64.5 -12 t-44 -28t-29 -45t-18 -51t-12.5 -58l-135 -715q-13 -70 -27 -122.5t-37 -108t-52.5 -95t-73.5 -76t-99.5 -58.5t-131.5 -35t-169 -13q-58 0 -105 2.5t-111 12t-112.5 26t-99.5 47.5t-84 73t-54.5 106t-21.5 143zM504 1769v62h477l197 -275l-31 -32z" />
<glyph unicode="&#xda;" horiz-adv-x="1536" d="M147 379q0 72 21 180l160 827h-150l10 60h775l-11 -60h-147l-174 -925q-23 -121 -23 -170q0 -64 21 -111.5t49.5 -72t68.5 -38.5t67.5 -17t57.5 -3q157 0 251 103.5t134 318.5l140 743q14 88 14 103q0 42 -23 55.5t-69 13.5h-64l13 60h420l-13 -60h-47q-37 0 -64.5 -12 t-44 -28t-29 -45t-18 -51t-12.5 -58l-135 -715q-13 -70 -27 -122.5t-37 -108t-52.5 -95t-73.5 -76t-99.5 -58.5t-131.5 -35t-169 -13q-58 0 -105 2.5t-111 12t-112.5 26t-99.5 47.5t-84 73t-54.5 106t-21.5 143zM854 1559l285 274h477v-61l-731 -246z" />
<glyph unicode="&#xdb;" horiz-adv-x="1536" d="M147 379q0 72 21 180l160 827h-150l10 60h775l-11 -60h-147l-174 -925q-23 -121 -23 -170q0 -64 21 -111.5t49.5 -72t68.5 -38.5t67.5 -17t57.5 -3q157 0 251 103.5t134 318.5l140 743q14 88 14 103q0 42 -23 55.5t-69 13.5h-64l13 60h420l-13 -60h-47q-37 0 -64.5 -12 t-44 -28t-29 -45t-18 -51t-12.5 -58l-135 -715q-13 -70 -27 -122.5t-37 -108t-52.5 -95t-73.5 -76t-99.5 -58.5t-131.5 -35t-169 -13q-58 0 -105 2.5t-111 12t-112.5 26t-99.5 47.5t-84 73t-54.5 106t-21.5 143zM571 1563l381 299h219l187 -306l-39 -34l-307 137l-396 -139z " />
<glyph unicode="&#xdc;" horiz-adv-x="1536" d="M147 379q0 72 21 180l160 827h-150l10 60h775l-11 -60h-147l-174 -925q-23 -121 -23 -170q0 -64 21 -111.5t49.5 -72t68.5 -38.5t67.5 -17t57.5 -3q157 0 251 103.5t134 318.5l140 743q14 88 14 103q0 42 -23 55.5t-69 13.5h-64l13 60h420l-13 -60h-47q-37 0 -64.5 -12 t-44 -28t-29 -45t-18 -51t-12.5 -58l-135 -715q-13 -70 -27 -122.5t-37 -108t-52.5 -95t-73.5 -76t-99.5 -58.5t-131.5 -35t-169 -13q-58 0 -105 2.5t-111 12t-112.5 26t-99.5 47.5t-84 73t-54.5 106t-21.5 143zM690 1708q0 62 43.5 104.5t104.5 42.5t104 -42.5t43 -104.5 q0 -60 -43 -103.5t-104 -43.5t-104.5 43.5t-43.5 103.5zM1169 1708q0 60 43.5 102.5t104.5 42.5q60 0 102.5 -42.5t42.5 -102.5q0 -62 -43 -104.5t-102 -42.5q-60 0 -104 43t-44 104z" />
<glyph unicode="&#xdd;" horiz-adv-x="1409" d="M109 1386l12 60h794l-14 -60h-147l209 -608l307 469q35 55 35 88q0 51 -70 51h-92l12 60h436l-10 -60h-37q-37 0 -72 -17.5t-66 -52t-46 -55.5t-39 -57l-344 -522l-119 -623h150l-11 -59h-784l12 59h152l119 623l-238 704h-149zM850 1559l285 274h477v-61l-731 -246z" />
<glyph unicode="&#xde;" horiz-adv-x="1536" d="M-57 0l12 59h147l252 1327h-145l14 60h772l-10 -60h-147l-45 -223h233q172 0 266.5 -26.5t159.5 -102.5q72 -86 72 -217q0 -87 -29.5 -157.5t-74.5 -116t-112.5 -78.5t-129 -50t-141 -26.5t-130 -11.5t-112.5 -2h-154l-57 -316h141l-10 -59h-772zM651 438h80q39 0 64.5 3 t54 13.5t49 34t33.5 60.5q15 43 46.5 217t31.5 215q0 71 -40.5 97t-111.5 26h-82z" />
<glyph unicode="&#xdf;" horiz-adv-x="1366" d="M-381 -297q0 94 57 152.5t142 58.5q78 0 125 -50.5t47 -129.5q0 -52 -20.5 -89t-45 -52t-45 -31t-20.5 -31q0 -17 16.5 -26t42.5 -9q40 0 71 33.5t52 122.5q5 24 26.5 173t45 317t30.5 212q15 95 27 160t34.5 165t45 170.5t59.5 160t78 151t99.5 125.5t125 103t154 63.5 t186.5 24.5q166 0 264.5 -67t98.5 -191q0 -93 -52.5 -145t-132.5 -52q-77 0 -126.5 43t-49.5 115q0 42 15.5 74t34 47.5t34 33t15.5 33.5q0 51 -78 51q-42 0 -77.5 -18t-63 -46.5t-51 -75t-40 -92.5t-32.5 -110.5t-26.5 -117.5t-22.5 -125q140 106 342 106 q134 0 216.5 -50.5t82.5 -160.5q0 -53 -19.5 -91.5t-53.5 -59t-73 -30t-84 -9.5h-59q34 -5 58.5 -10.5t67 -23.5t70 -42.5t49 -69t21.5 -102.5q0 -75 -36 -152.5t-116 -120.5q-91 -49 -264 -49q-299 0 -299 174q0 55 29.5 88t77.5 33t75 -32t27 -68q0 -25 -10 -43.5 t-22.5 -26t-22.5 -16t-10 -17.5q0 -18 32 -18q39 0 60 43q19 37 38 150.5t19 146.5q0 28 -7 49t-22.5 33.5t-30 20t-42 10.5t-44.5 3.5t-50 0.5l16 61h74q42 0 71 20.5t41.5 52.5t17.5 58t5 51q0 40 -21.5 64t-64.5 24q-46 0 -83 -27.5t-58.5 -71.5t-32 -75t-17.5 -63 l-82 -418q-9 -48 -20.5 -95.5t-37 -125t-56 -143.5t-79 -138t-104.5 -122.5t-134.5 -83.5t-166.5 -33q-140 0 -225.5 79t-85.5 189z" />
<glyph unicode="&#xe0;" d="M45 348q0 122 55 244.5t146 210.5q18 17 42.5 35.5t66.5 44t96 41.5t108 16q159 0 232 -147l24 112h430l-135 -706q-14 -82 -14 -95q0 -30 26 -30q38 0 81 65.5t71 204.5l65 -12q-32 -188 -125 -281q-38 -38 -94.5 -59.5t-87.5 -25t-59 -3.5q-86 0 -145 22.5t-88 54 t-56 83.5q-2 -3 -18 -26t-35 -41.5t-50 -40.5t-79.5 -35t-108.5 -13q-68 0 -124 18.5t-91.5 47t-61.5 68t-39 74.5t-21 74t-9.5 60t-1.5 39zM332 1374v49h366l189 -364l-47 -35zM467 162q0 -20 1 -31t5 -27t15.5 -24t29.5 -8q51 0 104.5 76.5t89 202t36.5 255.5 q0 219 -82 219q-48 0 -78 -73q-44 -104 -82.5 -281.5t-38.5 -308.5z" />
<glyph unicode="&#xe1;" d="M45 348q0 122 55 244.5t146 210.5q18 17 42.5 35.5t66.5 44t96 41.5t108 16q159 0 232 -147l24 112h430l-135 -706q-14 -82 -14 -95q0 -30 26 -30q38 0 81 65.5t71 204.5l65 -12q-32 -188 -125 -281q-38 -38 -94.5 -59.5t-87.5 -25t-59 -3.5q-86 0 -145 22.5t-88 54 t-56 83.5q-2 -3 -18 -26t-35 -41.5t-50 -40.5t-79.5 -35t-108.5 -13q-68 0 -124 18.5t-91.5 47t-61.5 68t-39 74.5t-21 74t-9.5 60t-1.5 39zM467 162q0 -20 1 -31t5 -27t15.5 -24t29.5 -8q51 0 104.5 76.5t89 202t36.5 255.5q0 219 -82 219q-48 0 -78 -73 q-44 -104 -82.5 -281.5t-38.5 -308.5zM567 1059l295 364h377v-49l-625 -350z" />
<glyph unicode="&#xe2;" d="M45 348q0 122 55 244.5t146 210.5q18 17 42.5 35.5t66.5 44t96 41.5t108 16q159 0 232 -147l24 112h430l-135 -706q-14 -82 -14 -95q0 -30 26 -30q38 0 81 65.5t71 204.5l65 -12q-32 -188 -125 -281q-38 -38 -94.5 -59.5t-87.5 -25t-59 -3.5q-86 0 -145 22.5t-88 54 t-56 83.5q-2 -3 -18 -26t-35 -41.5t-50 -40.5t-79.5 -35t-108.5 -13q-68 0 -124 18.5t-91.5 47t-61.5 68t-39 74.5t-21 74t-9.5 60t-1.5 39zM350 1092l377 342h219l180 -344l-39 -33l-305 143l-393 -147zM467 162q0 -20 1 -31t5 -27t15.5 -24t29.5 -8q51 0 104.5 76.5 t89 202t36.5 255.5q0 219 -82 219q-48 0 -78 -73q-44 -104 -82.5 -281.5t-38.5 -308.5z" />
<glyph unicode="&#xe3;" d="M45 348q0 122 55 244.5t146 210.5q18 17 42.5 35.5t66.5 44t96 41.5t108 16q159 0 232 -147l24 112h430l-135 -706q-14 -82 -14 -95q0 -30 26 -30q38 0 81 65.5t71 204.5l65 -12q-32 -188 -125 -281q-38 -38 -94.5 -59.5t-87.5 -25t-59 -3.5q-86 0 -145 22.5t-88 54 t-56 83.5q-2 -3 -18 -26t-35 -41.5t-50 -40.5t-79.5 -35t-108.5 -13q-68 0 -124 18.5t-91.5 47t-61.5 68t-39 74.5t-21 74t-9.5 60t-1.5 39zM360 1104q75 164 142 232.5t153 68.5q63 0 142 -43l71 -39q51 -28 66.5 -34.5t38.5 -6.5q36 0 60 20t77 95l66 -33 q-75 -158 -142.5 -228.5t-144.5 -70.5q-34 0 -59.5 9t-81.5 40l-84 47q-64 37 -105 37q-31 0 -56 -21.5t-57 -76.5l-14 -25zM467 162q0 -20 1 -31t5 -27t15.5 -24t29.5 -8q51 0 104.5 76.5t89 202t36.5 255.5q0 219 -82 219q-48 0 -78 -73q-44 -104 -82.5 -281.5 t-38.5 -308.5z" />
<glyph unicode="&#xe4;" d="M45 348q0 122 55 244.5t146 210.5q18 17 42.5 35.5t66.5 44t96 41.5t108 16q159 0 232 -147l24 112h430l-135 -706q-14 -82 -14 -95q0 -30 26 -30q38 0 81 65.5t71 204.5l65 -12q-32 -188 -125 -281q-38 -38 -94.5 -59.5t-87.5 -25t-59 -3.5q-86 0 -145 22.5t-88 54 t-56 83.5q-2 -3 -18 -26t-35 -41.5t-50 -40.5t-79.5 -35t-108.5 -13q-68 0 -124 18.5t-91.5 47t-61.5 68t-39 74.5t-21 74t-9.5 60t-1.5 39zM358 1219q0 74 54.5 127t128.5 53q73 0 126.5 -53.5t53.5 -126.5q0 -74 -53 -128.5t-127 -54.5q-75 0 -129 54t-54 129zM467 162 q0 -20 1 -31t5 -27t15.5 -24t29.5 -8q51 0 104.5 76.5t89 202t36.5 255.5q0 219 -82 219q-48 0 -78 -73q-44 -104 -82.5 -281.5t-38.5 -308.5zM829 1219q0 74 53 127t128 53t128.5 -52.5t53.5 -127.5t-53.5 -129t-128.5 -54q-74 0 -127.5 54.5t-53.5 128.5z" />
<glyph unicode="&#xe5;" d="M45 348q0 122 55 244.5t146 210.5q18 17 42.5 35.5t66.5 44t96 41.5t108 16q159 0 232 -147l24 112h430l-135 -706q-14 -82 -14 -95q0 -30 26 -30q38 0 81 65.5t71 204.5l65 -12q-32 -188 -125 -281q-38 -38 -94.5 -59.5t-87.5 -25t-59 -3.5q-86 0 -145 22.5t-88 54 t-56 83.5q-2 -3 -18 -26t-35 -41.5t-50 -40.5t-79.5 -35t-108.5 -13q-68 0 -124 18.5t-91.5 47t-61.5 68t-39 74.5t-21 74t-9.5 60t-1.5 39zM467 162q0 -20 1 -31t5 -27t15.5 -24t29.5 -8q51 0 104.5 76.5t89 202t36.5 255.5q0 219 -82 219q-48 0 -78 -73 q-44 -104 -82.5 -281.5t-38.5 -308.5zM596 1249q0 83 58 141t141 58q82 0 140 -57.5t58 -139.5q0 -83 -57.5 -141.5t-140.5 -58.5q-82 0 -140.5 58t-58.5 140zM680 1249q0 -51 33.5 -86t81.5 -35q46 0 80 35t34 84q0 52 -33.5 88.5t-80.5 36.5t-81 -36t-34 -87z" />
<glyph unicode="&#xe6;" horiz-adv-x="1705" d="M51 336q0 105 40 213t107.5 194.5t166 141.5t206.5 55q53 0 95 -14t68.5 -39.5t39 -42.5t25.5 -41l18 102h402l-9 -41q26 22 47.5 35.5t66 27t97.5 13.5q117 0 196 -77.5t79 -188.5q0 -23 -1.5 -41t-11.5 -49t-27 -55t-52 -52t-83 -46t-123 -30t-169 -12q-42 0 -96 4 q-25 -179 -25 -223q0 -127 135 -127q57 0 115 23.5t107.5 64t89.5 84.5t73 94l49 -39q-35 -53 -63.5 -89t-76.5 -80.5t-99.5 -71.5t-126.5 -45.5t-164 -18.5q-29 0 -56.5 1.5t-86.5 11t-107.5 26t-103.5 52.5t-91 85q-86 -106 -158.5 -142t-144.5 -36q-116 0 -200 57 q-57 40 -102.5 122t-45.5 194zM465 145q0 -77 51 -77q42 0 85 49.5t69 105.5q34 72 57.5 183.5t26.5 209.5q0 211 -80 211q-9 0 -17 -2.5t-20.5 -11t-26.5 -30t-28 -54.5q-36 -87 -76.5 -302.5t-40.5 -281.5zM1147 453q26 2 43.5 5t41 12t43.5 28t36 47q21 36 37 99.5 t16 107.5q0 98 -59 98q-46 0 -78 -66q-11 -24 -18.5 -44t-24.5 -94.5t-37 -192.5z" />
<glyph unicode="&#xe7;" horiz-adv-x="1024" d="M47 362q0 156 94.5 299t241.5 216q45 24 122.5 43.5t172.5 19.5q200 0 293 -96q65 -67 65 -162q0 -93 -56 -152t-149 -59q-79 0 -137.5 48t-58.5 126q0 53 18 91.5t36 61.5t18 40q0 36 -37 36q-33 0 -58 -32q-38 -49 -91.5 -294.5t-53.5 -354.5q0 -150 129 -150 q51 0 99.5 17t85.5 41t75 62.5t62.5 70.5t54.5 75l53 -30q-41 -75 -106 -144q-147 -159 -377 -170l-43 -90q196 -6 196 -135q0 -85 -70.5 -135.5t-197.5 -50.5q-69 0 -116.5 36.5t-47.5 100.5q0 29 19 55.5t51 26.5q25 0 39 -12.5t14 -34.5q0 -21 -10 -50.5t-10 -40.5 q0 -30 28 -30q30 0 52 30.5t30 66t8 67.5q0 39 -12.5 53.5t-48.5 15.5l59 125q-65 2 -123 14t-117 41t-101 72.5t-68.5 113t-26.5 158.5z" />
<glyph unicode="&#xe8;" horiz-adv-x="1067" d="M51 358q0 36 6.5 77.5t23.5 98t55 119t93 115.5q177 172 447 172q190 0 280.5 -72t90.5 -200q0 -62 -22 -109t-73.5 -86.5t-147.5 -60.5t-233 -21q-28 0 -86 4q-18 -158 -18 -209q0 -24 1 -38.5t8 -37.5t19.5 -36t38.5 -23t62 -10q63 0 123 24.5t109 66.5t87 86t70 95 l47 -37q-22 -39 -67.5 -97.5t-106.5 -106.5q-139 -109 -340 -109q-87 0 -159 16.5t-119.5 43t-83.5 63t-55 72t-31 76t-15.5 69t-3.5 55.5zM295 1374v49h367l188 -364l-47 -35zM498 457q67 8 98 24q68 38 95.5 127t27.5 187q0 84 -53 84q-20 0 -37 -11.5t-32 -39.5 t-26.5 -59t-24.5 -85.5t-23 -102t-25 -124.5z" />
<glyph unicode="&#xe9;" horiz-adv-x="1067" d="M51 358q0 36 6.5 77.5t23.5 98t55 119t93 115.5q177 172 447 172q190 0 280.5 -72t90.5 -200q0 -62 -22 -109t-73.5 -86.5t-147.5 -60.5t-233 -21q-28 0 -86 4q-18 -158 -18 -209q0 -24 1 -38.5t8 -37.5t19.5 -36t38.5 -23t62 -10q63 0 123 24.5t109 66.5t87 86t70 95 l47 -37q-22 -39 -67.5 -97.5t-106.5 -106.5q-139 -109 -340 -109q-87 0 -159 16.5t-119.5 43t-83.5 63t-55 72t-31 76t-15.5 69t-3.5 55.5zM498 457q67 8 98 24q68 38 95.5 127t27.5 187q0 84 -53 84q-20 0 -37 -11.5t-32 -39.5t-26.5 -59t-24.5 -85.5t-23 -102t-25 -124.5z M528 1059l295 364h377v-49l-625 -350z" />
<glyph unicode="&#xea;" horiz-adv-x="1067" d="M51 358q0 36 6.5 77.5t23.5 98t55 119t93 115.5q177 172 447 172q190 0 280.5 -72t90.5 -200q0 -62 -22 -109t-73.5 -86.5t-147.5 -60.5t-233 -21q-28 0 -86 4q-18 -158 -18 -209q0 -24 1 -38.5t8 -37.5t19.5 -36t38.5 -23t62 -10q63 0 123 24.5t109 66.5t87 86t70 95 l47 -37q-22 -39 -67.5 -97.5t-106.5 -106.5q-139 -109 -340 -109q-87 0 -159 16.5t-119.5 43t-83.5 63t-55 72t-31 76t-15.5 69t-3.5 55.5zM270 1092l377 342h219l181 -344l-39 -33l-306 143l-393 -147zM498 457q67 8 98 24q68 38 95.5 127t27.5 187q0 84 -53 84 q-20 0 -37 -11.5t-32 -39.5t-26.5 -59t-24.5 -85.5t-23 -102t-25 -124.5z" />
<glyph unicode="&#xeb;" horiz-adv-x="1067" d="M51 358q0 36 6.5 77.5t23.5 98t55 119t93 115.5q177 172 447 172q190 0 280.5 -72t90.5 -200q0 -62 -22 -109t-73.5 -86.5t-147.5 -60.5t-233 -21q-28 0 -86 4q-18 -158 -18 -209q0 -24 1 -38.5t8 -37.5t19.5 -36t38.5 -23t62 -10q63 0 123 24.5t109 66.5t87 86t70 95 l47 -37q-22 -39 -67.5 -97.5t-106.5 -106.5q-139 -109 -340 -109q-87 0 -159 16.5t-119.5 43t-83.5 63t-55 72t-31 76t-15.5 69t-3.5 55.5zM223 1219q0 74 54.5 127t128.5 53t127 -53.5t53 -126.5q0 -74 -53 -128.5t-127 -54.5q-75 0 -129 54t-54 129zM498 457q67 8 98 24 q68 38 95.5 127t27.5 187q0 84 -53 84q-20 0 -37 -11.5t-32 -39.5t-26.5 -59t-24.5 -85.5t-23 -102t-25 -124.5zM694 1219q0 74 52.5 127t127.5 53t129 -52.5t54 -127.5t-54 -129t-129 -54q-74 0 -127 54.5t-53 128.5z" />
<glyph unicode="&#xec;" horiz-adv-x="724" d="M41 1374v49h367l188 -364l-47 -35zM57 844l13 61q239 0 587 25l-149 -703q-3 -16 -10.5 -47t-11 -50.5t-3.5 -29.5q0 -28 27 -28q14 0 39.5 23.5t65.5 89t75 157.5l60 -25l-7 -16q-11 -30 -18.5 -49t-27.5 -58.5t-39 -66t-50.5 -60.5t-66 -54.5t-83 -35t-102.5 -14.5 q-38 0 -73.5 6.5t-71 22.5t-62 40.5t-43 63.5t-16.5 88q0 18 4.5 49.5t11.5 69.5t7 39l94 502h-150z" />
<glyph unicode="&#xed;" horiz-adv-x="724" d="M57 844l13 61q239 0 587 25l-149 -703q-3 -16 -10.5 -47t-11 -50.5t-3.5 -29.5q0 -28 27 -28q14 0 39.5 23.5t65.5 89t75 157.5l60 -25l-7 -16q-11 -30 -18.5 -49t-27.5 -58.5t-39 -66t-50.5 -60.5t-66 -54.5t-83 -35t-102.5 -14.5q-38 0 -73.5 6.5t-71 22.5t-62 40.5 t-43 63.5t-16.5 88q0 18 4.5 49.5t11.5 69.5t7 39l94 502h-150zM287 1059l295 364h376v-49l-624 -350z" />
<glyph unicode="&#xee;" horiz-adv-x="724" d="M49 1092l377 342h219l180 -344l-39 -33l-305 143l-393 -147zM57 844l13 61q239 0 587 25l-149 -703q-3 -16 -10.5 -47t-11 -50.5t-3.5 -29.5q0 -28 27 -28q14 0 39.5 23.5t65.5 89t75 157.5l60 -25l-7 -16q-11 -30 -18.5 -49t-27.5 -58.5t-39 -66t-50.5 -60.5t-66 -54.5 t-83 -35t-102.5 -14.5q-38 0 -73.5 6.5t-71 22.5t-62 40.5t-43 63.5t-16.5 88q0 18 4.5 49.5t11.5 69.5t7 39l94 502h-150z" />
<glyph unicode="&#xef;" horiz-adv-x="724" d="M55 1219q0 74 54.5 127t128.5 53t127 -53.5t53 -126.5q0 -74 -53 -128.5t-127 -54.5q-75 0 -129 54t-54 129zM57 844l13 61q239 0 587 25l-149 -703q-3 -16 -10.5 -47t-11 -50.5t-3.5 -29.5q0 -28 27 -28q14 0 39.5 23.5t65.5 89t75 157.5l60 -25l-7 -16 q-11 -30 -18.5 -49t-27.5 -58.5t-39 -66t-50.5 -60.5t-66 -54.5t-83 -35t-102.5 -14.5q-38 0 -73.5 6.5t-71 22.5t-62 40.5t-43 63.5t-16.5 88q0 18 4.5 49.5t11.5 69.5t7 39l94 502h-150zM526 1219q0 74 53 127t128 53t128.5 -52.5t53.5 -127.5t-53.5 -129t-128.5 -54 q-74 0 -127.5 54.5t-53.5 128.5z" />
<glyph unicode="&#xf0;" horiz-adv-x="1236" d="M53 385q0 154 77.5 283t208.5 202.5t286 73.5q110 0 172 -47q0 29 -3 59.5t-8 59t-9 47.5t-10 43t-7 27l-332 -91l-16 68l323 88q-29 63 -71.5 116t-73 78t-70.5 52l27 47q231 -61 428 -227l239 63l17 -67l-201 -56q18 -21 39.5 -53.5t56.5 -99.5t57.5 -163t22.5 -200 q0 -149 -33.5 -270.5t-92.5 -205t-141 -140.5t-176.5 -83t-201.5 -26q-111 0 -199.5 26t-145 67.5t-94.5 98t-53.5 113.5t-15.5 117zM461 135q0 -12 2.5 -25t10.5 -34t29 -34t52 -13q53 0 94 65q36 58 81.5 323.5t45.5 344.5q0 110 -84 110q-46 0 -76 -34 q-49 -51 -102 -332.5t-53 -370.5z" />
<glyph unicode="&#xf1;" d="M47 0l166 844h-150l13 61h76q248 0 510 25l-39 -203q109 122 195.5 167.5t180.5 45.5q54 0 96 -14.5t65.5 -35.5t38 -50t19.5 -54t5 -51q0 -23 -5 -55.5t-10 -54.5t-14.5 -61.5t-11.5 -49.5q-92 -381 -92 -405q0 -14 8.5 -23.5t21.5 -9.5q29 0 68.5 51.5t67.5 107.5 t47 105l59 -23q-34 -84 -65.5 -141t-78 -109t-109.5 -78t-144 -26q-143 0 -208 59.5t-65 147.5q0 32 12.5 103t42 213.5t41.5 203.5q1 4 4 17.5t5 25.5t2 17q0 30 -27 30t-84.5 -79.5t-107.5 -204.5l-97 -496h-436zM371 1104q75 164 142 232.5t153 68.5q62 0 141 -43l72 -39 q51 -29 66 -35t38 -6q36 0 60 20t77 95l66 -33q-75 -158 -142.5 -228.5t-144.5 -70.5q-34 0 -59.5 9t-81.5 40l-84 47q-64 37 -105 37q-31 0 -55.5 -21.5t-56.5 -76.5l-15 -25z" />
<glyph unicode="&#xf2;" horiz-adv-x="1236" d="M53 387q0 75 23 151t73 149t121.5 129t178.5 90t233 34q78 0 149 -13.5t137.5 -45.5t115 -79t77.5 -119t29 -161q0 -104 -47 -215q-49 -116 -143 -195t-206.5 -114t-240.5 -35q-104 0 -193.5 26.5t-158.5 78t-108.5 133.5t-39.5 186zM313 1374v49h367l188 -364l-47 -35z M461 141q0 -112 96 -112q81 0 111 110q43 141 75.5 351.5t32.5 271.5q0 117 -88 117q-28 0 -49.5 -14t-36 -41.5t-23.5 -52t-18 -60.5q-36 -130 -68 -318.5t-32 -251.5z" />
<glyph unicode="&#xf3;" horiz-adv-x="1236" d="M53 387q0 75 23 151t73 149t121.5 129t178.5 90t233 34q78 0 149 -13.5t137.5 -45.5t115 -79t77.5 -119t29 -161q0 -104 -47 -215q-49 -116 -143 -195t-206.5 -114t-240.5 -35q-104 0 -193.5 26.5t-158.5 78t-108.5 133.5t-39.5 186zM461 141q0 -112 96 -112 q81 0 111 110q43 141 75.5 351.5t32.5 271.5q0 117 -88 117q-28 0 -49.5 -14t-36 -41.5t-23.5 -52t-18 -60.5q-36 -130 -68 -318.5t-32 -251.5zM541 1059l295 364h376v-49l-624 -350z" />
<glyph unicode="&#xf4;" horiz-adv-x="1236" d="M53 387q0 75 23 151t73 149t121.5 129t178.5 90t233 34q78 0 149 -13.5t137.5 -45.5t115 -79t77.5 -119t29 -161q0 -104 -47 -215q-49 -116 -143 -195t-206.5 -114t-240.5 -35q-104 0 -193.5 26.5t-158.5 78t-108.5 133.5t-39.5 186zM319 1092l377 342h219l181 -344 l-39 -33l-305 143l-394 -147zM461 141q0 -112 96 -112q81 0 111 110q43 141 75.5 351.5t32.5 271.5q0 117 -88 117q-28 0 -49.5 -14t-36 -41.5t-23.5 -52t-18 -60.5q-36 -130 -68 -318.5t-32 -251.5z" />
<glyph unicode="&#xf5;" horiz-adv-x="1236" d="M53 387q0 75 23 151t73 149t121.5 129t178.5 90t233 34q78 0 149 -13.5t137.5 -45.5t115 -79t77.5 -119t29 -161q0 -104 -47 -215q-49 -116 -143 -195t-206.5 -114t-240.5 -35q-104 0 -193.5 26.5t-158.5 78t-108.5 133.5t-39.5 186zM334 1104q75 164 142 232.5t153 68.5 q62 0 141 -43l72 -39q51 -29 66 -35t38 -6q36 0 60 20t77 95l66 -33q-75 -158 -142.5 -228.5t-144.5 -70.5q-34 0 -59.5 9t-81.5 40l-84 47q-64 37 -105 37q-31 0 -55.5 -21.5t-56.5 -76.5l-14 -25zM461 141q0 -112 96 -112q81 0 111 110q43 141 75.5 351.5t32.5 271.5 q0 117 -88 117q-28 0 -49.5 -14t-36 -41.5t-23.5 -52t-18 -60.5q-36 -130 -68 -318.5t-32 -251.5z" />
<glyph unicode="&#xf6;" horiz-adv-x="1236" d="M53 387q0 75 23 151t73 149t121.5 129t178.5 90t233 34q78 0 149 -13.5t137.5 -45.5t115 -79t77.5 -119t29 -161q0 -104 -47 -215q-49 -116 -143 -195t-206.5 -114t-240.5 -35q-104 0 -193.5 26.5t-158.5 78t-108.5 133.5t-39.5 186zM317 1219q0 74 54.5 127t128.5 53 t127 -53.5t53 -126.5q0 -74 -53 -128.5t-127 -54.5q-75 0 -129 54t-54 129zM461 141q0 -112 96 -112q81 0 111 110q43 141 75.5 351.5t32.5 271.5q0 117 -88 117q-28 0 -49.5 -14t-36 -41.5t-23.5 -52t-18 -60.5q-36 -130 -68 -318.5t-32 -251.5zM788 1219q0 74 53 127 t128 53t128.5 -52.5t53.5 -127.5t-53.5 -129t-128.5 -54q-74 0 -127.5 54.5t-53.5 128.5z" />
<glyph unicode="&#xf7;" horiz-adv-x="1482" d="M139 518l60 303h1155l-58 -303h-1157zM471 246q0 80 56 136t135 56q78 0 135 -53.5t57 -128.5q0 -90 -53.5 -146.5t-134.5 -56.5q-82 0 -138.5 55.5t-56.5 137.5zM637 1096q0 81 55 136.5t135 55.5q78 0 135.5 -53.5t57.5 -126.5q0 -90 -54 -146.5t-135 -56.5 q-83 0 -138.5 55.5t-55.5 135.5z" />
<glyph unicode="&#xf8;" horiz-adv-x="1236" d="M51 379q0 135 64 254t176 196q53 36 115.5 60.5t120 34.5t93 13t66.5 3q61 0 140 -11t128 -36l148 160l74 -66l-134 -145q27 -26 45 -46.5t46 -63t43.5 -98.5t15.5 -120q0 -91 -36 -181.5t-99 -162.5q-183 -207 -508 -207q-160 0 -268 53l-146 -155l-72 67l130 142 q-50 44 -82 94q-60 93 -60 215zM459 150q0 -17 0.5 -28t5.5 -31.5t13.5 -32.5t26.5 -21.5t44 -9.5q74 0 110 100q19 50 31.5 105.5t47.5 239.5q7 34 10 52l-285 -311q-4 -4 -4 -63zM496 389l274 305q4 23 4 56q0 120 -84 120q-56 0 -86.5 -51t-56.5 -162 q-11 -49 -31.5 -156.5t-19.5 -111.5z" />
<glyph unicode="&#xf9;" d="M57 844l15 61q179 0 583 29l-133 -698q-14 -70 -14 -86q0 -25 29 -25q20 0 46 20t55.5 60t57.5 114.5t45 169.5l76 416h434l-127 -661q-16 -88 -16 -101q0 -11 7.5 -18.5t17.5 -7.5q31 0 62.5 34.5t53 81.5t34 80.5t15.5 46.5l66 -14q-121 -383 -412 -383 q-220 0 -262 203q-112 -122 -204.5 -162.5t-182.5 -40.5q-34 0 -68.5 8.5t-70.5 28.5t-59 61t-23 97q0 29 14 112l109 574h-148zM326 1374v49h366l189 -364l-47 -35z" />
<glyph unicode="&#xfa;" d="M57 844l15 61q179 0 583 29l-133 -698q-14 -70 -14 -86q0 -25 29 -25q20 0 46 20t55.5 60t57.5 114.5t45 169.5l76 416h434l-127 -661q-16 -88 -16 -101q0 -11 7.5 -18.5t17.5 -7.5q31 0 62.5 34.5t53 81.5t34 80.5t15.5 46.5l66 -14q-121 -383 -412 -383 q-220 0 -262 203q-112 -122 -204.5 -162.5t-182.5 -40.5q-34 0 -68.5 8.5t-70.5 28.5t-59 61t-23 97q0 29 14 112l109 574h-148zM582 1059l295 364h376v-49l-624 -350z" />
<glyph unicode="&#xfb;" d="M57 844l15 61q179 0 583 29l-133 -698q-14 -70 -14 -86q0 -25 29 -25q20 0 46 20t55.5 60t57.5 114.5t45 169.5l76 416h434l-127 -661q-16 -88 -16 -101q0 -11 7.5 -18.5t17.5 -7.5q31 0 62.5 34.5t53 81.5t34 80.5t15.5 46.5l66 -14q-121 -383 -412 -383 q-220 0 -262 203q-112 -122 -204.5 -162.5t-182.5 -40.5q-34 0 -68.5 8.5t-70.5 28.5t-59 61t-23 97q0 29 14 112l109 574h-148zM326 1092l376 342h220l180 -344l-39 -33l-305 143l-393 -147z" />
<glyph unicode="&#xfc;" d="M57 844l15 61q179 0 583 29l-133 -698q-14 -70 -14 -86q0 -25 29 -25q20 0 46 20t55.5 60t57.5 114.5t45 169.5l76 416h434l-127 -661q-16 -88 -16 -101q0 -11 7.5 -18.5t17.5 -7.5q31 0 62.5 34.5t53 81.5t34 80.5t15.5 46.5l66 -14q-121 -383 -412 -383 q-220 0 -262 203q-112 -122 -204.5 -162.5t-182.5 -40.5q-34 0 -68.5 8.5t-70.5 28.5t-59 61t-23 97q0 29 14 112l109 574h-148zM344 1219q0 74 54 127t128 53t127.5 -53.5t53.5 -126.5q0 -74 -53.5 -128.5t-127.5 -54.5q-75 0 -128.5 54t-53.5 129zM815 1219q0 74 52.5 127 t127.5 53t129 -52.5t54 -127.5t-54 -129t-129 -54q-74 0 -127 54.5t-53 128.5z" />
<glyph unicode="&#xfd;" horiz-adv-x="1150" d="M-39 -418q0 14 5 34t18.5 50.5t47 51t81.5 20.5q43 0 69 -15.5t35 -37.5t13.5 -44t13 -37.5t26.5 -15.5q37 0 110.5 100t129.5 203l-246 775q-7 25 -12 39t-17 29.5t-26 15.5q-26 0 -58 -66t-61 -182l-61 18q21 75 40.5 128t53.5 112t74.5 95.5t102 60.5t138.5 24 q113 0 167.5 -49.5t86.5 -153.5l82 -258l115 285q14 36 26 59.5t34 54t51.5 46.5t66.5 16q66 0 105.5 -38.5t39.5 -104.5q0 -17 -4 -38.5t-16.5 -53.5t-43 -53t-75.5 -21q-31 0 -54 11t-33.5 24.5t-21 24.5t-20.5 11q-16 0 -49 -79l-92 -230q-242 -594 -418 -801 q-138 -161 -266 -161q-38 0 -67.5 11t-46 27.5t-27 38t-14 39.5t-3.5 35zM598 1059l295 364h377v-49l-625 -350z" />
<glyph unicode="&#xfe;" horiz-adv-x="1280" d="M-227 -561l12 63h152l364 1884h-145l10 68q37 0 99.5 -2t86.5 -2q55 0 103 1.5t97 5.5t69 6t71.5 8t52.5 6l-135 -699q23 31 46.5 55t59 50.5t82 41.5t99.5 15q43 0 86.5 -11t90 -38.5t82 -69.5t58.5 -109.5t23 -152.5q0 -69 -17.5 -141t-53 -145.5t-99 -140.5 t-147.5 -114q-100 -55 -189 -55q-94 0 -150.5 35t-99.5 96l-112 -592h147l-10 -63h-733zM516 240q0 -65 22.5 -115.5t73.5 -50.5q43 0 87 99t72.5 227.5t46.5 238t18 143.5q0 60 -43 60q-38 0 -82.5 -49t-65.5 -86q-65 -106 -97 -249.5t-32 -217.5z" />
<glyph unicode="&#xff;" horiz-adv-x="1150" d="M-39 -418q0 14 5 34t18.5 50.5t47 51t81.5 20.5q43 0 69 -15.5t35 -37.5t13.5 -44t13 -37.5t26.5 -15.5q37 0 110.5 100t129.5 203l-246 775q-7 25 -12 39t-17 29.5t-26 15.5q-26 0 -58 -66t-61 -182l-61 18q21 75 40.5 128t53.5 112t74.5 95.5t102 60.5t138.5 24 q113 0 167.5 -49.5t86.5 -153.5l82 -258l115 285q14 36 26 59.5t34 54t51.5 46.5t66.5 16q66 0 105.5 -38.5t39.5 -104.5q0 -17 -4 -38.5t-16.5 -53.5t-43 -53t-75.5 -21q-31 0 -54 11t-33.5 24.5t-21 24.5t-20.5 11q-16 0 -49 -79l-92 -230q-242 -594 -418 -801 q-138 -161 -266 -161q-38 0 -67.5 11t-46 27.5t-27 38t-14 39.5t-3.5 35zM299 1219q0 74 54 127t128 53t127.5 -53.5t53.5 -126.5q0 -74 -53.5 -128.5t-127.5 -54.5q-75 0 -128.5 54t-53.5 129zM770 1219q0 74 52.5 127t127.5 53t129 -52.5t54 -127.5t-54 -129t-129 -54 q-74 0 -127 54.5t-53 128.5z" />
<glyph unicode="&#x152;" horiz-adv-x="2217" d="M96 594q0 270 170 510q69 94 155.5 165.5t164 109.5t162 61.5t140.5 30t109 6.5q119 0 242 -31h1020l-55 -426h-64q-12 114 -24 151q-34 116 -119 170q-70 45 -203 45h-127l-108 -598q28 1 54 4.5t68 19t75 40.5t65 74.5t49 115.5h63l-116 -624h-68q2 18 2 53 q0 67 -11 114.5t-28 74.5t-45 42.5t-56 20t-67 4.5l-121 -666h76q76 0 138.5 10t110.5 25.5t90 45.5t71.5 58.5t61 76t53.5 86.5t53 102h63l-86 -465h-1014q-134 -31 -268 -31q-297 0 -479 158q-197 172 -197 467zM575 209q0 -180 158 -180q58 0 98 24.5t60 52.5 q64 81 108 312l131 678q23 126 23 170q0 73 -40.5 112t-115.5 39q-120 0 -186 -112q-48 -79 -106 -340q-32 -139 -81 -407.5t-49 -348.5z" />
<glyph unicode="&#x153;" horiz-adv-x="1748" d="M57 393q0 108 45 207q44 95 113 164t150 106t161 53.5t166 16.5q92 0 180.5 -27t135.5 -57q48 25 82.5 39t105 28.5t152.5 14.5q74 0 133 -12t96.5 -30t65.5 -45t41.5 -50t21 -51t9 -43.5t1.5 -32.5q0 -20 -0.5 -33.5t-5 -38t-12.5 -42.5t-24 -42t-38.5 -41t-57.5 -35 t-79.5 -29t-106 -18.5t-135.5 -7.5h-102q-25 -159 -25 -215q0 -131 136 -131q106 0 210 81t171 189l55 -35l-11 -16.5t-18 -26t-21.5 -29t-27 -34t-29.5 -33.5q-91 -95 -191.5 -133.5t-238.5 -38.5q-110 0 -179 15t-132 43q-59 -25 -145 -42.5t-162 -17.5q-222 0 -356 118 t-134 312zM467 143q0 -23 5 -45t26.5 -44.5t58.5 -22.5q31 0 54.5 16.5t39 49t23 57.5t16.5 65q33 137 60.5 310t27.5 233q0 110 -82 110q-68 0 -112 -110q-38 -100 -77.5 -323t-39.5 -296zM1167 451q103 0 156 71q28 38 50 109t22 137q0 100 -62 100q-13 0 -23.5 -4 t-27.5 -24.5t-31 -57.5q-51 -127 -84 -331z" />
<glyph unicode="&#x178;" horiz-adv-x="1409" d="M109 1386l12 60h794l-14 -60h-147l209 -608l307 469q35 55 35 88q0 51 -70 51h-92l12 60h436l-10 -60h-37q-37 0 -72 -17.5t-66 -52t-46 -55.5t-39 -57l-344 -522l-119 -623h150l-11 -59h-784l12 59h152l119 623l-238 704h-149zM580 1708q0 62 43 104.5t104 42.5 t104 -42.5t43 -104.5q0 -60 -43 -103.5t-104 -43.5t-104 43.5t-43 103.5zM1059 1708q0 60 43 102.5t104 42.5q60 0 103 -42.5t43 -102.5q0 -62 -43.5 -104.5t-102.5 -42.5q-60 0 -103.5 43t-43.5 104z" />
<glyph unicode="&#x2c6;" horiz-adv-x="555" d="M-111 1092l377 342h219l181 -344l-39 -33l-305 143l-394 -147z" />
<glyph unicode="&#x2dc;" horiz-adv-x="555" d="M-129 1104q75 164 142 232.5t153 68.5q62 0 141 -43l72 -39q51 -29 66 -35t38 -6q36 0 60.5 20.5t77.5 94.5l65 -33q-75 -158 -142.5 -228.5t-144.5 -70.5q-34 0 -59.5 9t-81.5 40l-84 47q-64 37 -104 37q-31 0 -56 -21.5t-57 -76.5l-14 -25z" />
<glyph unicode="&#x2000;" horiz-adv-x="948" />
<glyph unicode="&#x2001;" horiz-adv-x="1896" />
<glyph unicode="&#x2002;" horiz-adv-x="948" />
<glyph unicode="&#x2003;" horiz-adv-x="1896" />
<glyph unicode="&#x2004;" horiz-adv-x="632" />
<glyph unicode="&#x2005;" horiz-adv-x="474" />
<glyph unicode="&#x2006;" horiz-adv-x="316" />
<glyph unicode="&#x2007;" horiz-adv-x="316" />
<glyph unicode="&#x2008;" horiz-adv-x="237" />
<glyph unicode="&#x2009;" horiz-adv-x="379" />
<glyph unicode="&#x200a;" horiz-adv-x="105" />
<glyph unicode="&#x2010;" horiz-adv-x="796" d="M51 432l53 275h619l-49 -275h-623z" />
<glyph unicode="&#x2011;" horiz-adv-x="796" d="M51 432l53 275h619l-49 -275h-623z" />
<glyph unicode="&#x2012;" horiz-adv-x="796" d="M51 432l53 275h619l-49 -275h-623z" />
<glyph unicode="&#x2013;" horiz-adv-x="1271" d="M51 432l53 275h1094l-49 -275h-1098z" />
<glyph unicode="&#x2014;" horiz-adv-x="1867" d="M51 432l53 275h1690l-49 -275h-1694z" />
<glyph unicode="&#x2018;" horiz-adv-x="598" d="M131 915q0 48 12.5 103t46.5 124t86 128.5t140 113t200 80.5l-14 -80q-134 -44 -237 -144.5t-103 -176.5q0 -27 23 -27q7 0 50 20.5t87 20.5q70 0 120 -53t50 -135q0 -40 -13.5 -80.5t-40.5 -78.5t-75.5 -61.5t-110.5 -23.5q-59 0 -104 25t-69.5 66t-36 86t-11.5 93z" />
<glyph unicode="&#x2019;" horiz-adv-x="598" d="M147 645l15 80q134 44 237 145t103 177q0 26 -23 26q-7 0 -50 -20.5t-87 -20.5q-70 0 -120 53t-50 136q0 40 13.5 80.5t40.5 78t75.5 61t110.5 23.5q59 0 104 -25t69.5 -66t36 -86t11.5 -93t-12.5 -103t-46.5 -124t-86 -128.5t-140.5 -113t-200.5 -80.5z" />
<glyph unicode="&#x201a;" horiz-adv-x="598" d="M45 -401l12 82q59 12 121.5 51.5t108 88t75 97.5t29.5 80q0 13 -7 20t-15 7q-9 0 -24 -10.5t-41.5 -21.5t-63.5 -11q-47 0 -82 17.5t-53 40.5t-28.5 53t-13 48.5t-2.5 32.5q0 111 69.5 178.5t150.5 67.5q112 0 176.5 -78t64.5 -203q0 -103 -42.5 -199t-111 -165 t-153 -115.5t-170.5 -60.5z" />
<glyph unicode="&#x201c;" horiz-adv-x="1150" d="M137 915q0 48 12.5 103t46.5 124t86 128.5t140.5 113t200.5 80.5l-15 -80q-134 -44 -237 -144.5t-103 -176.5q0 -27 23 -27q7 0 50 20.5t87 20.5q70 0 120 -53t50 -135q0 -40 -13.5 -80.5t-40.5 -78.5t-75.5 -61.5t-110.5 -23.5q-59 0 -104 25t-69.5 66t-36 86t-11.5 93z M680 924q0 198 147 348q151 151 338 186l-12 -82q-72 -21 -132.5 -59.5t-97 -78t-62.5 -79.5t-36 -66t-10 -36q0 -21 21 -21q12 0 54.5 20.5t82.5 20.5q75 0 123.5 -56.5t48.5 -139.5q0 -98 -67.5 -168t-170.5 -70q-109 0 -168 83t-59 198z" />
<glyph unicode="&#x201d;" horiz-adv-x="1150" d="M158 649l12 82q72 21 132.5 59.5t97 78t62.5 80t36 66.5t10 36q0 20 -21 20q-12 0 -54.5 -20.5t-82.5 -20.5q-75 0 -123.5 57t-48.5 140q0 98 67.5 167.5t170.5 69.5q109 0 168 -82.5t59 -197.5q0 -198 -147 -348q-153 -153 -338 -187zM700 643l15 80q134 44 237 144.5 t103 176.5q0 27 -23 27q-7 0 -50 -20.5t-87 -20.5q-70 0 -120 53t-50 136q0 40 13.5 80.5t40.5 78t75.5 61t110.5 23.5q59 0 104 -25t69.5 -66t36 -86t11.5 -93t-12.5 -103t-46.5 -124t-86 -128.5t-140.5 -113t-200.5 -80.5z" />
<glyph unicode="&#x201e;" horiz-adv-x="1150" d="M-43 -399l12 82q72 21 132.5 59.5t97 78t62.5 79.5t36 66t10 36q0 21 -20 21q-12 0 -54.5 -20.5t-82.5 -20.5q-75 0 -124 56.5t-49 139.5q0 98 67.5 168t170.5 70q109 0 168 -83t59 -198q0 -198 -147 -348q-151 -151 -338 -186zM500 -406l14 80q134 44 237 145t103 177 q0 27 -23 27q-7 0 -50 -20.5t-87 -20.5q-70 0 -120 53t-50 135q0 40 13.5 80.5t40.5 78.5t75.5 61.5t110.5 23.5q59 0 104 -25t69.5 -66.5t36 -86.5t11.5 -93t-12.5 -103t-46.5 -124t-86 -128.5t-140 -113t-200 -80.5z" />
<glyph unicode="&#x2022;" horiz-adv-x="681" d="M68 719q0 122 83 206.5t203 84.5t204.5 -86t84.5 -209q0 -124 -80.5 -205.5t-202.5 -81.5q-126 0 -209 83t-83 208z" />
<glyph unicode="&#x2026;" horiz-adv-x="2054" d="M113 115q0 55 38.5 94t92.5 39q56 0 94.5 -39t38.5 -94q0 -56 -36 -92.5t-93 -36.5q-58 0 -96.5 36.5t-38.5 92.5zM797 115q0 56 38 94.5t93 38.5q56 0 94.5 -39t38.5 -94t-36.5 -92t-92.5 -37q-58 0 -96.5 36.5t-38.5 92.5zM1477 115q0 55 38.5 94t92.5 39 q56 0 94.5 -39t38.5 -94q0 -56 -36 -92.5t-93 -36.5q-58 0 -96.5 36.5t-38.5 92.5z" />
<glyph unicode="&#x202f;" horiz-adv-x="379" />
<glyph unicode="&#x2039;" horiz-adv-x="681" d="M43 569l293 262h311l-305 -270l221 -264h-305z" />
<glyph unicode="&#x203a;" horiz-adv-x="681" d="M20 299l308 276l-213 259h293l206 -269l-286 -266h-308z" />
<glyph unicode="&#x205f;" horiz-adv-x="474" />
<glyph unicode="&#x20ac;" horiz-adv-x="1435" d="M98 616l11 66h157q15 86 41 162h-172l12 65h181q112 272 303 415.5t436 143.5q170 0 277.5 -74.5t107.5 -193.5q0 -78 -46 -129t-118 -51q-64 0 -105.5 39t-41.5 98q0 46 30.5 102t30.5 74q0 32 -26.5 52t-69.5 20q-193 0 -324 -496h381l-12 -65h-383q-17 -57 -37 -162 h399l-10 -66h-397q-16 -91 -16 -208q0 -169 54.5 -250.5t166.5 -81.5q202 0 313 272l66 -14q-135 -357 -525 -357q-243 0 -385.5 141.5t-142.5 381.5q0 79 4 116h-160z" />
<glyph unicode="&#x2122;" horiz-adv-x="1585" d="M145 766l9 37h106l117 606h-17q-67 0 -99.5 -31t-82.5 -147h-33l54 215h555l-31 -215h-31q-2 15 -5 39t-4.5 34t-4.5 27t-5.5 23.5t-6.5 18t-9 15t-11.5 9.5t-15 7.5t-19.5 3t-25 1.5h-19l-118 -606h106l-6 -37h-404zM688 766l8 37h99l118 606h-100l8 37h299l51 -395 l209 395h303l-8 -37h-98l-115 -606h97l-9 -37h-387l8 37h105l108 573l-317 -610h-35l-82 614l-112 -577h102l-6 -37h-246z" />
<glyph unicode="&#xe000;" horiz-adv-x="942" d="M0 0v942h942v-942h-942z" />
</font>
</defs>
</svg>
