<?xml version="1.0" standalone="no"?>
<!DOCTYPE svg PUBLIC "-//W3C//DTD SVG 1.1//EN" "http://www.w3.org/Graphics/SVG/1.1/DTD/svg11.dtd" >
<svg xmlns="http://www.w3.org/2000/svg">
<metadata></metadata>
<defs>
<font id="berthold_bodoni_pro_regularRg" horiz-adv-x="937" >
<font-face units-per-em="2048" ascent="1485" descent="-563" />
<missing-glyph horiz-adv-x="555" />
<glyph unicode="&#xfb01;" horiz-adv-x="1118" d="M16 0v43h177v758h-173v43h173v108q0 174 55 281q55 110 158.5 173.5t228.5 63.5q119 0 197.5 -54t78.5 -136q0 -51 -30.5 -83t-77.5 -32q-48 0 -77.5 30t-29.5 79q0 30 10.5 54t38.5 58q-28 26 -54 37t-62 11q-90 0 -158 -62q-46 -43 -66 -116t-20 -201v-211h553v-801 h131v-43h-453v43h129v758h-360v-758h137v-43h-506z" />
<glyph unicode="&#xfb02;" horiz-adv-x="1118" d="M16 0v43h181v758h-174v43h174v117q0 191 73 313q54 90 147.5 143t196.5 53q104 0 185 -61l145 37v-1403h156v-43h-482v43h127v1161q-67 14 -67 80q0 46 45 102q-42 48 -109 48q-82 0 -141 -56q-86 -77 -86 -299v-235h236v-43h-236v-758h137v-43h-508z" />
<glyph unicode="&#xfb03;" horiz-adv-x="1669" d="M16 0v43h181v758h-174v43h174v114q0 100 9 160.5t32 114.5q47 110 144.5 175t215.5 65q104 0 175 -44t71 -108q0 -17 -4 -31q60 85 151.5 132.5t196.5 47.5q117 0 195.5 -54t78.5 -136q0 -51 -30.5 -83t-77.5 -32t-77 31t-30 80q0 59 49 113q-50 47 -114 47 q-70 0 -131 -41t-86 -117t-25 -221v-213h551v-801h129v-43h-449v43h127v758h-358v-758h137v-43h-456v43h127v758h-359v-758h137v-43h-510zM389 844h359v119q0 182 63 282q-29 -20 -57 -20q-37 0 -61.5 26t-24.5 66q0 50 47 94q-58 27 -117 27q-89 0 -141 -52 q-38 -37 -53 -99.5t-15 -182.5v-260z" />
<glyph unicode="&#xfb04;" horiz-adv-x="1665" d="M16 0v43h181v758h-174v43h174v127q0 142 29.5 229.5t101.5 159.5q116 113 266 113q107 0 178.5 -43.5t71.5 -108.5q0 -15 -2 -23q60 82 144.5 127t178.5 45q105 0 181 -59l145 37v-1405h156v-43h-476v43h129v1163q-75 11 -75 80q0 50 45 103q-41 47 -107 47 q-55 0 -105.5 -30.5t-76.5 -80.5q-23 -43 -32 -101.5t-9 -166.5v-213h238v-43h-238v-758h137v-43h-459v43h130v758h-361v-758h137v-43h-508zM385 844h367v110q0 93 11 152t46 139q-26 -20 -53 -20q-39 0 -63.5 26t-24.5 66q0 45 43 94q-64 27 -115 27q-136 0 -182 -111 q-18 -41 -23.5 -83.5t-5.5 -143.5v-256z" />
<glyph horiz-adv-x="2048" />
<glyph horiz-adv-x="2048" />
<glyph unicode="&#xd;" horiz-adv-x="2048" />
<glyph unicode=" "  horiz-adv-x="555" />
<glyph unicode="&#x09;" horiz-adv-x="555" />
<glyph unicode="&#xa0;" horiz-adv-x="555" />
<glyph unicode="!" horiz-adv-x="555" d="M195 115q0 53 37.5 90t89.5 37t89.5 -37t37.5 -90t-37.5 -90t-89.5 -37t-89.5 37t-37.5 90zM199 1315q0 79 39 114t86 35q55 0 88.5 -39t33.5 -112q0 -61 -22 -164l-27 -129q-24 -117 -40.5 -320t-16.5 -274h-35q0 178 -12.5 303.5t-42.5 280.5l-27 139q-1 5 -9 47.5 t-11.5 69.5t-3.5 49z" />
<glyph unicode="&#x22;" horiz-adv-x="751" d="M121 1454q0 35 27 56.5t71 21.5q43 0 67.5 -20.5t24.5 -55.5q0 -7 -4 -43l-71 -487h-46l-67 487q-2 16 -2 41zM438 1454q0 35 27.5 56.5t71.5 21.5q43 0 67.5 -20.5t24.5 -55.5q0 -7 -4 -43l-72 -487h-43l-68 487q-4 32 -4 41z" />
<glyph unicode="#" horiz-adv-x="1120" d="M47 514v139h295l23 181h-275v137h295l66 475h73l-65 -475h270l64 475h73l-63 -475h270v-137h-291l-22 -181h274v-139h-295l-69 -514h-74l70 516h-269l-69 -516h-74l68 514h-275zM416 653h268l25 181h-271z" />
<glyph unicode="$" horiz-adv-x="1071" d="M86 311q0 64 30 104t77 40q51 0 78.5 -37.5t27.5 -104.5q0 -17 -2 -54t-2 -48q0 -77 55.5 -121.5t157.5 -48.5v555q-221 100 -307 191.5t-86 228.5q0 160 106.5 266.5t286.5 128.5v182h57v-180q171 -6 281 -81.5t110 -186.5q0 -52 -27 -82.5t-73 -30.5q-51 0 -81 37.5 t-30 101.5q0 16 3.5 44t3.5 40q0 48 -49 77.5t-138 33.5v-510q124 -55 196.5 -96.5t122.5 -91t68.5 -105t18.5 -135.5q0 -178 -110.5 -297t-295.5 -139v-193h-57v193q-180 7 -301 99t-121 220zM264 1145q0 -83 58 -145.5t186 -116.5v479q-116 -12 -180 -69t-64 -148zM565 41 q122 12 193 80t71 172q0 88 -61.5 152t-202.5 124v-528z" />
<glyph unicode="%" horiz-adv-x="1718" d="M63 948q0 124 43 232t115.5 171.5t155.5 63.5q122 0 214.5 -133t92.5 -334q0 -109 -29 -200.5t-74.5 -148.5t-100 -88.5t-107.5 -31.5q-85 0 -157.5 68t-112.5 175.5t-40 225.5zM227 967q0 -89 1.5 -142.5t6 -110.5t14 -88t26 -58t41 -37.5t59.5 -10.5q34 0 57.5 9.5 t39.5 35.5t25 55.5t14 87.5t6 112t1 147q0 64 -1 106.5t-4 89t-9 75.5t-16.5 57t-25.5 43.5t-36 24.5t-49 9q-27 0 -48.5 -7t-37 -23.5t-26.5 -33.5t-18 -49t-11 -57.5t-6 -70.5t-2.5 -77t-0.5 -87zM483 0l672 1397h84l-670 -1397h-86zM1034 451q0 124 43 232t115.5 171.5 t155.5 63.5q122 0 214.5 -133t92.5 -334q0 -109 -29 -200.5t-75 -148.5t-100.5 -88.5t-107.5 -31.5q-85 0 -157 68t-112 175.5t-40 225.5zM1198 469q0 -89 1.5 -142t6 -110.5t14 -88t26 -57.5t41 -37.5t59.5 -10.5q34 0 57.5 9.5t39.5 35.5t25 55.5t14 87t6 111.5t1 147 q0 64 -1 106.5t-4 89t-9 75.5t-16.5 57t-25.5 43.5t-36 24.5t-49 9q-27 0 -48.5 -7t-37 -23.5t-26.5 -33.5t-18 -49t-11 -57.5t-6 -70.5t-2.5 -77t-0.5 -87z" />
<glyph unicode="&#x26;" horiz-adv-x="1466" d="M70 377q0 150 90.5 254.5t312.5 222.5l-67 115q-43 73 -61.5 125t-18.5 104q0 122 102.5 198.5t265.5 76.5q152 0 242 -64.5t90 -173.5q0 -100 -67 -168t-244 -156l340 -549q84 123 113.5 222.5t37.5 267.5h-194v43h426v-43h-178q-6 -310 -177 -533l166 -276h183v-43 h-437l-84 141q-100 -87 -196 -128.5t-223 -41.5q-186 0 -304 113.5t-118 292.5zM270 559q0 -73 40.5 -171t103.5 -185q103 -135 229 -135q63 0 120 27t122 87l-387 635q-137 -79 -182.5 -128.5t-45.5 -129.5zM526 1298q0 -74 78 -204l90 -148q94 56 133 117t39 168 q0 100 -42 148t-130 48q-78 0 -123 -34.5t-45 -94.5z" />
<glyph unicode="'" horiz-adv-x="432" d="M121 1454q0 35 27 56.5t71 21.5q43 0 67.5 -20.5t24.5 -55.5q0 -7 -4 -43l-71 -487h-46l-67 487q-2 16 -2 41z" />
<glyph unicode="(" horiz-adv-x="589" d="M123 580q0 242 104.5 492t323.5 534l41 -29q-72 -126 -115 -229q-141 -348 -141 -768q0 -169 20 -320q17 -121 43 -216.5t74 -217.5q50 -127 119 -254l-41 -23q-101 128 -197 287q-231 385 -231 744z" />
<glyph unicode=")" horiz-adv-x="589" d="M-2 -422q67 118 115 232q143 345 143 765q0 146 -23 320q-17 125 -42 220t-72 216q-52 133 -121 252l41 23q64 -67 197 -287q231 -380 231 -744q0 -242 -104.5 -493t-323.5 -531z" />
<glyph unicode="*" horiz-adv-x="894" d="M51 885q0 42 30.5 61t96.5 35l219 57l-2 23l-196 72q-78 29 -101.5 46t-23.5 54q0 30 22.5 55t53.5 25q11 0 22.5 -4t20.5 -8.5t19 -13t15 -13t13.5 -13.5t9.5 -10l168 -157l20 10l-51 203q-16 67 -16 82q0 17 5 33t25.5 32t53.5 16q24 0 40.5 -9.5t23.5 -25.5t9 -27 t2 -22q0 -27 -12 -86l-45 -196l23 -17l166 150q40 37 60 49t48 12q7 0 16.5 -2.5t25 -9.5t26 -25.5t10.5 -46.5q0 -22 -8 -38t-26 -26.5t-31 -15.5t-38 -12l-233 -63l-2 -27l205 -67q123 -42 123 -101q0 -36 -23.5 -62t-58.5 -26q-39 0 -94 55l-170 170l-21 -10l47 -200 q2 -8 7 -25.5t7.5 -31.5t2.5 -27q0 -93 -80 -93q-82 0 -82 86q0 49 14 91l51 198l-26 12l-174 -145q-65 -55 -105 -55q-35 0 -58.5 25t-23.5 59z" />
<glyph unicode="+" horiz-adv-x="1482" d="M193 539v149h462v473h172v-473h463v-149h-463v-476h-172v476h-462z" />
<glyph unicode="," horiz-adv-x="468" d="M68 109q0 62 44 98.5t107 36.5q85 0 131.5 -60.5t46.5 -148.5q0 -74 -34.5 -148t-92.5 -133q-43 -45 -96 -82l-33 43q81 63 121 115q74 103 74 186q0 76 -53 103q2 -13 2 -21q0 -35 -25 -69.5t-80 -34.5q-50 0 -81 32.5t-31 82.5z" />
<glyph unicode="-" horiz-adv-x="724" d="M76 414v145h573v-145h-573z" />
<glyph unicode="." horiz-adv-x="468" d="M106 115q0 53 37 90t90 37t90 -37t37 -90t-37 -90t-90 -37t-90 37t-37 90z" />
<glyph unicode="/" horiz-adv-x="811" d="M41 0l606 1446h123l-604 -1446h-125z" />
<glyph unicode="0" horiz-adv-x="1067" d="M72 702q0 165 54 325.5t159 270.5q116 125 256 125q122 0 227 -98q56 -51 98.5 -120.5t66 -135.5t38 -140t18.5 -127t4 -104q0 -284 -119 -483q-28 -46 -59.5 -84.5t-74.5 -75.5t-96.5 -58.5t-111.5 -21.5q-174 0 -307 195q-59 88 -106 222t-47 310zM303 535 q0 -273 52.5 -394t181.5 -121q43 0 77 14.5t57.5 38.5t40 62t26.5 77t15.5 92t7 99t1.5 105v422q0 65 -3 116.5t-11.5 104.5t-24.5 91.5t-40 70t-60.5 47.5t-83.5 16q-236 0 -236 -452v-389z" />
<glyph unicode="1" horiz-adv-x="1067" d="M233 1337v43l443 25v-1362h215v-43h-647v43h227v1268q0 20 -6.5 26t-26.5 6q-9 0 -95.5 -3t-109.5 -3z" />
<glyph unicode="2" horiz-adv-x="1067" d="M74 0v104l317 326q46 47 66.5 69t59 64t56.5 67t45.5 64t40.5 70t28 70.5t20.5 80t5.5 84.5q0 72 -16 134.5t-47.5 114.5t-86.5 82t-127 30q-101 0 -179.5 -69t-78.5 -165q0 -24 10.5 -35.5t24.5 -11.5q8 0 32 9.5t46 9.5q42 0 73 -28.5t31 -70.5q0 -44 -32.5 -72 t-77.5 -28q-72 0 -115 62t-43 137q0 81 51 159q35 55 87 92t105.5 51t86 18.5t61.5 4.5q92 0 166 -26t118.5 -65t74.5 -88.5t41.5 -92.5t11.5 -82q0 -45 -13.5 -92.5t-42.5 -96.5t-56.5 -89t-73 -90.5t-74 -80t-76.5 -77.5l-373 -371h500q50 0 76.5 5t44 24.5t25 47.5 t14.5 85l6 47h41l-13 -381h-841z" />
<glyph unicode="3" horiz-adv-x="1067" d="M80 233q0 46 26 85.5t82 39.5q42 0 70.5 -29t28.5 -71q0 -35 -18.5 -59t-37 -38.5t-18.5 -25.5q0 -31 61 -74t152 -43q16 0 33 2t44.5 10t51.5 21.5t50 39.5t44.5 61t30.5 89t12 121q0 197 -87.5 283t-297.5 86h-63v49h80q159 0 235 78t76 252q0 25 -0.5 42.5t-4.5 47 t-11 50t-21 45t-33.5 39.5t-50 25.5t-68.5 10.5q-74 0 -119.5 -29.5t-45.5 -54.5q0 -11 16.5 -24.5t33.5 -36.5t17 -58q0 -14 -6 -33t-27.5 -39t-54.5 -20q-45 0 -73.5 34t-28.5 79q0 39 18.5 78.5t55.5 75.5t102 58.5t147 22.5q137 0 236 -69q20 -14 38.5 -31.5t42 -47.5 t38 -73t14.5 -92q0 -108 -78 -197q-112 -129 -289 -155q61 -5 118 -17t118 -39t105 -66t73 -102.5t29 -142.5q0 -73 -30.5 -145.5t-88 -133.5t-152.5 -99t-211 -38q-109 0 -202 41q-69 32 -115.5 89t-46.5 128z" />
<glyph unicode="4" horiz-adv-x="1067" d="M39 377v84l602 962h115v-989h190v164h51v-381h-51v160h-190v-334h168v-43h-570v43h195v334h-510zM84 434h465v746z" />
<glyph unicode="5" horiz-adv-x="1067" d="M98 233q0 51 30.5 93.5t82.5 42.5q30 0 62 -24t32 -73q0 -35 -14 -62t-31 -38.5t-31 -22t-14 -18.5q0 -29 75.5 -67.5t158.5 -38.5q65 0 115 27.5t78.5 69t46.5 97.5t24 105.5t6 101.5q0 84 -18.5 149.5t-48 104.5t-70 63.5t-80 33.5t-82.5 9q-110 0 -221 -63l30 590 q3 56 35 71t117 15h369q10 0 17.5 1t12.5 2t10 4.5t8 5t7 8t5.5 9t6 12t6.5 13.5h35q-2 -14 -5 -43.5t-5 -41.5t-6.5 -35t-9.5 -32.5t-14 -25t-21 -22t-29 -14.5t-39.5 -10.5t-50.5 -2.5h-393l-25 -420q89 37 203 37q207 0 347 -121.5t140 -306.5q0 -199 -155 -326 q-137 -115 -324 -115q-118 0 -201 40t-123 91q-49 62 -49 127z" />
<glyph unicode="6" horiz-adv-x="1067" d="M80 553q0 342 194 588q98 120 226 200q164 105 387 144v-49q-7 -2 -34 -9t-33 -9t-28 -8t-29.5 -8.5t-25.5 -9t-28 -11t-25.5 -12t-29.5 -15.5t-29 -17q-60 -37 -105.5 -81t-73 -89.5t-41.5 -76t-26 -68.5q-36 -105 -41 -195q91 101 244 101q163 0 278 -111 q141 -135 141 -348q0 -170 -83 -291q-143 -203 -371 -203q-182 0 -307 125q-160 156 -160 453zM313 459q0 -240 57.5 -338t180.5 -98q49 0 86 13.5t60.5 43t38.5 63.5t22 88.5t9.5 104t2.5 121.5q0 64 -2.5 111.5t-10 98.5t-23 86.5t-38.5 65t-59 44t-84 14.5 q-46 0 -83 -13.5t-61.5 -35.5t-42.5 -56t-28 -68t-16 -79.5t-7.5 -82t-1.5 -83.5z" />
<glyph unicode="7" horiz-adv-x="1067" d="M70 1014l104 385h803q33 0 33 -19q0 -6 -4 -14l-164 -346q-113 -239 -178 -405t-66 -255q0 -48 20.5 -139.5t20.5 -111.5q0 -57 -34 -95.5t-91 -38.5q-58 0 -89.5 41.5t-31.5 100.5q0 54 31 147t56 149t69 150l315 660h-536q-84 0 -117 -18t-59 -91l-39 -110z" />
<glyph unicode="8" horiz-adv-x="1067" d="M70 358q0 79 32.5 144.5t89 110.5t122 75t141.5 47q-139 25 -233.5 112t-94.5 222q0 105 61 187.5t155 124.5t200 42q102 0 194.5 -43.5t152.5 -127.5t60 -189q0 -15 -1 -28t-7 -44t-17.5 -57t-36 -59t-57.5 -58.5t-86.5 -48.5t-119.5 -35q45 -6 93 -22t98 -47 t89.5 -72.5t64.5 -102t25 -131.5q0 -90 -41.5 -164.5t-109 -121t-150 -72t-168.5 -25.5q-84 0 -164.5 26.5t-146 74t-105.5 121.5t-40 161zM305 336q0 -89 21 -158.5t73.5 -115.5t130.5 -46q114 0 171 90.5t57 251.5q0 172 -56.5 260.5t-166.5 88.5q-119 0 -174.5 -99 t-55.5 -272zM348 1065q0 -67 8 -116.5t27.5 -92.5t58.5 -65.5t95 -22.5q51 0 88.5 22t57 53.5t31 79t14.5 85t3 84.5q0 288 -188 288q-38 0 -68 -10.5t-50 -26.5t-35 -42t-23 -51.5t-12.5 -60t-5.5 -61.5t-1 -63z" />
<glyph unicode="9" horiz-adv-x="1067" d="M70 915q0 206 140 357t329 151q179 0 301 -133q149 -160 149 -438q0 -98 -18 -190.5t-46.5 -163.5t-69 -137.5t-78.5 -112.5t-82.5 -88t-75 -65.5t-60.5 -43.5q-36 -25 -83.5 -50t-137 -55.5t-176.5 -37.5l10 45q242 27 383.5 193.5t173.5 424.5q-44 -54 -98 -84 t-142 -30q-87 0 -159 35q-38 18 -76.5 47.5t-83 79.5t-72.5 127.5t-28 168.5zM301 893q0 -124 12.5 -198t44.5 -120q50 -73 152 -73q79 0 141 53q58 51 82.5 136t24.5 239v41q0 42 -1 73t-6 76.5t-13.5 78t-25.5 68.5t-40.5 58.5t-60 37.5t-81.5 15q-229 0 -229 -405v-80z " />
<glyph unicode=":" horiz-adv-x="555" d="M193 115q0 53 37 90t89 37q53 0 90 -37t37 -90t-37 -90t-90 -37q-52 0 -89 37t-37 90zM193 729q0 53 37 90t89 37q53 0 90 -37t37 -90t-37 -90t-90 -37q-52 0 -89 37t-37 90z" />
<glyph unicode=";" horiz-adv-x="555" d="M152 109q0 62 44 98.5t107 36.5q85 0 131.5 -60.5t46.5 -148.5q0 -74 -34.5 -148t-92.5 -133q-43 -45 -96 -82l-33 43q81 63 121 115q74 103 74 186q0 76 -53 103q2 -13 2 -21q0 -35 -25 -69.5t-80 -34.5q-50 0 -81 32.5t-31 82.5zM168 729q0 53 37 90t90 37t90 -37 t37 -90t-37 -90t-90 -37t-90 37t-37 90z" />
<glyph unicode="&#x3c;" horiz-adv-x="1482" d="M233 526v176l953 484v-160l-801 -397l801 -402v-180z" />
<glyph unicode="=" horiz-adv-x="1482" d="M203 332v157h1077v-157h-1077zM203 717v157h1077v-157h-1077z" />
<glyph unicode="&#x3e;" horiz-adv-x="1482" d="M295 43v160l803 395l-803 401v181l954 -478v-178z" />
<glyph unicode="?" horiz-adv-x="811" d="M113 1188q0 40 18 90.5t66 95.5q95 90 239 90q138 0 239 -94t101 -252q0 -85 -27 -148t-74.5 -111.5t-144.5 -125.5q-68 -53 -100.5 -86.5t-51 -76.5t-18.5 -103v-33l-34 -20q-11 59 -11 108q0 153 37 254t154 209l53 49q54 50 84.5 96t30.5 103q0 48 -22 86t-58 59 t-76 32t-80 11q-104 0 -168.5 -44t-64.5 -83q0 -17 15.5 -29.5t33.5 -21t33.5 -31.5t15.5 -59q0 -40 -23 -67t-63 -27q-48 0 -76 40t-28 89zM225 115q0 53 37.5 90t89.5 37t89.5 -37t37.5 -90t-37.5 -90t-89.5 -37t-89.5 37t-37.5 90z" />
<glyph unicode="@" horiz-adv-x="1536" d="M63 668q0 169 62.5 320t169 259t256 171t317.5 63q129 0 228 -37.5t188 -120.5q96 -91 141 -193.5t45 -232.5q0 -149 -55.5 -285.5t-148 -218.5t-193.5 -82q-69 0 -110 46t-41 124q0 1 1 8.5t1 12.5q-110 -185 -258 -185q-113 0 -184.5 85.5t-71.5 220.5q0 129 60 248.5 t159 192.5t205 73q160 0 190 -158l29 121h133l-109 -498q-20 -95 -20 -153q0 -82 57 -82q40 0 80 32q92 76 147.5 210t55.5 276q0 243 -152.5 397t-390.5 154q-190 0 -343.5 -100.5t-240 -277.5t-86.5 -396q0 -298 172.5 -479t456.5 -181q183 0 349 74.5t280 208.5l37 -35 q-126 -145 -303.5 -223t-378.5 -78q-333 0 -533.5 196t-200.5 523zM565 563q0 -92 34 -142t97 -50q78 0 144.5 89.5t101.5 216t35 249.5q0 78 -35.5 123t-97.5 45q-69 0 -134 -75.5t-105 -199t-40 -256.5z" />
<glyph unicode="A" horiz-adv-x="1236" d="M-57 0v43h139l487 1407h66l469 -1407h151l2 -43h-591v43h190l-141 418h-434l-140 -418h189v-43h-387zM297 506h403l-200 600z" />
<glyph unicode="B" horiz-adv-x="1280" d="M57 1405v41h535q206 0 332 -49q67 -26 115 -65.5t70.5 -83t32 -80.5t9.5 -72q0 -60 -21.5 -111.5t-57 -86.5t-77.5 -63t-86 -43.5t-78.5 -24t-58.5 -9.5q325 -27 416 -246q20 -50 20 -111q0 -284 -288 -370q-106 -31 -359 -31h-495v43h182v1362h-191zM465 43h113 q68 1 96 2t67.5 6t63.5 16.5t47 30.5q96 82 96 283q0 50 -4.5 89.5t-16.5 85t-39 80.5t-67 56q-71 39 -243 39h-113v-688zM465 774h121q38 0 68 2t65.5 10t62 21.5t52.5 37t42.5 56.5t26.5 81t10 108q0 63 -11.5 112.5t-29 82.5t-47.5 56t-57.5 35.5t-70 19t-73 8t-77.5 1.5 h-82v-631z" />
<glyph unicode="C" horiz-adv-x="1236" d="M76 707q0 284 141 485q88 125 220.5 201.5t279.5 76.5q89 0 179 -32.5t159 -87.5l67 96h33l4 -377h-45q-21 84 -57.5 148t-76.5 101.5t-88 61t-89 31.5t-84 8q-193 0 -285 -149q-44 -69 -61 -176.5t-17 -282.5v-319q0 -95 12.5 -167.5t35.5 -118.5t47.5 -73t56.5 -49 q85 -59 199 -59q216 0 346 211q14 24 28.5 54t22.5 49.5t17 43.5t9 25h35l-8 -408h-33l-75 102q-75 -68 -181.5 -97.5t-175.5 -29.5q-78 0 -152 23.5t-124 54.5t-96.5 74.5t-68.5 70.5t-42 56q-133 193 -133 453z" />
<glyph unicode="D" horiz-adv-x="1449" d="M63 0v43h183v1362h-172v41h514q173 0 270.5 -18.5t181.5 -67.5q32 -18 66.5 -43.5t85 -80.5t88 -121t65 -168t27.5 -218q0 -342 -248 -577q-67 -63 -161 -99t-169 -44.5t-167 -8.5h-564zM481 45h115q55 0 95 2t90.5 9t88.5 22t75.5 38t65.5 60.5t46 87.5q26 72 35.5 176 t9.5 287q0 190 -13 308.5t-47 185.5q-25 50 -63 85t-76 53t-92 28t-92.5 12t-95.5 2h-142v-1356z" />
<glyph unicode="E" horiz-adv-x="1236" d="M68 0v43h182v1362h-178v41h1036l16 -395h-30q-16 65 -31.5 110t-37.5 88t-48.5 69.5t-63 47.5t-84 30t-108.5 9h-248v-651h96q124 0 173 50.5t49 194.5v21h36v-594h-34v27q0 46 -4.5 82t-15 62.5t-22.5 45.5t-32.5 31t-38 19.5t-46.5 10.5t-51.5 4t-58.5 1h-51v-666h297 q113 0 175 24.5t108 104.5q23 40 43.5 94t29.5 84.5t29 100.5h27l-39 -451h-1075z" />
<glyph unicode="F" horiz-adv-x="1150" d="M61 1405v41h1045l22 -408h-32q-31 209 -133 297q-52 46 -101.5 58t-148.5 12h-240v-651h164q119 0 158 56t39 220h38v-590h-38q0 150 -46 209.5t-167 59.5h-148v-666h184v-43h-594v43h185v1362h-187z" />
<glyph unicode="G" horiz-adv-x="1366" d="M76 717q0 151 37 270q41 129 124.5 237t206 177t256.5 69q176 0 324 -106l68 82h34l13 -428h-39q-13 78 -45.5 148t-59.5 106q-16 23 -37.5 45t-57.5 48.5t-88 43t-110 16.5q-27 0 -56 -4.5t-74 -18t-86.5 -49t-67.5 -87.5q-64 -134 -64 -537v-121q0 -121 14.5 -241 t41.5 -183q37 -85 107 -123t151 -38q163 0 235 143q18 36 27.5 81.5t11.5 79.5t2 87v45h-213v45h610v-45h-137q-8 -123 -45 -203q-15 -33 -38.5 -67t-65 -74t-92 -70t-123.5 -50t-156 -20q-282 0 -467 258q-141 205 -141 484z" />
<glyph unicode="H" horiz-adv-x="1536" d="M68 0v43h176v1362h-176v41h598v-41h-181v-637h568v637h-185v41h594v-41h-172v-1362h180v-43h-598v43h183v670h-570v-670h185v-43h-602z" />
<glyph unicode="I" horiz-adv-x="724" d="M68 0v43h178v1362h-178v41h596v-41h-181v-1362h181v-43h-596z" />
<glyph unicode="J" horiz-adv-x="811" d="M18 6q0 48 32 83.5t79 35.5q44 0 74 -32t30 -77q0 -36 -20 -67.5t-20 -36.5q0 -16 18 -28.5t43 -12.5q22 0 41.5 8t42.5 30t37 72.5t14 124.5v1299h-178v41h596v-41h-180l-4 -1153q0 -213 -156 -340q-99 -82 -234 -82q-57 0 -100.5 17.5t-67.5 45.5t-35.5 56.5 t-11.5 56.5z" />
<glyph unicode="K" horiz-adv-x="1409" d="M57 1405v41h590v-41h-170v-1362h182v-43h-600v43h185v1362h-187zM498 754l577 651h-209v41h461v-41h-182l-459 -522l625 -840h102v-43h-571v43h184z" />
<glyph unicode="L" horiz-adv-x="1236" d="M59 0v43h187v1362h-185v41h596v-41h-176v-1362h310q137 0 208 61q23 20 42.5 48t31.5 50.5t26 64t18.5 58t17 65.5t14.5 56h35l-39 -446h-1086z" />
<glyph unicode="M" horiz-adv-x="1662" d="M66 1405v41h450l326 -1067l319 1067h430v-41h-178v-1362h193v-43h-598v43h186v1319l-416 -1362h-55l-428 1378v-1335h186v-43h-407v43h170v1362h-178z" />
<glyph unicode="N" horiz-adv-x="1409" d="M57 0v43h187v1362h-181v41h455l653 -1012v971h-172v41h383v-41h-159v-1405h-39l-887 1356v-1313h190v-43h-430z" />
<glyph unicode="O" horiz-adv-x="1409" d="M76 723q0 258 127 453q20 31 43 60t71 74.5t100 78t129 57t159 24.5q237 0 417 -190q209 -217 209 -557q0 -265 -129 -457q-20 -30 -43.5 -59.5t-71 -74t-99.5 -77t-128.5 -56.5t-157.5 -24q-250 0 -436 213q-190 214 -190 535zM350 717q0 -237 15 -367q4 -29 7.5 -49 t18 -61.5t35.5 -71.5t61 -63t93 -52q63 -22 125 -22q28 0 59 4.5t74.5 21.5t79.5 43.5t68 76t46 114.5q27 122 27 411q0 209 -12 347q-7 89 -28 154.5t-73 117.5q-39 39 -94 62t-88 27.5t-62 4.5q-19 0 -43.5 -3t-66 -15.5t-77.5 -33.5t-71.5 -62.5t-54.5 -96.5 q-39 -111 -39 -487z" />
<glyph unicode="P" horiz-adv-x="1236" d="M61 1405v41h627q136 0 241 -28t181 -109q96 -100 96 -240q0 -196 -202 -307q-81 -42 -168.5 -54t-212.5 -12h-146v-653h185v-43h-594v43h180v1362h-187zM477 743h178q29 0 46 1t49 4.5t54.5 13.5t48 26t44.5 44t31 65q16 51 16 199q0 50 -4.5 88.5t-18.5 82.5t-45.5 74.5 t-78.5 44.5q-52 15 -224 15h-96v-658z" />
<glyph unicode="Q" horiz-adv-x="1409" d="M74 723q0 262 129 457q20 30 43.5 59.5t71 74t99 76.5t128 56t157.5 24q253 0 439 -213q190 -214 190 -534q0 -237 -108 -420q-64 -110 -144 -177.5t-149 -100.5q-47 -23 -107 -35v-53q0 -71 12 -127.5t31.5 -95t52.5 -66.5t66 -44t81 -26t88 -13.5t97 -4.5v-31 q-308 0 -467 78q-108 53 -151 144.5t-45 236.5q-192 41 -334 213q-180 215 -180 522zM348 702q0 -217 12.5 -326t45.5 -173q43 -83 123 -127.5t173 -44.5q72 0 144 30q163 67 190 254q21 136 21 404q0 183 -10 315q-7 91 -25 155.5t-64 117.5q-29 34 -68.5 57.5t-78 33.5 t-64 13.5t-45.5 3.5q-31 0 -67 -7.5t-86 -27t-94 -65t-68 -111.5q-23 -66 -31 -184.5t-8 -317.5z" />
<glyph unicode="R" horiz-adv-x="1323" d="M59 1405v41h596q75 0 122.5 -3t112.5 -13.5t117.5 -37.5t94.5 -69q82 -84 82 -209q0 -62 -21.5 -115t-55.5 -88.5t-79 -63t-88 -43t-85.5 -25.5t-70 -13.5t-43.5 -3.5q89 -7 186 -56t150 -137q35 -58 47.5 -109.5t12.5 -152.5v-106q0 -83 24 -121.5t74 -38.5q14 0 27.5 3 t35.5 11t23 8l14 -38q-58 -37 -151 -37q-87 0 -146.5 36.5t-91.5 79.5q-40 55 -52.5 122.5t-12.5 156.5q0 34 -7 105t-16 102q-11 37 -29 64.5t-44.5 44t-50 26.5t-62 14t-62 5t-65.5 1h-66v-702h183v-43h-596v43h184v1362h-191zM477 795h94q189 0 260 49q103 71 103 252 q0 68 -14 120.5t-40.5 85t-56 54t-69 31t-70 13t-68.5 3.5h-139v-608z" />
<glyph unicode="S" horiz-adv-x="1067" d="M109 446h59q5 -34 8.5 -54.5t17.5 -66.5t33 -80t55.5 -76.5t84.5 -74.5q88 -59 204 -59q64 0 115 16q24 8 48.5 21t52.5 37.5t49 56.5t35 80t14 104q0 80 -33 135q-19 33 -46 58t-66 42t-63.5 25t-72.5 21l-155 41q-80 22 -135.5 52.5t-98.5 84.5q-31 40 -49 96.5 t-20.5 83t-2.5 45.5q0 116 49 215t142.5 160t212.5 61q134 0 266 -88l76 88h29l12 -378h-56q-15 91 -36 135q-38 85 -120.5 138.5t-176.5 53.5q-119 0 -200 -75.5t-81 -188.5q0 -44 11 -75t41 -62t90 -56t153 -47l78 -18q196 -46 282 -151t86 -275q0 -94 -28 -184 q-8 -27 -20 -54.5t-34 -65.5t-53.5 -70t-73 -60.5t-99.5 -45t-126 -16.5q-60 0 -113.5 13t-95.5 37.5t-63 40.5t-49 40l-78 -106h-47q-12 376 -12 446z" />
<glyph unicode="T" horiz-adv-x="1280" d="M31 991l18 455h1174l32 -455h-32l-15 45q-17 52 -29.5 87.5t-28.5 74.5t-31.5 64.5t-35 51t-41.5 40.5t-49 27.5t-59.5 18t-71.5 5.5h-102v-1362h196v-43h-639v43h207v1362h-137q-56 0 -100.5 -19t-75.5 -49.5t-57 -80.5t-42.5 -101t-33.5 -121l-10 -43h-37z" />
<glyph unicode="U" horiz-adv-x="1366" d="M29 1405v41h587v-41h-186v-967q0 -49 1.5 -82t9.5 -76.5t21.5 -75t39.5 -64t63 -56.5q88 -59 205 -59q113 0 199 61q39 28 66.5 65.5t41.5 72.5t22 84.5t9.5 85t1.5 89.5v922h-180v41h387v-41h-158v-940q0 -63 -4 -109t-16.5 -100t-40 -99.5t-70.5 -82.5 q-112 -99 -315 -99q-22 0 -44.5 1t-73 8.5t-94 21t-95 42t-87.5 67.5q-110 115 -110 334v956h-180z" />
<glyph unicode="V" horiz-adv-x="1323" d="M20 1405v41h576v-41h-199l361 -1063l342 1063h-209v41h407v-41h-141l-463 -1430h-47l-495 1430h-132z" />
<glyph unicode="W" horiz-adv-x="1792" d="M23 1405v41h1296v-41h-131l-156 -447l219 -620l336 1067h-194v41h366v-41h-114l-455 -1430h-47l-230 648l-231 -648h-45l-498 1430h-116zM383 1405l371 -1081l135 378l-252 703h-254zM877 1405l131 -367l129 367h-260z" />
<glyph unicode="X" horiz-adv-x="1323" d="M8 1405v41h586v-41h-203l303 -518l318 518h-191v41h410v-41h-156l-350 -565l459 -797h121v-43h-576v43h184l-329 569l-351 -569h201v-43h-414v43h154l381 616l-432 746h-115z" />
<glyph unicode="Y" horiz-adv-x="1323" d="M12 1405v41h566v-41h-185l369 -635l332 635h-213v41h419v-41h-147l-373 -721v-641h211v-43h-641v43h203v639l-426 723h-115z" />
<glyph unicode="Z" horiz-adv-x="1150" d="M10 0v49l834 1356h-340q-111 0 -170 -21.5t-109 -101.5q-14 -22 -26 -46.5t-20 -44t-17.5 -49.5t-14 -45t-14 -50.5t-12.5 -47.5h-33l43 447h1004l-859 -1403h447q125 0 186 47q37 28 66.5 72.5t50 101t32 96.5t23.5 95h31l-41 -455h-1061z" />
<glyph unicode="[" horiz-adv-x="714" d="M225 -410v1979h494v-58h-303v-1865h303v-56h-494z" />
<glyph unicode="\" horiz-adv-x="811" d="M39 1446h125l606 -1446h-125z" />
<glyph unicode="]" horiz-adv-x="714" d="M-2 -354h301v1865h-301v58h491v-1979h-491v56z" />
<glyph unicode="^" horiz-adv-x="1482" d="M236 588l415 858h180l416 -858h-186l-324 700l-325 -700h-176z" />
<glyph unicode="_" horiz-adv-x="1024" d="M-20 -154h1064v-102h-1064v102z" />
<glyph unicode="`" horiz-adv-x="555" d="M68 1364v35h219l198 -371l-28 -16z" />
<glyph unicode="a" d="M76 176q0 55 21.5 100t54.5 75t80.5 52t93 34t98.5 19t89 9t73 2v207q0 153 -146 153q-62 0 -114 -29.5t-52 -58.5q0 -10 21.5 -40t21.5 -56q0 -38 -28.5 -64t-65.5 -26q-40 0 -65 29.5t-25 68.5q0 78 96.5 147.5t243.5 69.5q87 0 170.5 -34.5t114.5 -104.5 q18 -45 18 -149v-451q0 -22 1 -35.5t5.5 -28.5t14.5 -22.5t26 -7.5q13 0 29 9.5t26 18.5l9 9l24 -29q-68 -68 -155 -68q-50 0 -86.5 18t-54 47t-25 54t-8.5 49q-13 -25 -32 -49t-51.5 -53.5t-82.5 -47.5t-109 -18q-98 0 -164.5 54t-66.5 147zM268 213q0 -70 37.5 -106.5 t91.5 -36.5q62 0 115 47q45 43 59.5 103.5t14.5 152.5v57q-63 0 -116.5 -10.5t-100.5 -34.5t-74 -68t-27 -104z" />
<glyph unicode="b" horiz-adv-x="1067" d="M35 0v43h133v1362h-133v41h325v-752q26 75 99.5 124.5t158.5 49.5q106 0 191 -61.5t130.5 -160t45.5 -212.5q0 -113 -45 -217t-132.5 -173t-197.5 -69q-100 0 -161.5 51.5t-88.5 116.5l2 -143h-327zM358 444q0 -175 37 -264q27 -67 81 -114.5t122 -47.5q156 0 156 240 v317q0 117 -42 181.5t-120 64.5q-70 0 -125 -56t-82 -141t-27 -180z" />
<glyph unicode="c" horiz-adv-x="894" d="M82 416q0 148 82 264q20 28 47 54.5t71.5 59.5t108.5 53.5t135 20.5q121 0 214.5 -64.5t93.5 -158.5q0 -36 -12.5 -60.5t-32 -34.5t-34 -14t-26.5 -4q-43 0 -69.5 32t-26.5 77q0 30 12.5 54t25.5 39t13 24q0 22 -47.5 44.5t-110.5 22.5q-154 0 -196 -139 q-25 -89 -25 -332q0 -114 11 -173.5t44 -98.5q57 -62 150 -62q58 0 113 21q55 24 108 79.5t78 151.5h53q-19 -100 -82 -174q-103 -123 -278 -123q-143 0 -256 91q-164 134 -164 350z" />
<glyph unicode="d" horiz-adv-x="1067" d="M82 418q0 206 106.5 328t255.5 122q164 0 258 -176v713h-157v41h352v-1403h135v-43h-330v160q-84 -185 -256 -185q-141 0 -251 119q-113 125 -113 324zM309 426q0 -100 1 -145.5t8.5 -97.5t23.5 -83q37 -77 123 -77q61 0 108 39t72.5 98t38 117t12.5 108q0 115 -12 186.5 t-53 137.5q-66 110 -168 110q-29 0 -53.5 -11t-40 -28.5t-24 -30.5t-13.5 -26q-23 -65 -23 -297z" />
<glyph unicode="e" d="M82 416q0 141 74 254q19 28 42 54.5t65.5 63t103 58.5t129.5 22q156 0 262 -106q105 -105 112 -270h-563v-162q0 -88 6 -134t27 -83q51 -90 168 -90q106 0 189.5 73.5t103.5 186.5l51 -2q-20 -79 -35 -109q-11 -21 -25.5 -42t-43 -50.5t-61.5 -51.5t-82.5 -37.5 t-104.5 -15.5q-139 0 -262 103q-156 136 -156 338zM307 535h336v79q0 32 -1.5 52t-10 53.5t-24 53t-47.5 35t-77 15.5q-87 0 -131.5 -51t-44.5 -137v-100z" />
<glyph unicode="f" horiz-adv-x="598" d="M16 0v43h181v758h-177v43h177v225q0 224 135 332q81 65 176 65q108 0 160 -61q30 -30 30 -82q0 -39 -24.5 -68.5t-63.5 -29.5q-38 0 -62 26.5t-24 65.5q0 25 8 45t33 49q-22 27 -63 27q-23 0 -44 -11.5t-30.5 -22t-15.5 -20.5q-29 -46 -29 -145v-395h201v-43h-197v-758 h176v-43h-547z" />
<glyph unicode="g" d="M45 -334q0 20 5.5 42t20.5 51.5t51 57t89 44.5q-63 25 -84 41q-76 57 -76 149q0 83 53 145.5t140 120.5q-63 32 -99 102.5t-36 145.5q0 138 103 219.5t245 81.5t241 -90q12 14 29 29t53.5 33t71.5 18q42 0 73 -24.5t31 -65.5q0 -33 -23 -56.5t-56 -23.5t-50 15t-19.5 33 t-9.5 33t-22 15q-23 0 -47 -32q68 -89 68 -195q0 -67 -31 -129q-16 -29 -40.5 -56t-62.5 -53.5t-95 -42.5t-124 -16q-93 0 -161 37q-4 -4 -27.5 -22t-33.5 -26.5t-29.5 -27t-28.5 -32.5t-17 -33t-8 -37q0 -78 125 -78q7 0 161.5 1t231.5 1q234 0 234 -229q0 -72 -26 -141.5 t-78 -130.5t-142.5 -98.5t-206.5 -37.5q-24 0 -55.5 3.5t-86 14.5t-108 40.5t-90.5 72.5q-53 63 -53 131zM178 -311q0 -102 70.5 -166t189.5 -64q228 0 332 150q53 76 53 153q0 52 -27 72.5t-81 20.5q-25 0 -181.5 -3.5t-171.5 -3.5q-71 0 -112 5q-2 -2 -14 -16t-16.5 -20.5 t-14.5 -23t-14.5 -29.5t-8.5 -33t-4 -42zM313 479q0 -43 4 -71t17.5 -55.5t42 -40.5t72.5 -13q33 0 55.5 7t43.5 26.5t31.5 59.5t10.5 100v182q0 32 -4 54.5t-16.5 47.5t-41.5 38t-73 13q-79 0 -110.5 -44.5t-31.5 -129.5v-174z" />
<glyph unicode="h" horiz-adv-x="1150" d="M45 0v43h139v1362h-127v41h326v-723q114 145 313 145q277 0 277 -254v-571h135v-43h-467v43h131v621q0 21 -4.5 41t-17 45.5t-42 41t-73.5 15.5q-84 0 -148 -55q-36 -31 -58.5 -70.5t-31.5 -89t-11.5 -87t-2.5 -95.5v-367h131v-43h-469z" />
<glyph unicode="i" horiz-adv-x="555" d="M39 0v43h141v758h-139v43h332v-801h133v-43h-467zM147 1292q0 51 35 86t86 35t86 -35t35 -86t-35 -86t-86 -35t-86 35t-35 86z" />
<glyph unicode="j" horiz-adv-x="512" d="M-113 -430q0 50 29 73t59 23q37 0 61.5 -26t24.5 -66q0 -17 -3 -39.5t-3 -36.5q0 -41 43 -41q78 0 78 164v1180h-143v43h334v-1069q0 -94 -22.5 -166t-82.5 -125q-79 -70 -180 -70q-76 0 -135.5 41t-59.5 115zM150 1290q0 51 34.5 86t85.5 35t86 -35t35 -86t-35 -86 t-86 -35t-85.5 35t-34.5 86z" />
<glyph unicode="k" horiz-adv-x="1067" d="M45 1405v41h334v-1403h141v-43h-473v43h131v1362h-133zM401 455l365 346h-213v43h436v-43h-147l-273 -256l402 -502h96v-43h-463v43h109z" />
<glyph unicode="l" horiz-adv-x="555" d="M27 1405v41h356v-1403h154v-43h-506v43h151v1362h-155z" />
<glyph unicode="m" horiz-adv-x="1622" d="M37 801v43h332v-92q44 36 77 57t90.5 40t122.5 19q22 0 44.5 -3t62 -13t75 -38t56.5 -71q125 125 295 125q67 0 116.5 -18.5t74 -43t38.5 -60t16.5 -57.5t2.5 -48v-598h137v-43h-463v43h129v567q0 44 -1.5 69t-8 53.5t-19.5 43t-36.5 24t-57.5 9.5q-69 0 -123 -49 q-29 -26 -46.5 -58.5t-24.5 -73t-9 -70t-2 -77.5v-438h121v-43h-456v43h131v569q0 103 -28 149t-101 46q-40 0 -83 -23.5t-71 -60.5q-29 -38 -41 -96.5t-12 -159.5v-424h127v-43h-463v43h139v758h-141z" />
<glyph unicode="n" horiz-adv-x="1110" d="M49 0v43h133v758h-133v43h328v-123q42 59 100.5 94.5t98 44t77.5 8.5q23 0 50 -4.5t68 -18t78 -46t58 -80.5q12 -27 17.5 -58t6.5 -52t1 -62v-504h135v-43h-459v43h129v610q0 66 -31 111t-100 45q-53 0 -103.5 -31.5t-78.5 -79.5q-47 -81 -47 -266v-389h137v-43h-465z " />
<glyph unicode="o" horiz-adv-x="1024" d="M76 422q0 160 100 283q20 25 46.5 48.5t69 52t101 45.5t123.5 17q69 0 140 -24t126 -70q166 -142 166 -352q0 -204 -149 -336q-122 -111 -285 -111q-137 0 -250 82q-29 21 -56 47.5t-59.5 71t-52.5 109t-20 137.5zM303 279q0 -143 72 -207q58 -49 141 -49q90 0 141 53 q60 60 60 237v260q0 132 -58 195q-50 53 -143 53q-85 0 -141 -49q-47 -43 -59.5 -95.5t-12.5 -146.5v-251z" />
<glyph unicode="p" horiz-adv-x="1067" d="M39 -537h133v1338h-131v43h330v-152q9 19 33.5 54t52.5 59q72 63 178 63q139 0 242 -112q45 -47 79.5 -126.5t34.5 -191.5q0 -170 -90 -301q-107 -162 -276 -162q-87 0 -154.5 50.5t-101.5 140.5v-703h157v-43h-487v43zM377 401q0 -41 6.5 -87.5t23.5 -99t42 -93.5 t67 -68.5t94 -27.5q30 0 53.5 13t39 32t26.5 52t16.5 61t8.5 71t3.5 70.5t0.5 70.5v174q0 252 -140 252q-47 0 -85 -19t-62.5 -48.5t-42.5 -70.5t-27.5 -79t-15 -81.5t-7 -70t-1.5 -51.5z" />
<glyph unicode="q" horiz-adv-x="1067" d="M76 430q0 100 32.5 185t85 139t116 84t126.5 30q28 0 59 -7t69 -24t73 -54.5t57 -90.5v152h334v-43h-135v-1338h141v-43h-506v43h168v691q-11 -23 -19 -38t-30.5 -45t-46.5 -48t-64 -33t-87 -15q-18 0 -36 2.5t-31 5.5t-28.5 8.5t-23 8.5t-20.5 9t-15 7q-109 59 -164 171 t-55 243zM303 307q0 -59 6.5 -105t22.5 -89t49.5 -66.5t81.5 -23.5q67 0 123 53q46 44 70 112.5t28 120.5t4 133q0 48 -0.5 69t-5.5 56.5t-16 67.5q-32 93 -92.5 137.5t-114.5 44.5q-53 0 -94 -41q-37 -38 -49.5 -94.5t-12.5 -149.5v-225z" />
<glyph unicode="r" horiz-adv-x="768" d="M41 801v43h338v-197q39 113 104.5 164t134.5 51q56 0 95 -33.5t39 -87.5q0 -46 -30 -76t-77 -30q-44 0 -70 27t-26 71q0 45 -25 45q-46 0 -96 -129q-32 -87 -40.5 -162t-8.5 -194v-250h133v-43h-469v43h139v758h-141z" />
<glyph unicode="s" horiz-adv-x="724" d="M70 0v322h36q3 -7 13 -41t19.5 -61.5t31.5 -65t49 -63t71.5 -44t98.5 -18.5q36 0 78 15t78.5 54t36.5 92q0 35 -15.5 60.5t-43.5 40t-53.5 22.5t-59.5 13l-129 22q-30 5 -61 20t-65 42.5t-55.5 77.5t-21.5 114q0 59 22 113q9 22 25.5 44.5t44 49t71.5 43t97 16.5 q114 0 207 -80l37 68h34v-254h-38q-7 47 -29 88q-23 44 -77.5 85.5t-137.5 41.5q-67 0 -124.5 -41.5t-57.5 -105.5q0 -47 37 -72t137 -45l73 -14q57 -11 99.5 -28t82 -47.5t60.5 -80t21 -117.5q0 -58 -17 -106q-8 -25 -25.5 -52.5t-48.5 -59.5t-80.5 -52.5t-109.5 -20.5 q-115 0 -231 93l-52 -68h-28z" />
<glyph unicode="t" horiz-adv-x="598" d="M8 801v28q107 59 187.5 152.5t105.5 202.5h31v-340h219v-43h-219v-645q0 -113 102 -113q34 0 58.5 13t36.5 34.5t17 36.5t7 31h47q-13 -91 -77 -137t-152 -46q-133 0 -193 82q-27 37 -33 80.5t-6 149.5v514h-131z" />
<glyph unicode="u" horiz-adv-x="1110" d="M23 801v43h329v-596q0 -38 1.5 -62.5t9 -57t21.5 -51.5t40.5 -32.5t64.5 -13.5q64 0 119 31.5t84 87.5q41 78 41 307v344h-137v43h330v-801h137v-43h-330v113q-34 -56 -105.5 -97t-183.5 -41q-19 0 -39.5 2t-60 10.5t-77 31t-62.5 57.5q-23 33 -34.5 73.5t-13 68 t-1.5 79.5v504h-133z" />
<glyph unicode="v" d="M29 801v43h452v-43h-157l229 -580l221 580h-164v43h308v-43h-87l-313 -826h-78l-327 826h-84z" />
<glyph unicode="w" horiz-adv-x="1366" d="M20 801v43h455v-43h-143l205 -555l186 598h76l219 -606l174 563h-141v43h295v-43h-99l-260 -826h-67l-232 592l-184 -592h-64l-319 826h-101z" />
<glyph unicode="x" horiz-adv-x="980" d="M20 0v43h119l264 346l-284 412h-96v43h454v-43h-131l178 -254l193 254h-142v43h324v-43h-119l-227 -297l317 -461h86v-43h-407v43h94l-211 303l-229 -303h166v-43h-349z" />
<glyph unicode="y" d="M23 801v43h464v-43h-157l243 -561l203 561h-153v43h297v-43h-84l-433 -1172q-76 -215 -215 -215q-49 0 -84.5 31t-35.5 82q0 43 30.5 70.5t73.5 27.5q31 0 52.5 -11t30.5 -24.5t19.5 -24.5t20.5 -11q9 0 16 4.5t13.5 16.5t10 20t11 29t10.5 30l123 334l-364 813h-92z" />
<glyph unicode="z" horiz-adv-x="854" d="M29 0l520 801h-88q-123 0 -174 -21q-34 -15 -60.5 -50.5t-38 -64t-29 -83.5t-22.5 -68h-31v330h699l-529 -801h162q46 0 76 2t69 13.5t62 33.5q54 54 105 266h24v-358h-745z" />
<glyph unicode="{" horiz-adv-x="692" d="M82 565v29q44 8 72.5 24t46.5 38.5t26.5 62.5t11.5 83t3 113v306q0 82 16 141t56.5 108t117 74t189.5 25h67v-43h-41q-62 0 -101.5 -14t-62.5 -35t-33.5 -72.5t-13 -97.5t-2.5 -140v-290q0 -105 -17.5 -161t-57.5 -86t-121 -50q121 -24 159.5 -90.5t38.5 -237.5v-330 q0 -81 7 -129.5t28 -87.5t63 -55.5t109 -16.5h47v-43h-45q-112 0 -182.5 15t-122.5 55.5t-74 114t-22 188.5v301q0 95 -11 151t-47 96t-104 54z" />
<glyph unicode="|" horiz-adv-x="520" d="M166 -410v1981h190v-1981h-190z" />
<glyph unicode="}" horiz-adv-x="692" d="M2 1526v43h45q89 0 150.5 -9t112 -33t79.5 -66.5t44.5 -107t15.5 -157.5v-301q0 -71 6 -117.5t22.5 -86.5t49 -63t83.5 -34v-29q-44 -8 -72.5 -24t-46 -38t-26.5 -63t-11.5 -83.5t-2.5 -112.5v-305q0 -65 -9.5 -115t-34.5 -95.5t-67 -74.5t-109.5 -46.5t-158.5 -17.5h-68 v43h41q62 0 101.5 14t62.5 35t33.5 72.5t13 97.5t2.5 140v291q0 105 17.5 161t58 86t121.5 50q-121 24 -160 90.5t-39 236.5v330q0 81 -7 129.5t-28 87.5t-63 55.5t-109 16.5h-47z" />
<glyph unicode="~" horiz-adv-x="1482" d="M145 575q90 120 160 166.5t168 46.5q94 0 232 -65l155 -72q60 -27 90 -36t62 -9q64 0 117 35.5t122 124.5l88 -113q-95 -115 -173 -163t-169 -48q-78 0 -184 50l-172 81q-114 54 -182 54q-55 0 -101 -30t-106 -110l-19 -24z" />
<glyph unicode="&#xa1;" horiz-adv-x="555" d="M104 1331q0 53 37 90t90 37t90 -37t37 -90t-37 -90t-90 -37t-90 37t-37 90zM109 133q0 61 22 164l27 129q24 117 40.5 320t16.5 274h35q0 -178 12.5 -303.5t42.5 -280.5l27 -139q24 -113 24 -166q0 -79 -39 -114t-86 -35q-55 0 -88.5 39t-33.5 112z" />
<glyph unicode="&#xa2;" horiz-adv-x="942" d="M84 442q0 181 112.5 306t295.5 147v190h57v-190q127 -7 208 -72.5t81 -160.5q0 -57 -29 -92t-76 -35q-43 0 -70.5 31.5t-27.5 82.5q0 37 12.5 64t25.5 43t13 26q0 23 -40.5 43t-96.5 25v-813q202 29 260 254l53 -2q-35 -135 -112.5 -207.5t-200.5 -91.5v-207h-57v207 q-184 15 -296 139.5t-112 312.5zM317 436q0 -157 13 -230t47 -112q41 -47 115 -57v809q-81 -15 -123 -74q-30 -42 -41 -113t-11 -223z" />
<glyph unicode="&#xa3;" horiz-adv-x="1204" d="M57 141q0 74 66.5 120t173.5 46q61 0 116.5 -12.5t141.5 -46.5q8 36 8 67q0 59 -27.5 114.5t-99.5 139.5h-291v54h248q-120 143 -166.5 232.5t-46.5 180.5q0 163 133 275t328 112q157 0 265 -83.5t108 -204.5q0 -68 -34.5 -111t-88.5 -43q-46 0 -77.5 33t-31.5 80 q0 30 13 54.5t29 36.5t29 27.5t13 30.5q0 56 -59.5 95.5t-142.5 39.5q-112 0 -176 -72t-64 -198q0 -125 78 -268l119 -217h305v-54h-285q33 -73 33 -143q0 -98 -51 -203l47 -20q88 -39 130 -49.5t91 -10.5q89 0 132 52t46 163h45q-6 -391 -301 -391q-88 0 -199 66l-79 47 q-121 -98 -261 -98q-98 0 -157.5 43.5t-59.5 115.5zM117 133q0 -46 47.5 -76t120.5 -30q55 0 101 19.5t101 64.5q-162 104 -266 104q-46 0 -75 -23.5t-29 -58.5z" />
<glyph unicode="&#xa4;" horiz-adv-x="1370" d="M123 1161l96 99l133 -134q154 117 338 117q95 0 170.5 -26.5t157.5 -88.5l129 136l100 -97l-131 -135q117 -155 117 -340q0 -90 -27 -165.5t-92 -168.5l131 -131l-98 -98l-131 133q-89 -64 -162.5 -89.5t-169.5 -25.5q-97 0 -173 26.5t-161 90.5l-127 -131l-98 96 l129 131q-62 82 -89.5 161t-27.5 175q0 93 26 167t91 167zM281 696q0 -180 118 -302t293 -122q166 0 282 121.5t116 296.5q0 183 -115.5 305.5t-288.5 122.5q-172 0 -288.5 -121.5t-116.5 -300.5z" />
<glyph unicode="&#xa5;" horiz-adv-x="1429" d="M55 1352v43h633v-43h-205l357 -604l334 604h-216v43h424v-43h-147l-328 -586h307v-55h-335l-19 -37v-137h354v-56h-354v-438h209v-43h-653v43h209v438h-381v56h381v127l-27 47h-354v55h321l-366 586h-144z" />
<glyph unicode="&#xa6;" horiz-adv-x="520" d="M166 -410v834h188v-834h-188zM166 737v834h188v-834h-188z" />
<glyph unicode="&#xa7;" horiz-adv-x="980" d="M76 20q0 15 5 35.5t17.5 48.5t42.5 47t72 19q11 0 26.5 -4t38.5 -14.5t38.5 -36.5t15.5 -64q0 -57 -42.5 -97t-99.5 -40h-20q16 -35 97.5 -75t193.5 -40q36 0 75 5.5t83 20.5t78 38t56.5 61.5t22.5 87.5q0 71 -42 111.5t-163 101.5l-252 127q-64 32 -103.5 57.5t-73 59.5 t-48 75t-14.5 95q0 59 20 109q11 26 28.5 53.5t59.5 62t95 49.5q-26 17 -42.5 31t-45 45t-43.5 74t-15 94q0 16 2 35t11 51t23 61t42 60t64.5 54t93 37.5t125.5 14.5q125 0 215 -45q48 -24 80 -60t42.5 -66.5t10.5 -57.5q0 -55 -38 -92t-95 -37q-44 0 -76.5 30.5t-32.5 71.5 q0 34 17 59t42.5 37t40.5 16.5t27 6.5q-70 97 -223 97q-132 0 -195 -53.5t-63 -133.5q0 -59 34 -96t142 -90l215 -107q107 -52 178 -108q88 -69 88 -197q0 -62 -18 -110q-7 -21 -19 -41.5t-33 -46.5t-55 -48.5t-77 -36.5q1 -1 28.5 -18t42.5 -28t42.5 -36.5t42.5 -50 t27.5 -62t12.5 -77.5q0 -24 -4.5 -50t-17.5 -62.5t-42.5 -73.5t-72.5 -66q-61 -41 -144 -61.5t-163 -20.5q-170 0 -275.5 80.5t-105.5 183.5zM172 719q0 -29 13 -55.5t28.5 -43.5t49.5 -38t52 -30.5t60 -29.5l168 -82q78 -39 121 -39q64 0 107.5 47.5t43.5 110.5 q0 64 -45 109t-156 98l-151 74l-15 7.5t-25 11.5t-28.5 11t-33.5 9.5t-33 3.5q-65 0 -110.5 -50t-45.5 -114z" />
<glyph unicode="&#xa8;" horiz-adv-x="555" d="M-37 1194q0 46 32.5 78.5t78.5 32.5t78 -32.5t32 -78.5t-32 -78.5t-78 -32.5t-78.5 32.5t-32.5 78.5zM373 1194q0 46 32 78.5t78 32.5t78.5 -32.5t32.5 -78.5t-32.5 -78.5t-78.5 -32.5t-78 32.5t-32 78.5z" />
<glyph unicode="&#xa9;" horiz-adv-x="1703" d="M121 723q0 150 57.5 285.5t155 233t233 155t285.5 57.5q151 0 286.5 -57t233 -154t154.5 -232.5t57 -285.5q0 -152 -57 -288t-154.5 -233.5t-233.5 -154.5t-288 -57q-200 0 -367.5 97t-264.5 265t-97 369zM176 721q0 -141 53 -268.5t143 -219.5t215.5 -146t264.5 -54 q184 0 340 92t246 250.5t90 345.5q0 143 -52.5 271.5t-143 220.5t-215.5 146t-265 54q-137 0 -262.5 -54.5t-216 -147.5t-144 -221t-53.5 -269zM451 717q0 131 55.5 240.5t152.5 173t213 63.5q65 0 110.5 -17.5t113.5 -70.5l39 74h28v-295h-33q-40 149 -97.5 209.5 t-158.5 60.5t-159 -61q-43 -44 -57.5 -123t-14.5 -266q0 -124 6 -184.5t21 -104.5q22 -56 75 -89.5t119 -33.5q84 0 154 53q49 36 73.5 77.5t51.5 137.5h31v-293h-29l-49 74q-64 -49 -120 -69.5t-124 -20.5q-166 0 -283.5 136t-117.5 329z" />
<glyph unicode="&#xaa;" horiz-adv-x="641" d="M63 1016q0 54 32.5 94t83.5 59.5t98.5 28t91.5 8.5h22v131q0 88 -88 88q-33 0 -67.5 -16.5t-34.5 -34.5q0 -3 13 -21t13 -40q0 -26 -19 -44t-44 -18q-30 0 -47 20t-17 50q0 54 66 97.5t156 43.5q98 0 149 -43.5t51 -118.5v-325q0 -45 23 -45q17 0 43 26l22 -26 q-51 -47 -104 -47q-32 0 -56 11.5t-35.5 28.5t-17 31t-6.5 25q-68 -96 -172 -96q-67 0 -111.5 35t-44.5 98zM197 1038q0 -45 23 -65.5t50 -20.5q44 0 72.5 26.5t38.5 63.5t10 84v45q-103 0 -148.5 -39t-45.5 -94z" />
<glyph unicode="&#xab;" horiz-adv-x="724" d="M53 475l248 232h129l-244 -232l242 -223h-135zM301 475l242 232h135l-242 -232l242 -223h-135z" />
<glyph unicode="&#xac;" horiz-adv-x="1482" d="M143 535v157h1160v-682h-173v525h-987z" />
<glyph unicode="&#xad;" horiz-adv-x="724" d="M76 414v145h573v-145h-573z" />
<glyph unicode="&#xae;" horiz-adv-x="1703" d="M121 723q0 150 57.5 285.5t155 233t233 155t285.5 57.5q151 0 286.5 -57t233 -154t154.5 -232.5t57 -285.5q0 -152 -57 -288t-154.5 -233.5t-233.5 -154.5t-288 -57q-200 0 -367.5 97t-264.5 265t-97 369zM176 721q0 -141 53 -268.5t143 -219.5t215.5 -146t264.5 -54 q184 0 340 92t246 250.5t90 345.5q0 143 -52.5 271.5t-143 220.5t-215.5 146t-265 54q-137 0 -262.5 -54.5t-216 -147.5t-144 -221t-53.5 -269zM477 291v37h123v792h-123v37h348q158 0 226 -18q60 -17 94.5 -64t34.5 -112q0 -92 -66.5 -147t-195.5 -68l-19 -3q62 -5 102 -14 t75 -29.5t54.5 -55t30 -88t10.5 -130.5q0 -55 14 -77.5t48 -22.5q35 0 65 26l21 -24q-51 -43 -119 -43q-86 0 -143.5 50.5t-57.5 147.5q0 140 -42.5 191t-155.5 51h-35v-399h117v-37h-406zM766 764h39q107 0 159 43.5t52 134.5q0 176 -168 176h-82v-354z" />
<glyph unicode="&#xaf;" horiz-adv-x="555" d="M-10 1143v160h575v-160h-575z" />
<glyph unicode="&#xb0;" horiz-adv-x="724" d="M72 1233q0 120 85 205.5t205 85.5t205.5 -85.5t85.5 -205.5t-85.5 -205.5t-205.5 -85.5t-205 85.5t-85 205.5zM164 1233q0 -83 57.5 -141t140.5 -58t141 58t58 141t-58 141t-141 58t-140.5 -58t-57.5 -141z" />
<glyph unicode="&#xb1;" horiz-adv-x="1482" d="M193 0v156h1097v-156h-1097zM193 727v150h462v450h172v-450h465v-150h-465v-453h-172v453h-462z" />
<glyph unicode="&#xb2;" horiz-adv-x="747" d="M68 901v76l208 209q53 53 81 82.5t57.5 66.5t42 65.5t20.5 64t8 77.5q0 97 -43.5 161t-130.5 64q-69 0 -116.5 -44.5t-47.5 -98.5q0 -25 15 -25q6 0 22.5 5.5t32.5 5.5q30 0 51 -19t21 -49t-21.5 -49.5t-56.5 -19.5q-49 0 -80 39.5t-31 91.5q0 83 72 149t197 66 q120 0 195 -69t75 -163q0 -45 -17 -89t-53 -89t-67.5 -78t-83.5 -82l-234 -225h305q57 0 75 10t26 58l12 65h37l-8 -256h-563z" />
<glyph unicode="&#xb3;" horiz-adv-x="747" d="M70 1053q0 37 21.5 60.5t55.5 23.5t53 -20t19 -48q0 -26 -12.5 -40.5t-24.5 -22.5t-12 -17q0 -19 38 -43t93 -24q88 0 130 58.5t42 152.5q0 34 -3.5 62t-11.5 49.5t-16.5 38.5t-24 29.5t-28.5 21.5t-34.5 14.5t-38 8.5t-44 4.5t-46 2t-50.5 0.5v43q39 0 60.5 1t53 5 t49.5 11.5t38.5 22.5t31 37t18 54.5t7.5 75.5q0 166 -117 166q-42 0 -73 -17.5t-31 -36.5q0 -4 11 -12.5t22.5 -24.5t11.5 -38q0 -24 -15 -45t-48 -21q-34 0 -54 23.5t-20 56.5q0 61 61.5 107.5t157.5 46.5q107 0 177.5 -58.5t70.5 -146.5q0 -70 -49 -129.5t-160 -95.5 q114 -9 187 -71.5t73 -164.5q0 -48 -21 -95t-60 -86.5t-102.5 -64t-140.5 -24.5q-114 0 -179.5 52t-65.5 118z" />
<glyph unicode="&#xb4;" horiz-adv-x="555" d="M61 1026l213 373h218v-35l-402 -352z" />
<glyph unicode="&#xb5;" horiz-adv-x="1110" d="M23 -537h133v1338h-133v43h329v-594q0 -46 5.5 -80t20.5 -68t47.5 -52.5t80.5 -18.5q84 0 147 63q50 48 65 127.5t15 214.5v365h-137v43h330v-801h137v-43h-330v115q-28 -48 -66.5 -79t-79 -43t-62.5 -15t-44 -3q-85 0 -129 41v-553h158v-43h-487v43z" />
<glyph unicode="&#xb6;" horiz-adv-x="1294" d="M156 1044q0 186 119.5 294t328.5 108h463v-68h-74v-1722h-92v1722h-321v-1722h-91v1016q-155 15 -244 115t-89 257z" />
<glyph unicode="&#xb7;" horiz-adv-x="468" d="M106 504q0 54 38 90.5t92 36.5q52 0 89 -37t37 -88q0 -54 -36 -91.5t-90 -37.5t-92 37t-38 90z" />
<glyph unicode="&#xb8;" horiz-adv-x="555" d="M90 -301q0 24 13.5 41.5t35.5 17.5q45 0 45 -45q0 -11 -7 -32t-7 -27q0 -26 21 -38.5t53 -12.5q35 0 57.5 33t22.5 92q0 112 -103 116l45 164h49l-39 -133q75 0 132 -36t57 -105q0 -45 -21 -79.5t-54.5 -53.5t-68.5 -28t-69 -9q-64 0 -113 35.5t-49 99.5z" />
<glyph unicode="&#xb9;" horiz-adv-x="747" d="M162 1755v39l305 16v-870h141v-39h-436v39h147v803q0 16 -16 16q-31 0 -141 -4z" />
<glyph unicode="&#xba;" horiz-adv-x="681" d="M57 1171q0 34 10 72t32.5 77.5t54.5 70.5t81 51t107 20q126 0 204.5 -88.5t78.5 -202.5q0 -60 -25 -118q-28 -63 -95 -116.5t-163 -53.5q-91 0 -156.5 48t-97.5 107q-31 59 -31 133zM213 1114q0 -79 10 -113q27 -79 121 -79q38 0 63.5 14t38 40.5t17 54.5t4.5 65v166 q0 161 -123 161q-77 0 -104 -47t-27 -133v-129z" />
<glyph unicode="&#xbb;" horiz-adv-x="724" d="M47 252l242 231l-240 224h133l242 -224l-242 -231h-135zM297 252l242 231l-242 224h135l240 -224l-248 -231h-127z" />
<glyph unicode="&#xbc;" horiz-adv-x="1718" d="M170 1348v38l295 17v-871h135v-38h-424v38h146v797q0 13 -2.5 18t-12.5 5q-129 -4 -137 -4zM522 0l674 1399h84l-672 -1399h-86zM997 242v59l385 619h82v-631h113v104h43v-256h-43v105h-113v-203h109v-39h-377v39h125v203h-324zM1042 289h279v448z" />
<glyph unicode="&#xbd;" horiz-adv-x="1718" d="M160 1348v38l295 17v-871h135v-38h-424v38h145v797q0 14 -2 18.5t-12 4.5q-129 -4 -137 -4zM475 0l674 1399h84l-672 -1399h-86zM1049 0v76l202 209q64 66 95.5 102t60 80t38 84.5t9.5 93.5q0 104 -43 160q-48 63 -125 63q-67 0 -113.5 -44.5t-46.5 -96.5q0 -25 15 -25 q2 0 19 5.5t30 5.5q30 0 52 -19t22 -49t-21.5 -50t-54.5 -20q-47 0 -77 40t-30 92q0 83 68.5 148t187.5 65q122 0 194.5 -69.5t72.5 -160.5q0 -84 -55.5 -162.5t-159.5 -179.5l-228 -225h301q52 0 69 9t23 48l13 76h37q-9 -225 -9 -256h-546z" />
<glyph unicode="&#xbe;" horiz-adv-x="1718" d="M111 649q0 43 23 63.5t50 20.5q31 0 51.5 -19t20.5 -48q0 -18 -7.5 -33t-17 -22.5t-17 -14t-7.5 -10.5q0 -8 13 -23t44.5 -30t71.5 -15q43 0 75.5 16t49 38.5t26.5 54t12.5 54.5t2.5 48q0 42 -4.5 73t-19 62.5t-39.5 51.5t-68 32.5t-103 12.5h-53v43h39q54 0 89 7.5 t65 30t43.5 66t13.5 111.5q0 151 -113 151q-35 0 -68.5 -15.5t-33.5 -33.5q0 -4 6.5 -9.5t15 -12t15 -20.5t6.5 -32q0 -27 -17 -47t-43 -20q-36 0 -54.5 24.5t-18.5 57.5q0 62 61 107.5t156 45.5q37 0 77 -12t76.5 -35.5t60 -64.5t23.5 -93q0 -47 -21 -88.5t-53 -68.5 t-65 -44t-63 -24q44 -2 87 -17.5t81 -43t61 -72.5t23 -100q0 -122 -92.5 -197.5t-219.5 -75.5q-112 0 -176.5 51t-64.5 119zM526 0l674 1399h86l-672 -1399h-88zM1008 242v59l385 619h82v-631h112v104h43v-256h-43v105h-112v-203h108v-39h-377v39h125v203h-323zM1053 289 h278v448z" />
<glyph unicode="&#xbf;" horiz-adv-x="811" d="M33 328q0 85 27 148t74.5 111.5t144.5 125.5q68 53 100.5 86.5t51 76.5t18.5 103v33l34 20q11 -59 11 -108q0 -153 -37 -254t-154 -209l-53 -49q-54 -50 -84.5 -96t-30.5 -103q0 -48 22 -86t58 -59t76 -32t80 -11q104 0 168.5 44t64.5 83q0 17 -15.5 29.5t-33.5 21 t-33.5 31.5t-15.5 59q0 40 23 67t63 27q48 0 76 -40t28 -89q0 -40 -18 -90.5t-66 -95.5q-95 -90 -239 -90q-138 0 -239 94t-101 252zM330 1331q0 53 37 90t90 37t90 -37t37 -90t-37 -90t-90 -37t-90 37t-37 90z" />
<glyph unicode="&#xc0;" horiz-adv-x="1236" d="M-57 0v43h139l487 1407h66l469 -1407h151l2 -43h-591v43h190l-141 418h-434l-140 -418h189v-43h-387zM176 1778v37h318l270 -271l-23 -31zM297 506h403l-200 600z" />
<glyph unicode="&#xc1;" horiz-adv-x="1236" d="M-57 0v43h139l487 1407h66l469 -1407h151l2 -43h-591v43h190l-141 418h-434l-140 -418h189v-43h-387zM297 506h403l-200 600zM438 1546l301 271h318v-37l-596 -264z" />
<glyph unicode="&#xc2;" horiz-adv-x="1236" d="M-57 0v43h139l487 1407h66l469 -1407h151l2 -43h-591v43h190l-141 418h-434l-140 -418h189v-43h-387zM254 1540l301 301h102l281 -303l-23 -22l-323 165l-318 -163zM297 506h403l-200 600z" />
<glyph unicode="&#xc3;" horiz-adv-x="1236" d="M-57 0v43h139l487 1407h66l469 -1407h151l2 -43h-591v43h190l-141 418h-434l-140 -418h189v-43h-387zM268 1556q81 220 215 220q53 0 148 -41l78 -35q84 -35 116 -35q31 0 52 20.5t49 77.5l37 -14q-46 -116 -95 -167.5t-114 -51.5q-55 0 -146 39l-88 37q-12 5 -33.5 13 t-32 12t-24.5 7.5t-24 3.5q-33 0 -53.5 -20t-47.5 -78zM297 506h403l-200 600z" />
<glyph unicode="&#xc4;" horiz-adv-x="1236" d="M-57 0v43h139l487 1407h66l469 -1407h151l2 -43h-591v43h190l-141 418h-434l-140 -418h189v-43h-387zM260 1708q0 44 33 75.5t76 31.5q47 0 78.5 -32.5t31.5 -80.5q0 -44 -34 -73.5t-78 -29.5t-75.5 32.5t-31.5 76.5zM297 506h403l-200 600zM721 1708q0 44 32.5 75.5 t75.5 31.5q47 0 79 -33t32 -80q0 -44 -34 -73.5t-79 -29.5q-44 0 -75 32t-31 77z" />
<glyph unicode="&#xc5;" horiz-adv-x="1236" d="M-57 0v43h139l487 1407h66l469 -1407h151l2 -43h-591v43h190l-141 418h-434l-140 -418h189v-43h-387zM297 506h403l-200 600zM430 1686q0 69 48.5 118t117.5 49q68 0 117 -48t49 -117q0 -70 -48.5 -119t-117.5 -49t-117.5 48.5t-48.5 117.5zM485 1686q0 -47 32.5 -82 t78.5 -35q44 0 77.5 35t33.5 82q0 49 -32.5 83.5t-78.5 34.5t-78.5 -34.5t-32.5 -83.5z" />
<glyph unicode="&#xc6;" horiz-adv-x="1835" d="M-18 0v43h165l658 1362h-215v41h1126l15 -404h-29l-14 68q-34 167 -156 244q-57 35 -124 43t-226 8h-97v-647h117q107 0 151 64t44 182v16h37v-592h-39v27q0 41 -4.5 74t-12 58t-20.5 44t-25.5 32t-33 22t-36.5 13.5t-41.5 7t-43.5 3t-48 0.5h-45v-666h211q63 0 99.5 2 t80.5 10t73 24t59 45.5t55 72.5q16 27 27.5 52t21 52.5t15 45.5t15 54t15.5 56h25l-25 -457h-1089v43h188v412h-450l-199 -412h213v-43h-438zM430 508h426v876z" />
<glyph unicode="&#xc7;" horiz-adv-x="1236" d="M76 707q0 284 141 485q88 125 220.5 201.5t279.5 76.5q89 0 179 -32.5t159 -87.5l67 96h33l4 -377h-45q-21 84 -57.5 148t-76.5 101.5t-88 61t-89 31.5t-84 8q-193 0 -285 -149q-44 -69 -61 -176.5t-17 -282.5v-319q0 -95 12.5 -167.5t35.5 -118.5t47.5 -73t56.5 -49 q85 -59 199 -59q216 0 346 211q14 24 28.5 54t22.5 49.5t17 43.5t9 25h35l-8 -408h-33l-75 102q-65 -60 -156.5 -89.5t-169.5 -35.5l-29 -106q76 0 134.5 -37t58.5 -108q0 -46 -21.5 -82t-56 -56t-70 -29.5t-69.5 -9.5q-65 0 -115.5 37t-50.5 103q0 26 13.5 43.5t35.5 17.5 q47 0 47 -47q0 -11 -7 -32t-7 -29q0 -26 21.5 -39t54.5 -13q35 0 57 33.5t22 95.5q0 115 -104 119l37 137q-75 2 -146 26t-119.5 55t-93 73t-66.5 70t-40 55q-133 193 -133 453z" />
<glyph unicode="&#xc8;" horiz-adv-x="1236" d="M68 0v43h182v1362h-178v41h1036l16 -395h-30q-16 65 -31.5 110t-37.5 88t-48.5 69.5t-63 47.5t-84 30t-108.5 9h-248v-651h96q124 0 173 50.5t49 194.5v21h36v-594h-34v27q0 46 -4.5 82t-15 62.5t-22.5 45.5t-32.5 31t-38 19.5t-46.5 10.5t-51.5 4t-58.5 1h-51v-666h297 q113 0 175 24.5t108 104.5q23 40 43.5 94t29.5 84.5t29 100.5h27l-39 -451h-1075zM188 1778v37h318l270 -271l-22 -31z" />
<glyph unicode="&#xc9;" horiz-adv-x="1236" d="M68 0v43h182v1362h-178v41h1036l16 -395h-30q-16 65 -31.5 110t-37.5 88t-48.5 69.5t-63 47.5t-84 30t-108.5 9h-248v-651h96q124 0 173 50.5t49 194.5v21h36v-594h-34v27q0 46 -4.5 82t-15 62.5t-22.5 45.5t-32.5 31t-38 19.5t-46.5 10.5t-51.5 4t-58.5 1h-51v-666h297 q113 0 175 24.5t108 104.5q23 40 43.5 94t29.5 84.5t29 100.5h27l-39 -451h-1075zM498 1546l301 271h317v-37l-596 -264z" />
<glyph unicode="&#xca;" horiz-adv-x="1236" d="M68 0v43h182v1362h-178v41h1036l16 -395h-30q-16 65 -31.5 110t-37.5 88t-48.5 69.5t-63 47.5t-84 30t-108.5 9h-248v-651h96q124 0 173 50.5t49 194.5v21h36v-594h-34v27q0 46 -4.5 82t-15 62.5t-22.5 45.5t-32.5 31t-38 19.5t-46.5 10.5t-51.5 4t-58.5 1h-51v-666h297 q113 0 175 24.5t108 104.5q23 40 43.5 94t29.5 84.5t29 100.5h27l-39 -451h-1075zM326 1540l301 301h102l281 -303l-23 -22l-323 165l-318 -163z" />
<glyph unicode="&#xcb;" horiz-adv-x="1236" d="M68 0v43h182v1362h-178v41h1036l16 -395h-30q-16 65 -31.5 110t-37.5 88t-48.5 69.5t-63 47.5t-84 30t-108.5 9h-248v-651h96q124 0 173 50.5t49 194.5v21h36v-594h-34v27q0 46 -4.5 82t-15 62.5t-22.5 45.5t-32.5 31t-38 19.5t-46.5 10.5t-51.5 4t-58.5 1h-51v-666h297 q113 0 175 24.5t108 104.5q23 40 43.5 94t29.5 84.5t29 100.5h27l-39 -451h-1075zM274 1708q0 44 33 75.5t76 31.5q47 0 79 -33t32 -80q0 -44 -34 -73.5t-79 -29.5q-44 0 -75.5 32.5t-31.5 76.5zM735 1708q0 44 33 75.5t76 31.5q47 0 78.5 -32.5t31.5 -80.5q0 -44 -34 -73.5 t-78 -29.5t-75.5 32.5t-31.5 76.5z" />
<glyph unicode="&#xcc;" horiz-adv-x="724" d="M-66 1778v37h318l270 -271l-22 -31zM68 0v43h178v1362h-178v41h596v-41h-181v-1362h181v-43h-596z" />
<glyph unicode="&#xcd;" horiz-adv-x="724" d="M68 0v43h178v1362h-178v41h596v-41h-181v-1362h181v-43h-596zM178 1546l301 271h318v-37l-596 -264z" />
<glyph unicode="&#xce;" horiz-adv-x="724" d="M27 1540l301 301h102l281 -303l-23 -22l-323 165l-318 -163zM68 0v43h178v1362h-178v41h596v-41h-181v-1362h181v-43h-596z" />
<glyph unicode="&#xcf;" horiz-adv-x="724" d="M18 1708q0 44 33 75.5t76 31.5q47 0 79 -33t32 -80q0 -44 -34 -73.5t-79 -29.5q-44 0 -75.5 32.5t-31.5 76.5zM68 0v43h178v1362h-178v41h596v-41h-181v-1362h181v-43h-596zM479 1708q0 44 33 75.5t76 31.5q47 0 78.5 -32.5t31.5 -80.5q0 -44 -34 -73.5t-78 -29.5 t-75.5 32.5t-31.5 76.5z" />
<glyph unicode="&#xd0;" horiz-adv-x="1449" d="M61 782v62h185v561h-172v41h514q173 0 270.5 -18.5t181.5 -67.5q32 -18 66.5 -43.5t85 -80.5t88 -121t65 -168t27.5 -218q0 -193 -70.5 -339.5t-177.5 -239.5q-105 -92 -218 -121t-279 -29h-564v43h183v739h-185zM481 45h135q41 0 68.5 1t70.5 5.5t74.5 13t69.5 25.5 t65.5 40.5t53.5 59.5t43 82q21 58 31 198.5t10 272.5q0 245 -23 363q-9 46 -20 79t-33 69.5t-60 65.5t-92 50q-84 33 -272 33h-121v-559h334v-62h-334v-737z" />
<glyph unicode="&#xd1;" horiz-adv-x="1409" d="M57 0v43h187v1362h-181v41h455l653 -1012v971h-172v41h383v-41h-159v-1405h-39l-887 1356v-1313h190v-43h-430zM408 1556q81 220 215 220q52 0 147 -41l78 -35q84 -35 117 -35q31 0 51.5 20.5t48.5 77.5l37 -14q-46 -116 -95 -167.5t-114 -51.5q-54 0 -145 39l-89 37 q-12 5 -33.5 13t-32 12t-24.5 7.5t-24 3.5q-33 0 -53.5 -20t-47.5 -78z" />
<glyph unicode="&#xd2;" horiz-adv-x="1409" d="M76 723q0 258 127 453q20 31 43 60t71 74.5t100 78t129 57t159 24.5q237 0 417 -190q209 -217 209 -557q0 -265 -129 -457q-20 -30 -43.5 -59.5t-71 -74t-99.5 -77t-128.5 -56.5t-157.5 -24q-250 0 -436 213q-190 214 -190 535zM281 1778v37h317l270 -271l-22 -31z M350 717q0 -237 15 -367q4 -29 7.5 -49t18 -61.5t35.5 -71.5t61 -63t93 -52q63 -22 125 -22q28 0 59 4.5t74.5 21.5t79.5 43.5t68 76t46 114.5q27 122 27 411q0 209 -12 347q-7 89 -28 154.5t-73 117.5q-39 39 -94 62t-88 27.5t-62 4.5q-19 0 -43.5 -3t-66 -15.5 t-77.5 -33.5t-71.5 -62.5t-54.5 -96.5q-39 -111 -39 -487z" />
<glyph unicode="&#xd3;" horiz-adv-x="1409" d="M76 723q0 258 127 453q20 31 43 60t71 74.5t100 78t129 57t159 24.5q237 0 417 -190q209 -217 209 -557q0 -265 -129 -457q-20 -30 -43.5 -59.5t-71 -74t-99.5 -77t-128.5 -56.5t-157.5 -24q-250 0 -436 213q-190 214 -190 535zM350 717q0 -237 15 -367q4 -29 7.5 -49 t18 -61.5t35.5 -71.5t61 -63t93 -52q63 -22 125 -22q28 0 59 4.5t74.5 21.5t79.5 43.5t68 76t46 114.5q27 122 27 411q0 209 -12 347q-7 89 -28 154.5t-73 117.5q-39 39 -94 62t-88 27.5t-62 4.5q-19 0 -43.5 -3t-66 -15.5t-77.5 -33.5t-71.5 -62.5t-54.5 -96.5 q-39 -111 -39 -487zM539 1546l301 271h317v-37l-596 -264z" />
<glyph unicode="&#xd4;" horiz-adv-x="1409" d="M76 723q0 258 127 453q20 31 43 60t71 74.5t100 78t129 57t159 24.5q237 0 417 -190q209 -217 209 -557q0 -265 -129 -457q-20 -30 -43.5 -59.5t-71 -74t-99.5 -77t-128.5 -56.5t-157.5 -24q-250 0 -436 213q-190 214 -190 535zM350 717q0 -237 15 -367q4 -29 7.5 -49 t18 -61.5t35.5 -71.5t61 -63t93 -52q63 -22 125 -22q28 0 59 4.5t74.5 21.5t79.5 43.5t68 76t46 114.5q27 122 27 411q0 209 -12 347q-7 89 -28 154.5t-73 117.5q-39 39 -94 62t-88 27.5t-62 4.5q-19 0 -43.5 -3t-66 -15.5t-77.5 -33.5t-71.5 -62.5t-54.5 -96.5 q-39 -111 -39 -487zM365 1540l301 301h102l281 -303l-23 -22l-324 165l-317 -163z" />
<glyph unicode="&#xd5;" horiz-adv-x="1409" d="M76 723q0 258 127 453q20 31 43 60t71 74.5t100 78t129 57t159 24.5q237 0 417 -190q209 -217 209 -557q0 -265 -129 -457q-20 -30 -43.5 -59.5t-71 -74t-99.5 -77t-128.5 -56.5t-157.5 -24q-250 0 -436 213q-190 214 -190 535zM350 717q0 -237 15 -367q4 -29 7.5 -49 t18 -61.5t35.5 -71.5t61 -63t93 -52q63 -22 125 -22q28 0 59 4.5t74.5 21.5t79.5 43.5t68 76t46 114.5q27 122 27 411q0 209 -12 347q-7 89 -28 154.5t-73 117.5q-39 39 -94 62t-88 27.5t-62 4.5q-19 0 -43.5 -3t-66 -15.5t-77.5 -33.5t-71.5 -62.5t-54.5 -96.5 q-39 -111 -39 -487zM369 1556q81 220 215 220q52 0 147 -41l78 -35q84 -35 117 -35q31 0 51.5 20.5t48.5 77.5l37 -14q-46 -116 -95 -167.5t-114 -51.5q-54 0 -145 39l-88 37q-12 4 -33.5 12.5t-32.5 12.5t-25 7.5t-24 3.5q-33 0 -53 -20t-47 -78z" />
<glyph unicode="&#xd6;" horiz-adv-x="1409" d="M76 723q0 258 127 453q20 31 43 60t71 74.5t100 78t129 57t159 24.5q237 0 417 -190q209 -217 209 -557q0 -265 -129 -457q-20 -30 -43.5 -59.5t-71 -74t-99.5 -77t-128.5 -56.5t-157.5 -24q-250 0 -436 213q-190 214 -190 535zM350 717q0 -237 15 -367q4 -29 7.5 -49 t18 -61.5t35.5 -71.5t61 -63t93 -52q63 -22 125 -22q28 0 59 4.5t74.5 21.5t79.5 43.5t68 76t46 114.5q27 122 27 411q0 209 -12 347q-7 89 -28 154.5t-73 117.5q-39 39 -94 62t-88 27.5t-62 4.5q-19 0 -43.5 -3t-66 -15.5t-77.5 -33.5t-71.5 -62.5t-54.5 -96.5 q-39 -111 -39 -487zM365 1708q0 44 32.5 75.5t75.5 31.5q47 0 79 -33t32 -80q0 -44 -34 -73.5t-79 -29.5q-44 0 -75 32t-31 77zM825 1708q0 44 33 75.5t76 31.5q47 0 78.5 -32.5t31.5 -80.5q0 -44 -34 -73.5t-78 -29.5t-75.5 32.5t-31.5 76.5z" />
<glyph unicode="&#xd7;" horiz-adv-x="1482" d="M289 936l119 123l337 -334l326 330l107 -103l-326 -329l338 -334l-119 -123l-340 334l-325 -330l-105 102l326 330z" />
<glyph unicode="&#xd8;" horiz-adv-x="1409" d="M74 713q0 245 108 430q89 148 226 237.5t299 89.5q214 0 387 -159l77 106l41 -31l-79 -112q28 -34 43.5 -54t49.5 -75.5t53 -107.5t35.5 -134t16.5 -170q0 -270 -133 -463q-20 -31 -43 -60t-70.5 -74.5t-99.5 -78t-128 -56.5t-157 -24q-125 0 -211.5 40t-162.5 106 l-82 -117l-41 29l84 123q-213 224 -213 555zM346 719q0 -354 23 -445l655 938q-22 89 -117.5 146t-195.5 57q-31 0 -66 -6.5t-84 -25.5t-93 -63.5t-69 -109.5q-53 -138 -53 -491zM389 213q90 -182 297 -182q157 0 250 96q70 70 95.5 228t25.5 503q0 178 -13 289z" />
<glyph unicode="&#xd9;" horiz-adv-x="1366" d="M29 1405v41h587v-41h-186v-967q0 -49 1.5 -82t9.5 -76.5t21.5 -75t39.5 -64t63 -56.5q88 -59 205 -59q113 0 199 61q39 28 66.5 65.5t41.5 72.5t22 84.5t9.5 85t1.5 89.5v922h-180v41h387v-41h-158v-940q0 -63 -4 -109t-16.5 -100t-40 -99.5t-70.5 -82.5 q-112 -99 -315 -99q-22 0 -44.5 1t-73 8.5t-94 21t-95 42t-87.5 67.5q-110 115 -110 334v956h-180zM252 1778v37h317l271 -271l-23 -31z" />
<glyph unicode="&#xda;" horiz-adv-x="1366" d="M29 1405v41h587v-41h-186v-967q0 -49 1.5 -82t9.5 -76.5t21.5 -75t39.5 -64t63 -56.5q88 -59 205 -59q113 0 199 61q39 28 66.5 65.5t41.5 72.5t22 84.5t9.5 85t1.5 89.5v922h-180v41h387v-41h-158v-940q0 -63 -4 -109t-16.5 -100t-40 -99.5t-70.5 -82.5 q-112 -99 -315 -99q-22 0 -44.5 1t-73 8.5t-94 21t-95 42t-87.5 67.5q-110 115 -110 334v956h-180zM541 1546l301 271h317v-37l-596 -264z" />
<glyph unicode="&#xdb;" horiz-adv-x="1366" d="M29 1405v41h587v-41h-186v-967q0 -49 1.5 -82t9.5 -76.5t21.5 -75t39.5 -64t63 -56.5q88 -59 205 -59q113 0 199 61q39 28 66.5 65.5t41.5 72.5t22 84.5t9.5 85t1.5 89.5v922h-180v41h387v-41h-158v-940q0 -63 -4 -109t-16.5 -100t-40 -99.5t-70.5 -82.5 q-112 -99 -315 -99q-22 0 -44.5 1t-73 8.5t-94 21t-95 42t-87.5 67.5q-110 115 -110 334v956h-180zM350 1540l301 301h103l280 -303l-22 -22l-324 165l-317 -163z" />
<glyph unicode="&#xdc;" horiz-adv-x="1366" d="M29 1405v41h587v-41h-186v-967q0 -49 1.5 -82t9.5 -76.5t21.5 -75t39.5 -64t63 -56.5q88 -59 205 -59q113 0 199 61q39 28 66.5 65.5t41.5 72.5t22 84.5t9.5 85t1.5 89.5v922h-180v41h387v-41h-158v-940q0 -63 -4 -109t-16.5 -100t-40 -99.5t-70.5 -82.5 q-112 -99 -315 -99q-22 0 -44.5 1t-73 8.5t-94 21t-95 42t-87.5 67.5q-110 115 -110 334v956h-180zM406 1708q0 44 32.5 75.5t75.5 31.5q47 0 79 -33t32 -80q0 -44 -34 -73.5t-79 -29.5q-44 0 -75 32t-31 77zM866 1708q0 44 33 75.5t76 31.5q47 0 78.5 -32.5t31.5 -80.5 q0 -44 -34 -73.5t-78 -29.5t-75.5 32.5t-31.5 76.5z" />
<glyph unicode="&#xdd;" horiz-adv-x="1323" d="M12 1405v41h566v-41h-185l369 -635l332 635h-213v41h419v-41h-147l-373 -721v-641h211v-43h-641v43h203v639l-426 723h-115zM526 1546l301 271h318v-37l-596 -264z" />
<glyph unicode="&#xde;" horiz-adv-x="1236" d="M61 1405v41h603v-41h-187v-254h187q72 0 119 -3.5t115.5 -17t125.5 -47t102 -86.5q80 -96 80 -209q0 -135 -84 -231q-40 -45 -94 -76.5t-101 -47t-112.5 -23.5t-104 -9.5t-100.5 -1.5h-133v-356h185v-43h-594v43h180v1362h-187zM477 449h215q88 0 151 37.5t85 119.5 q16 63 16 176q0 46 -2 78.5t-8.5 68.5t-18.5 60.5t-32.5 48.5t-50 37.5t-72 22t-96.5 8.5h-187v-657z" />
<glyph unicode="&#xdf;" horiz-adv-x="1067" d="M39 0v43h139v844q0 204 47 321q11 27 23.5 51t43.5 65.5t66.5 71t92.5 52t122 22.5q99 0 149 -46.5t50 -104.5q0 -42 -27.5 -71t-68.5 -29q-11 0 -23.5 2.5t-30.5 10.5t-30 28t-12 49q0 25 12 48t12 36q0 15 -12 26t-35 11q-32 0 -60.5 -16.5t-47 -43.5t-26 -40 t-13.5 -27q-43 -108 -43 -306v-274q11 16 29.5 34t58.5 47t106.5 47.5t145.5 18.5q125 0 187 -50t62 -126q0 -38 -14.5 -68.5t-35.5 -49.5t-51.5 -33t-55.5 -20.5t-54.5 -10t-41.5 -4t-23 -0.5q128 -5 222.5 -77t94.5 -185q0 -103 -82.5 -180.5t-195.5 -77.5 q-79 0 -147 46.5t-68 123.5q0 50 30.5 71t59.5 21q14 0 31 -5.5t35 -27t18 -55.5q0 -33 -18.5 -62.5t-18.5 -33.5q0 -11 17.5 -24t41.5 -13q28 0 49 21t31.5 54t15.5 66t5 66q0 70 -25 137t-80 94q-41 20 -125 20h-32v43h36q28 0 57.5 8t59.5 24.5t49 49.5t19 76 q0 17 -5 35.5t-17.5 40t-40 35.5t-66.5 14q-21 0 -51.5 -5.5t-78 -29t-75.5 -61.5q-61 -82 -61 -250v-424h96v-43h-422z" />
<glyph unicode="&#xe0;" d="M76 176q0 55 21.5 100t54.5 75t80.5 52t93 34t98.5 19t89 9t73 2v207q0 153 -146 153q-62 0 -114 -29.5t-52 -58.5q0 -10 21.5 -40t21.5 -56q0 -38 -28.5 -64t-65.5 -26q-40 0 -65 29.5t-25 68.5q0 78 96.5 147.5t243.5 69.5q87 0 170.5 -34.5t114.5 -104.5 q18 -45 18 -149v-451q0 -22 1 -35.5t5.5 -28.5t14.5 -22.5t26 -7.5q13 0 29 9.5t26 18.5l9 9l24 -29q-68 -68 -155 -68q-50 0 -86.5 18t-54 47t-25 54t-8.5 49q-13 -25 -32 -49t-51.5 -53.5t-82.5 -47.5t-109 -18q-98 0 -164.5 54t-66.5 147zM150 1364v35h219l198 -371 l-28 -16zM268 213q0 -70 37.5 -106.5t91.5 -36.5q62 0 115 47q45 43 59.5 103.5t14.5 152.5v57q-63 0 -116.5 -10.5t-100.5 -34.5t-74 -68t-27 -104z" />
<glyph unicode="&#xe1;" d="M76 176q0 55 21.5 100t54.5 75t80.5 52t93 34t98.5 19t89 9t73 2v207q0 153 -146 153q-62 0 -114 -29.5t-52 -58.5q0 -10 21.5 -40t21.5 -56q0 -38 -28.5 -64t-65.5 -26q-40 0 -65 29.5t-25 68.5q0 78 96.5 147.5t243.5 69.5q87 0 170.5 -34.5t114.5 -104.5 q18 -45 18 -149v-451q0 -22 1 -35.5t5.5 -28.5t14.5 -22.5t26 -7.5q13 0 29 9.5t26 18.5l9 9l24 -29q-68 -68 -155 -68q-50 0 -86.5 18t-54 47t-25 54t-8.5 49q-13 -25 -32 -49t-51.5 -53.5t-82.5 -47.5t-109 -18q-98 0 -164.5 54t-66.5 147zM268 213q0 -70 37.5 -106.5 t91.5 -36.5q62 0 115 47q45 43 59.5 103.5t14.5 152.5v57q-63 0 -116.5 -10.5t-100.5 -34.5t-74 -68t-27 -104zM350 1026l213 373h217v-35l-401 -352z" />
<glyph unicode="&#xe2;" d="M76 176q0 55 21.5 100t54.5 75t80.5 52t93 34t98.5 19t89 9t73 2v207q0 153 -146 153q-62 0 -114 -29.5t-52 -58.5q0 -10 21.5 -40t21.5 -56q0 -38 -28.5 -64t-65.5 -26q-40 0 -65 29.5t-25 68.5q0 78 96.5 147.5t243.5 69.5q87 0 170.5 -34.5t114.5 -104.5 q18 -45 18 -149v-451q0 -22 1 -35.5t5.5 -28.5t14.5 -22.5t26 -7.5q13 0 29 9.5t26 18.5l9 9l24 -29q-68 -68 -155 -68q-50 0 -86.5 18t-54 47t-25 54t-8.5 49q-13 -25 -32 -49t-51.5 -53.5t-82.5 -47.5t-109 -18q-98 0 -164.5 54t-66.5 147zM170 1032l244 367h100l227 -369 l-28 -16l-258 227l-260 -225zM268 213q0 -70 37.5 -106.5t91.5 -36.5q62 0 115 47q45 43 59.5 103.5t14.5 152.5v57q-63 0 -116.5 -10.5t-100.5 -34.5t-74 -68t-27 -104z" />
<glyph unicode="&#xe3;" d="M76 176q0 55 21.5 100t54.5 75t80.5 52t93 34t98.5 19t89 9t73 2v207q0 153 -146 153q-62 0 -114 -29.5t-52 -58.5q0 -10 21.5 -40t21.5 -56q0 -38 -28.5 -64t-65.5 -26q-40 0 -65 29.5t-25 68.5q0 78 96.5 147.5t243.5 69.5q87 0 170.5 -34.5t114.5 -104.5 q18 -45 18 -149v-451q0 -22 1 -35.5t5.5 -28.5t14.5 -22.5t26 -7.5q13 0 29 9.5t26 18.5l9 9l24 -29q-68 -68 -155 -68q-50 0 -86.5 18t-54 47t-25 54t-8.5 49q-13 -25 -32 -49t-51.5 -53.5t-82.5 -47.5t-109 -18q-98 0 -164.5 54t-66.5 147zM129 1143q44 114 93 162.5 t120 48.5q53 0 129 -37l86 -41q10 -4 26 -12t23 -11t19 -5.5t24 -2.5q29 0 50.5 18t50.5 74l36 -16q-43 -111 -91.5 -161t-112.5 -50q-50 0 -138 43l-79 39q-65 31 -101 31q-31 0 -51 -20t-45 -75zM268 213q0 -70 37.5 -106.5t91.5 -36.5q62 0 115 47q45 43 59.5 103.5 t14.5 152.5v57q-63 0 -116.5 -10.5t-100.5 -34.5t-74 -68t-27 -104z" />
<glyph unicode="&#xe4;" d="M76 176q0 55 21.5 100t54.5 75t80.5 52t93 34t98.5 19t89 9t73 2v207q0 153 -146 153q-62 0 -114 -29.5t-52 -58.5q0 -10 21.5 -40t21.5 -56q0 -38 -28.5 -64t-65.5 -26q-40 0 -65 29.5t-25 68.5q0 78 96.5 147.5t243.5 69.5q87 0 170.5 -34.5t114.5 -104.5 q18 -45 18 -149v-451q0 -22 1 -35.5t5.5 -28.5t14.5 -22.5t26 -7.5q13 0 29 9.5t26 18.5l9 9l24 -29q-68 -68 -155 -68q-50 0 -86.5 18t-54 47t-25 54t-8.5 49q-13 -25 -32 -49t-51.5 -53.5t-82.5 -47.5t-109 -18q-98 0 -164.5 54t-66.5 147zM152 1194q0 46 32 78.5t78 32.5 t78.5 -32.5t32.5 -78.5t-32.5 -78.5t-78.5 -32.5t-78 32.5t-32 78.5zM268 213q0 -70 37.5 -106.5t91.5 -36.5q62 0 115 47q45 43 59.5 103.5t14.5 152.5v57q-63 0 -116.5 -10.5t-100.5 -34.5t-74 -68t-27 -104zM561 1194q0 46 32.5 78.5t78.5 32.5t78 -32.5t32 -78.5 t-32 -78.5t-78 -32.5t-78.5 32.5t-32.5 78.5z" />
<glyph unicode="&#xe5;" d="M76 176q0 55 21.5 100t54.5 75t80.5 52t93 34t98.5 19t89 9t73 2v207q0 153 -146 153q-62 0 -114 -29.5t-52 -58.5q0 -10 21.5 -40t21.5 -56q0 -38 -28.5 -64t-65.5 -26q-40 0 -65 29.5t-25 68.5q0 78 96.5 147.5t243.5 69.5q87 0 170.5 -34.5t114.5 -104.5 q18 -45 18 -149v-451q0 -22 1 -35.5t5.5 -28.5t14.5 -22.5t26 -7.5q13 0 29 9.5t26 18.5l9 9l24 -29q-68 -68 -155 -68q-50 0 -86.5 18t-54 47t-25 54t-8.5 49q-13 -25 -32 -49t-51.5 -53.5t-82.5 -47.5t-109 -18q-98 0 -164.5 54t-66.5 147zM268 213q0 -70 37.5 -106.5 t91.5 -36.5q62 0 115 47q45 43 59.5 103.5t14.5 152.5v57q-63 0 -116.5 -10.5t-100.5 -34.5t-74 -68t-27 -104zM305 1210q0 64 45.5 110t110.5 46q64 0 110.5 -45.5t46.5 -108.5q0 -64 -46 -110.5t-109 -46.5q-65 0 -111.5 45.5t-46.5 109.5zM360 1210q0 -43 30 -73.5 t71 -30.5t70.5 30.5t29.5 71.5q0 46 -29.5 77.5t-70.5 31.5t-71 -32t-30 -75z" />
<glyph unicode="&#xe6;" horiz-adv-x="1366" d="M80 176q0 56 37.5 117t124.5 106q76 38 144 51.5t169 16.5v195q0 34 -3 56t-14.5 47.5t-38.5 38.5t-69 13q-55 0 -104.5 -25.5t-49.5 -48.5q0 -4 20.5 -36t20.5 -64q0 -38 -27 -65t-65 -27q-39 0 -62.5 26.5t-23.5 67.5q0 67 52.5 119.5t125 78t144.5 25.5q147 0 241 -96 q22 26 44.5 44t70.5 35t109 17q19 0 39.5 -2t56.5 -11t68.5 -23.5t69.5 -44t64.5 -68.5t48.5 -100t27 -136h-552v-176q0 -287 204 -287q56 0 104.5 24.5t77.5 55.5t53.5 74.5t32.5 65t15 43.5l47 -2q-12 -61 -39.5 -115t-69 -97t-101.5 -68.5t-130 -25.5q-120 0 -218.5 70 t-127.5 143q-30 -100 -109 -156.5t-180 -56.5q-92 0 -159.5 55.5t-67.5 145.5zM276 217q0 -75 39 -108t84 -33q51 0 93 37q39 33 51 84.5t12 158.5v70q-74 -5 -128.5 -23.5t-82.5 -41t-44.5 -52.5t-20 -50t-3.5 -42zM745 532h326v89q0 26 -1.5 46t-10 51.5t-24 52t-47 36.5 t-75.5 16q-52 0 -87 -17t-51.5 -48t-23 -62.5t-6.5 -70.5v-93z" />
<glyph unicode="&#xe7;" horiz-adv-x="894" d="M82 416q0 148 82 264q20 28 47 54.5t71.5 59.5t108.5 53.5t135 20.5q121 0 214.5 -64.5t93.5 -158.5q0 -36 -12.5 -60.5t-32 -34.5t-34 -14t-26.5 -4q-43 0 -69.5 32t-26.5 77q0 30 12.5 54t25.5 39t13 24q0 22 -47.5 44.5t-110.5 22.5q-154 0 -196 -139 q-25 -89 -25 -332q0 -114 11 -173.5t44 -98.5q57 -62 150 -62q58 0 113 21q55 24 108 79.5t78 151.5h53q-19 -100 -82 -174q-102 -116 -264 -123l-29 -100q75 0 132 -36t57 -105q0 -45 -21 -79.5t-54.5 -53.5t-68.5 -28t-69 -9q-64 0 -113 35.5t-49 99.5q0 24 13.5 41.5 t35.5 17.5q45 0 45 -45q0 -11 -7 -32t-7 -27q0 -26 21 -38.5t53 -12.5q35 0 57.5 33t22.5 92q0 112 -103 116l35 133q-126 9 -221 89q-164 134 -164 350z" />
<glyph unicode="&#xe8;" d="M82 416q0 141 74 254q19 28 42 54.5t65.5 63t103 58.5t129.5 22q156 0 262 -106q105 -105 112 -270h-563v-162q0 -88 6 -134t27 -83q51 -90 168 -90q106 0 189.5 73.5t103.5 186.5l51 -2q-20 -79 -35 -109q-11 -21 -25.5 -42t-43 -50.5t-61.5 -51.5t-82.5 -37.5 t-104.5 -15.5q-139 0 -262 103q-156 136 -156 338zM184 1364v35h219l199 -371l-29 -16zM307 535h336v79q0 32 -1.5 52t-10 53.5t-24 53t-47.5 35t-77 15.5q-87 0 -131.5 -51t-44.5 -137v-100z" />
<glyph unicode="&#xe9;" d="M82 416q0 141 74 254q19 28 42 54.5t65.5 63t103 58.5t129.5 22q156 0 262 -106q105 -105 112 -270h-563v-162q0 -88 6 -134t27 -83q51 -90 168 -90q106 0 189.5 73.5t103.5 186.5l51 -2q-20 -79 -35 -109q-11 -21 -25.5 -42t-43 -50.5t-61.5 -51.5t-82.5 -37.5 t-104.5 -15.5q-139 0 -262 103q-156 136 -156 338zM307 535h336v79q0 32 -1.5 52t-10 53.5t-24 53t-47.5 35t-77 15.5q-87 0 -131.5 -51t-44.5 -137v-100zM385 1026l213 373h217v-35l-401 -352z" />
<glyph unicode="&#xea;" d="M82 416q0 141 74 254q19 28 42 54.5t65.5 63t103 58.5t129.5 22q156 0 262 -106q105 -105 112 -270h-563v-162q0 -88 6 -134t27 -83q51 -90 168 -90q106 0 189.5 73.5t103.5 186.5l51 -2q-20 -79 -35 -109q-11 -21 -25.5 -42t-43 -50.5t-61.5 -51.5t-82.5 -37.5 t-104.5 -15.5q-139 0 -262 103q-156 136 -156 338zM188 1032l244 367h100l228 -369l-29 -16l-258 227l-260 -225zM307 535h336v79q0 32 -1.5 52t-10 53.5t-24 53t-47.5 35t-77 15.5q-87 0 -131.5 -51t-44.5 -137v-100z" />
<glyph unicode="&#xeb;" d="M82 416q0 141 74 254q19 28 42 54.5t65.5 63t103 58.5t129.5 22q156 0 262 -106q105 -105 112 -270h-563v-162q0 -88 6 -134t27 -83q51 -90 168 -90q106 0 189.5 73.5t103.5 186.5l51 -2q-20 -79 -35 -109q-11 -21 -25.5 -42t-43 -50.5t-61.5 -51.5t-82.5 -37.5 t-104.5 -15.5q-139 0 -262 103q-156 136 -156 338zM174 1194q0 46 32.5 78.5t78.5 32.5t78 -32.5t32 -78.5t-32 -78.5t-78 -32.5t-78.5 32.5t-32.5 78.5zM307 535h336v79q0 32 -1.5 52t-10 53.5t-24 53t-47.5 35t-77 15.5q-87 0 -131.5 -51t-44.5 -137v-100zM584 1194 q0 46 32 78.5t78 32.5t78.5 -32.5t32.5 -78.5t-32.5 -78.5t-78.5 -32.5t-78 32.5t-32 78.5z" />
<glyph unicode="&#xec;" horiz-adv-x="555" d="M-53 1364v35h219l199 -371l-29 -16zM39 0v43h141v758h-139v43h332v-801h133v-43h-467z" />
<glyph unicode="&#xed;" horiz-adv-x="555" d="M39 0v43h141v758h-139v43h332v-801h133v-43h-467zM117 1026l213 373h217v-35l-402 -352z" />
<glyph unicode="&#xee;" horiz-adv-x="555" d="M-25 1032l244 367h100l228 -369l-29 -16l-258 227l-260 -225zM39 0v43h141v758h-139v43h332v-801h133v-43h-467z" />
<glyph unicode="&#xef;" horiz-adv-x="555" d="M-39 1194q0 46 32.5 78.5t78.5 32.5t78 -32.5t32 -78.5t-32 -78.5t-78 -32.5t-78.5 32.5t-32.5 78.5zM39 0v43h141v758h-139v43h332v-801h133v-43h-467zM371 1194q0 46 32 78.5t78 32.5t78.5 -32.5t32.5 -78.5t-32.5 -78.5t-78.5 -32.5t-78 32.5t-32 78.5z" />
<glyph unicode="&#xf0;" horiz-adv-x="1024" d="M74 434q0 141 71 246q35 52 80.5 90.5t83 57t79.5 29.5t64 13t42 2q119 0 200 -55q-7 96 -31.5 179t-52.5 130l-278 -75l-15 49l271 71q-92 154 -219 256l30 35q77 -44 119 -70.5t101.5 -76t105.5 -107.5l178 49l15 -49l-160 -43q53 -70 91.5 -151.5t57 -145t29 -133 t12.5 -103.5t2 -69q0 -130 -28 -233.5t-72 -168t-103.5 -107.5t-119 -60t-121.5 -17q-110 0 -214 56t-167 176q-51 98 -51 225zM293 340q0 -100 17.5 -162.5t66.5 -105.5q55 -49 141 -49q20 0 41.5 4t54.5 16.5t60 44.5t39 80q16 57 16 238v36q0 40 -1 66t-3.5 65t-9 66 t-16.5 59t-26.5 52.5t-39 39.5t-54.5 28t-71 9q-109 0 -166 -75q-49 -64 -49 -207v-205z" />
<glyph unicode="&#xf1;" horiz-adv-x="1110" d="M49 0v43h133v758h-133v43h328v-123q42 59 100.5 94.5t98 44t77.5 8.5q23 0 50 -4.5t68 -18t78 -46t58 -80.5q12 -27 17.5 -58t6.5 -52t1 -62v-504h135v-43h-459v43h129v610q0 66 -31 111t-100 45q-53 0 -103.5 -31.5t-78.5 -79.5q-47 -81 -47 -266v-389h137v-43h-465z M221 1143q44 114 93 162.5t120 48.5q53 0 129 -37l86 -41q10 -4 26 -12t23 -11t19 -5.5t24 -2.5q29 0 50.5 18t50.5 74l37 -16q-43 -110 -92 -160.5t-113 -50.5q-49 0 -137 43l-80 39q-65 31 -101 31q-31 0 -51 -20t-45 -75z" />
<glyph unicode="&#xf2;" horiz-adv-x="1024" d="M76 422q0 160 100 283q20 25 46.5 48.5t69 52t101 45.5t123.5 17q69 0 140 -24t126 -70q166 -142 166 -352q0 -204 -149 -336q-122 -111 -285 -111q-137 0 -250 82q-29 21 -56 47.5t-59.5 71t-52.5 109t-20 137.5zM215 1364v35h219l199 -371l-29 -16zM303 279 q0 -143 72 -207q58 -49 141 -49q90 0 141 53q60 60 60 237v260q0 132 -58 195q-50 53 -143 53q-85 0 -141 -49q-47 -43 -59.5 -95.5t-12.5 -146.5v-251z" />
<glyph unicode="&#xf3;" horiz-adv-x="1024" d="M76 422q0 160 100 283q20 25 46.5 48.5t69 52t101 45.5t123.5 17q69 0 140 -24t126 -70q166 -142 166 -352q0 -204 -149 -336q-122 -111 -285 -111q-137 0 -250 82q-29 21 -56 47.5t-59.5 71t-52.5 109t-20 137.5zM303 279q0 -143 72 -207q58 -49 141 -49q90 0 141 53 q60 60 60 237v260q0 132 -58 195q-50 53 -143 53q-85 0 -141 -49q-47 -43 -59.5 -95.5t-12.5 -146.5v-251zM385 1026l213 373h217v-35l-401 -352z" />
<glyph unicode="&#xf4;" horiz-adv-x="1024" d="M76 422q0 160 100 283q20 25 46.5 48.5t69 52t101 45.5t123.5 17q69 0 140 -24t126 -70q166 -142 166 -352q0 -204 -149 -336q-122 -111 -285 -111q-137 0 -250 82q-29 21 -56 47.5t-59.5 71t-52.5 109t-20 137.5zM227 1032l244 367h100l228 -369l-29 -16l-258 227 l-260 -225zM303 279q0 -143 72 -207q58 -49 141 -49q90 0 141 53q60 60 60 237v260q0 132 -58 195q-50 53 -143 53q-85 0 -141 -49q-47 -43 -59.5 -95.5t-12.5 -146.5v-251z" />
<glyph unicode="&#xf5;" horiz-adv-x="1024" d="M76 422q0 160 100 283q20 25 46.5 48.5t69 52t101 45.5t123.5 17q69 0 140 -24t126 -70q166 -142 166 -352q0 -204 -149 -336q-122 -111 -285 -111q-137 0 -250 82q-29 21 -56 47.5t-59.5 71t-52.5 109t-20 137.5zM188 1143q44 114 93 162.5t120 48.5q53 0 129 -37 l86 -41q9 -4 26 -12t24 -10.5t19 -5.5t24 -3q29 0 49.5 18t50.5 74l37 -16q-43 -110 -92 -160.5t-113 -50.5q-49 0 -137 43l-80 39q-65 31 -100 31q-31 0 -51.5 -20t-45.5 -75zM303 279q0 -143 72 -207q58 -49 141 -49q90 0 141 53q60 60 60 237v260q0 132 -58 195 q-50 53 -143 53q-85 0 -141 -49q-47 -43 -59.5 -95.5t-12.5 -146.5v-251z" />
<glyph unicode="&#xf6;" horiz-adv-x="1024" d="M76 422q0 160 100 283q20 25 46.5 48.5t69 52t101 45.5t123.5 17q69 0 140 -24t126 -70q166 -142 166 -352q0 -204 -149 -336q-122 -111 -285 -111q-137 0 -250 82q-29 21 -56 47.5t-59.5 71t-52.5 109t-20 137.5zM199 1194q0 46 32 78.5t78 32.5t78.5 -32.5t32.5 -78.5 t-32.5 -78.5t-78.5 -32.5t-78 32.5t-32 78.5zM303 279q0 -143 72 -207q58 -49 141 -49q90 0 141 53q60 60 60 237v260q0 132 -58 195q-50 53 -143 53q-85 0 -141 -49q-47 -43 -59.5 -95.5t-12.5 -146.5v-251zM608 1194q0 46 32.5 78.5t78.5 32.5t78 -32.5t32 -78.5 t-32 -78.5t-78 -32.5t-78.5 32.5t-32.5 78.5z" />
<glyph unicode="&#xf7;" horiz-adv-x="1482" d="M162 532v160h1159v-160h-1159zM627 281q0 47 33.5 80.5t80.5 33.5t80 -32.5t33 -83.5q0 -47 -32 -79t-79 -32q-49 0 -82.5 33t-33.5 80zM627 946q0 47 33.5 81t80.5 34t80 -33t33 -84q0 -47 -32 -78.5t-79 -31.5q-49 0 -82.5 32.5t-33.5 79.5z" />
<glyph unicode="&#xf8;" horiz-adv-x="1024" d="M74 420q0 115 56 217.5t158.5 166.5t225.5 64q148 0 244 -77l67 96l37 -25l-65 -100q151 -139 151 -340q0 -162 -100 -285q-137 -162 -334 -162q-115 0 -227 66l-86 -121l-39 21l86 127q-174 149 -174 352zM299 397q0 -173 14 -239l387 553q-14 36 -40 60t-55.5 33.5 t-49.5 13t-37 3.5q-115 0 -172 -88q-47 -71 -47 -336zM336 109q56 -86 178 -86q25 0 50 6t54.5 21t52 49.5t31.5 84.5q17 90 17 373q0 61 -4 92z" />
<glyph unicode="&#xf9;" horiz-adv-x="1110" d="M23 801v43h329v-596q0 -38 1.5 -62.5t9 -57t21.5 -51.5t40.5 -32.5t64.5 -13.5q64 0 119 31.5t84 87.5q41 78 41 307v344h-137v43h330v-801h137v-43h-330v113q-34 -56 -105.5 -97t-183.5 -41q-19 0 -39.5 2t-60 10.5t-77 31t-62.5 57.5q-23 33 -34.5 73.5t-13 68 t-1.5 79.5v504h-133zM193 1364v35h219l198 -371l-28 -16z" />
<glyph unicode="&#xfa;" horiz-adv-x="1110" d="M23 801v43h329v-596q0 -38 1.5 -62.5t9 -57t21.5 -51.5t40.5 -32.5t64.5 -13.5q64 0 119 31.5t84 87.5q41 78 41 307v344h-137v43h330v-801h137v-43h-330v113q-34 -56 -105.5 -97t-183.5 -41q-19 0 -39.5 2t-60 10.5t-77 31t-62.5 57.5q-23 33 -34.5 73.5t-13 68 t-1.5 79.5v504h-133zM379 1026l213 373h217v-35l-401 -352z" />
<glyph unicode="&#xfb;" horiz-adv-x="1110" d="M23 801v43h329v-596q0 -38 1.5 -62.5t9 -57t21.5 -51.5t40.5 -32.5t64.5 -13.5q64 0 119 31.5t84 87.5q41 78 41 307v344h-137v43h330v-801h137v-43h-330v113q-34 -56 -105.5 -97t-183.5 -41q-19 0 -39.5 2t-60 10.5t-77 31t-62.5 57.5q-23 33 -34.5 73.5t-13 68 t-1.5 79.5v504h-133zM236 1032l243 367h101l227 -369l-29 -16l-258 227l-260 -225z" />
<glyph unicode="&#xfc;" horiz-adv-x="1110" d="M23 801v43h329v-596q0 -38 1.5 -62.5t9 -57t21.5 -51.5t40.5 -32.5t64.5 -13.5q64 0 119 31.5t84 87.5q41 78 41 307v344h-137v43h330v-801h137v-43h-330v113q-34 -56 -105.5 -97t-183.5 -41q-19 0 -39.5 2t-60 10.5t-77 31t-62.5 57.5q-23 33 -34.5 73.5t-13 68 t-1.5 79.5v504h-133zM238 1194q0 46 32 78.5t78 32.5t78.5 -32.5t32.5 -78.5t-32.5 -78.5t-78.5 -32.5t-78 32.5t-32 78.5zM647 1194q0 46 32.5 78.5t78.5 32.5t78 -32.5t32 -78.5t-32 -78.5t-78 -32.5t-78.5 32.5t-32.5 78.5z" />
<glyph unicode="&#xfd;" d="M23 801v43h464v-43h-157l243 -561l203 561h-153v43h297v-43h-84l-433 -1172q-76 -215 -215 -215q-49 0 -84.5 31t-35.5 82q0 43 30.5 70.5t73.5 27.5q31 0 52.5 -11t30.5 -24.5t19.5 -24.5t20.5 -11q9 0 16 4.5t13.5 16.5t10 20t11 29t10.5 30l123 334l-364 813h-92z M397 1026l213 373h217v-35l-401 -352z" />
<glyph unicode="&#xfe;" horiz-adv-x="1067" d="M39 -537h133v1942h-131v41h328v-754q2 5 20.5 32t36.5 50q78 94 205 94q116 0 196 -67q56 -43 92.5 -99.5t50 -112.5t17.5 -87.5t4 -63.5q0 -51 -12.5 -110t-41.5 -122t-70 -114t-105 -84t-139 -33q-53 0 -97.5 17.5t-74.5 47.5t-49.5 60.5t-32.5 65.5v-703h157v-43h-487 v43zM375 408q0 -174 72 -279.5t155 -105.5q119 0 141 155q15 96 15 260v19q0 204 -19 266q-11 40 -42.5 70t-86.5 30q-60 0 -107 -38.5t-74 -100.5t-40.5 -132.5t-13.5 -143.5z" />
<glyph unicode="&#xff;" d="M23 801v43h464v-43h-157l243 -561l203 561h-153v43h297v-43h-84l-433 -1172q-76 -215 -215 -215q-49 0 -84.5 31t-35.5 82q0 43 30.5 70.5t73.5 27.5q31 0 52.5 -11t30.5 -24.5t19.5 -24.5t20.5 -11q9 0 16 4.5t13.5 16.5t10 20t11 29t10.5 30l123 334l-364 813h-92z M186 1194q0 46 32.5 78.5t78.5 32.5t78.5 -32.5t32.5 -78.5t-32.5 -78.5t-78.5 -32.5t-78.5 32.5t-32.5 78.5zM596 1194q0 46 32.5 78.5t78.5 32.5t78 -32.5t32 -78.5t-32 -78.5t-78 -32.5t-78.5 32.5t-32.5 78.5z" />
<glyph unicode="&#x152;" horiz-adv-x="1961" d="M78 713q0 229 106 415q63 106 152 181q185 155 436 155q77 0 174 -18h895l10 -404h-32q-8 42 -15.5 72.5t-22 70.5t-31.5 69t-44 57.5t-61 46.5q-56 29 -123 38t-203 9h-121v-645h105q27 0 47 2t46 9.5t44.5 20.5t35 37t25.5 58q8 31 10.5 47.5t3 39.5t3.5 48h38v-596 h-38q-2 30 -3 46t-3.5 42.5t-6 41.5t-9 37t-14 34.5t-19.5 28.5t-26 24.5t-34 17t-43 12t-53 3.5h-109v-670h234q120 0 196 19.5t129 89.5q22 29 41 67t32 75t21.5 67t14.5 56t6 27h31l-35 -444h-920q-99 -18 -180 -18q-47 0 -84 3.5t-99.5 16.5t-127.5 47.5t-125 87.5 q-66 59 -115.5 129.5t-75 130.5t-41 125.5t-19 107t-3.5 83.5zM358 659q0 -285 48 -413q22 -58 61.5 -100.5t77.5 -63t86 -32t73.5 -13.5t53.5 -2q104 0 205 28v1319q-6 1 -31 6.5t-45.5 9.5t-54 7.5t-64.5 3.5q-138 0 -223 -51.5t-125 -122.5q-62 -112 -62 -397v-179z" />
<glyph unicode="&#x153;" horiz-adv-x="1536" d="M82 410q0 119 55.5 224t155 169.5t219.5 64.5q76 0 156.5 -33t142.5 -106q109 139 279 139q144 0 251 -98q118 -109 121 -285h-555v-139q0 -188 45 -254q48 -74 164 -74q35 0 75 14t83 43.5t78.5 85.5t50.5 130h53q-19 -86 -59.5 -154.5t-116 -115t-174.5 -46.5 q-103 0 -185 44.5t-120 107.5q-40 -62 -117.5 -107t-183.5 -45q-119 0 -226 72q-192 135 -192 363zM309 346q0 -34 1 -58t5 -60.5t11.5 -62.5t22 -55.5t35 -47.5t52 -30t70.5 -12q57 0 96 23.5t55 50.5q37 59 37 197v287q0 247 -192 247q-193 0 -193 -264v-215zM905 532h332 v95q0 28 -2 50t-11.5 51t-25.5 48.5t-46.5 33t-72.5 13.5q-174 0 -174 -198v-93z" />
<glyph unicode="&#x178;" horiz-adv-x="1323" d="M12 1405v41h566v-41h-185l369 -635l332 635h-213v41h419v-41h-147l-373 -721v-641h211v-43h-641v43h203v639l-426 723h-115zM350 1708q0 44 33 75.5t76 31.5q47 0 78.5 -32.5t31.5 -80.5q0 -44 -34 -73.5t-78 -29.5t-75.5 32.5t-31.5 76.5zM811 1708q0 44 33 75.5 t76 31.5q47 0 78.5 -32.5t31.5 -80.5q0 -44 -34 -73.5t-78 -29.5t-75.5 32.5t-31.5 76.5z" />
<glyph unicode="&#x2c6;" horiz-adv-x="555" d="M-8 1032l244 367h100l227 -369l-28 -16l-259 227l-260 -225z" />
<glyph unicode="&#x2dc;" horiz-adv-x="555" d="M-51 1143q44 114 93 162.5t120 48.5q53 0 129 -37l86 -41q10 -4 26 -12t23 -11t19 -5.5t24 -2.5q29 0 49.5 18t50.5 74l37 -16q-43 -110 -92 -160.5t-113 -50.5q-49 0 -137 43l-80 39q-65 31 -100 31q-31 0 -51 -20t-45 -75z" />
<glyph unicode="&#x2000;" horiz-adv-x="926" />
<glyph unicode="&#x2001;" horiz-adv-x="1853" />
<glyph unicode="&#x2002;" horiz-adv-x="926" />
<glyph unicode="&#x2003;" horiz-adv-x="1853" />
<glyph unicode="&#x2004;" horiz-adv-x="617" />
<glyph unicode="&#x2005;" horiz-adv-x="463" />
<glyph unicode="&#x2006;" horiz-adv-x="308" />
<glyph unicode="&#x2007;" horiz-adv-x="308" />
<glyph unicode="&#x2008;" horiz-adv-x="231" />
<glyph unicode="&#x2009;" horiz-adv-x="370" />
<glyph unicode="&#x200a;" horiz-adv-x="102" />
<glyph unicode="&#x2010;" horiz-adv-x="724" d="M76 414v145h573v-145h-573z" />
<glyph unicode="&#x2011;" horiz-adv-x="724" d="M76 414v145h573v-145h-573z" />
<glyph unicode="&#x2012;" horiz-adv-x="724" d="M76 414v145h573v-145h-573z" />
<glyph unicode="&#x2013;" horiz-adv-x="1206" d="M76 414v145h1054v-145h-1054z" />
<glyph unicode="&#x2014;" horiz-adv-x="1732" d="M76 414v145h1581v-145h-1581z" />
<glyph unicode="&#x2018;" horiz-adv-x="468" d="M59 1096q0 74 34.5 147.5t92.5 132.5q41 43 97 82l32 -43q-78 -61 -120 -115q-74 -103 -74 -186q0 -75 53 -102q-2 12 -2 20q0 36 24.5 70.5t79.5 34.5q50 0 81.5 -32.5t31.5 -82.5q0 -62 -44 -98.5t-107 -36.5q-85 0 -132 61t-47 148z" />
<glyph unicode="&#x2019;" horiz-adv-x="468" d="M80 1323q0 62 44 98.5t107 36.5q85 0 132 -61t47 -148q0 -74 -34.5 -147.5t-92.5 -132.5q-41 -43 -97 -82l-32 43q80 62 120 114q74 103 74 187q0 75 -53 102q2 -12 2 -20q0 -36 -24.5 -70.5t-79.5 -34.5q-50 0 -81.5 32.5t-31.5 82.5z" />
<glyph unicode="&#x201a;" horiz-adv-x="468" d="M68 109q0 62 44 98.5t107 36.5q85 0 131.5 -60.5t46.5 -148.5q0 -74 -34.5 -148t-92.5 -133q-43 -45 -96 -82l-33 43q81 63 121 115q74 103 74 186q0 76 -53 103q2 -13 2 -21q0 -35 -25 -69.5t-80 -34.5q-50 0 -81 32.5t-31 82.5z" />
<glyph unicode="&#x201c;" d="M59 1096q0 74 34.5 147.5t92.5 132.5q41 43 97 82l32 -43q-78 -61 -120 -115q-74 -103 -74 -186q0 -75 53 -102q-2 12 -2 20q0 36 24.5 70.5t79.5 34.5q50 0 81.5 -32.5t31.5 -82.5q0 -62 -44 -98.5t-107 -36.5q-85 0 -132 61t-47 148zM528 1096q0 74 34.5 147.5 t92.5 132.5q41 43 97 82l32 -43q-78 -61 -120 -115q-74 -103 -74 -186q0 -75 53 -102q-2 12 -2 20q0 36 24.5 70.5t79.5 34.5q50 0 81.5 -32.5t31.5 -82.5q0 -62 -44 -98.5t-107 -36.5q-85 0 -132 61t-47 148z" />
<glyph unicode="&#x201d;" d="M80 1323q0 62 44 98.5t107 36.5q85 0 132 -61t47 -148q0 -74 -34.5 -147.5t-92.5 -132.5q-41 -43 -97 -82l-32 43q80 62 120 114q74 103 74 187q0 75 -53 102q2 -12 2 -20q0 -36 -24.5 -70.5t-79.5 -34.5q-50 0 -81.5 32.5t-31.5 82.5zM549 1323q0 62 44 98.5t107 36.5 q85 0 132 -61t47 -148q0 -74 -34.5 -147.5t-92.5 -132.5q-41 -43 -97 -82l-32 43q80 62 120 114q74 103 74 187q0 75 -53 102q2 -12 2 -20q0 -36 -24.5 -70.5t-79.5 -34.5q-50 0 -81.5 32.5t-31.5 82.5z" />
<glyph unicode="&#x201e;" d="M80 109q0 62 44 98.5t107 36.5q85 0 132 -61t47 -148q0 -74 -34.5 -148t-92.5 -133q-41 -43 -97 -82l-32 43q78 61 120 115q74 103 74 186q0 76 -53 103q2 -13 2 -21q0 -35 -24.5 -69.5t-79.5 -34.5q-50 0 -81.5 32.5t-31.5 82.5zM549 109q0 62 44 98.5t107 36.5 q85 0 132 -61t47 -148q0 -74 -34.5 -148t-92.5 -133q-41 -43 -97 -82l-32 43q78 61 120 115q74 103 74 186q0 76 -53 103q2 -13 2 -21q0 -35 -24.5 -69.5t-79.5 -34.5q-50 0 -81.5 32.5t-31.5 82.5z" />
<glyph unicode="&#x2022;" horiz-adv-x="538" d="M49 678q0 91 64 154t155 63q92 0 156.5 -63.5t64.5 -155.5q0 -94 -60.5 -154.5t-154.5 -60.5q-96 0 -160.5 62.5t-64.5 154.5z" />
<glyph unicode="&#x2026;" horiz-adv-x="2045" d="M242 84q0 40 28.5 69t69.5 29q39 0 67.5 -28t28.5 -70q0 -41 -27.5 -68.5t-68.5 -27.5t-69.5 27.5t-28.5 68.5zM924 84q0 40 28.5 69t69.5 29q39 0 67.5 -28t28.5 -70q0 -41 -27.5 -68.5t-68.5 -27.5t-69.5 27.5t-28.5 68.5zM1606 84q0 40 28.5 69t69.5 29q39 0 67.5 -28 t28.5 -70q0 -41 -27.5 -68.5t-68.5 -27.5t-69.5 27.5t-28.5 68.5z" />
<glyph unicode="&#x202f;" horiz-adv-x="370" />
<glyph unicode="&#x2039;" horiz-adv-x="468" d="M49 475l242 232h135l-242 -232l242 -223h-135z" />
<glyph unicode="&#x203a;" horiz-adv-x="468" d="M43 252l242 231l-240 224h133l242 -224l-242 -231h-135z" />
<glyph unicode="&#x205f;" horiz-adv-x="463" />
<glyph unicode="&#x20ac;" horiz-adv-x="1230" d="M51 575v56h156v26q0 56 8 146h-164v57h172q53 261 204 410t366 149q154 0 256 -69.5t102 -175.5q0 -56 -31 -89.5t-82 -33.5q-53 0 -82.5 35t-29.5 96q0 16 4 47t4 43q0 44 -41 73t-105 29q-160 0 -235 -119q-38 -57 -54 -133.5t-26 -261.5h485v-57h-489q-2 -47 -2 -96 q0 -43 2 -76h489v-56h-489v-34q0 -164 11 -240t42 -137q32 -63 98 -97t154 -34q138 0 227.5 78t118.5 223l54 -2q-81 -355 -426 -355q-230 0 -375 161.5t-162 436.5h-160z" />
<glyph unicode="&#x2122;" horiz-adv-x="1536" d="M47 1237q8 176 10 209h521l8 -209h-31q-22 107 -47 141.5t-82 34.5h-47v-616h106v-31h-335v31h104v616h-39q-63 0 -91.5 -37.5t-43.5 -138.5h-33zM633 766v31h102v616h-102v33h250l172 -492l166 492h237v-33h-102v-616h96v-31h-315v31h104v602l-217 -633h-29l-223 633 v-602h100v-31h-239z" />
<glyph unicode="&#xe000;" horiz-adv-x="839" d="M0 0v840h840v-840h-840z" />
</font>
</defs>
</svg>
