<?xml version="1.0" standalone="no"?>
<!DOCTYPE svg PUBLIC "-//W3C//DTD SVG 1.1//EN" "http://www.w3.org/Graphics/SVG/1.1/DTD/svg11.dtd" >
<svg xmlns="http://www.w3.org/2000/svg">
<metadata>
This is a custom SVG webfont generated by Font Squirrel.
Designer    : Linotype Design Studio
Foundry     : Linotype GmbH
Foundry URL : httpwwwlinotypecom
</metadata>
<defs>
<font id="webfont8wZXqqVe" horiz-adv-x="197" >
<font-face units-per-em="1000" ascent="714" descent="-286" />
<missing-glyph horiz-adv-x="238" />
<glyph unicode=" "  horiz-adv-x="238" />
<glyph unicode="&#x09;" horiz-adv-x="238" />
<glyph unicode="&#xa0;" horiz-adv-x="238" />
<glyph unicode="!" horiz-adv-x="253" d="M85 0v106h84v-106h-84zM93 501v213h68v-213l-15 -323h-38z" />
<glyph unicode="&#x22;" horiz-adv-x="382" d="M226 714h63v-243h-63v243zM93 714h63v-243h-63v243z" />
<glyph unicode="#" horiz-adv-x="568" d="M229 424l-22 -156h141l22 156h-141zM503 223h-111l-31 -223h-50l31 223h-141l-31 -223h-50l31 223h-110v45h116l22 156h-110v45h116l31 222h50l-31 -222h141l31 222h50l-31 -222h105v-45h-111l-22 -156h105v-45z" />
<glyph unicode="$" horiz-adv-x="568" d="M98 228q1 -88 43.5 -134.5t121.5 -55.5v296q-42 9 -80.5 21.5t-67 35t-45.5 56.5t-17 87q0 45 16.5 81t45 61.5t66.5 39t82 13.5v78h39v-78q43 0 82 -15.5t68.5 -44t45.5 -68.5q16 -38 16 -83v-6h-63q-1 75 -42 119.5t-107 44.5v-288q43 -9 84.5 -22t74 -36t52.5 -58 t20 -87q0 -50 -19.5 -87t-52 -62.5t-74 -38t-85.5 -12.5v-85h-39v86q-117 11 -170.5 69.5t-57.5 172.5h63zM263 676q-30 0 -56.5 -8.5t-47 -26.5t-32 -46.5t-11.5 -67.5q0 -35 12.5 -57t33 -36t47 -22t54.5 -15v279zM302 38q31 0 61.5 8t54 26t38 45.5t14.5 66.5 q0 36 -15.5 60t-39.5 39.5t-54 25.5t-59 17v-288z" />
<glyph unicode="%" horiz-adv-x="901" d="M234 706q42 0 72.5 -14.5t49.5 -40t28 -60t9 -74.5t-9 -74.5t-28 -60t-49.5 -40t-72.5 -14.5t-72.5 14.5t-49.5 40t-28 60t-9 74.5t9 74.5t28 60t49.5 40t72.5 14.5zM673 318q-32 0 -52.5 -13.5t-32.5 -35t-16.5 -47t-4.5 -49.5t4.5 -49t16.5 -46t32.5 -34.5t52.5 -13.5 q31 0 51.5 13.5t32.5 34.5t17 46t5 49t-5 49.5t-17 47t-32.5 35t-51.5 13.5zM673 363q42 0 72.5 -14.5t49.5 -40t28 -60t9 -74.5t-9 -74.5t-28 -60t-49.5 -40t-72.5 -14.5t-72.5 14.5t-49.5 40t-28 60t-9 74.5t9 74.5t28 60t49.5 40t72.5 14.5zM649 725h47l-452 -759h-48z M234 661q-32 0 -52.5 -13.5t-32.5 -35t-16.5 -47t-4.5 -49.5t4.5 -49t16.5 -46t32.5 -34.5t52.5 -13.5q31 0 51.5 13.5t32.5 34.5t17 46t5 49t-5 49.5t-17 47t-32.5 35t-51.5 13.5z" />
<glyph unicode="&#x26;" horiz-adv-x="623" d="M290 661q-39 0 -67 -23.5t-28 -68.5q0 -19 8 -38.5t20 -38t26 -36.5l26 -31q19 12 38.5 26t35.5 31.5t26 39t10 47.5q0 45 -28 68.5t-67 23.5zM471 93q-39 -49 -93 -78.5t-117 -29.5q-46 0 -85.5 13t-68.5 38.5t-45.5 63t-16.5 85.5q0 38 16 69.5t41.5 58t56.5 47.5 t61 37l-30 39q-16 19 -28.5 40t-21 44t-8.5 49q0 33 12.5 59.5t34 45.5t50 29.5t61.5 10.5t61.5 -10.5t50 -29.5t34 -45.5t12.5 -59.5t-12 -60t-31.5 -49t-44.5 -40.5t-52 -35.5l156 -188q13 26 17 52.5t4 67.5h63q0 -30 -8.5 -77.5t-33.5 -93.5l120 -145h-79zM254 356 q-26 -14 -52 -31t-47 -39t-34 -48.5t-13 -58.5t13 -57.5t34.5 -44.5t49.5 -29t58 -10q54 0 96.5 29.5t72.5 72.5z" />
<glyph unicode="'" horiz-adv-x="290" d="M114 714h63v-243h-63v243z" />
<glyph unicode="(" horiz-adv-x="253" d="M198 -191q-33 55 -59.5 109t-44.5 109.5t-27.5 114.5t-9.5 124q0 129 37.5 244.5t103.5 218.5h50q-67 -108 -97.5 -230t-30.5 -256q0 -54 9 -111.5t26 -114t40.5 -109.5t52.5 -99h-50z" />
<glyph unicode=")" horiz-adv-x="253" d="M55 729q33 -56 59.5 -109.5t44.5 -109t27.5 -114.5t9.5 -124q0 -129 -37.5 -244.5t-103.5 -218.5h-50q67 108 97.5 230t30.5 256q0 55 -9.5 112t-26.5 112.5t-40.5 109t-51.5 100.5h50z" />
<glyph unicode="*" horiz-adv-x="364" d="M33 595l14 37l115 -41v123h39v-123l115 41l15 -37l-118 -39l72 -98l-32 -23l-73 100l-73 -100l-32 23l73 98z" />
<glyph unicode="+" horiz-adv-x="612" d="M280 503h53v-225h225v-53h-225v-225h-53v225h-225v53h225v225z" />
<glyph unicode="," horiz-adv-x="204" d="M144 106v-107q0 -22 -5.5 -43.5t-16.5 -40t-27.5 -32.5t-38.5 -20v43q12 4 21 15t15 24.5t8.5 28t1.5 26.5h-42v106h84z" />
<glyph unicode="-" horiz-adv-x="382" d="M66 246v58h250v-58h-250z" />
<glyph unicode="." horiz-adv-x="204" d="M60 0v106h84v-106h-84z" />
<glyph unicode="/" horiz-adv-x="345" d="M-7 -15l308 744h51l-305 -744h-54z" />
<glyph unicode="0" horiz-adv-x="594" d="M297 706q76 0 124 -33.5t74.5 -85.5t36 -116t9.5 -125q0 -62 -9.5 -126t-36 -116t-74.5 -85.5t-124 -33.5q-77 0 -124.5 33.5t-74 85.5t-36 116t-9.5 125t9.5 125.5t36 116.5t74 85.5t124.5 33.5zM297 653q-60 0 -96 -31t-54.5 -77t-24.5 -100t-6 -99q0 -46 6 -99.5 t24.5 -100t54.5 -77.5t96 -31t96 31t54.5 77.5t24.5 100t6 99.5q0 45 -6 99t-24.5 100t-54.5 77t-96 31z" />
<glyph unicode="1" horiz-adv-x="400" d="M56 565q41 1 74.5 4.5t58 16.5t41 39.5t23.5 74.5h51v-700h-63v520h-185v45z" />
<glyph unicode="2" horiz-adv-x="543" d="M502 0h-461q1 52 18 92t45 72t63 58.5t72 51.5l73 49q36 25 66 55q29 29 43.5 59.5t14.5 72.5q0 34 -12.5 60.5t-34 45t-50 28t-60.5 9.5q-43 0 -73.5 -16t-49.5 -43t-28 -62q-7 -31 -7 -66v-8h-63v7q0 50 12 93q14 45 42 78t70.5 51.5t99.5 18.5q46 0 85.5 -12.5 t68.5 -37.5t46 -61.5t17 -85.5q0 -44 -14.5 -80t-39 -66t-56.5 -55.5t-66 -47.5l-59 -38q-34 -20 -65.5 -45t-55.5 -54.5t-30 -64.5h389v-58z" />
<glyph unicode="3" horiz-adv-x="578" d="M115 223v-12q0 -35 9 -64q12 -34 34.5 -58t56 -37.5t75.5 -13.5q34 0 66.5 10t57.5 30t40 48.5t15 66.5q0 37 -13 65t-36 46.5t-53.5 27.5t-65.5 9h-53v53h53q24 0 49.5 7.5t46 23t33.5 39.5t13 57q0 34 -12 59t-33 41.5t-49 24t-59 7.5q-39 0 -69 -13t-50.5 -36.5 t-30.5 -55.5q-9 -30 -9 -65v-7h-63q0 49 15.5 91.5t44 73t69.5 48t92 17.5q41 0 80 -10.5t69.5 -32t49 -55.5t18.5 -80q0 -57 -30.5 -99t-87.5 -56v-2q69 -11 106.5 -57.5t37.5 -115.5q0 -51 -19.5 -91t-52.5 -67t-77 -41t-92 -14q-54 0 -99.5 16t-78 46.5t-49.5 74.5 q-13 36 -13 80q0 10 1 21h63z" />
<glyph unicode="4" horiz-adv-x="558" d="M359 227v381h-2l-264 -381h266zM36 235l324 465h57v-473h105v-53h-105v-174h-58v174h-323v61z" />
<glyph unicode="5" horiz-adv-x="560" d="M104 200q1 -36 14.5 -66t36.5 -51.5t54 -33t67 -11.5q40 0 72.5 15.5t55.5 41.5t35 61t12 73q0 39 -13.5 72t-37 57.5t-56.5 38.5t-72 14q-48 0 -89 -21.5t-67 -61.5h-54l68 363h350v-58h-306l-45 -232l2 -2q26 31 66 48t82 17q54 0 97.5 -18t74 -50t47 -76.5t16.5 -97.5 q0 -51 -19 -94.5t-52 -75t-77.5 -49.5t-94.5 -18q-49 0 -90.5 15t-72 42.5t-48.5 67.5t-19 90h63z" />
<glyph unicode="6" horiz-adv-x="587" d="M461 523q-8 58 -46.5 94t-99.5 36q-62 0 -99.5 -31t-58.5 -78t-28 -101.5t-7 -102.5h2q25 52 75.5 84t110.5 32q52 0 95 -17.5t73 -48.5t46.5 -74t16.5 -94t-17.5 -94.5t-49 -75t-75 -49.5t-95.5 -18q-64 0 -110 19.5t-76 64t-44.5 115.5t-14.5 173q0 21 2.5 55 t11.5 72.5t25.5 78t44 71.5t68.5 52t98 20q94 0 149 -45t66 -138h-63zM309 403q-41 0 -73.5 -14.5t-55 -39.5t-34 -58.5t-11.5 -72.5q0 -38 10 -70.5t31.5 -57t54.5 -38.5t79 -14q37 0 68 14.5t53.5 39t34.5 57.5t12 69q0 38 -11.5 72t-33 59t-53 39.5t-71.5 14.5z" />
<glyph unicode="7" horiz-adv-x="472" d="M11 691h450v-58q-33 -34 -79 -91.5t-89.5 -137t-76 -181t-38.5 -223.5h-68q6 89 24.5 168t53 154.5t86 151.5t124.5 159h-387v58z" />
<glyph unicode="8" horiz-adv-x="584" d="M292 401h7q25 0 49 7q27 7 47.5 23t33 41t12.5 59q0 30 -11.5 53t-31.5 38t-47.5 23t-58.5 8q-29 0 -56 -8t-48 -23t-33.5 -38t-12.5 -53q0 -35 13 -60t34 -41t48 -23q24 -6 48 -6h7zM504 531q0 -57 -30 -97.5t-84 -56.5v-2q69 -14 106 -60.5t37 -118.5q0 -53 -19 -92.5 t-52 -66t-77 -39.5t-93 -13q-50 0 -93.5 13t-76.5 39.5t-52 66t-19 92.5q2 69 39 118t103 61v2q-55 17 -84.5 56.5t-29.5 97.5q0 45 18.5 78t48.5 54.5t68 32t77 10.5t77 -10.5t68.5 -32t49 -54.5t18.5 -78zM292 38q37 0 69.5 9.5t56.5 29t38 49t14 70.5q0 37 -14.5 66 t-39 48.5t-56.5 29.5q-30 8 -61 8h-7h-7q-32 0 -61 -8q-33 -9 -57 -28.5t-38.5 -48.5t-14.5 -67q0 -39 14 -69t38 -49.5t56.5 -29.5t69.5 -10z" />
<glyph unicode="9" horiz-adv-x="587" d="M126 168q8 -58 46.5 -94t99.5 -36t99 31t59 78t28 101.5t7 102.5h-2q-25 -52 -75.5 -84t-110.5 -32q-53 0 -95.5 17.5t-72.5 48.5t-46.5 74t-16.5 94t17.5 94.5t49 75t75 49.5t95.5 18q64 0 110 -19.5t76 -64t44.5 -115.5t14.5 -173q0 -21 -2.5 -55t-11.5 -72.5 t-25.5 -78t-44 -71.5t-68.5 -52t-98 -20q-94 0 -149 45t-66 138h63zM278 288q41 0 73.5 14.5t55 39.5t34 58.5t11.5 72.5q0 37 -10 70t-31.5 57.5t-54.5 38.5t-79 14q-38 0 -68.5 -14.5t-53 -39t-34.5 -57.5t-12 -69q0 -38 11.5 -72t33 -59t53 -39.5t71.5 -14.5z" />
<glyph unicode=":" horiz-adv-x="290" d="M103 0v106h84v-106h-84zM103 394v106h84v-106h-84z" />
<glyph unicode=";" horiz-adv-x="290" d="M103 394v106h84v-106h-84zM187 106v-107q0 -22 -5.5 -43.5t-16.5 -40t-27.5 -32.5t-38.5 -20v43q12 4 21 15t15 24.5t8.5 28t1.5 26.5h-42v106h84z" />
<glyph unicode="&#x3c;" horiz-adv-x="612" d="M560 -8l-508 234v54l508 234v-55l-446 -206l446 -206v-55z" />
<glyph unicode="=" horiz-adv-x="612" d="M558 128h-503v53h503v-53zM558 325h-503v53h503v-53z" />
<glyph unicode="&#x3e;" horiz-adv-x="612" d="M498 253l-446 206v55l508 -234v-54l-508 -234v55z" />
<glyph unicode="?" horiz-adv-x="549" d="M237 106h84v-106h-84v106zM60 494q0 53 15 96.5t44.5 74t71.5 47.5t96 17q42 0 78.5 -12.5t64.5 -36.5t44 -58.5t16 -77.5q0 -56 -24.5 -95t-62.5 -75l-36 -35q-15 -14 -25 -25.5t-16 -22.5t-9.5 -26t-4.5 -35.5t-2 -50.5h-63v13q0 37 5 64q6 31 19.5 56t36 48t54.5 52 q28 26 46.5 58t18.5 71q0 30 -11.5 55t-31 42.5t-45.5 27.5t-55 10q-41 0 -71.5 -14t-50.5 -38.5t-30 -57.5q-9 -30 -9 -65v-7h-63z" />
<glyph unicode="@" horiz-adv-x="812" d="M524 256q-5 -16 -8 -31t-2.5 -26.5t6 -18.5t17.5 -7q33 0 64 23t54 59t37 80t14 86q0 62 -22.5 111t-61.5 82.5t-90.5 51.5t-109.5 18q-70 0 -128 -26t-100 -70.5t-65 -105t-23 -129.5q0 -68 24 -127t66.5 -102.5t101 -68.5t126.5 -25q37 0 73.5 9t70.5 26.5t63 42 t51 55.5h51q-23 -41 -56.5 -74t-74 -56t-86 -35.5t-92.5 -12.5q-81 0 -149 29t-117.5 79.5t-77 119t-27.5 147.5q0 78 28.5 145.5t78.5 117t116.5 78t143.5 28.5q72 0 134 -22.5t107.5 -64t71.5 -98.5t26 -126q0 -60 -20.5 -113t-53.5 -92.5t-74.5 -62t-83.5 -22.5 q-26 0 -45 17t-22 50h-2q-23 -24 -56 -45t-71 -21q-31 0 -55.5 11.5t-41.5 31.5t-26 46t-9 56q0 52 17 103.5t48 92.5t75 67t97 26q33 0 61 -19.5t45 -64.5l25 65h53zM432 510q-38 0 -69.5 -23t-54 -57.5t-34.5 -75t-12 -75.5q0 -45 23.5 -71t59.5 -26q34 0 64.5 24.5t53 60 t35.5 76.5t13 74q0 18 -7 34.5t-18 29.5t-25 21t-29 8z" />
<glyph unicode="A" horiz-adv-x="628" d="M172 280h281l-138 366zM280 714h76l280 -714h-73l-87 222h-325l-86 -222h-73z" />
<glyph unicode="B" horiz-adv-x="665" d="M139 401h234q40 0 70.5 9.5t50.5 26t30 38.5t10 47q0 134 -161 134h-234v-255zM71 714h302q45 0 86.5 -8.5t73 -29t50.5 -54t19 -83.5q0 -28 -9 -54.5t-25.5 -48t-39 -36.5t-50.5 -21v-2q69 -9 110 -56.5t41 -117.5q0 -26 -7.5 -60.5t-33.5 -66.5t-77 -54t-138 -22h-302 v714zM139 58h234q38 0 72 6.5t60 23.5t41 45t15 72q0 69 -48.5 103.5t-139.5 34.5h-234v-285z" />
<glyph unicode="C" horiz-adv-x="702" d="M593 498q-9 41 -29.5 73.5t-50 54.5t-65 33.5t-74.5 11.5q-71 0 -122 -27t-83.5 -71.5t-48 -101t-15.5 -114.5q0 -59 15.5 -115t48 -100.5t83.5 -71.5t122 -27q49 0 89.5 18t69.5 49t47 72.5t23 89.5h68q-7 -66 -31 -119t-62 -90.5t-89.5 -57.5t-114.5 -20 q-84 0 -147.5 30.5t-105.5 82t-63 118.5t-21 141q0 73 21 140.5t63 119t105.5 82t147.5 30.5q51 0 99.5 -15t88 -44.5t66 -72.5t33.5 -99h-68z" />
<glyph unicode="D" horiz-adv-x="683" d="M71 714h247q163 -4 245.5 -91.5t82.5 -265.5t-82.5 -265.5t-245.5 -91.5h-247v714zM139 58h145q77 0 132.5 16.5t91.5 52.5t53 93t17 137t-17 137t-53 93t-91.5 52.5t-132.5 16.5h-145v-598z" />
<glyph unicode="E" horiz-adv-x="610" d="M71 714h493v-58h-425v-258h398v-58h-398v-282h430v-58h-498v714z" />
<glyph unicode="F" horiz-adv-x="545" d="M71 714h453v-58h-385v-258h342v-58h-342v-340h-68v714z" />
<glyph unicode="G" horiz-adv-x="739" d="M681 0h-49l-9 130h-2q-18 -38 -44.5 -65.5t-58.5 -45t-68.5 -26t-75.5 -8.5q-84 0 -147.5 30.5t-105.5 82t-63 118.5t-21 141q0 73 21 140.5t63 119t105.5 82t147.5 30.5q56 0 106 -15t89 -45t66 -74.5t37 -102.5h-68q-3 31 -20.5 62.5t-47 57.5t-70.5 42.5t-92 16.5 q-71 0 -122 -27t-83.5 -71.5t-48 -101t-15.5 -114.5q0 -59 15.5 -115t48 -100.5t83.5 -71.5t122 -27q59 0 105.5 19.5t78.5 54.5t48 83q15 45 15 98v7h-243v58h303v-363z" />
<glyph unicode="H" horiz-adv-x="702" d="M71 714h68v-310h424v310h68v-714h-68v346h-424v-346h-68v714z" />
<glyph unicode="I" horiz-adv-x="220" d="M76 714h68v-714h-68v714z" />
<glyph unicode="J" horiz-adv-x="498" d="M359 714h68v-515q0 -54 -11 -94.5t-35.5 -67t-64 -39.5t-97.5 -13q-62 0 -100.5 20.5t-60.5 55t-30 78t-8 90.5h68q1 -23 3 -55t14 -61t39.5 -49.5t80.5 -20.5q40 0 66 10.5t41 33t21 57.5t6 84v486z" />
<glyph unicode="K" horiz-adv-x="657" d="M71 714h68v-384l415 384h92l-319 -295l334 -419h-88l-297 372l-137 -127v-245h-68v714z" />
<glyph unicode="L" horiz-adv-x="565" d="M71 714h68v-656h400v-58h-468v714z" />
<glyph unicode="M" horiz-adv-x="831" d="M69 714h100l247 -626l246 626h100v-714h-68v617h-2l-244 -617h-64l-245 617h-2v-617h-68v714z" />
<glyph unicode="N" horiz-adv-x="702" d="M70 714h76l416 -604h2v604h68v-714h-76l-416 604h-2v-604h-68v714z" />
<glyph unicode="O" horiz-adv-x="739" d="M101 357q0 -59 15.5 -115t48 -100.5t83.5 -71.5t122 -27q70 0 121 27t83.5 71.5t48 100.5t15.5 115q0 58 -15.5 114.5t-48 101t-83.5 71.5t-121 27q-71 0 -122 -27t-83.5 -71.5t-48 -101t-15.5 -114.5zM33 357q0 73 21 140.5t63 119t105.5 82t147.5 30.5t147 -30.5 t105 -82t63 -119t21 -140.5q0 -74 -21 -141t-63 -118.5t-105 -82t-147 -30.5t-147.5 30.5t-105.5 82t-63 118.5t-21 141z" />
<glyph unicode="P" horiz-adv-x="628" d="M139 364h234q71 0 115 36t44 110t-44 110t-115 36h-234v-292zM71 714h317q48 0 87 -13.5t67 -40t43 -64.5t15 -86t-15 -86t-43 -64.5t-67 -40t-87 -13.5h-249v-306h-68v714z" />
<glyph unicode="Q" horiz-adv-x="739" d="M666 -46l-111 84q-74 -53 -185 -53q-84 0 -147.5 30.5t-105.5 82t-63 118.5t-21 141q0 73 21 140.5t63 119t105.5 82t147.5 30.5t147 -30.5t105 -82t63 -119t21 -140.5q0 -84 -27 -157.5t-81 -125.5l102 -78zM547 113q48 45 69.5 110t21.5 134q0 58 -15.5 114.5t-48 101 t-83.5 71.5t-121 27q-71 0 -122 -27t-83.5 -71.5t-48 -101t-15.5 -114.5q0 -59 15.5 -115t48 -100.5t83.5 -71.5t122 -27q76 0 132 35l-94 71l35 43z" />
<glyph unicode="R" horiz-adv-x="665" d="M139 375h254q31 0 59 9.5t49 27.5t33.5 43.5t12.5 58.5q0 66 -38 104t-116 38h-254v-281zM71 714h327q44 0 83.5 -11t69 -33.5t47 -58t17.5 -83.5q0 -68 -35 -118t-104 -64v-2q35 -5 58 -18.5t37.5 -34.5t21 -48.5t8.5 -59.5q1 -18 2 -44t4 -52.5t9.5 -50t17.5 -36.5h-75 q-6 10 -9.5 24.5t-5 30t-2.5 30.5t-2 26q-2 37 -6.5 75t-19 67.5t-42.5 47.5q-24 16 -66 16h-9h-258v-317h-68v714z" />
<glyph unicode="S" horiz-adv-x="628" d="M103 235v-6q0 -51 17 -86q18 -37 49.5 -59t74.5 -31.5t92 -9.5q28 0 61 8t61.5 25.5t47.5 45t19 66.5q0 30 -13.5 52t-35 37t-47.5 24.5t-51 15.5l-159 39q-32 8 -61 20t-51 32t-35.5 49t-13.5 71q0 26 10 61t37.5 66t75.5 52.5t123 21.5q53 0 101 -14t84 -42t57.5 -69.5 t21.5 -96.5h-68q-2 40 -18.5 71t-43 51.5t-61 31t-72.5 10.5q-35 0 -67.5 -7.5t-57 -24t-39.5 -43.5t-15 -67q0 -25 8.5 -43.5t23.5 -31.5t34.5 -21t41.5 -13l174 -43q38 -10 71.5 -24.5t59 -36t40 -53t14.5 -74.5q0 -12 -2.5 -32t-12 -42.5t-27 -45.5t-48 -42t-75.5 -30.5 t-108 -11.5t-117 14.5t-92 45t-59 77.5q-17 42 -17 97v16h68z" />
<glyph unicode="T" horiz-adv-x="618" d="M26 714h566v-58h-249v-656h-68v656h-249v58z" />
<glyph unicode="U" horiz-adv-x="683" d="M64 714h68v-442q0 -62 14 -105.5t41 -71t65.5 -40t88.5 -12.5t89 12.5t66 40t41 71t14 105.5v442h68v-457q0 -55 -15.5 -104.5t-49 -86.5t-86 -59t-127.5 -22q-74 0 -126.5 22t-86 59t-49 86.5t-15.5 104.5v457z" />
<glyph unicode="V" horiz-adv-x="591" d="M-8 714h73l232 -639h2l230 639h72l-265 -714h-79z" />
<glyph unicode="W" horiz-adv-x="905" d="M-1 714h73l162 -625h2l174 625h85l175 -625h2l163 625h68l-197 -714h-72l-181 639h-2l-180 -639h-74z" />
<glyph unicode="X" horiz-adv-x="572" d="M2 714h80l202 -299l209 299h76l-244 -348l258 -366h-82l-217 315l-220 -315h-77l257 368z" />
<glyph unicode="Y" horiz-adv-x="609" d="M270 294l-281 420h81l235 -362l234 362h81l-282 -420v-294h-68v294z" />
<glyph unicode="Z" horiz-adv-x="598" d="M53 714h514v-60l-470 -596h480v-58h-556v60l470 596h-438v58z" />
<glyph unicode="[" horiz-adv-x="253" d="M82 -191v920h161v-53h-98v-814h98v-53h-161z" />
<glyph unicode="\" horiz-adv-x="345" d="M298 -15l-305 744h51l308 -744h-54z" />
<glyph unicode="]" horiz-adv-x="253" d="M171 729v-920h-161v53h98v814h-98v53h161z" />
<glyph unicode="^" horiz-adv-x="612" d="M50 238l230 453h52l230 -453h-57l-200 390l-197 -390h-58z" />
<glyph unicode="_" horiz-adv-x="512" d="M6 -125v50h500v-50h-500z" />
<glyph unicode="`" d="M-25 729h78l105 -141h-51z" />
<glyph unicode="a" horiz-adv-x="525" d="M57 358q3 45 19 78t43.5 54t64.5 31t82 10q34 0 68 -6.5t61 -24.5t44 -50.5t17 -84.5v-274q0 -38 37 -38q11 0 20 4v-53q-11 -2 -19.5 -3t-21.5 -1q-24 0 -38.5 6.5t-22.5 18.5t-10.5 28.5t-2.5 36.5h-2q-17 -25 -34.5 -44.5t-39 -33t-49.5 -20.5t-65 -7q-36 0 -67.5 9 t-55 27.5t-37 47t-13.5 67.5q0 54 24 84.5t63.5 46.5t89 22.5t100.5 12.5q19 2 34.5 5t25.5 10.5t15.5 20.5t5.5 34q0 32 -10.5 52.5t-29 32.5t-43 16.5t-52.5 4.5q-60 0 -98 -28.5t-40 -91.5h-63zM393 282h-2q-6 -11 -23 -16t-30 -7q-40 -7 -82.5 -12.5t-77.5 -16.5 t-57.5 -32t-22.5 -58q0 -24 9.5 -42.5t25.5 -32t36.5 -20.5t43.5 -7q36 0 69 11t57.5 32t39 51t14.5 68v82z" />
<glyph unicode="b" horiz-adv-x="580" d="M63 714h63v-296h2q10 28 28.5 49t42.5 35t51.5 21.5t56.5 7.5q59 0 102.5 -22t72.5 -59.5t43 -87t14 -104.5t-14 -104.5t-43 -87t-72.5 -59.5t-102.5 -22q-63 0 -112.5 29.5t-71.5 83.5h-2v-98h-58v714zM476 258q0 40 -9.5 79.5t-30 70.5t-52.5 50.5t-77 19.5 q-50 0 -84.5 -19.5t-56 -50.5t-31 -70.5t-9.5 -79.5t9.5 -79.5t31 -70.5t56 -50.5t84.5 -19.5q45 0 77 19.5t52.5 50.5t30 70.5t9.5 79.5z" />
<glyph unicode="c" horiz-adv-x="532" d="M427 354q-13 58 -48 91t-98 33q-45 0 -79 -19t-56.5 -50t-34 -70.5t-11.5 -80.5t11.5 -80.5t34 -70.5t56.5 -50t79 -19q29 0 55 11t46 30.5t33 46.5t16 59h63q-13 -94 -69 -147t-144 -53q-59 0 -104.5 22t-76.5 59t-47 86.5t-16 105.5q0 55 16 105t47 87t76.5 59 t104.5 22q83 0 140.5 -44t68.5 -133h-63z" />
<glyph unicode="d" horiz-adv-x="580" d="M517 0h-58v98h-2q-10 -26 -29.5 -46.5t-44.5 -35.5t-53.5 -23t-56.5 -8q-59 0 -102.5 22t-72.5 59.5t-43 87t-14 104.5t14 104.5t43 87t72.5 59.5t102.5 22q28 0 56 -7.5t52 -21.5t42.5 -35t28.5 -49h2v296h63v-714zM104 258q0 -40 9.5 -79.5t30 -70.5t52.5 -50.5 t77 -19.5q50 0 84.5 19.5t56 50.5t31 70.5t9.5 79.5t-9.5 79.5t-31 70.5t-56 50.5t-84.5 19.5q-45 0 -77 -19.5t-52.5 -50.5t-30 -70.5t-9.5 -79.5z" />
<glyph unicode="e" horiz-adv-x="535" d="M434 294q-1 36 -12.5 69t-32.5 58.5t-51 41t-68 15.5q-39 0 -69 -15.5t-51 -41t-33.5 -59t-16.5 -68.5h334zM100 241q0 -35 9.5 -71t30.5 -65t53 -48t77 -19q69 0 108 36t54 96h63q-20 -88 -73.5 -136.5t-151.5 -48.5q-62 0 -106 22t-72 59.5t-41.5 87t-13.5 104.5 q0 51 13.5 100t41.5 87.5t72 62t106 23.5t106 -25t71.5 -65.5t39.5 -92.5q10 -45 10 -92v-15h-397z" />
<glyph unicode="f" horiz-adv-x="265" d="M262 463h-102v-463h-63v463h-88v53h88v47q0 33 5 61t19 48t38.5 31t62.5 11q14 0 26 -1t27 -3v-54q-13 2 -24 3.5t-22 1.5q-26 0 -40 -8t-20.5 -21.5t-7.5 -31.5t-1 -39v-45h102v-53z" />
<glyph unicode="g" horiz-adv-x="562" d="M499 42q0 -58 -12.5 -104t-39.5 -78t-70.5 -49t-106.5 -17q-39 0 -76 9t-66.5 28t-49 48.5t-22.5 70.5h63q5 -29 19.5 -48.5t35 -31.5t45.5 -17.5t51 -5.5q88 0 127 49.5t39 145.5v70h-2q-22 -48 -64.5 -77t-99.5 -29q-62 0 -106 20.5t-72.5 56.5t-41.5 84t-13 104 q0 53 15.5 100.5t45 83t73 56t99.5 20.5q28 0 54 -8t47 -22.5t37.5 -33.5t25.5 -40h2v89h63v-474zM270 59q41 0 72 17.5t52 46t31.5 65.5t10.5 76q0 38 -9 76t-29 69t-51.5 50t-76.5 19t-77 -18.5t-53 -48.5t-30.5 -68.5t-9.5 -78.5q0 -39 10 -76t31 -65.5t53 -46t76 -17.5z " />
<glyph unicode="h" horiz-adv-x="543" d="M62 714h63v-287h2q18 47 64 75.5t101 28.5q54 0 90.5 -14t58.5 -39.5t31 -62.5t9 -83v-332h-63v322q0 33 -6 61.5t-21 49.5t-40.5 33t-63.5 12t-67.5 -13.5t-50 -37t-32 -56t-12.5 -70.5v-301h-63v714z" />
<glyph unicode="i" horiz-adv-x="191" d="M64 714h63v-101h-63v101zM64 516h63v-516h-63v516z" />
<glyph unicode="j" horiz-adv-x="191" d="M64 714h63v-101h-63v101zM64 516h63v-564q0 -29 -4.5 -55t-17 -45.5t-34 -31t-54.5 -11.5q-11 0 -22 1t-22 1v52q8 -1 17 -1.5t17 0.5q37 0 47 21.5t10 53.5v579z" />
<glyph unicode="k" horiz-adv-x="506" d="M63 714h63v-448l286 250h84l-220 -191l235 -325h-79l-204 281l-102 -85v-196h-63v714z" />
<glyph unicode="l" horiz-adv-x="191" d="M64 714h63v-714h-63v714z" />
<glyph unicode="m" horiz-adv-x="839" d="M63 516h58v-87h3q25 48 65.5 75t103.5 27q51 0 92.5 -25t55.5 -76q23 51 68 76t96 25q171 0 171 -181v-350h-63v347q0 64 -27 97.5t-95 33.5q-41 0 -68 -15.5t-43 -41.5t-22.5 -59.5t-6.5 -69.5v-292h-63v350q0 26 -5.5 49.5t-18 41t-33.5 27.5t-51 10q-41 0 -70 -14.5 t-47.5 -40t-27.5 -60.5t-9 -75v-288h-63v516z" />
<glyph unicode="n" horiz-adv-x="543" d="M62 516h63v-89h2q18 47 64 75.5t101 28.5q54 0 90.5 -14t58.5 -39.5t31 -62.5t9 -83v-332h-63v322q0 33 -6 61.5t-21 49.5t-40.5 33t-63.5 12t-67.5 -13.5t-50 -37t-32 -56t-12.5 -70.5v-301h-63v516z" />
<glyph unicode="o" horiz-adv-x="562" d="M281 478q-45 0 -79 -19t-56.5 -50t-34 -70.5t-11.5 -80.5t11.5 -80.5t34 -70.5t56.5 -50t79 -19t79 19t56.5 50t34 70.5t11.5 80.5t-11.5 80.5t-34 70.5t-56.5 50t-79 19zM281 531q59 0 104.5 -22t76.5 -59t47 -87t16 -105q0 -56 -16 -105.5t-47 -86.5t-76.5 -59 t-104.5 -22t-104.5 22t-76.5 59t-47 86.5t-16 105.5q0 55 16 105t47 87t76.5 59t104.5 22z" />
<glyph unicode="p" horiz-adv-x="580" d="M63 516h58v-98h2q22 54 71.5 83.5t112.5 29.5q59 0 102.5 -22t72.5 -59.5t43 -87t14 -104.5t-14 -104.5t-43 -87t-72.5 -59.5t-102.5 -22q-29 0 -56.5 7t-51.5 21.5t-42.5 35.5t-28.5 49h-2v-289h-63v707zM476 258q0 40 -9.5 79.5t-30 70.5t-52.5 50.5t-77 19.5 q-53 0 -87.5 -18t-55.5 -48t-29.5 -70t-8.5 -84q0 -40 9.5 -79.5t31 -70.5t56 -50.5t84.5 -19.5q45 0 77 19.5t52.5 50.5t30 70.5t9.5 79.5z" />
<glyph unicode="q" horiz-adv-x="580" d="M517 -191h-63v289h-2q-10 -28 -28.5 -49t-42.5 -35.5t-52 -21.5t-56 -7q-59 0 -102.5 22t-72.5 59.5t-43 87t-14 104.5t14 104.5t43 87t72.5 59.5t102.5 22q28 0 56.5 -8t53.5 -23t44.5 -36t29.5 -46h2v98h58v-707zM104 258q0 -40 9.5 -79.5t30 -70.5t52.5 -50.5 t77 -19.5q50 0 84.5 19.5t56 50.5t31 70.5t9.5 79.5t-9.5 79.5t-31 70.5t-56 50.5t-84.5 19.5q-45 0 -77 -19.5t-52.5 -50.5t-30 -70.5t-9.5 -79.5z" />
<glyph unicode="r" horiz-adv-x="321" d="M63 516h58v-121h2q24 63 75 97q46 31 109 31h11v-63h-11q-37 0 -67 -12q-35 -13 -60.5 -38t-39.5 -60t-14 -75v-275h-63v516z" />
<glyph unicode="s" horiz-adv-x="487" d="M372 365q-1 29 -12 50.5t-29.5 35.5t-42.5 20.5t-51 6.5q-21 0 -42.5 -4.5t-39.5 -15t-29 -27.5t-11 -42q0 -21 10.5 -35.5t26.5 -24.5t34.5 -16.5t35.5 -10.5l84 -19q27 -4 53.5 -14.5t47 -27.5t33.5 -42t13 -59q0 -42 -19 -71.5t-48.5 -48t-66.5 -27t-73 -8.5 q-91 0 -147.5 43.5t-64.5 138.5h63q4 -64 46.5 -96.5t105.5 -32.5q22 0 47 5t46 17t34.5 30.5t13.5 45.5q0 22 -9.5 38t-25.5 26.5t-36.5 17.5t-41.5 12l-81 18q-31 8 -57 18t-45.5 26t-30.5 38.5t-11 55.5q0 39 17.5 67t45.5 45t62.5 25t68.5 8q39 0 72.5 -10t59 -31 t40.5 -52t17 -73h-63z" />
<glyph unicode="t" horiz-adv-x="302" d="M163 516h105v-53h-105v-348q0 -31 8.5 -48.5t42.5 -19.5q27 0 54 3v-54q-14 0 -28 -1t-28 -1q-63 0 -88 25q-24 24 -24 86v5v353h-90v53h90v155h63v-155z" />
<glyph unicode="u" horiz-adv-x="543" d="M481 0h-58v93h-2q-25 -52 -72.5 -80t-105.5 -28q-98 0 -139.5 52.5t-41.5 143.5v335h63v-336q2 -70 32.5 -106t105.5 -36q40 0 69.5 17.5t48.5 46.5t28 66.5t9 76.5v271h63v-516z" />
<glyph unicode="v" horiz-adv-x="469" d="M5 516h70l162 -453h2l160 453h65l-193 -516h-67z" />
<glyph unicode="w" horiz-adv-x="747" d="M11 516h67l132 -442h2l126 442h71l126 -442h2l132 442h67l-166 -516h-69l-127 434h-2l-126 -434h-69z" />
<glyph unicode="x" horiz-adv-x="487" d="M204 268l-185 248h79l147 -196l144 196h79l-186 -247l201 -269h-80l-162 217l-159 -217h-78z" />
<glyph unicode="y" horiz-adv-x="469" d="M5 516h67l170 -440l159 440h63l-224 -595q-14 -33 -26 -54.5t-26.5 -34t-34 -18t-49.5 -5.5q-19 1 -29.5 1.5t-18.5 3.5v53q11 -2 21.5 -3.5t21.5 -1.5q21 0 34.5 6t23.5 16.5t17 25.5l15 33l22 59z" />
<glyph unicode="z" horiz-adv-x="469" d="M94 53h355v-53h-431v51l337 412h-314v53h394v-45z" />
<glyph unicode="{" horiz-adv-x="345" d="M249 -191q-42 0 -65 34t-23 91v148q0 30 -3 59t-11 51.5t-22 36t-36 13.5v53q22 0 36 13.5t22 36t11 51.5t3 59v149q0 57 23 91t65 34h50v-53h-20q-15 0 -25.5 -8.5t-17 -23t-9.5 -33t-3 -38.5v-141q0 -41 -9 -70.5t-21 -49t-23.5 -29.5t-16.5 -13v-2q5 -3 16.5 -13 t23.5 -29.5t21 -49t9 -70.5v-141q0 -20 3 -39t9.5 -33t17 -22.5t25.5 -8.5h20v-53h-50z" />
<glyph unicode="|" horiz-adv-x="234" d="M91 786h53v-1000h-53v1000z" />
<glyph unicode="}" horiz-adv-x="345" d="M96 729q42 0 65 -34t23 -91v-148q0 -30 3 -59t11 -51.5t22 -36t36 -13.5v-53q-22 0 -36 -13.5t-22 -36t-11 -51.5t-3 -59v-149q0 -57 -23 -91t-65 -34h-50v53h20q15 0 25.5 8.5t17 22.5t9.5 33t3 39v141q0 41 9 70.5t21 49t23.5 29.5t16.5 13v2q-5 3 -16.5 13t-23.5 29.5 t-21 49t-9 70.5v141q0 20 -3 38.5t-9.5 33t-17 23t-25.5 8.5h-20v53h50z" />
<glyph unicode="~" horiz-adv-x="612" d="M537 279q-11 -16 -23 -31.5t-27 -27.5t-33.5 -19.5t-41.5 -7.5q-30 0 -57 10t-53 23q-26 12 -52 22t-55 10q-33 0 -52.5 -21.5t-31.5 -47.5l-36 36q8 16 19 31.5t26.5 27.5t35 19.5t44.5 7.5q28 0 57.5 -10t57.5 -22q29 -13 54 -23t44 -10q30 0 50.5 21.5t37.5 47.5z" />
<glyph unicode="&#xa1;" horiz-adv-x="253" d="M169 516v-106h-84v106h84zM161 15v-206h-68v206l15 323h38z" />
<glyph unicode="&#xa2;" horiz-adv-x="568" d="M450 354q-12 57 -45 89.5t-90 34.5v-440q27 1 51 13t42.5 31.5t30.5 46t15 56.5h63q-12 -91 -66 -144t-136 -56v-101h-39v102q-53 5 -93 28.5t-67.5 60.5t-41.5 84t-14 99t14 99t41.5 83.5t67.5 60t93 28.5v89h39v-87q39 -1 73 -13t60 -34t43 -54.5t22 -75.5h-63z M276 476q-39 -6 -67.5 -26.5t-47.5 -50.5t-28.5 -66.5t-9.5 -74.5t9.5 -74.5t28.5 -66.5t47.5 -51t67.5 -27v437z" />
<glyph unicode="&#xa3;" horiz-adv-x="568" d="M52 362h63q-23 37 -39 76.5t-16 84.5q0 54 19.5 92.5t51.5 64t73 37.5t84 12q112 0 173 -63q59 -60 59 -167v-7h-63q0 81 -42.5 132.5t-126.5 51.5q-32 0 -61.5 -9.5t-52.5 -29t-37 -49t-14 -69.5q0 -26 6 -45.5t14.5 -37t19 -35t19.5 -39.5h160v-32h-142 q11 -18 17.5 -47t6.5 -50q0 -28 -9.5 -54t-25 -49t-35 -43t-40.5 -36l2 -2q22 11 46.5 20.5t50.5 9.5q33 0 57.5 -6t44.5 -14q21 -8 41 -14.5t45 -6.5q32 0 63 16.5t52 39.5l32 -48q-33 -29 -67 -45t-79 -16q-33 0 -58 6.5t-48 14t-47 14t-54 6.5q-19 0 -33 -3t-26 -8.5 t-24 -12.5l-27 -17l-36 54q22 18 42.5 38.5t36 43t24.5 48.5t9 56q0 23 -8 54t-20 51h-81v32z" />
<glyph unicode="&#xa4;" horiz-adv-x="568" d="M100 346q0 -41 14.5 -75.5t39.5 -60t59 -40t72 -14.5t72 14.5t59 40t39.5 60t14.5 75.5q0 40 -14.5 75t-39.5 60.5t-59 40t-72 14.5t-72 -14.5t-59 -40t-39.5 -60.5t-14.5 -75zM92 193q-26 32 -40.5 70t-14.5 83q0 88 54 154l-56 56l38 38l56 -56q31 26 71 41t85 15 t83 -14.5t70 -40.5l55 55l38 -38l-54 -54q26 -32 41 -71.5t15 -84.5t-15 -84.5t-41 -71.5l54 -54l-38 -38l-55 55q-31 -26 -69.5 -40.5t-83.5 -14.5t-84.5 15t-71.5 41l-56 -56l-38 38z" />
<glyph unicode="&#xa5;" horiz-adv-x="568" d="M116 349h106l-210 365h72l199 -365l201 365h69l-211 -365h109v-45h-131l-6 -10v-73h137v-45h-137v-176h-63v176h-135v45h135v73l-6 10h-129v45z" />
<glyph unicode="&#xa6;" horiz-adv-x="234" d="M91 661h53v-250h-53v250zM91 161h53v-250h-53v250z" />
<glyph unicode="&#xa7;" horiz-adv-x="568" d="M517 231q0 -25 -8.5 -46.5t-23.5 -39.5t-35 -31.5t-42 -22.5q50 -44 50 -109q0 -35 -14.5 -61.5t-38.5 -44.5t-54.5 -27.5t-61.5 -9.5q-85 0 -135 45t-50 132h63v-6q0 -22 7 -42q8 -23 23.5 -39.5t37.5 -26.5t48 -10q21 0 41 5t36 16t25.5 27.5t9.5 40.5q0 37 -25.5 64.5 t-63.5 51t-83 45.5t-83 49t-63.5 62t-25.5 84q0 25 8.5 46.5t23.5 39.5t35 31.5t42 22.5q-50 44 -50 109q0 34 14.5 61t38.5 45t54 27.5t62 9.5q85 0 135 -45t50 -132h-63v6q0 22 -7 42q-8 23 -23.5 39.5t-37.5 26.5t-48 10q-21 0 -41 -5t-36 -16t-25.5 -27.5t-9.5 -40.5 q0 -38 25.5 -65t63.5 -50.5t83 -45.5t83 -49t63.5 -62t25.5 -84zM454 230q0 39 -28.5 70t-69 56.5t-84.5 47t-76 43.5q-36 -15 -59 -40.5t-23 -67.5q0 -38 28 -68.5t68 -56t84 -48t76 -44.5q36 15 60 40.5t24 67.5z" />
<glyph unicode="&#xa8;" d="M-24 610v101h68v-101h-68zM153 610v101h68v-101h-68z" />
<glyph unicode="&#xa9;" horiz-adv-x="812" d="M549 435q-9 45 -43.5 75t-89.5 31q-41 0 -71.5 -14t-51.5 -39t-31.5 -58.5t-10.5 -72.5t10.5 -72.5t31.5 -58.5t51.5 -39t71.5 -14q55 0 89.5 30.5t43.5 75.5h51q-5 -36 -21 -64.5t-41 -47.5t-56.5 -29t-66.5 -10q-51 0 -91.5 17t-68 48t-42.5 72.5t-15 91.5q0 49 15 91 t42.5 73t68 48t91.5 17q35 0 66.5 -10t56.5 -29t41 -47.5t21 -64.5h-51zM720 357q0 67 -24 125t-66 101t-99.5 68t-124.5 25q-68 0 -125.5 -25t-99.5 -68t-65.5 -101t-23.5 -125t23.5 -125t65.5 -101t99.5 -68t125.5 -25q67 0 124.5 25t99.5 68t66 101t24 125zM778 357 q0 -78 -28.5 -146t-78.5 -118.5t-118 -79t-147 -28.5t-147 28.5t-118 79t-78.5 118.5t-28.5 146t28.5 146t78.5 118.5t118 79t147 28.5t147 -28.5t118 -79t78.5 -118.5t28.5 -146z" />
<glyph unicode="&#xaa;" horiz-adv-x="323" d="M13 597q3 58 41 83.5t99 25.5q25 0 48 -4t41 -15t28.5 -30.5t10.5 -50.5v-172q2 -23 25 -23q7 0 13 3v-34q-5 -1 -12 -2t-15 -1q-31 0 -39.5 14.5t-8.5 41.5h-2q-41 -65 -123 -65q-51 0 -84.5 22.5t-33.5 73.5q0 35 15.5 54.5t41 30t58 14t65.5 6.5q26 3 39.5 8.5 t13.5 22.5q0 40 -26 53.5t-62 13.5q-35 0 -60 -17t-26 -53h-47zM234 549h-2q-3 -7 -14.5 -9.5t-19.5 -4.5q-30 -5 -57.5 -8.5t-48 -10t-32.5 -18t-12 -32.5q0 -14 6.5 -24.5t16.5 -18.5t22 -12t24 -4q23 0 44.5 6.5t37.5 19t25.5 30t9.5 39.5v47z" />
<glyph unicode="&#xab;" horiz-adv-x="438" d="M66 244v62l133 125v-67l-94 -89l94 -89v-67zM227 244v62l133 125v-67l-94 -89l94 -89v-67z" />
<glyph unicode="&#xac;" horiz-adv-x="612" d="M505 325h-450v53h503v-267h-53v214z" />
<glyph unicode="&#xad;" horiz-adv-x="382" d="M66 246v58h250v-58h-250z" />
<glyph unicode="&#xae;" horiz-adv-x="812" d="M394 378q24 0 47.5 1.5t41.5 8.5t29 22.5t11 42.5q0 22 -8.5 36.5t-23 23t-33 11.5t-37.5 3h-97v-149h70zM324 142h-53v430h165q73 0 106.5 -30.5t33.5 -88.5q0 -29 -8.5 -49.5t-23.5 -35t-34.5 -23t-41.5 -12.5l128 -191h-62l-121 191h-89v-191zM406 676 q-68 0 -125.5 -25t-99.5 -68t-65.5 -101t-23.5 -125t23.5 -125t65.5 -101t99.5 -68t125.5 -25q67 0 124.5 25t99.5 68t66 101t24 125t-24 125t-66 101t-99.5 68t-124.5 25zM406 729q79 0 147 -28.5t118 -79t78.5 -118.5t28.5 -146t-28.5 -146t-78.5 -118.5t-118 -79 t-147 -28.5t-147 28.5t-118 79t-78.5 118.5t-28.5 146t28.5 146t78.5 118.5t118 79t147 28.5z" />
<glyph unicode="&#xaf;" d="M-66 638v45h329v-45h-329z" />
<glyph unicode="&#xb0;" horiz-adv-x="412" d="M101 562q0 -45 30 -75t75 -30q22 0 41 8t33 22.5t22.5 33.5t8.5 41t-8.5 41t-22.5 33t-33 22.5t-41 8.5t-41 -8.5t-33.5 -22.5t-22.5 -33t-8 -41zM62 562q0 30 11 56t30.5 45.5t46 31t56.5 11.5t56 -11.5t45.5 -31t31 -45.5t11.5 -56t-11.5 -56.5t-31 -46t-45.5 -30.5 t-56 -11t-56.5 11t-46 30.5t-30.5 46t-11 56.5z" />
<glyph unicode="&#xb1;" horiz-adv-x="612" d="M55 53h503v-53h-503v53zM280 503h53v-180h225v-53h-225v-180h-53v180h-224v53h224v180z" />
<glyph unicode="&#xb2;" horiz-adv-x="345" d="M30 553v7q0 64 35 104q37 42 115 42q63 0 104.5 -30.5t41.5 -94.5q0 -27 -9.5 -48.5t-25.5 -39.5t-37 -33t-43 -28q-16 -11 -37 -22t-41 -25t-36 -31.5t-22 -40.5h248v-39h-302q1 49 24.5 81t57 56.5t71 45.5t66.5 48q19 18 29 36t10 44q0 19 -8.5 34.5t-22.5 26 t-32.5 16t-39.5 5.5q-27 0 -46 -9.5t-31 -25.5t-17 -36.5t-5 -42.5h-47z" />
<glyph unicode="&#xb3;" horiz-adv-x="345" d="M141 517h35q16 0 32.5 4.5t30 13.5t22 23t8.5 33q0 39 -29.5 57.5t-68.5 18.5q-49 0 -75 -29t-25 -74h-47q1 63 39 102.5t108 39.5q28 0 54 -6.5t46.5 -20t32.5 -34.5t12 -50q0 -35 -20 -60t-57 -33v-2q45 -6 69.5 -33.5t24.5 -69.5q0 -32 -13 -57t-34.5 -41.5t-51 -25 t-62.5 -8.5q-75 0 -119 37q-40 34 -40 96q0 7 1 14h47v-6q0 -44 27 -72q29 -30 83 -30q21 0 42 6t37 17.5t26 28.5t10 38q0 42 -32.5 63t-77.5 21h-35v39z" />
<glyph unicode="&#xb4;" d="M90 590h-51l105 141h78z" />
<glyph unicode="&#xb5;" horiz-adv-x="549" d="M484 0h-58v93h-2q-25 -52 -72.5 -80t-105.5 -28q-32 0 -62.5 8.5t-54.5 26.5v-211h-64v707h63v-336q2 -70 32.5 -106t105.5 -36q40 0 69.5 17.5t48.5 46.5t28 66.5t9 76.5v271h63v-516z" />
<glyph unicode="&#xb6;" horiz-adv-x="612" d="M279 328q-44 0 -82 15t-65.5 41t-43.5 60.5t-16 73.5q0 96 58.5 146t164.5 50h230v-891h-63v838h-120v-838h-63v505z" />
<glyph unicode="&#xb7;" horiz-adv-x="290" d="M145 375q24 0 41.5 -18t17.5 -42q0 -23 -18 -40.5t-41 -17.5q-24 0 -41.5 18t-17.5 42q0 23 18 40.5t41 17.5z" />
<glyph unicode="&#xb8;" d="M132 0l-44 -54q14 3 25.5 3.5t24.5 -0.5q9 -2 20.5 -5.5t21.5 -11t17 -19.5t7 -30q0 -23 -10 -39t-26 -26.5t-35.5 -15.5t-38.5 -5q-24 0 -48 5t-46 16l14 32q13 -5 35 -9.5t44 -4.5q21 0 37 10t16 33q0 18 -13 28t-30 10q-33 0 -51 -8l-16 15l61 76h35z" />
<glyph unicode="&#xb9;" horiz-adv-x="345" d="M41 623q27 1 48.5 3t37.5 9t26.5 21.5t15.5 40.5h40v-423h-47v310h-121v39z" />
<glyph unicode="&#xba;" horiz-adv-x="346" d="M173 407q29 0 51 11.5t36.5 29.5t22 41.5t7.5 47.5t-7.5 47.5t-22 41.5t-36.5 29.5t-51 11.5t-51 -11.5t-36.5 -29.5t-22 -41.5t-7.5 -47.5t7.5 -47.5t22 -41.5t36.5 -29.5t51 -11.5zM168 368q-39 0 -68.5 13t-49.5 36t-30.5 54t-10.5 66t10.5 66t30.5 54t49.5 36 t68.5 13q42 0 74 -13t53 -36t31.5 -54t10.5 -66t-10.5 -66t-31.5 -54t-53 -36t-74 -13z" />
<glyph unicode="&#xbb;" horiz-adv-x="438" d="M78 186l94 89l-94 89v67l133 -125v-62l-133 -125v67zM239 186l94 89l-94 89v67l133 -125v-62l-133 -125v67z" />
<glyph unicode="&#xbc;" horiz-adv-x="846" d="M484 139h164v216h-2zM648 100h-210v39l213 284h44v-284h68v-39h-68v-100h-47v100zM54 623q27 1 48.5 3t37.5 9t26.5 21.5t15.5 40.5h40v-423h-47v310h-121v39zM592 725h47l-452 -759h-48z" />
<glyph unicode="&#xbd;" horiz-adv-x="846" d="M495 279v7q0 64 35 104q37 42 115 42q63 0 104.5 -30.5t41.5 -94.5q0 -27 -9.5 -48.5t-25.5 -39.5t-37 -33t-43 -28q-16 -11 -37 -22t-41 -25t-36 -31.5t-22 -40.5h248v-39h-302q1 49 24.5 81t57 56.5t71 45.5t66.5 48q19 18 29 36t10 44q0 19 -8.5 34.5t-22.5 26 t-32.5 16t-39.5 5.5q-27 0 -46 -9.5t-31 -25.5t-17 -36.5t-5 -42.5h-47zM54 623q27 1 48.5 3t37.5 9t26.5 21.5t15.5 40.5h40v-423h-47v310h-121v39zM592 725h47l-452 -759h-48z" />
<glyph unicode="&#xbe;" horiz-adv-x="846" d="M484 139h164v216h-2zM648 100h-210v39l213 284h44v-284h68v-39h-68v-100h-47v100zM632 725h47l-452 -759h-48zM141 517h35q16 0 32.5 4.5t30 13.5t22 23t8.5 33q0 39 -29.5 57.5t-68.5 18.5q-49 0 -75 -29t-25 -74h-47q1 63 39 102.5t108 39.5q28 0 54 -6.5t46.5 -20 t32.5 -34.5t12 -50q0 -35 -20 -60t-57 -33v-2q45 -6 69.5 -33.5t24.5 -69.5q0 -32 -13 -57t-34.5 -41.5t-51 -25t-62.5 -8.5q-75 0 -119 37q-40 34 -40 96q0 7 1 14h47v-6q0 -44 27 -72q29 -30 83 -30q21 0 42 6t37 17.5t26 28.5t10 38q0 42 -32.5 63t-77.5 21h-35v39z" />
<glyph unicode="&#xbf;" horiz-adv-x="549" d="M313 410h-84v106h84v-106zM490 29q0 -53 -15 -96.5t-44.5 -74.5t-71.5 -47.5t-96 -16.5q-42 0 -78.5 12.5t-64.5 36.5t-44 58t-16 78q0 56 24.5 95t62.5 75l49 49q19 17 28 34t12 41.5t4 70.5h63v-13q0 -38 -5 -65q-6 -31 -20 -56t-36 -48l-54 -51q-28 -26 -46.5 -58 t-18.5 -71q0 -30 11.5 -55t31 -42.5t45.5 -27.5t55 -10q40 0 71 14t51 38.5t30 57.5q9 30 9 65v7h63z" />
<glyph unicode="&#xc0;" horiz-adv-x="628" d="M172 280h281l-138 366zM280 714h76l280 -714h-73l-87 222h-325l-86 -222h-73zM174 919h78l105 -141h-51z" />
<glyph unicode="&#xc1;" horiz-adv-x="628" d="M172 280h281l-138 366zM280 714h76l280 -714h-73l-87 222h-325l-86 -222h-73zM331 780h-51l105 141h78z" />
<glyph unicode="&#xc2;" horiz-adv-x="628" d="M172 280h281l-138 366zM280 714h76l280 -714h-73l-87 222h-325l-86 -222h-73zM464 779h-65l-86 102l-88 -102h-58l114 141h69z" />
<glyph unicode="&#xc3;" horiz-adv-x="628" d="M172 280h281l-138 366zM280 714h76l280 -714h-73l-87 222h-325l-86 -222h-73zM473 900q-3 -17 -9.5 -34t-17 -30.5t-25.5 -22t-35 -8.5q-21 0 -39.5 7t-35.5 16t-32.5 16t-30.5 7q-38 0 -50 -51h-39q2 18 9 35t18 30.5t26.5 22t35.5 8.5q21 0 39.5 -7t34.5 -15l32 -15 q15 -7 29 -7q23 0 34.5 14t17.5 34h38z" />
<glyph unicode="&#xc4;" horiz-adv-x="628" d="M172 280h281l-138 366zM280 714h76l280 -714h-73l-87 222h-325l-86 -222h-73zM193 800v101h68v-101h-68zM370 800v101h68v-101h-68z" />
<glyph unicode="&#xc5;" horiz-adv-x="628" d="M172 280h281l-138 366zM280 714h76l280 -714h-73l-87 222h-325l-86 -222h-73zM249 860q0 -29 19.5 -48.5t48.5 -19.5t48.5 19.5t19.5 48.5t-19.5 48.5t-48.5 19.5t-48.5 -19.5t-19.5 -48.5zM210 860q0 22 8.5 41.5t23 34t34 23t41.5 8.5t41.5 -8.5t34 -23t23 -34 t8.5 -41.5t-8.5 -41.5t-23 -34t-34 -23t-41.5 -8.5t-41.5 8.5t-34 23t-23 34t-8.5 41.5z" />
<glyph unicode="&#xc6;" horiz-adv-x="905" d="M444 284v372h-40l-189 -372h229zM512 58h371v-58h-439v226h-259l-116 -226h-77l374 714h513v-58h-367v-258h344v-58h-344v-282z" />
<glyph unicode="&#xc7;" horiz-adv-x="702" d="M593 498q-9 41 -29.5 73.5t-50 54.5t-65 33.5t-74.5 11.5q-71 0 -122 -27t-83.5 -71.5t-48 -101t-15.5 -114.5q0 -59 15.5 -115t48 -100.5t83.5 -71.5t122 -27q49 0 89.5 18t69.5 49t47 72.5t23 89.5h68q-7 -66 -31 -119t-62 -90.5t-89.5 -57.5t-114.5 -20h-1l-32 -39 q14 3 25.5 3.5t24.5 -0.5q9 -2 20.5 -5.5t21.5 -11t17 -19.5t7 -30q0 -23 -10 -39t-26 -26.5t-35.5 -15.5t-38.5 -5q-24 0 -48 5t-46 16l14 32q13 -5 35 -9.5t44 -4.5q21 0 37 10t16 33q0 18 -13 28t-30 10q-33 0 -51 -8l-16 15l50 63q-32 2 -60 9.5t-53 18.5 q-47 23 -82.5 58.5t-59 80t-35.5 96t-12 107.5q0 73 21 140.5t63 119t105.5 82t147.5 30.5q51 0 99.5 -15t88 -44.5t66 -72.5t33.5 -99h-68z" />
<glyph unicode="&#xc8;" horiz-adv-x="610" d="M71 714h493v-58h-425v-258h398v-58h-398v-282h430v-58h-498v714zM183 919h78l105 -141h-51z" />
<glyph unicode="&#xc9;" horiz-adv-x="610" d="M71 714h493v-58h-425v-258h398v-58h-398v-282h430v-58h-498v714zM330 780h-51l105 141h78z" />
<glyph unicode="&#xca;" horiz-adv-x="610" d="M71 714h493v-58h-425v-258h398v-58h-398v-282h430v-58h-498v714zM468 779h-65l-86 102l-88 -102h-58l114 141h69z" />
<glyph unicode="&#xcb;" horiz-adv-x="610" d="M71 714h493v-58h-425v-258h398v-58h-398v-282h430v-58h-498v714zM194 800v101h68v-101h-68zM371 800v101h68v-101h-68z" />
<glyph unicode="&#xcc;" horiz-adv-x="220" d="M76 714h68v-714h-68v714zM-39 919h78l105 -141h-51z" />
<glyph unicode="&#xcd;" horiz-adv-x="220" d="M76 714h68v-714h-68v714zM127 780h-51l105 141h78z" />
<glyph unicode="&#xce;" horiz-adv-x="220" d="M76 714h68v-714h-68v714zM259 779h-65l-86 102l-88 -102h-58l114 141h69z" />
<glyph unicode="&#xcf;" horiz-adv-x="220" d="M76 714h68v-714h-68v714zM-12 800v101h68v-101h-68zM165 800v101h68v-101h-68z" />
<glyph unicode="&#xd0;" horiz-adv-x="683" d="M71 714h247q163 -4 245.5 -91.5t82.5 -265.5t-82.5 -265.5t-245.5 -91.5h-247v348h-72v45h72v321zM139 393h236v-45h-236v-290h145q77 0 132.5 16.5t91.5 52.5t53 93t17 137t-17 137t-53 93t-91.5 52.5t-132.5 16.5h-145v-263z" />
<glyph unicode="&#xd1;" horiz-adv-x="702" d="M70 714h76l416 -604h2v604h68v-714h-76l-416 604h-2v-604h-68v714zM515 900q-3 -17 -9.5 -34t-17 -30.5t-25.5 -22t-35 -8.5q-21 0 -39.5 7t-35.5 16t-32.5 16t-30.5 7q-38 0 -50 -51h-39q2 18 9 35t18 30.5t26.5 22t35.5 8.5q21 0 39.5 -7t34.5 -15l32 -15q15 -7 29 -7 q23 0 34.5 14t17.5 34h38z" />
<glyph unicode="&#xd2;" horiz-adv-x="739" d="M101 357q0 -59 15.5 -115t48 -100.5t83.5 -71.5t122 -27q70 0 121 27t83.5 71.5t48 100.5t15.5 115q0 58 -15.5 114.5t-48 101t-83.5 71.5t-121 27q-71 0 -122 -27t-83.5 -71.5t-48 -101t-15.5 -114.5zM33 357q0 73 21 140.5t63 119t105.5 82t147.5 30.5t147 -30.5 t105 -82t63 -119t21 -140.5q0 -74 -21 -141t-63 -118.5t-105 -82t-147 -30.5t-147.5 30.5t-105.5 82t-63 118.5t-21 141zM238 919h78l105 -141h-51z" />
<glyph unicode="&#xd3;" horiz-adv-x="739" d="M101 357q0 -59 15.5 -115t48 -100.5t83.5 -71.5t122 -27q70 0 121 27t83.5 71.5t48 100.5t15.5 115q0 58 -15.5 114.5t-48 101t-83.5 71.5t-121 27q-71 0 -122 -27t-83.5 -71.5t-48 -101t-15.5 -114.5zM33 357q0 73 21 140.5t63 119t105.5 82t147.5 30.5t147 -30.5 t105 -82t63 -119t21 -140.5q0 -74 -21 -141t-63 -118.5t-105 -82t-147 -30.5t-147.5 30.5t-105.5 82t-63 118.5t-21 141zM395 780h-51l105 141h78z" />
<glyph unicode="&#xd4;" horiz-adv-x="739" d="M101 357q0 -59 15.5 -115t48 -100.5t83.5 -71.5t122 -27q70 0 121 27t83.5 71.5t48 100.5t15.5 115q0 58 -15.5 114.5t-48 101t-83.5 71.5t-121 27q-71 0 -122 -27t-83.5 -71.5t-48 -101t-15.5 -114.5zM33 357q0 73 21 140.5t63 119t105.5 82t147.5 30.5t147 -30.5 t105 -82t63 -119t21 -140.5q0 -74 -21 -141t-63 -118.5t-105 -82t-147 -30.5t-147.5 30.5t-105.5 82t-63 118.5t-21 141zM520 779h-65l-86 102l-88 -102h-58l114 141h69z" />
<glyph unicode="&#xd5;" horiz-adv-x="739" d="M101 357q0 -59 15.5 -115t48 -100.5t83.5 -71.5t122 -27q70 0 121 27t83.5 71.5t48 100.5t15.5 115q0 58 -15.5 114.5t-48 101t-83.5 71.5t-121 27q-71 0 -122 -27t-83.5 -71.5t-48 -101t-15.5 -114.5zM33 357q0 73 21 140.5t63 119t105.5 82t147.5 30.5t147 -30.5 t105 -82t63 -119t21 -140.5q0 -74 -21 -141t-63 -118.5t-105 -82t-147 -30.5t-147.5 30.5t-105.5 82t-63 118.5t-21 141zM528 900q-3 -17 -9.5 -34t-17 -30.5t-25.5 -22t-35 -8.5q-21 0 -39.5 7t-35.5 16t-32.5 16t-30.5 7q-38 0 -50 -51h-39q2 18 9 35t18 30.5t26.5 22 t35.5 8.5q21 0 39.5 -7t34.5 -15l32 -15q15 -7 29 -7q23 0 34.5 14t17.5 34h38z" />
<glyph unicode="&#xd6;" horiz-adv-x="739" d="M101 357q0 -59 15.5 -115t48 -100.5t83.5 -71.5t122 -27q70 0 121 27t83.5 71.5t48 100.5t15.5 115q0 58 -15.5 114.5t-48 101t-83.5 71.5t-121 27q-71 0 -122 -27t-83.5 -71.5t-48 -101t-15.5 -114.5zM33 357q0 73 21 140.5t63 119t105.5 82t147.5 30.5t147 -30.5 t105 -82t63 -119t21 -140.5q0 -74 -21 -141t-63 -118.5t-105 -82t-147 -30.5t-147.5 30.5t-105.5 82t-63 118.5t-21 141zM245 800v101h68v-101h-68zM422 800v101h68v-101h-68z" />
<glyph unicode="&#xd7;" horiz-adv-x="612" d="M80 440l37 37l189 -189l189 189l37 -37l-189 -189l189 -189l-37 -37l-189 188l-189 -188l-37 37l188 189z" />
<glyph unicode="&#xd8;" horiz-adv-x="739" d="M697 696l-73 -81q42 -51 62 -118t20 -140q0 -74 -21 -141t-63 -118.5t-105 -82t-147 -30.5q-75 0 -132 23.5t-99 65.5l-76 -86l-27 25l79 88q-42 52 -62 118t-20 138q0 73 21 140.5t63 119t105.5 82t147.5 30.5q75 0 131.5 -23t98.5 -65l71 78zM557 593q-32 35 -78 56.5 t-109 21.5q-71 0 -122 -27t-83.5 -71.5t-48 -101t-15.5 -114.5q0 -57 14 -110.5t44 -96.5zM182 122q33 -37 79 -58t109 -21q70 0 121 27t83.5 71.5t48 100.5t15.5 115q0 57 -14 111t-45 97z" />
<glyph unicode="&#xd9;" horiz-adv-x="683" d="M64 714h68v-442q0 -62 14 -105.5t41 -71t65.5 -40t88.5 -12.5t89 12.5t66 40t41 71t14 105.5v442h68v-457q0 -55 -15.5 -104.5t-49 -86.5t-86 -59t-127.5 -22q-74 0 -126.5 22t-86 59t-49 86.5t-15.5 104.5v457zM213 919h78l105 -141h-51z" />
<glyph unicode="&#xda;" horiz-adv-x="683" d="M64 714h68v-442q0 -62 14 -105.5t41 -71t65.5 -40t88.5 -12.5t89 12.5t66 40t41 71t14 105.5v442h68v-457q0 -55 -15.5 -104.5t-49 -86.5t-86 -59t-127.5 -22q-74 0 -126.5 22t-86 59t-49 86.5t-15.5 104.5v457zM364 780h-51l105 141h78z" />
<glyph unicode="&#xdb;" horiz-adv-x="683" d="M64 714h68v-442q0 -62 14 -105.5t41 -71t65.5 -40t88.5 -12.5t89 12.5t66 40t41 71t14 105.5v442h68v-457q0 -55 -15.5 -104.5t-49 -86.5t-86 -59t-127.5 -22q-74 0 -126.5 22t-86 59t-49 86.5t-15.5 104.5v457zM490 779h-65l-86 102l-88 -102h-58l114 141h69z" />
<glyph unicode="&#xdc;" horiz-adv-x="683" d="M64 714h68v-442q0 -62 14 -105.5t41 -71t65.5 -40t88.5 -12.5t89 12.5t66 40t41 71t14 105.5v442h68v-457q0 -55 -15.5 -104.5t-49 -86.5t-86 -59t-127.5 -22q-74 0 -126.5 22t-86 59t-49 86.5t-15.5 104.5v457zM219 800v101h68v-101h-68zM396 800v101h68v-101h-68z" />
<glyph unicode="&#xdd;" horiz-adv-x="609" d="M270 294l-281 420h81l235 -362l234 362h81l-282 -420v-294h-68v294zM328 780h-51l105 141h78z" />
<glyph unicode="&#xde;" horiz-adv-x="628" d="M139 247h234q71 0 115 36t44 110t-44 110t-115 36h-234v-292zM71 714h68v-117h249q48 0 87 -13.5t67 -40t43 -64.5t15 -86t-15 -86t-43 -64.5t-67 -40t-87 -13.5h-249v-189h-68v714z" />
<glyph unicode="&#xdf;" horiz-adv-x="549" d="M67 535q0 49 14.5 85.5t40.5 60.5t62.5 36t81.5 12q40 0 75.5 -11.5t62.5 -34t42.5 -55t15.5 -75.5q0 -54 -29.5 -96t-83.5 -54v-2q36 -3 64 -19.5t47 -42t28.5 -57.5t9.5 -66q0 -55 -17 -96.5t-46.5 -69.5t-70 -42.5t-88.5 -15.5h-25q-6 0 -12 0.5t-13 1.5v55 q12 -2 23.5 -3t23.5 -1q31 0 60 8.5t51.5 28t36.5 49.5t14 74q0 52 -15.5 84t-43 49.5t-66 23.5t-84.5 6v53q33 0 64 6t55.5 20.5t39 39.5t14.5 64q0 28 -10.5 51t-28.5 39.5t-42 25.5t-51 9q-75 0 -106 -37t-31 -109v-530h-63v535z" />
<glyph unicode="&#xe0;" horiz-adv-x="525" d="M57 358q3 45 19 78t43.5 54t64.5 31t82 10q34 0 68 -6.5t61 -24.5t44 -50.5t17 -84.5v-274q0 -38 37 -38q11 0 20 4v-53q-11 -2 -19.5 -3t-21.5 -1q-24 0 -38.5 6.5t-22.5 18.5t-10.5 28.5t-2.5 36.5h-2q-17 -25 -34.5 -44.5t-39 -33t-49.5 -20.5t-65 -7q-36 0 -67.5 9 t-55 27.5t-37 47t-13.5 67.5q0 54 24 84.5t63.5 46.5t89 22.5t100.5 12.5q19 2 34.5 5t25.5 10.5t15.5 20.5t5.5 34q0 32 -10.5 52.5t-29 32.5t-43 16.5t-52.5 4.5q-60 0 -98 -28.5t-40 -91.5h-63zM393 282h-2q-6 -11 -23 -16t-30 -7q-40 -7 -82.5 -12.5t-77.5 -16.5 t-57.5 -32t-22.5 -58q0 -24 9.5 -42.5t25.5 -32t36.5 -20.5t43.5 -7q36 0 69 11t57.5 32t39 51t14.5 68v82zM129 729h78l105 -141h-51z" />
<glyph unicode="&#xe1;" horiz-adv-x="525" d="M57 358q3 45 19 78t43.5 54t64.5 31t82 10q34 0 68 -6.5t61 -24.5t44 -50.5t17 -84.5v-274q0 -38 37 -38q11 0 20 4v-53q-11 -2 -19.5 -3t-21.5 -1q-24 0 -38.5 6.5t-22.5 18.5t-10.5 28.5t-2.5 36.5h-2q-17 -25 -34.5 -44.5t-39 -33t-49.5 -20.5t-65 -7q-36 0 -67.5 9 t-55 27.5t-37 47t-13.5 67.5q0 54 24 84.5t63.5 46.5t89 22.5t100.5 12.5q19 2 34.5 5t25.5 10.5t15.5 20.5t5.5 34q0 32 -10.5 52.5t-29 32.5t-43 16.5t-52.5 4.5q-60 0 -98 -28.5t-40 -91.5h-63zM393 282h-2q-6 -11 -23 -16t-30 -7q-40 -7 -82.5 -12.5t-77.5 -16.5 t-57.5 -32t-22.5 -58q0 -24 9.5 -42.5t25.5 -32t36.5 -20.5t43.5 -7q36 0 69 11t57.5 32t39 51t14.5 68v82zM281 590h-51l105 141h78z" />
<glyph unicode="&#xe2;" horiz-adv-x="525" d="M57 358q3 45 19 78t43.5 54t64.5 31t82 10q34 0 68 -6.5t61 -24.5t44 -50.5t17 -84.5v-274q0 -38 37 -38q11 0 20 4v-53q-11 -2 -19.5 -3t-21.5 -1q-24 0 -38.5 6.5t-22.5 18.5t-10.5 28.5t-2.5 36.5h-2q-17 -25 -34.5 -44.5t-39 -33t-49.5 -20.5t-65 -7q-36 0 -67.5 9 t-55 27.5t-37 47t-13.5 67.5q0 54 24 84.5t63.5 46.5t89 22.5t100.5 12.5q19 2 34.5 5t25.5 10.5t15.5 20.5t5.5 34q0 32 -10.5 52.5t-29 32.5t-43 16.5t-52.5 4.5q-60 0 -98 -28.5t-40 -91.5h-63zM393 282h-2q-6 -11 -23 -16t-30 -7q-40 -7 -82.5 -12.5t-77.5 -16.5 t-57.5 -32t-22.5 -58q0 -24 9.5 -42.5t25.5 -32t36.5 -20.5t43.5 -7q36 0 69 11t57.5 32t39 51t14.5 68v82zM411 589h-65l-86 102l-88 -102h-58l114 141h69z" />
<glyph unicode="&#xe3;" horiz-adv-x="525" d="M57 358q3 45 19 78t43.5 54t64.5 31t82 10q34 0 68 -6.5t61 -24.5t44 -50.5t17 -84.5v-274q0 -38 37 -38q11 0 20 4v-53q-11 -2 -19.5 -3t-21.5 -1q-24 0 -38.5 6.5t-22.5 18.5t-10.5 28.5t-2.5 36.5h-2q-17 -25 -34.5 -44.5t-39 -33t-49.5 -20.5t-65 -7q-36 0 -67.5 9 t-55 27.5t-37 47t-13.5 67.5q0 54 24 84.5t63.5 46.5t89 22.5t100.5 12.5q19 2 34.5 5t25.5 10.5t15.5 20.5t5.5 34q0 32 -10.5 52.5t-29 32.5t-43 16.5t-52.5 4.5q-60 0 -98 -28.5t-40 -91.5h-63zM393 282h-2q-6 -11 -23 -16t-30 -7q-40 -7 -82.5 -12.5t-77.5 -16.5 t-57.5 -32t-22.5 -58q0 -24 9.5 -42.5t25.5 -32t36.5 -20.5t43.5 -7q36 0 69 11t57.5 32t39 51t14.5 68v82zM418 710q-3 -17 -9.5 -34t-17 -30.5t-25.5 -22t-35 -8.5q-21 0 -39.5 7t-35.5 16t-32.5 16t-30.5 7q-38 0 -50 -51h-39q2 18 9 35t18 30.5t26.5 22t35.5 8.5 q21 0 39.5 -7t34.5 -15l32 -15q15 -7 29 -7q23 0 34.5 14t17.5 34h38z" />
<glyph unicode="&#xe4;" horiz-adv-x="525" d="M57 358q3 45 19 78t43.5 54t64.5 31t82 10q34 0 68 -6.5t61 -24.5t44 -50.5t17 -84.5v-274q0 -38 37 -38q11 0 20 4v-53q-11 -2 -19.5 -3t-21.5 -1q-24 0 -38.5 6.5t-22.5 18.5t-10.5 28.5t-2.5 36.5h-2q-17 -25 -34.5 -44.5t-39 -33t-49.5 -20.5t-65 -7q-36 0 -67.5 9 t-55 27.5t-37 47t-13.5 67.5q0 54 24 84.5t63.5 46.5t89 22.5t100.5 12.5q19 2 34.5 5t25.5 10.5t15.5 20.5t5.5 34q0 32 -10.5 52.5t-29 32.5t-43 16.5t-52.5 4.5q-60 0 -98 -28.5t-40 -91.5h-63zM393 282h-2q-6 -11 -23 -16t-30 -7q-40 -7 -82.5 -12.5t-77.5 -16.5 t-57.5 -32t-22.5 -58q0 -24 9.5 -42.5t25.5 -32t36.5 -20.5t43.5 -7q36 0 69 11t57.5 32t39 51t14.5 68v82zM139 610v101h68v-101h-68zM316 610v101h68v-101h-68z" />
<glyph unicode="&#xe5;" horiz-adv-x="525" d="M57 358q3 45 19 78t43.5 54t64.5 31t82 10q34 0 68 -6.5t61 -24.5t44 -50.5t17 -84.5v-274q0 -38 37 -38q11 0 20 4v-53q-11 -2 -19.5 -3t-21.5 -1q-24 0 -38.5 6.5t-22.5 18.5t-10.5 28.5t-2.5 36.5h-2q-17 -25 -34.5 -44.5t-39 -33t-49.5 -20.5t-65 -7q-36 0 -67.5 9 t-55 27.5t-37 47t-13.5 67.5q0 54 24 84.5t63.5 46.5t89 22.5t100.5 12.5q19 2 34.5 5t25.5 10.5t15.5 20.5t5.5 34q0 32 -10.5 52.5t-29 32.5t-43 16.5t-52.5 4.5q-60 0 -98 -28.5t-40 -91.5h-63zM393 282h-2q-6 -11 -23 -16t-30 -7q-40 -7 -82.5 -12.5t-77.5 -16.5 t-57.5 -32t-22.5 -58q0 -24 9.5 -42.5t25.5 -32t36.5 -20.5t43.5 -7q36 0 69 11t57.5 32t39 51t14.5 68v82zM192 680q0 -29 19.5 -48.5t48.5 -19.5t48.5 19.5t19.5 48.5t-19.5 48.5t-48.5 19.5t-48.5 -19.5t-19.5 -48.5zM153 680q0 22 8.5 41.5t23 34t34 23t41.5 8.5 t41.5 -8.5t34 -23t23 -34t8.5 -41.5t-8.5 -41.5t-23 -34t-34 -23t-41.5 -8.5t-41.5 8.5t-34 23t-23 34t-8.5 41.5z" />
<glyph unicode="&#xe6;" horiz-adv-x="876" d="M456 241q-1 -10 -1 -20q0 -30 7 -58q9 -37 30 -65t54 -44t78 -16q64 0 101.5 34t51.5 95h63q-20 -88 -77 -135t-148 -47q-69 0 -117.5 32t-71.5 98h-2q-6 -32 -27.5 -56.5t-52 -41t-66.5 -24.5t-70 -8q-36 0 -67.5 9t-55 27.5t-37 47t-13.5 67.5q0 54 24 84.5t63.5 46.5 t89 22.5t100.5 12.5q19 2 34.5 5t25.5 10.5t15.5 20.5t5.5 34q0 32 -10.5 52.5t-29 32.5t-43 16.5t-52.5 4.5q-60 0 -98 -28.5t-40 -91.5h-63q3 45 19 78t43.5 54t64.5 31t82 10q26 0 54.5 -4.5t53 -16t42 -32.5t22.5 -54h2q10 27 29 47t43.5 33.5t52.5 20t56 6.5 q64 0 106.5 -24t68.5 -64.5t37 -93t11 -108.5h-388zM393 282h-2q-6 -11 -23 -16t-30 -7q-40 -7 -82.5 -12.5t-77.5 -16.5t-57.5 -32t-22.5 -58q0 -24 9.5 -42.5t25.5 -32t36.5 -20.5t43.5 -7q36 0 69 11t57.5 32t39 51t14.5 68v82zM781 294q0 36 -11.5 69t-32.5 58.5 t-51.5 41t-67.5 15.5q-39 0 -69.5 -15t-51.5 -40.5t-31 -58.5q-10 -31 -10 -64v-6h325z" />
<glyph unicode="&#xe7;" horiz-adv-x="532" d="M427 354q-13 58 -48 91t-98 33q-45 0 -79 -19t-56.5 -50t-34 -70.5t-11.5 -80.5t11.5 -80.5t34 -70.5t56.5 -50t79 -19q29 0 55 11t46 30.5t33 46.5t16 59h63q-14 -95 -70 -147t-138 -53l-32 -39q14 3 25.5 3.5t24.5 -0.5q9 -2 20.5 -5.5t21.5 -11t17 -19.5t7 -30 q0 -23 -10 -39t-26 -26.5t-35.5 -15.5t-38.5 -5q-24 0 -48 5t-46 16l14 32q13 -5 35 -9.5t44 -4.5q21 0 37 10t16 33q0 18 -13 28t-30 10q-33 0 -51 -8l-16 15l50 63q-21 2 -40 7t-36 13q-68 33 -103.5 99.5t-35.5 151.5q0 55 16 105t47 87t76.5 59t104.5 22q83 0 140.5 -44 t68.5 -133h-63z" />
<glyph unicode="&#xe8;" horiz-adv-x="535" d="M434 294q-1 36 -12.5 69t-32.5 58.5t-51 41t-68 15.5q-39 0 -69 -15.5t-51 -41t-33.5 -59t-16.5 -68.5h334zM100 241q0 -35 9.5 -71t30.5 -65t53 -48t77 -19q69 0 108 36t54 96h63q-20 -88 -73.5 -136.5t-151.5 -48.5q-62 0 -106 22t-72 59.5t-41.5 87t-13.5 104.5 q0 51 13.5 100t41.5 87.5t72 62t106 23.5t106 -25t71.5 -65.5t39.5 -92.5q10 -45 10 -92v-15h-397zM136 729h78l105 -141h-51z" />
<glyph unicode="&#xe9;" horiz-adv-x="535" d="M434 294q-1 36 -12.5 69t-32.5 58.5t-51 41t-68 15.5q-39 0 -69 -15.5t-51 -41t-33.5 -59t-16.5 -68.5h334zM100 241q0 -35 9.5 -71t30.5 -65t53 -48t77 -19q69 0 108 36t54 96h63q-20 -88 -73.5 -136.5t-151.5 -48.5q-62 0 -106 22t-72 59.5t-41.5 87t-13.5 104.5 q0 51 13.5 100t41.5 87.5t72 62t106 23.5t106 -25t71.5 -65.5t39.5 -92.5q10 -45 10 -92v-15h-397zM288 590h-51l105 141h78z" />
<glyph unicode="&#xea;" horiz-adv-x="535" d="M434 294q-1 36 -12.5 69t-32.5 58.5t-51 41t-68 15.5q-39 0 -69 -15.5t-51 -41t-33.5 -59t-16.5 -68.5h334zM100 241q0 -35 9.5 -71t30.5 -65t53 -48t77 -19q69 0 108 36t54 96h63q-20 -88 -73.5 -136.5t-151.5 -48.5q-62 0 -106 22t-72 59.5t-41.5 87t-13.5 104.5 q0 51 13.5 100t41.5 87.5t72 62t106 23.5t106 -25t71.5 -65.5t39.5 -92.5q10 -45 10 -92v-15h-397zM420 589h-65l-86 102l-88 -102h-58l114 141h69z" />
<glyph unicode="&#xeb;" horiz-adv-x="535" d="M434 294q-1 36 -12.5 69t-32.5 58.5t-51 41t-68 15.5q-39 0 -69 -15.5t-51 -41t-33.5 -59t-16.5 -68.5h334zM100 241q0 -35 9.5 -71t30.5 -65t53 -48t77 -19q69 0 108 36t54 96h63q-20 -88 -73.5 -136.5t-151.5 -48.5q-62 0 -106 22t-72 59.5t-41.5 87t-13.5 104.5 q0 51 13.5 100t41.5 87.5t72 62t106 23.5t106 -25t71.5 -65.5t39.5 -92.5q10 -45 10 -92v-15h-397zM149 610v101h68v-101h-68zM326 610v101h68v-101h-68z" />
<glyph unicode="&#xec;" horiz-adv-x="191" d="M64 0v516h63v-516h-63zM-55 729h78l105 -141h-51z" />
<glyph unicode="&#xed;" horiz-adv-x="191" d="M64 0v516h63v-516h-63zM113 590h-51l105 141h78z" />
<glyph unicode="&#xee;" horiz-adv-x="191" d="M64 0v516h63v-516h-63zM245 589h-65l-86 102l-88 -102h-58l114 141h69z" />
<glyph unicode="&#xef;" horiz-adv-x="191" d="M64 0v516h63v-516h-63zM-26 610v101h68v-101h-68zM151 610v101h68v-101h-68z" />
<glyph unicode="&#xf0;" horiz-adv-x="568" d="M241 652l-46 29q-23 14 -47 26l36 35l52 -30q27 -15 52 -34l114 64l33 -32l-109 -61q42 -34 77.5 -75t62 -89.5t41.5 -105t15 -121.5q0 -56 -15 -106t-45 -87t-76 -58.5t-109 -21.5q-60 0 -105 20.5t-74 56t-43.5 83.5t-14.5 104q0 52 15.5 98.5t46 82t74.5 56t101 20.5 q37 0 74 -8.5t59 -31.5h2q-25 48 -58 86t-75 71l-105 -59l-33 32zM282 453q-48 0 -82 -16.5t-55.5 -44.5t-31.5 -65.5t-10 -78.5t10 -79t31.5 -67t55 -46.5t80.5 -17.5q44 0 77.5 15.5t56 44t34 67t11.5 85.5q0 37 -10 73.5t-31 65.5t-54.5 46.5t-81.5 17.5z" />
<glyph unicode="&#xf1;" horiz-adv-x="543" d="M62 516h63v-89h2q18 47 64 75.5t101 28.5q54 0 90.5 -14t58.5 -39.5t31 -62.5t9 -83v-332h-63v322q0 33 -6 61.5t-21 49.5t-40.5 33t-63.5 12t-67.5 -13.5t-50 -37t-32 -56t-12.5 -70.5v-301h-63v516zM428 710q-3 -17 -9.5 -34t-17 -30.5t-25.5 -22t-35 -8.5 q-21 0 -39.5 7t-35.5 16t-32.5 16t-30.5 7q-38 0 -50 -51h-39q2 18 9 35t18 30.5t26.5 22t35.5 8.5q21 0 39.5 -7t34.5 -15l32 -15q15 -7 29 -7q23 0 34.5 14t17.5 34h38z" />
<glyph unicode="&#xf2;" horiz-adv-x="562" d="M281 478q-45 0 -79 -19t-56.5 -50t-34 -70.5t-11.5 -80.5t11.5 -80.5t34 -70.5t56.5 -50t79 -19t79 19t56.5 50t34 70.5t11.5 80.5t-11.5 80.5t-34 70.5t-56.5 50t-79 19zM281 531q59 0 104.5 -22t76.5 -59t47 -87t16 -105q0 -56 -16 -105.5t-47 -86.5t-76.5 -59 t-104.5 -22t-104.5 22t-76.5 59t-47 86.5t-16 105.5q0 55 16 105t47 87t76.5 59t104.5 22zM149 729h78l105 -141h-51z" />
<glyph unicode="&#xf3;" horiz-adv-x="562" d="M281 478q-45 0 -79 -19t-56.5 -50t-34 -70.5t-11.5 -80.5t11.5 -80.5t34 -70.5t56.5 -50t79 -19t79 19t56.5 50t34 70.5t11.5 80.5t-11.5 80.5t-34 70.5t-56.5 50t-79 19zM281 531q59 0 104.5 -22t76.5 -59t47 -87t16 -105q0 -56 -16 -105.5t-47 -86.5t-76.5 -59 t-104.5 -22t-104.5 22t-76.5 59t-47 86.5t-16 105.5q0 55 16 105t47 87t76.5 59t104.5 22zM302 590h-51l105 141h78z" />
<glyph unicode="&#xf4;" horiz-adv-x="562" d="M281 478q-45 0 -79 -19t-56.5 -50t-34 -70.5t-11.5 -80.5t11.5 -80.5t34 -70.5t56.5 -50t79 -19t79 19t56.5 50t34 70.5t11.5 80.5t-11.5 80.5t-34 70.5t-56.5 50t-79 19zM281 531q59 0 104.5 -22t76.5 -59t47 -87t16 -105q0 -56 -16 -105.5t-47 -86.5t-76.5 -59 t-104.5 -22t-104.5 22t-76.5 59t-47 86.5t-16 105.5q0 55 16 105t47 87t76.5 59t104.5 22zM431 589h-65l-86 102l-88 -102h-58l114 141h69z" />
<glyph unicode="&#xf5;" horiz-adv-x="562" d="M281 478q-45 0 -79 -19t-56.5 -50t-34 -70.5t-11.5 -80.5t11.5 -80.5t34 -70.5t56.5 -50t79 -19t79 19t56.5 50t34 70.5t11.5 80.5t-11.5 80.5t-34 70.5t-56.5 50t-79 19zM281 531q59 0 104.5 -22t76.5 -59t47 -87t16 -105q0 -56 -16 -105.5t-47 -86.5t-76.5 -59 t-104.5 -22t-104.5 22t-76.5 59t-47 86.5t-16 105.5q0 55 16 105t47 87t76.5 59t104.5 22zM440 710q-3 -17 -9.5 -34t-17 -30.5t-25.5 -22t-35 -8.5q-21 0 -39.5 7t-35.5 16t-32.5 16t-30.5 7q-38 0 -50 -51h-39q2 18 9 35t18 30.5t26.5 22t35.5 8.5q21 0 39.5 -7t34.5 -15 l32 -15q15 -7 29 -7q23 0 34.5 14t17.5 34h38z" />
<glyph unicode="&#xf6;" horiz-adv-x="562" d="M281 478q-45 0 -79 -19t-56.5 -50t-34 -70.5t-11.5 -80.5t11.5 -80.5t34 -70.5t56.5 -50t79 -19t79 19t56.5 50t34 70.5t11.5 80.5t-11.5 80.5t-34 70.5t-56.5 50t-79 19zM281 531q59 0 104.5 -22t76.5 -59t47 -87t16 -105q0 -56 -16 -105.5t-47 -86.5t-76.5 -59 t-104.5 -22t-104.5 22t-76.5 59t-47 86.5t-16 105.5q0 55 16 105t47 87t76.5 59t104.5 22zM160 610v101h68v-101h-68zM337 610v101h68v-101h-68z" />
<glyph unicode="&#xf7;" horiz-adv-x="612" d="M250 50q0 23 16.5 39.5t39.5 16.5t39.5 -16.5t16.5 -39.5q0 -21 -16.5 -38.5t-38.5 -17.5q-23 0 -40 16.5t-17 39.5zM250 453q0 23 16.5 39.5t39.5 16.5t39.5 -16.5t16.5 -39.5q0 -21 -16.5 -38.5t-38.5 -17.5q-23 0 -40 16.5t-17 39.5zM55 225v53h503v-53h-503z" />
<glyph unicode="&#xf8;" horiz-adv-x="562" d="M525 499l-54 -59q27 -38 40.5 -84.5t13.5 -97.5q0 -56 -16 -105.5t-47 -86.5t-76.5 -59t-104.5 -22q-54 0 -96 18t-72 50l-59 -64l-22 20l61 67q-28 36 -42 83t-14 99q0 55 16 105t47 87t76.5 59t104.5 22q54 0 97 -18t73 -50l52 56zM154 97q21 -26 53 -42.5t74 -16.5 q45 0 79 19t56.5 50t34 70.5t11.5 80.5q0 36 -8.5 70.5t-26.5 63.5zM409 418q-22 27 -54 43.5t-74 16.5q-45 0 -79 -19t-56.5 -50t-34 -70.5t-11.5 -80.5q0 -36 8.5 -70.5t27.5 -64.5z" />
<glyph unicode="&#xf9;" horiz-adv-x="543" d="M481 0h-58v93h-2q-25 -52 -72.5 -80t-105.5 -28q-98 0 -139.5 52.5t-41.5 143.5v335h63v-336q2 -70 32.5 -106t105.5 -36q40 0 69.5 17.5t48.5 46.5t28 66.5t9 76.5v271h63v-516zM145 729h78l105 -141h-51z" />
<glyph unicode="&#xfa;" horiz-adv-x="543" d="M481 0h-58v93h-2q-25 -52 -72.5 -80t-105.5 -28q-98 0 -139.5 52.5t-41.5 143.5v335h63v-336q2 -70 32.5 -106t105.5 -36q40 0 69.5 17.5t48.5 46.5t28 66.5t9 76.5v271h63v-516zM293 590h-51l105 141h78z" />
<glyph unicode="&#xfb;" horiz-adv-x="543" d="M481 0h-58v93h-2q-25 -52 -72.5 -80t-105.5 -28q-98 0 -139.5 52.5t-41.5 143.5v335h63v-336q2 -70 32.5 -106t105.5 -36q40 0 69.5 17.5t48.5 46.5t28 66.5t9 76.5v271h63v-516zM420 589h-65l-86 102l-88 -102h-58l114 141h69z" />
<glyph unicode="&#xfc;" horiz-adv-x="543" d="M481 0h-58v93h-2q-25 -52 -72.5 -80t-105.5 -28q-98 0 -139.5 52.5t-41.5 143.5v335h63v-336q2 -70 32.5 -106t105.5 -36q40 0 69.5 17.5t48.5 46.5t28 66.5t9 76.5v271h63v-516zM149 610v101h68v-101h-68zM326 610v101h68v-101h-68z" />
<glyph unicode="&#xfd;" horiz-adv-x="475" d="M8 516h67l170 -440l159 440h63l-224 -595q-14 -33 -26 -54.5t-26.5 -34t-34 -18t-49.5 -5.5q-19 1 -29.5 1.5t-18.5 3.5v53q11 -2 21.5 -3.5t21.5 -1.5q21 0 34.5 6t23.5 16.5t17 25.5l15 33l22 59zM268 590h-51l105 141h78z" />
<glyph unicode="&#xfe;" horiz-adv-x="586" d="M66 714h63v-296h2q10 28 28.5 49t42.5 35t51.5 21.5t56.5 7.5q59 0 102.5 -22t72.5 -59.5t43 -87t14 -104.5t-14 -104.5t-43 -87t-72.5 -59.5t-102.5 -22q-29 0 -56.5 7t-51.5 21.5t-42.5 35.5t-28.5 49h-2v-289h-63v905zM479 258q0 40 -9.5 79.5t-30 70.5t-52.5 50.5 t-77 19.5q-50 0 -84.5 -19.5t-56 -50.5t-31 -70.5t-9.5 -79.5t9.5 -79.5t31 -70.5t56 -50.5t84.5 -19.5q45 0 77 19.5t52.5 50.5t30 70.5t9.5 79.5z" />
<glyph unicode="&#xff;" horiz-adv-x="475" d="M8 516h67l170 -440l159 440h63l-224 -595q-14 -33 -26 -54.5t-26.5 -34t-34 -18t-49.5 -5.5q-19 1 -29.5 1.5t-18.5 3.5v53q11 -2 21.5 -3.5t21.5 -1.5q21 0 34.5 6t23.5 16.5t17 25.5l15 33l22 59zM123 610v101h68v-101h-68zM300 610v101h68v-101h-68z" />
<glyph unicode="&#x152;" horiz-adv-x="1072" d="M636 398h368v-58h-368v-282h409v-58h-477v70q-36 -42 -88.5 -63.5t-105.5 -21.5q-80 0 -142.5 30t-106 81t-66.5 118.5t-23 142.5t23 142.5t66.5 118.5t106 81t142.5 30q57 0 108 -17.5t86 -56.5v59h474v-58h-406v-258zM568 509q0 24 -1 39t-4 27q-9 23 -30 41t-48 30 t-56.5 18.5t-54.5 6.5q-65 0 -115.5 -25.5t-85 -68.5t-52 -100t-17.5 -120t17.5 -120t52 -100t85 -68.5t115.5 -25.5q55 0 98 17t78 62q10 12 13.5 26t4.5 29v332z" />
<glyph unicode="&#x153;" horiz-adv-x="895" d="M803 294q0 36 -10.5 69.5t-30.5 59t-50 40.5t-69 15q-40 0 -70 -15t-50.5 -40.5t-30.5 -58.5t-10 -70h321zM865 166q-21 -88 -79.5 -134.5t-148.5 -46.5q-32 0 -61.5 8.5t-54 25t-42.5 41t-26 56.5h-2q-19 -66 -68.5 -98.5t-116.5 -32.5q-61 0 -104 22.5t-70.5 60t-40 87 t-12.5 103.5t14 103t42.5 87t71.5 60.5t102 22.5q66 0 115 -30.5t69 -96.5h2q21 57 71 92t119 35q115 0 168 -73t53 -217h-384q0 -38 9.5 -74.5t29 -65t50 -46t72.5 -17.5q66 0 104 34t55 94h63zM268 478q-49 0 -81 -21t-51 -54.5t-26.5 -75t-7.5 -81.5q0 -39 9 -76 t29 -66.5t51 -47.5t76 -18q48 0 77.5 20t46 52.5t22.5 72.5t6 79t-6 77.5t-23 69.5t-46.5 50t-75.5 19z" />
<glyph unicode="&#x178;" horiz-adv-x="609" d="M270 294l-281 420h81l235 -362l234 362h81l-282 -420v-294h-68v294zM182 800v101h68v-101h-68zM359 800v101h68v-101h-68z" />
<glyph unicode="&#x2c6;" d="M250 589h-65l-86 102l-88 -102h-58l114 141h69z" />
<glyph unicode="&#x2da;" d="M31 680q0 -29 19.5 -48.5t48.5 -19.5t48.5 19.5t19.5 48.5t-19.5 48.5t-48.5 19.5t-48.5 -19.5t-19.5 -48.5zM-8 680q0 22 8.5 41.5t23 34t34 23t41.5 8.5t41.5 -8.5t34 -23t23 -34t8.5 -41.5t-8.5 -41.5t-23 -34t-34 -23t-41.5 -8.5t-41.5 8.5t-34 23t-23 34t-8.5 41.5z " />
<glyph unicode="&#x2dc;" d="M255 710q-3 -17 -9.5 -34t-17 -30.5t-25.5 -22t-35 -8.5q-21 0 -39.5 7t-35.5 16t-32.5 16t-30.5 7q-38 0 -50 -51h-39q2 18 9 35t18 30.5t26.5 22t35.5 8.5q21 0 39.5 -7t34.5 -15l32 -15q15 -7 29 -7q23 0 34.5 14t17.5 34h38z" />
<glyph unicode="&#x2000;" horiz-adv-x="483" />
<glyph unicode="&#x2001;" horiz-adv-x="967" />
<glyph unicode="&#x2002;" horiz-adv-x="483" />
<glyph unicode="&#x2003;" horiz-adv-x="967" />
<glyph unicode="&#x2004;" horiz-adv-x="322" />
<glyph unicode="&#x2005;" horiz-adv-x="241" />
<glyph unicode="&#x2006;" horiz-adv-x="161" />
<glyph unicode="&#x2007;" horiz-adv-x="161" />
<glyph unicode="&#x2008;" horiz-adv-x="120" />
<glyph unicode="&#x2009;" horiz-adv-x="193" />
<glyph unicode="&#x200a;" horiz-adv-x="53" />
<glyph unicode="&#x2010;" horiz-adv-x="382" d="M66 246v58h250v-58h-250z" />
<glyph unicode="&#x2011;" horiz-adv-x="382" d="M66 246v58h250v-58h-250z" />
<glyph unicode="&#x2013;" horiz-adv-x="512" d="M6 246v58h500v-58h-500z" />
<glyph unicode="&#x2014;" horiz-adv-x="1012" d="M136 246v58h740v-58h-740z" />
<glyph unicode="&#x2018;" horiz-adv-x="290" d="M101 471v107q0 22 5.5 43.5t16.5 40t27.5 32.5t39.5 20v-43q-13 -5 -22 -15.5t-15 -24t-8.5 -28t-1.5 -26.5h42v-106h-84z" />
<glyph unicode="&#x2019;" horiz-adv-x="290" d="M189 714v-107q0 -22 -5.5 -43.5t-16.5 -40t-28 -32.5t-39 -20v43q13 4 22 14.5t15 24.5t8.5 28.5t1.5 26.5h-42v106h84z" />
<glyph unicode="&#x201a;" horiz-adv-x="290" d="M189 106v-107q0 -22 -5.5 -43.5t-16.5 -40t-28 -32.5t-39 -20v43q13 4 22 14.5t15 24.5t8.5 28.5t1.5 26.5h-42v106h84z" />
<glyph unicode="&#x201c;" horiz-adv-x="444" d="M101 471v107q0 22 5.5 43.5t16.5 40t27.5 32.5t39.5 20v-43q-13 -5 -22 -15.5t-15 -24t-8.5 -28t-1.5 -26.5h42v-106h-84zM255 471v107q0 22 5.5 43.5t16.5 40t27.5 32.5t39.5 20v-43q-13 -5 -22 -15.5t-15 -24t-8.5 -28t-1.5 -26.5h42v-106h-84z" />
<glyph unicode="&#x201d;" horiz-adv-x="444" d="M189 714v-107q0 -22 -5.5 -43.5t-16.5 -40t-28 -32.5t-39 -20v43q13 4 22 14.5t15 24.5t8.5 28.5t1.5 26.5h-42v106h84zM343 714v-107q0 -22 -5.5 -43.5t-16.5 -40t-28 -32.5t-39 -20v43q13 4 22 14.5t15 24.5t8.5 28.5t1.5 26.5h-42v106h84z" />
<glyph unicode="&#x201e;" horiz-adv-x="444" d="M190 106v-107q0 -22 -5.5 -43.5t-16.5 -40t-28 -32.5t-39 -20v43q13 4 22 14.5t15 24.5t8.5 28.5t1.5 26.5h-42v106h84zM344 106v-107q0 -22 -5.5 -43.5t-16.5 -40t-28 -32.5t-39 -20v43q13 4 22 14.5t15 24.5t8.5 28.5t1.5 26.5h-42v106h84z" />
<glyph unicode="&#x2022;" horiz-adv-x="512" d="M78 357q0 37 14 69.5t38 56.5t56.5 38t69.5 14t69.5 -14t57 -38t38.5 -56.5t14 -69.5t-14 -69.5t-38.5 -57t-57 -38.5t-69.5 -14t-69.5 14t-56.5 38.5t-38 57t-14 69.5z" />
<glyph unicode="&#x2026;" horiz-adv-x="1012" d="M797 0v106h84v-106h-84zM464 0v106h84v-106h-84zM131 0v106h84v-106h-84z" />
<glyph unicode="&#x202f;" horiz-adv-x="193" />
<glyph unicode="&#x2039;" horiz-adv-x="271" d="M59 244v62l133 125v-67l-94 -89l94 -89v-67z" />
<glyph unicode="&#x203a;" horiz-adv-x="271" d="M79 186l94 89l-94 89v67l133 -125v-62l-133 -125v67z" />
<glyph unicode="&#x205f;" horiz-adv-x="241" />
<glyph unicode="&#x20ac;" horiz-adv-x="568" d="M536 576q-66 79 -160 79q-92 0 -150 -67q-51 -58 -69 -154h333l-18 -45h-321q-3 -26 -3 -43v-8q0 -5 1 -8h304l-19 -45h-282q13 -104 63 -169q60 -75 158 -75q52 0 96 23q34 19 78 63v-77q-77 -65 -176 -65q-125 0 -202 89q-67 79 -82 211h-66l19 45h44q-1 3 -1 9v11 q0 8 0.5 17.5t1.5 21.5h-64l18 45h51q22 123 92 196q76 82 195 82q124 0 186 -77z" />
<glyph unicode="&#x2122;" horiz-adv-x="1002" d="M482 302v412h85l133 -334l129 334h85v-412h-53v364h-2l-146 -364h-30l-146 364h-2v-364h-53zM222 302v367h-134v45h321v-45h-134v-367h-53z" />
<glyph unicode="&#xe300;" d="M-25 919h78l105 -141h-51z" />
<glyph unicode="&#xe301;" d="M90 778h-51l105 141h78z" />
<glyph unicode="&#xe302;" d="M250 778h-65l-86 102l-88 -102h-58l114 141h69z" />
<glyph unicode="&#xe304;" d="M255 710q-3 -17 -9.5 -34t-17 -30.5t-25.5 -22t-35 -8.5q-21 0 -39.5 7t-35.5 16t-32.5 16t-30.5 7q-38 0 -50 -51h-39q2 18 9 35t18 30.5t26.5 22t35.5 8.5q21 0 39.5 -7t34.5 -15l32 -15q15 -7 29 -7q23 0 34.5 14t17.5 34h38z" />
<glyph unicode="&#xe305;" d="M-24 800v101h68v-101h-68zM153 800v101h68v-101h-68z" />
<glyph unicode="&#xe308;" d="M31 860q0 -29 19.5 -48.5t48.5 -19.5t48.5 19.5t19.5 48.5t-19.5 48.5t-48.5 19.5t-48.5 -19.5t-19.5 -48.5zM-8 860q0 22 8.5 41.5t23 34t34 23t41.5 8.5t41.5 -8.5t34 -23t23 -34t8.5 -41.5t-8.5 -41.5t-23 -34t-34 -23t-41.5 -8.5t-41.5 8.5t-34 23t-23 34t-8.5 41.5z " />
</font>
</defs>
</svg>
