<?xml version="1.0" encoding="utf-8"?>
<!-- Generator: Adobe Illustrator 17.0.0, SVG Export Plug-In . SVG Version: 6.00 Build 0)  -->
<!DOCTYPE svg PUBLIC "-//W3C//DTD SVG 1.1//EN" "http://www.w3.org/Graphics/SVG/1.1/DTD/svg11.dtd">
<svg version="1.1" id="Layer_1" xmlns="http://www.w3.org/2000/svg" xmlns:xlink="http://www.w3.org/1999/xlink" x="0px" y="0px"
	 width="1200px" height="1200px" viewBox="0 0 1200 1200" enable-background="new 0 0 1200 1200" xml:space="preserve">
<path fill="#FFFFFF" d="M610.747,307.266c184.625,0,273.719,179.828,273.719,179.828l0.218-0.875v59.969
	c0,0-88.234-135.5-283.422-135.5L601.138,411c-195.187,0-282.969,135.687-282.969,135.687v-60c0,0,89.11-179.843,273.75-179.843
	L610.747,307.266z"/>
<path fill="#FFFFFF" d="M891.123,697.078c0,0-73.859,195.422-291.031,195.422l-1.578-0.125C381.341,892.375,307.482,697,307.482,697
	v-0.672c0,0,73.859-195.406,291.031-195.406l1.578,0.094c217.172,0,291.031,195.422,291.031,195.422V697.078z"/>
<path fill="#4C83C3" d="M603.888,863.484c89.969,0,162.89-72.906,162.89-162.89c0-89.922-72.922-162.875-162.89-162.875
	s-162.906,72.954-162.906,162.875C440.982,790.578,513.919,863.484,603.888,863.484"/>
<path fill="#231F20" d="M603.888,770.406c38.546,0,69.766-31.25,69.766-69.813c0-38.5-31.219-69.75-69.766-69.75
	c-38.547,0-69.782,31.25-69.782,69.75C534.107,739.156,565.341,770.406,603.888,770.406"/>
<path fill="#FFFFFF" d="M610.747,307.266c184.625,0,273.719,179.828,273.719,179.828l0.218-0.875v59.969
	c0,0-88.234-135.5-283.422-135.5L601.138,411c-195.187,0-282.969,135.687-282.969,135.687v-60c0,0,89.11-179.843,273.75-179.843
	L610.747,307.266z"/>
<path fill="#FFFFFF" d="M891.123,697.078c0,0-73.859,195.422-291.031,195.422l-1.578-0.125C381.341,892.375,307.482,697,307.482,697
	v-0.672c0,0,73.859-195.406,291.031-195.406l1.578,0.094c217.172,0,291.031,195.422,291.031,195.422V697.078z"/>
<path fill="#4C83C3" d="M603.888,863.484c89.969,0,162.89-72.906,162.89-162.89c0-89.922-72.922-162.875-162.89-162.875
	s-162.906,72.954-162.906,162.875C440.982,790.578,513.919,863.484,603.888,863.484"/>
<path fill="#231F20" d="M603.888,770.406c38.546,0,69.766-31.25,69.766-69.813c0-38.5-31.219-69.75-69.766-69.75
	c-38.547,0-69.782,31.25-69.782,69.75C534.107,739.156,565.341,770.406,603.888,770.406"/>
<path fill="#FFFFFF" d="M610.747,307.266c184.625,0,273.719,179.828,273.719,179.828l0.218-0.875v59.969
	c0,0-88.234-135.5-283.422-135.5L601.138,411c-195.187,0-282.969,135.687-282.969,135.687v-60c0,0,89.11-179.843,273.75-179.843
	L610.747,307.266z"/>
<path fill="#FFFFFF" d="M891.123,697.078c0,0-73.859,195.422-291.031,195.422l-1.578-0.125C381.341,892.375,307.482,697,307.482,697
	v-0.672c0,0,73.859-195.406,291.031-195.406l1.578,0.094c217.172,0,291.031,195.422,291.031,195.422V697.078z"/>
<path fill="#4C83C3" d="M603.888,863.484c89.969,0,162.89-72.906,162.89-162.89c0-89.922-72.922-162.875-162.89-162.875
	s-162.906,72.954-162.906,162.875C440.982,790.578,513.919,863.484,603.888,863.484"/>
<path fill="#231F20" d="M603.888,770.406c38.546,0,69.766-31.25,69.766-69.813c0-38.5-31.219-69.75-69.766-69.75
	c-38.547,0-69.782,31.25-69.782,69.75C534.107,739.156,565.341,770.406,603.888,770.406"/>
</svg>
