<?xml version="1.0" standalone="no"?><!-- Generator: Adobe Fireworks CS6, Export SVG Extension by Aaron Beall (http://fireworks.abeall.com) . Version: 0.6.1  --><!DOCTYPE svg PUBLIC "-//W3C//DTD SVG 1.1//EN" "http://www.w3.org/Graphics/SVG/1.1/DTD/svg11.dtd"><svg id="thm-sprite-test.fw-Page%203%20Copy" viewBox="0 0 300 200" style="background-color:#ffffff00" version="1.1"	xmlns="http://www.w3.org/2000/svg" xmlns:xlink="http://www.w3.org/1999/xlink" xml:space="preserve"	x="0px" y="0px" width="300px" height="200px">	<defs>		<linearGradient id="gradient1" x1="50%" y1="0%" x2="50%" y2="100%">			<stop stop-color="#e5e5e5" stop-opacity="1" offset="0%"/>			<stop stop-color="#b2b2b2" stop-opacity="1" offset="100%"/>		</linearGradient>		<linearGradient id="gradient2" x1="66.6667%" y1="-13.6364%" x2="66.6667%" y2="120.4545%">			<stop stop-color="#595c64" stop-opacity="1" offset="0%"/>			<stop stop-color="#1b1b1c" stop-opacity="1" offset="100%"/>		</linearGradient>		<linearGradient id="gradient3" x1="50%" y1="0%" x2="50%" y2="100%">			<stop stop-color="#000000" stop-opacity="1" offset="0%"/>			<stop stop-color="#333333" stop-opacity="1" offset="100%"/>		</linearGradient>		<linearGradient id="gradient4" x1="50%" y1="0%" x2="50%" y2="100%">			<stop stop-color="#bbbbbb" stop-opacity="1" offset="0%"/>			<stop stop-color="#f7f7f7" stop-opacity="1" offset="100%"/>		</linearGradient>	</defs>	<g>		<rect opacity="0.4" x="118" y="64" width="32" height="24" fill="url(#gradient1)" rx="4" ry="4"/>		<rect x="119" y="65" width="30" height="22" fill="url(#gradient2)" rx="3" ry="3"/>		<path opacity="0.8" d="M 130 70.5371 C 130 69.1677 130.891 68.6075 131.9798 69.2922 L 139.1834 73.8217 C 140.2722 74.5064 140.2722 75.6267 139.1834 76.3114 L 131.9798 80.8411 C 130.891 81.5258 130 80.9656 130 79.5962 L 130 70.5371 Z" fill="url(#gradient3)"/>		<path d="M 130 71.4038 C 130 70.0344 130.891 69.4742 131.9798 70.1589 L 139.1834 74.6883 C 140.2722 75.373 140.2722 76.4934 139.1834 77.1781 L 131.9798 81.7078 C 130.891 82.3925 130 81.8323 130 80.4629 L 130 71.4038 Z" fill="url(#gradient4)"/>	</g></svg>