<?xml version="1.0" standalone="no"?><!-- Generator: Adobe Fireworks CS6, Export SVG Extension by Aaron Beall (http://fireworks.abeall.com) . Version: 0.6.1  --><!DOCTYPE svg PUBLIC "-//W3C//DTD SVG 1.1//EN" "http://www.w3.org/Graphics/SVG/1.1/DTD/svg11.dtd"><svg id="thm-sprite-test.fw-Page%202" viewBox="0 0 340 340" style="background-color:#ffffff00" version="1.1"	xmlns="http://www.w3.org/2000/svg" xmlns:xlink="http://www.w3.org/1999/xlink" xml:space="preserve"	x="0px" y="0px" width="340px" height="340px">	<defs>		<linearGradient id="gradient1" x1="50%" y1="0%" x2="50%" y2="100%">			<stop stop-color="#7f7f7f" stop-opacity="1" offset="0%"/>			<stop stop-color="#111111" stop-opacity="1" offset="100%"/>		</linearGradient>		<clipPath id="mask1">			<path id="Ellipse3" d="M 0 170 C 0 76.1104 76.1104 0 170 0 C 263.8896 0 340 76.1104 340 170 C 340 263.8896 263.8896 340 170 340 C 76.1104 340 0 263.8896 0 170 Z" fill="none"/>		</clipPath>	</defs>	<g>		<path id="Ellipse" d="M 0 170 C 0 76.1104 76.1104 0 170 0 C 263.8896 0 340 76.1104 340 170 C 340 263.8896 263.8896 340 170 340 C 76.1104 340 0 263.8896 0 170 Z" fill="url(#gradient1)"/>			<path id="Ellipse2" d="M 0 170 C 0 76.1104 76.1104 0 170 0 C 263.8896 0 340 76.1104 340 170 C 340 263.8896 263.8896 340 170 340 C 76.1104 340 0 263.8896 0 170 Z" fill="none"/>		<g opacity="0.2" clip-path="url(#mask1)">			<path id="Line" d="M 1 1 L 339 339 " stroke="#ffffff" stroke-width="1" fill="none"/>			<path id="Line2" d="M 1 339 L 339 1 " stroke="#ffffff" stroke-width="1" fill="none"/>		</g>	</g></svg>