<?xml version="1.0" standalone="no"?><!-- Generator: Adobe Fireworks CS6, Export SVG Extension by Aaron Beall (http://fireworks.abeall.com) . Version: 0.6.1  --><!DOCTYPE svg PUBLIC "-//W3C//DTD SVG 1.1//EN" "http://www.w3.org/Graphics/SVG/1.1/DTD/svg11.dtd"><svg id="thm-sprite-test.fw-Page%203" viewBox="0 0 300 200" style="background-color:#ffffff00" version="1.1"	xmlns="http://www.w3.org/2000/svg" xmlns:xlink="http://www.w3.org/1999/xlink" xml:space="preserve"	x="0px" y="0px" width="300px" height="200px">	<rect x="0" y="0" width="300" height="200" fill="#4c4c4c"/>	<path opacity="0.4" d="M 189.9935 123.2192 C 189.9935 122.4307 189.2554 121.6618 187.7467 121.1035 L 173.5597 115.8107 C 173.482 115.5771 173.4043 115.3402 173.3137 115.1066 L 154.8596 63.588 C 152.1789 56.1373 147.8211 56.1373 145.1404 63.588 L 126.6864 115.1066 C 126.5892 115.3434 126.5115 115.5771 126.4403 115.8107 L 112.2533 121.1035 C 110.7576 121.6551 110 122.4274 110 123.2129 L 110 124.8058 L 110 124.803 C 110 125.5684 110.7187 126.3542 112.1432 126.9705 L 144.7195 141.0604 C 147.6269 142.3132 152.3731 142.3132 155.2805 141.0604 L 187.8568 126.9705 C 189.2942 126.3542 190 125.5621 189.9935 124.79 L 190 124.8058 L 190 123.2129 L 189.9935 123.2192 Z" fill="#ffffff"/></svg>