<?xml version="1.0" standalone="no"?><!-- Generator: Adobe Fireworks CS6, Export SVG Extension by Aaron Beall (http://fireworks.abeall.com) . Version: 0.6.1  --><!DOCTYPE svg PUBLIC "-//W3C//DTD SVG 1.1//EN" "http://www.w3.org/Graphics/SVG/1.1/DTD/svg11.dtd"><svg id="Untitled-Page%201" viewBox="0 0 100 317" style="background-color:#ffffff00" version="1.1"	xmlns="http://www.w3.org/2000/svg" xmlns:xlink="http://www.w3.org/1999/xlink" xml:space="preserve"	x="0px" y="0px" width="100px" height="317px">	<g id="Layer%201">		<path d="M 1.2701 53.6198 C 0.9451 53.6198 0.6201 53.4959 0.3721 53.2484 C -0.124 52.7536 -0.124 51.9506 0.3721 51.4559 L 24.876 27.0001 L 0.3721 2.5442 C -0.124 2.0495 -0.124 1.2465 0.3721 0.7518 C 0.8682 0.2566 1.672 0.2566 2.1682 0.7518 L 27.5701 26.1038 C 28.0662 26.5986 28.0662 27.4016 27.5701 27.8963 L 2.1682 53.2484 C 1.92 53.4959 1.5951 53.6198 1.2701 53.6198 Z" fill="#7f7f7f"/>		<path d="M 98.7299 53.6198 C 99.0549 53.6198 99.3799 53.4959 99.6279 53.2484 C 100.124 52.7536 100.124 51.9506 99.6279 51.4559 L 75.124 27.0001 L 99.6279 2.5442 C 100.124 2.0495 100.124 1.2465 99.6279 0.7518 C 99.1318 0.2566 98.328 0.2566 97.8318 0.7518 L 72.4299 26.1038 C 71.9338 26.5986 71.9338 27.4016 72.4299 27.8963 L 97.8318 53.2484 C 98.08 53.4959 98.4049 53.6198 98.7299 53.6198 Z" fill="#7f7f7f"/>		<path d="M 0.9546 140 C 0.7103 140 0.4661 139.9069 0.2797 139.7209 C -0.0932 139.3492 -0.0932 138.7459 0.2797 138.3742 L 18.6956 120 L 0.2797 101.6257 C -0.0932 101.254 -0.0932 100.6507 0.2797 100.279 C 0.6524 99.907 1.2565 99.907 1.6294 100.279 L 20.7203 119.3266 C 21.0932 119.6983 21.0932 120.3016 20.7203 120.6734 L 1.6294 139.7209 C 1.4429 139.9069 1.1988 140 0.9546 140 Z" fill="#7f7f7f"/>		<path d="M 99.0454 140 C 99.2897 140 99.534 139.9069 99.7203 139.7209 C 100.0932 139.3492 100.0932 138.7459 99.7203 138.3742 L 81.3044 120 L 99.7203 101.6257 C 100.0932 101.254 100.0932 100.6507 99.7203 100.279 C 99.3476 99.907 98.7435 99.907 98.3706 100.279 L 79.2797 119.3266 C 78.9068 119.6983 78.9068 120.3016 79.2797 120.6734 L 98.3706 139.7209 C 98.5571 139.9069 98.8012 140 99.0454 140 Z" fill="#7f7f7f"/>		<path d="M 1.0714 227 C 0.7973 227 0.523 226.8986 0.314 226.6958 C -0.1047 226.2904 -0.1047 225.6328 0.314 225.2274 L 12.4133 213.5001 L 0.314 201.7727 C -0.1047 201.3672 -0.1047 200.7097 0.314 200.3042 C 0.732 199.8986 1.4109 199.8986 1.829 200.3042 L 14.6861 212.7659 C 15.1046 213.1712 15.1046 213.8289 14.6861 214.2343 L 1.829 226.6958 C 1.6199 226.8986 1.3456 227 1.0714 227 Z" fill="#7f7f7f"/>		<path d="M 98.9286 227 C 99.2027 227 99.477 226.8986 99.686 226.6958 C 100.1047 226.2904 100.1047 225.6328 99.686 225.2274 L 87.5867 213.5001 L 99.686 201.7727 C 100.1047 201.3672 100.1047 200.7097 99.686 200.3042 C 99.268 199.8986 98.5891 199.8986 98.1711 200.3042 L 85.3139 212.7659 C 84.8954 213.1712 84.8954 213.8289 85.3139 214.2343 L 98.1711 226.6958 C 98.3801 226.8986 98.6544 227 98.9286 227 Z" fill="#7f7f7f"/>		<path d="M 0.8514 317 C 0.6336 317 0.4156 316.9133 0.2494 316.74 C -0.0831 316.393 -0.0831 315.8308 0.2494 315.4841 L 6.9446 308.5 L 0.2494 301.5159 C -0.0831 301.1691 -0.0831 300.6069 0.2494 300.2599 C 0.582 299.9132 1.1211 299.9135 1.4534 300.2602 L 8.7507 307.872 C 9.0831 308.2187 9.0831 308.7812 8.7507 309.1279 L 1.4534 316.7398 C 1.2872 316.9133 1.0691 317 0.8514 317 Z" fill="#7f7f7f"/>		<path d="M 99.1486 317 C 99.3664 317 99.5844 316.9133 99.7506 316.74 C 100.0831 316.393 100.0831 315.8308 99.7506 315.4841 L 93.0554 308.5 L 99.7506 301.5159 C 100.0831 301.1691 100.0831 300.6069 99.7506 300.2599 C 99.418 299.9132 98.8789 299.9135 98.5466 300.2602 L 91.2493 307.872 C 90.9169 308.2187 90.9169 308.7812 91.2493 309.1279 L 98.5466 316.7398 C 98.7128 316.9133 98.9309 317 99.1486 317 Z" fill="#7f7f7f"/>	</g></svg>