<?xml version="1.0" standalone="no"?><!-- Generator: Adobe Fireworks CS6, Export SVG Extension by Aaron Beall (http://fireworks.abeall.com) . Version: 0.6.1  --><!DOCTYPE svg PUBLIC "-//W3C//DTD SVG 1.1//EN" "http://www.w3.org/Graphics/SVG/1.1/DTD/svg11.dtd"><svg id="thm-sprite-test-master.fw-60x60%20thm%20140" viewBox="0 0 140 490" style="background-color:#ffffff00" version="1.1"	xmlns="http://www.w3.org/2000/svg" xmlns:xlink="http://www.w3.org/1999/xlink" xml:space="preserve"	x="0px" y="0px" width="140px" height="490px">	<defs>		<linearGradient id="gradient1" x1="50%" y1="0%" x2="50%" y2="100%">			<stop stop-color="#7f7f7f" stop-opacity="1" offset="0%"/>			<stop stop-color="#111111" stop-opacity="1" offset="100%"/>		</linearGradient>		<clipPath id="mask1">			<path id="Ellipse3" d="M 0 245 C 0 206.3396 31.3396 175 70 175 C 108.6604 175 140 206.3396 140 245 C 140 283.6604 108.6604 315 70 315 C 31.3396 315 0 283.6604 0 245 Z" fill="none"/>		</clipPath>			<clipPath id="mask2">				<path id="Ellipse6" d="M 0 70.0385 C 0 31.3568 31.3396 0 70 0 C 108.6604 0 140 31.3568 140 70.0385 C 140 108.7201 108.6604 140.0769 70 140.0769 C 31.3396 140.0769 0 108.7201 0 70.0385 Z" fill="none"/>			</clipPath>		<linearGradient id="gradient2" x1="50%" y1="0%" x2="50%" y2="100%">			<stop stop-color="#000000" stop-opacity="1" offset="0%"/>			<stop stop-color="#333333" stop-opacity="1" offset="100%"/>		</linearGradient>			<clipPath id="mask3">				<path id="Ellipse9" d="M 11.3215 420 C 11.3215 387.5923 37.5923 361.3215 70 361.3215 C 102.4077 361.3215 128.6785 387.5923 128.6785 420 C 128.6785 452.4077 102.4077 478.6785 70 478.6785 C 37.5923 478.6785 11.3215 452.4077 11.3215 420 Z" fill="none"/>			</clipPath>	</defs>	<g id="Layer%201">		<path id="Ellipse" d="M 0 245 C 0 206.3396 31.3396 175 70 175 C 108.6604 175 140 206.3396 140 245 C 140 283.6604 108.6604 315 70 315 C 31.3396 315 0 283.6604 0 245 Z" fill="url(#gradient1)"/>			<path id="Ellipse2" d="M 0 245 C 0 206.3396 31.3396 175 70 175 C 108.6604 175 140 206.3396 140 245 C 140 283.6604 108.6604 315 70 315 C 31.3396 315 0 283.6604 0 245 Z" fill="none"/>		<g opacity="0.2" clip-path="url(#mask1)">			<path id="Line" d="M 0.4118 175.4118 L 139.5882 314.5883 " stroke="#ffffff" stroke-width="2" fill="none"/>			<path id="Line2" d="M 0.4118 314.5883 L 139.5882 175.4118 " stroke="#ffffff" stroke-width="2" fill="none"/>		</g>		<g>			<path id="Ellipse4" d="M 0 70.0385 C 0 31.3568 31.3396 0 70 0 C 108.6604 0 140 31.3568 140 70.0385 C 140 108.7202 108.6604 140.0769 70 140.0769 C 31.3396 140.0769 0 108.7202 0 70.0385 Z" fill="#666666"/>				<path id="Ellipse5" d="M 0 70.0385 C 0 31.3568 31.3396 0 70 0 C 108.6604 0 140 31.3568 140 70.0385 C 140 108.7201 108.6604 140.0769 70 140.0769 C 31.3396 140.0769 0 108.7201 0 70.0385 Z" fill="none"/>			<g opacity="0.102" clip-path="url(#mask2)">				<path id="Line3" d="M 0.4118 0.412 L 139.5882 139.665 " stroke="#ffffff" stroke-width="2" fill="none"/>				<path id="Line4" d="M 0.4118 139.665 L 139.5882 0.412 " stroke="#ffffff" stroke-width="2" fill="none"/>			</g>		</g>		<g>			<path id="Ellipse7" d="M 0 420 C 0 381.3395 31.3396 350 70 350 C 108.6604 350 140 381.3395 140 420 C 140 458.6605 108.6604 490 70 490 C 31.3396 490 0 458.6605 0 420 Z" fill="url(#gradient2)"/>				<path id="Ellipse8" d="M 11.3215 420 C 11.3215 387.5923 37.5923 361.3215 70 361.3215 C 102.4077 361.3215 128.6785 387.5923 128.6785 420 C 128.6785 452.4077 102.4077 478.6785 70 478.6785 C 37.5923 478.6785 11.3215 452.4077 11.3215 420 Z" fill="none"/>			<g opacity="0.2" clip-path="url(#mask3)">				<path id="Line5" d="M 11.6667 361.6666 L 128.3333 478.3334 " stroke="#ffffff" stroke-width="2" fill="none"/>				<path id="Line6" d="M 11.6667 478.3334 L 128.3333 361.6666 " stroke="#ffffff" stroke-width="2" fill="none"/>			</g>		</g>		<g opacity="0.6">			<path d="M 41.1267 55.9339 L 34.8542 55.9339 L 34.8542 46.9682 L 32.8125 46.9682 L 32.8125 55.9339 L 27.492 55.9339 L 27.492 57.9767 L 32.8125 57.9767 L 32.8125 79.1781 C 32.5885 86.1061 36.7024 86.7578 41.0707 86.4776 L 41.0707 84.4348 C 37.0384 84.5583 34.8542 84.0804 34.8542 79.1781 L 34.8542 57.9767 L 41.1267 57.9767 L 41.1267 55.9339 L 41.1267 55.9339 Z" fill="#cccccc"/>			<path d="M 44.4792 44.5036 L 44.4792 86.2349 L 46.5209 86.2349 L 46.5209 70.3005 C 46.5209 63.0784 50.5309 57.9767 57.1189 57.9767 C 65.139 57.9767 65.4792 64.5687 65.4792 67.6066 L 65.4792 86.2349 L 67.5209 86.2349 L 67.5209 68.0078 C 67.5209 64.3968 67.4133 55.9339 57.1762 55.9339 C 52.5932 55.9339 48.1249 58.6649 46.6354 63.0784 L 46.5209 63.0784 L 46.5209 44.5036 L 44.4792 44.5036 L 44.4792 44.5036 Z" fill="#cccccc"/>			<path d="M 72.4792 86.2349 L 74.5209 86.2349 L 74.5209 68.8102 C 74.5209 61.2443 79.7888 57.9767 84.0617 57.9767 C 85.9933 57.9767 91.1458 58.6649 91.1458 66.059 L 91.1458 86.2349 L 93.1875 86.2349 L 93.1875 68.8102 C 93.1875 61.7601 97.1678 57.9767 102.6113 57.9767 C 104.3673 57.9767 109.8125 58.5503 109.8125 66.059 L 109.8125 86.2349 L 111.8542 86.2349 L 111.8542 66.1163 C 111.8542 59.1808 108.0548 55.9339 102.6113 55.9339 C 97.7531 55.9339 94.8264 58.321 93.08 62.3333 L 92.9725 62.3333 C 92.3815 59.2954 89.7979 55.9339 84.0617 55.9339 C 79.5547 55.9339 75.5745 59.0662 74.6379 62.7918 L 74.5209 62.7918 L 74.5209 56.1767 L 72.4792 56.1767 L 72.4792 86.2349 L 72.4792 86.2349 Z" fill="#cccccc"/>		</g>		<g>			<path d="M 41.1267 225.9339 L 34.8542 225.9339 L 34.8542 216.9682 L 32.8125 216.9682 L 32.8125 225.9339 L 27.492 225.9339 L 27.492 227.9767 L 32.8125 227.9767 L 32.8125 249.1782 C 32.5885 256.1061 36.7024 256.7578 41.0707 256.4776 L 41.0707 254.4348 C 37.0384 254.5583 34.8542 254.0804 34.8542 249.1782 L 34.8542 227.9767 L 41.1267 227.9767 L 41.1267 225.9339 L 41.1267 225.9339 Z" fill="#cccccc"/>			<path d="M 44.4792 214.5036 L 44.4792 256.2349 L 46.5209 256.2349 L 46.5209 240.3005 C 46.5209 233.0784 50.5309 227.9767 57.1189 227.9767 C 65.139 227.9767 65.4792 234.5687 65.4792 237.6066 L 65.4792 256.2349 L 67.5209 256.2349 L 67.5209 238.0078 C 67.5209 234.3968 67.4133 225.9339 57.1762 225.9339 C 52.5932 225.9339 48.1249 228.6649 46.6354 233.0784 L 46.5209 233.0784 L 46.5209 214.5036 L 44.4792 214.5036 L 44.4792 214.5036 Z" fill="#cccccc"/>			<path d="M 72.4792 256.2349 L 74.5209 256.2349 L 74.5209 238.8102 C 74.5209 231.2443 79.7888 227.9767 84.0617 227.9767 C 85.9933 227.9767 91.1458 228.6649 91.1458 236.059 L 91.1458 256.2349 L 93.1875 256.2349 L 93.1875 238.8102 C 93.1875 231.7601 97.1678 227.9767 102.6113 227.9767 C 104.3673 227.9767 109.8125 228.5503 109.8125 236.059 L 109.8125 256.2349 L 111.8542 256.2349 L 111.8542 236.1163 C 111.8542 229.1808 108.0548 225.9339 102.6113 225.9339 C 97.7531 225.9339 94.8264 228.321 93.08 232.3333 L 92.9725 232.3333 C 92.3815 229.2954 89.7979 225.9339 84.0617 225.9339 C 79.5547 225.9339 75.5745 229.0662 74.6379 232.7918 L 74.5209 232.7918 L 74.5209 226.1766 L 72.4792 226.1766 L 72.4792 256.2349 L 72.4792 256.2349 Z" fill="#cccccc"/>		</g>	</g></svg>